#N canvas 7 81 272 526 16;
#X declare -path _abstract -stdlib Gem;
#N canvas 177 305 458 458 INIT 0;
#X obj 299 84 arrast_cpu;
#N canvas 45 78 918 353 MODE_SELECTOR 0;
#X obj 44 37 r \$0-click_vj;
#X obj 44 71 t b;
#X msg 194 197 0;
#X obj 44 294 s \$0-vj_color;
#X obj 194 294 s \$0-map_color;
#X obj 374 71 t b;
#X obj 374 37 r \$0-click_map;
#X msg 524 197 1;
#X obj 374 294 s \$0-map_color;
#X obj 524 294 s \$0-vj_color;
#X obj 222 58 loadbang;
#X obj 194 225 s CANAL_MODE;
#X obj 524 225 s CANAL_MODE;
#X obj 704 17 r CANAL_MODE;
#X msg 704 46 vis \$1;
#X obj 698 135 s \$0-flush_map_tabs;
#X obj 704 76 s pd-MAP_GUI;
#X obj 44 111 t b b b b;
#X msg 194 135 vis 1;
#X obj 194 163 s pd-GUI;
#X obj 500 135 s \$0-flush_act_map;
#X obj 374 111 t b b b b b;
#X msg 44 260 color 14 0 22;
#X msg 194 260 color 22 0 0;
#X msg 374 260 color 14 0 22;
#X msg 524 260 color 22 0 0;
#X obj 222 87 del 100;
#X connect 0 0 1 0;
#X connect 1 0 17 0;
#X connect 2 0 11 0;
#X connect 5 0 21 0;
#X connect 6 0 5 0;
#X connect 7 0 12 0;
#X connect 10 0 26 0;
#X connect 13 0 14 0;
#X connect 14 0 16 0;
#X connect 17 0 22 0;
#X connect 17 1 23 0;
#X connect 17 2 2 0;
#X connect 17 3 18 0;
#X connect 18 0 19 0;
#X connect 21 0 24 0;
#X connect 21 1 25 0;
#X connect 21 2 7 0;
#X connect 21 3 20 0;
#X connect 21 4 15 0;
#X connect 22 0 3 0;
#X connect 23 0 4 0;
#X connect 24 0 8 0;
#X connect 25 0 9 0;
#X connect 26 0 17 0;
#X restore 60 161 pd MODE_SELECTOR;
#N canvas 271 60 842 693 RUN_MOTOR 0;
#X obj 52 38 loadbang;
#X obj 119 620 pd~ -ninsig 0 -noutsig 0;
#X msg 142 426 pd~ stop;
#X msg 151 96 \; pd dsp 1;
#X obj 52 72 t b b;
#X text 246 106 PRIMEIRO LIGA DSP PARA FUNCIONAR [pd~];
#X text 242 427 FINALIZA SEGUNDA INSTÂNCIA;
#N canvas 5 54 543 221 RECEIVE_FROM_2 0;
#X obj 52 115 route map_fb;
#X obj 52 152 s CANAL_MAP_FB;
#X obj 52 48 inlet FROM_2;
#X text 219 115 RECEBE FEEDBACK COM POSIÇÃO DOS MAPPINGS AJUSTADOS
NA JANELA DE SAÍDA DO GEM, f 27;
#X connect 0 0 1 0;
#X connect 2 0 0 0;
#X restore 119 666 pd RECEIVE_FROM_2;
#X text 307 668 RECEBE DADOS DA 2 INSTÂNCIA;
#N canvas 376 188 802 507 SEND_TO_2 0;
#X obj 52 73 list prepend gemwin;
#X obj 52 118 r CANAL_V;
#X obj 52 148 list prepend video;
#X obj 292 118 r CANAL_I;
#X obj 292 148 list prepend imagem;
#X obj 532 118 r CANAL_C;
#X obj 532 148 list prepend camera;
#X obj 52 193 r CANAL_T;
#X obj 52 223 list prepend transf;
#X obj 292 193 r CANAL_FX;
#X obj 532 193 r CANAL_P;
#X obj 532 223 list prepend plot;
#X obj 292 223 list prepend fx;
#X obj 52 269 r CANAL_SEL;
#X obj 52 302 list prepend ch_sel;
#X obj 292 269 r CANAL_MODE;
#X obj 292 302 list prepend mode_sel;
#X obj 542 269 r CANAL_MAP;
#X obj 542 302 list prepend map;
#X obj 52 455 outlet;
#X obj 52 405 list trim;
#X obj 52 365 list prepend RECEIVE_FROM_1;
#X text 334 367 TAG PARA RECEBER MENSAGENS NA 2 INSTÂNCIA;
#X text 289 25 ** ORGANIZA ENVIOS E TAGS PARA MENSAGENS DE CONTROLE
DA 2 INSTÂNCIA, f 40;
#X obj 52 43 r CANAL_GEMWIN;
#X connect 0 0 21 0;
#X connect 1 0 2 0;
#X connect 2 0 21 0;
#X connect 3 0 4 0;
#X connect 4 0 21 0;
#X connect 5 0 6 0;
#X connect 6 0 21 0;
#X connect 7 0 8 0;
#X connect 8 0 21 0;
#X connect 9 0 12 0;
#X connect 10 0 11 0;
#X connect 11 0 21 0;
#X connect 12 0 21 0;
#X connect 13 0 14 0;
#X connect 14 0 21 0;
#X connect 15 0 16 0;
#X connect 16 0 21 0;
#X connect 17 0 18 0;
#X connect 18 0 21 0;
#X connect 20 0 19 0;
#X connect 21 0 20 0;
#X connect 24 0 0 0;
#X restore 152 502 pd SEND_TO_2;
#X text 288 502 ENVIA DADOS DE CONTROLE PARA 2 INSTÂNCIA;
#X text 375 622 [pd~] SEM NECESSIDADE DE COMUNICAR ÁUDIO;
#X text 494 356 INICIALIZA SEGUNDA INSTÂNCIA SEM INTERFACE, f 28
;
#X text 196 14 ** GERENCIA CRIAÇÃO E COMUNICAÇÃO DA 2 INSTÂNCIA
DO PD - NECESSÁRIO PARA GERAR 2 JANELAS DO GEM E DISTRIBUIR O PROCESSAMENTO
EM 2 NÚCLEOS;
#X obj 152 571 spigot;
#X msg 209 543 1;
#X msg 249 543 0;
#X obj 142 454 t a b;
#X text 228 574 SÓ ENVIA COMANDO DEPOIS DE INICIAR 2 INSTÂNCIA;
#X msg 52 369 pd~ start -nogui _abstract/ARRAST_MOTOR.pd;
#X obj 52 415 t b b a;
#X text 218 723 ENVIA BANG PARA ATUALIZAR DADOS NECESSÁRIOS NA 2 INSTÂNCIA
;
#X obj 52 722 s REFRESH_MOTOR;
#X obj 95 160 r RESTART_MOTOR;
#X obj 122 218 r DEBUG;
#X obj 95 247 f;
#X obj 95 276 sel 0 1;
#X text 500 303 INICIALIZA SEGUNDA INSTÂNCIA COM INTERFACE, f 28
;
#X text 257 161 REINICIA 2 INSTÂNCIA;
#X text 204 219 MODO DEBUG;
#X msg 128 316 pd~ start _abstract/ARRAST_MOTOR.pd;
#X obj 95 189 t b b;
#X connect 0 0 4 0;
#X connect 1 0 7 0;
#X connect 2 0 17 0;
#X connect 4 0 19 0;
#X connect 4 1 3 0;
#X connect 9 0 14 0;
#X connect 14 0 1 0;
#X connect 15 0 14 1;
#X connect 16 0 14 1;
#X connect 17 0 1 0;
#X connect 17 1 16 0;
#X connect 19 0 20 0;
#X connect 20 0 22 0;
#X connect 20 1 15 0;
#X connect 20 2 1 0;
#X connect 23 0 31 0;
#X connect 24 0 25 1;
#X connect 25 0 26 0;
#X connect 26 0 19 0;
#X connect 26 1 30 0;
#X connect 30 0 20 0;
#X connect 31 0 25 0;
#X connect 31 1 2 0;
#X restore 60 127 pd RUN_MOTOR;
#N canvas 383 92 529 353 MAP_GUI 0;
#X obj 2 3 cnv 15 525 348 empty empty empty 20 12 0 14 -1 -66577 0
;
#X obj 12 44 cnv 15 505 297 empty empty empty 20 12 0 14 -128992 -262144
0;
#X obj 32 54 hradio 35 1 0 3 \$0-click_m1 \$0-click_m1_in empty 0 0
0 15 -262144 -1 -1 1;
#X obj 152 54 hradio 35 1 0 3 \$0-click_m2 \$0-click_m2_in empty 0
-8 0 10 -262144 -1 -1 2;
#X obj 272 54 hradio 35 1 0 3 \$0-click_m3 \$0-click_m3_in empty 0
-8 0 10 -262144 -1 -1 1;
#X obj 392 54 hradio 35 1 0 3 \$0-click_m4 \$0-click_m4_in empty 0
-8 0 10 -262144 -1 -1 0;
#X obj 32 54 cnv 15 105 35 empty \$0-m1_color CANAL_1 18 18 0 16 -258699
-1 0;
#X obj 152 54 cnv 15 105 35 empty \$0-m2_color CANAL_2 18 18 0 16 -241291
-1 0;
#X obj 272 54 cnv 15 105 35 empty \$0-m3_color CANAL_3 18 18 0 16 -250685
-1 0;
#X obj 392 54 cnv 15 105 35 empty \$0-m4_color CANAL_4 18 18 0 16 -24198
-1 0;
#X obj 22 90 cnv 15 485 183 empty \$0-map_sel_color empty 20 12 0 14
-258699 -262144 0;
#X obj 83 235 hradio 30 1 0 8 \$0-click_mask_open \$0-click_mask_open_in
empty 0 -8 0 10 -262144 -1 -1 3;
#X obj 42 235 tgl 30 0 \$0-on_mask_map \$0-on_mask_map_in MASK 3 -8
0 10 -1 -262144 -1 0 1;
#X obj 32 100 cnv 15 465 112 empty empty empty 20 12 0 14 -228856 -262144
0;
#X floatatom 55 110 8 0 0 0 x #0-aex_in #0-aex, f 8;
#X floatatom 155 110 8 0 0 0 y #0-aey_in #0-aey, f 8;
#X floatatom 55 180 8 0 0 0 x #0-bex_in #0-bex, f 8;
#X floatatom 155 180 8 0 0 0 y #0-bey_in #0-bey, f 8;
#X floatatom 305 110 8 0 0 0 x #0-adx_in #0-adx, f 8;
#X floatatom 405 110 8 0 0 0 y #0-ady_in #0-ady, f 8;
#X floatatom 305 180 8 0 0 0 x #0-bdx_in #0-bdx, f 8;
#X floatatom 405 180 8 0 0 0 y #0-bdy_in #0-bdy, f 8;
#X obj 250 139 tgl 35 0 \$0-edit_map \$0-edit_map_in empty 17 7 0 10
-1 -262144 -1 0 1;
#X obj 355 235 bng 30 250 50 0 \$0-reset_act_map \$0-reset_act_map_in
RESET 1 -8 0 10 -1 -262144 -1;
#X obj 395 235 bng 30 250 50 0 \$0-full_act_map \$0-full_act_map_in
FULL 4 -8 0 10 -1 -262144 -1;
#X obj 83 235 cnv 15 240 30 empty \$0-mask_visor open_mask 10 15 0
14 -1 -262144 0;
#X obj 167 301 hradio 30 1 0 10 \$0-click_map_open \$0-click_map_open_in
PRESET 0 -8 0 10 -262144 -1 -1 1;
#X obj 167 301 cnv 15 300 30 empty \$0-map_preset_visor open_preset
10 15 0 14 -1 -262144 0;
#X obj 62 301 bng 30 250 50 0 \$0-save_as_map_preset \$0-save_as_map_preset_in
SAVE_AS -5 -8 0 10 -1 -262144 -1;
#X obj 112 301 bng 30 250 50 0 \$0-save_map_preset \$0-save_map_preset_in
SAVE 3 -8 0 10 -1 -262144 -1;
#X obj 27 13 hradio 30 1 0 16 \$0-close_map_config \$0-close_map_config_in
empty 0 -8 0 10 -262144 -1 -1 1;
#X obj 12 13 cnv 15 505 30 empty empty FECHAR_JANELA 198 14 0 14 -99865
-262144 0;
#X obj 457 235 bng 30 250 50 0 \$0-master_act_map \$0-master_act_map_in
MASTER -2 -8 0 10 -1 -262144 -1;
#X restore 60 297 pd MAP_GUI;
#N canvas 507 311 668 220 MAIN_PRESET 0;
#X msg 248 111 label \$1;
#X obj 248 46 r \$0-active_preset;
#X obj 248 144 s \$0-main_preset_visor;
#X obj 438 79 loadbang;
#N canvas 412 118 476 435 OPEN_PRESET 0;
#X obj 112 155 openpanel;
#X obj 141 330 textfile;
#X msg 269 284 read \$1;
#X obj 41 250 until;
#X msg 41 284 bang;
#X msg 141 284 rewind;
#X obj 112 26 r \$0-click_main_open;
#X obj 141 380 s MAIN_PRESET_SEND;
#X obj 112 65 t b;
#X obj 112 214 t b b s s;
#X obj 251 238 s \$0-active_preset;
#X msg 112 105 symbol Presets/Main;
#X connect 0 0 9 0;
#X connect 1 0 7 0;
#X connect 1 1 3 1;
#X connect 2 0 1 0;
#X connect 3 0 4 0;
#X connect 4 0 1 0;
#X connect 5 0 1 0;
#X connect 6 0 8 0;
#X connect 8 0 11 0;
#X connect 9 0 3 0;
#X connect 9 1 5 0;
#X connect 9 2 2 0;
#X connect 9 3 10 0;
#X connect 11 0 0 0;
#X restore 55 82 pd OPEN_PRESET;
#N canvas 153 169 910 594 SAVE_PRESET 0;
#N canvas 744 118 601 369 VIC_SEL 0;
#X obj 54 47 r V1_ST;
#X obj 134 47 r I1_ST;
#X obj 214 47 r C1_ST;
#X obj 54 117 r V2_ST;
#X obj 134 117 r I2_ST;
#X obj 214 117 r C2_ST;
#X obj 54 187 r V3_ST;
#X obj 134 187 r I3_ST;
#X obj 214 187 r C3_ST;
#X obj 54 257 r V4_ST;
#X obj 134 257 r I4_ST;
#X obj 214 257 r C4_ST;
#N canvas 0 50 450 300 (subpatch) 0;
#X array \$0-VIC 12 float 2;
#X coords 0 2 12 -1 200 140 1 0 0;
#X restore 351 65 graph;
#X obj 351 237 inlet;
#X obj 351 317 outlet;
#N canvas 206 225 341 538 FLUSH 0;
#X obj 76 55 inlet;
#X obj 113 244 f;
#X obj 152 244 + 1;
#X msg 140 215 0;
#X obj 113 184 until;
#X obj 243 309 list;
#X obj 76 339 list;
#X obj 76 107 t b b b b;
#X obj 113 309 list prepend;
#X msg 113 151 12;
#X obj 113 274 tabread \$0-VIC;
#X obj 76 380 list prepend vic;
#X obj 76 475 outlet;
#X obj 76 425 list trim;
#X connect 0 0 7 0;
#X connect 1 0 2 0;
#X connect 1 0 10 0;
#X connect 2 0 1 1;
#X connect 3 0 1 1;
#X connect 4 0 1 0;
#X connect 5 0 8 1;
#X connect 6 0 11 0;
#X connect 7 0 6 0;
#X connect 7 1 9 0;
#X connect 7 2 3 0;
#X connect 7 3 8 1;
#X connect 8 0 5 0;
#X connect 8 0 6 1;
#X connect 9 0 4 0;
#X connect 10 0 8 0;
#X connect 11 0 13 0;
#X connect 13 0 12 0;
#X restore 351 277 pd FLUSH;
#N canvas 470 361 305 160 2TAB 0;
#X obj 54 51 inlet;
#X obj 54 87 arrast_2tab 0 \$0-VIC;
#X connect 0 0 1 0;
#X restore 54 78 pd 2TAB;
#N canvas 468 360 305 160 2TAB 0;
#X obj 54 51 inlet;
#X obj 54 87 arrast_2tab 1 \$0-VIC;
#X connect 0 0 1 0;
#X restore 134 78 pd 2TAB;
#N canvas 468 360 305 160 2TAB 0;
#X obj 54 51 inlet;
#X obj 54 87 arrast_2tab 2 \$0-VIC;
#X connect 0 0 1 0;
#X restore 214 78 pd 2TAB;
#N canvas 467 388 305 160 2TAB 0;
#X obj 54 51 inlet;
#X obj 54 87 arrast_2tab 3 \$0-VIC;
#X connect 0 0 1 0;
#X restore 54 148 pd 2TAB;
#N canvas 467 388 305 160 2TAB 0;
#X obj 54 51 inlet;
#X obj 54 87 arrast_2tab 4 \$0-VIC;
#X connect 0 0 1 0;
#X restore 134 148 pd 2TAB;
#N canvas 469 389 305 160 2TAB 0;
#X obj 54 51 inlet;
#X obj 54 87 arrast_2tab 5 \$0-VIC;
#X connect 0 0 1 0;
#X restore 214 148 pd 2TAB;
#N canvas 468 360 305 160 2TAB 0;
#X obj 54 51 inlet;
#X obj 54 87 arrast_2tab 6 \$0-VIC;
#X connect 0 0 1 0;
#X restore 54 218 pd 2TAB;
#N canvas 468 360 305 160 2TAB 0;
#X obj 54 51 inlet;
#X obj 54 87 arrast_2tab 7 \$0-VIC;
#X connect 0 0 1 0;
#X restore 134 218 pd 2TAB;
#N canvas 470 361 305 160 2TAB 0;
#X obj 54 51 inlet;
#X obj 54 87 arrast_2tab 8 \$0-VIC;
#X connect 0 0 1 0;
#X restore 214 218 pd 2TAB;
#N canvas 469 389 305 160 2TAB 0;
#X obj 54 51 inlet;
#X obj 54 87 arrast_2tab 9 \$0-VIC;
#X connect 0 0 1 0;
#X restore 54 288 pd 2TAB;
#N canvas 467 388 305 160 2TAB 0;
#X obj 54 51 inlet;
#X obj 54 87 arrast_2tab 10 \$0-VIC;
#X connect 0 0 1 0;
#X restore 134 288 pd 2TAB;
#N canvas 469 389 305 160 2TAB 0;
#X obj 54 51 inlet;
#X obj 54 87 arrast_2tab 11 \$0-VIC;
#X connect 0 0 1 0;
#X restore 214 288 pd 2TAB;
#X connect 0 0 16 0;
#X connect 1 0 17 0;
#X connect 2 0 18 0;
#X connect 3 0 19 0;
#X connect 4 0 20 0;
#X connect 5 0 21 0;
#X connect 6 0 22 0;
#X connect 7 0 23 0;
#X connect 8 0 24 0;
#X connect 9 0 25 0;
#X connect 10 0 26 0;
#X connect 11 0 27 0;
#X connect 13 0 15 0;
#X connect 15 0 14 0;
#X restore 485 423 pd VIC_SEL;
#X obj 143 160 savepanel;
#X obj 166 541 textfile;
#X msg 310 517 clear;
#X obj 166 467 list prepend add;
#X obj 562 155 symbol vazio;
#X obj 679 123 r \$0-active_preset;
#X obj 453 240 spigot 0;
#X obj 562 187 sel vazio;
#X msg 530 211 1;
#X obj 453 131 t b b;
#X obj 190 241 s \$0-active_preset;
#X obj 143 208 t b s;
#X obj 143 331 symbol;
#X obj 200 299 r \$0-active_preset;
#X msg 46 517 write \$1;
#X obj 56 403 t b s;
#X obj 46 436 del 100;
#X obj 46 467 symbol;
#N canvas 734 370 263 393 CH1 0;
#X obj 59 57 inlet;
#X obj 59 317 outlet;
#X obj 59 129 s CH1_FLUSH;
#X obj 59 189 r CH1_PRESET;
#X obj 59 250 list trim;
#X obj 59 219 list prepend 1;
#X connect 0 0 2 0;
#X connect 3 0 5 0;
#X connect 4 0 1 0;
#X connect 5 0 4 0;
#X restore 406 423 pd CH1;
#N canvas 713 304 263 393 CH2 0;
#X obj 59 57 inlet;
#X obj 59 317 outlet;
#X obj 59 141 s CH2_FLUSH;
#X obj 59 201 r CH2_PRESET;
#X obj 59 262 list trim;
#X obj 59 231 list prepend 2;
#X obj 59 111 del 20;
#X connect 0 0 6 0;
#X connect 3 0 5 0;
#X connect 4 0 1 0;
#X connect 5 0 4 0;
#X connect 6 0 2 0;
#X restore 326 423 pd CH2;
#N canvas 713 304 263 393 CH3 0;
#X obj 59 57 inlet;
#X obj 59 317 outlet;
#X obj 59 141 s CH3_FLUSH;
#X obj 59 201 r CH3_PRESET;
#X obj 59 262 list trim;
#X obj 59 231 list prepend 3;
#X obj 59 111 del 40;
#X connect 0 0 6 0;
#X connect 3 0 5 0;
#X connect 4 0 1 0;
#X connect 5 0 4 0;
#X connect 6 0 2 0;
#X restore 246 423 pd CH3;
#N canvas 714 360 263 393 CH4 0;
#X obj 59 57 inlet;
#X obj 59 317 outlet;
#X obj 59 140 s CH4_FLUSH;
#X obj 59 200 r CH4_PRESET;
#X obj 59 230 list prepend 4;
#X obj 59 261 list trim;
#X obj 59 110 del 60;
#X connect 0 0 6 0;
#X connect 3 0 4 0;
#X connect 4 0 5 0;
#X connect 5 0 1 0;
#X connect 6 0 2 0;
#X restore 166 423 pd CH4;
#X obj 143 21 r \$0-save_as_main_preset;
#X obj 453 21 r \$0-save_main_preset;
#X obj 166 497 list trim;
#X obj 143 65 t b;
#X msg 143 105 symbol Presets/Main/;
#N canvas 643 348 285 363 GEMWIN 0;
#X obj 49 37 inlet;
#X obj 49 297 outlet;
#X obj 49 230 list trim;
#X obj 49 109 s GEMWIN_FLUSH;
#X obj 49 169 r GEMWIN_PRESET;
#X obj 49 199 list prepend gemwin;
#X connect 0 0 3 0;
#X connect 2 0 1 0;
#X connect 4 0 5 0;
#X connect 5 0 2 0;
#X restore 605 423 pd GEMWIN;
#X obj 143 379 t s b b b b b b b;
#X connect 0 0 4 0;
#X connect 1 0 12 0;
#X connect 3 0 2 0;
#X connect 4 0 25 0;
#X connect 5 0 8 0;
#X connect 6 0 5 1;
#X connect 7 0 13 0;
#X connect 8 1 9 0;
#X connect 9 0 7 1;
#X connect 10 0 7 0;
#X connect 10 1 5 0;
#X connect 12 0 13 0;
#X connect 12 1 11 0;
#X connect 13 0 29 0;
#X connect 14 0 13 1;
#X connect 15 0 2 0;
#X connect 16 0 17 0;
#X connect 16 1 18 1;
#X connect 17 0 18 0;
#X connect 18 0 15 0;
#X connect 19 0 4 0;
#X connect 20 0 4 0;
#X connect 21 0 4 0;
#X connect 22 0 4 0;
#X connect 23 0 26 0;
#X connect 24 0 10 0;
#X connect 25 0 2 0;
#X connect 26 0 27 0;
#X connect 27 0 1 0;
#X connect 28 0 4 0;
#X connect 29 0 16 0;
#X connect 29 1 22 0;
#X connect 29 2 21 0;
#X connect 29 3 20 0;
#X connect 29 4 19 0;
#X connect 29 5 0 0;
#X connect 29 6 28 0;
#X connect 29 7 3 0;
#X restore 55 46 pd SAVE_PRESET;
#N canvas 465 279 896 359 RECEIVE_VIC 0;
#X obj 51 35 r MAIN_PRESET_SEND;
#X obj 51 77 route vic;
#X obj 51 121 list split 3;
#X obj 51 159 unpack f f f;
#X obj 51 189 s V1_SET_ST;
#X obj 109 219 s I1_SET_ST;
#X obj 168 249 s C1_SET_ST;
#X obj 250 145 list split 3;
#X obj 250 184 unpack f f f;
#X obj 250 214 s V2_SET_ST;
#X obj 308 244 s I2_SET_ST;
#X obj 367 274 s C2_SET_ST;
#X obj 450 169 list split 3;
#X obj 450 209 unpack f f f;
#X obj 450 239 s V3_SET_ST;
#X obj 508 269 s I3_SET_ST;
#X obj 567 299 s C3_SET_ST;
#X obj 610 193 unpack f f f;
#X obj 610 226 s V4_SET_ST;
#X obj 668 256 s I4_SET_ST;
#X obj 727 286 s C4_SET_ST;
#X connect 0 0 1 0;
#X connect 1 0 2 0;
#X connect 2 0 3 0;
#X connect 2 1 7 0;
#X connect 3 0 4 0;
#X connect 3 1 5 0;
#X connect 3 2 6 0;
#X connect 7 0 8 0;
#X connect 7 1 12 0;
#X connect 8 0 9 0;
#X connect 8 1 10 0;
#X connect 8 2 11 0;
#X connect 12 0 13 0;
#X connect 12 1 17 0;
#X connect 13 0 14 0;
#X connect 13 1 15 0;
#X connect 13 2 16 0;
#X connect 17 0 18 0;
#X connect 17 1 19 0;
#X connect 17 2 20 0;
#X restore 55 144 pd RECEIVE_VIC;
#X obj 248 79 arrast_namecut 21;
#X msg 438 111 label OPEN_PRESET;
#X connect 0 0 2 0;
#X connect 1 0 7 0;
#X connect 3 0 8 0;
#X connect 7 0 0 0;
#X connect 8 0 2 0;
#X restore 60 263 pd MAIN_PRESET;
#N canvas 201 253 686 313 --INFO-- 0;
#X text 33 75 Projeto iniciado por brunorohde - https://github.com/brunorohde
/ brunorohde.wordpress.com;
#X text 31 246 [4corners] - Papatchs Party - http://yamatierea.org/papatchs/
, f 61;
#X text 33 27 [ARRAST_VJ] v.0.2;
#N canvas 25 486 1248 277 Versions 0;
#X text 38 94 0.1 - versão inicial;
#X text 38 34 0.2 - versão para vanilla + deken - bugfix na memória
dos slots de vídeo e outros detalhes;
#X restore 483 26 pd Versions;
#X text 33 216 A seguinte abstração (modificada) é utilizada no
[ARRAST_VJ]:, f 61;
#X text 33 145 Copyleft 2015-2017 - Licença GPLV3 http://www.gnu.org/licenses/gpl-3.0.html
;
#X restore 284 34 pd --INFO--;
#N canvas 61 564 546 128 DECLARE 0;
#X text 37 25 ** DECLARA ABSTRAÇÕES E BIBLIOTECA EXTERNA GEM;
#X obj 82 67 declare -path _abstract -stdlib Gem;
#X restore 60 93 pd DECLARE;
#N canvas 198 54 1016 697 AUTOMATION_GUI 0;
#X obj 1 1 cnv 15 1013 694 empty empty empty 20 12 0 14 -1 -66577 0
;
#X obj 764 12 arrast_automenu \$0 4;
#X obj 11 12 arrast_automenu \$0 1;
#X obj 262 12 arrast_automenu \$0 2;
#X obj 513 12 arrast_automenu \$0 3;
#X restore 60 365 pd AUTOMATION_GUI;
#N canvas 93 337 292 400 MAP_CONTROL 0;
#N canvas 80 166 722 267 ACTIVE_MAP 0;
#X obj 58 39 r \$0-click_m1;
#X obj 218 39 r \$0-click_m2;
#X obj 378 39 r \$0-click_m3;
#X obj 538 39 r \$0-click_m4;
#X msg 58 74 1;
#X msg 218 74 2;
#X msg 378 74 3;
#X msg 538 74 4;
#X obj 218 214 s \$0-active_map;
#X obj 58 131 r \$0-flush_act_map;
#X obj 58 160 t b;
#X obj 218 184 f 1;
#X connect 0 0 4 0;
#X connect 1 0 5 0;
#X connect 2 0 6 0;
#X connect 3 0 7 0;
#X connect 4 0 11 0;
#X connect 5 0 11 0;
#X connect 6 0 11 0;
#X connect 7 0 11 0;
#X connect 9 0 10 0;
#X connect 10 0 11 0;
#X connect 11 0 8 0;
#X restore 49 123 pd ACTIVE_MAP;
#N canvas 315 80 1046 370 VERTICES 0;
#N canvas 0 50 450 300 (subpatch) 0;
#X array \$0-vert_map2 8 float 2;
#X coords 0 10 8 -10 200 140 1 0 0;
#X restore 299 183 graph;
#N canvas 0 50 450 300 (subpatch) 0;
#X array \$0-vert_map3 8 float 2;
#X coords 0 10 8 -10 200 140 1 0 0;
#X restore 539 183 graph;
#N canvas 0 50 450 300 (subpatch) 0;
#X array \$0-vert_map4 8 float 2;
#X coords 0 10 8 -10 200 140 1 0 0;
#X restore 779 183 graph;
#N canvas 0 50 450 300 (subpatch) 0;
#X array \$0-vert_map1 8 float 2;
#X coords 0 10 8 -10 200 140 1 0 0;
#X restore 59 183 graph;
#X obj 806 42 r \$0-active_map;
#X floatatom 806 72 5 0 0 0 - - -, f 5;
#N canvas 226 90 1030 372 SEND_MAPS 0;
#X obj 58 51 r \$0-bex;
#X obj 148 51 r \$0-bey;
#X obj 258 51 r \$0-aex;
#X obj 348 51 r \$0-aey;
#X obj 458 51 r \$0-adx;
#X obj 548 51 r \$0-ady;
#X obj 658 51 r \$0-bdx;
#X obj 748 51 r \$0-bdy;
#X obj 58 192 arrast_2tab 0;
#N canvas 278 190 334 240 set_tab 0;
#X msg 56 113 symbol \$2-vert_map\$1;
#X obj 56 83 pack f \$0;
#X obj 56 53 r \$0-active_map;
#X obj 56 157 outlet;
#X connect 0 0 3 0;
#X connect 1 0 0 0;
#X connect 2 0 1 0;
#X restore 185 162 pd set_tab;
#N canvas 292 179 334 240 set_tab 0;
#X msg 56 113 symbol \$2-vert_map\$1;
#X obj 56 83 pack f \$0;
#X obj 56 53 r \$0-active_map;
#X obj 56 157 outlet;
#X connect 0 0 3 0;
#X connect 1 0 0 0;
#X connect 2 0 1 0;
#X restore 275 192 pd set_tab;
#X obj 148 222 arrast_2tab 1;
#N canvas 389 297 334 240 set_tab 0;
#X msg 56 113 symbol \$2-vert_map\$1;
#X obj 56 83 pack f \$0;
#X obj 56 53 r \$0-active_map;
#X obj 56 157 outlet;
#X connect 0 0 3 0;
#X connect 1 0 0 0;
#X connect 2 0 1 0;
#X restore 385 222 pd set_tab;
#N canvas 390 269 334 240 set_tab 0;
#X msg 56 113 symbol \$2-vert_map\$1;
#X obj 56 83 pack f \$0;
#X obj 56 53 r \$0-active_map;
#X obj 56 157 outlet;
#X connect 0 0 3 0;
#X connect 1 0 0 0;
#X connect 2 0 1 0;
#X restore 475 252 pd set_tab;
#X obj 258 252 arrast_2tab 2;
#X obj 348 282 arrast_2tab 3;
#N canvas 389 297 334 240 set_tab 0;
#X msg 56 113 symbol \$2-vert_map\$1;
#X obj 56 83 pack f \$0;
#X obj 56 53 r \$0-active_map;
#X obj 56 157 outlet;
#X connect 0 0 3 0;
#X connect 1 0 0 0;
#X connect 2 0 1 0;
#X restore 585 162 pd set_tab;
#N canvas 388 325 334 240 set_tab 0;
#X msg 56 113 symbol \$2-vert_map\$1;
#X obj 56 83 pack f \$0;
#X obj 56 53 r \$0-active_map;
#X obj 56 157 outlet;
#X connect 0 0 3 0;
#X connect 1 0 0 0;
#X connect 2 0 1 0;
#X restore 675 192 pd set_tab;
#X obj 458 192 arrast_2tab 4;
#X obj 548 222 arrast_2tab 5;
#N canvas 389 297 334 240 set_tab 0;
#X msg 56 113 symbol \$2-vert_map\$1;
#X obj 56 83 pack f \$0;
#X obj 56 53 r \$0-active_map;
#X obj 56 157 outlet;
#X connect 0 0 3 0;
#X connect 1 0 0 0;
#X connect 2 0 1 0;
#X restore 785 222 pd set_tab;
#N canvas 387 353 334 240 set_tab 0;
#X msg 56 113 symbol \$2-vert_map\$1;
#X obj 56 83 pack f \$0;
#X obj 56 53 r \$0-active_map;
#X obj 56 157 outlet;
#X connect 0 0 3 0;
#X connect 1 0 0 0;
#X connect 2 0 1 0;
#X restore 875 252 pd set_tab;
#X obj 658 252 arrast_2tab 6;
#X obj 748 282 arrast_2tab 7;
#N canvas 500 260 465 248 send 0;
#X obj 50 33 inlet;
#X obj 50 194 outlet;
#X obj 157 152 list prepend;
#X obj 273 20 r \$0-active_map;
#X msg 273 57 map\$1;
#X obj 50 70 t f f;
#X obj 157 107 list prepend bex;
#X obj 157 194 s CANAL_MAP;
#X connect 0 0 5 0;
#X connect 2 0 7 0;
#X connect 3 0 4 0;
#X connect 4 0 2 1;
#X connect 5 0 1 0;
#X connect 5 1 6 0;
#X connect 6 0 2 0;
#X restore 58 110 pd send;
#N canvas 506 260 470 242 send 0;
#X obj 44 27 inlet;
#X obj 44 188 outlet;
#X obj 151 146 list prepend;
#X obj 268 16 r \$0-active_map;
#X msg 268 53 map\$1;
#X obj 44 64 t f f;
#X obj 151 188 s CANAL_MAP;
#X obj 151 101 list prepend bey;
#X connect 0 0 5 0;
#X connect 2 0 6 0;
#X connect 3 0 4 0;
#X connect 4 0 2 1;
#X connect 5 0 1 0;
#X connect 5 1 7 0;
#X connect 7 0 2 0;
#X restore 148 110 pd send;
#N canvas 506 260 481 256 send 0;
#X obj 44 27 inlet;
#X obj 44 188 outlet;
#X obj 151 146 list prepend;
#X obj 269 13 r \$0-active_map;
#X msg 269 50 map\$1;
#X obj 44 64 t f f;
#X obj 151 188 s CANAL_MAP;
#X obj 151 101 list prepend aex;
#X connect 0 0 5 0;
#X connect 2 0 6 0;
#X connect 3 0 4 0;
#X connect 4 0 2 1;
#X connect 5 0 1 0;
#X connect 5 1 7 0;
#X connect 7 0 2 0;
#X restore 258 110 pd send;
#N canvas 503 259 481 256 send 0;
#X obj 44 27 inlet;
#X obj 44 188 outlet;
#X obj 151 146 list prepend;
#X obj 268 20 r \$0-active_map;
#X msg 268 57 map\$1;
#X obj 44 64 t f f;
#X obj 151 188 s CANAL_MAP;
#X obj 151 101 list prepend aey;
#X connect 0 0 5 0;
#X connect 2 0 6 0;
#X connect 3 0 4 0;
#X connect 4 0 2 1;
#X connect 5 0 1 0;
#X connect 5 1 7 0;
#X connect 7 0 2 0;
#X restore 348 110 pd send;
#N canvas 502 259 481 256 send 0;
#X obj 44 27 inlet;
#X obj 44 188 outlet;
#X obj 151 146 list prepend;
#X obj 268 16 r \$0-active_map;
#X msg 268 53 map\$1;
#X obj 44 64 t f f;
#X obj 151 188 s CANAL_MAP;
#X obj 151 101 list prepend adx;
#X connect 0 0 5 0;
#X connect 2 0 6 0;
#X connect 3 0 4 0;
#X connect 4 0 2 1;
#X connect 5 0 1 0;
#X connect 5 1 7 0;
#X connect 7 0 2 0;
#X restore 458 110 pd send;
#N canvas 533 134 481 256 send 0;
#X obj 44 27 inlet;
#X obj 44 188 outlet;
#X obj 151 146 list prepend;
#X obj 268 16 r \$0-active_map;
#X msg 268 53 map\$1;
#X obj 44 64 t f f;
#X obj 151 188 s CANAL_MAP;
#X obj 151 101 list prepend ady;
#X connect 0 0 5 0;
#X connect 2 0 6 0;
#X connect 3 0 4 0;
#X connect 4 0 2 1;
#X connect 5 0 1 0;
#X connect 5 1 7 0;
#X connect 7 0 2 0;
#X restore 548 110 pd send;
#N canvas 504 259 481 256 send 0;
#X obj 44 27 inlet;
#X obj 44 188 outlet;
#X obj 151 146 list prepend;
#X obj 268 16 r \$0-active_map;
#X msg 268 53 map\$1;
#X obj 44 64 t f f;
#X obj 151 188 s CANAL_MAP;
#X obj 151 101 list prepend bdx;
#X connect 0 0 5 0;
#X connect 2 0 6 0;
#X connect 3 0 4 0;
#X connect 4 0 2 1;
#X connect 5 0 1 0;
#X connect 5 1 7 0;
#X connect 7 0 2 0;
#X restore 658 110 pd send;
#N canvas 640 163 481 256 send 0;
#X obj 44 27 inlet;
#X obj 44 188 outlet;
#X obj 151 146 list prepend;
#X obj 268 16 r \$0-active_map;
#X msg 268 53 map\$1;
#X obj 44 64 t f f;
#X obj 151 188 s CANAL_MAP;
#X obj 151 101 list prepend bdy;
#X connect 0 0 5 0;
#X connect 2 0 6 0;
#X connect 3 0 4 0;
#X connect 4 0 2 1;
#X connect 5 0 1 0;
#X connect 5 1 7 0;
#X connect 7 0 2 0;
#X restore 748 110 pd send;
#X connect 0 0 24 0;
#X connect 1 0 25 0;
#X connect 2 0 26 0;
#X connect 3 0 27 0;
#X connect 4 0 28 0;
#X connect 5 0 29 0;
#X connect 6 0 30 0;
#X connect 7 0 31 0;
#X connect 9 0 8 1;
#X connect 10 0 11 1;
#X connect 12 0 14 1;
#X connect 13 0 15 1;
#X connect 16 0 18 1;
#X connect 17 0 19 1;
#X connect 20 0 22 1;
#X connect 21 0 23 1;
#X connect 24 0 8 0;
#X connect 25 0 11 0;
#X connect 26 0 14 0;
#X connect 27 0 15 0;
#X connect 28 0 18 0;
#X connect 29 0 19 0;
#X connect 30 0 22 0;
#X connect 31 0 23 0;
#X restore 59 24 pd SEND_MAPS;
#N canvas 684 111 677 367 RECEIVE_MAPS 0;
#X obj 63 50 r CANAL_MAP_FB;
#X obj 63 90 route map1 map2 map3 map4;
#N canvas 141 334 686 406 map1_2tab 0;
#X obj 51 90 route bex bey aex aey adx ady bdx bdy;
#X obj 51 131 arrast_2tab 0 \$0-vert_map1;
#X obj 96 161 arrast_2tab 1 \$0-vert_map1;
#X obj 142 191 arrast_2tab 2 \$0-vert_map1;
#X obj 188 221 arrast_2tab 3 \$0-vert_map1;
#X obj 235 251 arrast_2tab 4 \$0-vert_map1;
#X obj 280 281 arrast_2tab 5 \$0-vert_map1;
#X obj 326 311 arrast_2tab 6 \$0-vert_map1;
#X obj 372 341 arrast_2tab 7 \$0-vert_map1;
#X obj 51 41 inlet;
#X connect 0 0 1 0;
#X connect 0 1 2 0;
#X connect 0 2 3 0;
#X connect 0 3 4 0;
#X connect 0 4 5 0;
#X connect 0 5 6 0;
#X connect 0 6 7 0;
#X connect 0 7 8 0;
#X connect 9 0 0 0;
#X restore 63 132 pd map1_2tab;
#N canvas 452 121 686 406 map2_2tab 0;
#X obj 51 90 route bex bey aex aey adx ady bdx bdy;
#X obj 51 41 inlet;
#X obj 52 131 arrast_2tab 0 \$0-vert_map2;
#X obj 96 161 arrast_2tab 1 \$0-vert_map2;
#X obj 142 191 arrast_2tab 2 \$0-vert_map2;
#X obj 188 221 arrast_2tab 3 \$0-vert_map2;
#X obj 235 251 arrast_2tab 4 \$0-vert_map2;
#X obj 280 281 arrast_2tab 5 \$0-vert_map2;
#X obj 326 311 arrast_2tab 6 \$0-vert_map2;
#X obj 372 341 arrast_2tab 7 \$0-vert_map2;
#X connect 0 0 2 0;
#X connect 0 1 3 0;
#X connect 0 2 4 0;
#X connect 0 3 5 0;
#X connect 0 4 6 0;
#X connect 0 5 7 0;
#X connect 0 6 8 0;
#X connect 0 7 9 0;
#X connect 1 0 0 0;
#X restore 203 132 pd map2_2tab;
#N canvas 108 147 686 406 map3_2tab 0;
#X obj 51 90 route bex bey aex aey adx ady bdx bdy;
#X obj 51 41 inlet;
#X obj 51 131 arrast_2tab 0 \$0-vert_map3;
#X obj 96 161 arrast_2tab 1 \$0-vert_map3;
#X obj 142 191 arrast_2tab 2 \$0-vert_map3;
#X obj 188 221 arrast_2tab 3 \$0-vert_map3;
#X obj 235 251 arrast_2tab 4 \$0-vert_map3;
#X obj 280 281 arrast_2tab 5 \$0-vert_map3;
#X obj 326 311 arrast_2tab 6 \$0-vert_map3;
#X obj 372 341 arrast_2tab 7 \$0-vert_map3;
#X connect 0 0 2 0;
#X connect 0 1 3 0;
#X connect 0 2 4 0;
#X connect 0 3 5 0;
#X connect 0 4 6 0;
#X connect 0 5 7 0;
#X connect 0 6 8 0;
#X connect 0 7 9 0;
#X connect 1 0 0 0;
#X restore 343 132 pd map3_2tab;
#N canvas 433 64 686 406 map4_2tab 0;
#X obj 51 90 route bex bey aex aey adx ady bdx bdy;
#X obj 51 41 inlet;
#X obj 51 131 arrast_2tab 0 \$0-vert_map4;
#X obj 96 161 arrast_2tab 1 \$0-vert_map4;
#X obj 142 191 arrast_2tab 2 \$0-vert_map4;
#X obj 188 221 arrast_2tab 3 \$0-vert_map4;
#X obj 235 251 arrast_2tab 4 \$0-vert_map4;
#X obj 280 281 arrast_2tab 5 \$0-vert_map4;
#X obj 326 311 arrast_2tab 6 \$0-vert_map4;
#X obj 372 341 arrast_2tab 7 \$0-vert_map4;
#X connect 0 0 2 0;
#X connect 0 1 3 0;
#X connect 0 2 4 0;
#X connect 0 3 5 0;
#X connect 0 4 6 0;
#X connect 0 5 7 0;
#X connect 0 6 8 0;
#X connect 0 7 9 0;
#X connect 1 0 0 0;
#X restore 483 132 pd map4_2tab;
#X obj 63 210 r CANAL_MAP_FB;
#X obj 63 250 route map1 map2 map3 map4;
#N canvas 104 88 1058 306 map1_fb 0;
#X obj 51 150 route bex bey aex aey adx ady bdx bdy;
#X obj 51 41 inlet;
#X obj 51 236 s \$0-bex_in;
#X msg 51 202 set \$1;
#X obj 169 39 r \$0-active_map;
#X obj 51 100 spigot 0;
#X obj 169 75 == 1;
#X msg 171 202 set \$1;
#X msg 291 202 set \$1;
#X msg 411 202 set \$1;
#X obj 171 236 s \$0-bey_in;
#X obj 291 236 s \$0-aex_in;
#X obj 411 236 s \$0-aey_in;
#X msg 531 202 set \$1;
#X msg 651 202 set \$1;
#X obj 531 236 s \$0-adx_in;
#X obj 651 236 s \$0-ady_in;
#X msg 771 202 set \$1;
#X msg 891 202 set \$1;
#X obj 771 236 s \$0-bdx_in;
#X obj 891 236 s \$0-bdy_in;
#X connect 0 0 3 0;
#X connect 0 1 7 0;
#X connect 0 2 8 0;
#X connect 0 3 9 0;
#X connect 0 4 13 0;
#X connect 0 5 14 0;
#X connect 0 6 17 0;
#X connect 0 7 18 0;
#X connect 1 0 5 0;
#X connect 3 0 2 0;
#X connect 4 0 6 0;
#X connect 5 0 0 0;
#X connect 6 0 5 1;
#X connect 7 0 10 0;
#X connect 8 0 11 0;
#X connect 9 0 12 0;
#X connect 13 0 15 0;
#X connect 14 0 16 0;
#X connect 17 0 19 0;
#X connect 18 0 20 0;
#X restore 63 292 pd map1_fb;
#N canvas 46 238 1058 306 map2_fb 0;
#X obj 51 150 route bex bey aex aey adx ady bdx bdy;
#X obj 51 41 inlet;
#X obj 51 236 s \$0-bex_in;
#X msg 51 202 set \$1;
#X obj 169 39 r \$0-active_map;
#X obj 51 100 spigot 0;
#X msg 171 202 set \$1;
#X msg 291 202 set \$1;
#X msg 411 202 set \$1;
#X obj 171 236 s \$0-bey_in;
#X obj 291 236 s \$0-aex_in;
#X obj 411 236 s \$0-aey_in;
#X msg 531 202 set \$1;
#X msg 651 202 set \$1;
#X obj 531 236 s \$0-adx_in;
#X obj 651 236 s \$0-ady_in;
#X msg 771 202 set \$1;
#X msg 891 202 set \$1;
#X obj 771 236 s \$0-bdx_in;
#X obj 891 236 s \$0-bdy_in;
#X obj 169 75 == 2;
#X connect 0 0 3 0;
#X connect 0 1 6 0;
#X connect 0 2 7 0;
#X connect 0 3 8 0;
#X connect 0 4 12 0;
#X connect 0 5 13 0;
#X connect 0 6 16 0;
#X connect 0 7 17 0;
#X connect 1 0 5 0;
#X connect 3 0 2 0;
#X connect 4 0 20 0;
#X connect 5 0 0 0;
#X connect 6 0 9 0;
#X connect 7 0 10 0;
#X connect 8 0 11 0;
#X connect 12 0 14 0;
#X connect 13 0 15 0;
#X connect 16 0 18 0;
#X connect 17 0 19 0;
#X connect 20 0 5 1;
#X restore 183 292 pd map2_fb;
#N canvas 45 238 1058 306 map3_fb 0;
#X obj 51 150 route bex bey aex aey adx ady bdx bdy;
#X obj 51 41 inlet;
#X obj 51 236 s \$0-bex_in;
#X msg 51 202 set \$1;
#X obj 169 39 r \$0-active_map;
#X obj 51 100 spigot 0;
#X msg 171 202 set \$1;
#X msg 291 202 set \$1;
#X msg 411 202 set \$1;
#X obj 171 236 s \$0-bey_in;
#X obj 291 236 s \$0-aex_in;
#X obj 411 236 s \$0-aey_in;
#X msg 531 202 set \$1;
#X msg 651 202 set \$1;
#X obj 531 236 s \$0-adx_in;
#X obj 651 236 s \$0-ady_in;
#X msg 771 202 set \$1;
#X msg 891 202 set \$1;
#X obj 771 236 s \$0-bdx_in;
#X obj 891 236 s \$0-bdy_in;
#X obj 169 75 == 3;
#X connect 0 0 3 0;
#X connect 0 1 6 0;
#X connect 0 2 7 0;
#X connect 0 3 8 0;
#X connect 0 4 12 0;
#X connect 0 5 13 0;
#X connect 0 6 16 0;
#X connect 0 7 17 0;
#X connect 1 0 5 0;
#X connect 3 0 2 0;
#X connect 4 0 20 0;
#X connect 5 0 0 0;
#X connect 6 0 9 0;
#X connect 7 0 10 0;
#X connect 8 0 11 0;
#X connect 12 0 14 0;
#X connect 13 0 15 0;
#X connect 16 0 18 0;
#X connect 17 0 19 0;
#X connect 20 0 5 1;
#X restore 303 292 pd map3_fb;
#N canvas 63 113 1058 306 map4_fb 0;
#X obj 51 150 route bex bey aex aey adx ady bdx bdy;
#X obj 51 41 inlet;
#X obj 51 236 s \$0-bex_in;
#X msg 51 202 set \$1;
#X obj 169 39 r \$0-active_map;
#X obj 51 100 spigot 0;
#X msg 171 202 set \$1;
#X msg 291 202 set \$1;
#X msg 411 202 set \$1;
#X obj 171 236 s \$0-bey_in;
#X obj 291 236 s \$0-aex_in;
#X obj 411 236 s \$0-aey_in;
#X msg 531 202 set \$1;
#X msg 651 202 set \$1;
#X obj 531 236 s \$0-adx_in;
#X obj 651 236 s \$0-ady_in;
#X msg 771 202 set \$1;
#X msg 891 202 set \$1;
#X obj 771 236 s \$0-bdx_in;
#X obj 891 236 s \$0-bdy_in;
#X obj 169 75 == 4;
#X connect 0 0 3 0;
#X connect 0 1 6 0;
#X connect 0 2 7 0;
#X connect 0 3 8 0;
#X connect 0 4 12 0;
#X connect 0 5 13 0;
#X connect 0 6 16 0;
#X connect 0 7 17 0;
#X connect 1 0 5 0;
#X connect 3 0 2 0;
#X connect 4 0 20 0;
#X connect 5 0 0 0;
#X connect 6 0 9 0;
#X connect 7 0 10 0;
#X connect 8 0 11 0;
#X connect 12 0 14 0;
#X connect 13 0 15 0;
#X connect 16 0 18 0;
#X connect 17 0 19 0;
#X connect 20 0 5 1;
#X restore 423 292 pd map4_fb;
#X connect 0 0 1 0;
#X connect 1 0 2 0;
#X connect 1 1 3 0;
#X connect 1 2 4 0;
#X connect 1 3 5 0;
#X connect 6 0 7 0;
#X connect 7 0 8 0;
#X connect 7 1 9 0;
#X connect 7 2 10 0;
#X connect 7 3 11 0;
#X restore 59 62 pd RECEIVE_MAPS;
#N canvas 196 56 1059 370 LOAD_ACTIVE 0;
#X obj 52 41 r \$0-active_map;
#X floatatom 52 71 5 0 0 0 - - -, f 5;
#X obj 52 327 s \$0-bex_in;
#X obj 172 327 s \$0-bey_in;
#X obj 292 327 s \$0-aex_in;
#X obj 412 327 s \$0-aey_in;
#X obj 532 327 s \$0-adx_in;
#X obj 652 327 s \$0-ady_in;
#X obj 772 327 s \$0-bdx_in;
#X obj 892 327 s \$0-bdy_in;
#X obj 52 250 tabread;
#X msg 772 157 set \$2-vert_map\$1;
#X obj 772 126 pack f \$0;
#X obj 52 101 t b b b b b b b b f;
#X msg 52 214 0;
#X obj 172 250 tabread;
#X obj 292 250 tabread;
#X obj 412 250 tabread;
#X obj 532 250 tabread;
#X obj 652 250 tabread;
#X obj 772 250 tabread;
#X obj 892 250 tabread;
#X msg 172 214 1;
#X msg 292 214 2;
#X msg 412 214 3;
#X msg 532 214 4;
#X msg 652 214 5;
#X msg 772 214 6;
#X msg 892 214 7;
#X msg 52 288 set \$1;
#X msg 172 288 set \$1;
#X msg 292 288 set \$1;
#X msg 412 288 set \$1;
#X msg 532 288 set \$1;
#X msg 652 288 set \$1;
#X msg 772 288 set \$1;
#X msg 892 288 set \$1;
#X connect 0 0 1 0;
#X connect 1 0 13 0;
#X connect 10 0 29 0;
#X connect 11 0 10 0;
#X connect 11 0 15 0;
#X connect 11 0 16 0;
#X connect 11 0 17 0;
#X connect 11 0 18 0;
#X connect 11 0 19 0;
#X connect 11 0 20 0;
#X connect 11 0 21 0;
#X connect 12 0 11 0;
#X connect 13 0 14 0;
#X connect 13 1 22 0;
#X connect 13 2 23 0;
#X connect 13 3 24 0;
#X connect 13 4 25 0;
#X connect 13 5 26 0;
#X connect 13 6 27 0;
#X connect 13 7 28 0;
#X connect 13 8 12 0;
#X connect 14 0 10 0;
#X connect 15 0 30 0;
#X connect 16 0 31 0;
#X connect 17 0 32 0;
#X connect 18 0 33 0;
#X connect 19 0 34 0;
#X connect 20 0 35 0;
#X connect 21 0 36 0;
#X connect 22 0 15 0;
#X connect 23 0 16 0;
#X connect 24 0 17 0;
#X connect 25 0 18 0;
#X connect 26 0 19 0;
#X connect 27 0 20 0;
#X connect 28 0 21 0;
#X connect 29 0 2 0;
#X connect 30 0 3 0;
#X connect 31 0 4 0;
#X connect 32 0 5 0;
#X connect 33 0 6 0;
#X connect 34 0 7 0;
#X connect 35 0 8 0;
#X connect 36 0 9 0;
#X restore 59 101 pd LOAD_ACTIVE;
#N canvas 643 128 577 336 PRESET_LOAD 0;
#X obj 59 51 r \$0-map_preset_send;
#X obj 186 107 route 1 2 3 4;
#X obj 59 82 t b l;
#N canvas 576 156 606 265 CH_1 0;
#X obj 51 80 list split 8;
#X obj 51 161 list prepend 0;
#X obj 51 193 s \$0-vert_map1;
#X obj 221 105 list split 1;
#X obj 221 193 tabwrite \$0-on_masks;
#X msg 386 165 0;
#X obj 221 140 t f b;
#X obj 453 130 symbol;
#X obj 453 193 s \$0-mask1;
#X obj 51 24 inlet;
#X connect 0 0 1 0;
#X connect 0 1 3 0;
#X connect 1 0 2 0;
#X connect 3 0 6 0;
#X connect 3 1 7 0;
#X connect 5 0 4 1;
#X connect 6 0 4 0;
#X connect 6 1 5 0;
#X connect 7 0 8 0;
#X connect 9 0 0 0;
#X restore 186 149 pd CH_1;
#N canvas 653 225 606 265 CH_2 0;
#X obj 51 78 list split 8;
#X obj 51 161 list prepend 0;
#X obj 221 103 list split 1;
#X obj 221 193 tabwrite \$0-on_masks;
#X obj 221 140 t f b;
#X obj 453 128 symbol;
#X obj 51 24 inlet;
#X obj 51 193 s \$0-vert_map2;
#X msg 386 165 1;
#X obj 453 193 s \$0-mask2;
#X connect 0 0 1 0;
#X connect 0 1 2 0;
#X connect 1 0 7 0;
#X connect 2 0 4 0;
#X connect 2 1 5 0;
#X connect 4 0 3 0;
#X connect 4 1 8 0;
#X connect 5 0 9 0;
#X connect 6 0 0 0;
#X connect 8 0 3 1;
#X restore 276 149 pd CH_2;
#N canvas 650 225 606 265 CH_3 0;
#X obj 51 79 list split 8;
#X obj 51 161 list prepend 0;
#X obj 221 105 list split 1;
#X obj 221 193 tabwrite \$0-on_masks;
#X obj 221 140 t f b;
#X obj 453 130 symbol;
#X obj 51 24 inlet;
#X obj 51 193 s \$0-vert_map3;
#X msg 386 165 2;
#X obj 453 193 s \$0-mask3;
#X connect 0 0 1 0;
#X connect 0 1 2 0;
#X connect 1 0 7 0;
#X connect 2 0 4 0;
#X connect 2 1 5 0;
#X connect 4 0 3 0;
#X connect 4 1 8 0;
#X connect 5 0 9 0;
#X connect 6 0 0 0;
#X connect 8 0 3 1;
#X restore 366 149 pd CH_3;
#N canvas 649 226 606 264 CH_4 0;
#X obj 51 80 list split 8;
#X obj 51 161 list prepend 0;
#X obj 221 105 list split 1;
#X obj 221 193 tabwrite \$0-on_masks;
#X obj 221 140 t f b;
#X obj 453 130 symbol;
#X obj 51 24 inlet;
#X obj 51 193 s \$0-vert_map4;
#X msg 386 165 3;
#X obj 453 193 s \$0-mask4;
#X connect 0 0 1 0;
#X connect 0 1 2 0;
#X connect 1 0 7 0;
#X connect 2 0 4 0;
#X connect 2 1 5 0;
#X connect 4 0 3 0;
#X connect 4 1 8 0;
#X connect 5 0 9 0;
#X connect 6 0 0 0;
#X connect 8 0 3 1;
#X restore 456 149 pd CH_4;
#X obj 59 189 s \$0-flush_act_map;
#X obj 126 253 s \$0-flush_map_tabs;
#X obj 59 153 t b b b;
#X obj 91 221 s \$0-flush_on_masks;
#X connect 0 0 2 0;
#X connect 1 0 3 0;
#X connect 1 1 4 0;
#X connect 1 2 5 0;
#X connect 1 3 6 0;
#X connect 2 0 9 0;
#X connect 2 1 1 0;
#X connect 9 0 7 0;
#X connect 9 1 10 0;
#X connect 9 2 8 0;
#X restore 365 72 pd PRESET_LOAD;
#X connect 4 0 5 0;
#X restore 49 158 pd VERTICES;
#N canvas 201 235 878 300 MAP_GUI_COLORS 0;
#X obj 45 176 r \$0-click_m1;
#X msg 45 205 color 13;
#X obj 45 236 s \$0-map_sel_color;
#X obj 245 236 s \$0-map_sel_color;
#X obj 445 236 s \$0-map_sel_color;
#X obj 645 236 s \$0-map_sel_color;
#X msg 245 205 color 15;
#X obj 245 176 r \$0-click_m2;
#X obj 445 176 r \$0-click_m3;
#X obj 645 176 r \$0-click_m4;
#X msg 445 205 color 19;
#X msg 645 205 color 16;
#X obj 45 41 loadbang;
#X obj 45 117 s \$0-m1_color;
#X obj 245 117 s \$0-m2_color;
#X obj 445 117 s \$0-m3_color;
#X obj 645 117 s \$0-m4_color;
#X msg 45 86 color 13 22;
#X msg 245 86 color 15 22;
#X msg 445 86 color 19 22;
#X msg 645 86 color 16 22;
#X connect 0 0 1 0;
#X connect 1 0 2 0;
#X connect 6 0 3 0;
#X connect 7 0 6 0;
#X connect 8 0 10 0;
#X connect 9 0 11 0;
#X connect 10 0 4 0;
#X connect 11 0 5 0;
#X connect 12 0 17 0;
#X connect 12 0 18 0;
#X connect 12 0 19 0;
#X connect 12 0 20 0;
#X connect 17 0 13 0;
#X connect 18 0 14 0;
#X connect 19 0 15 0;
#X connect 20 0 16 0;
#X restore 49 75 pd MAP_GUI_COLORS;
#N canvas 90 75 1098 530 EDIT_MAP 0;
#X obj 48 39 r \$0-edit_map;
#X obj 48 477 s CANAL_MAP;
#X obj 895 135 r \$0-active_map;
#X floatatom 895 163 5 0 0 0 - - -, f 5;
#X obj 48 397 list prepend map1;
#X obj 268 477 s CANAL_MAP;
#X obj 488 477 s CANAL_MAP;
#X obj 708 477 s CANAL_MAP;
#X obj 268 397 list prepend map2;
#X obj 488 397 list prepend map3;
#X obj 708 397 list prepend map4;
#X msg 48 249 0;
#X msg 98 249 1;
#X obj 48 367 list prepend edit;
#X obj 48 287 t f f;
#X obj 95 321 s \$0-ed_state_1;
#X msg 268 249 0;
#X msg 318 249 1;
#X obj 268 287 t f f;
#X msg 488 249 0;
#X msg 538 249 1;
#X obj 488 287 t f f;
#X msg 708 249 0;
#X msg 758 249 1;
#X obj 708 287 t f f;
#X obj 315 321 s \$0-ed_state_2;
#X obj 535 321 s \$0-ed_state_3;
#X obj 755 321 s \$0-ed_state_4;
#X obj 268 367 list prepend edit;
#X obj 488 367 list prepend edit;
#X obj 708 367 list prepend edit;
#X obj 98 215 spigot;
#X obj 155 185 == 1;
#X obj 318 215 spigot;
#X obj 538 215 spigot;
#X obj 758 215 spigot;
#X obj 375 185 == 2;
#X obj 595 185 == 3;
#X obj 815 185 == 4;
#X obj 48 75 sel 0 1;
#X obj 98 109 t b b;
#X obj 48 109 t b;
#N canvas 99 235 785 349 LOAD_ACTIVE 0;
#X obj 74 154 r \$0-ed_state_1;
#X obj 244 154 r \$0-ed_state_2;
#X obj 414 154 r \$0-ed_state_3;
#X obj 584 154 r \$0-ed_state_4;
#X obj 47 188 f;
#X obj 217 188 f;
#X obj 387 188 f;
#X obj 557 188 f;
#X obj 47 45 r \$0-active_map;
#X obj 47 81 sel 1 2 3 4;
#X obj 47 287 s \$0-edit_map_in;
#X msg 47 255 set \$1;
#X connect 0 0 4 1;
#X connect 1 0 5 1;
#X connect 2 0 6 1;
#X connect 3 0 7 1;
#X connect 4 0 11 0;
#X connect 5 0 11 0;
#X connect 6 0 11 0;
#X connect 7 0 11 0;
#X connect 8 0 9 0;
#X connect 9 0 4 0;
#X connect 9 1 5 0;
#X connect 9 2 6 0;
#X connect 9 3 7 0;
#X connect 11 0 10 0;
#X restore 450 39 pd LOAD_ACTIVE;
#X connect 0 0 39 0;
#X connect 2 0 3 0;
#X connect 3 0 32 0;
#X connect 3 0 36 0;
#X connect 3 0 37 0;
#X connect 3 0 38 0;
#X connect 4 0 1 0;
#X connect 8 0 5 0;
#X connect 9 0 6 0;
#X connect 10 0 7 0;
#X connect 11 0 14 0;
#X connect 12 0 14 0;
#X connect 13 0 4 0;
#X connect 14 0 13 0;
#X connect 14 1 15 0;
#X connect 16 0 18 0;
#X connect 17 0 18 0;
#X connect 18 0 28 0;
#X connect 18 1 25 0;
#X connect 19 0 21 0;
#X connect 20 0 21 0;
#X connect 21 0 29 0;
#X connect 21 1 26 0;
#X connect 22 0 24 0;
#X connect 23 0 24 0;
#X connect 24 0 30 0;
#X connect 24 1 27 0;
#X connect 28 0 8 0;
#X connect 29 0 9 0;
#X connect 30 0 10 0;
#X connect 31 0 12 0;
#X connect 32 0 31 1;
#X connect 33 0 17 0;
#X connect 34 0 20 0;
#X connect 35 0 23 0;
#X connect 36 0 33 1;
#X connect 37 0 34 1;
#X connect 38 0 35 1;
#X connect 39 0 41 0;
#X connect 39 1 40 0;
#X connect 40 0 31 0;
#X connect 40 0 33 0;
#X connect 40 0 34 0;
#X connect 40 0 35 0;
#X connect 40 1 22 0;
#X connect 40 1 19 0;
#X connect 40 1 16 0;
#X connect 40 1 11 0;
#X connect 41 0 11 0;
#X connect 41 0 16 0;
#X connect 41 0 19 0;
#X connect 41 0 22 0;
#X restore 49 193 pd EDIT_MAP;
#N canvas 94 100 1173 537 INIT_RESET_FULL 0;
#X msg 144 161 0 -5.33 1 -5.33 4 -1 4 -1 1;
#X obj 144 196 s \$0-vert_map1;
#X msg 144 241 0 1 1 1 4 5.33 4 5.33 1;
#X msg 144 321 0 -5.33 -4 -5.33 -1 -1 -1 -1 -4;
#X msg 144 401 0 1 -4 1 -1 5.33 -1 5.33 -4;
#X obj 37 10 loadbang;
#X obj 144 276 s \$0-vert_map2;
#X obj 144 356 s \$0-vert_map3;
#X obj 144 436 s \$0-vert_map4;
#X obj 37 128 t b b b b b;
#N canvas 84 185 1154 555 flush_tables 0;
#X obj 62 300 tabread;
#X msg 1082 207 set \$2-vert_map\$1;
#X obj 1082 176 pack f \$0;
#X msg 62 264 0;
#X obj 232 300 tabread;
#X obj 402 300 tabread;
#X obj 572 300 tabread;
#X obj 742 300 tabread;
#X obj 912 300 tabread;
#X obj 1082 300 tabread;
#X obj 1252 300 tabread;
#X msg 232 264 1;
#X msg 402 264 2;
#X msg 572 264 3;
#X msg 742 264 4;
#X msg 912 264 5;
#X msg 1082 264 6;
#X msg 1252 264 7;
#X obj 62 354 list prepend bex;
#X obj 232 354 list prepend bey;
#X obj 402 354 list prepend aex;
#X obj 572 354 list prepend aey;
#X obj 742 354 list prepend adx;
#X obj 912 354 list prepend ady;
#X obj 1082 354 list prepend bdx;
#X obj 1252 354 list prepend bdy;
#X obj 62 433 list prepend;
#X msg 179 401 map\$1;
#X obj 62 151 t b b b b b b b b f f;
#X obj 62 479 s CANAL_MAP;
#X obj 62 80 t b b b b;
#X msg 212 113 4;
#X msg 162 113 3;
#X msg 112 113 2;
#X msg 62 113 1;
#X obj 62 30 inlet;
#X obj 149 30 r \$0-flush_map_tabs;
#X connect 0 0 18 0;
#X connect 1 0 0 0;
#X connect 1 0 4 0;
#X connect 1 0 5 0;
#X connect 1 0 6 0;
#X connect 1 0 7 0;
#X connect 1 0 8 0;
#X connect 1 0 9 0;
#X connect 1 0 10 0;
#X connect 2 0 1 0;
#X connect 3 0 0 0;
#X connect 4 0 19 0;
#X connect 5 0 20 0;
#X connect 6 0 21 0;
#X connect 7 0 22 0;
#X connect 8 0 23 0;
#X connect 9 0 24 0;
#X connect 10 0 25 0;
#X connect 11 0 4 0;
#X connect 12 0 5 0;
#X connect 13 0 6 0;
#X connect 14 0 7 0;
#X connect 15 0 8 0;
#X connect 16 0 9 0;
#X connect 17 0 10 0;
#X connect 18 0 26 0;
#X connect 19 0 26 0;
#X connect 20 0 26 0;
#X connect 21 0 26 0;
#X connect 22 0 26 0;
#X connect 23 0 26 0;
#X connect 24 0 26 0;
#X connect 25 0 26 0;
#X connect 26 0 29 0;
#X connect 27 0 26 1;
#X connect 28 0 3 0;
#X connect 28 1 11 0;
#X connect 28 2 12 0;
#X connect 28 3 13 0;
#X connect 28 4 14 0;
#X connect 28 5 15 0;
#X connect 28 6 16 0;
#X connect 28 7 17 0;
#X connect 28 8 2 0;
#X connect 28 9 27 0;
#X connect 30 0 34 0;
#X connect 30 1 33 0;
#X connect 30 2 32 0;
#X connect 30 3 31 0;
#X connect 31 0 28 0;
#X connect 32 0 28 0;
#X connect 33 0 28 0;
#X connect 34 0 28 0;
#X connect 35 0 30 0;
#X connect 36 0 30 0;
#X restore 37 481 pd flush_tables;
#X obj 176 113 bng 15 250 50 0 empty empty empty 17 7 0 10 -262144
-1 -1;
#X obj 504 62 r \$0-reset_act_map;
#X obj 531 101 r \$0-active_map;
#X obj 504 132 f;
#X obj 551 198 sel 1 2 3 4;
#X obj 504 165 t b f;
#X obj 504 244 s \$0-flush_map_tabs;
#X obj 818 181 r \$0-active_map;
#X obj 744 62 r \$0-full_act_map;
#X obj 791 281 s;
#X obj 818 212 pack f \$0;
#X msg 818 243 symbol \$2-vert_map\$1;
#X msg 791 138 0 -5.33 -4 -5.33 4 5.33 4 5.33 -4;
#X obj 744 101 t b b;
#X obj 744 321 s \$0-flush_map_tabs;
#X text 121 42 ESPERA PARA SOBREPOR DADOS ZERADOS DO FEEDBACK DA 2
INSTÂNCIA NO LOADBANG, f 26;
#X text 517 33 REINICIA VALORES;
#X text 777 33 TELA CHEIA;
#X obj 37 43 del 110;
#X connect 0 0 1 0;
#X connect 2 0 6 0;
#X connect 3 0 7 0;
#X connect 4 0 8 0;
#X connect 5 0 29 0;
#X connect 9 0 10 0;
#X connect 9 1 4 0;
#X connect 9 2 3 0;
#X connect 9 3 2 0;
#X connect 9 4 0 0;
#X connect 11 0 9 0;
#X connect 12 0 14 0;
#X connect 13 0 14 1;
#X connect 14 0 16 0;
#X connect 15 0 0 0;
#X connect 15 1 2 0;
#X connect 15 2 3 0;
#X connect 15 3 4 0;
#X connect 16 0 17 0;
#X connect 16 1 15 0;
#X connect 18 0 21 0;
#X connect 19 0 24 0;
#X connect 21 0 22 0;
#X connect 22 0 20 1;
#X connect 23 0 20 0;
#X connect 24 0 25 0;
#X connect 24 1 23 0;
#X connect 29 0 9 0;
#X restore 49 263 pd INIT_RESET_FULL;
#N canvas 395 140 473 628 MASTER 0;
#X obj 53 46 r \$0-master_act_map;
#X obj 241 187 r \$0-active_map;
#X obj 137 271 tabread;
#X msg 241 246 set \$2-vert_map\$1;
#X obj 241 217 pack f \$0;
#X obj 137 223 f;
#X obj 177 223 + 1;
#X msg 164 196 0;
#X obj 53 86 t b b b b;
#X obj 137 157 until;
#X msg 137 125 8;
#X obj 137 307 list prepend;
#X obj 267 307 list;
#X obj 100 346 list;
#X obj 100 376 list prepend 0;
#X obj 100 425 s \$0-vert_map1;
#X obj 100 455 s \$0-vert_map2;
#X obj 100 485 s \$0-vert_map3;
#X obj 100 515 s \$0-vert_map4;
#X obj 53 125 t b b;
#X obj 53 562 s \$0-flush_map_tabs;
#X connect 0 0 8 0;
#X connect 1 0 4 0;
#X connect 2 0 11 0;
#X connect 3 0 2 0;
#X connect 4 0 3 0;
#X connect 5 0 6 0;
#X connect 5 0 2 0;
#X connect 6 0 5 1;
#X connect 7 0 5 1;
#X connect 8 0 19 0;
#X connect 8 1 10 0;
#X connect 8 2 7 0;
#X connect 8 3 11 1;
#X connect 9 0 5 0;
#X connect 10 0 9 0;
#X connect 11 0 12 0;
#X connect 11 0 13 1;
#X connect 12 0 11 1;
#X connect 13 0 14 0;
#X connect 14 0 15 0;
#X connect 14 0 16 0;
#X connect 14 0 17 0;
#X connect 14 0 18 0;
#X connect 19 0 20 0;
#X connect 19 1 13 0;
#X restore 49 298 pd MASTER;
#N canvas 423 129 938 576 MASK 0;
#X obj 56 48 r \$0-click_mask_open;
#X obj 267 507 s \$0-mask_visor;
#X obj 56 168 openpanel;
#X obj 733 48 r \$0-active_map;
#N canvas 2 53 450 300 (subpatch) 0;
#X array \$0-on_masks 4 float 2;
#X coords 0 1.5 4 -0.5 200 140 1 0 0;
#X restore 536 392 graph;
#X obj 583 139 tabwrite \$0-on_masks;
#X obj 780 107 - 1;
#X obj 536 107 t f f;
#X obj 536 290 s CANAL_MAP;
#X obj 536 250 list prepend;
#X msg 653 221 map\$1;
#X obj 536 180 list prepend on_mask;
#X obj 536 48 r \$0-on_mask_map;
#X obj 153 251 r \$0-active_map;
#X obj 56 507 s CANAL_MAP;
#X obj 56 467 list prepend;
#X msg 173 439 map\$1;
#X obj 56 407 list prepend mask;
#X obj 56 253 t s s s;
#X obj 89 361 s;
#X obj 153 308 pack f \$0;
#X msg 153 336 symbol \$2-mask\$1;
#X obj 153 280 t f f;
#X msg 267 439 label \$1;
#X obj 733 77 t f f;
#N canvas 201 138 710 498 LOAD_ACTIVE 0;
#X obj 423 129 r \$0-mask1;
#X obj 53 214 s \$0-on_mask_map_in;
#X obj 53 154 tabread \$0-on_masks;
#X obj 53 125 - 1;
#X msg 53 184 set \$1;
#X obj 53 47 r \$0-active_map;
#X obj 276 154 symbol vazio;
#X obj 276 184 symbol vazio;
#X obj 276 214 symbol vazio;
#X obj 276 244 symbol vazio;
#X obj 423 159 r \$0-mask2;
#X obj 423 189 r \$0-mask3;
#X obj 423 219 r \$0-mask4;
#X obj 296 333 loadbang;
#X obj 276 423 s \$0-mask_visor;
#X msg 491 365 label \$1;
#X obj 53 84 t f f;
#X obj 276 109 sel 1 2 3 4;
#X obj 276 288 sel vazio;
#X obj 491 333 arrast_namecut 27;
#X msg 276 365 label open_mask;
#X connect 0 0 6 1;
#X connect 2 0 4 0;
#X connect 3 0 2 0;
#X connect 4 0 1 0;
#X connect 5 0 16 0;
#X connect 6 0 18 0;
#X connect 7 0 18 0;
#X connect 8 0 18 0;
#X connect 9 0 18 0;
#X connect 10 0 7 1;
#X connect 11 0 8 1;
#X connect 12 0 9 1;
#X connect 13 0 20 0;
#X connect 15 0 14 0;
#X connect 16 0 3 0;
#X connect 16 1 17 0;
#X connect 17 0 6 0;
#X connect 17 1 7 0;
#X connect 17 2 8 0;
#X connect 17 3 9 0;
#X connect 18 0 20 0;
#X connect 18 1 19 0;
#X connect 19 0 15 0;
#X connect 20 0 14 0;
#X restore 327 48 pd LOAD_ACTIVE;
#N canvas 335 298 839 500 PRESET_LOAD 0;
#X obj 59 261 s CANAL_MAP;
#X obj 59 221 list prepend;
#X msg 176 193 map\$1;
#X obj 59 151 list prepend mask;
#X obj 59 49 r \$0-mask1;
#X obj 179 49 r \$0-mask2;
#X obj 299 49 r \$0-mask3;
#X obj 419 49 r \$0-mask4;
#X obj 59 79 t s b;
#X msg 106 109 1;
#X obj 179 79 t s b;
#X obj 299 79 t s b;
#X obj 419 79 t s b;
#X msg 226 109 2;
#X msg 346 109 3;
#X msg 466 109 4;
#X obj 579 49 r \$0-flush_on_masks;
#X obj 579 434 s CANAL_MAP;
#X obj 579 394 list prepend;
#X msg 696 365 map\$1;
#X obj 579 304 list prepend on_mask;
#X obj 579 269 tabread \$0-on_masks;
#X obj 579 206 f;
#X obj 619 206 + 1;
#X msg 606 178 0;
#X obj 579 141 until;
#X msg 579 111 4;
#X obj 579 234 t f f;
#X obj 696 338 + 1;
#X obj 579 80 t b b;
#X connect 1 0 0 0;
#X connect 2 0 1 1;
#X connect 3 0 1 0;
#X connect 4 0 8 0;
#X connect 5 0 10 0;
#X connect 6 0 11 0;
#X connect 7 0 12 0;
#X connect 8 0 3 0;
#X connect 8 1 9 0;
#X connect 9 0 2 0;
#X connect 10 0 3 0;
#X connect 10 1 13 0;
#X connect 11 0 3 0;
#X connect 11 1 14 0;
#X connect 12 0 3 0;
#X connect 12 1 15 0;
#X connect 13 0 2 0;
#X connect 14 0 2 0;
#X connect 15 0 2 0;
#X connect 16 0 29 0;
#X connect 18 0 17 0;
#X connect 19 0 18 1;
#X connect 20 0 18 0;
#X connect 21 0 20 0;
#X connect 22 0 23 0;
#X connect 22 0 27 0;
#X connect 23 0 22 1;
#X connect 24 0 22 1;
#X connect 25 0 22 0;
#X connect 26 0 25 0;
#X connect 27 0 21 0;
#X connect 27 1 28 0;
#X connect 28 0 19 0;
#X connect 29 0 26 0;
#X connect 29 1 24 0;
#X restore 327 89 pd PRESET_LOAD;
#X obj 56 81 t b;
#X obj 267 407 arrast_namecut 27;
#X msg 56 131 symbol Masks/;
#X connect 0 0 27 0;
#X connect 2 0 18 0;
#X connect 3 0 24 0;
#X connect 6 0 5 1;
#X connect 7 0 11 0;
#X connect 7 1 5 0;
#X connect 9 0 8 0;
#X connect 10 0 9 1;
#X connect 11 0 9 0;
#X connect 12 0 7 0;
#X connect 13 0 22 0;
#X connect 15 0 14 0;
#X connect 16 0 15 1;
#X connect 17 0 15 0;
#X connect 18 0 17 0;
#X connect 18 1 19 0;
#X connect 18 2 28 0;
#X connect 20 0 21 0;
#X connect 21 0 19 1;
#X connect 22 0 20 0;
#X connect 22 1 16 0;
#X connect 23 0 1 0;
#X connect 24 0 10 0;
#X connect 24 1 6 0;
#X connect 27 0 29 0;
#X connect 28 0 23 0;
#X connect 29 0 2 0;
#X restore 49 228 pd MASK;
#N canvas 361 402 628 216 PRESETS 0;
#X obj 219 143 s \$0-map_preset_visor;
#X msg 219 110 label \$1;
#N canvas 547 170 584 412 OPEN_PRESET 0;
#X obj 153 36 r \$0-click_map_open;
#X obj 153 159 openpanel;
#X obj 121 305 textfile;
#X msg 211 257 read \$1;
#X obj 51 223 until;
#X obj 121 355 s \$0-map_preset_send;
#X msg 51 257 bang;
#X msg 121 257 rewind;
#X obj 313 223 s \$0-active_map_preset;
#X obj 153 198 t b b s s;
#X obj 153 79 t b;
#X msg 153 119 symbol Presets/Map/;
#X connect 0 0 10 0;
#X connect 1 0 9 0;
#X connect 2 0 5 0;
#X connect 2 1 4 1;
#X connect 3 0 2 0;
#X connect 4 0 6 0;
#X connect 6 0 2 0;
#X connect 7 0 2 0;
#X connect 9 0 4 0;
#X connect 9 1 7 0;
#X connect 9 2 3 0;
#X connect 9 3 8 0;
#X connect 10 0 11 0;
#X connect 11 0 1 0;
#X restore 39 84 pd OPEN_PRESET;
#N canvas 410 125 944 627 SAVE_PRESET 0;
#X obj 131 43 r \$0-save_as_map_preset;
#X obj 441 43 r \$0-save_map_preset;
#X obj 131 166 savepanel;
#N canvas 183 180 429 434 CH_1 0;
#X obj 223 281 r \$0-mask1;
#X obj 56 314 list append vazio;
#X obj 183 238 tabread \$0-on_masks;
#X msg 183 210 0;
#X obj 56 271 list append 0;
#N canvas 560 490 329 406 flush_vertices 0;
#X obj 80 203 f;
#X obj 120 203 + 1;
#X msg 107 176 0;
#X obj 80 142 until;
#X msg 80 112 8;
#X obj 80 271 list prepend;
#X obj 210 271 list;
#X obj 43 306 list;
#X obj 80 235 tabread \$0-vert_map1;
#X obj 43 77 t b b b b;
#X obj 43 37 inlet;
#X obj 43 346 outlet;
#X connect 0 0 1 0;
#X connect 0 0 8 0;
#X connect 1 0 0 1;
#X connect 2 0 0 1;
#X connect 3 0 0 0;
#X connect 4 0 3 0;
#X connect 5 0 6 0;
#X connect 5 0 7 1;
#X connect 6 0 5 1;
#X connect 7 0 11 0;
#X connect 8 0 5 0;
#X connect 9 0 7 0;
#X connect 9 1 4 0;
#X connect 9 2 2 0;
#X connect 9 3 5 1;
#X connect 10 0 9 0;
#X restore 163 168 pd flush_vertices;
#X obj 56 197 list append;
#X obj 56 136 f 1;
#X text 96 134 canal;
#X obj 56 91 t b b b;
#X obj 56 41 inlet;
#X obj 56 364 outlet;
#X connect 0 0 1 1;
#X connect 1 0 11 0;
#X connect 2 0 4 1;
#X connect 3 0 2 0;
#X connect 4 0 1 0;
#X connect 5 0 6 1;
#X connect 6 0 4 0;
#X connect 7 0 6 0;
#X connect 9 0 7 0;
#X connect 9 1 5 0;
#X connect 9 2 3 0;
#X connect 10 0 9 0;
#X restore 426 433 pd CH_1;
#N canvas 181 180 429 434 CH_2 0;
#X obj 56 314 list append vazio;
#X obj 183 238 tabread \$0-on_masks;
#X obj 56 271 list append 0;
#N canvas 300 319 329 406 flush_vertices 0;
#X obj 80 203 f;
#X obj 120 203 + 1;
#X msg 107 176 0;
#X obj 80 142 until;
#X msg 80 112 8;
#X obj 80 271 list prepend;
#X obj 210 271 list;
#X obj 43 306 list;
#X obj 43 77 t b b b b;
#X obj 43 37 inlet;
#X obj 43 346 outlet;
#X obj 80 235 tabread \$0-vert_map2;
#X connect 0 0 1 0;
#X connect 0 0 11 0;
#X connect 1 0 0 1;
#X connect 2 0 0 1;
#X connect 3 0 0 0;
#X connect 4 0 3 0;
#X connect 5 0 6 0;
#X connect 5 0 7 1;
#X connect 6 0 5 1;
#X connect 7 0 10 0;
#X connect 8 0 7 0;
#X connect 8 1 4 0;
#X connect 8 2 2 0;
#X connect 8 3 5 1;
#X connect 9 0 8 0;
#X connect 11 0 5 0;
#X restore 163 168 pd flush_vertices;
#X obj 56 197 list append;
#X text 96 134 canal;
#X obj 56 91 t b b b;
#X obj 56 41 inlet;
#X obj 56 364 outlet;
#X obj 56 136 f 2;
#X msg 183 210 1;
#X obj 223 281 r \$0-mask2;
#X connect 0 0 8 0;
#X connect 1 0 2 1;
#X connect 2 0 0 0;
#X connect 3 0 4 1;
#X connect 4 0 2 0;
#X connect 6 0 9 0;
#X connect 6 1 3 0;
#X connect 6 2 10 0;
#X connect 7 0 6 0;
#X connect 9 0 4 0;
#X connect 10 0 1 0;
#X connect 11 0 0 1;
#X restore 336 433 pd CH_2;
#N canvas 182 180 429 434 CH_3 0;
#X obj 56 314 list append vazio;
#X obj 183 238 tabread \$0-on_masks;
#X obj 56 271 list append 0;
#N canvas 300 319 329 406 flush_vertices 0;
#X obj 80 203 f;
#X obj 120 203 + 1;
#X msg 107 176 0;
#X obj 80 142 until;
#X msg 80 112 8;
#X obj 80 271 list prepend;
#X obj 210 271 list;
#X obj 43 306 list;
#X obj 43 77 t b b b b;
#X obj 43 37 inlet;
#X obj 43 346 outlet;
#X obj 80 235 tabread \$0-vert_map3;
#X connect 0 0 1 0;
#X connect 0 0 11 0;
#X connect 1 0 0 1;
#X connect 2 0 0 1;
#X connect 3 0 0 0;
#X connect 4 0 3 0;
#X connect 5 0 6 0;
#X connect 5 0 7 1;
#X connect 6 0 5 1;
#X connect 7 0 10 0;
#X connect 8 0 7 0;
#X connect 8 1 4 0;
#X connect 8 2 2 0;
#X connect 8 3 5 1;
#X connect 9 0 8 0;
#X connect 11 0 5 0;
#X restore 163 168 pd flush_vertices;
#X obj 56 197 list append;
#X text 96 134 canal;
#X obj 56 91 t b b b;
#X obj 56 41 inlet;
#X obj 56 364 outlet;
#X obj 56 136 f 3;
#X msg 183 210 2;
#X obj 223 281 r \$0-mask3;
#X connect 0 0 8 0;
#X connect 1 0 2 1;
#X connect 2 0 0 0;
#X connect 3 0 4 1;
#X connect 4 0 2 0;
#X connect 6 0 9 0;
#X connect 6 1 3 0;
#X connect 6 2 10 0;
#X connect 7 0 6 0;
#X connect 9 0 4 0;
#X connect 10 0 1 0;
#X connect 11 0 0 1;
#X restore 246 433 pd CH_3;
#N canvas 197 145 429 434 CH_4 0;
#X obj 56 314 list append vazio;
#X obj 183 238 tabread \$0-on_masks;
#X obj 56 271 list append 0;
#N canvas 296 431 329 406 flush_vertices 0;
#X obj 80 203 f;
#X obj 120 203 + 1;
#X msg 107 176 0;
#X obj 80 142 until;
#X msg 80 112 8;
#X obj 80 271 list prepend;
#X obj 210 271 list;
#X obj 43 306 list;
#X obj 43 77 t b b b b;
#X obj 43 37 inlet;
#X obj 43 346 outlet;
#X obj 80 235 tabread \$0-vert_map4;
#X connect 0 0 1 0;
#X connect 0 0 11 0;
#X connect 1 0 0 1;
#X connect 2 0 0 1;
#X connect 3 0 0 0;
#X connect 4 0 3 0;
#X connect 5 0 6 0;
#X connect 5 0 7 1;
#X connect 6 0 5 1;
#X connect 7 0 10 0;
#X connect 8 0 7 0;
#X connect 8 1 4 0;
#X connect 8 2 2 0;
#X connect 8 3 5 1;
#X connect 9 0 8 0;
#X connect 11 0 5 0;
#X restore 163 168 pd flush_vertices;
#X obj 56 197 list append;
#X text 96 134 canal;
#X obj 56 91 t b b b;
#X obj 56 41 inlet;
#X obj 56 364 outlet;
#X obj 56 136 f 4;
#X msg 183 210 3;
#X obj 223 281 r \$0-mask4;
#X connect 0 0 8 0;
#X connect 1 0 2 1;
#X connect 2 0 0 0;
#X connect 3 0 4 1;
#X connect 4 0 2 0;
#X connect 6 0 9 0;
#X connect 6 1 3 0;
#X connect 6 2 10 0;
#X connect 7 0 6 0;
#X connect 9 0 4 0;
#X connect 10 0 1 0;
#X connect 11 0 0 1;
#X restore 156 433 pd CH_4;
#X obj 156 565 textfile;
#X msg 258 540 clear;
#X obj 156 479 list prepend add;
#X obj 131 375 t s b b b b b;
#X obj 550 110 symbol vazio;
#X obj 441 194 spigot 0;
#X obj 550 140 sel vazio;
#X msg 518 165 1;
#X obj 441 85 t b b;
#X obj 131 204 t b s;
#X obj 131 341 symbol;
#X msg 38 540 write \$1;
#X msg 178 236 symbol \$1.txt;
#X obj 178 269 s \$0-active_map_preset;
#X obj 188 309 r \$0-active_map_preset;
#X obj 667 79 r \$0-active_map_preset;
#X obj 131 85 t b;
#X obj 156 509 list trim;
#X msg 131 125 symbol Presets/Map/;
#X connect 0 0 23 0;
#X connect 1 0 15 0;
#X connect 2 0 16 0;
#X connect 3 0 9 0;
#X connect 4 0 9 0;
#X connect 5 0 9 0;
#X connect 6 0 9 0;
#X connect 8 0 7 0;
#X connect 9 0 24 0;
#X connect 10 0 18 0;
#X connect 10 1 6 0;
#X connect 10 2 5 0;
#X connect 10 3 4 0;
#X connect 10 4 3 0;
#X connect 10 5 8 0;
#X connect 11 0 13 0;
#X connect 12 0 17 0;
#X connect 13 1 14 0;
#X connect 14 0 12 1;
#X connect 15 0 12 0;
#X connect 15 1 11 0;
#X connect 16 0 17 0;
#X connect 16 1 19 0;
#X connect 17 0 10 0;
#X connect 18 0 7 0;
#X connect 19 0 20 0;
#X connect 21 0 17 1;
#X connect 22 0 11 1;
#X connect 23 0 25 0;
#X connect 24 0 7 0;
#X connect 25 0 2 0;
#X restore 39 45 pd SAVE_PRESET;
#X obj 412 78 loadbang;
#X obj 219 45 r \$0-active_map_preset;
#X obj 219 78 arrast_namecut 35;
#X msg 412 110 label open_preset;
#X connect 1 0 0 0;
#X connect 4 0 7 0;
#X connect 5 0 6 0;
#X connect 6 0 1 0;
#X connect 7 0 0 0;
#X restore 49 346 pd PRESETS;
#N canvas 230 426 318 213 GUI_STATE 0;
#X obj 49 45 r \$0-close_map_config;
#X obj 49 75 t b;
#X msg 49 106 vis 0;
#X obj 49 139 s pd-MAP_GUI;
#X connect 0 0 1 0;
#X connect 1 0 2 0;
#X connect 2 0 3 0;
#X restore 49 39 pd GUI_STATE;
#X restore 60 331 pd MAP_CONTROL;
#N canvas 61 82 641 202 AUTOMATION_CONTROL 0;
#N canvas 224 238 338 271 GUI_STATE 0;
#X obj 44 148 t b;
#X msg 44 179 vis 1;
#X obj 44 212 s pd-AUTOMATION_GUI;
#X text 42 27 ** JANELA DE CONFIGURAÇÃO DA AUTOMAÇÃO CHAMADA PELO
BOTÃO DA INTERFACE, f 25;
#X obj 44 118 r \$0-autoConfig_gui;
#X connect 0 0 1 0;
#X connect 1 0 2 0;
#X connect 4 0 0 0;
#X restore 58 70 pd GUI_STATE;
#X text 138 24 ** GESTÃO DO MECANISMO DE AUTOMAÇÃO;
#N canvas 100 94 1188 669 INDEX 0;
#X obj 1035 741 moses;
#X obj 1035 710 spigot;
#X obj 367 639 spigot;
#X obj 417 750 *;
#X obj 362 496 bng 15 250 50 0 empty empty empty 17 7 0 10 -262144
-1 -1;
#X obj 406 496 bng 15 250 50 0 empty empty empty 17 7 0 10 -262144
-1 -1;
#X text 381 492 +;
#X text 425 492 -;
#X text 452 257 RESETA ÍNDICE;
#X text 522 377 RESOLUÇÃO EM MSEC PARA GRAVAÇÃO E LEITURA;
#N canvas 15 59 409 264 MAXIMUM 0;
#X obj 37 69 inlet;
#X obj 37 214 outlet;
#X obj 37 180 t f f;
#X text 192 104 RESET;
#X text 35 25 ** DETECTA MAIOR NÚMERO NUM FLUXO;
#X obj 124 69 inlet RESET;
#X obj 37 138 max 0;
#X msg 124 103 0;
#X connect 0 0 6 0;
#X connect 2 0 1 0;
#X connect 2 1 6 1;
#X connect 5 0 7 0;
#X connect 6 0 2 0;
#X connect 7 0 6 1;
#X restore 367 678 pd MAXIMUM;
#X text 350 18 ** MECANISMO DE ÍNDICE GLOBAL PARA AUTOMAÇÕES;
#X obj 354 97 r \$0-autoRec_gui;
#X obj 1059 97 r \$0-autoPlay_gui;
#X obj 421 155 sel 1;
#X msg 421 184 0;
#X obj 421 213 s \$0-autoPlay_gui_set;
#X obj 1126 155 sel 1;
#X msg 1126 184 0;
#X obj 1126 213 s \$0-autoRec_gui_set;
#X floatatom 290 549 5 0 0 0 - - -, f 5;
#X text 348 550 ÍNDICE GLOBAL;
#X obj 417 779 / 1000;
#X text 416 838 TAMANHO DA TIMELINE EM SEGUNDOS;
#X obj 417 808 s \$0-autoVisorSec_gui_set;
#X obj 392 882 s \$0-autoVisorFrames_gui_set;
#X text 391 912 TAMANHO DA TIMELINE EM FRAMES;
#X text 438 640 APENAS DURANTE GRAVAÇÃO;
#N canvas 27 65 746 275 COUNTER 0;
#X obj 150 160 f;
#X obj 150 130 t f f f;
#X obj 500 154 f;
#X obj 600 154 f;
#X obj 500 183 + 1;
#X obj 600 183 - 1;
#X obj 150 229 outlet FLOAT;
#X obj 35 77 loadbang;
#X obj 500 66 inlet UP;
#X obj 500 95 t b;
#X obj 600 95 t b;
#X obj 600 66 inlet DOWN;
#X obj 150 66 inlet SET_GET;
#X obj 150 95 route float bang;
#X msg 35 106 0;
#X obj 330 66 inlet SET_COLD;
#X obj 330 95 t f f f;
#X text 153 18 ** CONTADOR COM MÉTODOS SET \, GET \, UP E DOWN;
#X connect 0 0 6 0;
#X connect 1 0 0 0;
#X connect 1 1 2 1;
#X connect 1 2 3 1;
#X connect 2 0 4 0;
#X connect 3 0 5 0;
#X connect 4 0 1 0;
#X connect 5 0 1 0;
#X connect 7 0 14 0;
#X connect 8 0 9 0;
#X connect 9 0 2 0;
#X connect 10 0 3 0;
#X connect 11 0 10 0;
#X connect 12 0 13 0;
#X connect 13 0 1 0;
#X connect 13 1 0 0;
#X connect 14 0 1 0;
#X connect 15 0 16 0;
#X connect 16 0 0 1;
#X connect 16 1 2 1;
#X connect 16 2 3 1;
#X restore 290 519 pd COUNTER;
#X obj 290 953 pack f f;
#X text 385 952 ÍNDICE E TAMANHO PARA REDIMENSIONAMENTO DOS ARRAYS
, f 21;
#X obj 481 318 r MASTER_FPS;
#X msg 481 347 1000 \$1;
#X obj 481 376 /;
#X obj 481 405 t f f;
#X obj 354 454 metro 41.6667;
#X text 613 319 RECEBE TAXA GLOBAL DE FPS;
#X obj 461 495 r \$0-timeUp;
#X obj 580 495 r \$0-timeDown;
#X obj 289 256 r \$0-autoRW_gui;
#X obj 1109 844 r \$0-autoLoop_gui;
#X obj 1082 873 f;
#X text 1107 711 APENAS DURANTE REPRODUÇÃO;
#X text 1097 742 AÇÃO AO ALCANÇAR FIM DA REPRODUÇÃO;
#X msg 1082 931 0;
#X obj 1082 960 s \$0-autoPlay_gui_set;
#X text 1126 932 FIM DA REPRODUÇÃO;
#X text 1294 845 ESTADO DO LOOP;
#X obj 1129 801 s \$0-autoRW_gui;
#X obj 1082 902 sel 0;
#X obj 1082 772 t b b;
#X text 1294 801 REINICIA ÍNDICE;
#X obj 116 625 r \$0-autoClear_gui;
#X msg 192 693 0;
#X text 114 597 LIMPA AUTOMAÇÃO;
#X msg 145 693 0;
#X obj 779 817 s \$0-autoTimeline_gui_set;
#X msg 913 788 set \$1;
#X text 777 847 ENVIA ÍNDICE PARA TIMELINE;
#X obj 116 654 t b b b b;
#X obj 116 737 s \$0-autoRW_gui;
#X text 113 767 REINICIA ÍNDICE;
#X msg 779 788 label .\$1;
#X msg 322 324 -1;
#X msg 369 324 0;
#X obj 913 759 / 0;
#X text 351 71 BOTÃO REC DA INTERFACE;
#X text 1056 71 BOTÃO PLAY DA INTERFACE;
#X obj 290 1032 s AUTOMATION_MASTER;
#X text 495 1032 ENVIA PACOTE DE AUTOMAÇÃO PARA TODAS AS UNIDADES
[arrast_automato], f 66;
#X obj 367 717 t f f f f f f;
#X obj 1051 384 *;
#X obj 1051 413 int;
#X obj 1051 355 r \$0-autoTimeline_gui;
#X text 1049 327 NAVEGAÇÃO NA TIMELINE;
#X obj 1051 453 spigot;
#X obj 1121 429 == 0;
#X obj 290 576 t f f f f f;
#X obj 1051 495 t f;
#X text 1093 385 DETERMINA POSIÇÃO DO CURSOR;
#X text 1171 425 IGNORA SE ESTIVER GRAVANDO OU REPRODUZINDO, f 26
;
#X obj 1059 126 t f f f;
#X obj 354 126 t f f f;
#X obj 354 405 t f f f;
#X obj 913 600 spigot;
#X text 987 597 APENAS SE ESTIVER GRAVANDO OU REPRODUZINDO, f 26;
#X obj 49 523 r \$0-autoSetSize;
#X text 47 472 RECEBE TAMANHO DA MEMÓRIA QUANDO ABRE UM PRESET, f
25;
#X text 478 679 TAMANHO FINAL DA AUTOMAÇÃO;
#X obj 49 552 t b f b;
#X obj 289 285 t b b b;
#X obj 141 334 s AUTO_RW;
#X text 138 363 SINCRONIZA RW DOS VÍDEOS;
#X connect 0 1 50 0;
#X connect 1 0 0 0;
#X connect 2 0 10 0;
#X connect 3 0 22 0;
#X connect 4 0 28 2;
#X connect 5 0 28 3;
#X connect 10 0 70 0;
#X connect 12 0 82 0;
#X connect 13 0 81 0;
#X connect 14 0 15 0;
#X connect 15 0 16 0;
#X connect 17 0 18 0;
#X connect 18 0 19 0;
#X connect 20 0 77 0;
#X connect 22 0 24 0;
#X connect 28 0 20 0;
#X connect 29 0 68 0;
#X connect 31 0 32 0;
#X connect 32 0 33 0;
#X connect 33 0 34 0;
#X connect 34 0 35 1;
#X connect 34 1 3 1;
#X connect 35 0 28 2;
#X connect 37 0 28 2;
#X connect 38 0 28 3;
#X connect 39 0 90 0;
#X connect 40 0 41 1;
#X connect 41 0 49 0;
#X connect 44 0 45 0;
#X connect 49 0 44 0;
#X connect 50 0 41 0;
#X connect 50 1 48 0;
#X connect 52 0 59 0;
#X connect 53 0 70 0;
#X connect 55 0 29 0;
#X connect 57 0 56 0;
#X connect 59 0 60 0;
#X connect 59 1 55 0;
#X connect 59 2 53 0;
#X connect 59 3 10 1;
#X connect 62 0 56 0;
#X connect 63 0 28 1;
#X connect 64 0 65 0;
#X connect 64 0 62 0;
#X connect 65 0 57 0;
#X connect 70 0 29 1;
#X connect 70 1 25 0;
#X connect 70 2 3 0;
#X connect 70 3 0 1;
#X connect 70 4 65 1;
#X connect 70 5 71 1;
#X connect 71 0 72 0;
#X connect 72 0 75 0;
#X connect 73 0 71 0;
#X connect 75 0 78 0;
#X connect 76 0 75 1;
#X connect 77 0 29 0;
#X connect 77 1 2 0;
#X connect 77 2 62 0;
#X connect 77 3 84 0;
#X connect 77 4 1 0;
#X connect 78 0 28 0;
#X connect 81 0 83 0;
#X connect 81 1 1 1;
#X connect 81 2 17 0;
#X connect 82 0 83 0;
#X connect 82 1 2 1;
#X connect 82 2 14 0;
#X connect 83 0 35 0;
#X connect 83 1 84 1;
#X connect 83 2 76 0;
#X connect 84 0 65 0;
#X connect 86 0 89 0;
#X connect 89 0 29 0;
#X connect 89 1 10 0;
#X connect 89 2 59 0;
#X connect 90 0 91 0;
#X connect 90 1 63 0;
#X connect 90 2 64 0;
#X restore 58 104 pd INDEX;
#X text 192 71 GESTÃO DA JANELA DE CONFIGURAÇÃO;
#X text 153 105 MECANISMO DE ÍNDICE GLOBAL PARA AUTOMAÇÕES;
#N canvas 91 114 1250 598 AUTOMATION_PRESET 0;
#X obj 54 200 savepanel;
#X obj 439 279 spigot 0;
#X msg 516 250 1;
#X obj 54 82 r \$0-autoPresetSaveAs_gui;
#X obj 439 82 r \$0-autoPresetSave_gui;
#X msg 54 166 symbol Presets/Automation/;
#X obj 87 267 s \$0-activeAutoPreset;
#X obj 623 152 r \$0-activeAutoPreset;
#X obj 516 184 symbol none;
#X obj 516 216 sel none;
#X msg 54 333 write \$1;
#X text 421 18 ** GESTÃO DE PRESETS DE AUTOMAÇÃO;
#X text 437 56 BOTÃO SAVE;
#X obj 878 82 r \$0-autoPresetOpen_gui;
#X obj 878 198 openpanel;
#X text 876 56 BOTÃO OPEN_AUTOMATION;
#X text 52 56 BOTÃO SAVE_AS;
#X msg 878 160 symbol Presets/Automation;
#X msg 615 433 label \$1;
#X obj 1025 401 loadbang;
#X obj 615 401 arrast_namecut 21;
#X obj 615 368 r \$0-activeAutoPreset;
#X obj 615 466 s \$0-autoPresetVisor;
#X msg 945 433 label OPEN_AUTOMATION;
#X text 613 340 VISOR DO NOME DO PRESET ATIVO;
#X text 149 334 GRAVA ARQUIVO;
#X obj 945 368 r \$0-autoClear_gui;
#X text 943 340 LIMPA AUTOMAÇÃO;
#X msg 64 375 read \$1;
#X text 149 376 LÊ ARQUIVO;
#X obj 965 262 s \$0-activeAutoPreset;
#X obj 54 449 arrast_arraymemo;
#X text 229 544 ENVIA TAMANHO DA MEMÓRIA PARA MECANISMO DE ÍNDICE
QUANDO ABRE UM PRESET, f 71;
#X obj 54 543 s \$0-autoSetSize;
#N canvas 77 80 988 392 ARRAYMEMO_LIST 0;
#X obj 126 150 list prepend;
#X obj 126 182 list;
#X obj 89 216 list;
#X obj 336 150 list prepend;
#X obj 336 182 list;
#X obj 299 216 list;
#X obj 546 150 list prepend;
#X obj 546 182 list;
#X obj 509 216 list;
#X obj 756 150 list prepend;
#X obj 756 182 list;
#X obj 719 216 list;
#X obj 756 118 r CH1_AUTOMEMOLIST;
#X obj 546 118 r CH2_AUTOMEMOLIST;
#X obj 336 118 r CH3_AUTOMEMOLIST;
#X obj 126 118 r CH4_AUTOMEMOLIST;
#X text 262 87 RECEBE NOMES DOS ARRAYS DE MEMÓRIA DOS [arrast_automato]
;
#X obj 89 248 list prepend;
#X obj 89 280 list;
#X obj 52 314 list;
#X obj 52 39 inlet;
#X text 179 16 ** RECEBE E ORGANIZA LISTA DE ARRAYS DE MEMÓRIA DAS
AUTOMAÇÕES, f 62;
#X obj 52 348 outlet;
#X text 221 249 ACUMULA LISTAS;
#X obj 52 76 t b b b b b b;
#X connect 0 0 1 0;
#X connect 1 0 0 1;
#X connect 1 0 2 1;
#X connect 2 0 17 0;
#X connect 3 0 4 0;
#X connect 4 0 3 1;
#X connect 4 0 5 1;
#X connect 5 0 17 0;
#X connect 6 0 7 0;
#X connect 7 0 6 1;
#X connect 7 0 8 1;
#X connect 8 0 17 0;
#X connect 9 0 10 0;
#X connect 10 0 9 1;
#X connect 10 0 11 1;
#X connect 11 0 17 0;
#X connect 12 0 9 0;
#X connect 13 0 6 0;
#X connect 14 0 3 0;
#X connect 15 0 0 0;
#X connect 17 0 18 0;
#X connect 18 0 17 1;
#X connect 18 0 19 1;
#X connect 19 0 22 0;
#X connect 20 0 24 0;
#X connect 24 0 19 0;
#X connect 24 1 2 0;
#X connect 24 2 5 0;
#X connect 24 3 8 0;
#X connect 24 4 11 0;
#X connect 24 5 17 1;
#X restore 211 420 pd ARRAYMEMO_LIST;
#X text 226 450 GESTOR DE MEMÓRIA;
#X obj 54 234 t s s b;
#X obj 54 303 symbol;
#X msg 624 123 symbol none;
#X obj 945 401 t b b;
#X obj 54 508 change;
#X obj 54 126 t b b;
#X obj 439 126 t b b b;
#X obj 878 126 t b b;
#X msg 136 484 set 0;
#X obj 878 228 t s s b s;
#X connect 0 0 36 0;
#X connect 1 0 37 0;
#X connect 2 0 1 1;
#X connect 3 0 41 0;
#X connect 4 0 42 0;
#X connect 5 0 0 0;
#X connect 7 0 8 1;
#X connect 8 0 9 0;
#X connect 9 1 2 0;
#X connect 10 0 31 0;
#X connect 13 0 43 0;
#X connect 14 0 45 0;
#X connect 17 0 14 0;
#X connect 18 0 22 0;
#X connect 19 0 23 0;
#X connect 20 0 18 0;
#X connect 21 0 20 0;
#X connect 23 0 22 0;
#X connect 26 0 39 0;
#X connect 28 0 31 0;
#X connect 31 0 40 0;
#X connect 34 0 31 1;
#X connect 36 0 37 0;
#X connect 36 1 6 0;
#X connect 36 2 34 0;
#X connect 37 0 10 0;
#X connect 38 0 8 1;
#X connect 39 0 23 0;
#X connect 39 1 38 0;
#X connect 40 0 33 0;
#X connect 41 0 5 0;
#X connect 41 1 44 0;
#X connect 42 0 1 0;
#X connect 42 1 8 0;
#X connect 42 2 44 0;
#X connect 43 0 17 0;
#X connect 43 1 44 0;
#X connect 44 0 40 0;
#X connect 45 0 37 1;
#X connect 45 1 28 0;
#X connect 45 2 34 0;
#X connect 45 3 30 0;
#X restore 58 138 pd AUTOMATION_PRESET;
#X text 272 139 GESTÃO DE PRESETS DE AUTOMAÇÃO;
#X restore 60 399 pd AUTOMATION_CONTROL;
#N canvas 499 157 660 408 CAMERA_IN 0;
#X msg 49 107 1;
#X msg 99 107 0;
#X obj 49 42 loadbang;
#X obj 49 181 gemhead 10;
#X obj 49 308 pix_video;
#X obj 49 144 tgl 25 0 empty empty empty 17 7 0 10 -262144 -1 -1 1
1;
#X msg 76 229 dimen 640 480;
#X obj 76 264 t a;
#X msg 227 229 colorspace RGBA;
#X obj 49 71 t b b b b;
#X text 193 21 ** RENDERIZA CÂMERA NUM BUFFER PARA SER COMPARTILHADO
ENTRE OS 4 CANAIS E ENTRE AS 2 INSTÂNCIAS, f 39;
#X obj 398 159 r CAMERA_DEVICE;
#X text 395 111 RECEBE DISPOSITIVO DA JANELA DO GEMWIN, f 19;
#X msg 398 229 device \$1;
#X obj 398 194 f 0;
#X text 374 344 BUFFER COMPARTILHADO;
#X obj 49 344 pix_share_write 10 640 480 RGBA;
#X connect 0 0 5 0;
#X connect 1 0 5 0;
#X connect 2 0 9 0;
#X connect 3 0 4 0;
#X connect 4 0 16 0;
#X connect 5 0 3 0;
#X connect 6 0 7 0;
#X connect 7 0 4 0;
#X connect 8 0 7 0;
#X connect 9 0 0 0;
#X connect 9 1 6 0;
#X connect 9 2 8 0;
#X connect 9 3 14 0;
#X connect 11 0 14 0;
#X connect 13 0 7 0;
#X connect 14 0 13 0;
#X restore 60 195 pd CAMERA_IN;
#N canvas 289 54 877 644 MAIN_GUI 1;
#X obj 2 1 cnv 15 873 641 empty empty empty 20 12 0 14 -66577 -66577
0;
#X obj 12 11 cnv 15 205 621 empty empty empty 20 12 0 14 -1 -66577
0;
#X obj 228 11 cnv 15 205 621 empty empty empty 20 12 0 14 -1 -66577
0;
#X obj 444 11 cnv 15 205 621 empty empty empty 20 12 0 14 -1 -66577
0;
#X obj 660 11 cnv 15 205 621 empty empty empty 20 12 0 14 -1 -66577
0;
#X obj 670 232 arrast_iint 4;
#X obj 670 323 arrast_cint 4;
#X obj 670 396 arrast_transf 4;
#X obj 670 524 arrast_fx 4;
#X obj 670 21 arrast_vint 4;
#X obj 22 232 arrast_iint 1;
#X obj 238 232 arrast_iint 2;
#X obj 454 232 arrast_iint 3;
#X obj 22 323 arrast_cint 1;
#X obj 238 323 arrast_cint 2;
#X obj 454 323 arrast_cint 3;
#X obj 22 397 arrast_transf 1;
#X obj 238 396 arrast_transf 2;
#X obj 454 396 arrast_transf 3;
#X obj 22 525 arrast_fx 1;
#X obj 240 525 arrast_fx 2;
#X obj 454 524 arrast_fx 3;
#X obj 22 21 arrast_vint 1;
#X obj 454 21 arrast_vint 3;
#X obj 238 21 arrast_vint 2;
#X restore 60 229 pd MAIN_GUI;
#X coords 0 -1 1 1 247 50 2 20 20;
#X restore 12 11 pd INIT;
#X obj 2 1 cnv 15 267 522 empty empty empty 20 12 0 14 -1 -66577 0
;
#X obj 52 82 hradio 35 1 0 2 \$0-click_vj \$0-click_vj_in empty 0 12
0 15 -262144 -1 -1 1;
#X obj 149 82 hradio 35 1 0 2 \$0-click_map \$0-click_map_in empty
0 12 0 15 -262144 -1 -1 0;
#X obj 52 82 cnv 15 70 35 morto \$0-vj_color MIX 13 18 0 25 -260818
-1 0;
#X obj 12 138 cnv 15 247 50 empty empty empty 20 12 0 14 -128992 -66577
0;
#X obj 89 158 hradio 20 1 0 8 \$0-click_main_open \$0-click_main_open_in
PRESET 0 -8 0 8 -262144 -1 -1 5;
#X obj 23 158 bng 20 250 50 0 \$0-save_as_main_preset \$0-save_as_main_preset_in
SAVE_AS -7 -8 0 8 -1 -262144 -1;
#X obj 56 158 bng 20 250 50 0 \$0-save_main_preset \$0-save_main_preset_in
SAVE 0 -8 0 8 -1 -262144 -1;
#X obj 89 158 cnv 15 160 20 empty \$0-main_preset_visor OPEN_PRESET
7 10 0 12 -1 -262144 0;
#X obj 12 11 cnv 15 247 50 empty empty [ARRAST_VJ] 14 24 0 34 -128992
-1 0;
#X obj 12 199 cnv 15 247 143 empty empty empty 20 12 0 14 -128992 -66577
0;
#X obj 89 219 hradio 20 1 0 8 \$0-autoPresetOpen_gui \$0-autoPresetOpen_gui_set
AUTOMATION 0 -8 0 8 -262144 -1 -1 3;
#X obj 23 219 bng 20 250 50 0 \$0-autoPresetSaveAs_gui \$0-autoPresetSaveAs_gui_set
SAVE_AS -7 -8 0 8 -1 -262144 -1;
#X obj 56 219 bng 20 250 50 0 \$0-autoPresetSave_gui \$0-autoPresetSave_gui_set
SAVE 0 -8 0 8 -1 -262144 -1;
#X obj 89 219 cnv 15 160 20 empty \$0-autoPresetVisor OPEN_AUTOMATION
7 10 0 12 -1 -262144 0;
#X obj 89 250 bng 20 250 50 0 \$0-autoRW_gui \$0-autoRW_gui_set RW
4 10 0 10 -1 -262144 -262144;
#X obj 122 250 tgl 20 0 \$0-autoLoop_gui \$0-autoLoop_gui_set L 7 11
0 12 -1 -262144 -262144 0 1;
#X obj 56 250 tgl 20 0 \$0-autoPlay_gui \$0-autoPlay_gui_set P 7 11
0 12 -1 -262144 -262144 0 1;
#X obj 23 250 tgl 20 0 \$0-autoRec_gui \$0-autoRec_gui_set R 7 11 0
12 -86277 -262144 -262144 0 1;
#X obj 165 258 nbx 4 12 -1e+37 1e+37 0 0 \$0-autoVisorFrames_gui \$0-autoVisorFrames_gui_set
FRAMES 0 -8 0 8 -1 -262144 -1 0 256;
#X obj 213 258 nbx 4 12 -1e+37 1e+37 0 0 \$0-autoVisorSec_gui \$0-autoVisorSec_gui_set
SECS 0 -8 0 8 -1 -262144 -1 0 256;
#X obj 26 281 hsl 222 20 0 1 0 0 \$0-autoTimeline_gui \$0-autoTimeline_gui_set
.0 0 11 0 12 -1 -262144 -128992 0 1;
#X obj 50 312 hradio 20 1 0 4 \$0-autoConfig_gui \$0-autoConfig_gui_set
CONFIG 22 10 0 10 -1 -1 -262144 2;
#X obj 141 312 hradio 20 1 0 4 \$0-autoClear_gui \$0-autoClear_gui_set
CLEAR 25 10 0 10 -1 -1 -262144 2;
#X obj 149 82 cnv 15 70 35 morto \$0-map_color MAP 14 18 0 25 -1 -262144
0;
#X obj 12 353 arrast_gemwin;
