#N canvas 68 203 271 593 16;
#X declare -path _abstract -lib Gem;
#N canvas 64 84 427 649 INIT 0;
#X obj 302 20 arrast_cpu;
#N canvas 19 138 1351 527 MODE_SELECTOR 0;
#X msg 438 216 0;
#X msg 488 216 1;
#X obj 84 122 loadbang;
#X obj 1009 216 s \$0-flush_map_tabs;
#X obj 471 386 s pd-MAP_GUI;
#X obj 34 192 t b b b b;
#X msg 184 216 vis 1;
#X msg 34 318 color 14 0 22;
#X msg 184 318 color 22 0 0;
#X msg 859 352 color 14 0 22;
#X msg 1009 352 color 22 0 0;
#X obj 184 250 s pd-MAIN_GUI;
#X obj 505 318 s MODE_BUS;
#X obj 859 192 t b b b b b;
#X obj 438 133 r REFRESH_MODE;
#X obj 84 151 del 20;
#X obj 1009 284 s \$0-flush_active_map;
#X msg 471 352 vis \$1;
#X obj 438 250 f;
#X obj 438 454 s REFRESH_ACTIVE_SLOT;
#X obj 438 284 t b f f;
#X text 158 152 WAITS FOR 2nd INSTANCE;
#X text 483 251 MIX/MAP MODE;
#X text 436 105 REFRESH MODE;
#X text 468 416 MAP CONFIGURATION WINDOW;
#X text 618 319 SEND GLOBAL MODE;
#X text 437 484 REFRESH ACTIVE SLOTS IN EACH CHANNEL;
#X obj 34 78 r \$0-mixClick_gui;
#X obj 859 78 r \$0-mapClick_gui;
#X obj 34 352 s \$0-mixColor;
#X obj 184 352 s \$0-mapColor;
#X obj 859 386 s \$0-mapColor;
#X obj 1009 386 s \$0-mixColor;
#X text 181 280 CONTENT WINDOW;
#X text 32 382 COLOR OF THE BUTTONS IN THE MAIN INTERFACE;
#X text 857 416 COLOR OF THE BUTTONS IN THE MAIN INTERFACE;
#X text 1007 246 REFRESH NODE MAPS;
#X text 1008 314 REFRESH ACTIVE MAP IN INTERFACE;
#X text 32 50 CLICK ON MIX MODE;
#X text 856 50 CLICK ON MAP MODE;
#X text 498 15 ** MANAGE MIX/MAP GLOBAL MODE;
#X obj 654 78 r OSC_BUS;
#X obj 654 110 route main;
#X obj 654 139 route mode;
#X obj 654 168 sel 0 1;
#X text 651 51 EXTERNAL CONTROL;
#X obj 438 162 t b b;
#X connect 0 0 18 0;
#X connect 1 0 18 0;
#X connect 2 0 15 0;
#X connect 5 0 7 0;
#X connect 5 1 8 0;
#X connect 5 2 6 0;
#X connect 5 3 0 0;
#X connect 6 0 11 0;
#X connect 7 0 29 0;
#X connect 8 0 30 0;
#X connect 9 0 31 0;
#X connect 10 0 32 0;
#X connect 13 0 9 0;
#X connect 13 1 10 0;
#X connect 13 2 1 0;
#X connect 13 3 16 0;
#X connect 13 4 3 0;
#X connect 14 0 46 0;
#X connect 15 0 5 0;
#X connect 17 0 4 0;
#X connect 18 0 20 0;
#X connect 20 0 19 0;
#X connect 20 1 17 0;
#X connect 20 2 12 0;
#X connect 27 0 5 0;
#X connect 28 0 13 0;
#X connect 41 0 42 0;
#X connect 42 0 43 0;
#X connect 43 0 44 0;
#X connect 44 0 5 0;
#X connect 44 1 13 0;
#X connect 46 0 18 0;
#X connect 46 1 6 0;
#X restore 60 283 pd MODE_SELECTOR;
#N canvas 276 74 807 757 RUN_MOTOR 0;
#X obj 52 38 loadbang;
#X obj 99 660 pd~ -ninsig 0 -noutsig 0;
#X msg 132 463 pd~ stop;
#X msg 151 96 \; pd dsp 1;
#X obj 52 72 t b b;
#X text 246 106 FIRST TURN ON THE DSP TO RUN [pd~];
#X text 232 464 FINISH 2nd INSTANCE;
#N canvas 535 265 517 305 RECEIVE_FROM_2 0;
#X obj 52 113 inlet FROM_2;
#X obj 52 215 route mapFB;
#X obj 52 249 s MAP_FB_BUS;
#X text 39 25 ** RECEIVE FEEDBACK ON THE POSITION OF ADJUSTED MAPPINGS
IN GEM OUTPUT WINDOW AND SEND TO INTERFACE, f 42;
#X obj 52 166 spigot 1;
#X obj 212 113 inlet OPEN;
#X obj 332 113 inlet CLOSE;
#X msg 212 142 1;
#X msg 332 142 0;
#X connect 0 0 4 0;
#X connect 1 0 2 0;
#X connect 4 0 1 0;
#X connect 5 0 7 0;
#X connect 6 0 8 0;
#X connect 7 0 4 1;
#X connect 8 0 4 1;
#X restore 99 706 pd RECEIVE_FROM_2;
#X text 287 708 RECEIVE DATA FROM 2nd INSTANCE;
#N canvas 217 112 763 496 SEND_TO_2 0;
#X obj 52 93 list prepend gemwin;
#X obj 52 166 list prepend video;
#X obj 490 166 list prepend camera;
#X obj 52 239 list prepend transf;
#X obj 276 239 list prepend fx;
#X obj 490 239 list prepend map;
#X obj 52 441 outlet;
#X obj 52 397 list trim;
#X obj 52 363 list prepend RECEIVE_FROM_1;
#X text 334 365 TAG TO RECEIVE MESSAGES IN 2nd INSTANCE;
#X obj 52 64 r GEMWIN_BUS;
#X obj 52 137 r VIDEO_BUS;
#X obj 52 210 r TRANSF_BUS;
#X obj 490 64 r SOURCE_BUS;
#X obj 490 93 list prepend source;
#X obj 276 137 r IMAGE_BUS;
#X obj 276 210 r FX_BUS;
#X obj 276 166 list prepend image;
#X obj 276 64 r MODE_BUS;
#X obj 276 93 list prepend mode;
#X text 87 18 ** ARRANGES HOW CONTROL MESSAGES ARE SENT TO 2nd INSTANCE
;
#X obj 490 137 r CAMERA_BUS;
#X obj 490 210 r MAP_BUS;
#X obj 52 283 r EXPORT_BUS;
#X obj 52 312 list prepend export;
#X connect 0 0 8 0;
#X connect 1 0 8 0;
#X connect 2 0 8 0;
#X connect 3 0 8 0;
#X connect 4 0 8 0;
#X connect 5 0 8 0;
#X connect 7 0 6 0;
#X connect 8 0 7 0;
#X connect 10 0 0 0;
#X connect 11 0 1 0;
#X connect 12 0 3 0;
#X connect 13 0 14 0;
#X connect 14 0 8 0;
#X connect 15 0 17 0;
#X connect 16 0 4 0;
#X connect 17 0 8 0;
#X connect 18 0 19 0;
#X connect 19 0 8 0;
#X connect 21 0 2 0;
#X connect 22 0 5 0;
#X connect 23 0 24 0;
#X connect 24 0 8 0;
#X restore 132 542 pd SEND_TO_2;
#X text 268 542 SEND CONTROL DATA TO 2nd INSTANCE;
#X text 355 662 [pd~] HAS NO NEED TO TRANSMIT AUDIO;
#X text 494 406 START 2nd INSTANCE WITHOUT INTERFACE, f 28;
#X text 196 14 ** MANAGE PD 2nd INSTANCE CREATION AND COMMUNICATION
- NECESSARY TO GENERATE 2 GEM WINDOWS AND DISTRIBUTE PROCESSING IN
2 CORES;
#X obj 132 611 spigot;
#X msg 189 583 1;
#X msg 229 583 0;
#X obj 132 491 t a b;
#X text 208 614 SEND COMMAND ONLY AFTER 2nd INSTANCE HAS STARTED;
#X msg 52 419 pd~ start -nogui _abstract/ARRAST_MOTOR.pd;
#X obj 62 166 r RESTART_MOTOR;
#X obj 122 268 r DEBUG;
#X obj 95 297 f;
#X obj 95 326 sel 0 1;
#X text 500 353 START SECOND INSTANCE WITH INTERFACE, f 28;
#X text 225 167 RESTART 2nd INSTANCE;
#X text 204 269 DEBUG MODE;
#X msg 128 366 pd~ start _abstract/ARRAST_MOTOR.pd;
#N canvas 391 177 708 426 RESTART_SYSTEM 0;
#X obj 124 259 s REFRESH_MODE;
#X obj 175 191 s REFRESH_GEMWIN;
#X text 350 192 REFRESH MASTER WINDOW;
#X obj 48 361 s REFRESH_ACTIVE_SLOT;
#X obj 149 225 s REFRESH_SOURCE;
#X obj 48 54 inlet;
#X text 123 15 ** RESTART SYSTEM OF THE 2nd INSTANCE;
#X text 280 260 GLOBAL MODE REFRESH;
#X obj 168 124 r REFRESH_GLOBAL;
#X text 343 124 REFRESH ALL PARAMETERS;
#X obj 73 327 s REFRESH_MAP;
#X obj 48 114 del 0;
#X obj 168 61 r DEBUG;
#X text 253 57 DEBUG MODE DELAY;
#X obj 168 90 * 500;
#X text 219 328 REFRESH MAPS DATA;
#X obj 48 148 t b b b b b b;
#X obj 98 293 outlet BANG;
#X text 224 294 UNLOCK 2nd INSTANCE RETURN OF DATA;
#X text 324 226 REFRESH ACTIVE UNIT IN EACH CHANNEL;
#X text 273 362 REFRESH ACTIVE SLOT IN EACH UNIT;
#X connect 5 0 11 0;
#X connect 8 0 16 0;
#X connect 11 0 16 0;
#X connect 12 0 14 0;
#X connect 14 0 11 1;
#X connect 16 0 3 0;
#X connect 16 1 10 0;
#X connect 16 2 17 0;
#X connect 16 3 0 0;
#X connect 16 4 4 0;
#X connect 16 5 1 0;
#X restore 62 234 pd RESTART_SYSTEM;
#X obj 52 463 t b a;
#X text 245 235 RESTART PARAMETERS;
#X obj 62 200 t b b b b;
#X text 165 202 AT FIRST LOCKS 2nd INSTANCE RETURN OF DATA;
#X connect 0 0 4 0;
#X connect 1 0 7 0;
#X connect 2 0 17 0;
#X connect 4 0 19 0;
#X connect 4 1 3 0;
#X connect 9 0 14 0;
#X connect 14 0 1 0;
#X connect 15 0 14 1;
#X connect 16 0 14 1;
#X connect 17 0 1 0;
#X connect 17 1 16 0;
#X connect 19 0 29 0;
#X connect 20 0 31 0;
#X connect 21 0 22 1;
#X connect 22 0 23 0;
#X connect 23 0 19 0;
#X connect 23 1 27 0;
#X connect 27 0 29 0;
#X connect 28 0 7 1;
#X connect 29 0 15 0;
#X connect 29 1 1 0;
#X connect 31 0 28 0;
#X connect 31 1 22 0;
#X connect 31 2 2 0;
#X connect 31 3 7 2;
#X restore 60 215 pd RUN_MOTOR;
#N canvas 431 215 507 303 MAP_GUI 0;
#X obj 1 4 cnv 15 505 297 empty empty empty 20 12 0 14 -1 -66577 0
;
#X obj 22 14 hradio 20 1 0 5 \$0-mapClick1_gui \$0-mapClick1_gui_set
empty 0 0 0 15 -262144 -1 -1 3;
#X obj 143 14 hradio 20 1 0 5 \$0-mapClick2_gui \$0-mapClick2_gui_set
empty 0 -8 0 10 -262144 -1 -1 1;
#X obj 264 14 hradio 20 1 0 5 \$0-mapClick3_gui \$0-mapClick3_gui_set
empty 0 -8 0 10 -262144 -1 -1 3;
#X obj 385 14 hradio 20 1 0 5 \$0-mapClick4_gui \$0-mapClick4_gui_set
empty 0 -8 0 10 -262144 -1 -1 1;
#X obj 11 35 cnv 15 485 183 empty \$0-mapBgColor empty 20 12 0 14 -258699
-262144 0;
#X obj 72 180 hradio 30 1 0 8 \$0-maskOpen_gui \$0-maskOpen_gui_set
empty 0 -8 0 10 -262144 -1 -1 2;
#X obj 31 180 tgl 30 0 \$0-maskState_gui \$0-maskState_gui_set MASK
3 -8 0 10 -1 -262144 -1 0 1;
#X obj 21 45 cnv 15 465 112 empty empty empty 20 12 0 14 -228856 -262144
0;
#X floatatom 44 55 8 0 0 0 X #0-tlx_gui_set #0-tlx_gui, f 8;
#X floatatom 144 55 8 0 0 0 Y #0-tly_gui_set #0-tly_gui, f 8;
#X floatatom 44 125 8 0 0 0 X #0-blx_gui_set #0-blx_gui, f 8;
#X floatatom 144 125 8 0 0 0 Y #0-bly_gui_set #0-bly_gui, f 8;
#X floatatom 294 55 8 0 0 0 X #0-trx_gui_set #0-trx_gui, f 8;
#X floatatom 394 55 8 0 0 0 Y #0-try_gui_set #0-try_gui, f 8;
#X floatatom 294 125 8 0 0 0 X #0-brx_gui_set #0-brx_gui, f 8;
#X floatatom 394 125 8 0 0 0 Y #0-bry_gui_set #0-bry_gui, f 8;
#X obj 236 84 tgl 35 0 \$0-mapEdit_gui \$0-mapEdit_gui_set MANUAL 0
-8 0 10 -1 -262144 -1 0 1;
#X obj 344 180 bng 30 250 50 0 \$0-mapReset_gui \$0-mapReset_gui_set
RESET 1 -8 0 10 -1 -262144 -1;
#X obj 384 180 bng 30 250 50 0 \$0-mapFull_gui \$0-mapFull_gui_set
FULL 4 -8 0 10 -1 -262144 -1;
#X obj 72 180 cnv 15 240 30 empty \$0-maskDisplay OPEN_MASK 10 15 0
14 -1 -262144 0;
#X obj 446 180 bng 30 250 50 0 \$0-mapMaster_gui \$0-mapMaster_gui_set
MASTER -2 -8 0 10 -1 -262144 -1;
#X obj 22 14 cnv 15 100 20 empty \$0-colorChannel1 empty 18 18 0 16
-258699 -1 0;
#X obj 143 14 cnv 15 100 20 empty \$0-m2_color empty 18 18 0 16 -241291
-1 0;
#X obj 264 14 cnv 15 100 20 empty \$0-m3_color empty 18 18 0 16 -250685
-1 0;
#X obj 385 14 cnv 15 100 20 empty \$0-m4_color empty 18 18 0 16 -24198
-1 0;
#X obj 10 229 cnv 15 485 62 empty empty empty 20 12 0 14 -128992 -262144
0;
#X obj 156 251 hradio 30 1 0 10 \$0-mapPresetOpen_gui \$0-mapPresetOpen_gui_set
OPEN_PRESET 0 -8 0 10 -262144 -1 -1 2;
#X obj 156 251 cnv 15 300 30 empty \$0-mapPresetDisplay OPEN_PRESET
10 15 0 14 -1 -262144 0;
#X obj 51 251 bng 30 250 50 0 \$0-mapPresetSaveAs_gui \$0-mapPresetSaveAs_gui_set
SAVE_AS -5 -8 0 10 -1 -262144 -1;
#X obj 101 251 bng 30 250 50 0 \$0-mapPresetSave_gui \$0-mapPresetSave_gui_set
SAVE 3 -8 0 10 -1 -262144 -1;
#X restore 60 385 pd MAP_GUI;
#N canvas 215 155 785 288 MAIN_PRESET 0;
#X msg 278 189 label \$1;
#X obj 386 155 loadbang;
#N canvas 297 145 663 491 OPEN_PRESET 0;
#X obj 72 190 openpanel;
#X obj 101 356 textfile;
#X msg 189 312 read \$1;
#X obj 32 278 until;
#X msg 32 312 bang;
#X msg 101 312 rewind;
#X obj 101 410 s MAIN_PRESET_SEND;
#X obj 72 122 t b;
#X obj 72 234 t b b s s;
#X msg 72 156 symbol Presets/Main;
#X obj 72 88 r \$0-mainPresetOpen_gui;
#X obj 336 288 s \$0-activePreset;
#X text 137 17 ** LOAD TEXT FILE PRESET;
#X text 69 60 OPEN_PRESET BUTTON;
#X text 334 260 SEND ACTIVE PRESET TO DISPLAY;
#X text 194 356 READ TEXT FILE;
#X text 98 440 SEND DATA TO ALL UNITS;
#X obj 336 88 r OSC_BUS;
#X obj 336 117 route main;
#X obj 336 146 route preset;
#X obj 336 210 symbol;
#X obj 336 175 route file;
#X text 333 60 EXTERNAL CONTROL;
#X connect 0 0 8 0;
#X connect 1 0 6 0;
#X connect 1 1 3 1;
#X connect 2 0 1 0;
#X connect 3 0 4 0;
#X connect 4 0 1 0;
#X connect 5 0 1 0;
#X connect 7 0 9 0;
#X connect 8 0 3 0;
#X connect 8 1 5 0;
#X connect 8 2 2 0;
#X connect 8 3 11 0;
#X connect 9 0 0 0;
#X connect 10 0 7 0;
#X connect 17 0 18 0;
#X connect 18 0 19 0;
#X connect 19 0 21 0;
#X connect 20 0 8 0;
#X connect 21 0 20 0;
#X restore 64 165 pd OPEN_PRESET;
#N canvas 64 103 1080 594 SAVE_PRESET 0;
#X obj 144 186 savepanel;
#X obj 223 541 textfile;
#X msg 337 517 clear;
#X obj 223 463 list prepend add;
#X obj 438 244 spigot 0;
#X msg 624 220 1;
#X obj 438 128 t b b;
#X obj 144 220 t b s;
#X obj 144 331 symbol;
#X msg 47 517 write \$1;
#X obj 57 399 t b s;
#X obj 47 433 del 100;
#X obj 47 467 symbol;
#N canvas 474 115 383 324 CH1 0;
#X obj 48 58 inlet;
#X obj 48 268 outlet;
#X obj 48 102 s CH1_FLUSH;
#X obj 48 156 r CH1_PRESET;
#X obj 48 224 list trim;
#X obj 48 190 list prepend 1;
#X text 37 17 ** REQUEST DATA FROM CHANNEL 1;
#X connect 0 0 2 0;
#X connect 3 0 5 0;
#X connect 4 0 1 0;
#X connect 5 0 4 0;
#X restore 475 419 pd CH1;
#X obj 223 497 list trim;
#X obj 144 118 t b;
#X msg 144 152 symbol Presets/Main/;
#N canvas 610 198 315 336 GEMWIN 0;
#X obj 40 81 inlet;
#X obj 40 281 outlet;
#X obj 40 237 list trim;
#X obj 40 125 s GEMWIN_FLUSH;
#X obj 40 169 r GEMWIN_PRESET;
#X obj 40 203 list prepend gemwin;
#X text 37 16 ** REQUEST DATA FROM GEM CONTROL WINDOW, f 27;
#X connect 0 0 3 0;
#X connect 2 0 1 0;
#X connect 4 0 5 0;
#X connect 5 0 2 0;
#X restore 703 419 pd GEMWIN;
#X obj 144 375 t s b b b b b b b;
#X obj 144 84 r \$0-mainPresetSaveAs_gui;
#X obj 438 84 r \$0-mainPresetSave_gui;
#X obj 654 118 r \$0-activePreset;
#X obj 547 152 symbol none;
#X obj 547 186 sel none;
#X obj 191 253 s \$0-activePreset;
#X obj 201 297 r \$0-activePreset;
#X text 120 18 ** REQUEST DATA IN THE CORRECT ORDER AND SAVES PRESET
OF CONTENTS TO TEXT FILES, f 82;
#X text 141 56 SAVE_AS BUTTON;
#X text 435 56 SAVE BUTTON;
#N canvas 162 137 852 408 VIC_STATE 0;
#X obj 54 110 r V1_ST;
#X obj 134 110 r I1_ST;
#X obj 214 110 r C1_ST;
#X obj 54 180 r V2_ST;
#X obj 134 180 r I2_ST;
#X obj 214 180 r C2_ST;
#X obj 54 250 r V3_ST;
#X obj 134 250 r I3_ST;
#X obj 214 250 r C3_ST;
#X obj 54 320 r V4_ST;
#X obj 134 320 r I4_ST;
#X obj 214 320 r C4_ST;
#N canvas 0 50 450 300 (subpatch) 0;
#X array \$0-VIC 12 float 2;
#X coords 0 2 12 -1 200 140 1 0 0;
#X restore 599 82 graph;
#N canvas 207 164 379 510 FLUSH 0;
#X obj 56 62 inlet;
#X obj 93 242 f;
#X obj 137 242 + 1;
#X msg 120 208 0;
#X obj 93 174 until;
#X obj 227 310 list;
#X obj 56 344 list;
#X obj 56 106 t b b b b;
#X obj 93 310 list prepend;
#X msg 93 140 12;
#X obj 93 276 tabread \$0-VIC;
#X obj 56 378 list prepend vic;
#X obj 56 456 outlet;
#X obj 56 412 list trim;
#X text 41 18 ** READ TABLE AND FORMAT DATA;
#X connect 0 0 7 0;
#X connect 1 0 2 0;
#X connect 1 0 10 0;
#X connect 2 0 1 1;
#X connect 3 0 1 1;
#X connect 4 0 1 0;
#X connect 5 0 8 1;
#X connect 6 0 11 0;
#X connect 7 0 6 0;
#X connect 7 1 9 0;
#X connect 7 2 3 0;
#X connect 7 3 8 1;
#X connect 8 0 5 0;
#X connect 8 0 6 1;
#X connect 9 0 4 0;
#X connect 10 0 8 0;
#X connect 11 0 13 0;
#X connect 13 0 12 0;
#X restore 365 107 pd FLUSH;
#N canvas 474 391 305 160 2TAB 0;
#X obj 54 51 inlet;
#X obj 54 87 arrast_2tab 0 \$0-VIC;
#X connect 0 0 1 0;
#X restore 54 141 pd 2TAB;
#N canvas 468 360 305 160 2TAB 0;
#X obj 54 51 inlet;
#X obj 54 87 arrast_2tab 1 \$0-VIC;
#X connect 0 0 1 0;
#X restore 134 141 pd 2TAB;
#N canvas 470 361 305 160 2TAB 0;
#X obj 54 51 inlet;
#X obj 54 87 arrast_2tab 2 \$0-VIC;
#X connect 0 0 1 0;
#X restore 214 141 pd 2TAB;
#N canvas 467 388 305 160 2TAB 0;
#X obj 54 51 inlet;
#X obj 54 87 arrast_2tab 3 \$0-VIC;
#X connect 0 0 1 0;
#X restore 54 211 pd 2TAB;
#N canvas 467 416 305 160 2TAB 0;
#X obj 54 51 inlet;
#X obj 54 87 arrast_2tab 4 \$0-VIC;
#X connect 0 0 1 0;
#X restore 134 211 pd 2TAB;
#N canvas 469 389 305 160 2TAB 0;
#X obj 54 51 inlet;
#X obj 54 87 arrast_2tab 5 \$0-VIC;
#X connect 0 0 1 0;
#X restore 214 211 pd 2TAB;
#N canvas 468 360 305 160 2TAB 0;
#X obj 54 51 inlet;
#X obj 54 87 arrast_2tab 6 \$0-VIC;
#X connect 0 0 1 0;
#X restore 54 281 pd 2TAB;
#N canvas 468 360 305 160 2TAB 0;
#X obj 54 51 inlet;
#X obj 54 87 arrast_2tab 7 \$0-VIC;
#X connect 0 0 1 0;
#X restore 134 281 pd 2TAB;
#N canvas 470 361 305 160 2TAB 0;
#X obj 54 51 inlet;
#X obj 54 87 arrast_2tab 8 \$0-VIC;
#X connect 0 0 1 0;
#X restore 214 281 pd 2TAB;
#N canvas 469 389 305 160 2TAB 0;
#X obj 54 51 inlet;
#X obj 54 87 arrast_2tab 9 \$0-VIC;
#X connect 0 0 1 0;
#X restore 54 351 pd 2TAB;
#N canvas 467 388 305 160 2TAB 0;
#X obj 54 51 inlet;
#X obj 54 87 arrast_2tab 10 \$0-VIC;
#X connect 0 0 1 0;
#X restore 134 351 pd 2TAB;
#N canvas 469 417 305 160 2TAB 0;
#X obj 54 51 inlet;
#X obj 54 87 arrast_2tab 11 \$0-VIC;
#X connect 0 0 1 0;
#X restore 214 351 pd 2TAB;
#X text 180 17 ** MANAGE EACH UNIT STATE FROM THE 4 CHANNELS;
#X text 597 228 STORE DATA;
#X obj 365 63 inlet BANG;
#X obj 365 151 outlet LIST;
#N canvas 99 130 896 397 VIC_STATE_PRESET 0;
#X obj 51 65 r MAIN_PRESET_SEND;
#X obj 51 109 route vic;
#X obj 51 153 list split 3;
#X obj 51 197 unpack f f f;
#X obj 51 227 s V1_SET_ST;
#X obj 109 257 s I1_SET_ST;
#X obj 168 287 s C1_SET_ST;
#X obj 250 177 list split 3;
#X obj 250 221 unpack f f f;
#X obj 250 251 s V2_SET_ST;
#X obj 308 281 s I2_SET_ST;
#X obj 367 311 s C2_SET_ST;
#X obj 450 201 list split 3;
#X obj 450 245 unpack f f f;
#X obj 450 275 s V3_SET_ST;
#X obj 508 305 s I3_SET_ST;
#X obj 567 335 s C3_SET_ST;
#X obj 610 225 unpack f f f;
#X obj 610 269 s V4_SET_ST;
#X obj 668 299 s I4_SET_ST;
#X obj 727 329 s C4_SET_ST;
#X text 169 18 ** RECEIVE DATA FROM PRESETS MANAGER AND SEND TO UNITS
;
#X connect 0 0 1 0;
#X connect 1 0 2 0;
#X connect 2 0 3 0;
#X connect 2 1 7 0;
#X connect 3 0 4 0;
#X connect 3 1 5 0;
#X connect 3 2 6 0;
#X connect 7 0 8 0;
#X connect 7 1 12 0;
#X connect 8 0 9 0;
#X connect 8 1 10 0;
#X connect 8 2 11 0;
#X connect 12 0 13 0;
#X connect 12 1 17 0;
#X connect 13 0 14 0;
#X connect 13 1 15 0;
#X connect 13 2 16 0;
#X connect 17 0 18 0;
#X connect 17 1 19 0;
#X connect 17 2 20 0;
#X restore 365 238 pd VIC_STATE_PRESET;
#X text 363 210 RECEIVE PRESETS;
#X text 457 108 READ TABLE;
#X text 51 62 RECEIVE STATES FROM UNITS AND SEND TO TABLE, f 27;
#X connect 0 0 14 0;
#X connect 1 0 15 0;
#X connect 2 0 16 0;
#X connect 3 0 17 0;
#X connect 4 0 18 0;
#X connect 5 0 19 0;
#X connect 6 0 20 0;
#X connect 7 0 21 0;
#X connect 8 0 22 0;
#X connect 9 0 23 0;
#X connect 10 0 24 0;
#X connect 11 0 25 0;
#X connect 13 0 29 0;
#X connect 28 0 13 0;
#X restore 559 419 pd VIC_STATE;
#N canvas 474 115 377 350 CH2 0;
#X obj 48 58 inlet;
#X obj 48 292 outlet;
#X obj 48 248 list trim;
#X text 37 17 ** REQUEST DATA FROM CHANNEL 2;
#X obj 48 92 del 20;
#X obj 48 126 s CH2_FLUSH;
#X obj 48 180 r CH2_PRESET;
#X obj 48 214 list prepend 2;
#X text 120 93 SORTING DELAY;
#X connect 0 0 4 0;
#X connect 2 0 1 0;
#X connect 4 0 5 0;
#X connect 6 0 7 0;
#X connect 7 0 2 0;
#X restore 391 419 pd CH2;
#N canvas 474 115 376 350 CH3 0;
#X obj 48 58 inlet;
#X obj 48 292 outlet;
#X obj 48 248 list trim;
#X text 120 93 SORTING DELAY;
#X text 37 17 ** REQUEST DATA FROM CHANNEL 3;
#X obj 48 92 del 40;
#X obj 48 126 s CH3_FLUSH;
#X obj 48 180 r CH3_PRESET;
#X obj 48 214 list prepend 3;
#X connect 0 0 5 0;
#X connect 2 0 1 0;
#X connect 5 0 6 0;
#X connect 7 0 8 0;
#X connect 8 0 2 0;
#X restore 307 419 pd CH3;
#N canvas 476 116 380 350 CH4 0;
#X obj 48 58 inlet;
#X obj 48 292 outlet;
#X obj 48 248 list trim;
#X text 120 93 SORTING DELAY;
#X text 37 17 ** REQUEST DATA FROM CHANNEL 4;
#X obj 48 92 del 60;
#X obj 48 126 s CH4_FLUSH;
#X obj 48 180 r CH4_PRESET;
#X obj 48 214 list prepend 4;
#X connect 0 0 5 0;
#X connect 2 0 1 0;
#X connect 5 0 6 0;
#X connect 7 0 8 0;
#X connect 8 0 2 0;
#X restore 223 419 pd CH4;
#X text 129 429 AWAIT FOR DATA, f 7;
#X text 315 543 WRITE TO FILE;
#X text 540 255 IF THERE IS NO ACTIVE PRESET, f 27;
#X obj 866 84 r OSC_BUS;
#X obj 866 113 route main;
#X obj 866 142 route preset;
#X text 863 56 EXTERNAL CONTROL;
#X obj 866 171 route save;
#X connect 0 0 7 0;
#X connect 2 0 1 0;
#X connect 3 0 14 0;
#X connect 4 0 8 0;
#X connect 5 0 4 1;
#X connect 6 0 4 0;
#X connect 6 1 22 0;
#X connect 7 0 8 0;
#X connect 7 1 24 0;
#X connect 8 0 18 0;
#X connect 9 0 1 0;
#X connect 10 0 11 0;
#X connect 10 1 12 1;
#X connect 11 0 12 0;
#X connect 12 0 9 0;
#X connect 13 0 3 0;
#X connect 14 0 1 0;
#X connect 15 0 16 0;
#X connect 16 0 0 0;
#X connect 17 0 3 0;
#X connect 18 0 10 0;
#X connect 18 1 32 0;
#X connect 18 2 31 0;
#X connect 18 3 30 0;
#X connect 18 4 13 0;
#X connect 18 5 29 0;
#X connect 18 6 17 0;
#X connect 18 7 2 0;
#X connect 19 0 15 0;
#X connect 20 0 6 0;
#X connect 21 0 22 1;
#X connect 22 0 23 0;
#X connect 23 0 15 0;
#X connect 23 1 5 0;
#X connect 25 0 8 1;
#X connect 29 0 3 0;
#X connect 30 0 3 0;
#X connect 31 0 3 0;
#X connect 32 0 3 0;
#X connect 36 0 37 0;
#X connect 37 0 38 0;
#X connect 38 0 40 0;
#X connect 40 0 6 0;
#X restore 64 87 pd SAVE_PRESET;
#X msg 386 189 label OPEN_PRESET;
#X obj 278 87 r \$0-activePreset;
#X text 277 59 PRESET CONTENTS VIEWER;
#X text 460 121 ADJUST NAME FOR DISPLAY;
#X obj 278 233 s \$0-mainPresetDisplay;
#X text 62 60 SAVE PRESET;
#X text 62 137 LOAD PRESET;
#X text 33 18 ** MANAGE DATA PRESETS FROM THE MAIN WINDOW AND FROM
GEM CONFIGURATIONS, f 75;
#X obj 278 121 arrast_namecut 21;
#X connect 0 0 8 0;
#X connect 1 0 4 0;
#X connect 4 0 8 0;
#X connect 5 0 12 0;
#X connect 12 0 0 0;
#X restore 60 351 pd MAIN_PRESET;
#N canvas 526 235 548 134 DECLARE 0;
#X obj 42 67 declare -path _abstract -lib Gem;
#X text 37 25 ** DECLARE ABSTRACTIONS AND GEM EXTERNAL LIBRARY;
#X restore 60 147 pd DECLARE;
#N canvas 166 67 1016 709 AUTOMATION_GUI 0;
#X obj 1 1 cnv 15 1013 705 empty empty empty 20 12 0 14 -1 -66577 0
;
#X obj 69 12 cnv 20 140 20 empty empty AUTOMATION_STATE 5 10 0 14 -1
-128992 0;
#X obj 221 12 cnv 20 70 20 empty empty M=MANUAL 5 10 0 14 -1 -262144
0;
#X obj 300 12 cnv 20 60 20 empty empty R=RECORD 5 10 0 14 -1 -262144
0;
#X obj 379 12 cnv 20 60 20 empty empty P=PLAY 5 10 0 14 -1 -262144
0;
#X obj 764 42 arrast_automenu \$0 4;
#X obj 883 14 hradio 15 1 0 4 \$0-autoResolution_gui \$0-autoResolution_gui_set
empty -63 8 0 14 -262144 -1 -262144 2;
#X obj 472 12 cnv 20 140 20 empty empty AUTOMATION_RESOLUTION 5 10
0 14 -1 -128992 0;
#X obj 664 12 cnv 20 70 20 empty empty 1/2/4/8_SAMPLES_PER_FRAME 5
10 0 14 -1 -262144 0;
#X obj 11 42 arrast_automenu \$0 1;
#X obj 262 42 arrast_automenu \$0 2;
#X obj 513 42 arrast_automenu \$0 3;
#X restore 60 453 pd AUTOMATION_GUI;
#N canvas 392 220 372 234 MAP_CONTROL 0;
#N canvas 311 171 891 354 ACTIVE_MAP 0;
#X msg 52 168 1;
#X msg 256 168 2;
#X msg 460 168 3;
#X msg 664 168 4;
#X obj 52 246 t b;
#X obj 256 270 f 1;
#X text 193 17 ** MANAGE ACTIVE CHANNEL IN MAPS CONFIGURATION;
#X obj 52 134 r \$0-mapClick1_gui;
#X obj 256 134 r \$0-mapClick2_gui;
#X obj 460 134 r \$0-mapClick3_gui;
#X obj 664 134 r \$0-mapClick4_gui;
#X obj 52 212 r \$0-activeMapFlush;
#X obj 256 304 s \$0-activeSlot;
#X text 421 305 SEND TO MEMORY SYSTEM IN SLOTS;
#X obj 52 32 loadbang;
#X obj 52 61 del 20;
#X obj 52 90 s \$0-mapClick1_gui_set;
#X text 285 89 START WITH MAP 1;
#X connect 0 0 5 0;
#X connect 1 0 5 0;
#X connect 2 0 5 0;
#X connect 3 0 5 0;
#X connect 4 0 5 0;
#X connect 5 0 12 0;
#X connect 7 0 0 0;
#X connect 8 0 1 0;
#X connect 9 0 2 0;
#X connect 10 0 3 0;
#X connect 11 0 4 0;
#X connect 14 0 15 0;
#X connect 15 0 16 0;
#X restore 57 105 pd ACTIVE_MAP;
#N canvas 263 212 889 325 MAP_GUI_COLORS 0;
#X msg 45 223 color 13;
#X msg 249 223 color 15;
#X msg 453 223 color 19;
#X msg 657 223 color 16;
#X obj 45 57 loadbang;
#X msg 45 101 color 13 22;
#X msg 249 101 color 15 22;
#X msg 453 101 color 19 22;
#X msg 657 101 color 16 22;
#X text 231 16 ** COLOR MANAGEMENT ON MAP CONFIG WINDOW;
#X obj 45 267 s \$0-mapBgColor;
#X obj 45 135 s \$0-colorChannel1;
#X obj 249 135 s \$0-colorChannel2;
#X obj 453 135 s \$0-colorChannel3;
#X obj 657 135 s \$0-colorChannel4;
#X obj 45 189 r \$0-mapClick1_gui;
#X obj 249 189 r \$0-mapClick2_gui;
#X obj 453 189 r \$0-mapClick3_gui;
#X obj 657 189 r \$0-mapClick4_gui;
#X connect 0 0 10 0;
#X connect 1 0 10 0;
#X connect 2 0 10 0;
#X connect 3 0 10 0;
#X connect 4 0 5 0;
#X connect 4 0 6 0;
#X connect 4 0 7 0;
#X connect 4 0 8 0;
#X connect 5 0 11 0;
#X connect 6 0 12 0;
#X connect 7 0 13 0;
#X connect 8 0 14 0;
#X connect 15 0 0 0;
#X connect 16 0 1 0;
#X connect 17 0 2 0;
#X connect 18 0 3 0;
#X restore 57 71 pd MAP_GUI_COLORS;
#X text 34 23 ** MAPPING ENGINE MANAGEMENT;
#N canvas 418 192 514 246 CONTROL_MEMORY 0;
#X obj 44 86 arrast_mapslot \$0 1;
#N canvas 246 187 751 293 PRESET_MANAGER 0;
#X msg 279 189 label \$1;
#N canvas 287 120 791 552 OPEN_PRESET 0;
#X obj 139 182 openpanel;
#X obj 107 322 textfile;
#X msg 197 274 read \$1;
#X obj 37 240 until;
#X msg 37 274 bang;
#X msg 107 274 rewind;
#X obj 139 216 t b b s s;
#X obj 139 114 t b;
#X msg 139 148 symbol Presets/Map/;
#X obj 184 434 s \$0-activeMapFlush;
#X obj 217 400 s \$0-mapFlush;
#X text 267 15 ** LOAD TEXT FILE PRESET;
#X text 137 52 OPEN_PRESET BUTTON;
#X text 296 212 SEND ACTIVE PRESET TO DISPLAY;
#X text 201 323 READ TEXT FILE;
#X obj 139 80 r \$0-mapPresetOpen_gui;
#X obj 299 240 s \$0-activeMapPreset;
#X obj 184 356 t b b b;
#X text 362 402 SEND DATA FROM MAPS TO 2nd INSTANCE;
#X text 387 434 UPDATE INTERFACE WITH ACTIVE MAP;
#X obj 107 488 s \$0-slotFilePreset;
#X text 267 359 SWITCH OFF READING LOOP IN THE END OF THE FILE;
#X text 312 489 SEND DATA TO MEMORY SLOTS;
#X obj 426 109 route preset;
#X text 423 52 EXTERNAL CONTROL;
#X obj 426 80 r \$0-mapControl;
#X obj 426 138 route file;
#X obj 426 167 symbol;
#X connect 0 0 6 0;
#X connect 1 0 20 0;
#X connect 1 1 17 0;
#X connect 2 0 1 0;
#X connect 3 0 4 0;
#X connect 4 0 1 0;
#X connect 5 0 1 0;
#X connect 6 0 3 0;
#X connect 6 1 5 0;
#X connect 6 2 2 0;
#X connect 6 3 16 0;
#X connect 7 0 8 0;
#X connect 8 0 0 0;
#X connect 15 0 7 0;
#X connect 17 0 9 0;
#X connect 17 1 10 0;
#X connect 17 2 3 1;
#X connect 23 0 26 0;
#X connect 25 0 23 0;
#X connect 26 0 27 0;
#X connect 27 0 6 0;
#X restore 64 165 pd OPEN_PRESET;
#N canvas 146 116 1012 635 SAVE_PRESET 0;
#X obj 56 186 savepanel;
#X obj 222 582 textfile;
#X msg 334 558 clear;
#X obj 222 489 list prepend add;
#X obj 350 249 spigot 0;
#X msg 427 220 1;
#X obj 350 128 t b b;
#X obj 56 220 t b s;
#X obj 56 333 symbol;
#X msg 56 558 write \$1;
#X obj 56 118 t b;
#X obj 222 523 list trim;
#X msg 56 152 symbol Presets/Map/;
#X obj 457 152 symbol none;
#X obj 457 186 sel none;
#X obj 56 84 r \$0-mapPresetSaveAs_gui;
#X obj 350 84 r \$0-mapPresetSave_gui;
#X obj 564 118 r \$0-activeMapPreset;
#X obj 103 255 s \$0-activeMapPreset;
#X obj 113 299 r \$0-activeMapPreset;
#X obj 222 411 s \$0-slotFlush;
#X obj 222 455 r \$0-slotList;
#X text 369 454 RECEIVE DATA FROM SLOTS;
#X text 377 412 REQUEST DATA FROM SLOTS;
#X obj 56 367 t s b b;
#X text 315 584 WRITE TEXT FILE;
#X obj 56 444 t b s;
#X obj 56 512 symbol;
#X text 54 56 SAVE_AS BUTTON;
#X text 348 56 SAVE BUTTON;
#X obj 56 478 del 50;
#X text 185 18 ** REQUEST DATA FROM MAPS AND SAVE PRESET TO A TEXT
FILE;
#X obj 796 113 route preset;
#X text 793 56 EXTERNAL CONTROL;
#X obj 796 142 route save;
#X obj 796 84 r \$0-mapControl;
#X text 444 251 IF THERE IS NO ACTIVE PRESET, f 21;
#X text 128 475 WAIT FOR DATA, f 4;
#X connect 0 0 7 0;
#X connect 2 0 1 0;
#X connect 3 0 11 0;
#X connect 4 0 8 0;
#X connect 5 0 4 1;
#X connect 6 0 4 0;
#X connect 6 1 13 0;
#X connect 7 0 8 0;
#X connect 7 1 18 0;
#X connect 8 0 24 0;
#X connect 9 0 1 0;
#X connect 10 0 12 0;
#X connect 11 0 1 0;
#X connect 12 0 0 0;
#X connect 13 0 14 0;
#X connect 14 0 10 0;
#X connect 14 1 5 0;
#X connect 15 0 10 0;
#X connect 16 0 6 0;
#X connect 17 0 13 1;
#X connect 19 0 8 1;
#X connect 21 0 3 0;
#X connect 24 0 26 0;
#X connect 24 1 20 0;
#X connect 24 2 2 0;
#X connect 26 0 30 0;
#X connect 26 1 27 1;
#X connect 27 0 9 0;
#X connect 30 0 27 0;
#X connect 32 0 34 0;
#X connect 34 0 6 0;
#X connect 35 0 32 0;
#X restore 64 88 pd SAVE_PRESET;
#X obj 393 155 loadbang;
#X msg 393 189 label OPEN_PRESET;
#X text 169 18 ** MANAGE DATA PRESETS FROM THE MAP MODE;
#X text 277 59 MAPS PRESET DISPLAY;
#X obj 279 87 r \$0-activeMapPreset;
#X text 460 121 ADJUST NAME FOR DISPLAY;
#X text 62 60 SAVE PRESET;
#X text 62 137 LOAD PRESET;
#X obj 279 233 s \$0-mapPresetDisplay;
#X obj 279 121 arrast_namecut 35;
#X connect 0 0 11 0;
#X connect 3 0 4 0;
#X connect 4 0 11 0;
#X connect 7 0 12 0;
#X connect 12 0 0 0;
#X restore 268 137 pd PRESET_MANAGER;
#X text 42 58 MAP MEMORY SLOTS;
#X text 101 18 ** MANAGEMENT OF THE MAP MEMORY;
#N canvas 480 223 626 223 RESTART_MAP_SYSTEM 0;
#X text 30 21 ** RESEND DATA FROM MAPS WHEN 2nd INSTANCE IS RESTARTED
;
#X text 231 139 SEND DATA FROM MAPS TO 2nd INSTANCE;
#X text 242 171 UPDATE INTERFACE WITH ACTIVE MAP;
#X obj 86 137 s \$0-mapFlush;
#X obj 39 103 t b b;
#X obj 39 171 s \$0-activeMapFlush;
#X obj 39 69 r REFRESH_MAP;
#X connect 4 0 5 0;
#X connect 4 1 3 0;
#X connect 6 0 4 0;
#X restore 268 171 pd RESTART_MAP_SYSTEM;
#N canvas 391 185 519 228 EXTERNAL_CONTROL 0;
#X obj 48 72 r OSC_BUS;
#X text 43 19 ** EXTERNAL CONTROL ROUTER VIA OSC MESSAGES;
#X text 153 69 RECEIVE UNPACKED OSC FROM PARENT PATCH, f 29;
#X obj 48 126 route map;
#X text 153 127 FILTER MAP CONTROL;
#X obj 48 170 s \$0-mapControl;
#X text 213 171 SEND CONTROLS TO SLOTS;
#X connect 0 0 3 0;
#X connect 3 0 5 0;
#X restore 268 103 pd EXTERNAL_CONTROL;
#X obj 44 120 arrast_mapslot \$0 2;
#X obj 44 154 arrast_mapslot \$0 3;
#X obj 44 188 arrast_mapslot \$0 4;
#X restore 57 139 pd CONTROL_MEMORY;
#N canvas 201 76 968 651 MANUAL_EDIT_MAP 0;
#X floatatom 595 270 5 0 0 0 - - -, f 5;
#X obj 48 515 list prepend map1;
#X msg 48 369 0;
#X msg 98 369 1;
#X obj 48 481 list prepend edit;
#X obj 48 403 t f f;
#X msg 268 369 0;
#X msg 318 369 1;
#X obj 268 403 t f f;
#X msg 488 369 0;
#X msg 538 369 1;
#X obj 488 403 t f f;
#X msg 708 369 0;
#X msg 758 369 1;
#X obj 708 403 t f f;
#X obj 98 335 spigot;
#X obj 155 301 == 1;
#X obj 318 335 spigot;
#X obj 538 335 spigot;
#X obj 758 335 spigot;
#X obj 375 301 == 2;
#X obj 595 301 == 3;
#X obj 815 311 == 4;
#X obj 48 123 sel 0 1;
#X obj 98 187 t b b;
#X obj 48 187 t b;
#N canvas 378 243 786 293 LOAD_ACTIVE 0;
#X obj 47 171 f;
#X obj 217 171 f;
#X obj 387 171 f;
#X obj 557 171 f;
#X obj 47 93 sel 1 2 3 4;
#X msg 47 205 set \$1;
#X obj 47 59 r \$0-activeSlot;
#X obj 47 239 s \$0-mapEdit_gui_set;
#X obj 74 137 r \$0-editState1;
#X obj 244 137 r \$0-editState2;
#X obj 414 137 r \$0-editState3;
#X obj 584 137 r \$0-editState4;
#X text 83 18 ** LOAD MANUAL EDIT STATE OF THE ACTIVE MAP TO THE INTERFACE
;
#X connect 0 0 5 0;
#X connect 1 0 5 0;
#X connect 2 0 5 0;
#X connect 3 0 5 0;
#X connect 4 0 0 0;
#X connect 4 1 1 0;
#X connect 4 2 2 0;
#X connect 4 3 3 0;
#X connect 5 0 7 0;
#X connect 6 0 4 0;
#X connect 8 0 0 1;
#X connect 9 0 1 1;
#X connect 10 0 2 1;
#X connect 11 0 3 1;
#X restore 443 61 pd LOAD_ACTIVE;
#X obj 48 549 list trim;
#X obj 48 593 s MAP_BUS;
#X obj 268 481 list prepend edit;
#X obj 488 481 list prepend edit;
#X obj 708 481 list prepend edit;
#X obj 268 515 list prepend map2;
#X obj 488 515 list prepend map3;
#X obj 708 515 list prepend map4;
#X obj 48 59 r \$0-mapEdit_gui;
#X obj 595 242 r \$0-activeSlot;
#X obj 95 437 s \$0-editState1;
#X obj 315 437 s \$0-editState2;
#X obj 535 437 s \$0-editState3;
#X obj 755 437 s \$0-editState4;
#X text 152 594 SEND MANUAL EDIT STATE TO 2nd INSTANCE;
#X text 195 15 ** MANAGE MANUAL EDIT STATE FROM NODES IN EACH CHANNEL
;
#X text 222 60 INTERFACE BUTTON;
#X text 596 62 LOAD ACTIVE MAP STATE;
#X obj 278 105 r MODE_BUS;
#X obj 278 134 sel 0;
#X text 392 106 TURN OFF IN MIX MODE;
#X obj 325 221 s \$0-mapEdit_gui_set;
#X obj 278 163 t b b;
#X msg 325 192 0;
#X connect 0 0 16 0;
#X connect 0 0 20 0;
#X connect 0 0 21 0;
#X connect 0 0 22 0;
#X connect 1 0 27 0;
#X connect 2 0 5 0;
#X connect 3 0 5 0;
#X connect 4 0 1 0;
#X connect 5 0 4 0;
#X connect 5 1 37 0;
#X connect 6 0 8 0;
#X connect 7 0 8 0;
#X connect 8 0 29 0;
#X connect 8 1 38 0;
#X connect 9 0 11 0;
#X connect 10 0 11 0;
#X connect 11 0 30 0;
#X connect 11 1 39 0;
#X connect 12 0 14 0;
#X connect 13 0 14 0;
#X connect 14 0 31 0;
#X connect 14 1 40 0;
#X connect 15 0 3 0;
#X connect 16 0 15 1;
#X connect 17 0 7 0;
#X connect 18 0 10 0;
#X connect 19 0 13 0;
#X connect 20 0 17 1;
#X connect 21 0 18 1;
#X connect 22 0 19 1;
#X connect 23 0 25 0;
#X connect 23 1 24 0;
#X connect 24 0 15 0;
#X connect 24 0 17 0;
#X connect 24 0 18 0;
#X connect 24 0 19 0;
#X connect 24 1 12 0;
#X connect 24 1 9 0;
#X connect 24 1 6 0;
#X connect 24 1 2 0;
#X connect 25 0 2 0;
#X connect 25 0 6 0;
#X connect 25 0 9 0;
#X connect 25 0 12 0;
#X connect 27 0 28 0;
#X connect 29 0 32 0;
#X connect 30 0 33 0;
#X connect 31 0 34 0;
#X connect 32 0 27 0;
#X connect 33 0 27 0;
#X connect 34 0 27 0;
#X connect 35 0 23 0;
#X connect 36 0 0 0;
#X connect 45 0 46 0;
#X connect 46 0 49 0;
#X connect 49 0 25 0;
#X connect 49 1 50 0;
#X connect 50 0 48 0;
#X restore 57 173 pd MANUAL_EDIT_MAP;
#X restore 60 419 pd MAP_CONTROL;
#N canvas 356 178 612 233 AUTOMATION_CONTROL 0;
#N canvas 484 268 314 271 GUI_STATE 0;
#X obj 44 148 t b;
#X msg 44 179 vis 1;
#X obj 44 212 s pd-AUTOMATION_GUI;
#X text 42 27 ** THE AUTOMATION CONFIGURATION WINDOW IS CALLED BY THE
INTERFACE BUTTON, f 25;
#X obj 44 118 r \$0-autoConfig_gui;
#X connect 0 0 1 0;
#X connect 1 0 2 0;
#X connect 4 0 0 0;
#X restore 48 70 pd GUI_STATE;
#X text 145 24 ** AUTOMATION ENGINE MANAGEMENT;
#N canvas 51 80 1331 747 INDEX 0;
#X obj 945 755 moses;
#X obj 945 653 spigot;
#X obj 347 653 spigot;
#X obj 452 819 *;
#X obj 342 486 bng 15 250 50 0 empty empty empty 17 7 0 10 -262144
-1 -1;
#X obj 386 486 bng 15 250 50 0 empty empty empty 17 7 0 10 -262144
-1 -1;
#X text 361 482 +;
#X text 405 482 -;
#X text 506 386 RESOLUTION IN MSEC FOR RECORDING AND READING;
#N canvas 394 85 448 264 MAXIMUM 0;
#X obj 37 69 inlet;
#X obj 37 214 outlet;
#X obj 37 180 t f f;
#X text 172 104 RESET;
#X text 35 25 ** DETECT GREATEST NUMBER IN A STREAM;
#X obj 124 69 inlet RESET;
#X obj 37 138 max 0;
#X msg 124 103 0;
#X connect 0 0 6 0;
#X connect 2 0 1 0;
#X connect 2 1 6 1;
#X connect 5 0 7 0;
#X connect 6 0 2 0;
#X connect 7 0 6 1;
#X restore 347 692 pd MAXIMUM;
#X text 440 18 ** GLOBAL INDEX ENGINE FOR AUTOMATIONS;
#X obj 833 86 r \$0-autoRec_gui;
#X obj 552 86 r \$0-autoPlay_gui;
#X floatatom 270 539 5 0 0 0 - - -, f 5;
#X text 328 540 GLOBAL INDEX;
#X obj 452 848 / 1000;
#X text 451 936 TIMELINE SIZE IN SECONDS;
#X text 418 654 ONLY DURING THE RECORD;
#N canvas 465 296 746 275 COUNTER 0;
#X obj 150 160 f;
#X obj 150 130 t f f f;
#X obj 500 154 f;
#X obj 600 154 f;
#X obj 500 183 + 1;
#X obj 600 183 - 1;
#X obj 150 229 outlet FLOAT;
#X obj 35 77 loadbang;
#X obj 500 66 inlet UP;
#X obj 500 95 t b;
#X obj 600 95 t b;
#X obj 600 66 inlet DOWN;
#X obj 150 66 inlet SET_GET;
#X obj 150 95 route float bang;
#X msg 35 106 0;
#X obj 330 66 inlet SET_COLD;
#X obj 330 95 t f f f;
#X text 153 18 ** COUNTER WITH SET \, GET \, UP AND DOWN METHODS;
#X connect 0 0 6 0;
#X connect 1 0 0 0;
#X connect 1 1 2 1;
#X connect 1 2 3 1;
#X connect 2 0 4 0;
#X connect 3 0 5 0;
#X connect 4 0 1 0;
#X connect 5 0 1 0;
#X connect 7 0 14 0;
#X connect 8 0 9 0;
#X connect 9 0 2 0;
#X connect 10 0 3 0;
#X connect 11 0 10 0;
#X connect 12 0 13 0;
#X connect 13 0 1 0;
#X connect 13 1 0 0;
#X connect 14 0 1 0;
#X connect 15 0 16 0;
#X connect 16 0 0 1;
#X connect 16 1 2 1;
#X connect 16 2 3 1;
#X restore 270 509 pd COUNTER;
#X obj 461 240 r MASTER_FPS;
#X msg 461 327 1000 \$1;
#X obj 461 356 /;
#X obj 334 444 metro 41.6667;
#X text 593 241 RECEIVE GLOBAL FPS RATE;
#X obj 269 86 r \$0-autoRW_gui;
#X obj 1052 863 r \$0-autoLoop_gui;
#X obj 1025 892 f;
#X text 1007 756 ACTION WHEN IT REACHES THE END OF PLAYBACK;
#X msg 1025 950 0;
#X obj 1025 979 s \$0-autoPlay_gui_set;
#X text 1069 951 END OF PLAYBACK;
#X text 1237 864 LOOP STATE;
#X obj 1059 820 s \$0-autoRW_gui;
#X obj 1025 921 sel 0;
#X text 1224 820 RESTART INDEX;
#X obj 96 639 r \$0-autoClear_gui;
#X text 94 611 CLEAR AUTOMATION;
#X msg 146 707 0;
#X obj 669 813 s \$0-autoTimeline_gui_set;
#X msg 803 784 set \$1;
#X text 667 843 SEND INDEX TO TIMELINE;
#X obj 121 751 s \$0-autoRW_gui;
#X text 118 781 RESTART INDEX;
#X msg 669 784 label .\$1;
#X msg 349 149 0;
#X obj 803 755 / 0;
#X text 549 60 PLAY BUTTON OF THE INTERFACE;
#X obj 270 1107 s AUTOMATION_MASTER;
#X text 475 1107 SEND AUTOMATION PACKAGE TO ALL UNITS [arrast_automato]
;
#X obj 1031 374 *;
#X obj 1031 403 int;
#X obj 1031 335 r \$0-autoTimeline_gui;
#X text 1029 307 TIMELINE BROWSING;
#X obj 1031 443 spigot;
#X obj 1101 419 == 0;
#X obj 270 566 t f f f f f;
#X obj 1031 485 t f;
#X text 1073 375 DETERMINE CURSOR POSITION;
#X text 1151 415 IGNORE IT IF RECORDING OR REPRODUCING, f 25;
#X obj 803 590 spigot;
#X text 877 587 ONLY IF RECORDING OR REPRODUCING, f 20;
#X obj 29 513 r \$0-autoSetSize;
#X text 27 462 RECEIVE MEMORY SIZE WHEN OPENING A PRESET, f 24;
#X text 458 693 FINAL SIZE OF AUTOMATION;
#X obj 29 542 t b f b;
#X obj 269 115 t b b b;
#X obj 151 149 s AUTO_RW;
#X text 148 178 SYNCHRONIZE RW FROM VIDEOS, f 11;
#X obj 270 1048 pack f f;
#X text 365 1047 INDEX AND SIZE FOR RESCALING OF ARRAYS, f 28;
#X obj 619 149 s AUTOMATION_STATE;
#X text 616 179 SEND INDEX STATE TO [arrast_automato], f 19;
#X text 267 60 INTERFACE RESET BUTTON;
#X obj 1022 687 == 0;
#X obj 833 115 t f f f;
#X text 831 60 INTERFACE REC BUTTON;
#X obj 900 149 s AUTOMATION_REC;
#X text 899 179 ARM RECORDING IN [arrast_automato], f 17;
#N canvas 164 140 969 490 EXTERNAL_CONTROL 0;
#X obj 48 214 s \$0-autoRec_gui_set;
#X obj 268 214 s \$0-autoPlay_gui_set;
#X obj 498 214 s \$0-autoRW_gui_set;
#X obj 708 214 s \$0-autoLoop_gui_set;
#X obj 48 248 s \$0-autoTimeline_gui_set;
#X obj 318 248 s \$0-autoClear_gui_set;
#X obj 48 72 r OSC_BUS;
#X text 225 19 ** EXTERNAL CONTROL ROUTER VIA OSC MESSAGES;
#X text 153 69 RECEIVE UNPACKED OSC FROM PARENT PATCH;
#X obj 48 116 route automation;
#X text 223 117 FILTER AUTOMATION CONTROL;
#X text 543 160 ROUTE EACH CONTROL;
#X obj 48 160 route rec play rw loop timeline clear resolution;
#X obj 48 302 arrast_param \$0 autoResolution \$0-autoResolutionMemo
0 0 9;
#X obj 48 336 array define \$0-autoResolutionMemo 1;
#X text 421 336 MEMORY ARRAY OF THE AUTOMATION RESOLUTION;
#X obj 48 370 r \$0-autoSetSize;
#X obj 48 399 t b;
#X obj 48 428 s \$0-autoResolutionMemo-load;
#X text 91 400 LOAD INTERFACE WITH MEMORY WHEN AN AUTOMATION PRESET
IS OPEN, f 61;
#X connect 6 0 9 0;
#X connect 9 0 12 0;
#X connect 12 0 0 0;
#X connect 12 1 1 0;
#X connect 12 2 2 0;
#X connect 12 3 3 0;
#X connect 12 4 4 0;
#X connect 12 5 5 0;
#X connect 12 6 13 0;
#X connect 16 0 17 0;
#X connect 17 0 18 0;
#X restore 1093 86 pd EXTERNAL_CONTROL;
#X text 1091 60 EXTERNAL CONTROLS OF TRANSFER;
#X obj 552 115 t f f f;
#X text 1018 654 ONLY DURING PLAYBACK;
#X text 1075 688 WITH DISARMED REC;
#X obj 945 721 spigot 1;
#X msg 241 707 0;
#X obj 121 819 s \$0-autoRec_gui_set;
#X obj 121 849 s \$0-autoPlay_gui_set;
#X text 119 879 TURN OFF REC AND PLAY;
#X obj 96 917 s AUTOMATION_CLEAR;
#X obj 96 668 t b b b b b b;
#X text 93 947 CLEAR AUTOMATA;
#X msg 302 149 -1;
#X obj 347 765 + 1;
#X obj 992 786 t b b b;
#X obj 992 820 del 5;
#X msg 992 849 0;
#X obj 347 731 t f f f f;
#X obj 347 795 t f f f;
#X msg 194 707 -1;
#X obj 461 385 / 1;
#X msg 560 332 1;
#X text 379 1004 SIZE OF TIMELINE IN SAMPLES;
#X msg 600 332 2;
#X msg 640 332 4;
#X msg 680 332 8;
#X obj 560 361 t b f;
#X obj 560 303 sel 0 1 2 3;
#X obj 560 274 r \$0-autoResolution;
#X text 764 274 RECEIVE RESOLUTION;
#X msg 452 877 set \$1;
#X obj 452 906 s \$0-autoSecDisplay_gui_set;
#X obj 380 974 s \$0-autoSamplesDisplay_gui_set;
#X obj 334 395 t f f f f;
#X obj 461 414 t f f f;
#N canvas 398 233 675 429 SET_DURATION 0;
#X obj 43 114 r \$0-autoSecDisplay_gui;
#X obj 43 221 /;
#X obj 43 250 * 1000;
#X obj 43 279 int;
#X obj 120 158 == 0;
#X text 170 154 IGNORE IF RECORDING OR REPRODUCING, f 22;
#X obj 314 65 inlet RESOLUTION;
#X obj 120 65 inlet INDEX_STATE;
#X obj 43 368 outlet SAMPLES;
#X text 287 115 INPUT FROM INTERFACE;
#X text 94 18 ** SET TIMELINE LENGTH IN SECONDS FROM INTERFACE;
#X text 117 251 CONVERT IN NUMBER OF SAMPLES ACCORDING TO RESOLUTION
;
#X obj 43 308 - 1;
#X text 85 307 REMOVE 1 SAMPLE ADDED LATER IN THE CALCULATION OF LENGHTS
TO THE DISPLAYS, f 38;
#X obj 43 192 spigot 1;
#X connect 0 0 14 0;
#X connect 1 0 2 0;
#X connect 2 0 3 0;
#X connect 3 0 12 0;
#X connect 4 0 14 1;
#X connect 6 0 1 1;
#X connect 7 0 4 0;
#X connect 12 0 8 0;
#X connect 14 0 1 0;
#X restore 514 566 pd SET_DURATION;
#X text 512 518 SET TIMELINE LENGTH FROM INTERFACE, f 19;
#X connect 0 1 93 0;
#X connect 1 0 83 0;
#X connect 2 0 9 0;
#X connect 3 0 15 0;
#X connect 4 0 18 2;
#X connect 5 0 18 3;
#X connect 9 0 96 0;
#X connect 11 0 74 0;
#X connect 12 0 80 0;
#X connect 13 0 55 0;
#X connect 15 0 109 0;
#X connect 18 0 13 0;
#X connect 19 0 20 0;
#X connect 20 0 21 0;
#X connect 21 0 99 0;
#X connect 22 0 18 2;
#X connect 24 0 65 0;
#X connect 25 0 26 1;
#X connect 26 0 33 0;
#X connect 28 0 29 0;
#X connect 33 0 28 0;
#X connect 35 0 89 0;
#X connect 37 0 68 0;
#X connect 39 0 38 0;
#X connect 43 0 38 0;
#X connect 44 0 45 0;
#X connect 44 0 43 0;
#X connect 45 0 39 0;
#X connect 49 0 50 0;
#X connect 50 0 53 0;
#X connect 51 0 49 0;
#X connect 53 0 56 0;
#X connect 54 0 53 1;
#X connect 55 0 68 0;
#X connect 55 1 2 0;
#X connect 55 2 43 0;
#X connect 55 3 59 0;
#X connect 55 4 1 0;
#X connect 56 0 18 0;
#X connect 59 0 45 0;
#X connect 61 0 64 0;
#X connect 64 0 68 0;
#X connect 64 1 9 0;
#X connect 64 2 89 0;
#X connect 65 0 66 0;
#X connect 65 1 91 0;
#X connect 65 2 44 0;
#X connect 68 0 47 0;
#X connect 73 0 83 1;
#X connect 74 0 2 1;
#X connect 74 1 73 0;
#X connect 74 2 76 0;
#X connect 80 0 112 0;
#X connect 80 1 1 1;
#X connect 80 2 70 0;
#X connect 83 0 0 0;
#X connect 84 0 85 0;
#X connect 84 0 86 0;
#X connect 89 0 88 0;
#X connect 89 1 41 0;
#X connect 89 2 37 0;
#X connect 89 3 98 0;
#X connect 89 4 9 1;
#X connect 89 5 84 0;
#X connect 91 0 18 1;
#X connect 92 0 97 0;
#X connect 93 0 94 0;
#X connect 93 1 26 0;
#X connect 93 2 32 0;
#X connect 94 0 95 0;
#X connect 95 0 43 0;
#X connect 96 0 92 0;
#X connect 96 1 45 1;
#X connect 96 2 0 1;
#X connect 96 3 49 1;
#X connect 97 0 68 1;
#X connect 97 1 111 0;
#X connect 97 2 3 0;
#X connect 98 0 96 0;
#X connect 99 0 113 0;
#X connect 100 0 105 0;
#X connect 102 0 105 0;
#X connect 103 0 105 0;
#X connect 104 0 105 0;
#X connect 105 0 99 0;
#X connect 105 1 99 1;
#X connect 106 0 100 0;
#X connect 106 1 102 0;
#X connect 106 2 103 0;
#X connect 106 3 104 0;
#X connect 107 0 106 0;
#X connect 109 0 110 0;
#X connect 112 0 22 0;
#X connect 112 1 59 1;
#X connect 112 2 54 0;
#X connect 112 3 114 0;
#X connect 113 0 22 1;
#X connect 113 1 3 1;
#X connect 113 2 114 1;
#X connect 114 0 9 0;
#X restore 48 104 pd INDEX;
#X text 182 71 CONFIG WINDOW MANAGEMENT;
#X text 143 105 ENGINE OF THE GLOBAL INDEX FOR AUTOMATIONS;
#N canvas 32 102 1318 631 AUTOMATION_PRESET 0;
#X obj 54 200 savepanel;
#X obj 369 279 spigot 0;
#X msg 446 250 1;
#X obj 54 82 r \$0-autoPresetSaveAs_gui;
#X obj 369 82 r \$0-autoPresetSave_gui;
#X msg 54 166 symbol Presets/Automation/;
#X obj 87 267 s \$0-activeAutoPreset;
#X obj 553 152 r \$0-activeAutoPreset;
#X obj 446 184 symbol none;
#X obj 446 216 sel none;
#X msg 54 347 write \$1;
#X text 470 18 ** AUTOMATION PRESETS MANAGEMENT;
#X text 367 56 SAVE BUTTON;
#X obj 808 82 r \$0-autoPresetOpen_gui;
#X obj 808 198 openpanel;
#X text 806 56 OPEN_AUTOMATION BUTTON;
#X text 52 56 SAVE_AS BUTTON;
#X msg 808 160 symbol Presets/Automation;
#X msg 545 483 label \$1;
#X obj 795 468 loadbang;
#X obj 545 418 r \$0-activeAutoPreset;
#X msg 885 492 label OPEN_AUTOMATION;
#X text 543 390 DISPLAY NAME OF THE ACTIVE PRESET;
#X obj 885 357 r \$0-autoClear_gui;
#X text 883 329 CLEAN AUTOMATION;
#X msg 64 389 read \$1;
#X text 149 390 READ FILE;
#X obj 888 262 s \$0-activeAutoPreset;
#X obj 54 469 arrast_arraymemo;
#X text 229 574 SEND MEMORY SIZE TO INDEX ENGINE WHEN A PRESET IS OPEN
;
#X obj 54 573 s \$0-autoSetSize;
#N canvas 105 94 988 478 ARRAYMEMO_LIST 0;
#X obj 126 150 list prepend;
#X obj 126 182 list;
#X obj 89 216 list;
#X obj 336 150 list prepend;
#X obj 336 182 list;
#X obj 299 216 list;
#X obj 546 150 list prepend;
#X obj 546 182 list;
#X obj 509 216 list;
#X obj 756 150 list prepend;
#X obj 756 182 list;
#X obj 719 216 list;
#X obj 756 118 r CH1_AUTOMEMOLIST;
#X obj 546 118 r CH2_AUTOMEMOLIST;
#X obj 336 118 r CH3_AUTOMEMOLIST;
#X obj 126 118 r CH4_AUTOMEMOLIST;
#X text 262 87 RECEIVE NAMES OF MEMORY ARRAYS FROM [arrast_automato]
;
#X obj 89 248 list prepend;
#X obj 89 280 list;
#X obj 52 314 list;
#X obj 52 39 inlet;
#X text 179 16 ** RECEIVE AND ARRANGE A LIST OF MEMORY ARRAYS OF AUTOMATIONS
, f 62;
#X obj 52 428 outlet;
#X text 221 249 ACCUMULATE LISTS;
#X obj 52 76 t b b b b b b;
#X obj 169 292 loadbang;
#X obj 169 321 f \$0;
#X msg 169 350 \$1-autoResolutionMemo;
#X text 185 385 INCLUDE AUTOMATION RESOLUTION MEMORY;
#X obj 52 384 list prepend;
#X connect 0 0 1 0;
#X connect 1 0 0 1;
#X connect 1 0 2 1;
#X connect 2 0 17 0;
#X connect 3 0 4 0;
#X connect 4 0 3 1;
#X connect 4 0 5 1;
#X connect 5 0 17 0;
#X connect 6 0 7 0;
#X connect 7 0 6 1;
#X connect 7 0 8 1;
#X connect 8 0 17 0;
#X connect 9 0 10 0;
#X connect 10 0 9 1;
#X connect 10 0 11 1;
#X connect 11 0 17 0;
#X connect 12 0 9 0;
#X connect 13 0 6 0;
#X connect 14 0 3 0;
#X connect 15 0 0 0;
#X connect 17 0 18 0;
#X connect 18 0 17 1;
#X connect 18 0 19 1;
#X connect 19 0 29 0;
#X connect 20 0 24 0;
#X connect 24 0 19 0;
#X connect 24 1 2 0;
#X connect 24 2 5 0;
#X connect 24 3 8 0;
#X connect 24 4 11 0;
#X connect 24 5 17 1;
#X connect 25 0 26 0;
#X connect 26 0 27 0;
#X connect 27 0 29 1;
#X connect 29 0 22 0;
#X restore 211 440 pd ARRAYMEMO_LIST;
#X text 226 470 MEMORY MANAGER;
#X obj 54 234 t s s b;
#X obj 54 313 symbol;
#X msg 932 424 symbol none;
#X obj 885 390 t b b;
#X obj 54 538 change;
#X obj 54 126 t b b;
#X obj 369 126 t b b b;
#X msg 136 514 set 0;
#X obj 545 516 s \$0-autoPresetDisplay;
#X obj 808 126 t b;
#X obj 808 228 t s s b s b;
#X obj 1102 82 r OSC_BUS;
#X obj 1102 140 route preset;
#X obj 1175 204 symbol;
#X text 1099 54 EXTERNAL CONTROL;
#X obj 1102 111 route automation;
#X obj 1102 169 route save file;
#X text 463 279 IF THERE IS NO ACTIVE SLOT;
#X obj 932 458 s \$0-activeAutoPreset;
#X obj 545 451 arrast_namecut 21;
#X text 149 348 WRITE FILE;
#X connect 0 0 33 0;
#X connect 1 0 34 0;
#X connect 2 0 1 1;
#X connect 3 0 38 0;
#X connect 4 0 39 0;
#X connect 5 0 0 0;
#X connect 7 0 8 1;
#X connect 8 0 9 0;
#X connect 9 0 38 0;
#X connect 9 1 2 0;
#X connect 10 0 28 0;
#X connect 13 0 42 0;
#X connect 14 0 43 0;
#X connect 17 0 14 0;
#X connect 18 0 41 0;
#X connect 19 0 21 0;
#X connect 20 0 52 0;
#X connect 21 0 41 0;
#X connect 23 0 36 0;
#X connect 25 0 28 0;
#X connect 28 0 37 0;
#X connect 31 0 28 1;
#X connect 33 0 34 0;
#X connect 33 1 6 0;
#X connect 33 2 31 0;
#X connect 34 0 10 0;
#X connect 35 0 51 0;
#X connect 36 0 21 0;
#X connect 36 1 35 0;
#X connect 37 0 30 0;
#X connect 38 0 5 0;
#X connect 38 1 40 0;
#X connect 39 0 1 0;
#X connect 39 1 8 0;
#X connect 39 2 40 0;
#X connect 40 0 37 0;
#X connect 42 0 17 0;
#X connect 43 0 34 1;
#X connect 43 1 25 0;
#X connect 43 2 31 0;
#X connect 43 3 27 0;
#X connect 43 4 40 0;
#X connect 44 0 48 0;
#X connect 45 0 49 0;
#X connect 46 0 43 0;
#X connect 48 0 45 0;
#X connect 49 0 39 0;
#X connect 49 1 46 0;
#X connect 52 0 18 0;
#X restore 48 138 pd AUTOMATION_PRESET;
#X text 262 139 AUTOMATION PRESETS MANAGEMENT;
#X text 240 172 MAIN INTERFACE STATE SELECTORS;
#N canvas 144 230 1074 190 STATE_SELECTORS 0;
#X obj 36 56 loadbang;
#X obj 36 134 s \$0-autoSetAll1_gui_set;
#X obj 290 134 s \$0-autoSetAll2_gui_set;
#X obj 544 134 s \$0-autoSetAll3_gui_set;
#X obj 798 134 s \$0-autoSetAll4_gui_set;
#X text 92 18 ** START OF COLORS AND VALUES FOR SELECTORS FOR EACH
CHANNEL'S AUTOMATION STATE, f 87;
#X msg 36 100 color 13 \, 0;
#X msg 290 100 color 15 \, 0;
#X msg 544 100 color 19 \, 0;
#X msg 798 100 color 16 \, 0;
#X connect 0 0 6 0;
#X connect 0 0 7 0;
#X connect 0 0 8 0;
#X connect 0 0 9 0;
#X connect 6 0 1 0;
#X connect 7 0 2 0;
#X connect 8 0 3 0;
#X connect 9 0 4 0;
#X restore 48 172 pd STATE_SELECTORS;
#X restore 60 487 pd AUTOMATION_CONTROL;
#N canvas 505 160 660 408 CAMERA_IN 0;
#X msg 49 107 1;
#X msg 99 107 0;
#X obj 49 42 loadbang;
#X obj 49 181 gemhead 10;
#X obj 49 308 pix_video;
#X obj 49 144 tgl 25 0 empty empty empty 17 7 0 10 -262144 -1 -1 1
1;
#X msg 76 229 dimen 640 480;
#X obj 76 264 t a;
#X msg 227 229 colorspace RGBA;
#X obj 49 71 t b b b b;
#X text 193 21 ** RENDER CAMERA IN A BUFFER TO BE SHARED AMONG 4 CHANNELS
AND BETWEEN BOTH INSTANCES, f 35;
#X obj 398 159 r CAMERA_DEVICE;
#X text 395 111 RECEIVE DEVICE FROM GEMWIN WINDOW, f 19;
#X msg 398 229 device \$1;
#X obj 398 194 f 0;
#X text 374 344 SHARED BUFFER;
#X obj 49 344 pix_share_write 10 640 480 RGBA;
#X connect 0 0 5 0;
#X connect 1 0 5 0;
#X connect 2 0 9 0;
#X connect 3 0 4 0;
#X connect 4 0 16 0;
#X connect 5 0 3 0;
#X connect 6 0 7 0;
#X connect 7 0 4 0;
#X connect 8 0 7 0;
#X connect 9 0 0 0;
#X connect 9 1 6 0;
#X connect 9 2 8 0;
#X connect 9 3 14 0;
#X connect 11 0 14 0;
#X connect 13 0 7 0;
#X connect 14 0 13 0;
#X restore 60 249 pd CAMERA_IN;
#N canvas 343 175 877 644 MAIN_GUI 1;
#X obj 2 1 cnv 15 873 641 empty empty empty 20 12 0 14 -66577 -66577
0;
#X obj 12 11 cnv 15 205 621 empty empty empty 20 12 0 14 -1 -66577
0;
#X obj 228 11 cnv 15 205 621 empty empty empty 20 12 0 14 -1 -66577
0;
#X obj 444 11 cnv 15 205 621 empty empty empty 20 12 0 14 -1 -66577
0;
#X obj 660 11 cnv 15 205 621 empty empty empty 20 12 0 14 -1 -66577
0;
#X obj 670 232 arrast_iint 4;
#X obj 670 323 arrast_cint 4;
#X obj 670 396 arrast_transf 4;
#X obj 670 524 arrast_fx 4;
#X obj 670 21 arrast_vint 4;
#X obj 22 21 arrast_vint 1;
#X obj 238 21 arrast_vint 2;
#X obj 454 21 arrast_vint 3;
#X obj 22 232 arrast_iint 1;
#X obj 238 232 arrast_iint 2;
#X obj 454 232 arrast_iint 3;
#X obj 22 323 arrast_cint 1;
#X obj 238 323 arrast_cint 2;
#X obj 454 323 arrast_cint 3;
#X obj 22 397 arrast_transf 1;
#X obj 238 396 arrast_transf 2;
#X obj 454 396 arrast_transf 3;
#X obj 22 525 arrast_fx 1;
#X obj 240 525 arrast_fx 2;
#X obj 454 524 arrast_fx 3;
#X restore 60 317 pd MAIN_GUI;
#N canvas 309 150 584 444 OSC_INLET 0;
#X obj 288 310 oscparse;
#X obj 43 388 s OSC_BUS;
#X obj 43 334 list trim;
#X obj 43 146 r ARRAST_VJ;
#N canvas 65 70 1201 769 OSC_TO_LIST 0;
#X obj 362 162 list fromsymbol;
#X obj 582 238 list split 1;
#X obj 640 269 list;
#X obj 609 495 f;
#X obj 651 495 + 1;
#X obj 362 593 list split;
#X obj 459 238 list length;
#X obj 459 552 -;
#X obj 582 308 sel 47;
#X obj 609 423 spigot;
#X msg 711 390 0;
#X msg 666 390 1;
#X obj 582 342 t b b;
#X obj 582 528 f;
#X obj 649 342 t b;
#X text 661 307 LOOKS FOR CHARACTER 47 "/";
#X text 698 496 COUNT HOW MANY CHARACTERS UNTIL THE FIRST "/";
#X text 719 238 UNPACK LIST;
#X text 505 553 SUBTRACT FROM THE TOTAL OF CHARACTERS TO DEFINE THE
CUTOFF POINT IN THE PATH, f 66;
#X text 477 594 DETACH SET O CHARACTER UNTIL THE FIRST "/" FROM THE
ENTIRE PATH, f 64;
#X text 686 422 END COUNT WHEN THE FIRST "/" IS FOUND FROM END TO THE
BEGINNING, f 42;
#X text 527 162 CONVERT TO ASCII CHARACTERS LIST;
#X obj 410 627 list tosymbol;
#X msg 636 463 1;
#X obj 42 617 t l l;
#X obj 89 651 list length;
#X obj 42 719 list split;
#X obj 89 685 - 1;
#X obj 480 705 list;
#X obj 329 734 list;
#X obj 410 671 list append;
#X obj 329 128 t b s b;
#X obj 362 201 t l l l b b;
#X obj 329 94 symbol;
#X obj 329 60 inlet SYMBOL;
#X obj 42 753 route bang;
#X text 154 756 DETECT END;
#X text 156 706 REMOVE THE LAST CHARACTER, f 15;
#X text 40 589 RETURN LIST UNTIL THE END;
#X msg 74 70 symbol /test/foo/bar/;
#X obj 329 809 outlet LIST;
#X text 555 628 CONVERT LIST OF ASCII CHARACTERS TO SYMBOL;
#X text 382 735 ACCUMULATE LIST WITH EACH SYMBOL APART;
#X text 161 17 ** CONVERT SYMBOL TO OSC FORMAT IN AN ELEMENT LIST (symbol
/foo/bar -> list foo bar), f 84;
#X connect 0 0 32 0;
#X connect 1 0 8 0;
#X connect 1 1 2 0;
#X connect 2 0 1 0;
#X connect 3 0 4 0;
#X connect 3 0 13 1;
#X connect 4 0 3 1;
#X connect 5 0 24 0;
#X connect 5 1 22 0;
#X connect 6 0 7 0;
#X connect 7 0 5 1;
#X connect 8 0 12 0;
#X connect 8 1 14 0;
#X connect 9 0 3 0;
#X connect 10 0 9 1;
#X connect 11 0 9 1;
#X connect 12 0 13 0;
#X connect 12 1 10 0;
#X connect 13 0 7 1;
#X connect 14 0 9 0;
#X connect 22 0 30 0;
#X connect 23 0 3 1;
#X connect 24 0 26 0;
#X connect 24 1 25 0;
#X connect 25 0 27 0;
#X connect 26 0 35 0;
#X connect 27 0 26 1;
#X connect 28 0 30 1;
#X connect 29 0 40 0;
#X connect 30 0 28 0;
#X connect 30 0 29 1;
#X connect 31 0 29 0;
#X connect 31 1 0 0;
#X connect 31 2 30 1;
#X connect 32 0 5 0;
#X connect 32 1 6 0;
#X connect 32 2 1 0;
#X connect 32 3 23 0;
#X connect 32 4 11 0;
#X connect 33 0 31 0;
#X connect 34 0 33 0;
#X connect 35 1 32 0;
#X connect 39 0 33 0;
#X restore 43 236 pd OSC_TO_LIST;
#X obj 43 270 list append;
#X text 40 68 RECEIVE MESSAGES IN OSC STANDARD FROM ANY PATCH IN THE
SAME INSTANCE OF [ARRAST_VJ] - e. g. /channel1/video/play 1, f 47
;
#X text 286 150 LISTEN TO OSC AT PORT 7777 AND UNPACK MESSAGES, f
26;
#X text 130 21 ** OSC STANDARD CONTROL INPUT;
#X text 147 389 SEND CONTROLS TO ALL UNITS;
#X msg 288 242 listen 7777;
#X obj 288 276 netreceive -u -b;
#X obj 288 208 loadbang;
#X obj 43 202 list split 1;
#X connect 0 0 2 0;
#X connect 2 0 1 0;
#X connect 3 0 13 0;
#X connect 4 0 5 0;
#X connect 5 0 2 0;
#X connect 10 0 11 0;
#X connect 11 0 0 0;
#X connect 12 0 10 0;
#X connect 13 0 4 0;
#X connect 13 1 5 1;
#X restore 60 181 pd OSC_INLET;
#N canvas 29 98 1335 576 AUDIO_OUTPUT 0;
#X obj 532 859 catch~ 1-L;
#X obj 646 859 catch~ 1-R;
#X obj 179 965 dac~ 1 2;
#X obj 780 859 catch~ 2-L;
#X obj 894 859 catch~ 2-R;
#X obj 1028 859 catch~ 3-L;
#X obj 1142 859 catch~ 3-R;
#X obj 1276 859 catch~ 4-L;
#X obj 1390 859 catch~ 4-R;
#X obj 532 1083 writesf~ 2;
#X obj 780 1117 writesf~ 2;
#X obj 48 1083 writesf~ 2;
#X obj 1028 1151 writesf~ 2;
#X obj 1276 1185 writesf~ 2;
#X obj 532 965 dac~ 3 4;
#X obj 780 965 dac~ 5 6;
#X obj 1028 965 dac~ 7 8;
#X obj 1276 965 dac~ 9 10;
#X text 595 19 ** AUDIO OUTPUT AND RECORDING SYSTEM;
#X obj 48 773 t b b;
#X obj 95 807 spigot;
#X obj 95 836 t b b b b;
#X msg 48 1039 open -bytes 3 Export/AUDIO_MIX.wav \, start;
#X msg 532 1039 open -bytes 3 Export/AUDIO_1.wav \, start;
#X msg 780 1073 open -bytes 3 Export/AUDIO_2.wav \, start;
#X msg 1028 1107 open -bytes 3 Export/AUDIO_3.wav \, start;
#X msg 1276 1141 open -bytes 3 Export/AUDIO_4.wav \, start;
#X obj 152 773 tgl 30 0 empty empty empty 17 7 0 10 -262144 -1 -1 1
1;
#X msg 242 659 stop;
#X obj 242 773 t a a;
#X obj 289 807 spigot;
#X obj 289 836 t a a a a;
#X msg 48 659 bang;
#X obj 121 327 s \$0-autoRW_gui_set;
#X text 326 327 SYNCHRONIZE REPRODUCTION;
#X msg 48 59 bang;
#X obj 209 445 sel 0;
#X obj 235 253 s \$0-autoLoop_gui_set;
#X text 460 254 TURN OFF LOOP;
#X msg 235 219 0;
#X obj 235 283 s \$0-autoRec_gui_set;
#X text 450 284 TURN OFF REC;
#X obj 71 361 s \$0-autoPlay_gui_set;
#X text 296 361 START PLAYBACK;
#X msg 71 327 1;
#X msg 619 219 2;
#X text 663 221 ALL CHANNELS IN PLAY MODE;
#X obj 948 253 s OSC_BUS;
#X text 945 191 TURN OFF OUTPUT WINDOW AND PREVIEW;
#X msg 948 219 output master 0 \, output preview 0;
#X text 530 831 AUDIO OUTPUTS PER CHANNEL;
#X text 75 884 AUDIO MIX;
#X text 163 1083 AUDIO RECORDERS;
#X text 101 660 START;
#X text 297 660 END;
#X text 102 60 EXPORT AUDIO;
#X obj 105 132 > 0;
#X obj 48 161 spigot;
#X text 429 103 TIMELINE SIZE IN FRAMES;
#X text 147 133 IT WORKS ONLY IF THERE IS SOMETHING RECORDED IN THE
TIMELINE;
#X text 1051 254 USES OSC SYSTEM;
#N canvas 5 54 397 223 GATE~ 0;
#X obj 43 55 inlet~;
#X obj 43 138 *~;
#X obj 43 167 outlet~;
#X obj 143 55 inlet~;
#X obj 143 138 *~;
#X obj 143 167 outlet~;
#X obj 253 55 inlet;
#X obj 253 84 pack 0 20;
#X obj 253 113 line~;
#X text 48 12 ** SIMPLE AUDIO GATE;
#X connect 0 0 1 0;
#X connect 1 0 2 0;
#X connect 3 0 4 0;
#X connect 4 0 5 0;
#X connect 6 0 7 0;
#X connect 7 0 8 0;
#X connect 8 0 4 1;
#X connect 8 0 1 1;
#X restore 532 921 pd GATE~;
#N canvas 5 54 397 223 GATE~ 0;
#X obj 43 55 inlet~;
#X obj 43 138 *~;
#X obj 43 167 outlet~;
#X obj 143 55 inlet~;
#X obj 143 138 *~;
#X obj 143 167 outlet~;
#X obj 253 55 inlet;
#X obj 253 84 pack 0 20;
#X obj 253 113 line~;
#X text 48 12 ** SIMPLE AUDIO GATE;
#X connect 0 0 1 0;
#X connect 1 0 2 0;
#X connect 3 0 4 0;
#X connect 4 0 5 0;
#X connect 6 0 7 0;
#X connect 7 0 8 0;
#X connect 8 0 4 1;
#X connect 8 0 1 1;
#X restore 780 921 pd GATE~;
#N canvas 5 54 397 223 GATE~ 0;
#X obj 43 55 inlet~;
#X obj 43 138 *~;
#X obj 43 167 outlet~;
#X obj 143 55 inlet~;
#X obj 143 138 *~;
#X obj 143 167 outlet~;
#X obj 253 55 inlet;
#X obj 253 84 pack 0 20;
#X obj 253 113 line~;
#X text 48 12 ** SIMPLE AUDIO GATE;
#X connect 0 0 1 0;
#X connect 1 0 2 0;
#X connect 3 0 4 0;
#X connect 4 0 5 0;
#X connect 6 0 7 0;
#X connect 7 0 8 0;
#X connect 8 0 4 1;
#X connect 8 0 1 1;
#X restore 1028 921 pd GATE~;
#N canvas 5 54 397 223 GATE~ 0;
#X obj 43 55 inlet~;
#X obj 43 138 *~;
#X obj 43 167 outlet~;
#X obj 143 55 inlet~;
#X obj 143 138 *~;
#X obj 143 167 outlet~;
#X obj 253 55 inlet;
#X obj 253 84 pack 0 20;
#X obj 253 113 line~;
#X text 48 12 ** SIMPLE AUDIO GATE;
#X connect 0 0 1 0;
#X connect 1 0 2 0;
#X connect 3 0 4 0;
#X connect 4 0 5 0;
#X connect 6 0 7 0;
#X connect 7 0 8 0;
#X connect 8 0 4 1;
#X connect 8 0 1 1;
#X restore 1276 921 pd GATE~;
#N canvas 108 187 397 223 GATE~ 0;
#X obj 43 55 inlet~;
#X obj 43 138 *~;
#X obj 43 167 outlet~;
#X obj 143 55 inlet~;
#X obj 143 138 *~;
#X obj 143 167 outlet~;
#X obj 253 55 inlet;
#X obj 253 84 pack 0 20;
#X obj 253 113 line~;
#X text 48 12 ** SIMPLE AUDIO GATE;
#X connect 0 0 1 0;
#X connect 1 0 2 0;
#X connect 3 0 4 0;
#X connect 4 0 5 0;
#X connect 6 0 7 0;
#X connect 7 0 8 0;
#X connect 8 0 4 1;
#X connect 8 0 1 1;
#X restore 179 921 pd GATE~;
#X text 272 966 OUTPUTS TO SYSTEM;
#X obj 468 897 t f;
#X obj 468 705 loadbang;
#X msg 468 739 1;
#X text 622 774 ON/OFF AUDIO OUTPUT;
#X obj 468 773 r AUDIO_OUTPUT;
#X obj 468 807 f;
#X obj 152 739 r \$0-exportSeparateAudio_gui;
#X text 150 711 EXPORT SPLIT AUDIO;
#X obj 209 411 r \$0-autoPlay_gui;
#X obj 209 511 spigot;
#X msg 286 487 1;
#X msg 332 487 0;
#X text 281 514 ONLY DURING EXPORT;
#X text 274 447 END OF PLAYBACK;
#X obj 209 540 t b b b;
#X obj 619 670 s OSC_BUS;
#X text 722 671 USE OSC SYSTEM;
#X text 616 608 TURN ON OUTPUT AND PREVIEW WINDOW;
#X text 262 26 INTERFACE BUTTON;
#X obj 48 25 r \$0-exportAudio_gui;
#X obj 619 288 s \$0-autoSetAll1_gui_set;
#X obj 619 322 s \$0-autoSetAll2_gui_set;
#X obj 619 356 s \$0-autoSetAll3_gui_set;
#X obj 619 390 s \$0-autoSetAll4_gui_set;
#X obj 619 253 t f f f f;
#X text 302 579 WAIT UNTIL AUDIO IS FINISHED;
#X obj 948 395 s pd-MAP_GUI;
#X obj 948 331 s pd-MAIN_GUI;
#X text 945 361 CLOSE CONTENT WINDOW;
#X text 945 425 CLOSE WINDOW OF MAPS;
#X msg 948 297 vis 0;
#X obj 48 195 t b b b b b b b b;
#X obj 209 612 t b b;
#X obj 996 636 s REFRESH_MODE;
#X text 994 608 REOPEN MAIN AND MAP WINDOW;
#X obj 179 883 *~ 0.6;
#X obj 256 883 *~ 0.6;
#X msg 619 636 output preview 1 \, output master 1;
#X obj 105 103 r \$0-autoSamplesDisplay_gui_set;
#X obj 209 578 del 1000;
#X connect 0 0 61 0;
#X connect 0 0 102 0;
#X connect 1 0 61 1;
#X connect 1 0 103 0;
#X connect 3 0 62 0;
#X connect 3 0 102 0;
#X connect 4 0 62 1;
#X connect 4 0 103 0;
#X connect 5 0 63 0;
#X connect 5 0 102 0;
#X connect 6 0 63 1;
#X connect 6 0 103 0;
#X connect 7 0 64 0;
#X connect 7 0 102 0;
#X connect 8 0 64 1;
#X connect 8 0 103 0;
#X connect 19 0 22 0;
#X connect 19 1 20 0;
#X connect 20 0 21 0;
#X connect 21 0 23 0;
#X connect 21 1 24 0;
#X connect 21 2 25 0;
#X connect 21 3 26 0;
#X connect 22 0 11 0;
#X connect 23 0 9 0;
#X connect 24 0 10 0;
#X connect 25 0 12 0;
#X connect 26 0 13 0;
#X connect 27 0 20 1;
#X connect 27 0 30 1;
#X connect 28 0 29 0;
#X connect 29 0 11 0;
#X connect 29 1 30 0;
#X connect 30 0 31 0;
#X connect 31 0 9 0;
#X connect 31 1 10 0;
#X connect 31 2 12 0;
#X connect 31 3 13 0;
#X connect 32 0 19 0;
#X connect 35 0 57 0;
#X connect 36 0 76 0;
#X connect 39 0 37 0;
#X connect 39 0 40 0;
#X connect 44 0 42 0;
#X connect 45 0 91 0;
#X connect 49 0 47 0;
#X connect 56 0 57 1;
#X connect 57 0 98 0;
#X connect 61 0 14 0;
#X connect 61 0 9 0;
#X connect 61 1 14 1;
#X connect 61 1 9 1;
#X connect 62 0 15 0;
#X connect 62 0 10 0;
#X connect 62 1 15 1;
#X connect 62 1 10 1;
#X connect 63 0 16 0;
#X connect 63 0 12 0;
#X connect 63 1 16 1;
#X connect 63 1 12 1;
#X connect 64 0 17 0;
#X connect 64 0 13 0;
#X connect 64 1 17 1;
#X connect 64 1 13 1;
#X connect 65 0 11 0;
#X connect 65 0 2 0;
#X connect 65 1 11 1;
#X connect 65 1 2 1;
#X connect 67 0 65 2;
#X connect 67 0 61 2;
#X connect 67 0 62 2;
#X connect 67 0 63 2;
#X connect 67 0 64 2;
#X connect 68 0 69 0;
#X connect 69 0 72 0;
#X connect 71 0 72 0;
#X connect 72 0 67 0;
#X connect 73 0 27 0;
#X connect 75 0 36 0;
#X connect 76 0 81 0;
#X connect 77 0 76 1;
#X connect 78 0 76 1;
#X connect 81 0 106 0;
#X connect 81 1 28 0;
#X connect 81 2 78 0;
#X connect 86 0 35 0;
#X connect 91 0 87 0;
#X connect 91 1 88 0;
#X connect 91 2 89 0;
#X connect 91 3 90 0;
#X connect 97 0 94 0;
#X connect 97 0 93 0;
#X connect 98 0 32 0;
#X connect 98 1 44 0;
#X connect 98 2 33 0;
#X connect 98 3 39 0;
#X connect 98 4 45 0;
#X connect 98 5 97 0;
#X connect 98 6 49 0;
#X connect 98 7 77 0;
#X connect 99 0 104 0;
#X connect 99 1 100 0;
#X connect 102 0 65 0;
#X connect 103 0 65 1;
#X connect 104 0 82 0;
#X connect 105 0 56 0;
#X connect 106 0 99 0;
#X restore 60 589 pd AUDIO_OUTPUT;
#N canvas 347 206 544 202 EXPORT_CONTROL 0;
#N canvas 236 272 322 271 GUI_STATE 0;
#X obj 44 148 t b;
#X msg 44 179 vis 1;
#X obj 44 118 r \$0-autoExport_gui;
#X obj 44 212 s pd-EXPORT_GUI;
#X text 42 27 ** EXPORT CONFIG WINDOW CALLED FROM INTERFACE BUTTON
, f 25;
#X connect 0 0 1 0;
#X connect 1 0 3 0;
#X connect 2 0 0 0;
#X restore 48 70 pd GUI_STATE;
#X text 35 24 ** MANAGEMENT OF AUDIO AND VIDEO EXPORT ENGINE;
#X text 182 71 EXPORT WINDOW MANAGEMENT;
#N canvas 52 80 1312 683 EXPORT_VIDEO 0;
#X obj 131 443 s \$0-autoRW_gui_set;
#X text 336 443 SYNCHRONIZES PLAYBACK;
#X msg 48 59 bang;
#X obj 131 375 s \$0-autoLoop_gui_set;
#X text 356 376 TURN OFF LOOP;
#X msg 131 341 0;
#X obj 131 409 s \$0-autoRec_gui_set;
#X text 346 410 TURN OFF REC;
#X obj 71 487 s \$0-autoPlay_gui_set;
#X text 296 487 START PLAYBACK;
#X msg 71 453 1;
#X obj 595 395 s \$0-autoSetAll1_gui_set;
#X obj 595 429 s \$0-autoSetAll2_gui_set;
#X obj 595 463 s \$0-autoSetAll3_gui_set;
#X obj 595 497 s \$0-autoSetAll4_gui_set;
#X msg 595 331 2;
#X text 639 333 ALL CHANNELS IN PLAY MODE;
#X obj 105 132 > 0;
#X obj 48 161 spigot;
#X text 147 133 ORKS ONLY IF THERE IS SOMETHING RECORDED IN THE TIMELINE
;
#X text 535 19 ** VIDEO RECORDING SYSTEM;
#X text 102 60 EXPORT VIDEO;
#X msg 953 497 0;
#X obj 953 526 s AUDIO_OUTPUT;
#X text 950 556 TURN OFF AUDIO OUTPUT;
#X obj 953 846 s AUDIO_OUTPUT;
#X msg 953 817 1;
#X text 997 817 TURN ON AUDIO OUTPUT;
#X obj 48 846 s EXPORT_BUS;
#X obj 489 631 r \$0-exportRenderSpeed_gui;
#X obj 136 631 r \$0-exportRenderQuality_gui;
#X obj 462 733 f;
#X obj 489 665 sel 0 1 2 3 4;
#X msg 529 699 4;
#X obj 953 607 r \$0-autoPlay_gui;
#X obj 953 705 spigot;
#X msg 1030 681 1;
#X msg 1076 681 0;
#X text 1025 708 ONLY DURING EXPORT;
#X obj 953 641 sel 0;
#X text 1017 642 END OF PLAYBACK;
#X obj 136 665 sel 0 1 2 3 4;
#X msg 136 699 20;
#X msg 176 699 40;
#X msg 216 699 60;
#X msg 256 699 80;
#X msg 296 699 100;
#X text 506 735 REDUCE FPS;
#X obj 136 764 f;
#X msg 48 763 1;
#X obj 48 636 t b b;
#X text 134 603 FRAME QUALITY;
#X text 487 603 RENDER SPEED;
#X obj 718 671 r MASTER_FPS;
#X obj 845 705 == 0;
#X obj 691 788 f;
#X text 733 789 STORE CURRENT FPS;
#X obj 718 754 spigot 1;
#X msg 92 763 0;
#X obj 48 25 r \$0-exportVideo_gui;
#X text 262 26 INTERFACE BUTTON;
#X obj 462 846 s OSC_BUS;
#X text 565 847 USE OSC SYSTEM;
#X msg 462 812 output fps \$1;
#X obj 718 705 route frame;
#X obj 595 360 t f f f f;
#X msg 489 699 1;
#X msg 569 699 8;
#X msg 609 699 12;
#X msg 649 699 16;
#X obj 48 797 pack f f s;
#X text 164 798 REC / QUALITY / FILE;
#X obj 48 229 savepanel;
#X msg 48 195 symbol Export/;
#X obj 48 263 t b s;
#X text 152 230 AT FIRST CHOOSE FILENAME AND THEN FORMAT PATH;
#X text 233 307 ARM AND TRIGGER RECORDING;
#X obj 953 429 s pd-MAP_GUI;
#X obj 953 365 s pd-MAIN_GUI;
#X text 950 395 CLOSE CONTENT WINDOW;
#X text 950 459 CLOSE MAPS WINDOW;
#X msg 953 331 vis 0;
#X obj 48 307 t b b b b b b b b;
#X obj 953 739 t b b b b b;
#X obj 979 773 s REFRESH_MODE;
#X text 1132 759 REOPENS MAINA AND MAP WINDOWS, f 13;
#X text 428 103 TIMELINE SIZE IN SAMPLES;
#X obj 105 103 r \$0-autoSamplesDisplay_gui_set;
#X connect 2 0 18 0;
#X connect 5 0 3 0;
#X connect 5 0 6 0;
#X connect 10 0 8 0;
#X connect 15 0 65 0;
#X connect 17 0 18 1;
#X connect 18 0 73 0;
#X connect 22 0 23 0;
#X connect 26 0 25 0;
#X connect 29 0 32 0;
#X connect 30 0 41 0;
#X connect 31 0 63 0;
#X connect 32 0 66 0;
#X connect 32 1 33 0;
#X connect 32 2 67 0;
#X connect 32 3 68 0;
#X connect 32 4 69 0;
#X connect 33 0 31 1;
#X connect 34 0 39 0;
#X connect 35 0 83 0;
#X connect 36 0 35 1;
#X connect 36 0 54 0;
#X connect 37 0 35 1;
#X connect 37 0 54 0;
#X connect 39 0 35 0;
#X connect 41 0 42 0;
#X connect 41 1 43 0;
#X connect 41 2 44 0;
#X connect 41 3 45 0;
#X connect 41 4 46 0;
#X connect 42 0 48 0;
#X connect 43 0 48 0;
#X connect 44 0 48 0;
#X connect 45 0 48 0;
#X connect 46 0 48 0;
#X connect 48 0 70 1;
#X connect 49 0 70 0;
#X connect 50 0 49 0;
#X connect 50 1 31 0;
#X connect 53 0 64 0;
#X connect 54 0 57 1;
#X connect 55 0 63 0;
#X connect 57 0 55 1;
#X connect 58 0 70 0;
#X connect 59 0 2 0;
#X connect 63 0 61 0;
#X connect 64 0 57 0;
#X connect 65 0 11 0;
#X connect 65 1 12 0;
#X connect 65 2 13 0;
#X connect 65 3 14 0;
#X connect 66 0 31 1;
#X connect 67 0 31 1;
#X connect 68 0 31 1;
#X connect 69 0 31 1;
#X connect 70 0 28 0;
#X connect 72 0 74 0;
#X connect 73 0 72 0;
#X connect 74 0 82 0;
#X connect 74 1 70 2;
#X connect 81 0 78 0;
#X connect 81 0 77 0;
#X connect 82 0 50 0;
#X connect 82 1 10 0;
#X connect 82 2 0 0;
#X connect 82 3 5 0;
#X connect 82 4 15 0;
#X connect 82 5 22 0;
#X connect 82 6 81 0;
#X connect 82 7 36 0;
#X connect 83 0 26 0;
#X connect 83 1 84 0;
#X connect 83 2 55 0;
#X connect 83 3 58 0;
#X connect 83 4 37 0;
#X connect 87 0 17 0;
#X restore 48 138 pd EXPORT_VIDEO;
#X text 213 139 VIDEO RECORDING SYSTEM;
#N canvas 270 137 784 452 EXTERNAL_CONTROL 0;
#X obj 48 67 r OSC_BUS;
#X text 157 19 ** EXTERNAL CONTROL ROUTER VIA OSC MESSAGES;
#X text 153 64 RECEIVE UNPACKED OSC FROM PARENT PATCH;
#X text 223 122 FILTER MAPS CONTROL;
#X obj 48 121 route automation;
#X obj 48 155 route export;
#X obj 48 286 s \$0-exportVideo_gui_set;
#X obj 48 315 s \$0-exportRenderSpeed_gui_set;
#X obj 48 344 s \$0-exportRenderQuality_gui_set;
#X obj 48 373 s \$0-exportAudio_gui_set;
#X obj 48 402 s \$0-exportSeparateAudio_gui_set;
#X obj 48 189 route exportVideo renderSpeed renderQuality exportAudio
separateAudio, f 69;
#X obj 400 233 loadbang;
#X msg 400 262 2 4 1;
#X obj 400 291 unpack f f f;
#X connect 0 0 4 0;
#X connect 4 0 5 0;
#X connect 5 0 11 0;
#X connect 11 0 6 0;
#X connect 11 1 7 0;
#X connect 11 2 8 0;
#X connect 11 3 9 0;
#X connect 11 4 10 0;
#X connect 12 0 13 0;
#X connect 13 0 14 0;
#X connect 14 0 7 0;
#X connect 14 1 8 0;
#X connect 14 2 10 0;
#X restore 48 104 pd EXTERNAL_CONTROL;
#X text 253 105 INPUT OF CONTROLS;
#X restore 60 555 pd EXPORT_CONTROL;
#N canvas 427 240 235 246 EXPORT_GUI 0;
#X obj 2 1 cnv 15 230 241 empty empty empty 20 12 0 14 -1 -66577 0
;
#X obj 12 11 cnv 15 210 120 empty empty empty 20 12 0 14 -128992 -66577
0;
#X obj 22 70 hradio 20 1 0 5 \$0-exportRenderSpeed_gui \$0-exportRenderSpeed_gui_set
RENDER_SPEED 106 11 0 10 -1 -262144 -1 2;
#X obj 22 101 hradio 20 1 0 5 \$0-exportRenderQuality_gui \$0-exportRenderQuality_gui_set
RENDER_QUALITY 106 11 0 10 -1 -262144 -1 4;
#X obj 22 39 bng 20 250 50 0 \$0-exportVideo_gui \$0-exportVideo_gui_set
EXPORT_VIDEO 26 10 0 10 -1 -262144 -1;
#X obj 12 142 cnv 15 210 90 empty empty empty 20 12 0 14 -128992 -66577
0;
#X obj 22 202 tgl 20 0 \$0-exportSeparateAudio_gui \$0-exportSeparateAudio_gui_set
EXPORT_SEPARATE_CHANNELS 26 10 0 10 -1 -262144 -1 1 1;
#X obj 22 171 bng 20 250 50 0 \$0-exportAudio_gui \$0-exportAudio_gui_set
EXPORT_AUDIO 26 10 0 10 -1 -262144 -1;
#X obj 12 11 cnv 15 210 20 empty empty empty 20 12 0 14 -233017 -66577
0;
#X obj 97 11 cnv 15 40 20 empty empty VIDEO 0 10 0 14 -228856 -1 0
;
#X obj 12 142 cnv 15 210 20 empty empty empty 20 12 0 14 -233017 -66577
0;
#X obj 97 142 cnv 15 40 20 empty empty AUDIO 0 10 0 14 -228856 -1 0
;
#X restore 60 521 pd EXPORT_GUI;
#N canvas 414 198 737 410 INFO 0;
#X text 44 191 PERSONAL WEBSITE - brunorohde.wordpress.com;
#X text 44 214 REPOSITORY - github.com/brunorohde;
#X text 44 287 ABSTRACTIONS USED (MODIFIED) IN [ARRAST_VJ];
#X text 44 81 arrastvj.org - github.com/brunorohde/ARRAST_VJ;
#X text 42 347 [hip.mmb~] [lop.mmb~] - Mike Moser-Booth - github.com/dotmmb/mmb
, f 64;
#X text 42 321 [4corners] - Papatchs Party - yamatierea.org/papatchs/
;
#X text 44 128 Copyleft 2015-2018 Bruno Rohde - GPLV3 License - www.gnu.org/licenses/gpl-3.0.html
;
#X text 44 33 [ARRAST_VJ] 1.1 - Pd/GEM VJ/Mapping;
#X restore 257 147 pd INFO;
#X text 55 98 [ARRAST_VJ];
#X text 217 147 ---;
#X text 338 147 ---;
#X coords 0 -1 1 1 247 50 2 20 20;
#X restore 12 11 pd INIT;
#X obj 2 1 cnv 15 267 590 empty empty empty 20 12 0 14 -1 -66577 0
;
#X obj 52 82 hradio 35 1 0 2 \$0-mixClick_gui \$0-mixClick_gui_set
empty 0 12 0 15 -262144 -1 -1 0;
#X obj 149 82 hradio 35 1 0 2 \$0-mapClick_gui \$0-mapClick_gui_set
empty 0 12 0 15 -262144 -1 -1 0;
#X obj 52 82 cnv 15 70 35 \$0-morto \$0-mixColor MIX 13 18 0 25 -260818
-1 0;
#X obj 12 139 cnv 15 247 50 empty empty empty 20 12 0 14 -128992 -66577
0;
#X obj 88 159 hradio 20 1 0 8 \$0-mainPresetOpen_gui \$0-mainPresetOpen_gui_set
MAIN_PRESET 0 -8 0 8 -262144 -1 -1 3;
#X obj 22 159 bng 20 250 50 0 \$0-mainPresetSaveAs_gui \$0-mainPresetSaveAs_gui_set
SAVE_AS -7 -8 0 8 -1 -262144 -1;
#X obj 55 159 bng 20 250 50 0 \$0-mainPresetSave_gui \$0-mainPresetSave_gui_set
SAVE 0 -8 0 8 -1 -262144 -1;
#X obj 88 159 cnv 15 160 20 \$0-morto \$0-mainPresetDisplay OPEN_PRESET
7 10 0 12 -1 -262144 0;
#X obj 12 11 cnv 15 247 50 empty empty [ARRAST_VJ] 14 24 0 34 -128992
-1 0;
#X obj 12 200 cnv 15 247 210 empty empty empty 20 12 0 14 -128992 -66577
0;
#X obj 88 220 hradio 20 1 0 8 \$0-autoPresetOpen_gui \$0-autoPresetOpen_gui_set
AUTOMATION_PRESET 0 -8 0 8 -262144 -1 -1 2;
#X obj 22 220 bng 20 250 50 0 \$0-autoPresetSaveAs_gui \$0-autoPresetSaveAs_gui_set
SAVE_AS -7 -8 0 8 -1 -262144 -1;
#X obj 55 220 bng 20 250 50 0 \$0-autoPresetSave_gui \$0-autoPresetSave_gui_set
SAVE 0 -8 0 8 -1 -262144 -1;
#X obj 88 220 cnv 15 160 20 \$0-morto \$0-autoPresetDisplay OPEN_AUTOMATION
7 10 0 12 -1 -262144 0;
#X obj 88 251 bng 20 250 50 0 \$0-autoRW_gui \$0-autoRW_gui_set RW
4 10 0 10 -1 -262144 -262144;
#X obj 121 251 tgl 20 0 \$0-autoLoop_gui \$0-autoLoop_gui_set L 7 11
0 12 -1 -262144 -262144 0 1;
#X obj 55 251 tgl 20 0 \$0-autoPlay_gui \$0-autoPlay_gui_set P 7 11
0 12 -1 -262144 -262144 0 1;
#X obj 22 251 tgl 20 0 \$0-autoRec_gui \$0-autoRec_gui_set R 7 11 0
12 -86277 -262144 -262144 0 1;
#X obj 157 259 nbx 5 12 -1e+37 1e+37 0 0 \$0-autoSamplesDisplay_gui
\$0-autoSamplesDisplay_gui_set SAMPLES 0 -8 0 8 -1 -262144 -1 0 256
;
#X obj 212 259 nbx 4 12 -1e+37 1e+37 0 0 \$0-autoSecDisplay_gui \$0-autoSecDisplay_gui_set
SECS 0 -8 0 8 -1 -262144 -1 0 256;
#X obj 25 282 hsl 222 20 0 1 0 0 \$0-autoTimeline_gui \$0-autoTimeline_gui_set
.0 0 11 0 12 -1 -262144 -128992 0 1;
#X obj 35 380 hradio 20 1 0 3 \$0-autoConfig_gui \$0-autoConfig_gui_set
CONFIG 12 10 0 10 -1 -1 -262144 1;
#X obj 106 380 hradio 20 1 0 3 \$0-autoClear_gui \$0-autoClear_gui_set
CLEAR 15 10 0 10 -1 -1 -262144 1;
#X obj 149 82 cnv 15 70 35 \$0-morto \$0-mapColor MAP 14 18 0 25 -1
-262144 0;
#X obj 12 421 arrast_gemwin;
#X obj 22 313 cnv 15 227 56 empty empty empty 20 12 0 14 -1 -128992
0;
#X obj 32 332 hradio 15 1 0 3 \$0-autoSetAll1_gui \$0-autoSetAll1_gui_set
empty 50 8 0 10 -258699 -1 -1 0;
#X obj 86 332 hradio 15 1 0 3 \$0-autoSetAll2_gui \$0-autoSetAll2_gui_set
empty 50 8 0 10 -241291 -1 -1 0;
#X obj 140 332 hradio 15 1 0 3 \$0-autoSetAll3_gui \$0-autoSetAll3_gui_set
empty 50 8 0 10 -250685 -1 -1 0;
#X obj 194 332 hradio 15 1 0 3 \$0-autoSetAll4_gui \$0-autoSetAll4_gui_set
empty 50 8 0 10 -24198 -1 -1 0;
#X obj 34 318 cnv 10 12 12 empty empty M 3 7 0 10 -1 -128992 0;
#X obj 49 318 cnv 10 12 12 empty empty R 3 7 0 10 -1 -128992 0;
#X obj 64 318 cnv 10 12 12 empty empty P 3 7 0 10 -1 -128992 0;
#X obj 115 352 cnv 12 45 12 empty empty M=MANUAL 5 7 0 8 -1 -262144
0;
#X obj 161 352 cnv 12 45 12 empty empty R=RECORD 5 7 0 8 -1 -262144
0;
#X obj 207 352 cnv 12 35 12 empty empty P=PLAY 5 7 0 8 -1 -262144 0
;
#X obj 24 352 cnv 12 85 12 empty empty AUTOMATION_STATE 5 7 0 8 -1
-128992 0;
#X obj 88 318 cnv 10 12 12 empty empty M 3 7 0 10 -1 -128992 0;
#X obj 103 318 cnv 10 12 12 empty empty R 3 7 0 10 -1 -128992 0;
#X obj 118 318 cnv 10 12 12 empty empty P 3 7 0 10 -1 -128992 0;
#X obj 142 318 cnv 10 12 12 empty empty M 3 7 0 10 -1 -128992 0;
#X obj 157 318 cnv 10 12 12 empty empty R 3 7 0 10 -1 -128992 0;
#X obj 172 318 cnv 10 12 12 empty empty P 3 7 0 10 -1 -128992 0;
#X obj 196 318 cnv 10 12 12 empty empty M 3 7 0 10 -1 -128992 0;
#X obj 211 318 cnv 10 12 12 empty empty R 3 7 0 10 -1 -128992 0;
#X obj 226 318 cnv 10 12 12 empty empty P 3 7 0 10 -1 -128992 0;
#X obj 177 380 hradio 20 1 0 3 \$0-autoExport_gui \$0-autoExport_gui_set
EXPORT 13 10 0 10 -1 -1 -262144 2;
