#N canvas 33 116 272 377 16;
#X declare -path abstract -stdlib Gem -stdpath list-abs -stdpath hcs
-stdpath zexy -stdpath iemlib -stdpath ggee -stdpath maxlib -stdpath
cyclone;
#N canvas 61 209 452 422 INIT 0;
#X msg 287 203 1;
#X obj 287 144 loadbang;
#X obj 287 262 tgl 15 0 empty empty empty 17 7 0 10 -257985 -1 -1 1
1;
#X obj 384 262 tgl 15 0 empty empty empty 17 7 0 10 -257985 -1 -1 1
1;
#X msg 337 203 0;
#X obj 287 88 arrast_cpu;
#N canvas 37 73 918 353 MODE_SELECTOR 0;
#X obj 44 37 r \$0-click_vj;
#X obj 44 71 t b;
#X msg 194 197 0;
#X obj 44 294 s \$0-vj_color;
#X obj 194 294 s \$0-map_color;
#X obj 374 71 t b;
#X obj 374 37 r \$0-click_map;
#X msg 524 197 1;
#X obj 374 294 s \$0-map_color;
#X obj 524 294 s \$0-vj_color;
#X obj 222 57 loadbang;
#X obj 194 225 s CANAL_MODE;
#X obj 524 225 s CANAL_MODE;
#X obj 704 17 r CANAL_MODE;
#X msg 704 46 vis \$1;
#X obj 222 86 del 1000;
#X obj 697 136 s \$0-flush_map_tabs;
#X obj 704 76 s pd-MAP_GUI;
#X obj 44 111 t b b b b;
#X msg 194 136 vis 1;
#X obj 194 164 s pd-GUI;
#X obj 499 136 s \$0-flush_act_map;
#X obj 374 111 t b b b b b;
#X msg 44 260 color 14 0 22;
#X msg 194 260 color 22 0 0;
#X msg 374 260 color 14 0 22;
#X msg 524 260 color 22 0 0;
#X connect 0 0 1 0;
#X connect 1 0 18 0;
#X connect 2 0 11 0;
#X connect 5 0 22 0;
#X connect 6 0 5 0;
#X connect 7 0 12 0;
#X connect 10 0 15 0;
#X connect 13 0 14 0;
#X connect 14 0 17 0;
#X connect 15 0 18 0;
#X connect 18 0 23 0;
#X connect 18 1 24 0;
#X connect 18 2 2 0;
#X connect 18 3 19 0;
#X connect 19 0 20 0;
#X connect 22 0 25 0;
#X connect 22 1 26 0;
#X connect 22 2 7 0;
#X connect 22 3 21 0;
#X connect 22 4 16 0;
#X connect 23 0 3 0;
#X connect 24 0 4 0;
#X connect 25 0 8 0;
#X connect 26 0 9 0;
#X restore 60 225 pd MODE_SELECTOR;
#X obj 60 50 cnv 15 15 15 empty empty empty 20 12 0 14 -159808 -66577
0;
#N canvas 152 104 1098 507 CAM_IN 0;
#X msg 75 114 1;
#X msg 125 114 0;
#X obj 75 79 loadbang;
#X obj 75 188 gemhead 10;
#X obj 75 305 pix_video;
#X obj 415 305 pix_video;
#X obj 415 188 gemhead 11;
#X obj 755 305 pix_video;
#X obj 755 188 gemhead 12;
#X obj 162 382 print CAM_INFO_1;
#N canvas 235 196 678 332 PROPRIEDADES_CAM_1 0;
#X obj 43 39 loadbang;
#X msg 43 163 dimen 640 480;
#X msg 490 163 enumerate;
#X obj 43 210 t a;
#X msg 196 163 colorspace RGBA;
#X msg 379 163 device 0;
#X obj 43 266 outlet;
#X obj 43 94 t b b b b;
#X obj 490 119 del 1000;
#X connect 0 0 7 0;
#X connect 1 0 3 0;
#X connect 2 0 3 0;
#X connect 3 0 6 0;
#X connect 4 0 3 0;
#X connect 5 0 3 0;
#X connect 7 0 1 0;
#X connect 7 1 4 0;
#X connect 7 2 5 0;
#X connect 7 3 8 0;
#X connect 8 0 2 0;
#X restore 111 262 pd PROPRIEDADES_CAM_1;
#X obj 502 340 print CAM_INFO_2;
#X obj 842 340 print CAM_INFO_3;
#N canvas 326 383 509 323 PROPRIEDADES_CAM_2 0;
#X msg 42 167 dimen 640 480;
#X obj 42 214 t a;
#X msg 195 167 colorspace RGBA;
#X obj 42 98 t b b b;
#X obj 42 270 outlet;
#X msg 378 167 device 1;
#X obj 42 24 r \$0-on_dev2;
#X obj 42 60 sel 1;
#X connect 0 0 1 0;
#X connect 1 0 4 0;
#X connect 2 0 1 0;
#X connect 3 0 0 0;
#X connect 3 1 2 0;
#X connect 3 2 5 0;
#X connect 5 0 1 0;
#X connect 6 0 7 0;
#X connect 7 0 3 0;
#X restore 451 262 pd PROPRIEDADES_CAM_2;
#X obj 75 451 pix_share_write 10 640 480 RGBA;
#N canvas 385 219 550 403 DEVICES 0;
#X obj 44 21 inlet;
#X obj 44 348 outlet;
#X obj 91 101 route devices;
#X obj 44 65 t a a;
#X obj 91 219 sel 1 2 3;
#X obj 230 292 s \$0-on_dev2;
#X obj 370 292 s \$0-on_dev3;
#X msg 230 256 1;
#X msg 370 256 1;
#X obj 91 137 t f f;
#X obj 138 176 s NR_DEVICES;
#X msg 91 256 1;
#X obj 91 292 s \$0-on_dev1;
#X connect 0 0 3 0;
#X connect 2 0 9 0;
#X connect 3 0 1 0;
#X connect 3 1 2 0;
#X connect 4 0 11 0;
#X connect 4 1 7 0;
#X connect 4 2 8 0;
#X connect 7 0 5 0;
#X connect 7 0 12 0;
#X connect 8 0 6 0;
#X connect 8 0 5 0;
#X connect 8 0 12 0;
#X connect 9 0 4 0;
#X connect 9 1 10 0;
#X connect 11 0 12 0;
#X restore 162 343 pd DEVICES;
#X obj 182 126 r \$0-on_dev1;
#X obj 75 151 tgl 25 0 empty empty empty 17 7 0 10 -262144 -1 -1 1
1;
#X msg 415 114 1;
#X msg 465 114 0;
#X obj 415 79 loadbang;
#X obj 415 151 tgl 25 0 empty empty empty 17 7 0 10 -262144 -1 -1 1
1;
#X msg 755 114 1;
#X msg 805 114 0;
#X obj 755 79 loadbang;
#X obj 755 151 tgl 25 0 empty empty empty 17 7 0 10 -262144 -1 -1 0
1;
#X obj 522 126 r \$0-on_dev2;
#X obj 862 126 r \$0-on_dev3;
#N canvas 325 383 509 323 PROPRIEDADES_CAM_3 0;
#X msg 42 167 dimen 640 480;
#X obj 42 214 t a;
#X msg 195 167 colorspace RGBA;
#X obj 42 98 t b b b;
#X obj 42 270 outlet;
#X obj 42 60 sel 1;
#X obj 42 24 r \$0-on_dev3;
#X msg 378 167 device 2;
#X connect 0 0 1 0;
#X connect 1 0 4 0;
#X connect 2 0 1 0;
#X connect 3 0 0 0;
#X connect 3 1 2 0;
#X connect 3 2 7 0;
#X connect 5 0 3 0;
#X connect 6 0 5 0;
#X connect 7 0 1 0;
#X restore 791 262 pd PROPRIEDADES_CAM_3;
#N canvas 336 71 850 672 DEV_MANAGE 0;
#N canvas 667 450 201 256 SUM 0;
#X obj 44 41 inlet;
#X obj 44 113 + 1;
#X obj 44 78 v ACT_CAMS;
#X obj 44 189 v ACT_CAMS;
#X obj 44 149 clip 0 4;
#X connect 0 0 2 0;
#X connect 1 0 4 0;
#X connect 2 0 1 0;
#X connect 4 0 3 0;
#X restore 101 193 pd SUM;
#X obj 214 254 loadbang;
#X obj 214 315 v ACT_CAMS;
#X msg 214 284 0;
#X floatatom 214 347 5 0 0 0 - - -, f 5;
#X obj 189 300 bng 15 250 50 0 empty empty empty 17 7 0 10 -262144
-1 -1;
#X obj 54 28 r ON_CAM1;
#X obj 101 146 sel 1 0;
#N canvas 669 394 201 256 DIM 0;
#X obj 44 41 inlet;
#X obj 44 78 v ACT_CAMS;
#X obj 44 189 v ACT_CAMS;
#X obj 44 149 clip 0 4;
#X obj 44 113 - 1;
#X connect 0 0 1 0;
#X connect 1 0 4 0;
#X connect 3 0 2 0;
#X connect 4 0 3 0;
#X restore 171 193 pd DIM;
#X obj 54 112 t b f;
#N canvas 669 394 201 256 SUM 0;
#X obj 44 41 inlet;
#X obj 44 113 + 1;
#X obj 44 78 v ACT_CAMS;
#X obj 44 189 v ACT_CAMS;
#X obj 44 149 clip 0 4;
#X connect 0 0 2 0;
#X connect 1 0 4 0;
#X connect 2 0 1 0;
#X connect 4 0 3 0;
#X restore 261 193 pd SUM;
#X obj 261 146 sel 1 0;
#N canvas 670 366 201 256 DIM 0;
#X obj 44 41 inlet;
#X obj 44 78 v ACT_CAMS;
#X obj 44 189 v ACT_CAMS;
#X obj 44 149 clip 0 4;
#X obj 44 113 - 1;
#X connect 0 0 1 0;
#X connect 1 0 4 0;
#X connect 3 0 2 0;
#X connect 4 0 3 0;
#X restore 331 193 pd DIM;
#X obj 214 112 t b f;
#N canvas 670 366 201 256 SUM 0;
#X obj 44 41 inlet;
#X obj 44 113 + 1;
#X obj 44 78 v ACT_CAMS;
#X obj 44 189 v ACT_CAMS;
#X obj 44 149 clip 0 4;
#X connect 0 0 2 0;
#X connect 1 0 4 0;
#X connect 2 0 1 0;
#X connect 4 0 3 0;
#X restore 421 193 pd SUM;
#X obj 421 146 sel 1 0;
#N canvas 671 338 201 256 DIM 0;
#X obj 44 41 inlet;
#X obj 44 78 v ACT_CAMS;
#X obj 44 189 v ACT_CAMS;
#X obj 44 149 clip 0 4;
#X obj 44 113 - 1;
#X connect 0 0 1 0;
#X connect 1 0 4 0;
#X connect 3 0 2 0;
#X connect 4 0 3 0;
#X restore 491 193 pd DIM;
#X obj 374 112 t b f;
#N canvas 671 338 201 256 SUM 0;
#X obj 44 41 inlet;
#X obj 44 113 + 1;
#X obj 44 78 v ACT_CAMS;
#X obj 44 189 v ACT_CAMS;
#X obj 44 149 clip 0 4;
#X connect 0 0 2 0;
#X connect 1 0 4 0;
#X connect 2 0 1 0;
#X connect 4 0 3 0;
#X restore 581 193 pd SUM;
#X obj 581 146 sel 1 0;
#N canvas 671 338 201 256 DIM 0;
#X obj 44 41 inlet;
#X obj 44 78 v ACT_CAMS;
#X obj 44 189 v ACT_CAMS;
#X obj 44 149 clip 0 4;
#X obj 44 113 - 1;
#X connect 0 0 1 0;
#X connect 1 0 4 0;
#X connect 3 0 2 0;
#X connect 4 0 3 0;
#X restore 651 193 pd DIM;
#X obj 534 112 t b f;
#X obj 214 28 r ON_CAM2;
#X obj 374 28 r ON_CAM3;
#X obj 534 28 r ON_CAM4;
#X obj 214 379 moses 1;
#X msg 214 466 0;
#X obj 214 513 s \$0-on_dev1;
#X obj 214 543 s \$0-on_dev2;
#X obj 214 573 s \$0-on_dev3;
#X obj 381 404 t b;
#X text 353 299 Desliga render de todos devices quando;
#X text 353 319 nenhuma camera esta selecionada;
#X obj 381 502 sel 1 2 3;
#X obj 520 573 s \$0-on_dev2;
#X obj 660 573 s \$0-on_dev3;
#X msg 520 537 1;
#X msg 660 537 1;
#X msg 381 537 1;
#X obj 381 573 s \$0-on_dev1;
#X obj 408 446 r NR_DEVICES;
#X obj 381 474 f;
#X text 504 488 Religa render dos dev. disp.;
#X obj 214 421 t b;
#X obj 54 69 change;
#X obj 214 69 change;
#X obj 374 69 change;
#X obj 534 69 change;
#X connect 1 0 3 0;
#X connect 2 0 4 0;
#X connect 3 0 2 0;
#X connect 4 0 25 0;
#X connect 5 0 2 0;
#X connect 6 0 44 0;
#X connect 7 0 0 0;
#X connect 7 1 8 0;
#X connect 9 0 2 0;
#X connect 9 1 7 0;
#X connect 11 0 10 0;
#X connect 11 1 12 0;
#X connect 13 0 2 0;
#X connect 13 1 11 0;
#X connect 15 0 14 0;
#X connect 15 1 16 0;
#X connect 17 0 2 0;
#X connect 17 1 15 0;
#X connect 19 0 18 0;
#X connect 19 1 20 0;
#X connect 21 0 2 0;
#X connect 21 1 19 0;
#X connect 22 0 45 0;
#X connect 23 0 46 0;
#X connect 24 0 47 0;
#X connect 25 0 43 0;
#X connect 25 1 30 0;
#X connect 26 0 27 0;
#X connect 26 0 28 0;
#X connect 26 0 29 0;
#X connect 30 0 41 0;
#X connect 33 0 38 0;
#X connect 33 1 36 0;
#X connect 33 2 37 0;
#X connect 36 0 34 0;
#X connect 36 0 39 0;
#X connect 37 0 35 0;
#X connect 37 0 34 0;
#X connect 37 0 39 0;
#X connect 38 0 39 0;
#X connect 40 0 41 1;
#X connect 41 0 33 0;
#X connect 43 0 26 0;
#X connect 44 0 9 0;
#X connect 45 0 13 0;
#X connect 46 0 17 0;
#X connect 47 0 21 0;
#X restore 415 29 pd DEV_MANAGE;
#X obj 415 451 pix_share_write 11 640 480 RGBA;
#X obj 755 451 pix_share_write 12 640 480 RGBA;
#X connect 0 0 17 0;
#X connect 1 0 17 0;
#X connect 2 0 0 0;
#X connect 3 0 4 0;
#X connect 4 0 14 0;
#X connect 4 1 15 0;
#X connect 5 0 30 0;
#X connect 5 1 11 0;
#X connect 6 0 5 0;
#X connect 7 0 31 0;
#X connect 7 1 12 0;
#X connect 8 0 7 0;
#X connect 10 0 4 0;
#X connect 13 0 5 0;
#X connect 15 0 9 0;
#X connect 16 0 17 0;
#X connect 17 0 3 0;
#X connect 18 0 21 0;
#X connect 19 0 21 0;
#X connect 20 0 19 0;
#X connect 21 0 6 0;
#X connect 22 0 25 0;
#X connect 23 0 25 0;
#X connect 24 0 23 0;
#X connect 25 0 8 0;
#X connect 26 0 21 0;
#X connect 27 0 25 0;
#X connect 28 0 7 0;
#X restore 60 156 pd CAM_IN;
#N canvas 309 88 888 652 GUI 1;
#X obj 2 1 cnv 15 884 650 empty empty empty 20 12 0 14 -66577 -66577
0;
#X obj 17 16 cnv 15 205 621 empty empty empty 20 12 0 14 -1 -66577
0;
#X obj 233 16 cnv 15 205 621 empty empty empty 20 12 0 14 -1 -66577
0;
#X obj 449 16 cnv 15 205 621 empty empty empty 20 12 0 14 -1 -66577
0;
#X obj 665 16 cnv 15 205 621 empty empty empty 20 12 0 14 -1 -66577
0;
#X obj 27 402 arrast_transf 1 \$0;
#X obj 27 530 arrast_fx 1;
#X obj 27 328 arrast_cint 1;
#X obj 27 26 arrast_vint 1;
#X obj 27 237 arrast_iint 1;
#X obj 243 237 arrast_iint 2;
#X obj 459 237 arrast_iint 3;
#X obj 675 237 arrast_iint 4;
#X obj 675 26 arrast_vint 4;
#X obj 243 26 arrast_vint 2;
#X obj 459 26 arrast_vint 3;
#X obj 675 328 arrast_cint 4;
#X obj 243 328 arrast_cint 2;
#X obj 459 328 arrast_cint 3;
#X obj 243 401 arrast_transf 2 \$0;
#X obj 459 401 arrast_transf 3 \$0;
#X obj 675 401 arrast_transf 4 \$0;
#X obj 245 530 arrast_fx 2;
#X obj 459 529 arrast_fx 3;
#X obj 675 529 arrast_fx 4;
#X restore 60 190 pd GUI;
#N canvas 579 440 669 211 RUN_MOTOR 0;
#X obj 31 155 shell;
#X obj 31 22 loadbang;
#X msg 31 96 pd -open \$1/abstract/Motor_Arrast.pd -noaudio -nomidi
-nogui;
#X obj 31 54 ggee/getdir;
#X connect 1 0 3 0;
#X connect 2 0 0 0;
#X connect 3 0 2 0;
#X restore 60 122 pd RUN_MOTOR;
#N canvas 498 268 535 370 MAP_GUI 0;
#X obj 1 0 cnv 15 531 367 empty empty empty 20 12 0 14 -1 -66577 0
;
#X obj 14 44 cnv 15 505 310 empty empty empty 20 12 0 14 -191407 -262144
0;
#X obj 34 54 hradio 35 1 0 3 \$0-click_m1 \$0-click_m1_in empty 0 0
0 15 -262144 -1 -1 1;
#X obj 154 54 hradio 35 1 0 3 \$0-click_m2 \$0-click_m2_in empty 0
-8 0 10 -262144 -1 -1 1;
#X obj 274 54 hradio 35 1 0 3 \$0-click_m3 \$0-click_m3_in empty 0
-8 0 10 -262144 -1 -1 1;
#X obj 394 54 hradio 35 1 0 3 \$0-click_m4 \$0-click_m4_in empty 0
-8 0 10 -262144 -1 -1 1;
#X obj 34 54 cnv 15 105 35 empty \$0-m1_color CANAL_1 18 18 0 16 -258699
-1 0;
#X obj 154 54 cnv 15 105 35 empty \$0-m2_color CANAL_2 18 18 0 16 -241291
-1 0;
#X obj 274 54 cnv 15 105 35 empty \$0-m3_color CANAL_3 18 18 0 16 -250685
-1 0;
#X obj 394 54 cnv 15 105 35 empty \$0-m4_color CANAL_4 18 18 0 16 -24198
-1 0;
#X obj 24 90 cnv 15 485 183 empty \$0-map_sel_color empty 20 12 0 14
-258699 -262144 0;
#X obj 85 235 hradio 30 1 0 8 \$0-click_mask_open \$0-click_mask_open_in
empty 0 -8 0 10 -262144 -1 -1 2;
#X obj 44 235 tgl 30 0 \$0-on_mask_map \$0-on_mask_map_in MASK 3 -8
0 10 -1 -262144 -1 0 1;
#X obj 34 100 cnv 15 465 112 empty empty empty 20 12 0 14 -191407 -262144
0;
#X floatatom 57 110 8 0 0 0 x #0-aex_in #0-aex, f 8;
#X floatatom 157 110 8 0 0 0 y #0-aey_in #0-aey, f 8;
#X floatatom 57 180 8 0 0 0 x #0-bex_in #0-bex, f 8;
#X floatatom 157 180 8 0 0 0 y #0-bey_in #0-bey, f 8;
#X floatatom 307 110 8 0 0 0 x #0-adx_in #0-adx, f 8;
#X floatatom 407 110 8 0 0 0 y #0-ady_in #0-ady, f 8;
#X floatatom 307 180 8 0 0 0 x #0-bdx_in #0-bdx, f 8;
#X floatatom 407 180 8 0 0 0 y #0-bdy_in #0-bdy, f 8;
#X obj 252 139 tgl 35 0 \$0-edit_map \$0-edit_map_in empty 17 7 0 10
-1 -262144 -1 1 1;
#X obj 357 235 bng 30 250 50 0 \$0-reset_act_map \$0-reset_act_map_in
RESET 1 -8 0 10 -1 -262144 -1;
#X obj 397 235 bng 30 250 50 0 \$0-full_act_map \$0-full_act_map_in
FULL 4 -8 0 10 -1 -262144 -1;
#X obj 85 235 cnv 15 240 30 empty \$0-mask_visor abrir_máscara 10
15 0 14 -1 -262144 0;
#X obj 169 301 hradio 30 1 0 10 \$0-click_map_open \$0-click_map_open_in
PRESET 0 -8 0 10 -262144 -1 -1 2;
#X obj 169 301 cnv 15 300 30 empty \$0-map_preset_visor abrir_preset
10 15 0 14 -1 -262144 0;
#X obj 64 301 bng 30 250 50 0 \$0-save_as_map_preset \$0-save_as_map_preset_in
SAVE_AS -5 -8 0 10 -1 -262144 -1;
#X obj 114 301 bng 30 250 50 0 \$0-save_map_preset \$0-save_map_preset_in
SAVE 3 -8 0 10 -1 -262144 -1;
#X obj 26 13 hradio 30 1 0 16 \$0-close_map_config \$0-close_map_config_in
empty 0 -8 0 10 -262144 -1 -1 4;
#X obj 14 13 cnv 15 505 30 empty empty FECHAR_JANELA 198 14 0 14 -128992
-262144 0;
#X obj 459 235 bng 30 250 50 0 \$0-master_act_map \$0-master_act_map_in
MASTER -2 -8 0 10 -1 -262144 -1;
#X restore 60 260 pd MAP_GUI;
#N canvas 70 352 285 423 MAP_CONFIG 0;
#N canvas 230 369 318 213 VISIB 0;
#X obj 49 45 r \$0-close_map_config;
#X obj 49 75 t b;
#X msg 49 106 vis 0;
#X obj 49 139 s pd-MAP_GUI;
#X connect 0 0 1 0;
#X connect 1 0 2 0;
#X connect 2 0 3 0;
#X restore 49 39 pd VISIB;
#N canvas 78 163 722 267 ACTIVE_MAP 0;
#X obj 58 39 r \$0-click_m1;
#X obj 218 39 r \$0-click_m2;
#X obj 378 39 r \$0-click_m3;
#X obj 538 39 r \$0-click_m4;
#X msg 58 74 1;
#X msg 218 74 2;
#X msg 378 74 3;
#X msg 538 74 4;
#X obj 218 214 s \$0-active_map;
#X obj 58 130 r \$0-flush_act_map;
#X obj 58 159 t b;
#X obj 218 184 f 1;
#X connect 0 0 4 0;
#X connect 1 0 5 0;
#X connect 2 0 6 0;
#X connect 3 0 7 0;
#X connect 4 0 11 0;
#X connect 5 0 11 0;
#X connect 6 0 11 0;
#X connect 7 0 11 0;
#X connect 9 0 10 0;
#X connect 10 0 11 0;
#X connect 11 0 8 0;
#X restore 49 123 pd ACTIVE_MAP;
#N canvas 345 114 1046 370 VERTICES 0;
#N canvas 0 50 450 300 (subpatch) 0;
#X array \$0-vert_map2 8 float 2;
#X coords 0 10 8 -10 200 140 1 0 0;
#X restore 299 183 graph;
#N canvas 0 50 450 300 (subpatch) 0;
#X array \$0-vert_map3 8 float 2;
#X coords 0 10 8 -10 200 140 1 0 0;
#X restore 539 183 graph;
#N canvas 0 50 450 300 (subpatch) 0;
#X array \$0-vert_map4 8 float 2;
#X coords 0 10 8 -10 200 140 1 0 0;
#X restore 779 183 graph;
#N canvas 0 50 450 300 (subpatch) 0;
#X array \$0-vert_map1 8 float 2;
#X coords 0 10 8 -10 200 140 1 0 0;
#X restore 59 183 graph;
#X obj 806 42 r \$0-active_map;
#X floatatom 806 72 5 0 0 0 - - -, f 5;
#N canvas 118 142 1030 372 SEND_MAPS 0;
#X obj 58 51 r \$0-bex;
#X obj 148 51 r \$0-bey;
#X obj 258 51 r \$0-aex;
#X obj 348 51 r \$0-aey;
#X obj 458 51 r \$0-adx;
#X obj 548 51 r \$0-ady;
#X obj 658 51 r \$0-bdx;
#X obj 748 51 r \$0-bdy;
#X obj 58 192 arrast_2tab 0;
#N canvas 385 409 334 240 set_tab 0;
#X msg 56 113 symbol \$2-vert_map\$1;
#X obj 56 83 pack f \$0;
#X obj 56 53 r \$0-active_map;
#X obj 56 157 outlet;
#X connect 0 0 3 0;
#X connect 1 0 0 0;
#X connect 2 0 1 0;
#X restore 185 162 pd set_tab;
#N canvas 388 325 334 240 set_tab 0;
#X msg 56 113 symbol \$2-vert_map\$1;
#X obj 56 83 pack f \$0;
#X obj 56 53 r \$0-active_map;
#X obj 56 157 outlet;
#X connect 0 0 3 0;
#X connect 1 0 0 0;
#X connect 2 0 1 0;
#X restore 275 192 pd set_tab;
#X obj 148 222 arrast_2tab 1;
#N canvas 389 297 334 240 set_tab 0;
#X msg 56 113 symbol \$2-vert_map\$1;
#X obj 56 83 pack f \$0;
#X obj 56 53 r \$0-active_map;
#X obj 56 157 outlet;
#X connect 0 0 3 0;
#X connect 1 0 0 0;
#X connect 2 0 1 0;
#X restore 385 222 pd set_tab;
#N canvas 390 269 334 240 set_tab 0;
#X msg 56 113 symbol \$2-vert_map\$1;
#X obj 56 83 pack f \$0;
#X obj 56 53 r \$0-active_map;
#X obj 56 157 outlet;
#X connect 0 0 3 0;
#X connect 1 0 0 0;
#X connect 2 0 1 0;
#X restore 475 252 pd set_tab;
#X obj 258 252 arrast_2tab 2;
#X obj 348 282 arrast_2tab 3;
#N canvas 389 297 334 240 set_tab 0;
#X msg 56 113 symbol \$2-vert_map\$1;
#X obj 56 83 pack f \$0;
#X obj 56 53 r \$0-active_map;
#X obj 56 157 outlet;
#X connect 0 0 3 0;
#X connect 1 0 0 0;
#X connect 2 0 1 0;
#X restore 585 162 pd set_tab;
#N canvas 388 325 334 240 set_tab 0;
#X msg 56 113 symbol \$2-vert_map\$1;
#X obj 56 83 pack f \$0;
#X obj 56 53 r \$0-active_map;
#X obj 56 157 outlet;
#X connect 0 0 3 0;
#X connect 1 0 0 0;
#X connect 2 0 1 0;
#X restore 675 192 pd set_tab;
#X obj 458 192 arrast_2tab 4;
#X obj 548 222 arrast_2tab 5;
#N canvas 389 297 334 240 set_tab 0;
#X msg 56 113 symbol \$2-vert_map\$1;
#X obj 56 83 pack f \$0;
#X obj 56 53 r \$0-active_map;
#X obj 56 157 outlet;
#X connect 0 0 3 0;
#X connect 1 0 0 0;
#X connect 2 0 1 0;
#X restore 785 222 pd set_tab;
#N canvas 387 353 334 240 set_tab 0;
#X msg 56 113 symbol \$2-vert_map\$1;
#X obj 56 83 pack f \$0;
#X obj 56 53 r \$0-active_map;
#X obj 56 157 outlet;
#X connect 0 0 3 0;
#X connect 1 0 0 0;
#X connect 2 0 1 0;
#X restore 875 252 pd set_tab;
#X obj 658 252 arrast_2tab 6;
#X obj 748 282 arrast_2tab 7;
#N canvas 499 259 465 248 send 0;
#X obj 50 33 inlet;
#X obj 50 194 outlet;
#X obj 157 152 list prepend;
#X obj 273 20 r \$0-active_map;
#X msg 273 57 map\$1;
#X obj 50 70 t f f;
#X obj 157 107 list prepend bex;
#X obj 157 194 s CANAL_MAP;
#X connect 0 0 5 0;
#X connect 2 0 7 0;
#X connect 3 0 4 0;
#X connect 4 0 2 1;
#X connect 5 0 1 0;
#X connect 5 1 6 0;
#X connect 6 0 2 0;
#X restore 58 110 pd send;
#N canvas 504 259 470 242 send 0;
#X obj 44 27 inlet;
#X obj 44 188 outlet;
#X obj 151 146 list prepend;
#X obj 268 16 r \$0-active_map;
#X msg 268 53 map\$1;
#X obj 44 64 t f f;
#X obj 151 188 s CANAL_MAP;
#X obj 151 101 list prepend bey;
#X connect 0 0 5 0;
#X connect 2 0 6 0;
#X connect 3 0 4 0;
#X connect 4 0 2 1;
#X connect 5 0 1 0;
#X connect 5 1 7 0;
#X connect 7 0 2 0;
#X restore 148 110 pd send;
#N canvas 504 259 481 256 send 0;
#X obj 44 27 inlet;
#X obj 44 188 outlet;
#X obj 151 146 list prepend;
#X obj 269 13 r \$0-active_map;
#X msg 269 50 map\$1;
#X obj 44 64 t f f;
#X obj 151 188 s CANAL_MAP;
#X obj 151 101 list prepend aex;
#X connect 0 0 5 0;
#X connect 2 0 6 0;
#X connect 3 0 4 0;
#X connect 4 0 2 1;
#X connect 5 0 1 0;
#X connect 5 1 7 0;
#X connect 7 0 2 0;
#X restore 258 110 pd send;
#N canvas 503 259 481 256 send 0;
#X obj 44 27 inlet;
#X obj 44 188 outlet;
#X obj 151 146 list prepend;
#X obj 268 20 r \$0-active_map;
#X msg 268 57 map\$1;
#X obj 44 64 t f f;
#X obj 151 188 s CANAL_MAP;
#X obj 151 101 list prepend aey;
#X connect 0 0 5 0;
#X connect 2 0 6 0;
#X connect 3 0 4 0;
#X connect 4 0 2 1;
#X connect 5 0 1 0;
#X connect 5 1 7 0;
#X connect 7 0 2 0;
#X restore 348 110 pd send;
#N canvas 502 259 481 256 send 0;
#X obj 44 27 inlet;
#X obj 44 188 outlet;
#X obj 151 146 list prepend;
#X obj 268 16 r \$0-active_map;
#X msg 268 53 map\$1;
#X obj 44 64 t f f;
#X obj 151 188 s CANAL_MAP;
#X obj 151 101 list prepend adx;
#X connect 0 0 5 0;
#X connect 2 0 6 0;
#X connect 3 0 4 0;
#X connect 4 0 2 1;
#X connect 5 0 1 0;
#X connect 5 1 7 0;
#X connect 7 0 2 0;
#X restore 458 110 pd send;
#N canvas 503 259 481 256 send 0;
#X obj 44 27 inlet;
#X obj 44 188 outlet;
#X obj 151 146 list prepend;
#X obj 268 16 r \$0-active_map;
#X msg 268 53 map\$1;
#X obj 44 64 t f f;
#X obj 151 188 s CANAL_MAP;
#X obj 151 101 list prepend ady;
#X connect 0 0 5 0;
#X connect 2 0 6 0;
#X connect 3 0 4 0;
#X connect 4 0 2 1;
#X connect 5 0 1 0;
#X connect 5 1 7 0;
#X connect 7 0 2 0;
#X restore 548 110 pd send;
#N canvas 504 259 481 256 send 0;
#X obj 44 27 inlet;
#X obj 44 188 outlet;
#X obj 151 146 list prepend;
#X obj 268 16 r \$0-active_map;
#X msg 268 53 map\$1;
#X obj 44 64 t f f;
#X obj 151 188 s CANAL_MAP;
#X obj 151 101 list prepend bdx;
#X connect 0 0 5 0;
#X connect 2 0 6 0;
#X connect 3 0 4 0;
#X connect 4 0 2 1;
#X connect 5 0 1 0;
#X connect 5 1 7 0;
#X connect 7 0 2 0;
#X restore 658 110 pd send;
#N canvas 505 259 481 256 send 0;
#X obj 44 27 inlet;
#X obj 44 188 outlet;
#X obj 151 146 list prepend;
#X obj 268 16 r \$0-active_map;
#X msg 268 53 map\$1;
#X obj 44 64 t f f;
#X obj 151 188 s CANAL_MAP;
#X obj 151 101 list prepend bdy;
#X connect 0 0 5 0;
#X connect 2 0 6 0;
#X connect 3 0 4 0;
#X connect 4 0 2 1;
#X connect 5 0 1 0;
#X connect 5 1 7 0;
#X connect 7 0 2 0;
#X restore 748 110 pd send;
#X connect 0 0 24 0;
#X connect 1 0 25 0;
#X connect 2 0 26 0;
#X connect 3 0 27 0;
#X connect 4 0 28 0;
#X connect 5 0 29 0;
#X connect 6 0 30 0;
#X connect 7 0 31 0;
#X connect 9 0 8 1;
#X connect 10 0 11 1;
#X connect 12 0 14 1;
#X connect 13 0 15 1;
#X connect 16 0 18 1;
#X connect 17 0 19 1;
#X connect 20 0 22 1;
#X connect 21 0 23 1;
#X connect 24 0 8 0;
#X connect 25 0 11 0;
#X connect 26 0 14 0;
#X connect 27 0 15 0;
#X connect 28 0 18 0;
#X connect 29 0 19 0;
#X connect 30 0 22 0;
#X connect 31 0 23 0;
#X restore 59 24 pd SEND_MAPS;
#N canvas 119 447 677 367 RECEIVE_MAPS 0;
#X obj 63 50 r CANAL_MAP_FB;
#X obj 63 90 route map1 map2 map3 map4;
#N canvas 322 445 686 406 map1_2tab 0;
#X obj 51 90 route bex bey aex aey adx ady bdx bdy;
#X obj 51 131 arrast_2tab 0 \$0-vert_map1;
#X obj 96 161 arrast_2tab 1 \$0-vert_map1;
#X obj 142 191 arrast_2tab 2 \$0-vert_map1;
#X obj 188 221 arrast_2tab 3 \$0-vert_map1;
#X obj 235 251 arrast_2tab 4 \$0-vert_map1;
#X obj 280 281 arrast_2tab 5 \$0-vert_map1;
#X obj 326 311 arrast_2tab 6 \$0-vert_map1;
#X obj 372 341 arrast_2tab 7 \$0-vert_map1;
#X obj 51 41 inlet;
#X connect 0 0 1 0;
#X connect 0 1 2 0;
#X connect 0 2 3 0;
#X connect 0 3 4 0;
#X connect 0 4 5 0;
#X connect 0 5 6 0;
#X connect 0 6 7 0;
#X connect 0 7 8 0;
#X connect 9 0 0 0;
#X restore 63 132 pd map1_2tab;
#N canvas 108 147 686 406 map2_2tab 0;
#X obj 51 90 route bex bey aex aey adx ady bdx bdy;
#X obj 51 41 inlet;
#X obj 52 131 arrast_2tab 0 \$0-vert_map2;
#X obj 96 161 arrast_2tab 1 \$0-vert_map2;
#X obj 142 191 arrast_2tab 2 \$0-vert_map2;
#X obj 188 221 arrast_2tab 3 \$0-vert_map2;
#X obj 235 251 arrast_2tab 4 \$0-vert_map2;
#X obj 280 281 arrast_2tab 5 \$0-vert_map2;
#X obj 326 311 arrast_2tab 6 \$0-vert_map2;
#X obj 372 341 arrast_2tab 7 \$0-vert_map2;
#X connect 0 0 2 0;
#X connect 0 1 3 0;
#X connect 0 2 4 0;
#X connect 0 3 5 0;
#X connect 0 4 6 0;
#X connect 0 5 7 0;
#X connect 0 6 8 0;
#X connect 0 7 9 0;
#X connect 1 0 0 0;
#X restore 203 132 pd map2_2tab;
#N canvas 108 147 686 406 map3_2tab 0;
#X obj 51 90 route bex bey aex aey adx ady bdx bdy;
#X obj 51 41 inlet;
#X obj 51 131 arrast_2tab 0 \$0-vert_map3;
#X obj 96 161 arrast_2tab 1 \$0-vert_map3;
#X obj 142 191 arrast_2tab 2 \$0-vert_map3;
#X obj 188 221 arrast_2tab 3 \$0-vert_map3;
#X obj 235 251 arrast_2tab 4 \$0-vert_map3;
#X obj 280 281 arrast_2tab 5 \$0-vert_map3;
#X obj 326 311 arrast_2tab 6 \$0-vert_map3;
#X obj 372 341 arrast_2tab 7 \$0-vert_map3;
#X connect 0 0 2 0;
#X connect 0 1 3 0;
#X connect 0 2 4 0;
#X connect 0 3 5 0;
#X connect 0 4 6 0;
#X connect 0 5 7 0;
#X connect 0 6 8 0;
#X connect 0 7 9 0;
#X connect 1 0 0 0;
#X restore 343 132 pd map3_2tab;
#N canvas 109 147 686 406 map4_2tab 0;
#X obj 51 90 route bex bey aex aey adx ady bdx bdy;
#X obj 51 41 inlet;
#X obj 51 131 arrast_2tab 0 \$0-vert_map4;
#X obj 96 161 arrast_2tab 1 \$0-vert_map4;
#X obj 142 191 arrast_2tab 2 \$0-vert_map4;
#X obj 188 221 arrast_2tab 3 \$0-vert_map4;
#X obj 235 251 arrast_2tab 4 \$0-vert_map4;
#X obj 280 281 arrast_2tab 5 \$0-vert_map4;
#X obj 326 311 arrast_2tab 6 \$0-vert_map4;
#X obj 372 341 arrast_2tab 7 \$0-vert_map4;
#X connect 0 0 2 0;
#X connect 0 1 3 0;
#X connect 0 2 4 0;
#X connect 0 3 5 0;
#X connect 0 4 6 0;
#X connect 0 5 7 0;
#X connect 0 6 8 0;
#X connect 0 7 9 0;
#X connect 1 0 0 0;
#X restore 483 132 pd map4_2tab;
#X obj 63 210 r CANAL_MAP_FB;
#X obj 63 250 route map1 map2 map3 map4;
#N canvas 37 238 1058 306 map1_fb 0;
#X obj 51 150 route bex bey aex aey adx ady bdx bdy;
#X obj 51 41 inlet;
#X obj 51 236 s \$0-bex_in;
#X msg 51 202 set \$1;
#X obj 169 39 r \$0-active_map;
#X obj 51 100 spigot 0;
#X obj 169 75 == 1;
#X msg 171 202 set \$1;
#X msg 291 202 set \$1;
#X msg 411 202 set \$1;
#X obj 171 236 s \$0-bey_in;
#X obj 291 236 s \$0-aex_in;
#X obj 411 236 s \$0-aey_in;
#X msg 531 202 set \$1;
#X msg 651 202 set \$1;
#X obj 531 236 s \$0-adx_in;
#X obj 651 236 s \$0-ady_in;
#X msg 771 202 set \$1;
#X msg 891 202 set \$1;
#X obj 771 236 s \$0-bdx_in;
#X obj 891 236 s \$0-bdy_in;
#X connect 0 0 3 0;
#X connect 0 1 7 0;
#X connect 0 2 8 0;
#X connect 0 3 9 0;
#X connect 0 4 13 0;
#X connect 0 5 14 0;
#X connect 0 6 17 0;
#X connect 0 7 18 0;
#X connect 1 0 5 0;
#X connect 3 0 2 0;
#X connect 4 0 6 0;
#X connect 5 0 0 0;
#X connect 6 0 5 1;
#X connect 7 0 10 0;
#X connect 8 0 11 0;
#X connect 9 0 12 0;
#X connect 13 0 15 0;
#X connect 14 0 16 0;
#X connect 17 0 19 0;
#X connect 18 0 20 0;
#X restore 63 292 pd map1_fb;
#N canvas 46 238 1058 306 map2_fb 0;
#X obj 51 150 route bex bey aex aey adx ady bdx bdy;
#X obj 51 41 inlet;
#X obj 51 236 s \$0-bex_in;
#X msg 51 202 set \$1;
#X obj 169 39 r \$0-active_map;
#X obj 51 100 spigot 0;
#X msg 171 202 set \$1;
#X msg 291 202 set \$1;
#X msg 411 202 set \$1;
#X obj 171 236 s \$0-bey_in;
#X obj 291 236 s \$0-aex_in;
#X obj 411 236 s \$0-aey_in;
#X msg 531 202 set \$1;
#X msg 651 202 set \$1;
#X obj 531 236 s \$0-adx_in;
#X obj 651 236 s \$0-ady_in;
#X msg 771 202 set \$1;
#X msg 891 202 set \$1;
#X obj 771 236 s \$0-bdx_in;
#X obj 891 236 s \$0-bdy_in;
#X obj 169 75 == 2;
#X connect 0 0 3 0;
#X connect 0 1 6 0;
#X connect 0 2 7 0;
#X connect 0 3 8 0;
#X connect 0 4 12 0;
#X connect 0 5 13 0;
#X connect 0 6 16 0;
#X connect 0 7 17 0;
#X connect 1 0 5 0;
#X connect 3 0 2 0;
#X connect 4 0 20 0;
#X connect 5 0 0 0;
#X connect 6 0 9 0;
#X connect 7 0 10 0;
#X connect 8 0 11 0;
#X connect 12 0 14 0;
#X connect 13 0 15 0;
#X connect 16 0 18 0;
#X connect 17 0 19 0;
#X connect 20 0 5 1;
#X restore 183 292 pd map2_fb;
#N canvas 45 238 1058 306 map3_fb 0;
#X obj 51 150 route bex bey aex aey adx ady bdx bdy;
#X obj 51 41 inlet;
#X obj 51 236 s \$0-bex_in;
#X msg 51 202 set \$1;
#X obj 169 39 r \$0-active_map;
#X obj 51 100 spigot 0;
#X msg 171 202 set \$1;
#X msg 291 202 set \$1;
#X msg 411 202 set \$1;
#X obj 171 236 s \$0-bey_in;
#X obj 291 236 s \$0-aex_in;
#X obj 411 236 s \$0-aey_in;
#X msg 531 202 set \$1;
#X msg 651 202 set \$1;
#X obj 531 236 s \$0-adx_in;
#X obj 651 236 s \$0-ady_in;
#X msg 771 202 set \$1;
#X msg 891 202 set \$1;
#X obj 771 236 s \$0-bdx_in;
#X obj 891 236 s \$0-bdy_in;
#X obj 169 75 == 3;
#X connect 0 0 3 0;
#X connect 0 1 6 0;
#X connect 0 2 7 0;
#X connect 0 3 8 0;
#X connect 0 4 12 0;
#X connect 0 5 13 0;
#X connect 0 6 16 0;
#X connect 0 7 17 0;
#X connect 1 0 5 0;
#X connect 3 0 2 0;
#X connect 4 0 20 0;
#X connect 5 0 0 0;
#X connect 6 0 9 0;
#X connect 7 0 10 0;
#X connect 8 0 11 0;
#X connect 12 0 14 0;
#X connect 13 0 15 0;
#X connect 16 0 18 0;
#X connect 17 0 19 0;
#X connect 20 0 5 1;
#X restore 303 292 pd map3_fb;
#N canvas 45 238 1058 306 map4_fb 0;
#X obj 51 150 route bex bey aex aey adx ady bdx bdy;
#X obj 51 41 inlet;
#X obj 51 236 s \$0-bex_in;
#X msg 51 202 set \$1;
#X obj 169 39 r \$0-active_map;
#X obj 51 100 spigot 0;
#X msg 171 202 set \$1;
#X msg 291 202 set \$1;
#X msg 411 202 set \$1;
#X obj 171 236 s \$0-bey_in;
#X obj 291 236 s \$0-aex_in;
#X obj 411 236 s \$0-aey_in;
#X msg 531 202 set \$1;
#X msg 651 202 set \$1;
#X obj 531 236 s \$0-adx_in;
#X obj 651 236 s \$0-ady_in;
#X msg 771 202 set \$1;
#X msg 891 202 set \$1;
#X obj 771 236 s \$0-bdx_in;
#X obj 891 236 s \$0-bdy_in;
#X obj 169 75 == 4;
#X connect 0 0 3 0;
#X connect 0 1 6 0;
#X connect 0 2 7 0;
#X connect 0 3 8 0;
#X connect 0 4 12 0;
#X connect 0 5 13 0;
#X connect 0 6 16 0;
#X connect 0 7 17 0;
#X connect 1 0 5 0;
#X connect 3 0 2 0;
#X connect 4 0 20 0;
#X connect 5 0 0 0;
#X connect 6 0 9 0;
#X connect 7 0 10 0;
#X connect 8 0 11 0;
#X connect 12 0 14 0;
#X connect 13 0 15 0;
#X connect 16 0 18 0;
#X connect 17 0 19 0;
#X connect 20 0 5 1;
#X restore 423 292 pd map4_fb;
#X connect 0 0 1 0;
#X connect 1 0 2 0;
#X connect 1 1 3 0;
#X connect 1 2 4 0;
#X connect 1 3 5 0;
#X connect 6 0 7 0;
#X connect 7 0 8 0;
#X connect 7 1 9 0;
#X connect 7 2 10 0;
#X connect 7 3 11 0;
#X restore 59 62 pd RECEIVE_MAPS;
#N canvas 49 220 1059 370 LOAD_ACTIVE 0;
#X obj 52 41 r \$0-active_map;
#X floatatom 52 71 5 0 0 0 - - -, f 5;
#X obj 52 327 s \$0-bex_in;
#X obj 172 327 s \$0-bey_in;
#X obj 292 327 s \$0-aex_in;
#X obj 412 327 s \$0-aey_in;
#X obj 532 327 s \$0-adx_in;
#X obj 652 327 s \$0-ady_in;
#X obj 772 327 s \$0-bdx_in;
#X obj 892 327 s \$0-bdy_in;
#X obj 52 250 tabread;
#X msg 772 157 set \$2-vert_map\$1;
#X obj 772 126 pack f \$0;
#X obj 52 101 t b b b b b b b b f;
#X msg 52 214 0;
#X obj 172 250 tabread;
#X obj 292 250 tabread;
#X obj 412 250 tabread;
#X obj 532 250 tabread;
#X obj 652 250 tabread;
#X obj 772 250 tabread;
#X obj 892 250 tabread;
#X msg 172 214 1;
#X msg 292 214 2;
#X msg 412 214 3;
#X msg 532 214 4;
#X msg 652 214 5;
#X msg 772 214 6;
#X msg 892 214 7;
#X msg 52 288 set \$1;
#X msg 172 288 set \$1;
#X msg 292 288 set \$1;
#X msg 412 288 set \$1;
#X msg 532 288 set \$1;
#X msg 652 288 set \$1;
#X msg 772 288 set \$1;
#X msg 892 288 set \$1;
#X connect 0 0 1 0;
#X connect 1 0 13 0;
#X connect 10 0 29 0;
#X connect 11 0 10 0;
#X connect 11 0 15 0;
#X connect 11 0 16 0;
#X connect 11 0 17 0;
#X connect 11 0 18 0;
#X connect 11 0 19 0;
#X connect 11 0 20 0;
#X connect 11 0 21 0;
#X connect 12 0 11 0;
#X connect 13 0 14 0;
#X connect 13 1 22 0;
#X connect 13 2 23 0;
#X connect 13 3 24 0;
#X connect 13 4 25 0;
#X connect 13 5 26 0;
#X connect 13 6 27 0;
#X connect 13 7 28 0;
#X connect 13 8 12 0;
#X connect 14 0 10 0;
#X connect 15 0 30 0;
#X connect 16 0 31 0;
#X connect 17 0 32 0;
#X connect 18 0 33 0;
#X connect 19 0 34 0;
#X connect 20 0 35 0;
#X connect 21 0 36 0;
#X connect 22 0 15 0;
#X connect 23 0 16 0;
#X connect 24 0 17 0;
#X connect 25 0 18 0;
#X connect 26 0 19 0;
#X connect 27 0 20 0;
#X connect 28 0 21 0;
#X connect 29 0 2 0;
#X connect 30 0 3 0;
#X connect 31 0 4 0;
#X connect 32 0 5 0;
#X connect 33 0 6 0;
#X connect 34 0 7 0;
#X connect 35 0 8 0;
#X connect 36 0 9 0;
#X restore 59 101 pd LOAD_ACTIVE;
#N canvas 302 334 577 336 PRESET_LOAD 0;
#X obj 59 51 r \$0-map_preset_send;
#X obj 186 107 route 1 2 3 4;
#X obj 59 82 t b l;
#N canvas 570 152 606 265 CH_1 0;
#X obj 51 80 list split 8;
#X obj 51 161 list prepend 0;
#X obj 51 193 s \$0-vert_map1;
#X obj 221 105 list split 1;
#X obj 221 193 tabwrite \$0-on_masks;
#X msg 386 165 0;
#X obj 221 140 t f b;
#X obj 453 130 symbol;
#X obj 453 193 s \$0-mask1;
#X obj 51 24 inlet;
#X connect 0 0 1 0;
#X connect 0 1 3 0;
#X connect 1 0 2 0;
#X connect 3 0 6 0;
#X connect 3 1 7 0;
#X connect 5 0 4 1;
#X connect 6 0 4 0;
#X connect 6 1 5 0;
#X connect 7 0 8 0;
#X connect 9 0 0 0;
#X restore 186 149 pd CH_1;
#N canvas 654 225 606 265 CH_2 0;
#X obj 51 78 list split 8;
#X obj 51 161 list prepend 0;
#X obj 221 103 list split 1;
#X obj 221 193 tabwrite \$0-on_masks;
#X obj 221 140 t f b;
#X obj 453 128 symbol;
#X obj 51 24 inlet;
#X obj 51 193 s \$0-vert_map2;
#X msg 386 165 1;
#X obj 453 193 s \$0-mask2;
#X connect 0 0 1 0;
#X connect 0 1 2 0;
#X connect 1 0 7 0;
#X connect 2 0 4 0;
#X connect 2 1 5 0;
#X connect 4 0 3 0;
#X connect 4 1 8 0;
#X connect 5 0 9 0;
#X connect 6 0 0 0;
#X connect 8 0 3 1;
#X restore 276 149 pd CH_2;
#N canvas 652 225 606 265 CH_3 0;
#X obj 51 79 list split 8;
#X obj 51 161 list prepend 0;
#X obj 221 105 list split 1;
#X obj 221 193 tabwrite \$0-on_masks;
#X obj 221 140 t f b;
#X obj 453 130 symbol;
#X obj 51 24 inlet;
#X obj 51 193 s \$0-vert_map3;
#X msg 386 165 2;
#X obj 453 193 s \$0-mask3;
#X connect 0 0 1 0;
#X connect 0 1 2 0;
#X connect 1 0 7 0;
#X connect 2 0 4 0;
#X connect 2 1 5 0;
#X connect 4 0 3 0;
#X connect 4 1 8 0;
#X connect 5 0 9 0;
#X connect 6 0 0 0;
#X connect 8 0 3 1;
#X restore 366 149 pd CH_3;
#N canvas 649 225 606 264 CH_4 0;
#X obj 51 80 list split 8;
#X obj 51 161 list prepend 0;
#X obj 221 105 list split 1;
#X obj 221 193 tabwrite \$0-on_masks;
#X obj 221 140 t f b;
#X obj 453 130 symbol;
#X obj 51 24 inlet;
#X obj 51 193 s \$0-vert_map4;
#X msg 386 165 3;
#X obj 453 193 s \$0-mask4;
#X connect 0 0 1 0;
#X connect 0 1 2 0;
#X connect 1 0 7 0;
#X connect 2 0 4 0;
#X connect 2 1 5 0;
#X connect 4 0 3 0;
#X connect 4 1 8 0;
#X connect 5 0 9 0;
#X connect 6 0 0 0;
#X connect 8 0 3 1;
#X restore 456 149 pd CH_4;
#X obj 59 189 s \$0-flush_act_map;
#X obj 126 253 s \$0-flush_map_tabs;
#X obj 59 153 t b b b;
#X obj 91 221 s \$0-flush_on_masks;
#X connect 0 0 2 0;
#X connect 1 0 3 0;
#X connect 1 1 4 0;
#X connect 1 2 5 0;
#X connect 1 3 6 0;
#X connect 2 0 9 0;
#X connect 2 1 1 0;
#X connect 9 0 7 0;
#X connect 9 1 10 0;
#X connect 9 2 8 0;
#X restore 365 72 pd PRESET_LOAD;
#X connect 4 0 5 0;
#X restore 49 158 pd VERTICES;
#N canvas 202 234 878 300 MAP_GUI_COLORS 0;
#X obj 45 176 r \$0-click_m1;
#X msg 45 205 color 13;
#X obj 45 236 s \$0-map_sel_color;
#X obj 245 236 s \$0-map_sel_color;
#X obj 445 236 s \$0-map_sel_color;
#X obj 645 236 s \$0-map_sel_color;
#X msg 245 205 color 15;
#X obj 245 176 r \$0-click_m2;
#X obj 445 176 r \$0-click_m3;
#X obj 645 176 r \$0-click_m4;
#X msg 445 205 color 19;
#X msg 645 205 color 16;
#X obj 45 41 loadbang;
#X obj 45 117 s \$0-m1_color;
#X obj 245 117 s \$0-m2_color;
#X obj 445 117 s \$0-m3_color;
#X obj 645 117 s \$0-m4_color;
#X msg 45 86 color 13 22;
#X msg 245 86 color 15 22;
#X msg 445 86 color 19 22;
#X msg 645 86 color 16 22;
#X connect 0 0 1 0;
#X connect 1 0 2 0;
#X connect 6 0 3 0;
#X connect 7 0 6 0;
#X connect 8 0 10 0;
#X connect 9 0 11 0;
#X connect 10 0 4 0;
#X connect 11 0 5 0;
#X connect 12 0 17 0;
#X connect 12 0 18 0;
#X connect 12 0 19 0;
#X connect 12 0 20 0;
#X connect 17 0 13 0;
#X connect 18 0 14 0;
#X connect 19 0 15 0;
#X connect 20 0 16 0;
#X restore 49 75 pd MAP_GUI_COLORS;
#N canvas 189 159 1098 530 EDIT_MAP 0;
#X obj 48 39 r \$0-edit_map;
#X obj 48 477 s CANAL_MAP;
#X obj 895 135 r \$0-active_map;
#X floatatom 895 163 5 0 0 0 - - -, f 5;
#X obj 48 397 list prepend map1;
#X obj 268 477 s CANAL_MAP;
#X obj 488 477 s CANAL_MAP;
#X obj 708 477 s CANAL_MAP;
#X obj 268 397 list prepend map2;
#X obj 488 397 list prepend map3;
#X obj 708 397 list prepend map4;
#X msg 48 249 0;
#X msg 98 249 1;
#X obj 48 367 list prepend edit;
#X obj 48 287 t f f;
#X obj 95 321 s \$0-ed_state_1;
#X msg 268 249 0;
#X msg 318 249 1;
#X obj 268 287 t f f;
#X msg 488 249 0;
#X msg 538 249 1;
#X obj 488 287 t f f;
#X msg 708 249 0;
#X msg 758 249 1;
#X obj 708 287 t f f;
#X obj 315 321 s \$0-ed_state_2;
#X obj 535 321 s \$0-ed_state_3;
#X obj 755 321 s \$0-ed_state_4;
#X obj 268 367 list prepend edit;
#X obj 488 367 list prepend edit;
#X obj 708 367 list prepend edit;
#X obj 98 215 spigot;
#X obj 155 185 == 1;
#X obj 318 215 spigot;
#X obj 538 215 spigot;
#X obj 758 215 spigot;
#X obj 375 185 == 2;
#X obj 595 185 == 3;
#X obj 815 185 == 4;
#X obj 48 75 sel 0 1;
#X obj 98 109 t b b;
#X obj 48 109 t b;
#N canvas 96 233 785 349 LOAD_ACTIVE 0;
#X obj 74 154 r \$0-ed_state_1;
#X obj 244 154 r \$0-ed_state_2;
#X obj 414 154 r \$0-ed_state_3;
#X obj 584 154 r \$0-ed_state_4;
#X obj 47 188 f;
#X obj 217 188 f;
#X obj 387 188 f;
#X obj 557 188 f;
#X obj 47 45 r \$0-active_map;
#X obj 47 81 sel 1 2 3 4;
#X obj 47 287 s \$0-edit_map_in;
#X msg 47 255 set \$1;
#X connect 0 0 4 1;
#X connect 1 0 5 1;
#X connect 2 0 6 1;
#X connect 3 0 7 1;
#X connect 4 0 11 0;
#X connect 5 0 11 0;
#X connect 6 0 11 0;
#X connect 7 0 11 0;
#X connect 8 0 9 0;
#X connect 9 0 4 0;
#X connect 9 1 5 0;
#X connect 9 2 6 0;
#X connect 9 3 7 0;
#X connect 11 0 10 0;
#X restore 450 39 pd LOAD_ACTIVE;
#X connect 0 0 39 0;
#X connect 2 0 3 0;
#X connect 3 0 32 0;
#X connect 3 0 36 0;
#X connect 3 0 37 0;
#X connect 3 0 38 0;
#X connect 4 0 1 0;
#X connect 8 0 5 0;
#X connect 9 0 6 0;
#X connect 11 0 14 0;
#X connect 12 0 14 0;
#X connect 13 0 4 0;
#X connect 14 0 13 0;
#X connect 14 1 15 0;
#X connect 16 0 18 0;
#X connect 17 0 18 0;
#X connect 18 0 28 0;
#X connect 18 1 25 0;
#X connect 19 0 21 0;
#X connect 20 0 21 0;
#X connect 21 0 29 0;
#X connect 21 1 26 0;
#X connect 22 0 24 0;
#X connect 23 0 24 0;
#X connect 24 0 30 0;
#X connect 24 1 27 0;
#X connect 28 0 8 0;
#X connect 29 0 9 0;
#X connect 30 0 10 0;
#X connect 31 0 12 0;
#X connect 32 0 31 1;
#X connect 33 0 17 0;
#X connect 34 0 20 0;
#X connect 35 0 23 0;
#X connect 36 0 33 1;
#X connect 37 0 34 1;
#X connect 38 0 35 1;
#X connect 39 0 41 0;
#X connect 39 1 40 0;
#X connect 40 0 31 0;
#X connect 40 0 33 0;
#X connect 40 0 34 0;
#X connect 40 0 35 0;
#X connect 40 1 22 0;
#X connect 40 1 19 0;
#X connect 40 1 16 0;
#X connect 40 1 11 0;
#X connect 41 0 11 0;
#X connect 41 0 16 0;
#X connect 41 0 19 0;
#X connect 41 0 22 0;
#X restore 49 193 pd EDIT_MAP;
#N canvas 263 335 1173 498 INIT_RESET_FULL 0;
#X msg 144 111 0 -5.33 1 -5.33 4 -1 4 -1 1;
#X obj 144 146 s \$0-vert_map1;
#X msg 144 191 0 1 1 1 4 5.33 4 5.33 1;
#X msg 144 271 0 -5.33 -4 -5.33 -1 -1 -1 -1 -4;
#X msg 144 351 0 1 -4 1 -1 5.33 -1 5.33 -4;
#X obj 37 10 loadbang;
#X obj 144 226 s \$0-vert_map2;
#X obj 144 306 s \$0-vert_map3;
#X obj 144 386 s \$0-vert_map4;
#X obj 37 78 t b b b b b;
#N canvas 84 184 1154 555 flush_tables 0;
#X obj 62 300 tabread;
#X msg 1082 207 set \$2-vert_map\$1;
#X obj 1082 176 pack f \$0;
#X msg 62 264 0;
#X obj 232 300 tabread;
#X obj 402 300 tabread;
#X obj 572 300 tabread;
#X obj 742 300 tabread;
#X obj 912 300 tabread;
#X obj 1082 300 tabread;
#X obj 1252 300 tabread;
#X msg 232 264 1;
#X msg 402 264 2;
#X msg 572 264 3;
#X msg 742 264 4;
#X msg 912 264 5;
#X msg 1082 264 6;
#X msg 1252 264 7;
#X obj 62 354 list prepend bex;
#X obj 232 354 list prepend bey;
#X obj 402 354 list prepend aex;
#X obj 572 354 list prepend aey;
#X obj 742 354 list prepend adx;
#X obj 912 354 list prepend ady;
#X obj 1082 354 list prepend bdx;
#X obj 1252 354 list prepend bdy;
#X obj 62 433 list prepend;
#X msg 179 401 map\$1;
#X obj 62 151 t b b b b b b b b f f;
#X obj 62 479 s CANAL_MAP;
#X obj 62 80 t b b b b;
#X msg 212 113 4;
#X msg 162 113 3;
#X msg 112 113 2;
#X msg 62 113 1;
#X obj 62 30 inlet;
#X obj 149 30 r \$0-flush_map_tabs;
#X connect 0 0 18 0;
#X connect 1 0 0 0;
#X connect 1 0 4 0;
#X connect 1 0 5 0;
#X connect 1 0 6 0;
#X connect 1 0 7 0;
#X connect 1 0 8 0;
#X connect 1 0 9 0;
#X connect 1 0 10 0;
#X connect 2 0 1 0;
#X connect 3 0 0 0;
#X connect 4 0 19 0;
#X connect 5 0 20 0;
#X connect 6 0 21 0;
#X connect 7 0 22 0;
#X connect 8 0 23 0;
#X connect 9 0 24 0;
#X connect 10 0 25 0;
#X connect 11 0 4 0;
#X connect 12 0 5 0;
#X connect 13 0 6 0;
#X connect 14 0 7 0;
#X connect 15 0 8 0;
#X connect 16 0 9 0;
#X connect 17 0 10 0;
#X connect 18 0 26 0;
#X connect 19 0 26 0;
#X connect 20 0 26 0;
#X connect 21 0 26 0;
#X connect 22 0 26 0;
#X connect 23 0 26 0;
#X connect 24 0 26 0;
#X connect 25 0 26 0;
#X connect 26 0 29 0;
#X connect 27 0 26 1;
#X connect 28 0 3 0;
#X connect 28 1 11 0;
#X connect 28 2 12 0;
#X connect 28 3 13 0;
#X connect 28 4 14 0;
#X connect 28 5 15 0;
#X connect 28 6 16 0;
#X connect 28 7 17 0;
#X connect 28 8 2 0;
#X connect 28 9 27 0;
#X connect 30 0 34 0;
#X connect 30 1 33 0;
#X connect 30 2 32 0;
#X connect 30 3 31 0;
#X connect 31 0 28 0;
#X connect 32 0 28 0;
#X connect 33 0 28 0;
#X connect 34 0 28 0;
#X connect 35 0 30 0;
#X connect 36 0 30 0;
#X restore 37 441 pd flush_tables;
#X obj 136 63 bng 15 250 50 0 empty empty empty 17 7 0 10 -262144 -1
-1;
#X obj 504 62 r \$0-reset_act_map;
#X obj 531 101 r \$0-active_map;
#X obj 504 132 f;
#X obj 551 198 sel 1 2 3 4;
#X obj 504 165 t b f;
#X obj 504 244 s \$0-flush_map_tabs;
#X obj 818 181 r \$0-active_map;
#X obj 744 62 r \$0-full_act_map;
#X obj 791 281 s;
#X obj 818 212 pack f \$0;
#X msg 818 243 symbol \$2-vert_map\$1;
#X msg 791 138 0 -5.33 -4 -5.33 4 5.33 4 5.33 -4;
#X obj 744 101 t b b;
#X obj 744 321 s \$0-flush_map_tabs;
#X text 567 33 reset;
#X text 809 33 full;
#X connect 0 0 1 0;
#X connect 2 0 6 0;
#X connect 3 0 7 0;
#X connect 4 0 8 0;
#X connect 5 0 9 0;
#X connect 9 0 10 0;
#X connect 9 1 4 0;
#X connect 9 2 3 0;
#X connect 9 3 2 0;
#X connect 9 4 0 0;
#X connect 11 0 9 0;
#X connect 12 0 14 0;
#X connect 13 0 14 1;
#X connect 14 0 16 0;
#X connect 15 0 0 0;
#X connect 15 1 2 0;
#X connect 15 2 3 0;
#X connect 15 3 4 0;
#X connect 16 0 17 0;
#X connect 16 1 15 0;
#X connect 18 0 21 0;
#X connect 19 0 24 0;
#X connect 21 0 22 0;
#X connect 22 0 20 1;
#X connect 23 0 20 0;
#X connect 24 0 25 0;
#X connect 24 1 23 0;
#X restore 49 263 pd INIT_RESET_FULL;
#N canvas 398 140 473 628 MASTER 0;
#X obj 53 46 r \$0-master_act_map;
#X obj 241 187 r \$0-active_map;
#X obj 137 271 tabread;
#X msg 241 246 set \$2-vert_map\$1;
#X obj 241 217 pack f \$0;
#X obj 137 223 f;
#X obj 177 223 + 1;
#X msg 164 196 0;
#X obj 53 86 t b b b b;
#X obj 137 157 until;
#X msg 137 125 8;
#X obj 137 307 list prepend;
#X obj 267 307 list;
#X obj 100 346 list;
#X obj 100 376 list prepend 0;
#X obj 100 425 s \$0-vert_map1;
#X obj 100 455 s \$0-vert_map2;
#X obj 100 485 s \$0-vert_map3;
#X obj 100 515 s \$0-vert_map4;
#X obj 53 125 t b b;
#X obj 53 562 s \$0-flush_map_tabs;
#X connect 0 0 8 0;
#X connect 1 0 4 0;
#X connect 2 0 11 0;
#X connect 3 0 2 0;
#X connect 4 0 3 0;
#X connect 5 0 6 0;
#X connect 5 0 2 0;
#X connect 6 0 5 1;
#X connect 7 0 5 1;
#X connect 8 0 19 0;
#X connect 8 1 10 0;
#X connect 8 2 7 0;
#X connect 8 3 11 1;
#X connect 9 0 5 0;
#X connect 10 0 9 0;
#X connect 11 0 12 0;
#X connect 11 0 13 1;
#X connect 12 0 11 1;
#X connect 13 0 14 0;
#X connect 14 0 15 0;
#X connect 14 0 16 0;
#X connect 14 0 17 0;
#X connect 14 0 18 0;
#X connect 19 0 20 0;
#X connect 19 1 13 0;
#X restore 49 298 pd MASTER;
#N canvas 305 243 938 576 MASK 0;
#X obj 56 48 r \$0-click_mask_open;
#X obj 267 507 s \$0-mask_visor;
#X obj 56 208 openpanel;
#X obj 733 48 r \$0-active_map;
#N canvas 2 53 450 300 (subpatch) 0;
#X array \$0-on_masks 4 float 2;
#X coords 0 1.5 4 -0.5 200 140 1 0 0;
#X restore 536 392 graph;
#X obj 583 139 tabwrite \$0-on_masks;
#X obj 780 107 - 1;
#X obj 536 107 t f f;
#X obj 536 290 s CANAL_MAP;
#X obj 536 250 list prepend;
#X msg 653 221 map\$1;
#X obj 536 180 list prepend on_mask;
#X obj 536 48 r \$0-on_mask_map;
#X obj 153 251 r \$0-active_map;
#X obj 56 507 s CANAL_MAP;
#X obj 56 467 list prepend;
#X msg 173 439 map\$1;
#X obj 56 407 list prepend mask;
#X obj 56 253 t s s s;
#X obj 89 361 s;
#X obj 153 308 pack f \$0;
#X msg 153 336 symbol \$2-mask\$1;
#X obj 153 280 t f f;
#X msg 267 439 label \$1;
#N canvas 572 75 619 652 name_cut 0;
#X msg 342 57 symbol;
#X obj 342 29 loadbang;
#X obj 242 150 list length;
#X obj 185 122 t l l;
#X obj 185 250 spigot;
#X obj 285 250 spigot;
#X msg 338 357 ...;
#X obj 432 426 t l;
#X obj 311 426 list append;
#X obj 285 464 list;
#X obj 285 287 t b l b l b;
#X msg 342 535 symbol;
#X obj 342 507 loadbang;
#X text 265 118 ajusta nome para exibição;
#X obj 365 390 list split 7;
#X obj 482 194 - 10;
#X obj 38 4 inlet;
#X obj 185 604 outlet;
#X obj 242 194 <= 27;
#X obj 342 193 > 27;
#X obj 311 325 list split 14;
#X obj 185 86 zexy/symbol2list;
#X obj 38 42 iemlib/splitfilename /;
#X obj 185 568 zexy/list2symbol;
#X connect 0 0 21 1;
#X connect 1 0 0 0;
#X connect 2 0 15 0;
#X connect 2 0 18 0;
#X connect 2 0 19 0;
#X connect 3 0 5 0;
#X connect 3 0 4 0;
#X connect 3 1 2 0;
#X connect 4 0 23 0;
#X connect 5 0 10 0;
#X connect 6 0 8 0;
#X connect 7 0 8 1;
#X connect 8 0 7 0;
#X connect 8 0 9 1;
#X connect 9 0 23 0;
#X connect 10 0 9 0;
#X connect 10 1 20 0;
#X connect 10 2 6 0;
#X connect 10 3 14 0;
#X connect 10 4 8 1;
#X connect 11 0 23 1;
#X connect 12 0 11 0;
#X connect 14 1 8 0;
#X connect 15 0 14 1;
#X connect 16 0 22 0;
#X connect 18 0 4 1;
#X connect 19 0 5 1;
#X connect 20 0 8 0;
#X connect 21 0 3 0;
#X connect 22 1 21 0;
#X connect 23 0 17 0;
#X restore 267 407 pd name_cut;
#X obj 733 77 t f f;
#N canvas 202 137 663 486 LOAD_ACTIVE 0;
#X obj 423 129 r \$0-mask1;
#X obj 53 214 s \$0-on_mask_map_in;
#X obj 53 154 tabread \$0-on_masks;
#X obj 53 125 - 1;
#X msg 53 184 set \$1;
#X obj 53 47 r \$0-active_map;
#X obj 276 154 symbol vazio;
#X obj 276 184 symbol vazio;
#X obj 276 214 symbol vazio;
#X obj 276 244 symbol vazio;
#X obj 423 159 r \$0-mask2;
#X obj 423 189 r \$0-mask3;
#X obj 423 219 r \$0-mask4;
#X msg 276 365 label abrir_máscara;
#X obj 296 333 loadbang;
#X obj 276 423 s \$0-mask_visor;
#X msg 491 365 label \$1;
#N canvas 571 75 619 652 name_cut 0;
#X msg 342 57 symbol;
#X obj 342 29 loadbang;
#X obj 242 150 list length;
#X obj 185 122 t l l;
#X obj 185 250 spigot;
#X obj 285 250 spigot;
#X msg 338 357 ...;
#X obj 432 426 t l;
#X obj 311 426 list append;
#X obj 285 464 list;
#X obj 285 287 t b l b l b;
#X msg 342 534 symbol;
#X obj 342 506 loadbang;
#X text 265 117 ajusta nome para exibição;
#X obj 365 390 list split 7;
#X obj 482 194 - 10;
#X obj 38 4 inlet;
#X obj 185 604 outlet;
#X obj 242 194 <= 27;
#X obj 342 193 > 27;
#X obj 311 325 list split 14;
#X obj 185 86 zexy/symbol2list;
#X obj 38 42 iemlib/splitfilename /;
#X obj 185 568 zexy/list2symbol;
#X connect 0 0 21 1;
#X connect 1 0 0 0;
#X connect 2 0 15 0;
#X connect 2 0 18 0;
#X connect 2 0 19 0;
#X connect 3 0 5 0;
#X connect 3 0 4 0;
#X connect 3 1 2 0;
#X connect 4 0 23 0;
#X connect 5 0 10 0;
#X connect 6 0 8 0;
#X connect 7 0 8 1;
#X connect 8 0 7 0;
#X connect 8 0 9 1;
#X connect 9 0 23 0;
#X connect 10 0 9 0;
#X connect 10 1 20 0;
#X connect 10 2 6 0;
#X connect 10 3 14 0;
#X connect 10 4 8 1;
#X connect 11 0 23 1;
#X connect 12 0 11 0;
#X connect 14 1 8 0;
#X connect 15 0 14 1;
#X connect 16 0 22 0;
#X connect 18 0 4 1;
#X connect 19 0 5 1;
#X connect 20 0 8 0;
#X connect 21 0 3 0;
#X connect 22 1 21 0;
#X connect 23 0 17 0;
#X restore 491 333 pd name_cut;
#X obj 53 84 t f f;
#X obj 276 109 sel 1 2 3 4;
#X obj 276 288 sel vazio;
#X connect 0 0 6 1;
#X connect 2 0 4 0;
#X connect 3 0 2 0;
#X connect 4 0 1 0;
#X connect 5 0 18 0;
#X connect 6 0 20 0;
#X connect 7 0 20 0;
#X connect 8 0 20 0;
#X connect 9 0 20 0;
#X connect 10 0 7 1;
#X connect 11 0 8 1;
#X connect 12 0 9 1;
#X connect 13 0 15 0;
#X connect 14 0 13 0;
#X connect 16 0 15 0;
#X connect 17 0 16 0;
#X connect 18 0 3 0;
#X connect 18 1 19 0;
#X connect 19 0 6 0;
#X connect 19 1 7 0;
#X connect 19 2 8 0;
#X connect 19 3 9 0;
#X connect 20 0 13 0;
#X connect 20 1 17 0;
#X restore 327 48 pd LOAD_ACTIVE;
#N canvas 336 298 839 500 PRESET_LOAD 0;
#X obj 59 261 s CANAL_MAP;
#X obj 59 221 list prepend;
#X msg 176 193 map\$1;
#X obj 59 151 list prepend mask;
#X obj 59 49 r \$0-mask1;
#X obj 179 49 r \$0-mask2;
#X obj 299 49 r \$0-mask3;
#X obj 419 49 r \$0-mask4;
#X obj 59 79 t s b;
#X msg 106 109 1;
#X obj 179 79 t s b;
#X obj 299 79 t s b;
#X obj 419 79 t s b;
#X msg 226 109 2;
#X msg 346 109 3;
#X msg 466 109 4;
#X obj 579 49 r \$0-flush_on_masks;
#X obj 579 434 s CANAL_MAP;
#X obj 579 394 list prepend;
#X msg 696 365 map\$1;
#X obj 579 304 list prepend on_mask;
#X obj 579 269 tabread \$0-on_masks;
#X obj 579 206 f;
#X obj 619 206 + 1;
#X msg 606 178 0;
#X obj 579 141 until;
#X msg 579 111 4;
#X obj 579 234 t f f;
#X obj 696 338 + 1;
#X obj 579 80 t b b;
#X connect 1 0 0 0;
#X connect 2 0 1 1;
#X connect 3 0 1 0;
#X connect 4 0 8 0;
#X connect 5 0 10 0;
#X connect 6 0 11 0;
#X connect 7 0 12 0;
#X connect 8 0 3 0;
#X connect 8 1 9 0;
#X connect 9 0 2 0;
#X connect 10 0 3 0;
#X connect 10 1 13 0;
#X connect 11 0 3 0;
#X connect 11 1 14 0;
#X connect 12 0 3 0;
#X connect 12 1 15 0;
#X connect 13 0 2 0;
#X connect 14 0 2 0;
#X connect 15 0 2 0;
#X connect 16 0 29 0;
#X connect 18 0 17 0;
#X connect 19 0 18 1;
#X connect 20 0 18 0;
#X connect 21 0 20 0;
#X connect 22 0 23 0;
#X connect 22 0 27 0;
#X connect 23 0 22 1;
#X connect 24 0 22 1;
#X connect 25 0 22 0;
#X connect 26 0 25 0;
#X connect 27 0 21 0;
#X connect 27 1 28 0;
#X connect 28 0 19 0;
#X connect 29 0 26 0;
#X connect 29 1 24 0;
#X restore 327 89 pd PRESET_LOAD;
#X obj 56 81 t b;
#X obj 56 125 ggee/getdir;
#X obj 56 159 makefilename %s/Mascaras;
#X connect 0 0 28 0;
#X connect 2 0 18 0;
#X connect 3 0 25 0;
#X connect 6 0 5 1;
#X connect 7 0 11 0;
#X connect 7 1 5 0;
#X connect 9 0 8 0;
#X connect 10 0 9 1;
#X connect 11 0 9 0;
#X connect 12 0 7 0;
#X connect 13 0 22 0;
#X connect 15 0 14 0;
#X connect 16 0 15 1;
#X connect 17 0 15 0;
#X connect 18 0 17 0;
#X connect 18 1 19 0;
#X connect 18 2 24 0;
#X connect 20 0 21 0;
#X connect 21 0 19 1;
#X connect 22 0 20 0;
#X connect 22 1 16 0;
#X connect 23 0 1 0;
#X connect 24 0 23 0;
#X connect 25 0 10 0;
#X connect 25 1 6 0;
#X connect 28 0 29 0;
#X connect 29 0 30 0;
#X connect 30 0 2 0;
#X restore 49 228 pd MASK;
#N canvas 358 399 628 216 PRESETS 0;
#X obj 258 143 s \$0-map_preset_visor;
#X msg 258 110 label \$1;
#N canvas 569 75 619 652 name_cut 0;
#X msg 342 57 symbol;
#X obj 342 29 loadbang;
#X obj 242 150 list length;
#X obj 185 122 t l l;
#X obj 185 250 spigot;
#X obj 285 250 spigot;
#X msg 338 357 ...;
#X obj 432 426 t l;
#X obj 311 426 list append;
#X obj 285 464 list;
#X obj 285 287 t b l b l b;
#X msg 342 535 symbol;
#X obj 342 507 loadbang;
#X text 275 116 ajusta nome para exibição;
#X obj 365 390 list split 7;
#X obj 482 194 - 10;
#X obj 38 4 inlet;
#X obj 185 604 outlet;
#X obj 242 194 <= 35;
#X obj 342 193 > 35;
#X obj 311 325 list split 22;
#X obj 185 86 zexy/symbol2list;
#X obj 38 42 iemlib/splitfilename /;
#X obj 185 568 zexy/list2symbol;
#X connect 0 0 21 1;
#X connect 1 0 0 0;
#X connect 2 0 15 0;
#X connect 2 0 18 0;
#X connect 2 0 19 0;
#X connect 3 0 5 0;
#X connect 3 0 4 0;
#X connect 3 1 2 0;
#X connect 4 0 23 0;
#X connect 5 0 10 0;
#X connect 6 0 8 0;
#X connect 7 0 8 1;
#X connect 8 0 7 0;
#X connect 8 0 9 1;
#X connect 9 0 23 0;
#X connect 10 0 9 0;
#X connect 10 1 20 0;
#X connect 10 2 6 0;
#X connect 10 3 14 0;
#X connect 10 4 8 1;
#X connect 11 0 23 1;
#X connect 12 0 11 0;
#X connect 14 1 8 0;
#X connect 15 0 14 1;
#X connect 16 0 22 0;
#X connect 18 0 4 1;
#X connect 19 0 5 1;
#X connect 20 0 8 0;
#X connect 21 0 3 0;
#X connect 22 1 21 0;
#X connect 23 0 17 0;
#X restore 258 78 pd name_cut;
#N canvas 288 105 591 473 OPEN_PRESET 0;
#X obj 153 36 r \$0-click_map_open;
#X obj 153 215 openpanel;
#X obj 121 361 textfile;
#X msg 211 313 read \$1;
#X obj 51 279 until;
#X obj 121 411 s \$0-map_preset_send;
#X msg 51 313 bang;
#X msg 121 313 rewind;
#X obj 313 279 s \$0-active_map_preset;
#X obj 153 254 t b b s s;
#X obj 153 85 t b;
#X obj 153 129 ggee/getdir;
#X obj 153 163 makefilename %s/Presets/Map;
#X connect 0 0 10 0;
#X connect 1 0 9 0;
#X connect 2 0 5 0;
#X connect 2 1 4 1;
#X connect 3 0 2 0;
#X connect 4 0 6 0;
#X connect 6 0 2 0;
#X connect 7 0 2 0;
#X connect 9 0 4 0;
#X connect 9 1 7 0;
#X connect 9 2 3 0;
#X connect 9 3 8 0;
#X connect 10 0 11 0;
#X connect 11 0 12 0;
#X connect 12 0 1 0;
#X restore 49 84 pd OPEN_PRESET;
#N canvas 118 81 930 676 SAVE_PRESET 0;
#X obj 131 43 r \$0-save_as_map_preset;
#X obj 441 43 r \$0-save_map_preset;
#X obj 131 216 savepanel;
#N canvas 183 180 429 434 CH_1 0;
#X obj 223 281 r \$0-mask1;
#X obj 56 314 list append vazio;
#X obj 183 238 tabread \$0-on_masks;
#X msg 183 210 0;
#X obj 56 271 list append 0;
#N canvas 560 490 329 406 flush_vertices 0;
#X obj 80 203 f;
#X obj 120 203 + 1;
#X msg 107 176 0;
#X obj 80 142 until;
#X msg 80 112 8;
#X obj 80 271 list prepend;
#X obj 210 271 list;
#X obj 43 306 list;
#X obj 80 235 tabread \$0-vert_map1;
#X obj 43 77 t b b b b;
#X obj 43 37 inlet;
#X obj 43 346 outlet;
#X connect 0 0 1 0;
#X connect 0 0 8 0;
#X connect 1 0 0 1;
#X connect 2 0 0 1;
#X connect 3 0 0 0;
#X connect 4 0 3 0;
#X connect 5 0 6 0;
#X connect 5 0 7 1;
#X connect 6 0 5 1;
#X connect 7 0 11 0;
#X connect 8 0 5 0;
#X connect 9 0 7 0;
#X connect 9 1 4 0;
#X connect 9 2 2 0;
#X connect 9 3 5 1;
#X connect 10 0 9 0;
#X restore 163 168 pd flush_vertices;
#X obj 56 197 list append;
#X obj 56 136 f 1;
#X text 96 134 canal;
#X obj 56 91 t b b b;
#X obj 56 41 inlet;
#X obj 56 364 outlet;
#X connect 0 0 1 1;
#X connect 1 0 11 0;
#X connect 2 0 4 1;
#X connect 3 0 2 0;
#X connect 4 0 1 0;
#X connect 5 0 6 1;
#X connect 6 0 4 0;
#X connect 7 0 6 0;
#X connect 9 0 7 0;
#X connect 9 1 5 0;
#X connect 9 2 3 0;
#X connect 10 0 9 0;
#X restore 426 483 pd CH_1;
#N canvas 182 180 429 434 CH_2 0;
#X obj 56 314 list append vazio;
#X obj 183 238 tabread \$0-on_masks;
#X obj 56 271 list append 0;
#N canvas 300 319 329 406 flush_vertices 0;
#X obj 80 203 f;
#X obj 120 203 + 1;
#X msg 107 176 0;
#X obj 80 142 until;
#X msg 80 112 8;
#X obj 80 271 list prepend;
#X obj 210 271 list;
#X obj 43 306 list;
#X obj 43 77 t b b b b;
#X obj 43 37 inlet;
#X obj 43 346 outlet;
#X obj 80 235 tabread \$0-vert_map2;
#X connect 0 0 1 0;
#X connect 0 0 11 0;
#X connect 1 0 0 1;
#X connect 2 0 0 1;
#X connect 3 0 0 0;
#X connect 4 0 3 0;
#X connect 5 0 6 0;
#X connect 5 0 7 1;
#X connect 6 0 5 1;
#X connect 7 0 10 0;
#X connect 8 0 7 0;
#X connect 8 1 4 0;
#X connect 8 2 2 0;
#X connect 8 3 5 1;
#X connect 9 0 8 0;
#X connect 11 0 5 0;
#X restore 163 168 pd flush_vertices;
#X obj 56 197 list append;
#X text 96 134 canal;
#X obj 56 91 t b b b;
#X obj 56 41 inlet;
#X obj 56 364 outlet;
#X obj 56 136 f 2;
#X msg 183 210 1;
#X obj 223 281 r \$0-mask2;
#X connect 0 0 8 0;
#X connect 1 0 2 1;
#X connect 2 0 0 0;
#X connect 3 0 4 1;
#X connect 4 0 2 0;
#X connect 6 0 9 0;
#X connect 6 1 3 0;
#X connect 6 2 10 0;
#X connect 7 0 6 0;
#X connect 9 0 4 0;
#X connect 10 0 1 0;
#X connect 11 0 0 1;
#X restore 336 483 pd CH_2;
#N canvas 182 180 429 434 CH_3 0;
#X obj 56 314 list append vazio;
#X obj 183 238 tabread \$0-on_masks;
#X obj 56 271 list append 0;
#N canvas 300 319 329 406 flush_vertices 0;
#X obj 80 203 f;
#X obj 120 203 + 1;
#X msg 107 176 0;
#X obj 80 142 until;
#X msg 80 112 8;
#X obj 80 271 list prepend;
#X obj 210 271 list;
#X obj 43 306 list;
#X obj 43 77 t b b b b;
#X obj 43 37 inlet;
#X obj 43 346 outlet;
#X obj 80 235 tabread \$0-vert_map3;
#X connect 0 0 1 0;
#X connect 0 0 11 0;
#X connect 1 0 0 1;
#X connect 2 0 0 1;
#X connect 3 0 0 0;
#X connect 4 0 3 0;
#X connect 5 0 6 0;
#X connect 5 0 7 1;
#X connect 6 0 5 1;
#X connect 7 0 10 0;
#X connect 8 0 7 0;
#X connect 8 1 4 0;
#X connect 8 2 2 0;
#X connect 8 3 5 1;
#X connect 9 0 8 0;
#X connect 11 0 5 0;
#X restore 163 168 pd flush_vertices;
#X obj 56 197 list append;
#X text 96 134 canal;
#X obj 56 91 t b b b;
#X obj 56 41 inlet;
#X obj 56 364 outlet;
#X obj 56 136 f 3;
#X msg 183 210 2;
#X obj 223 281 r \$0-mask3;
#X connect 0 0 8 0;
#X connect 1 0 2 1;
#X connect 2 0 0 0;
#X connect 3 0 4 1;
#X connect 4 0 2 0;
#X connect 6 0 9 0;
#X connect 6 1 3 0;
#X connect 6 2 10 0;
#X connect 7 0 6 0;
#X connect 9 0 4 0;
#X connect 10 0 1 0;
#X connect 11 0 0 1;
#X restore 246 483 pd CH_3;
#N canvas 199 145 429 434 CH_4 0;
#X obj 56 314 list append vazio;
#X obj 183 238 tabread \$0-on_masks;
#X obj 56 271 list append 0;
#N canvas 298 375 329 406 flush_vertices 0;
#X obj 80 203 f;
#X obj 120 203 + 1;
#X msg 107 176 0;
#X obj 80 142 until;
#X msg 80 112 8;
#X obj 80 271 list prepend;
#X obj 210 271 list;
#X obj 43 306 list;
#X obj 43 77 t b b b b;
#X obj 43 37 inlet;
#X obj 43 346 outlet;
#X obj 80 235 tabread \$0-vert_map4;
#X connect 0 0 1 0;
#X connect 0 0 11 0;
#X connect 1 0 0 1;
#X connect 2 0 0 1;
#X connect 3 0 0 0;
#X connect 4 0 3 0;
#X connect 5 0 6 0;
#X connect 5 0 7 1;
#X connect 6 0 5 1;
#X connect 7 0 10 0;
#X connect 8 0 7 0;
#X connect 8 1 4 0;
#X connect 8 2 2 0;
#X connect 8 3 5 1;
#X connect 9 0 8 0;
#X connect 11 0 5 0;
#X restore 163 168 pd flush_vertices;
#X obj 56 197 list append;
#X text 96 134 canal;
#X obj 56 91 t b b b;
#X obj 56 41 inlet;
#X obj 56 364 outlet;
#X obj 56 136 f 4;
#X msg 183 210 3;
#X obj 223 281 r \$0-mask4;
#X connect 0 0 8 0;
#X connect 1 0 2 1;
#X connect 2 0 0 0;
#X connect 3 0 4 1;
#X connect 4 0 2 0;
#X connect 6 0 9 0;
#X connect 6 1 3 0;
#X connect 6 2 10 0;
#X connect 7 0 6 0;
#X connect 9 0 4 0;
#X connect 10 0 1 0;
#X connect 11 0 0 1;
#X restore 156 483 pd CH_4;
#X obj 156 615 textfile;
#X msg 258 590 clear;
#X obj 156 529 list prepend add;
#X obj 131 425 t s b b b b b;
#X obj 550 110 symbol vazio;
#X obj 441 194 spigot 0;
#X obj 550 140 sel vazio;
#X msg 518 165 1;
#X obj 441 85 t b b;
#X obj 131 254 t b s;
#X obj 131 391 symbol;
#X msg 38 590 write \$1;
#X msg 178 286 symbol \$1.txt;
#X obj 178 319 s \$0-active_map_preset;
#X obj 188 359 r \$0-active_map_preset;
#X obj 667 79 r \$0-active_map_preset;
#X obj 131 85 t b;
#X obj 131 129 ggee/getdir;
#X obj 156 559 list trim;
#X obj 131 163 makefilename %s/Presets/Map;
#X connect 0 0 23 0;
#X connect 1 0 15 0;
#X connect 2 0 16 0;
#X connect 3 0 9 0;
#X connect 4 0 9 0;
#X connect 5 0 9 0;
#X connect 6 0 9 0;
#X connect 8 0 7 0;
#X connect 9 0 25 0;
#X connect 10 0 18 0;
#X connect 10 1 6 0;
#X connect 10 2 5 0;
#X connect 10 3 4 0;
#X connect 10 4 3 0;
#X connect 10 5 8 0;
#X connect 11 0 13 0;
#X connect 12 0 17 0;
#X connect 13 1 14 0;
#X connect 14 0 12 1;
#X connect 15 0 12 0;
#X connect 15 1 11 0;
#X connect 16 0 17 0;
#X connect 16 1 19 0;
#X connect 17 0 10 0;
#X connect 18 0 7 0;
#X connect 19 0 20 0;
#X connect 21 0 17 1;
#X connect 22 0 11 1;
#X connect 23 0 24 0;
#X connect 24 0 26 0;
#X connect 25 0 7 0;
#X connect 26 0 2 0;
#X restore 49 45 pd SAVE_PRESET;
#X msg 391 110 label abrir_preset;
#X obj 391 78 loadbang;
#X obj 258 45 r \$0-active_map_preset;
#X connect 1 0 0 0;
#X connect 2 0 1 0;
#X connect 5 0 0 0;
#X connect 6 0 5 0;
#X connect 7 0 2 0;
#X restore 49 346 pd PRESETS;
#X restore 60 295 pd MAP_CONFIG;
#N canvas 475 293 623 225 MAIN_PRESET 0;
#X msg 268 111 label \$1;
#N canvas 565 75 619 652 name_cut 0;
#X msg 342 57 symbol;
#X obj 342 29 loadbang;
#X obj 242 150 list length;
#X obj 185 122 t l l;
#X obj 185 250 spigot;
#X obj 285 250 spigot;
#X msg 338 357 ...;
#X obj 432 426 t l;
#X obj 311 426 list append;
#X obj 285 464 list;
#X obj 285 287 t b l b l b;
#X msg 342 535 symbol;
#X obj 342 507 loadbang;
#X text 263 119 ajusta nome para exibição;
#X obj 365 390 list split 7;
#X obj 38 4 inlet;
#X obj 185 604 outlet;
#X obj 242 194 <= 21;
#X obj 342 193 > 21;
#X obj 482 194 - 9;
#X obj 311 325 list split 9;
#X obj 185 86 zexy/symbol2list;
#X obj 38 42 iemlib/splitfilename /;
#X obj 185 568 zexy/list2symbol;
#X connect 0 0 21 1;
#X connect 1 0 0 0;
#X connect 2 0 17 0;
#X connect 2 0 18 0;
#X connect 2 0 19 0;
#X connect 3 0 5 0;
#X connect 3 0 4 0;
#X connect 3 1 2 0;
#X connect 4 0 23 0;
#X connect 5 0 10 0;
#X connect 6 0 8 0;
#X connect 7 0 8 1;
#X connect 8 0 7 0;
#X connect 8 0 9 1;
#X connect 9 0 23 0;
#X connect 10 0 9 0;
#X connect 10 1 20 0;
#X connect 10 2 6 0;
#X connect 10 3 14 0;
#X connect 10 4 8 1;
#X connect 11 0 23 1;
#X connect 12 0 11 0;
#X connect 14 1 8 0;
#X connect 15 0 22 0;
#X connect 17 0 4 1;
#X connect 18 0 5 1;
#X connect 19 0 14 1;
#X connect 20 0 8 0;
#X connect 21 0 3 0;
#X connect 22 1 21 0;
#X connect 23 0 16 0;
#X restore 268 79 pd name_cut;
#X obj 268 46 r \$0-active_preset;
#X obj 268 144 s \$0-main_preset_visor;
#X msg 398 111 label abrir_preset;
#X obj 398 79 loadbang;
#N canvas 396 109 504 466 OPEN_PRESET 0;
#X obj 112 175 openpanel;
#X obj 141 350 textfile;
#X msg 269 304 read \$1;
#X obj 41 270 until;
#X msg 41 304 bang;
#X msg 141 304 rewind;
#X obj 112 26 r \$0-click_main_open;
#X obj 141 400 s MAIN_PRESET_SEND;
#X obj 112 65 t b;
#X obj 112 234 t b b s s;
#X obj 251 259 s \$0-active_preset;
#X obj 112 99 ggee/getdir;
#X obj 112 133 makefilename %s/Presets/Main;
#X connect 0 0 9 0;
#X connect 1 0 7 0;
#X connect 1 1 3 1;
#X connect 2 0 1 0;
#X connect 3 0 4 0;
#X connect 4 0 1 0;
#X connect 5 0 1 0;
#X connect 6 0 8 0;
#X connect 8 0 11 0;
#X connect 9 0 3 0;
#X connect 9 1 5 0;
#X connect 9 2 2 0;
#X connect 9 3 10 0;
#X connect 11 0 12 0;
#X connect 12 0 0 0;
#X restore 55 82 pd OPEN_PRESET;
#N canvas 395 178 901 623 SAVE_PRESET 0;
#N canvas 736 114 614 369 VIC_SEL 0;
#X obj 54 47 r V1_ST;
#X obj 134 47 r I1_ST;
#X obj 214 47 r C1_ST;
#X obj 54 117 r V2_ST;
#X obj 134 117 r I2_ST;
#X obj 214 117 r C2_ST;
#X obj 54 187 r V3_ST;
#X obj 134 187 r I3_ST;
#X obj 214 187 r C3_ST;
#X obj 54 257 r V4_ST;
#X obj 134 257 r I4_ST;
#X obj 214 257 r C4_ST;
#N canvas 0 50 450 300 (subpatch) 0;
#X array \$0-VIC 12 float 2;
#X coords 0 2 12 -1 200 140 1 0 0;
#X restore 351 65 graph;
#N canvas 468 360 305 160 2tab 0;
#X obj 54 51 inlet;
#X obj 54 87 arrast_2tab 0 \$0-VIC;
#X connect 0 0 1 0;
#X restore 54 78 pd 2tab;
#N canvas 468 360 305 160 2tab 0;
#X obj 54 51 inlet;
#X obj 54 87 arrast_2tab 1 \$0-VIC;
#X connect 0 0 1 0;
#X restore 134 78 pd 2tab;
#N canvas 468 360 305 160 2tab 0;
#X obj 54 51 inlet;
#X obj 54 87 arrast_2tab 2 \$0-VIC;
#X connect 0 0 1 0;
#X restore 214 78 pd 2tab;
#N canvas 467 388 305 160 2tab 0;
#X obj 54 51 inlet;
#X obj 54 87 arrast_2tab 3 \$0-VIC;
#X connect 0 0 1 0;
#X restore 54 148 pd 2tab;
#N canvas 467 388 305 160 2tab 0;
#X obj 54 51 inlet;
#X obj 54 87 arrast_2tab 4 \$0-VIC;
#X connect 0 0 1 0;
#X restore 134 148 pd 2tab;
#N canvas 467 388 305 160 2tab 0;
#X obj 54 51 inlet;
#X obj 54 87 arrast_2tab 5 \$0-VIC;
#X connect 0 0 1 0;
#X restore 214 148 pd 2tab;
#N canvas 468 360 305 160 2tab 0;
#X obj 54 51 inlet;
#X obj 54 87 arrast_2tab 6 \$0-VIC;
#X connect 0 0 1 0;
#X restore 54 218 pd 2tab;
#N canvas 468 360 305 160 2tab 0;
#X obj 54 51 inlet;
#X obj 54 87 arrast_2tab 7 \$0-VIC;
#X connect 0 0 1 0;
#X restore 134 218 pd 2tab;
#N canvas 468 360 305 160 2tab 0;
#X obj 54 51 inlet;
#X obj 54 87 arrast_2tab 8 \$0-VIC;
#X connect 0 0 1 0;
#X restore 214 218 pd 2tab;
#N canvas 467 388 305 160 2tab 0;
#X obj 54 51 inlet;
#X obj 54 87 arrast_2tab 9 \$0-VIC;
#X connect 0 0 1 0;
#X restore 54 288 pd 2tab;
#N canvas 467 388 305 160 2tab 0;
#X obj 54 51 inlet;
#X obj 54 87 arrast_2tab 10 \$0-VIC;
#X connect 0 0 1 0;
#X restore 134 288 pd 2tab;
#N canvas 467 388 305 160 2tab 0;
#X obj 54 51 inlet;
#X obj 54 87 arrast_2tab 11 \$0-VIC;
#X connect 0 0 1 0;
#X restore 214 288 pd 2tab;
#X obj 351 237 inlet;
#X obj 351 317 outlet;
#N canvas 200 282 341 538 flush 0;
#X obj 76 55 inlet;
#X obj 113 244 f;
#X obj 152 244 + 1;
#X msg 140 215 0;
#X obj 113 184 until;
#X obj 243 309 list;
#X obj 76 339 list;
#X obj 76 107 t b b b b;
#X obj 113 309 list prepend;
#X msg 113 151 12;
#X obj 113 274 tabread \$0-VIC;
#X obj 76 380 list prepend vic;
#X obj 76 475 outlet;
#X obj 76 425 list trim;
#X connect 0 0 7 0;
#X connect 1 0 2 0;
#X connect 1 0 10 0;
#X connect 2 0 1 1;
#X connect 3 0 1 1;
#X connect 4 0 1 0;
#X connect 5 0 8 1;
#X connect 6 0 11 0;
#X connect 7 0 6 0;
#X connect 7 1 9 0;
#X connect 7 2 3 0;
#X connect 7 3 8 1;
#X connect 8 0 5 0;
#X connect 8 0 6 1;
#X connect 9 0 4 0;
#X connect 10 0 8 0;
#X connect 11 0 13 0;
#X connect 13 0 12 0;
#X restore 351 277 pd flush;
#X connect 0 0 13 0;
#X connect 1 0 14 0;
#X connect 2 0 15 0;
#X connect 3 0 16 0;
#X connect 4 0 17 0;
#X connect 5 0 18 0;
#X connect 6 0 19 0;
#X connect 7 0 20 0;
#X connect 8 0 21 0;
#X connect 9 0 22 0;
#X connect 10 0 23 0;
#X connect 11 0 24 0;
#X connect 25 0 27 0;
#X connect 27 0 26 0;
#X restore 486 443 pd VIC_SEL;
#X obj 143 180 savepanel;
#X obj 167 561 textfile;
#X msg 290 536 clear;
#X obj 167 487 list prepend add;
#X obj 562 156 symbol vazio;
#X obj 679 123 r \$0-active_preset;
#X obj 453 240 spigot 0;
#X obj 562 186 sel vazio;
#X msg 530 211 1;
#X obj 453 131 t b b;
#X obj 190 293 s \$0-active_preset;
#X obj 143 228 t b s;
#X obj 143 365 symbol;
#X obj 200 333 r \$0-active_preset;
#X msg 46 536 write \$1;
#X msg 190 260 symbol \$1.txt;
#X obj 143 399 t s b b b b b b;
#X obj 56 424 t b s;
#X obj 46 456 del 100;
#X obj 46 487 symbol;
#N canvas 714 276 263 393 CH1 0;
#X obj 59 57 inlet;
#X obj 59 317 outlet;
#X obj 59 129 s CH1_FLUSH;
#X obj 59 189 r CH1_PRESET;
#X obj 59 250 list trim;
#X obj 59 219 list prepend 1;
#X connect 0 0 2 0;
#X connect 3 0 5 0;
#X connect 4 0 1 0;
#X connect 5 0 4 0;
#X restore 407 443 pd CH1;
#N canvas 713 304 263 393 CH2 0;
#X obj 59 57 inlet;
#X obj 59 317 outlet;
#X obj 59 141 s CH2_FLUSH;
#X obj 59 201 r CH2_PRESET;
#X obj 59 262 list trim;
#X obj 59 231 list prepend 2;
#X obj 59 111 del 20;
#X connect 0 0 6 0;
#X connect 3 0 5 0;
#X connect 4 0 1 0;
#X connect 5 0 4 0;
#X connect 6 0 2 0;
#X restore 327 443 pd CH2;
#N canvas 713 304 263 393 CH3 0;
#X obj 59 57 inlet;
#X obj 59 317 outlet;
#X obj 59 141 s CH3_FLUSH;
#X obj 59 201 r CH3_PRESET;
#X obj 59 262 list trim;
#X obj 59 231 list prepend 3;
#X obj 59 111 del 40;
#X connect 0 0 6 0;
#X connect 3 0 5 0;
#X connect 4 0 1 0;
#X connect 5 0 4 0;
#X connect 6 0 2 0;
#X restore 247 443 pd CH3;
#N canvas 713 304 263 393 CH4 0;
#X obj 59 57 inlet;
#X obj 59 317 outlet;
#X obj 59 140 s CH4_FLUSH;
#X obj 59 200 r CH4_PRESET;
#X obj 59 230 list prepend 4;
#X obj 59 261 list trim;
#X obj 59 110 del 60;
#X connect 0 0 6 0;
#X connect 3 0 4 0;
#X connect 4 0 5 0;
#X connect 5 0 1 0;
#X connect 6 0 2 0;
#X restore 167 443 pd CH4;
#X obj 143 21 r \$0-save_as_main_preset;
#X obj 453 21 r \$0-save_main_preset;
#X obj 167 517 list trim;
#X obj 143 97 ggee/getdir;
#X obj 143 131 makefilename %s/Presets/Main;
#X obj 143 55 t b;
#X connect 0 0 4 0;
#X connect 1 0 12 0;
#X connect 3 0 2 0;
#X connect 4 0 27 0;
#X connect 5 0 8 0;
#X connect 6 0 5 1;
#X connect 7 0 13 0;
#X connect 8 1 9 0;
#X connect 9 0 7 1;
#X connect 10 0 7 0;
#X connect 10 1 5 0;
#X connect 12 0 13 0;
#X connect 12 1 16 0;
#X connect 13 0 17 0;
#X connect 14 0 13 1;
#X connect 15 0 2 0;
#X connect 16 0 11 0;
#X connect 17 0 18 0;
#X connect 17 1 24 0;
#X connect 17 2 23 0;
#X connect 17 3 22 0;
#X connect 17 4 21 0;
#X connect 17 5 0 0;
#X connect 17 6 3 0;
#X connect 18 0 19 0;
#X connect 18 1 20 1;
#X connect 19 0 20 0;
#X connect 20 0 15 0;
#X connect 21 0 4 0;
#X connect 22 0 4 0;
#X connect 23 0 4 0;
#X connect 24 0 4 0;
#X connect 25 0 30 0;
#X connect 26 0 10 0;
#X connect 27 0 2 0;
#X connect 28 0 29 0;
#X connect 29 0 1 0;
#X connect 30 0 28 0;
#X restore 55 46 pd SAVE_PRESET;
#N canvas 541 278 896 359 RECEIVE_VIC 0;
#X obj 51 35 r MAIN_PRESET_SEND;
#X obj 51 77 route vic;
#X obj 51 121 list split 3;
#X obj 51 159 unpack f f f;
#X obj 51 189 s V1_SET_ST;
#X obj 109 219 s I1_SET_ST;
#X obj 168 249 s C1_SET_ST;
#X obj 250 146 list split 3;
#X obj 250 184 unpack f f f;
#X obj 250 214 s V2_SET_ST;
#X obj 308 244 s I2_SET_ST;
#X obj 367 274 s C2_SET_ST;
#X obj 450 171 list split 3;
#X obj 450 209 unpack f f f;
#X obj 450 239 s V3_SET_ST;
#X obj 508 269 s I3_SET_ST;
#X obj 567 299 s C3_SET_ST;
#X obj 610 196 unpack f f f;
#X obj 610 226 s V4_SET_ST;
#X obj 668 256 s I4_SET_ST;
#X obj 727 286 s C4_SET_ST;
#X connect 0 0 1 0;
#X connect 1 0 2 0;
#X connect 2 0 3 0;
#X connect 2 1 7 0;
#X connect 3 0 4 0;
#X connect 3 1 5 0;
#X connect 3 2 6 0;
#X connect 7 0 8 0;
#X connect 7 1 12 0;
#X connect 8 0 9 0;
#X connect 8 1 10 0;
#X connect 8 2 11 0;
#X connect 12 0 13 0;
#X connect 12 1 17 0;
#X connect 13 0 14 0;
#X connect 13 1 15 0;
#X connect 13 2 16 0;
#X connect 17 0 18 0;
#X connect 17 1 19 0;
#X connect 17 2 20 0;
#X restore 55 144 pd RECEIVE_VIC;
#X connect 0 0 3 0;
#X connect 1 0 0 0;
#X connect 2 0 1 0;
#X connect 4 0 3 0;
#X connect 5 0 4 0;
#X restore 60 331 pd MAIN_PRESET;
#N canvas 112 211 424 220 QUIT 0;
#X obj 49 153 s pd;
#X msg 49 120 quit;
#X msg 112 120 0;
#X obj 112 153 s \$0-connect;
#X obj 255 153 s CANAL_QUIT;
#X obj 49 74 t b b b;
#X obj 49 41 r \$0-quit_arrast;
#X connect 1 0 0 0;
#X connect 2 0 3 0;
#X connect 5 0 1 0;
#X connect 5 1 2 0;
#X connect 5 2 4 0;
#X connect 6 0 5 0;
#X restore 60 366 pd QUIT;
#X obj 287 174 del 1000;
#N canvas 337 258 595 392 CONNECT 0;
#X obj 37 257 netsend;
#X msg 37 104 connect localhost 7777;
#X obj 37 32 inlet;
#X msg 37 137 disconnect;
#X obj 37 62 sel 1 0;
#X obj 37 326 outlet;
#X obj 37 296 tgl 15 0 empty empty empty 17 7 0 10 -262144 -1 -1 1
1;
#N canvas 247 266 1021 445 SENDS 0;
#X obj 52 63 list prepend gemwin;
#X obj 52 118 r CANAL_V;
#X obj 52 33 r \$0-CANAL_GEMWIN;
#X obj 52 148 list prepend video;
#X obj 282 116 r CANAL_I;
#X obj 282 146 list prepend imagem;
#X obj 522 116 r CANAL_C;
#X obj 522 146 list prepend camera;
#X obj 52 193 r CANAL_T;
#X obj 52 223 list prepend transf;
#X obj 282 191 r CANAL_FX;
#X obj 522 191 r CANAL_P;
#X obj 522 221 list prepend plot;
#X obj 282 221 list prepend fx;
#X obj 282 267 r CANAL_SEL;
#X obj 282 300 list prepend ch_sel;
#X obj 522 267 r CANAL_MODE;
#X obj 522 300 list prepend mode_sel;
#X obj 772 267 r CANAL_MAP;
#X obj 772 300 list prepend map;
#X obj 772 221 list prepend quit;
#X obj 772 191 r CANAL_QUIT;
#X obj 52 415 outlet;
#X obj 52 365 list trim;
#X obj 52 325 list prepend send;
#X connect 0 0 24 0;
#X connect 1 0 3 0;
#X connect 2 0 0 0;
#X connect 3 0 24 0;
#X connect 4 0 5 0;
#X connect 5 0 24 0;
#X connect 6 0 7 0;
#X connect 7 0 24 0;
#X connect 8 0 9 0;
#X connect 9 0 24 0;
#X connect 10 0 13 0;
#X connect 11 0 12 0;
#X connect 12 0 24 0;
#X connect 13 0 24 0;
#X connect 14 0 15 0;
#X connect 15 0 24 0;
#X connect 16 0 17 0;
#X connect 17 0 24 0;
#X connect 18 0 19 0;
#X connect 19 0 24 0;
#X connect 20 0 24 0;
#X connect 21 0 20 0;
#X connect 23 0 22 0;
#X connect 24 0 23 0;
#X restore 72 179 pd SENDS;
#X obj 477 101 outlet;
#X obj 477 71 tgl 15 0 empty empty empty 17 7 0 10 -262144 -1 -1 1
1;
#X obj 330 32 netreceive 8888;
#X obj 72 209 spigot 0;
#X obj 330 140 route map_fb;
#X obj 330 170 s CANAL_MAP_FB;
#X obj 138 37 r \$0-connect;
#X connect 0 0 6 0;
#X connect 0 0 11 1;
#X connect 1 0 0 0;
#X connect 2 0 4 0;
#X connect 3 0 0 0;
#X connect 4 0 1 0;
#X connect 4 1 3 0;
#X connect 6 0 5 0;
#X connect 7 0 11 0;
#X connect 9 0 8 0;
#X connect 10 0 12 0;
#X connect 10 1 9 0;
#X connect 11 0 0 0;
#X connect 12 0 13 0;
#X connect 14 0 4 0;
#X restore 287 233 pd CONNECT;
#N canvas 727 247 636 353 --INFO-- 0;
#X text 33 125 Projeto iniciado por brunorohde - https://github.com/brunorohde
/ brunorohde.wordpress.com;
#X text 33 227 [4corners] - Papatchs Party - http://yamatierea.org/papatchs/
;
#X text 33 277 [hrslider.mmb] [browser.mmb] - Mike Moser-Booth - https://github.com/dotmmb/mmb
;
#X text 33 196 As seguintes abstrações são utilizadas no [ARRAST_VJ]:
;
#X text 33 27 [ARRAST_VJ] v.0.2;
#X text 33 75 Copyleft 2015-2016 - Licença GPLV3 http://www.gnu.org/licenses/gpl-3.0.html
;
#N canvas 24 514 1248 277 Versions 0;
#X text 38 94 0.1 - versão inicial;
#X text 38 34 0.2 - versão para vanilla + deken - bugfix na memória
dos slots de vídeo e outros detalhes;
#X restore 483 26 pd Versions;
#X restore 253 24 pd --INFO--;
#N canvas 61 336 652 166 DECLARE 0;
#X obj 31 41 declare -path abstract -stdlib Gem -stdpath list-abs -stdpath
hcs -stdpath zexy -stdpath iemlib -stdpath ggee -stdpath maxlib -stdpath
cyclone;
#X restore 60 88 pd DECLARE;
#X connect 0 0 16 0;
#X connect 1 0 15 0;
#X connect 4 0 16 0;
#X connect 15 0 0 0;
#X connect 16 0 2 0;
#X connect 16 1 3 0;
#X coords 0 -1 1 1 15 15 2 60 50;
#X restore 244 11 pd INIT;
#X obj 2 1 cnv 15 267 374 empty empty empty 20 12 0 14 -1 -66577 0
;
#X obj 12 203 arrast_win \$0;
#X obj 12 72 cnv 15 247 55 empty empty empty 20 12 0 14 -1 -66577 0
;
#X obj 22 82 hradio 35 1 0 2 \$0-click_vj \$0-click_vj_in empty 0 12
0 15 -262144 -1 -1 0;
#X obj 109 82 hradio 35 1 0 4 \$0-click_map \$0-click_map_in empty
0 12 0 15 -262144 -1 -1 2;
#X obj 22 82 cnv 15 70 35 morto \$0-vj_color VJ 21 18 0 25 -260818
-1 0;
#X obj 109 82 cnv 15 140 35 morto \$0-map_color MAPPING 18 18 0 25
-1 -262144 0;
#X obj 12 11 cnv 15 247 50 empty empty [ARRAST_VJ] 14 24 0 34 -159808
-1 0;
#X obj 12 138 cnv 15 247 55 empty empty empty 20 12 0 14 -128992 -66577
0;
#X obj 89 160 hradio 20 1 0 8 \$0-click_main_open \$0-click_main_open_in
PRESET 0 -8 0 8 -262144 -1 -1 2;
#X obj 23 160 bng 20 250 50 0 \$0-save_as_main_preset \$0-save_as_main_preset_in
SAVE_AS -7 -8 0 8 -1 -262144 -1;
#X obj 56 160 bng 20 250 50 0 \$0-save_main_preset \$0-save_main_preset_in
SAVE 0 -8 0 8 -1 -262144 -1;
#X obj 89 160 cnv 15 160 20 empty \$0-main_preset_visor abrir_preset
7 10 0 12 -1 -262144 0;
#X obj 23 340 hradio 25 1 0 9 \$0-quit_arrast \$0-quit_arrast_in empty
0 -8 0 10 -262144 -1 -1 0;
#X obj 12 340 cnv 15 247 25 empty empty FECHAR_PROGRAMA 63 13 0 14
-86277 -262144 0;
