#N canvas 184 243 214 474 10;
#X obj 45 67 gemhead;
#X obj 45 89 t b b;
#X obj 45 111 realtime;
#X obj 45 157 /;
#X msg 45 134 1000 \$1;
#X obj 75 430 outlet;
#X obj 100 30 init 0;
#X obj 93 214 f;
#X obj 123 214 + 1;
#X msg 108 191 0;
#X obj 90 329 +;
#X msg 105 309 0;
#X obj 118 329 f;
#X obj 75 353 f;
#X obj 105 283 t b b;
#X floatatom 75 401 5 0 0 0 - - -;
#X obj 93 238 % 10;
#X obj 93 260 moses 9;
#X obj 75 375 / 10;
#X obj 45 181 t f b;
#X obj 45 23 inlet;
#X obj 45 47 tgl 15 0 empty empty empty 17 7 0 10 -262144 -1 -1 1 1
;
#X obj 128 62 sel 1;
#X obj 128 101 t b b;
#X connect 0 0 1 0;
#X connect 1 0 2 0;
#X connect 1 1 2 1;
#X connect 2 0 4 0;
#X connect 3 0 19 0;
#X connect 4 0 3 0;
#X connect 6 0 21 0;
#X connect 7 0 8 0;
#X connect 7 0 16 0;
#X connect 8 0 7 1;
#X connect 9 0 7 1;
#X connect 10 0 12 0;
#X connect 10 0 13 1;
#X connect 11 0 10 1;
#X connect 12 0 10 1;
#X connect 13 0 18 0;
#X connect 14 0 11 0;
#X connect 14 1 13 0;
#X connect 15 0 5 0;
#X connect 16 0 17 0;
#X connect 17 1 14 0;
#X connect 18 0 15 0;
#X connect 19 0 10 0;
#X connect 19 1 7 0;
#X connect 20 0 21 0;
#X connect 21 0 0 0;
#X connect 21 0 22 0;
#X connect 22 0 23 0;
#X connect 23 0 9 0;
#X connect 23 1 11 0;
