#N canvas 423 82 468 385 10;
#X obj 55 303 pix_film;
#X obj 100 259 r \$0-cursor;
#X floatatom 100 281 5 0 0 0 - - -;
#X obj 227 130 s \$0-file;
#X obj 292 130 s \$0-cursor;
#X obj 78 163 r \$0-file;
#X msg 78 227 open \$1 \, auto 0;
#X obj 78 183 symbol;
#X obj 55 131 gemhead \$1;
#X obj 227 49 r CANAL_V;
#X obj 227 76 route V\$1;
#X obj 55 342 outlet;
#X obj 55 30 loadbang;
#X obj 227 104 route file cursor render;
#X obj 370 130 s \$0-render;
#X obj 81 88 r \$0-render;
#X obj 55 105 tgl 15 0 empty empty empty 17 7 0 10 -262144 -1 -1 1
1;
#X msg 55 53 0;
#N canvas 624 482 155 222 change_symbol 0;
#X obj 44 36 inlet;
#X obj 71 163 outlet;
#X obj 44 72 t s s;
#X obj 44 102 sel s;
#X obj 71 130 symbol;
#X connect 0 0 2 0;
#X connect 2 0 3 1;
#X connect 2 1 3 0;
#X connect 3 1 4 0;
#X connect 4 0 1 0;
#X restore 78 205 pd change_symbol;
#X connect 0 0 11 0;
#X connect 1 0 2 0;
#X connect 2 0 0 1;
#X connect 5 0 7 0;
#X connect 6 0 0 0;
#X connect 7 0 18 0;
#X connect 8 0 0 0;
#X connect 9 0 10 0;
#X connect 10 0 13 0;
#X connect 12 0 17 0;
#X connect 13 0 3 0;
#X connect 13 1 4 0;
#X connect 13 2 14 0;
#X connect 15 0 16 0;
#X connect 16 0 8 0;
#X connect 17 0 16 0;
#X connect 18 0 6 0;
