#N canvas 2 53 605 270 16;
#X obj 80 30 cnv 15 185 200 empty empty empty 20 12 0 14 -228856 -66577
0;
#X obj 83 30 hsl 180 20 0 1 0 0 \$0-click_enable \$0-click_enable_in
empty -2 -8 0 10 -262144 -1 -1 0 1;
#X obj 80 30 cnv 15 185 20 \$0-enable \$0-enable_in empty 20 12 0 14
-258699 -262144 0;
#X obj 93 153 hsl 160 8 0 310 0 0 \$0-morto \$0-timeline empty -2 -8
0 10 -1 -262144 -1 0 1;
#X obj 211 110 nbx 4 12 -1e+37 1e+37 0 0 \$0-morto \$0-visor_sec empty
0 -8 0 10 -1 -262144 -1 0 256;
#X obj 93 166 hsl 160 10 1 0 0 0 \$0-speed \$0-speed_in empty -2 -8
0 10 -262144 -1 -1 7950 1;
#X obj 93 191 bng 25 250 50 0 \$0-play \$0-play_in P 8 13 0 18 -42246
-42246 -262144;
#X obj 171 191 bng 25 250 50 0 \$0-stop \$0-stop_in S 8 13 0 18 -143491
-258113 -262144;
#X obj 240 191 vradio 12 1 0 2 \$0-loop_mode \$0-loop_mode_in empty
0 -8 0 10 -355 -262144 -262144 0;
#X obj 208 191 bng 25 250 50 0 \$0-loop \$0-loop_in L 8 13 0 18 -355
-355 -262144;
#X obj 186 110 cnv 15 24 15 empty empty seg 3 6 0 10 -228856 -66577
0;
#N canvas 620 219 495 272 channel_color 0;
#X obj 69 71 f \$1;
#X obj 69 107 sel 1 2 3 4;
#X msg 69 144 13;
#X msg 218 144 16;
#X msg 119 144 15;
#X obj 69 35 loadbang;
#X obj 69 209 s \$0-channel_color;
#X obj 299 209 s \$0-bg_color;
#X msg 299 144 28;
#X msg 169 144 19;
#X connect 0 0 1 0;
#X connect 1 0 2 0;
#X connect 1 1 4 0;
#X connect 1 2 9 0;
#X connect 1 3 3 0;
#X connect 2 0 6 0;
#X connect 3 0 6 0;
#X connect 4 0 6 0;
#X connect 5 0 0 0;
#X connect 5 0 8 0;
#X connect 8 0 7 0;
#X connect 9 0 6 0;
#X restore 350 148 pd channel_color;
#N canvas 571 388 724 354 sel_interact 0;
#X obj 51 39 loadbang;
#X msg 51 225 size 165 20;
#X msg 311 228 fgcolor \$1;
#X obj 311 189 r \$0-channel_color;
#X msg 524 228 mode \$1;
#N canvas 127 356 617 407 selector_mode 0;
#X obj 48 35 r \$0-click_mod1;
#X obj 218 35 r \$0-click_mod2;
#X msg 48 66 2;
#X msg 218 66 1;
#X obj 218 126 sel 2 1;
#X obj 218 348 s \$0-sel_mod1;
#X obj 435 106 r \$0-bg_color;
#X obj 218 271 pack f f;
#X obj 408 271 pack f f;
#X msg 295 238 0;
#X msg 338 238 22;
#X msg 485 238 0;
#X msg 528 238 22;
#X obj 218 238 f;
#X obj 408 238 f;
#X obj 408 159 t b b b b;
#X obj 218 159 t b b b b;
#X obj 408 348 s \$0-sel_mod2;
#X obj 48 348 outlet;
#X obj 457 41 loadbang;
#X obj 448 238 f 1;
#X obj 258 238 f 1;
#X msg 218 314 color \$1 0 \$2;
#X msg 408 314 color \$1 0 \$2;
#X connect 0 0 2 0;
#X connect 1 0 3 0;
#X connect 2 0 4 0;
#X connect 2 0 18 0;
#X connect 3 0 4 0;
#X connect 3 0 18 0;
#X connect 4 0 16 0;
#X connect 4 1 15 0;
#X connect 6 0 13 1;
#X connect 6 0 14 1;
#X connect 7 0 22 0;
#X connect 8 0 23 0;
#X connect 9 0 7 1;
#X connect 10 0 7 1;
#X connect 11 0 8 1;
#X connect 12 0 8 1;
#X connect 13 0 7 0;
#X connect 14 0 8 0;
#X connect 15 0 14 0;
#X connect 15 1 11 0;
#X connect 15 2 21 0;
#X connect 15 3 10 0;
#X connect 16 0 13 0;
#X connect 16 1 9 0;
#X connect 16 2 20 0;
#X connect 16 3 12 0;
#X connect 19 0 2 0;
#X connect 20 0 8 0;
#X connect 21 0 7 0;
#X connect 22 0 5 0;
#X connect 23 0 17 0;
#X restore 524 189 pd selector_mode;
#X obj 51 285 s \$0-sel_ctl;
#X msg 51 189 setminmax 0 1 \, set 0 1;
#X obj 51 80 f \$0;
#X msg 51 114 send \$1-inset \$1-outset;
#X msg 51 144 receive \$1-inset_in \$1-outset_in;
#X connect 0 0 7 0;
#X connect 0 0 1 0;
#X connect 0 0 8 0;
#X connect 1 0 6 0;
#X connect 2 0 6 0;
#X connect 3 0 2 0;
#X connect 4 0 6 0;
#X connect 5 0 4 0;
#X connect 7 0 6 0;
#X connect 8 0 9 0;
#X connect 8 0 10 0;
#X connect 9 0 6 0;
#X connect 10 0 6 0;
#X restore 350 114 pd sel_interact;
#X obj 125 189 bng 12 250 50 0 \$0-reset \$0-reset_in res 16 6 0 10
-13381 -4034 -1;
#X obj 125 206 tgl 12 0 \$0-inv \$0-inv_in inv 16 6 0 10 -13381 -4034
-1 0 1;
#X obj 93 110 hsl 20 15 0 127 0 0 \$0-click_mod1 \$0-click_mod1_in
empty -2 -8 0 10 -262144 -1 -262144 0 1;
#X obj 122 110 hsl 20 15 0 127 0 0 \$0-click_mod2 \$0-click_mod2_in
empty -2 -8 0 10 -262144 -1 -1 0 1;
#X obj 90 110 cnv 15 25 15 empty \$0-sel_mod1 sel 4 8 0 10 -355 -262144
0;
#X obj 119 110 cnv 15 25 15 empty \$0-sel_mod2 mov 4 8 0 10 -166441
-1 0;
#X obj 169 176 bng 8 250 50 0 \$0-reset_speed \$0-reset_speed_in empty
17 7 0 10 -162280 -1 -1;
#X obj 93 61 hsl 160 18 0 1 0 0 \$0-open_browser \$0-open_browser_in
empty -2 -8 0 10 -262144 -1 -1 0 1;
#X obj 90 61 cnv 15 165 18 empty \$0-visor_name abrir_vídeo 5 9 0
12 -355 -262144 0;
#N canvas 686 408 253 256 V_\$1_browser_file 0;
#N canvas 636 300 337 464 visib 0;
#X msg 102 116 vis 0;
#X obj 44 289 f;
#X obj 84 289 + 1;
#X obj 44 317 % 2;
#X floatatom 44 345 5 0 0 0 - - -, f 5;
#X msg 44 374 vis \$1;
#X msg 55 259 0;
#X obj 55 83 t b b;
#X obj 117 83 loadbang;
#X obj 44 223 t b;
#X obj 55 20 r \$0-close_browser;
#X obj 44 189 r \$0-open_browser;
#X obj 102 146 s pd-V_\$1_browser_file;
#X obj 44 405 s pd-V_\$1_browser_file;
#X obj 250 80 cnv 15 15 15 empty empty empty 20 12 0 14 -228856 -66577
0;
#X connect 0 0 12 0;
#X connect 1 0 3 0;
#X connect 2 0 1 1;
#X connect 3 0 2 0;
#X connect 3 0 4 0;
#X connect 4 0 5 0;
#X connect 5 0 13 0;
#X connect 6 0 1 0;
#X connect 7 0 6 0;
#X connect 7 1 0 0;
#X connect 8 0 7 0;
#X connect 9 0 1 0;
#X connect 10 0 7 0;
#X connect 11 0 9 0;
#X coords 0 -1 1 1 15 15 2 250 80;
#X restore 223 33 pd visib;
#X obj 1 1 cnv 15 251 255 empty empty empty 20 12 0 14 -1 -66577 0
;
#X obj 15 33 cnv 15 223 209 empty empty empty 20 12 0 14 -233017 -66577
0;
#N canvas 321 310 947 338 browser 0;
#X obj 70 40 browser.mmb;
#X obj 70 227 symbol;
#X obj 70 195 route file folder;
#X msg 177 260 folder \$1;
#X obj 177 227 symbol;
#X obj 70 260 s \$0-file;
#X msg 179 4 folder ~/;
#X msg 302 84 bgcolor1 2 \, bgcolor2 2 \, textcolor 0 \, hlcolor 0
\, hltextcolor 22 \, scrollbgcolor \$1 \, scrollhandlecolor 22 \, dirbgcolor
\$1 \, dirtextcolor 22;
#X obj 302 56 r \$0-channel_color;
#N canvas 697 379 313 216 getdir 0;
#X obj 54 26 loadbang;
#X msg 54 91 folder \$1/../Videos/;
#X obj 54 128 outlet;
#X obj 54 59 ggee/getdir;
#X connect 0 0 3 0;
#X connect 1 0 2 0;
#X connect 3 0 1 0;
#X restore 70 4 pd getdir;
#X connect 0 0 2 0;
#X connect 1 0 5 0;
#X connect 2 0 1 0;
#X connect 2 1 4 0;
#X connect 3 0 0 0;
#X connect 4 0 3 0;
#X connect 6 0 0 0;
#X connect 7 0 0 0;
#X connect 8 0 7 0;
#X connect 9 0 0 0;
#X coords 0 -1 1 1 203 138 2 70 40;
#X restore 25 94 pd browser;
#N canvas 685 159 700 176 select_slot 0;
#X obj 105 53 bng 15 250 50 0 \$0-click_slot1 \$0-click_slot1_in empty
17 7 0 10 -262144 -1 -1;
#X obj 470 28 r \$0-bg_color;
#X obj 470 90 s \$0-slots_bg;
#X msg 470 59 color \$1;
#X obj 125 53 bng 15 250 50 0 \$0-click_slot2 \$0-click_slot2_in empty
17 7 0 10 -262144 -1 -1;
#X obj 145 53 bng 15 250 50 0 \$0-click_slot3 \$0-click_slot3_in empty
17 7 0 10 -262144 -1 -1;
#X obj 165 53 bng 15 250 50 0 \$0-click_slot4 \$0-click_slot4_in empty
17 7 0 10 -262144 -1 -1;
#X obj 185 53 bng 15 250 50 0 \$0-click_slot5 \$0-click_slot5_in empty
17 7 0 10 -262144 -1 -1;
#X obj 205 53 bng 15 250 50 0 \$0-click_slot6 \$0-click_slot6_in empty
17 7 0 10 -262144 -1 -1;
#X obj 225 53 bng 15 250 50 0 \$0-click_slot7 \$0-click_slot7_in empty
17 7 0 10 -262144 -1 -1;
#X obj 245 53 bng 15 250 50 0 \$0-click_slot8 \$0-click_slot8_in empty
17 7 0 10 -262144 -1 -1;
#X obj 100 50 cnv 15 165 21 empty \$0-slots_bg empty 20 12 0 14 -355
-262144 0;
#X obj 105 53 cnv 15 15 15 empty \$0-color_slot1 1 4 8 0 12 -258699
-1 0;
#X obj 125 53 cnv 15 15 15 empty \$0-color_slot2 2 4 8 0 12 -262144
-1 0;
#X obj 145 53 cnv 15 15 15 empty \$0-color_slot3 3 4 8 0 12 -262144
-1 0;
#X obj 165 53 cnv 15 15 15 empty \$0-color_slot4 4 4 8 0 12 -262144
-1 0;
#X obj 185 53 cnv 15 15 15 empty \$0-color_slot5 5 4 8 0 12 -262144
-1 0;
#X obj 205 53 cnv 15 15 15 empty \$0-color_slot6 6 4 8 0 12 -262144
-1 0;
#X obj 225 53 cnv 15 15 15 empty \$0-color_slot7 7 4 8 0 12 -262144
-1 0;
#X obj 245 53 cnv 15 15 15 empty \$0-color_slot8 8 4 8 0 12 -262144
-1 0;
#N canvas 15 53 1119 266 clicks 0;
#X obj 48 82 r \$0-click_slot1;
#X msg 48 113 1;
#X obj 218 82 r \$0-click_slot2;
#X obj 388 82 r \$0-click_slot3;
#X obj 558 82 r \$0-click_slot4;
#X obj 728 82 r \$0-click_slot5;
#X obj 898 82 r \$0-click_slot6;
#X obj 1068 82 r \$0-click_slot7;
#X obj 1238 82 r \$0-click_slot8;
#X msg 218 113 2;
#X msg 388 113 3;
#X msg 558 113 4;
#X msg 728 113 5;
#X msg 898 113 6;
#X msg 1068 113 7;
#X msg 1238 113 8;
#X obj 48 6 loadbang;
#X obj 48 34 del 50;
#X obj 646 203 s \$0-active_slot;
#X obj 646 12 r \$0-flush_act_slot;
#X obj 646 39 t b;
#X obj 646 173 f 1;
#X connect 0 0 1 0;
#X connect 1 0 21 0;
#X connect 2 0 9 0;
#X connect 3 0 10 0;
#X connect 4 0 11 0;
#X connect 5 0 12 0;
#X connect 6 0 13 0;
#X connect 7 0 14 0;
#X connect 8 0 15 0;
#X connect 9 0 21 0;
#X connect 10 0 21 0;
#X connect 11 0 21 0;
#X connect 12 0 21 0;
#X connect 13 0 21 0;
#X connect 14 0 21 0;
#X connect 15 0 21 0;
#X connect 16 0 17 0;
#X connect 17 0 1 0;
#X connect 19 0 20 0;
#X connect 20 0 21 0;
#X connect 21 0 18 0;
#X restore 314 28 pd clicks;
#N canvas 506 85 932 423 slots 0;
#N canvas 2 53 450 300 (subpatch) 0;
#X array \$0-slot_state 8 float 2;
#X coords 0 1 8 0 200 140 1 0 0;
#X restore 685 62 graph;
#N canvas 2 53 450 300 (subpatch) 0;
#X array \$0-slot_mem 48 float 2;
#X coords 0 2 48 -1 200 140 1 0 0;
#X restore 685 247 graph;
#X obj 479 43 r \$0-active_slot;
#X floatatom 479 71 5 0 0 0 - - -, f 5;
#N canvas 485 207 719 295 init_arrays 0;
#X msg 60 72 const 0;
#X obj 60 103 s \$0-slot_state;
#X obj 60 41 loadbang;
#X obj 269 227 s \$0-slot_mem;
#X msg 60 138 0 0 1 0.5 0 0 0 0 1 0.5 0 0 0 0 1 0.5 0 0 0 0 1 0.5 0
0 0 0 1 0.5 0 0 0 0 1 0.5 0 0 0 0 1 0.5 0 0 0 0 1 0.5 0 0 0;
#X obj 60 227 s \$0-flush_act_slot;
#X obj 60 195 t b l;
#X connect 0 0 1 0;
#X connect 2 0 0 0;
#X connect 2 0 4 0;
#X connect 4 0 6 0;
#X connect 6 0 5 0;
#X connect 6 1 3 0;
#X restore 283 43 pd init_arrays;
#N canvas 118 431 1021 404 mem_links 0;
#X obj 48 277 r \$0-inset;
#X obj 197 277 r \$0-outset;
#X obj 347 277 r \$0-speed;
#X obj 497 277 r \$0-inv;
#X obj 798 277 r \$0-loop_mode;
#N canvas 1046 235 359 327 2tab 0;
#X obj 46 39 inlet;
#X obj 46 267 tabwrite \$0-slot_mem;
#X obj 46 230 pack f 0;
#X obj 123 198 + 0;
#X obj 150 107 r \$0-active_slot;
#X obj 150 167 * 6;
#X obj 150 137 - 1;
#X obj 46 76 t f b;
#X msg 93 107 0;
#X connect 0 0 7 0;
#X connect 2 0 1 0;
#X connect 3 0 2 1;
#X connect 4 0 6 0;
#X connect 5 0 3 1;
#X connect 6 0 5 0;
#X connect 7 0 2 0;
#X connect 7 1 8 0;
#X connect 8 0 3 0;
#X restore 48 323 pd 2tab;
#N canvas 697 366 359 327 2tab 0;
#X obj 46 39 inlet;
#X obj 46 267 tabwrite \$0-slot_mem;
#X obj 46 230 pack f 0;
#X obj 123 198 + 0;
#X obj 150 107 r \$0-active_slot;
#X obj 150 167 * 6;
#X obj 150 137 - 1;
#X obj 46 76 t f b;
#X msg 93 107 1;
#X connect 0 0 7 0;
#X connect 2 0 1 0;
#X connect 3 0 2 1;
#X connect 4 0 6 0;
#X connect 5 0 3 1;
#X connect 6 0 5 0;
#X connect 7 0 2 0;
#X connect 7 1 8 0;
#X connect 8 0 3 0;
#X restore 197 323 pd 2tab;
#N canvas 706 392 359 327 2tab 0;
#X obj 46 39 inlet;
#X obj 46 267 tabwrite \$0-slot_mem;
#X obj 46 230 pack f 0;
#X obj 123 198 + 0;
#X obj 150 107 r \$0-active_slot;
#X obj 150 167 * 6;
#X obj 150 137 - 1;
#X obj 46 76 t f b;
#X msg 93 107 2;
#X connect 0 0 7 0;
#X connect 2 0 1 0;
#X connect 3 0 2 1;
#X connect 4 0 6 0;
#X connect 5 0 3 1;
#X connect 6 0 5 0;
#X connect 7 0 2 0;
#X connect 7 1 8 0;
#X connect 8 0 3 0;
#X restore 347 323 pd 2tab;
#N canvas 766 414 359 327 2tab 0;
#X obj 46 39 inlet;
#X obj 46 267 tabwrite \$0-slot_mem;
#X obj 46 230 pack f 0;
#X obj 123 198 + 0;
#X obj 150 107 r \$0-active_slot;
#X obj 150 167 * 6;
#X obj 150 137 - 1;
#X obj 46 76 t f b;
#X msg 93 107 3;
#X connect 0 0 7 0;
#X connect 2 0 1 0;
#X connect 3 0 2 1;
#X connect 4 0 6 0;
#X connect 5 0 3 1;
#X connect 6 0 5 0;
#X connect 7 0 2 0;
#X connect 7 1 8 0;
#X connect 8 0 3 0;
#X restore 497 323 pd 2tab;
#N canvas 631 354 359 327 2tab 0;
#X obj 46 39 inlet;
#X obj 46 267 tabwrite \$0-slot_mem;
#X obj 46 230 pack f 0;
#X obj 123 198 + 0;
#X obj 150 107 r \$0-active_slot;
#X obj 150 167 * 6;
#X obj 150 137 - 1;
#X obj 46 76 t f b;
#X msg 93 107 4;
#X connect 0 0 7 0;
#X connect 2 0 1 0;
#X connect 3 0 2 1;
#X connect 4 0 6 0;
#X connect 5 0 3 1;
#X connect 6 0 5 0;
#X connect 7 0 2 0;
#X connect 7 1 8 0;
#X connect 8 0 3 0;
#X restore 628 323 pd 2tab;
#N canvas 716 381 359 327 2tab 0;
#X obj 46 39 inlet;
#X obj 46 267 tabwrite \$0-slot_mem;
#X obj 46 230 pack f 0;
#X obj 123 198 + 0;
#X obj 150 107 r \$0-active_slot;
#X obj 150 167 * 6;
#X obj 150 137 - 1;
#X obj 46 76 t f b;
#X msg 93 107 5;
#X connect 0 0 7 0;
#X connect 2 0 1 0;
#X connect 3 0 2 1;
#X connect 4 0 6 0;
#X connect 5 0 3 1;
#X connect 6 0 5 0;
#X connect 7 0 2 0;
#X connect 7 1 8 0;
#X connect 8 0 3 0;
#X restore 798 323 pd 2tab;
#X obj 628 277 r \$0-loop_st;
#X obj 48 31 r \$0-active_slot;
#N canvas 680 499 301 294 tab2 0;
#X obj 52 35 inlet;
#X obj 142 35 inlet;
#X obj 52 186 tabread \$0-slot_mem;
#X obj 52 153 + 0;
#X obj 142 128 * 6;
#X obj 142 92 - 1;
#X msg 52 92 0;
#X obj 52 231 outlet;
#X connect 0 0 6 0;
#X connect 1 0 5 0;
#X connect 2 0 7 0;
#X connect 3 0 2 0;
#X connect 4 0 3 1;
#X connect 5 0 4 0;
#X connect 6 0 3 0;
#X restore 48 147 pd tab2;
#N canvas 667 398 298 295 tab2 0;
#X obj 52 35 inlet;
#X obj 142 35 inlet;
#X obj 52 186 tabread \$0-slot_mem;
#X obj 52 153 + 0;
#X obj 142 128 * 6;
#X obj 142 92 - 1;
#X obj 52 231 outlet;
#X msg 52 92 1;
#X connect 0 0 7 0;
#X connect 1 0 5 0;
#X connect 2 0 6 0;
#X connect 3 0 2 0;
#X connect 4 0 3 1;
#X connect 5 0 4 0;
#X connect 7 0 3 0;
#X restore 215 147 pd tab2;
#N canvas 668 370 298 295 tab2 0;
#X obj 52 35 inlet;
#X obj 142 35 inlet;
#X obj 52 186 tabread \$0-slot_mem;
#X obj 52 153 + 0;
#X obj 142 128 * 6;
#X obj 142 92 - 1;
#X obj 52 231 outlet;
#X msg 52 92 2;
#X connect 0 0 7 0;
#X connect 1 0 5 0;
#X connect 2 0 6 0;
#X connect 3 0 2 0;
#X connect 4 0 3 1;
#X connect 5 0 4 0;
#X connect 7 0 3 0;
#X restore 347 147 pd tab2;
#N canvas 670 314 298 295 tab2 0;
#X obj 52 35 inlet;
#X obj 142 35 inlet;
#X obj 52 186 tabread \$0-slot_mem;
#X obj 52 153 + 0;
#X obj 142 128 * 6;
#X obj 142 92 - 1;
#X obj 52 231 outlet;
#X msg 52 92 3;
#X connect 0 0 7 0;
#X connect 1 0 5 0;
#X connect 2 0 6 0;
#X connect 3 0 2 0;
#X connect 4 0 3 1;
#X connect 5 0 4 0;
#X connect 7 0 3 0;
#X restore 497 147 pd tab2;
#N canvas 671 286 298 295 tab2 0;
#X obj 52 35 inlet;
#X obj 142 35 inlet;
#X obj 52 186 tabread \$0-slot_mem;
#X obj 52 153 + 0;
#X obj 142 128 * 6;
#X obj 142 92 - 1;
#X obj 52 231 outlet;
#X msg 52 92 4;
#X connect 0 0 7 0;
#X connect 1 0 5 0;
#X connect 2 0 6 0;
#X connect 3 0 2 0;
#X connect 4 0 3 1;
#X connect 5 0 4 0;
#X connect 7 0 3 0;
#X restore 628 147 pd tab2;
#N canvas 668 370 298 295 tab2 0;
#X obj 52 35 inlet;
#X obj 142 35 inlet;
#X obj 52 186 tabread \$0-slot_mem;
#X obj 52 153 + 0;
#X obj 142 128 * 6;
#X obj 142 92 - 1;
#X obj 52 231 outlet;
#X msg 52 92 5;
#X connect 0 0 7 0;
#X connect 1 0 5 0;
#X connect 2 0 6 0;
#X connect 3 0 2 0;
#X connect 4 0 3 1;
#X connect 5 0 4 0;
#X connect 7 0 3 0;
#X restore 798 147 pd tab2;
#X obj 347 193 s \$0-speed_in;
#X obj 497 193 s \$0-inv_in;
#X obj 628 193 s \$0-loop_st_in;
#X obj 798 193 s \$0-loop_mode_in;
#N canvas 2 277 325 337 setMultiSlider 0;
#X obj 109 213 s \$0-sel_ctl;
#X msg 109 183 set \$1 \$2;
#X obj 109 144 pack f f;
#X obj 62 44 inlet;
#X obj 186 44 inlet;
#X obj 62 263 s \$0-inset_in;
#X obj 62 74 t b f;
#X connect 1 0 0 0;
#X connect 2 0 1 0;
#X connect 3 0 6 0;
#X connect 4 0 2 1;
#X connect 6 0 5 0;
#X connect 6 1 2 0;
#X restore 48 193 pd setMultiSlider;
#X obj 48 98 t b b b b b b f f f f f f, f 82;
#X obj 48 61 pipe 5;
#X connect 0 0 5 0;
#X connect 1 0 6 0;
#X connect 2 0 7 0;
#X connect 3 0 8 0;
#X connect 4 0 10 0;
#X connect 11 0 9 0;
#X connect 12 0 25 0;
#X connect 13 0 23 0;
#X connect 14 0 23 1;
#X connect 15 0 19 0;
#X connect 16 0 20 0;
#X connect 17 0 21 0;
#X connect 18 0 22 0;
#X connect 24 0 13 0;
#X connect 24 1 14 0;
#X connect 24 2 15 0;
#X connect 24 3 16 0;
#X connect 24 4 17 0;
#X connect 24 5 18 0;
#X connect 24 6 13 1;
#X connect 24 7 14 1;
#X connect 24 8 15 1;
#X connect 24 9 16 1;
#X connect 24 10 17 1;
#X connect 24 11 18 1;
#X connect 25 0 24 0;
#X restore 283 77 pd mem_links;
#N canvas 45 53 543 695 flush_mem 0;
#X obj 239 92 s \$0-slot_flush;
#X obj 239 60 t b b;
#X obj 296 349 f;
#X obj 336 349 + 1;
#X msg 323 322 0;
#X obj 296 288 until;
#X obj 296 457 list prepend;
#X obj 259 491 list;
#X obj 296 421 tabread \$0-slot_mem;
#X msg 296 258 6;
#X obj 296 385 + 0;
#X obj 259 223 t b b b b f;
#X obj 52 92 r \$0-slot_list;
#X obj 259 161 f;
#X obj 299 161 + 1;
#X msg 286 134 0;
#X obj 52 136 t l b;
#X obj 259 194 * 6;
#X obj 52 516 list append;
#X obj 52 549 list prepend video;
#X obj 426 457 list;
#X obj 52 582 list trim;
#X obj 239 27 r CH\$1_FLUSH;
#X obj 52 629 s CH\$1_PRESET;
#X connect 1 0 0 0;
#X connect 1 1 15 0;
#X connect 2 0 3 0;
#X connect 2 0 10 0;
#X connect 3 0 2 1;
#X connect 4 0 2 1;
#X connect 5 0 2 0;
#X connect 6 0 7 1;
#X connect 6 0 20 0;
#X connect 7 0 18 1;
#X connect 8 0 6 0;
#X connect 9 0 5 0;
#X connect 10 0 8 0;
#X connect 11 0 7 0;
#X connect 11 1 9 0;
#X connect 11 2 4 0;
#X connect 11 3 6 1;
#X connect 11 4 10 1;
#X connect 12 0 16 0;
#X connect 13 0 14 0;
#X connect 13 0 17 0;
#X connect 14 0 13 1;
#X connect 15 0 13 1;
#X connect 16 0 18 0;
#X connect 16 1 13 0;
#X connect 17 0 11 0;
#X connect 18 0 19 0;
#X connect 19 0 21 0;
#X connect 20 0 6 1;
#X connect 21 0 23 0;
#X connect 22 0 1 0;
#X restore 283 111 pd flush_mem;
#N canvas 476 353 789 477 receive_preset 0;
#X obj 65 23 r MAIN_PRESET_SEND;
#X obj 65 93 route \$1;
#X obj 65 123 route video;
#X obj 65 233 list split 2;
#X obj 65 395 tabwrite \$0-slot_state;
#X obj 65 297 unpack f f;
#X obj 65 326 - 1;
#X obj 65 356 swap;
#X obj 274 129 s \$0-flush_act_slot;
#X obj 274 340 s \$0-slot_file_preset;
#X obj 274 188 list split 1;
#X obj 65 163 t l l l l;
#X obj 274 303 pack f s;
#X obj 332 218 list split 1;
#X obj 390 248 list split 1;
#X obj 390 278 symbol;
#X obj 554 188 list split 1;
#X obj 554 219 - 1;
#X obj 554 249 * 6;
#X obj 612 219 list split 2;
#X obj 554 280 list append;
#X obj 554 340 s \$0-slot_mem;
#X obj 274 109 bng 15 250 50 0 empty empty empty 17 7 0 10 -262144
-1 -1;
#X obj 65 56 t b a;
#X obj 274 81 del 10;
#X connect 0 0 23 0;
#X connect 1 0 2 0;
#X connect 2 0 11 0;
#X connect 3 0 5 0;
#X connect 5 0 6 0;
#X connect 5 1 7 1;
#X connect 6 0 7 0;
#X connect 7 0 4 0;
#X connect 7 1 4 1;
#X connect 10 0 12 0;
#X connect 10 1 13 0;
#X connect 11 0 3 0;
#X connect 11 1 10 0;
#X connect 11 2 16 0;
#X connect 12 0 9 0;
#X connect 13 1 14 0;
#X connect 14 0 15 0;
#X connect 15 0 12 1;
#X connect 16 0 17 0;
#X connect 16 1 19 0;
#X connect 17 0 18 0;
#X connect 18 0 20 0;
#X connect 19 1 20 1;
#X connect 20 0 21 0;
#X connect 22 0 8 0;
#X connect 23 0 24 0;
#X connect 23 1 1 0;
#X connect 24 0 22 0;
#X restore 283 145 pd receive_preset;
#X obj 54 43 arrast_slot \$0 \$1 1;
#X obj 54 77 arrast_slot \$0 \$1 2;
#X obj 54 111 arrast_slot \$0 \$1 3;
#X obj 54 145 arrast_slot \$0 \$1 4;
#X obj 54 179 arrast_slot \$0 \$1 5;
#X obj 54 213 arrast_slot \$0 \$1 6;
#X obj 54 247 arrast_slot \$0 \$1 7;
#X obj 54 281 arrast_slot \$0 \$1 8;
#X connect 2 0 3 0;
#X restore 314 59 pd slots;
#N canvas 589 343 732 482 select 0;
#X obj 392 142 symbol;
#X obj 449 115 r \$0-file;
#X obj 392 57 r \$0-click_load;
#X obj 392 94 bng 30 250 50 0 empty empty empty 17 7 0 10 -262144 -1
-1;
#X obj 66 194 timer;
#X obj 66 164 t b b;
#X floatatom 66 224 5 0 0 0 - - -, f 5;
#X obj 66 284 sel 1;
#X obj 66 57 r \$0-file;
#X text 64 26 duplo click;
#X obj 146 154 list append;
#X obj 146 220 list split 2;
#X obj 146 252 unpack s s;
#X obj 146 284 sel symbol;
#X obj 195 187 list split 2;
#X obj 66 406 s \$0-click_load;
#X obj 66 338 spigot;
#X msg 146 313 1;
#X msg 243 313 0;
#X obj 66 368 bng 30 250 50 0 empty empty empty 17 7 0 10 -262144 -1
-1;
#X obj 66 254 < 250;
#X obj 66 129 t b s;
#X text 391 26 envia info;
#X msg 439 215 1;
#X obj 506 215 r \$0-active_slot;
#X obj 439 285 tabwrite \$0-slot_state;
#X obj 392 323 s \$0-slot_file_in;
#X obj 506 244 - 1;
#X obj 392 175 t s b;
#X obj 66 89 iemlib/splitfilename;
#X connect 0 0 28 0;
#X connect 1 0 0 1;
#X connect 2 0 3 0;
#X connect 3 0 0 0;
#X connect 4 0 6 0;
#X connect 5 0 4 0;
#X connect 5 1 4 1;
#X connect 6 0 20 0;
#X connect 7 0 16 0;
#X connect 8 0 29 0;
#X connect 10 0 11 0;
#X connect 10 0 14 0;
#X connect 11 0 12 0;
#X connect 12 0 13 0;
#X connect 12 1 13 1;
#X connect 13 0 17 0;
#X connect 13 1 18 0;
#X connect 14 0 10 1;
#X connect 14 2 10 1;
#X connect 16 0 19 0;
#X connect 17 0 16 1;
#X connect 18 0 16 1;
#X connect 19 0 15 0;
#X connect 20 0 7 0;
#X connect 21 0 5 0;
#X connect 21 1 10 0;
#X connect 23 0 25 0;
#X connect 24 0 27 0;
#X connect 27 0 25 1;
#X connect 28 0 26 0;
#X connect 28 1 23 0;
#X connect 29 1 21 0;
#X restore 314 90 pd select;
#N canvas 563 109 581 330 file_visor 0;
#X msg 418 206 label \$1;
#X obj 211 272 s \$0-visor_name;
#X msg 211 206 label abrir_vídeo;
#X msg 47 206 color \$1;
#X obj 47 177 r \$0-bg_color;
#N canvas 276 201 619 652 name_cut 0;
#X msg 352 54 symbol;
#X obj 352 23 loadbang;
#X obj 252 153 list length;
#X obj 195 122 t l l;
#X obj 195 250 spigot;
#X obj 295 250 spigot;
#X msg 349 357 ...;
#X obj 453 426 t l;
#X obj 332 426 list append;
#X obj 295 464 list;
#X obj 295 287 t b l b l b;
#X msg 352 534 symbol;
#X obj 352 503 loadbang;
#X text 275 116 ajusta nome para exibição;
#X obj 252 194 <= 22;
#X obj 352 193 > 22;
#X obj 375 390 list split 7;
#X obj 492 194 - 10;
#X obj 332 325 list split 9;
#X obj 38 4 inlet;
#X obj 195 601 outlet;
#X obj 195 84 zexy/symbol2list;
#X obj 195 565 zexy/list2symbol;
#X obj 38 41 iemlib/splitfilename /;
#X connect 0 0 21 1;
#X connect 1 0 0 0;
#X connect 2 0 14 0;
#X connect 2 0 15 0;
#X connect 2 0 17 0;
#X connect 3 0 5 0;
#X connect 3 0 4 0;
#X connect 3 1 2 0;
#X connect 4 0 22 0;
#X connect 5 0 10 0;
#X connect 6 0 8 0;
#X connect 7 0 8 1;
#X connect 8 0 7 0;
#X connect 8 0 9 1;
#X connect 9 0 22 0;
#X connect 10 0 9 0;
#X connect 10 1 18 0;
#X connect 10 2 6 0;
#X connect 10 3 16 0;
#X connect 10 4 8 1;
#X connect 11 0 22 1;
#X connect 12 0 11 0;
#X connect 14 0 4 1;
#X connect 15 0 5 1;
#X connect 16 1 8 0;
#X connect 17 0 16 1;
#X connect 18 0 8 0;
#X connect 19 0 23 0;
#X connect 21 0 3 0;
#X connect 22 0 20 0;
#X connect 23 1 21 0;
#X restore 418 177 pd name_cut;
#X obj 231 167 loadbang;
#X obj 211 10 r \$0-active_file;
#X obj 211 116 t b;
#X obj 211 50 sel vazio;
#X connect 0 0 1 0;
#X connect 2 0 1 0;
#X connect 3 0 1 0;
#X connect 4 0 3 0;
#X connect 5 0 0 0;
#X connect 6 0 2 0;
#X connect 7 0 9 0;
#X connect 8 0 2 0;
#X connect 9 0 8 0;
#X connect 9 1 5 0;
#X restore 314 122 pd file_visor;
#X connect 1 0 3 0;
#X connect 3 0 2 0;
#X coords 0 -1 1 1 165 21 2 100 50;
#X restore 44 62 pd select_slot;
#X obj 18 14 hradio 18 1 0 12 \$0-close_browser \$0-close_browser_in
empty 0 -8 0 10 -262144 -1 -1 6;
#X obj 15 14 cnv 15 223 18 empty empty FECHAR_JANELA 70 9 0 10 -128992
-262144 0;
#X obj 44 44 cnv 15 165 18 empty \$0-visor_name abrir_vídeo 5 9 0
12 -355 -262144 0;
#X coords 0 -1 1 1 165 21 2 44 62;
#X restore 90 79 pd V_\$1_browser_file;
#N canvas 255 179 1166 676 video_unit 0;
#X obj 44 591 rectangle 4 3;
#X obj 44 301 pix_film;
#X obj 44 385 pix_texture;
#X obj 44 231 gemhead \$1;
#X obj 44 496 translateXYZ 0 0 0;
#N canvas 408 380 275 266 trans 0;
#X obj 39 36 loadbang;
#X obj 39 72 f \$1;
#X obj 39 204 outlet;
#X obj 39 109 sel 1 2 3 4;
#X msg 39 146 3;
#X msg 90 146 1;
#X msg 141 146 -1;
#X msg 192 146 -3;
#X connect 0 0 1 0;
#X connect 1 0 3 0;
#X connect 3 0 4 0;
#X connect 3 1 5 0;
#X connect 3 2 6 0;
#X connect 3 3 7 0;
#X connect 4 0 2 0;
#X connect 5 0 2 0;
#X connect 6 0 2 0;
#X connect 7 0 2 0;
#X restore 162 459 pd trans;
#X obj 44 540 scale 0.3;
#X msg 220 360 quality 0;
#X obj 220 331 loadbang;
#X text 70 15 ----- PREVIEW -----;
#X text 720 15 ----- CURSOR MASTER -----;
#X obj 637 234 f;
#X obj 714 209 + 1;
#X obj 637 278 mod 1;
#X floatatom 764 103 12 0 0 0 - - -, f 12;
#X obj 714 253 r \$0-modulo;
#X obj 637 320 +;
#X obj 714 295 r \$0-offset;
#N canvas 103 100 542 494 loop_noloop 0;
#X obj 270 31 r \$0-cursor;
#X obj 270 298 sel;
#X obj 270 373 spigot;
#X obj 327 340 != 1;
#X obj 297 255 moses;
#X obj 383 230 r \$0-frames;
#X obj 297 219 - 1;
#X obj 383 194 == 1;
#X obj 297 184 f;
#X obj 336 147 t b f;
#X obj 336 114 r \$0-direction;
#X obj 60 199 f;
#X obj 100 199 + 1;
#X obj 60 227 % 2;
#X floatatom 60 261 5 0 0 0 - - -, f 5;
#X obj 127 142 loadbang;
#N canvas 504 263 633 274 color 0;
#X obj 45 41 inlet;
#X obj 45 96 sel 0 1;
#X msg 45 156 color 28 28 0;
#X obj 45 207 s \$0-loop_in;
#X msg 205 156 color 18 18 22;
#X obj 408 41 loadbang;
#X msg 408 84 color 28 0 0;
#X obj 408 127 s \$0-loop_mode_in;
#X connect 0 0 1 0;
#X connect 1 0 2 0;
#X connect 1 1 4 0;
#X connect 2 0 3 0;
#X connect 4 0 3 0;
#X connect 5 0 6 0;
#X connect 6 0 7 0;
#X restore 60 357 pd color;
#X msg 72 167 0;
#X obj 297 76 r \$0-out;
#X obj 60 65 r \$0-loop;
#X obj 270 431 s \$0-stop;
#X obj 60 315 t f f f;
#X obj 126 397 s \$0-loop_st;
#X obj 80 99 r \$0-loop_st_in;
#X connect 0 0 1 0;
#X connect 1 0 2 0;
#X connect 2 0 20 0;
#X connect 3 0 2 1;
#X connect 4 0 1 1;
#X connect 5 0 4 1;
#X connect 6 0 4 0;
#X connect 7 0 6 1;
#X connect 8 0 6 0;
#X connect 9 0 8 0;
#X connect 9 1 7 0;
#X connect 10 0 9 0;
#X connect 11 0 13 0;
#X connect 12 0 11 1;
#X connect 13 0 12 0;
#X connect 13 0 14 0;
#X connect 14 0 21 0;
#X connect 15 0 17 0;
#X connect 17 0 11 0;
#X connect 18 0 8 0;
#X connect 19 0 11 0;
#X connect 21 0 16 0;
#X connect 21 1 3 0;
#X connect 21 2 22 0;
#X connect 23 0 11 0;
#X restore 940 280 pd loop_noloop;
#X msg 511 209 0;
#X obj 637 138 metro 41.6667;
#X floatatom 637 445 5 0 0 0 - - -, f 5;
#N canvas 327 284 483 263 stop 0;
#X obj 42 36 r \$0-stop;
#X msg 172 97 0;
#X obj 172 130 s \$0-motor;
#X obj 42 130 s \$0-gotoin;
#X obj 295 163 list prepend V\$1;
#X obj 295 197 s CANAL_V;
#X obj 295 130 list prepend render;
#X msg 295 97 0;
#X obj 42 72 t b b b;
#X connect 0 0 8 0;
#X connect 1 0 2 0;
#X connect 4 0 5 0;
#X connect 6 0 4 0;
#X connect 7 0 6 0;
#X connect 8 0 3 0;
#X connect 8 1 1 0;
#X connect 8 2 7 0;
#X restore 940 250 pd stop;
#X obj 637 102 tgl 25 0 empty empty empty 17 7 0 10 -204786 -1 -1 0
1;
#X obj 637 68 r \$0-motor;
#N canvas 145 53 483 509 modulo_offset 0;
#X obj 284 259 <;
#X floatatom 284 294 5 0 0 0 - - -, f 5;
#X obj 284 222 t f f;
#X obj 354 222 t f f;
#X obj 374 365 f;
#X obj 284 365 f;
#X obj 284 329 sel 1 0;
#X floatatom 284 401 5 0 0 0 - - -, f 5;
#X obj 284 441 s \$0-offset;
#X obj 57 225 -;
#X obj 95 200 t b f;
#X obj 57 260 abs;
#X floatatom 57 296 5 0 0 0 - - -, f 5;
#X obj 124 372 s \$0-modulo;
#X obj 284 186 f;
#X obj 354 186 f;
#X obj 57 332 t b b f;
#X obj 95 161 t f f;
#X obj 57 82 t f f;
#X obj 57 46 r \$0-in;
#X obj 95 124 r \$0-out;
#X connect 0 0 1 0;
#X connect 1 0 6 0;
#X connect 2 0 0 0;
#X connect 2 1 5 1;
#X connect 3 0 0 1;
#X connect 3 1 4 1;
#X connect 4 0 7 0;
#X connect 5 0 7 0;
#X connect 6 0 5 0;
#X connect 6 1 4 0;
#X connect 7 0 8 0;
#X connect 9 0 11 0;
#X connect 10 0 9 0;
#X connect 10 1 9 1;
#X connect 11 0 12 0;
#X connect 12 0 16 0;
#X connect 14 0 2 0;
#X connect 15 0 3 0;
#X connect 16 0 14 0;
#X connect 16 1 15 0;
#X connect 16 2 13 0;
#X connect 17 0 10 0;
#X connect 17 1 15 1;
#X connect 18 0 9 0;
#X connect 18 1 14 1;
#X connect 19 0 18 0;
#X connect 20 0 17 0;
#X restore 941 400 pd modulo_offset;
#X floatatom 1014 144 5 0 0 0 - #0-in -, f 5;
#X floatatom 1014 174 5 0 0 0 - #0-out -, f 5;
#X obj 511 179 r \$0-gotoin;
#N canvas 266 482 355 163 timeline 0;
#X msg 195 74 range 0 \$1;
#X obj 195 33 r \$0-frames;
#X obj 40 33 r \$0-cursor;
#X obj 40 99 s \$0-timeline;
#X connect 0 0 3 0;
#X connect 1 0 0 0;
#X connect 2 0 3 0;
#X restore 940 369 pd timeline;
#N canvas 110 68 660 700 loopmode 0;
#X obj 36 33 inlet;
#X obj 70 644 outlet;
#X obj 172 517 t f f;
#X obj 261 579 spigot;
#X obj 70 579 spigot 1;
#X obj 36 65 s \$0-cru;
#X obj 162 146 t f f;
#X obj 105 290 spigot;
#X obj 310 290 spigot 1;
#X obj 387 260 == 0;
#X obj 70 546 r \$0-cru;
#X obj 344 178 abs;
#X obj 344 146 - 1;
#X obj 371 114 r \$0-framefinal;
#X obj 392 188 r \$0-offset;
#X obj 344 213 + 0;
#X obj 277 33 r \$0-cru;
#X obj 277 66 t f f f;
#X text 389 143 calcula cursor invertido;
#N canvas 471 53 408 349 alternador 0;
#N canvas 530 217 349 351 loop_point 0;
#X obj 41 37 inlet;
#X obj 41 287 outlet;
#X obj 88 174 - 1;
#X obj 234 149 == 1;
#X obj 41 238 sel 1;
#X obj 88 141 f;
#X obj 187 116 t b f;
#X floatatom 88 210 5 0 0 0 - - -, f 5;
#X obj 187 79 r \$0-direction;
#X obj 88 81 r \$0-out;
#X connect 0 0 4 0;
#X connect 2 0 7 0;
#X connect 3 0 2 1;
#X connect 4 0 1 0;
#X connect 5 0 2 0;
#X connect 6 0 5 0;
#X connect 6 1 3 0;
#X connect 7 0 4 1;
#X connect 8 0 6 0;
#X connect 9 0 5 0;
#X restore 48 101 pd loop_point;
#X obj 48 166 f;
#X obj 92 166 + 1;
#X obj 48 198 % 2;
#X obj 48 40 inlet;
#X obj 48 282 outlet;
#X obj 127 282 s \$0-change;
#X obj 48 242 t f b;
#X obj 212 47 r \$0-altreset;
#X obj 212 141 f 0;
#X obj 239 109 != 1;
#X obj 239 79 r \$0-direction;
#X connect 0 0 1 0;
#X connect 1 0 3 0;
#X connect 2 0 1 1;
#X connect 3 0 2 0;
#X connect 3 0 7 0;
#X connect 4 0 0 0;
#X connect 7 0 5 0;
#X connect 7 1 6 0;
#X connect 8 0 9 0;
#X connect 9 0 1 0;
#X connect 10 0 9 1;
#X connect 11 0 10 0;
#X restore 162 114 pd alternador;
#X obj 310 343 s \$0-cozido;
#X obj 261 546 r \$0-cozido;
#X obj 172 554 == 0;
#X text 145 642 saida do cursor no loopmode escolhido;
#X obj 172 483 f;
#X obj 172 421 r \$0-change;
#X text 401 289 normal;
#X text 174 289 invertido;
#X obj 310 458 t f b;
#X obj 357 490 s \$0-altreset;
#X obj 310 419 r \$0-loop_mode;
#X connect 0 0 5 0;
#X connect 2 0 22 0;
#X connect 2 1 3 1;
#X connect 3 0 1 0;
#X connect 4 0 1 0;
#X connect 6 0 7 1;
#X connect 6 1 9 0;
#X connect 7 0 20 0;
#X connect 8 0 20 0;
#X connect 9 0 8 1;
#X connect 10 0 4 0;
#X connect 11 0 15 0;
#X connect 12 0 11 0;
#X connect 13 0 12 1;
#X connect 14 0 15 1;
#X connect 15 0 7 0;
#X connect 16 0 17 0;
#X connect 17 0 19 0;
#X connect 17 1 8 0;
#X connect 17 2 12 0;
#X connect 19 0 6 0;
#X connect 21 0 3 0;
#X connect 22 0 4 1;
#X connect 24 0 2 0;
#X connect 25 0 24 0;
#X connect 28 0 24 1;
#X connect 28 1 29 0;
#X connect 30 0 28 0;
#X restore 637 351 pd loopmode;
#X text 697 444 CURSOR;
#X obj 659 485 s \$0-cursor;
#X obj 637 524 list prepend cursor;
#X obj 637 591 s CANAL_V;
#X obj 637 557 list prepend V\$1;
#N canvas 209 419 323 195 final_frame 0;
#X obj 40 68 +;
#X obj 40 135 s \$0-framefinal;
#X obj 40 101 - 1;
#X obj 40 30 r \$0-offset;
#X obj 170 30 r \$0-modulo;
#X connect 0 0 2 0;
#X connect 2 0 1 0;
#X connect 3 0 0 0;
#X connect 4 0 0 1;
#X restore 941 431 pd final_frame;
#N canvas 766 81 368 370 speed 0;
#X msg 45 73 1000 \$1;
#X obj 45 105 /;
#N canvas 770 388 221 183 speed_reset 0;
#X obj 31 69 r \$0-reset_speed;
#X msg 31 98 0.5;
#X obj 31 128 s \$0-speed_in;
#X obj 31 25 loadbang;
#X connect 0 0 1 0;
#X connect 1 0 2 0;
#X connect 3 0 1 0;
#X restore 182 305 pd speed_reset;
#X obj 45 304 outlet;
#X obj 45 41 r MASTER_FPS;
#X obj 45 156 f;
#X obj 45 195 * 1;
#X obj 212 41 r \$0-speed;
#X obj 212 101 clip 0.01 2;
#X obj 212 71 * 2;
#X obj 212 131 t b f;
#X obj 182 256 s \$0-fr_time;
#X obj 45 231 t f f;
#X connect 0 0 1 0;
#X connect 1 0 5 0;
#X connect 4 0 0 0;
#X connect 5 0 6 0;
#X connect 6 0 12 0;
#X connect 7 0 9 0;
#X connect 8 0 10 0;
#X connect 9 0 8 0;
#X connect 10 0 5 0;
#X connect 10 1 6 1;
#X connect 12 0 3 0;
#X connect 12 1 11 0;
#X restore 764 68 pd speed;
#X obj 324 46 r CH\$1_SELECT;
#X obj 324 78 == 1;
#X obj 44 92 tgl 25 0 empty empty empty 17 7 0 10 -262144 -1 -1 1 1
;
#X obj 324 111 s \$0-prev_on;
#X obj 44 56 r \$0-prev_on;
#X obj 44 130 t f f;
#N canvas 12 383 464 466 prev_control 0;
#X obj 132 395 outlet;
#X obj 265 395 outlet;
#X msg 132 285 open \$1;
#N canvas 197 310 232 361 prev_cursor 0;
#X obj 40 213 * 1;
#X obj 40 246 int;
#X obj 114 213 del 50;
#X obj 67 175 t f b;
#N canvas 181 199 353 544 jump 0;
#X obj 41 232 metro 1000;
#X obj 41 309 f;
#X obj 41 341 % 5;
#X obj 87 309 + 1;
#X msg 68 279 0;
#X msg 41 189 1;
#X msg 88 189 0;
#X obj 41 148 t b b;
#X obj 41 384 sel 0 1 2 3 4;
#X msg 41 422 0.1;
#X msg 91 422 0.25;
#X msg 151 422 0.5;
#X msg 202 422 0.75;
#X msg 263 422 0.95;
#X obj 41 475 outlet;
#X obj 41 112 sel 1;
#X obj 41 71 tgl 25 0 empty empty empty 17 7 0 10 -262144 -1 -1 1 1
;
#X obj 41 36 inlet;
#X connect 0 0 1 0;
#X connect 1 0 2 0;
#X connect 2 0 3 0;
#X connect 2 0 8 0;
#X connect 3 0 1 1;
#X connect 4 0 1 1;
#X connect 5 0 0 0;
#X connect 6 0 0 0;
#X connect 7 0 5 0;
#X connect 7 1 4 0;
#X connect 8 0 9 0;
#X connect 8 1 10 0;
#X connect 8 2 11 0;
#X connect 8 3 12 0;
#X connect 8 4 13 0;
#X connect 9 0 14 0;
#X connect 10 0 14 0;
#X connect 11 0 14 0;
#X connect 12 0 14 0;
#X connect 13 0 14 0;
#X connect 15 0 7 0;
#X connect 15 1 6 0;
#X connect 16 0 15 0;
#X connect 17 0 16 0;
#X restore 40 103 pd jump;
#X obj 40 75 tgl 15 0 empty empty empty 17 7 0 10 -262144 -1 -1 1 1
;
#X obj 40 36 inlet;
#X obj 40 294 outlet;
#X obj 67 142 r \$0-frames;
#X msg 114 246 5;
#X connect 0 0 1 0;
#X connect 1 0 7 0;
#X connect 2 0 9 0;
#X connect 3 0 0 1;
#X connect 3 1 2 0;
#X connect 4 0 0 0;
#X connect 5 0 4 0;
#X connect 6 0 5 0;
#X connect 8 0 3 0;
#X connect 9 0 7 0;
#X restore 265 345 pd prev_cursor;
#X obj 265 323 tgl 15 0 empty empty empty 17 7 0 10 -232576 -1 -1 1
1;
#X text 285 319 JUMP!;
#X msg 265 278 1;
#X obj 132 253 t s b;
#X obj 45 49 r \$0-active_file;
#X msg 311 278 0;
#X obj 265 245 sel 1 0;
#X obj 45 18 r \$0-file;
#X obj 265 204 r \$0-ch_state;
#X obj 45 253 t b;
#N canvas 415 478 331 252 change_symbol 0;
#X obj 57 92 t s s;
#X obj 57 129 sel s;
#X text 124 106 [change] symbol!;
#X obj 57 45 inlet;
#X obj 104 203 outlet;
#X obj 104 159 symbol;
#X connect 0 0 1 1;
#X connect 0 1 1 0;
#X connect 1 1 5 0;
#X connect 3 0 0 0;
#X connect 5 0 4 0;
#X restore 132 149 pd change_symbol;
#X obj 45 110 sel vazio;
#X obj 45 80 t b s;
#X obj 172 105 s \$0-ioflush;
#X connect 2 0 0 0;
#X connect 3 0 1 0;
#X connect 4 0 3 0;
#X connect 6 0 4 0;
#X connect 7 0 2 0;
#X connect 7 1 6 0;
#X connect 8 0 16 0;
#X connect 9 0 4 0;
#X connect 10 0 6 0;
#X connect 10 1 9 0;
#X connect 11 0 16 0;
#X connect 12 0 10 0;
#X connect 13 0 9 0;
#X connect 14 0 7 0;
#X connect 15 0 13 0;
#X connect 15 1 14 0;
#X connect 16 0 17 0;
#X connect 16 1 15 0;
#X restore 142 276 pd prev_control;
#X obj 91 166 s \$0-ch_state;
#N canvas 482 236 379 404 send_file 0;
#X obj 52 32 r \$0-active_file;
#X obj 139 307 list prepend V\$1;
#X obj 139 341 s CANAL_V;
#X obj 139 274 list prepend file;
#X obj 139 242 symbol;
#X obj 139 135 t s b;
#X obj 52 66 sel vazio;
#X obj 186 166 del 100;
#X obj 186 197 s \$0-inset_in;
#N canvas 413 534 331 252 change_symbol 0;
#X obj 57 92 t s s;
#X obj 57 129 sel s;
#X text 124 106 [change] symbol!;
#X obj 57 45 inlet;
#X obj 104 203 outlet;
#X obj 104 159 symbol;
#X connect 0 0 1 1;
#X connect 0 1 1 0;
#X connect 1 1 5 0;
#X connect 3 0 0 0;
#X connect 5 0 4 0;
#X restore 139 102 pd change_symbol;
#X connect 0 0 6 0;
#X connect 1 0 2 0;
#X connect 3 0 1 0;
#X connect 4 0 3 0;
#X connect 5 0 4 0;
#X connect 5 1 7 0;
#X connect 6 1 9 0;
#X connect 7 0 8 0;
#X connect 9 0 5 0;
#X restore 940 68 pd send_file;
#X obj 44 422 rotateXYZ 0 0 0;
#N canvas 152 129 629 609 play_pause 0;
#X obj 177 380 s \$0-motor;
#X msg 177 353 1;
#X obj 293 380 s \$0-ioflush;
#X obj 426 380 s \$0-altreset;
#X obj 58 144 f;
#X obj 98 144 + 1;
#X obj 58 172 % 2;
#X floatatom 58 206 5 0 0 0 - - -, f 5;
#X obj 125 87 loadbang;
#N canvas 514 263 402 289 color 0;
#X obj 45 41 inlet;
#X obj 45 96 sel 0 1;
#X obj 45 207 s \$0-play_in;
#X msg 45 156 color 26 26 0;
#X msg 205 156 color 16 16 22;
#X connect 0 0 1 0;
#X connect 1 0 3 0;
#X connect 1 1 4 0;
#X connect 3 0 2 0;
#X connect 4 0 2 0;
#X restore 58 312 pd color;
#X msg 70 112 0;
#X obj 58 50 r \$0-play;
#X obj 456 333 s \$0-motor;
#X msg 456 300 0;
#X obj 177 275 sel 1 0;
#X obj 177 312 t b b b;
#X obj 230 87 r \$0-stop;
#X obj 435 50 r \$0-reset;
#X obj 435 84 s \$0-gotoin;
#X obj 177 521 list prepend V\$1;
#X obj 177 555 s CANAL_V;
#X obj 177 488 list prepend render;
#X obj 177 456 spigot;
#X obj 58 250 t f f;
#X obj 234 423 r \$0-ch_state;
#X connect 1 0 0 0;
#X connect 1 0 22 0;
#X connect 4 0 6 0;
#X connect 5 0 4 1;
#X connect 6 0 5 0;
#X connect 6 0 7 0;
#X connect 7 0 23 0;
#X connect 8 0 10 0;
#X connect 10 0 4 0;
#X connect 11 0 4 0;
#X connect 13 0 12 0;
#X connect 14 0 15 0;
#X connect 14 1 13 0;
#X connect 15 0 1 0;
#X connect 15 1 2 0;
#X connect 15 2 3 0;
#X connect 16 0 10 0;
#X connect 17 0 18 0;
#X connect 19 0 20 0;
#X connect 21 0 19 0;
#X connect 22 0 21 0;
#X connect 23 0 9 0;
#X connect 23 1 14 0;
#X connect 24 0 22 1;
#X restore 940 220 pd play_pause;
#X obj 741 177 r \$0-direction;
#N canvas 168 533 304 363 in 0;
#X obj 55 119 r \$0-frames;
#X obj 43 217 *;
#X obj 43 247 int;
#X floatatom 43 277 5 0 0 0 - - -, f 5;
#X obj 43 83 f;
#X obj 145 58 r \$0-ioflush;
#X obj 55 150 t b f;
#X obj 55 181 s \$0-ioflush;
#X obj 43 310 s \$0-in;
#X obj 43 23 r \$0-inset;
#X connect 0 0 6 0;
#X connect 1 0 2 0;
#X connect 2 0 3 0;
#X connect 3 0 8 0;
#X connect 4 0 1 0;
#X connect 5 0 4 0;
#X connect 6 0 7 0;
#X connect 6 1 1 1;
#X connect 9 0 4 0;
#X restore 940 144 pd in;
#N canvas 569 491 280 381 out 0;
#X obj 55 127 r \$0-frames;
#X obj 43 226 *;
#X obj 43 256 int;
#X floatatom 43 286 5 0 0 0 - - -, f 5;
#X obj 43 92 f;
#X obj 118 67 r \$0-ioflush;
#X obj 55 159 t b f;
#X obj 55 189 s \$0-ioflush;
#X obj 43 319 s \$0-out;
#X obj 43 29 r \$0-outset;
#X connect 0 0 6 0;
#X connect 1 0 2 0;
#X connect 2 0 3 0;
#X connect 3 0 8 0;
#X connect 4 0 1 0;
#X connect 5 0 4 0;
#X connect 6 0 7 0;
#X connect 6 1 1 1;
#X connect 9 0 4 0;
#X restore 940 174 pd out;
#N canvas 404 243 246 328 direction 0;
#X msg 98 242 1;
#X msg 48 242 -1;
#X obj 48 137 <;
#X obj 99 112 t b f;
#X floatatom 48 171 5 0 0 0 - - -, f 5;
#X obj 48 205 sel 0 1;
#X obj 48 281 s \$0-direction;
#X obj 48 42 r \$0-in;
#X obj 99 79 r \$0-out;
#X connect 0 0 6 0;
#X connect 1 0 6 0;
#X connect 2 0 4 0;
#X connect 3 0 2 0;
#X connect 3 1 2 1;
#X connect 4 0 5 0;
#X connect 5 0 1 0;
#X connect 5 1 0 0;
#X connect 7 0 2 0;
#X connect 8 0 3 0;
#X restore 940 338 pd direction;
#N canvas 93 153 497 389 invert 0;
#X obj 162 239 abs;
#X obj 162 207 - 1;
#X obj 189 175 r \$0-framefinal;
#X obj 210 251 r \$0-offset;
#X obj 162 274 + 0;
#X text 207 204 calcula cursor invertido;
#X obj 52 43 inlet;
#X obj 219 57 r \$0-inv;
#X obj 52 120 spigot;
#X obj 162 120 spigot;
#X obj 109 82 == 0;
#X obj 52 323 outlet;
#X obj 353 29 loadbang;
#X msg 353 57 0;
#X connect 0 0 4 0;
#X connect 1 0 0 0;
#X connect 2 0 1 1;
#X connect 3 0 4 1;
#X connect 4 0 11 0;
#X connect 6 0 8 0;
#X connect 6 0 9 0;
#X connect 7 0 10 0;
#X connect 7 0 9 1;
#X connect 8 0 11 0;
#X connect 9 0 1 0;
#X connect 10 0 8 1;
#X connect 12 0 13 0;
#X connect 13 0 10 0;
#X connect 13 0 9 1;
#X restore 637 382 pd invert;
#X obj 324 591 rectangle 4 3;
#X obj 324 446 color;
#N canvas 261 277 353 256 bg_color 0;
#X obj 46 198 outlet;
#X obj 46 41 loadbang;
#X obj 46 74 f \$1;
#X obj 46 107 sel 1 2 3 4;
#X msg 46 152 1 0 0;
#X msg 116 152 1 1 0;
#X msg 186 152 1 0 1;
#X msg 256 152 0 1 0;
#X connect 1 0 2 0;
#X connect 2 0 3 0;
#X connect 3 0 4 0;
#X connect 3 1 5 0;
#X connect 3 2 6 0;
#X connect 3 3 7 0;
#X connect 4 0 0 0;
#X connect 5 0 0 0;
#X connect 6 0 0 0;
#X connect 7 0 0 0;
#X restore 371 414 pd bg_color;
#X obj 324 167 loadbang;
#X msg 324 199 1;
#X obj 324 540 scale 0.31;
#N canvas 159 194 864 360 to_fade 0;
#X obj 49 58 r \$0-cursor;
#X obj 249 58 r \$0-frames;
#X obj 449 58 r \$0-modulo;
#X obj 649 58 r \$0-offset;
#X obj 49 108 list prepend cursor;
#X obj 249 108 list prepend frames;
#X obj 449 108 list prepend modulo;
#X obj 649 108 list prepend offset;
#X obj 849 58 r \$0-fr_time;
#X obj 849 108 list prepend fr_time;
#X obj 1059 58 r \$0-inv;
#X obj 1059 108 list prepend invert;
#X obj 1259 58 r \$0-loop_mode;
#X obj 1259 108 list prepend loop_mode;
#X obj 249 277 s V\$1_TO_FADE;
#X obj 249 247 list trim;
#X connect 0 0 4 0;
#X connect 1 0 5 0;
#X connect 2 0 6 0;
#X connect 3 0 7 0;
#X connect 4 0 15 0;
#X connect 5 0 15 0;
#X connect 6 0 15 0;
#X connect 7 0 15 0;
#X connect 8 0 9 0;
#X connect 9 0 15 0;
#X connect 10 0 11 0;
#X connect 11 0 15 0;
#X connect 12 0 13 0;
#X connect 13 0 15 0;
#X connect 15 0 14 0;
#X restore 941 521 pd to_fade;
#N canvas 4 336 445 344 time 0;
#X obj 70 83 r \$0-fr_time;
#X obj 44 40 r \$0-modulo;
#X obj 44 190 *;
#X obj 44 230 / 1000;
#X obj 44 273 s \$0-visor_sec;
#X obj 70 114 t b f;
#X obj 44 154 f;
#X obj 239 71 r \$0-active_file;
#X obj 239 40 r \$0-file;
#X obj 239 108 sel vazio;
#X msg 239 168 0;
#X obj 239 138 del 10;
#X connect 0 0 5 0;
#X connect 1 0 6 0;
#X connect 2 0 3 0;
#X connect 3 0 4 0;
#X connect 5 0 6 0;
#X connect 5 1 2 1;
#X connect 6 0 2 0;
#X connect 7 0 9 0;
#X connect 8 0 9 0;
#X connect 9 0 11 0;
#X connect 10 0 4 0;
#X connect 11 0 10 0;
#X restore 941 461 pd time;
#X obj 324 231 gemhead \$1;
#X msg 370 199 0;
#X obj 324 496 translateXYZ 0 0 -0.0001;
#N canvas 352 282 357 350 send_render 0;
#X obj 59 255 list prepend V\$1;
#X obj 59 289 s CANAL_V;
#X obj 59 222 list prepend render;
#X obj 59 170 spigot;
#X obj 59 47 r \$0-ch_state;
#X obj 206 90 r \$0-motor;
#X obj 149 170 spigot;
#X obj 102 90 sel 1;
#X obj 206 137 == 0;
#X connect 0 0 1 0;
#X connect 2 0 0 0;
#X connect 3 0 2 0;
#X connect 4 0 3 0;
#X connect 4 0 7 0;
#X connect 5 0 3 1;
#X connect 5 0 8 0;
#X connect 6 0 2 0;
#X connect 7 1 6 0;
#X connect 8 0 6 1;
#X restore 940 98 pd send_render;
#N canvas 866 541 325 267 clip 0;
#X obj 56 37 inlet;
#X obj 56 207 outlet;
#X obj 56 122 clip 1 100;
#X obj 153 67 r \$0-frames;
#X obj 153 94 - 1;
#X connect 0 0 2 0;
#X connect 2 0 1 0;
#X connect 3 0 4 0;
#X connect 4 0 2 2;
#X restore 637 412 pd clip;
#N canvas 819 176 296 433 proporcao 0;
#X obj 44 375 outlet;
#X obj 163 375 outlet;
#X obj 44 33 r \$0-tam;
#X obj 44 187 unpack f f;
#X obj 44 219 /;
#X obj 44 343 * 3;
#X obj 163 344 * 3;
#X obj 163 288 t b f f;
#X obj 163 33 inlet;
#X floatatom 91 146 5 0 0 0 - - -, f 5;
#X floatatom 188 146 5 0 0 0 - - -, f 5;
#X obj 44 252 pack f 1;
#X obj 91 116 unpack f f;
#X obj 44 280 unpack f f;
#X obj 44 86 t l l;
#X floatatom 83 344 5 0 0 0 - - -, f 5;
#X floatatom 203 344 5 0 0 0 - - -, f 5;
#X connect 2 0 14 0;
#X connect 3 0 4 0;
#X connect 3 1 4 1;
#X connect 4 0 11 0;
#X connect 5 0 0 0;
#X connect 5 0 15 0;
#X connect 6 0 1 0;
#X connect 6 0 16 0;
#X connect 7 0 6 0;
#X connect 7 0 5 0;
#X connect 7 1 5 1;
#X connect 7 2 6 1;
#X connect 8 0 7 0;
#X connect 11 0 13 0;
#X connect 12 0 9 0;
#X connect 12 1 10 0;
#X connect 13 0 5 0;
#X connect 13 1 6 0;
#X connect 14 0 3 0;
#X connect 14 1 12 0;
#X restore 161 566 pd proporcao;
#N canvas 216 198 430 199 info_film 0;
#X obj 51 24 inlet;
#X obj 51 61 unpack f f f;
#X floatatom 51 99 5 0 0 0 - - -, f 5;
#X floatatom 180 99 5 0 0 0 - - -, f 5;
#X floatatom 290 99 5 0 0 0 - - -, f 5;
#X obj 180 132 s \$0-larg;
#X obj 290 132 s \$0-alt;
#X obj 51 132 s \$0-frames;
#X connect 0 0 1 0;
#X connect 1 0 2 0;
#X connect 1 1 3 0;
#X connect 1 2 4 0;
#X connect 2 0 7 0;
#X connect 3 0 5 0;
#X connect 4 0 6 0;
#X restore 82 333 pd info_film;
#N canvas 678 345 339 322 info 0;
#X obj 61 33 inlet;
#X obj 61 73 t a a;
#X obj 61 262 outlet;
#X obj 160 127 change;
#X obj 237 127 change;
#X obj 149 96 pix_info;
#X obj 160 188 pack f f;
#X obj 160 218 s \$0-tam;
#X obj 237 155 t b f;
#X connect 0 0 1 0;
#X connect 1 0 2 0;
#X connect 1 1 5 0;
#X connect 3 0 6 0;
#X connect 4 0 8 0;
#X connect 5 1 3 0;
#X connect 5 2 4 0;
#X connect 6 0 7 0;
#X connect 8 0 6 0;
#X connect 8 1 6 1;
#X restore 44 459 pd info;
#X connect 1 0 2 0;
#X connect 1 1 68 0;
#X connect 2 0 47 0;
#X connect 3 0 1 0;
#X connect 4 0 6 0;
#X connect 5 0 4 2;
#X connect 5 0 64 2;
#X connect 6 0 0 0;
#X connect 7 0 2 0;
#X connect 8 0 7 0;
#X connect 11 0 13 0;
#X connect 12 0 11 1;
#X connect 13 0 12 0;
#X connect 13 0 16 0;
#X connect 14 0 20 1;
#X connect 15 0 13 1;
#X connect 16 0 30 0;
#X connect 17 0 16 1;
#X connect 19 0 11 0;
#X connect 20 0 11 0;
#X connect 21 0 32 0;
#X connect 21 0 33 0;
#X connect 23 0 20 0;
#X connect 24 0 23 0;
#X connect 28 0 19 0;
#X connect 30 0 53 0;
#X connect 33 0 35 0;
#X connect 35 0 34 0;
#X connect 37 0 14 0;
#X connect 38 0 39 0;
#X connect 39 0 41 0;
#X connect 40 0 43 0;
#X connect 42 0 40 0;
#X connect 43 0 3 0;
#X connect 43 1 45 0;
#X connect 44 0 1 0;
#X connect 44 1 1 1;
#X connect 47 0 69 0;
#X connect 49 0 12 1;
#X connect 53 0 66 0;
#X connect 55 0 64 0;
#X connect 56 0 55 1;
#X connect 57 0 58 0;
#X connect 58 0 62 0;
#X connect 59 0 54 0;
#X connect 62 0 55 0;
#X connect 63 0 62 0;
#X connect 64 0 59 0;
#X connect 66 0 21 0;
#X connect 67 0 0 1;
#X connect 67 1 0 2;
#X connect 69 0 4 0;
#X restore 350 46 pd video_unit;
#X obj 90 128 hrslider.mmb \$0;
#X text 127 170 ';
#X text 207 170 ';
#N canvas 697 150 486 460 enable_button 0;
#X obj 50 62 t b;
#X obj 50 153 f;
#X obj 90 153 + 1;
#X obj 50 181 % 2;
#X floatatom 50 215 5 0 0 0 - - -, f 5;
#X obj 117 67 loadbang;
#X obj 50 28 r \$0-click_enable;
#N canvas 667 215 447 276 color 0;
#X obj 45 41 inlet;
#X obj 45 96 sel 0 1;
#X obj 45 207 s \$0-enable_in;
#X obj 165 119 f 13;
#X msg 165 156 color \$1 0;
#X msg 45 156 color 11 0;
#X obj 202 87 r \$0-channel_color;
#X connect 0 0 1 0;
#X connect 1 0 5 0;
#X connect 1 1 3 0;
#X connect 3 0 4 0;
#X connect 4 0 2 0;
#X connect 5 0 2 0;
#X connect 6 0 3 1;
#X restore 50 334 pd color;
#X obj 50 249 t f f;
#X obj 327 62 sel 1;
#X obj 187 274 sel 1;
#X msg 187 304 1;
#X obj 327 28 r CH\$1_SELECT;
#X obj 187 336 s CH\$1_SELECT;
#X obj 117 96 del 10;
#X msg 374 128 0;
#X msg 337 304 0;
#X obj 337 336 s \$0-prev_on;
#X obj 186 377 list prepend ch\$1_select;
#X obj 186 407 s CANAL_SEL;
#X obj 218 237 s V\$1_ST;
#X obj 218 128 r V\$1_SET_ST;
#X msg 62 121 1;
#X connect 0 0 1 0;
#X connect 1 0 3 0;
#X connect 2 0 1 1;
#X connect 3 0 2 0;
#X connect 3 0 4 0;
#X connect 4 0 8 0;
#X connect 4 0 20 0;
#X connect 5 0 14 0;
#X connect 6 0 0 0;
#X connect 8 0 7 0;
#X connect 8 1 10 0;
#X connect 9 1 15 0;
#X connect 10 0 11 0;
#X connect 10 1 16 0;
#X connect 11 0 13 0;
#X connect 11 0 18 0;
#X connect 12 0 9 0;
#X connect 14 0 22 0;
#X connect 15 0 1 0;
#X connect 16 0 17 0;
#X connect 18 0 19 0;
#X connect 21 0 1 0;
#X connect 22 0 1 0;
#X restore 350 80 pd enable_button;
#N canvas 469 123 703 307 TO_DO 0;
#X text 51 176 * TO DO - mecanismo do 3 modo do loop_mode - loop entre
todos os videos carregados no canal;
#X text 51 56 * TO DO - BUG - problema na memoria de pontos de in/out
de cada slot \; quando alterna entre slots do [arrast_vint] os pontos
de in/out da reproduçao mudam \, ficam errados \, impossibilitando
salvar presets corretamente;
#X restore 350 193 pd TO_DO;
#X coords 0 -1 1 1 185 200 2 80 30;
