#N canvas 300 241 264 248 10;
#X obj 75 32 inlet;
#X obj 75 114 pix_texture;
#X obj 75 184 rectangle 4 3;
#N canvas 495 289 296 433 proporcao 0;
#X obj 44 375 outlet;
#X obj 163 375 outlet;
#X obj 44 33 r \$0-tam;
#X obj 44 187 unpack f f;
#X obj 44 219 /;
#X obj 44 343 * 3;
#X obj 163 344 * 3;
#X obj 163 288 t b f f;
#X obj 163 33 inlet;
#X floatatom 91 146 5 0 0 0 - - -, f 5;
#X floatatom 188 146 5 0 0 0 - - -, f 5;
#X obj 44 252 pack f 1;
#X obj 91 116 unpack f f;
#X obj 44 280 unpack f f;
#X obj 44 86 t l l;
#X connect 2 0 14 0;
#X connect 3 0 4 0;
#X connect 3 1 4 1;
#X connect 4 0 11 0;
#X connect 5 0 0 0;
#X connect 6 0 1 0;
#X connect 7 0 6 0;
#X connect 7 0 5 0;
#X connect 7 1 5 1;
#X connect 7 2 6 1;
#X connect 8 0 7 0;
#X connect 11 0 13 0;
#X connect 12 0 9 0;
#X connect 12 1 10 0;
#X connect 13 0 5 0;
#X connect 13 1 6 0;
#X connect 14 0 3 0;
#X connect 14 1 12 0;
#X restore 112 160 pd proporcao;
#N canvas 678 345 245 254 info 0;
#X obj 61 33 inlet;
#X obj 61 73 t a a;
#X obj 61 203 outlet;
#X obj 117 121 change;
#X obj 164 121 change;
#X obj 111 90 pix_info;
#X obj 117 172 pack f f;
#X obj 117 202 s \$0-tam;
#X obj 164 143 t b f;
#X connect 0 0 1 0;
#X connect 1 0 2 0;
#X connect 1 1 5 0;
#X connect 3 0 6 0;
#X connect 4 0 8 0;
#X connect 5 1 3 0;
#X connect 5 2 4 0;
#X connect 6 0 7 0;
#X connect 8 0 6 0;
#X connect 8 1 6 1;
#X restore 75 65 pd info;
#X connect 0 0 4 0;
#X connect 1 0 2 0;
#X connect 3 0 2 1;
#X connect 3 1 2 2;
#X connect 4 0 1 0;
