#N canvas 311 155 476 348 10;
#X obj 61 229 pix_image;
#X msg 122 212 open \$1;
#X obj 364 39 loadbang;
#X obj 364 60 s \$0-lb;
#X obj 61 84 gemhead \$1;
#X obj 61 63 tgl 15 0 empty empty empty 17 7 0 10 -262144 -1 -1 1 1
;
#X obj 61 39 r \$0-render;
#X obj 148 39 r \$0-lb;
#X msg 148 59 0;
#X obj 61 281 outlet;
#X obj 122 152 symbol;
#X obj 286 39 r CANAL_I;
#X obj 286 69 route I\$1;
#X obj 286 99 route render file;
#X obj 286 129 s \$0-render;
#X obj 366 129 s \$0-file;
#X obj 122 132 r \$0-file;
#N canvas 624 482 155 222 change_symbol 0;
#X obj 44 36 inlet;
#X obj 71 163 outlet;
#X obj 44 72 t s s;
#X obj 44 102 sel s;
#X obj 71 130 symbol;
#X connect 0 0 2 0;
#X connect 2 0 3 1;
#X connect 2 1 3 0;
#X connect 3 1 4 0;
#X connect 4 0 1 0;
#X restore 122 182 pd change_symbol;
#X connect 0 0 9 0;
#X connect 1 0 0 0;
#X connect 2 0 3 0;
#X connect 4 0 0 0;
#X connect 5 0 4 0;
#X connect 6 0 5 0;
#X connect 7 0 8 0;
#X connect 8 0 5 0;
#X connect 10 0 17 0;
#X connect 11 0 12 0;
#X connect 12 0 13 0;
#X connect 13 0 14 0;
#X connect 13 1 15 0;
#X connect 16 0 10 0;
#X connect 17 0 1 0;
