#N canvas 2 275 496 240 16;
#X obj 70 50 cnv 15 185 117 empty empty empty 20 12 0 14 -128992 -66577
0;
#X obj 83 60 hsl 160 15 0 1 0 0 \$0-transp \$0-transp_in empty -2 -8
0 10 -4032 -1 -1 15900 1;
#X obj 83 81 hsl 160 10 0 1 0 0 \$0-white \$0-white_in empty -2 -8
0 10 -262144 -1 -1 15900 1;
#X obj 83 91 hsl 160 10 0 1 0 0 \$0-black \$0-black_in empty -2 -8
0 10 -1 -262144 -1 0 1;
#X obj 83 108 hsl 160 8 0 1 0 0 \$0-fadein \$0-fadein_in empty -2 -8
0 10 -191407 -1 -1 0 1;
#X obj 83 116 hsl 160 8 0 1 0 0 \$0-fadeout \$0-fadeout_in empty -2
-8 0 10 -191407 -1 -1 15900 1;
#X obj 80 142 tgl 15 0 \$0-flip_h \$0-flip_h_in H 5 -7 0 10 -262144
-1 -262144 0 1;
#X obj 100 142 tgl 15 0 \$0-flip_v \$0-flip_v_in V 5 -7 0 10 -262144
-1 -262144 0 1;
#X obj 137 142 nbx 2 14 0 10 0 0 \$0-size \$0-size_in T 10 -7 0 10
-262144 -1 -262144 1 256;
#X obj 169 142 nbx 3 14 -10 10 0 0 \$0-pos_x \$0-pos_x_in X 14 -7 0
10 -262144 -1 -262144 0 256;
#X obj 209 142 nbx 3 14 -10 10 0 0 \$0-pos_y \$0-pos_y_in Y 14 -7 0
10 -262144 -1 -262144 0 256;
#N canvas 15 53 616 309 links 0;
#X obj 64 184 list prepend T\$1;
#X obj 64 224 s CANAL_T;
#X obj 234 129 r \$0-flip_h;
#X obj 234 161 list prepend flip_h;
#X obj 404 129 r \$0-flip_v;
#X obj 404 161 list prepend flip_v;
#X obj 64 49 r \$0-size;
#X obj 64 80 list prepend size;
#X obj 234 49 r \$0-pos_x;
#X obj 404 49 r \$0-pos_y;
#X obj 234 80 list prepend pos_x;
#X obj 404 80 list prepend pos_y;
#X connect 0 0 1 0;
#X connect 2 0 3 0;
#X connect 3 0 0 0;
#X connect 4 0 5 0;
#X connect 5 0 0 0;
#X connect 6 0 7 0;
#X connect 7 0 0 0;
#X connect 8 0 10 0;
#X connect 9 0 11 0;
#X connect 10 0 0 0;
#X connect 11 0 0 0;
#X restore 330 138 pd links;
#N canvas 381 281 465 358 init 0;
#X obj 68 49 loadbang;
#X msg 68 95 1;
#X obj 68 139 s \$0-transp_in;
#X obj 68 169 s \$0-white_in;
#X obj 68 199 s \$0-fadeout_in;
#X obj 68 229 s \$0-size_in;
#X msg 258 95 0;
#X obj 258 139 s \$0-black_in;
#X obj 258 169 s \$0-fadein_in;
#X obj 258 199 s \$0-pos_x_in;
#X obj 258 229 s \$0-pos_y_in;
#X obj 258 259 s \$0-flip_h_in;
#X obj 258 289 s \$0-flip_v_in;
#X obj 261 19 r CANAL_MODE;
#X obj 261 49 t b b;
#X msg 118 95 1;
#X msg 308 95 0;
#X connect 0 0 1 0;
#X connect 0 0 6 0;
#X connect 1 0 2 0;
#X connect 1 0 3 0;
#X connect 1 0 4 0;
#X connect 1 0 5 0;
#X connect 6 0 7 0;
#X connect 6 0 8 0;
#X connect 6 0 9 0;
#X connect 6 0 10 0;
#X connect 6 0 11 0;
#X connect 6 0 12 0;
#X connect 13 0 14 0;
#X connect 14 0 15 0;
#X connect 14 1 16 0;
#X connect 15 0 5 0;
#X connect 15 0 4 0;
#X connect 16 0 11 0;
#X connect 16 0 12 0;
#X connect 16 0 9 0;
#X connect 16 0 10 0;
#X connect 16 0 8 0;
#X restore 330 32 pd init;
#N canvas 426 349 244 212 fade 0;
#N canvas 32 367 727 324 relation_io 0;
#X obj 53 49 r \$0-fadein;
#X obj 189 49 r \$0-fadeout;
#X obj 110 128 >=;
#X obj 53 162 spigot;
#X obj 53 90 t f f;
#X msg 53 197 set \$1;
#X obj 391 162 spigot;
#X obj 391 90 t f f;
#X msg 391 197 set \$1;
#X obj 391 49 r \$0-fadeout;
#X obj 539 49 r \$0-fadein;
#X obj 448 128 <=;
#X obj 53 241 s \$0-fadeout_in;
#X obj 391 241 s \$0-fadein_in;
#X obj 543 241 s \$0-fin_set;
#X obj 215 241 s \$0-fout_set;
#X connect 0 0 4 0;
#X connect 1 0 2 1;
#X connect 2 0 3 1;
#X connect 3 0 5 0;
#X connect 3 0 15 0;
#X connect 4 0 3 0;
#X connect 4 1 2 0;
#X connect 5 0 12 0;
#X connect 6 0 8 0;
#X connect 6 0 14 0;
#X connect 7 0 6 0;
#X connect 7 1 11 0;
#X connect 8 0 13 0;
#X connect 9 0 7 0;
#X connect 10 0 11 1;
#X connect 11 0 6 1;
#X restore 48 71 pd relation_io;
#N canvas 56 127 1079 637 calcs 0;
#X obj 68 52 r \$0-fadein;
#X obj 95 84 r \$0-modulo;
#X obj 68 112 *;
#X obj 68 172 *;
#X obj 95 144 r \$0-fr_time;
#X obj 68 232 s \$0-fadein_time;
#X floatatom 68 202 5 0 0 0 - - -;
#X obj 305 84 r \$0-modulo;
#X obj 278 142 *;
#X obj 278 262 *;
#X obj 305 234 r \$0-fr_time;
#X floatatom 278 292 5 0 0 0 - - -;
#X obj 278 322 s \$0-fadeout_time;
#X obj 305 114 t f f;
#X obj 278 172 -;
#X obj 278 202 abs;
#X obj 278 52 r \$0-fadeout;
#X obj 754 118 r \$0-modulo;
#X obj 727 179 *;
#X obj 727 209 -;
#X obj 727 239 abs;
#X obj 727 86 r \$0-fadeout;
#X obj 700 299 -;
#X obj 700 458 s \$0-out_point;
#X floatatom 700 424 5 0 0 0 - - -;
#X obj 727 267 t b f;
#X obj 700 330 int;
#X obj 95 335 r \$0-modulo;
#X obj 68 302 r \$0-offset;
#X obj 68 366 +;
#X obj 68 436 s \$0-framefinal;
#X obj 754 148 t f f;
#X obj 700 52 r \$0-framefinal;
#X obj 700 388 clip 0 1;
#X obj 882 327 r \$0-framefinal;
#X obj 758 327 r \$0-offset;
#X obj 758 354 + 1;
#X obj 495 320 s \$0-in_point;
#X obj 495 52 r \$0-fadein;
#X obj 522 85 r \$0-modulo;
#X obj 495 148 *;
#X floatatom 495 288 5 0 0 0 - - -;
#X obj 495 181 int;
#X obj 522 116 t f f;
#X obj 572 181 - 2;
#X obj 495 214 clip 1 1;
#X obj 533 252 r \$0-offset;
#X obj 495 252 +;
#X obj 68 396 - 2;
#X obj 475 569 s \$0-out_time;
#X floatatom 475 540 5 0 0 0 - - -;
#X obj 278 368 r \$0-modulo;
#X obj 278 452 *;
#X obj 305 424 r \$0-fr_time;
#X floatatom 278 482 5 0 0 0 - - -;
#X obj 278 511 s \$0-mod_time;
#X obj 475 362 r \$0-mod_time;
#X obj 475 449 -;
#X obj 502 419 t b f;
#X obj 502 391 r \$0-fadeout_time;
#X obj 475 481 moses 0.1;
#X msg 475 510 1;
#X obj 278 395 - 1;
#X connect 0 0 2 0;
#X connect 1 0 2 1;
#X connect 2 0 3 0;
#X connect 3 0 6 0;
#X connect 4 0 3 1;
#X connect 6 0 5 0;
#X connect 7 0 13 0;
#X connect 8 0 14 0;
#X connect 9 0 11 0;
#X connect 10 0 9 1;
#X connect 11 0 12 0;
#X connect 13 0 8 1;
#X connect 13 1 14 1;
#X connect 14 0 15 0;
#X connect 15 0 9 0;
#X connect 16 0 8 0;
#X connect 17 0 31 0;
#X connect 18 0 19 0;
#X connect 19 0 20 0;
#X connect 20 0 25 0;
#X connect 21 0 18 0;
#X connect 22 0 26 0;
#X connect 24 0 23 0;
#X connect 25 0 22 0;
#X connect 25 1 22 1;
#X connect 26 0 33 0;
#X connect 27 0 29 1;
#X connect 28 0 29 0;
#X connect 29 0 48 0;
#X connect 31 0 18 1;
#X connect 31 1 19 1;
#X connect 32 0 22 0;
#X connect 33 0 24 0;
#X connect 34 0 33 2;
#X connect 35 0 36 0;
#X connect 36 0 33 1;
#X connect 38 0 40 0;
#X connect 39 0 43 0;
#X connect 40 0 42 0;
#X connect 41 0 37 0;
#X connect 42 0 45 0;
#X connect 43 0 40 1;
#X connect 43 1 44 0;
#X connect 44 0 45 2;
#X connect 45 0 47 0;
#X connect 46 0 47 1;
#X connect 47 0 41 0;
#X connect 48 0 30 0;
#X connect 50 0 49 0;
#X connect 51 0 62 0;
#X connect 52 0 54 0;
#X connect 53 0 52 1;
#X connect 54 0 55 0;
#X connect 56 0 57 0;
#X connect 57 0 60 0;
#X connect 58 0 57 0;
#X connect 58 1 57 1;
#X connect 59 0 58 0;
#X connect 60 0 61 0;
#X connect 60 1 50 0;
#X connect 61 0 50 0;
#X connect 62 0 52 0;
#X restore 48 101 pd calcs;
#N canvas 2 88 1351 273 data_in 0;
#X obj 27 24 r V\$1_TO_FADE;
#X floatatom 27 164 5 0 0 0 - - -;
#X floatatom 147 164 5 0 0 0 - - -;
#X floatatom 267 164 5 0 0 0 - - -;
#X floatatom 507 164 5 0 0 0 - - -;
#X obj 27 190 s \$0-cursor;
#X obj 147 190 s \$0-frames;
#X obj 267 190 s \$0-modulo;
#X obj 387 190 s \$0-offset;
#X obj 507 190 s \$0-fr_time;
#X floatatom 637 164 5 0 0 0 - - -;
#X obj 637 190 s \$0-invert;
#X obj 907 190 s \$0-transp_in;
#X obj 1057 190 s \$0-white_in;
#X obj 1057 220 s \$0-black_in;
#X obj 1197 190 s \$0-fadein_in;
#X obj 1197 220 s \$0-fadeout_in;
#X obj 274 96 clip 1 10;
#X floatatom 387 164 5 0 0 0 - - -;
#X obj 109 96 t f f;
#X obj 27 135 f;
#X obj 147 135 f;
#X obj 267 135 f;
#X obj 387 135 f;
#X obj 507 135 f;
#X obj 637 135 f;
#X obj 990 112 t b b b b b b b b b b;
#X obj 990 85 r \$0-data_flush;
#X floatatom 757 164 5 0 0 0 - - -;
#X obj 757 135 f;
#X obj 757 190 s \$0-loop_mode;
#X obj 27 68 route cursor frames modulo offset fr_time invert loop_mode
;
#X connect 0 0 31 0;
#X connect 1 0 5 0;
#X connect 2 0 6 0;
#X connect 3 0 7 0;
#X connect 4 0 9 0;
#X connect 10 0 11 0;
#X connect 17 0 23 0;
#X connect 18 0 8 0;
#X connect 19 0 21 0;
#X connect 19 1 17 2;
#X connect 20 0 1 0;
#X connect 21 0 2 0;
#X connect 22 0 3 0;
#X connect 23 0 18 0;
#X connect 24 0 4 0;
#X connect 25 0 10 0;
#X connect 26 0 21 0;
#X connect 26 1 22 0;
#X connect 26 2 23 0;
#X connect 26 3 24 0;
#X connect 26 4 25 0;
#X connect 26 5 12 0;
#X connect 26 6 13 0;
#X connect 26 7 14 0;
#X connect 26 8 15 0;
#X connect 26 9 16 0;
#X connect 27 0 26 0;
#X connect 28 0 30 0;
#X connect 29 0 28 0;
#X connect 31 0 20 0;
#X connect 31 1 19 0;
#X connect 31 2 22 0;
#X connect 31 3 17 0;
#X connect 31 4 24 0;
#X connect 31 5 25 0;
#X connect 31 6 29 0;
#X restore 48 41 pd data_in;
#N canvas 113 235 279 344 control 0;
#N canvas 2 79 897 460 condicao 0;
#X obj 45 392 outlet;
#X obj 45 34 r \$0-transp;
#X obj 545 34 inlet;
#X obj 602 76 r \$0-fadein;
#X obj 731 76 r \$0-fadeout;
#X obj 602 109 == 0;
#X obj 731 109 == 1;
#X obj 731 143 t b f;
#X obj 602 166 +;
#X obj 602 195 < 2;
#X obj 545 246 spigot;
#X obj 45 246 spigot;
#X obj 102 218 == 0;
#X obj 45 341 list prepend T\$1;
#X obj 45 290 list prepend transp;
#X obj 205 34 r \$0-white;
#X obj 365 34 r \$0-black;
#X obj 205 290 list prepend white;
#X obj 365 290 list prepend black;
#X obj 678 246 s \$0-transp_in;
#X obj 678 218 sel 0;
#X connect 1 0 11 0;
#X connect 2 0 10 0;
#X connect 3 0 5 0;
#X connect 4 0 6 0;
#X connect 5 0 8 0;
#X connect 6 0 7 0;
#X connect 7 0 8 0;
#X connect 7 1 8 1;
#X connect 8 0 9 0;
#X connect 9 0 10 1;
#X connect 9 0 12 0;
#X connect 9 0 20 0;
#X connect 10 0 14 0;
#X connect 11 0 14 0;
#X connect 12 0 11 1;
#X connect 13 0 0 0;
#X connect 14 0 13 0;
#X connect 15 0 17 0;
#X connect 16 0 18 0;
#X connect 17 0 13 0;
#X connect 18 0 13 0;
#X connect 20 0 19 0;
#X restore 53 192 pd condicao;
#N canvas 482 103 508 320 bang_in_out 0;
#X obj 47 35 r \$0-cursor;
#X obj 47 66 t f f;
#X obj 47 131 sel;
#X obj 74 103 r \$0-offset;
#X obj 267 131 sel;
#X obj 294 103 r \$0-framefinal;
#X obj 94 241 s \$0-data_flush;
#X obj 47 210 t b b;
#X obj 47 273 s \$0-bang_in;
#X obj 314 241 s \$0-data_flush;
#X obj 267 210 t b b;
#X obj 267 273 s \$0-bang_out;
#X connect 0 0 1 0;
#X connect 1 0 2 0;
#X connect 1 1 4 0;
#X connect 2 0 7 0;
#X connect 3 0 2 1;
#X connect 4 0 10 0;
#X connect 5 0 4 1;
#X connect 7 0 8 0;
#X connect 7 1 6 0;
#X connect 10 0 11 0;
#X connect 10 1 9 0;
#X restore 53 48 pd bang_in_out;
#X obj 53 153 line;
#N canvas 372 114 750 428 GO 0;
#X msg 93 275 \$1 \, \$2 \$3;
#X obj 93 240 pack f f f;
#X obj 141 208 f;
#X obj 190 208 f;
#X obj 56 77 bng 15 250 50 0 empty empty empty 17 7 0 10 -262144 -1
-1;
#X obj 56 46 r \$0-bang_in;
#X obj 56 110 t b b b b;
#X obj 407 133 del 100;
#X obj 168 144 r \$0-transp;
#X obj 494 208 f;
#X msg 407 275 \$1 \$2;
#X obj 407 240 pack 0 f;
#X obj 217 175 r \$0-fadein_time;
#X obj 521 175 r \$0-fadeout_time;
#X obj 407 164 t b b;
#X obj 474 101 r \$0-out_time;
#N canvas 25 224 300 288 cond 0;
#X obj 45 36 inlet;
#X obj 45 206 outlet;
#X obj 122 58 r \$0-fadeout;
#X obj 122 93 sel 1;
#X obj 45 147 f 0;
#X msg 122 124 1;
#X msg 172 124 0;
#X connect 0 0 4 0;
#X connect 2 0 3 0;
#X connect 3 0 5 0;
#X connect 3 1 6 0;
#X connect 4 0 1 0;
#X connect 5 0 4 1;
#X connect 6 0 4 1;
#X restore 407 208 pd cond;
#N canvas 23 196 379 317 cond 0;
#X obj 45 36 inlet;
#X obj 45 256 outlet;
#X obj 137 36 r \$0-fadein;
#X obj 137 71 sel 0;
#X obj 164 112 r \$0-transp;
#X obj 137 141 f;
#X msg 294 112 0;
#X obj 45 197 f 1;
#X connect 0 0 7 0;
#X connect 2 0 3 0;
#X connect 3 0 5 0;
#X connect 3 1 6 0;
#X connect 4 0 5 1;
#X connect 5 0 7 1;
#X connect 6 0 7 1;
#X connect 7 0 1 0;
#X restore 56 208 pd cond;
#X obj 93 312 t a;
#X obj 93 361 outlet;
#X connect 0 0 18 0;
#X connect 1 0 0 0;
#X connect 2 0 1 1;
#X connect 3 0 1 2;
#X connect 4 0 6 0;
#X connect 5 0 4 0;
#X connect 6 0 17 0;
#X connect 6 1 2 0;
#X connect 6 2 3 0;
#X connect 6 3 7 0;
#X connect 7 0 14 0;
#X connect 8 0 2 1;
#X connect 9 0 11 1;
#X connect 10 0 18 0;
#X connect 11 0 10 0;
#X connect 12 0 3 1;
#X connect 13 0 9 1;
#X connect 14 0 16 0;
#X connect 14 1 9 0;
#X connect 15 0 7 1;
#X connect 16 0 11 0;
#X connect 17 0 1 0;
#X connect 18 0 19 0;
#X restore 53 106 pd GO;
#N canvas 460 149 732 555 BACK 0;
#X msg 56 356 \$1 \, \$2 \$3;
#X obj 56 321 pack f f f;
#X obj 104 289 f;
#X obj 153 289 f;
#X obj 56 88 bng 15 250 50 0 empty empty empty 17 7 0 10 -262144 -1
-1;
#X obj 56 191 t b b b b;
#X obj 397 214 del 100;
#X obj 131 225 r \$0-transp;
#X obj 484 289 f;
#X msg 397 356 \$1 \$2;
#X obj 397 321 pack 0 f;
#X obj 397 245 t b b;
#X obj 56 393 t a;
#X obj 56 502 outlet;
#X obj 56 57 r \$0-bang_out;
#X obj 511 256 r \$0-fadein_time;
#X obj 518 76 t b f;
#X floatatom 464 186 12 0 0 0 - - -;
#X obj 180 257 r \$0-fadeout_time;
#X obj 464 13 r \$0-mod_time;
#X obj 518 46 r \$0-fadein_time;
#X obj 464 99 -;
#X obj 113 413 r \$0-loop_mode;
#X obj 56 444 spigot;
#X obj 464 125 moses 0.1;
#X msg 464 154 1;
#X msg 56 289 0;
#N canvas 22 196 379 317 cond 0;
#X obj 45 36 inlet;
#X obj 45 256 outlet;
#X obj 137 36 r \$0-fadein;
#X obj 137 71 sel 0;
#X obj 164 112 r \$0-transp;
#X obj 137 141 f;
#X msg 294 112 0;
#X obj 45 197 f 1;
#X connect 0 0 7 0;
#X connect 2 0 3 0;
#X connect 3 0 5 0;
#X connect 3 1 6 0;
#X connect 4 0 5 1;
#X connect 5 0 7 1;
#X connect 6 0 7 1;
#X connect 7 0 1 0;
#X restore 397 288 pd cond;
#X connect 0 0 12 0;
#X connect 1 0 0 0;
#X connect 2 0 1 1;
#X connect 3 0 1 2;
#X connect 4 0 5 0;
#X connect 5 0 26 0;
#X connect 5 1 2 0;
#X connect 5 2 3 0;
#X connect 5 3 6 0;
#X connect 6 0 11 0;
#X connect 7 0 2 1;
#X connect 8 0 10 1;
#X connect 9 0 12 0;
#X connect 10 0 9 0;
#X connect 11 0 27 0;
#X connect 11 1 8 0;
#X connect 12 0 23 0;
#X connect 14 0 4 0;
#X connect 15 0 8 1;
#X connect 16 0 21 0;
#X connect 16 1 21 1;
#X connect 17 0 6 1;
#X connect 18 0 3 1;
#X connect 19 0 21 0;
#X connect 20 0 16 0;
#X connect 21 0 24 0;
#X connect 22 0 23 1;
#X connect 23 0 13 0;
#X connect 24 0 25 0;
#X connect 24 1 17 0;
#X connect 25 0 17 0;
#X connect 26 0 1 0;
#X connect 27 0 10 0;
#X restore 123 106 pd BACK;
#X obj 53 253 s CANAL_T;
#X connect 0 0 5 0;
#X connect 2 0 0 0;
#X connect 3 0 2 0;
#X connect 4 0 2 0;
#X restore 48 131 pd control;
#X restore 330 67 pd fade;
#X obj 121 147 bng 10 250 50 0 \$0-reset \$0-reset_in empty 17 7 0
10 -262144 -1 -1;
#N canvas 575 274 448 300 reset 0;
#X msg 55 91 1;
#X obj 55 135 s \$0-size_in;
#X msg 245 91 0;
#X obj 245 135 s \$0-pos_x_in;
#X obj 245 165 s \$0-pos_y_in;
#X obj 245 195 s \$0-flip_h_in;
#X obj 245 225 s \$0-flip_v_in;
#X obj 55 45 r \$0-reset;
#X connect 0 0 1 0;
#X connect 2 0 3 0;
#X connect 2 0 4 0;
#X connect 2 0 5 0;
#X connect 2 0 6 0;
#X connect 7 0 0 0;
#X connect 7 0 2 0;
#X restore 330 102 pd reset;
#N canvas 559 87 782 640 mem 0;
#N canvas 0 0 450 300 (subpatch) 0;
#X array \$0-transf_mem 10 float 2;
#X coords 0 10 10 -10 200 140 1 0 0;
#X restore 406 472 graph;
#X obj 24 39 r \$0-transp;
#X obj 24 119 r \$0-white;
#X obj 24 199 r \$0-black;
#X obj 374 39 r \$0-flip_h;
#X obj 374 119 r \$0-flip_v;
#X obj 24 72 arrast_2tab 0 \$0-transf_mem;
#X obj 24 152 arrast_2tab 1 \$0-transf_mem;
#X obj 24 232 arrast_2tab 2 \$0-transf_mem;
#X obj 24 312 arrast_2tab 3 \$0-transf_mem;
#X obj 24 392 arrast_2tab 4 \$0-transf_mem;
#X obj 24 279 r \$0-fadein;
#X obj 24 359 r \$0-fadeout;
#X obj 374 72 arrast_2tab 5 \$0-transf_mem;
#X obj 374 152 arrast_2tab 6 \$0-transf_mem;
#X obj 374 232 arrast_2tab 7 \$0-transf_mem;
#X obj 374 312 arrast_2tab 8 \$0-transf_mem;
#X obj 374 392 arrast_2tab 9 \$0-transf_mem;
#X obj 374 199 r \$0-size;
#X obj 374 279 r \$0-pos_x;
#X obj 374 359 r \$0-pos_y;
#X obj 144 279 r \$0-fin_set;
#X obj 154 359 r \$0-fout_set;
#N canvas 296 183 354 499 flush_mem 0;
#X obj 51 39 r CH\$1_FLUSH;
#X obj 51 422 s CH\$1_PRESET;
#X obj 51 342 list prepend transf;
#X obj 88 236 tabread \$0-transf_mem;
#X obj 88 206 f;
#X obj 127 206 + 1;
#X msg 115 177 0;
#X obj 88 146 until;
#X msg 88 113 10;
#X obj 218 271 list;
#X obj 51 301 list;
#X obj 51 69 t b b b b;
#X obj 88 271 list prepend;
#X obj 51 381 list trim;
#X connect 0 0 11 0;
#X connect 2 0 13 0;
#X connect 3 0 12 0;
#X connect 4 0 5 0;
#X connect 4 0 3 0;
#X connect 5 0 4 1;
#X connect 6 0 4 1;
#X connect 7 0 4 0;
#X connect 8 0 7 0;
#X connect 9 0 12 1;
#X connect 10 0 2 0;
#X connect 11 0 10 0;
#X connect 11 1 8 0;
#X connect 11 2 6 0;
#X connect 11 3 12 1;
#X connect 12 0 9 0;
#X connect 12 0 10 1;
#X connect 13 0 1 0;
#X restore 93 472 pd flush_mem;
#N canvas 24 211 780 303 receive_preset 0;
#X obj 55 33 r MAIN_PRESET_SEND;
#X obj 55 73 route \$1;
#X obj 55 103 route transf;
#X obj 102 213 s \$0-transf_mem;
#X obj 55 145 list prepend 0;
#X obj 55 179 t b l;
#X obj 55 248 s \$0-mem_flush;
#X obj 284 33 r \$0-mem_flush;
#N canvas 246 289 291 208 mem_0 0;
#X obj 43 141 s \$0-transp_in;
#X obj 43 101 tabread \$0-transf_mem;
#X msg 43 72 0;
#X obj 43 32 inlet;
#X connect 1 0 0 0;
#X connect 2 0 1 0;
#X connect 3 0 2 0;
#X restore 284 100 pd mem_0;
#X obj 284 63 t b b b b b b b b b b;
#N canvas 95 305 291 208 mem_1 0;
#X obj 43 101 tabread \$0-transf_mem;
#X obj 43 32 inlet;
#X msg 43 72 1;
#X obj 43 141 s \$0-white_in;
#X connect 0 0 3 0;
#X connect 1 0 2 0;
#X connect 2 0 0 0;
#X restore 374 100 pd mem_1;
#N canvas 245 317 291 208 mem_2 0;
#X obj 43 101 tabread \$0-transf_mem;
#X obj 43 32 inlet;
#X obj 43 141 s \$0-black_in;
#X msg 43 72 2;
#X connect 0 0 2 0;
#X connect 1 0 3 0;
#X connect 3 0 0 0;
#X restore 464 100 pd mem_2;
#N canvas 245 317 291 208 mem_3 0;
#X obj 43 101 tabread \$0-transf_mem;
#X obj 43 32 inlet;
#X obj 43 141 s \$0-fadein_in;
#X msg 43 72 3;
#X connect 0 0 2 0;
#X connect 1 0 3 0;
#X connect 3 0 0 0;
#X restore 554 100 pd mem_3;
#N canvas 245 317 291 208 mem_4 0;
#X obj 43 101 tabread \$0-transf_mem;
#X obj 43 32 inlet;
#X obj 43 141 s \$0-fadeout_in;
#X msg 43 72 4;
#X connect 0 0 2 0;
#X connect 1 0 3 0;
#X connect 3 0 0 0;
#X restore 644 100 pd mem_4;
#N canvas 245 317 291 208 mem_5 0;
#X obj 43 101 tabread \$0-transf_mem;
#X obj 43 32 inlet;
#X msg 43 72 5;
#X obj 43 141 s \$0-flip_h_in;
#X connect 0 0 3 0;
#X connect 1 0 2 0;
#X connect 2 0 0 0;
#X restore 284 130 pd mem_5;
#N canvas 245 317 291 208 mem_6 0;
#X obj 43 101 tabread \$0-transf_mem;
#X obj 43 32 inlet;
#X msg 43 72 6;
#X obj 43 142 s \$0-flip_v_in;
#X connect 0 0 3 0;
#X connect 1 0 2 0;
#X connect 2 0 0 0;
#X restore 374 130 pd mem_6;
#N canvas 245 317 291 208 mem_7 0;
#X obj 43 101 tabread \$0-transf_mem;
#X obj 43 32 inlet;
#X msg 43 72 7;
#X obj 43 141 s \$0-size_in;
#X connect 0 0 3 0;
#X connect 1 0 2 0;
#X connect 2 0 0 0;
#X restore 464 130 pd mem_7;
#N canvas 245 317 291 208 mem_8 0;
#X obj 43 101 tabread \$0-transf_mem;
#X obj 43 32 inlet;
#X obj 43 141 s \$0-pos_x_in;
#X msg 43 72 8;
#X connect 0 0 2 0;
#X connect 1 0 3 0;
#X connect 3 0 0 0;
#X restore 554 130 pd mem_8;
#N canvas 245 317 291 208 mem_9 0;
#X obj 43 101 tabread \$0-transf_mem;
#X obj 43 32 inlet;
#X obj 43 141 s \$0-pos_y_in;
#X msg 43 72 9;
#X connect 0 0 2 0;
#X connect 1 0 3 0;
#X connect 3 0 0 0;
#X restore 644 130 pd mem_9;
#X connect 0 0 1 0;
#X connect 1 0 2 0;
#X connect 2 0 4 0;
#X connect 4 0 5 0;
#X connect 5 0 6 0;
#X connect 5 1 3 0;
#X connect 7 0 9 0;
#X connect 9 0 8 0;
#X connect 9 1 10 0;
#X connect 9 2 11 0;
#X connect 9 3 12 0;
#X connect 9 4 13 0;
#X connect 9 5 14 0;
#X connect 9 6 15 0;
#X connect 9 7 16 0;
#X connect 9 8 17 0;
#X connect 9 9 18 0;
#X restore 93 513 pd receive_preset;
#X connect 1 0 6 0;
#X connect 2 0 7 0;
#X connect 3 0 8 0;
#X connect 4 0 13 0;
#X connect 5 0 14 0;
#X connect 11 0 9 0;
#X connect 12 0 10 0;
#X connect 18 0 15 0;
#X connect 19 0 16 0;
#X connect 20 0 17 0;
#X connect 21 0 9 0;
#X connect 22 0 10 0;
#X restore 330 174 pd mem;
#X coords 0 -1 1 1 185 117 2 70 50;
