#N canvas 317 307 540 176 16;
#X obj 80 30 cnv 15 185 80 empty empty empty 20 12 0 14 -228856 -66577
0;
#X obj 83 30 hsl 180 20 0 1 0 0 \$0-click_enable \$0-click_enable_in
empty -2 -8 0 10 -262144 -1 -1 0 1;
#X obj 80 30 cnv 15 185 20 \$0-enable \$0-enable_in empty 20 12 0 14
-128992 -262144 0;
#X obj 93 61 hsl 160 18 0 1 0 0 \$0-open_browser \$0-open_browser_in
empty -2 -8 0 10 -262144 -1 -1 0 1;
#X obj 90 61 cnv 15 165 18 empty \$0-visor_name abrir_imagem 5 9 0
12 -355 -262144 0;
#N canvas 629 219 701 275 channel_color 0;
#X obj 69 71 f \$1;
#X obj 69 107 sel 1 2 3 4;
#X msg 69 144 13;
#X msg 218 144 16;
#X msg 119 144 15;
#X obj 69 35 loadbang;
#X obj 69 209 s \$0-channel_color;
#X obj 279 209 s \$0-bg_color;
#X obj 439 209 s \$0-bg_color2;
#X msg 439 144 1;
#X msg 279 144 28;
#X msg 169 144 19;
#X connect 0 0 1 0;
#X connect 1 0 2 0;
#X connect 1 1 4 0;
#X connect 1 2 11 0;
#X connect 1 3 3 0;
#X connect 2 0 6 0;
#X connect 3 0 6 0;
#X connect 4 0 6 0;
#X connect 5 0 0 0;
#X connect 5 0 10 0;
#X connect 5 0 9 0;
#X connect 9 0 8 0;
#X connect 10 0 7 0;
#X connect 11 0 6 0;
#X restore 314 109 pd channel_color;
#N canvas 468 363 253 256 I_\$1_browser_file 0;
#N canvas 637 300 337 464 visib 0;
#X msg 102 116 vis 0;
#X obj 44 289 f;
#X obj 84 289 + 1;
#X obj 44 317 % 2;
#X floatatom 44 345 5 0 0 0 - - -;
#X msg 44 374 vis \$1;
#X msg 55 259 0;
#X obj 55 83 t b b;
#X obj 117 83 loadbang;
#X obj 44 223 t b;
#X obj 55 20 r \$0-close_browser;
#X obj 44 189 r \$0-open_browser;
#X obj 102 146 s pd-I_\$1_browser_file;
#X obj 44 405 s pd-I_\$1_browser_file;
#X obj 250 80 cnv 15 15 15 empty empty empty 20 12 0 14 -228856 -66577
0;
#X connect 0 0 12 0;
#X connect 1 0 3 0;
#X connect 2 0 1 1;
#X connect 3 0 2 0;
#X connect 3 0 4 0;
#X connect 4 0 5 0;
#X connect 5 0 13 0;
#X connect 6 0 1 0;
#X connect 7 0 6 0;
#X connect 7 1 0 0;
#X connect 8 0 7 0;
#X connect 9 0 1 0;
#X connect 10 0 7 0;
#X connect 11 0 9 0;
#X coords 0 -1 1 1 15 15 2 250 80;
#X restore 222 33 pd visib;
#X obj 0 1 cnv 15 251 255 empty empty empty 20 12 0 14 -1 -66577 0
;
#X obj 14 33 cnv 15 223 209 empty empty empty 20 12 0 14 -233017 -66577
0;
#N canvas 320 310 947 338 browser 0;
#X obj 70 60 browser.mmb;
#X obj 70 247 symbol;
#X obj 70 215 route file folder;
#X msg 177 280 folder \$1;
#X obj 177 247 symbol;
#X obj 70 280 s \$0-file;
#X msg 167 31 folder ~/;
#X msg 302 104 bgcolor1 2 \, bgcolor2 2 \, textcolor 0 \, hlcolor 0
\, hltextcolor 22 \, scrollbgcolor \$1 \, scrollhandlecolor 22 \, dirbgcolor
\$1 \, dirtextcolor 22;
#X obj 302 76 r \$0-channel_color;
#N canvas 697 379 313 191 getdir 0;
#X obj 49 31 loadbang;
#X obj 49 63 getdir;
#X obj 49 133 outlet;
#X msg 49 96 folder \$1/../Imagens/;
#X connect 0 0 1 0;
#X connect 1 0 3 0;
#X connect 3 0 2 0;
#X restore 70 31 pd getdir;
#X connect 0 0 2 0;
#X connect 1 0 5 0;
#X connect 2 0 1 0;
#X connect 2 1 4 0;
#X connect 3 0 0 0;
#X connect 4 0 3 0;
#X connect 6 0 0 0;
#X connect 7 0 0 0;
#X connect 8 0 7 0;
#X connect 9 0 0 0;
#X coords 0 -1 1 1 203 138 2 70 60;
#X restore 24 94 pd browser;
#N canvas 641 426 700 183 select_slot 0;
#X obj 105 53 bng 15 250 50 0 \$0-click_slot1 \$0-click_slot1_in empty
17 7 0 10 -262144 -1 -1;
#X obj 480 28 r \$0-bg_color;
#X obj 480 90 s \$0-slots_bg;
#X msg 480 59 color \$1;
#X obj 125 53 bng 15 250 50 0 \$0-click_slot2 \$0-click_slot2_in empty
17 7 0 10 -262144 -1 -1;
#X obj 145 53 bng 15 250 50 0 \$0-click_slot3 \$0-click_slot3_in empty
17 7 0 10 -262144 -1 -1;
#X obj 165 53 bng 15 250 50 0 \$0-click_slot4 \$0-click_slot4_in empty
17 7 0 10 -262144 -1 -1;
#X obj 185 53 bng 15 250 50 0 \$0-click_slot5 \$0-click_slot5_in empty
17 7 0 10 -262144 -1 -1;
#X obj 205 53 bng 15 250 50 0 \$0-click_slot6 \$0-click_slot6_in empty
17 7 0 10 -262144 -1 -1;
#X obj 225 53 bng 15 250 50 0 \$0-click_slot7 \$0-click_slot7_in empty
17 7 0 10 -262144 -1 -1;
#X obj 245 53 bng 15 250 50 0 \$0-click_slot8 \$0-click_slot8_in empty
17 7 0 10 -262144 -1 -1;
#X obj 100 50 cnv 15 165 21 empty \$0-slots_bg empty 20 12 0 14 -355
-262144 0;
#X obj 105 53 cnv 15 15 15 empty \$0-color_slot1 1 4 8 0 12 -258699
-1 0;
#X obj 125 53 cnv 15 15 15 empty \$0-color_slot2 2 4 8 0 12 -262144
-1 0;
#X obj 145 53 cnv 15 15 15 empty \$0-color_slot3 3 4 8 0 12 -262144
-1 0;
#X obj 165 53 cnv 15 15 15 empty \$0-color_slot4 4 4 8 0 12 -262144
-1 0;
#X obj 185 53 cnv 15 15 15 empty \$0-color_slot5 5 4 8 0 12 -262144
-1 0;
#X obj 205 53 cnv 15 15 15 empty \$0-color_slot6 6 4 8 0 12 -262144
-1 0;
#X obj 225 53 cnv 15 15 15 empty \$0-color_slot7 7 4 8 0 12 -262144
-1 0;
#X obj 245 53 cnv 15 15 15 empty \$0-color_slot8 8 4 8 0 12 -262144
-1 0;
#N canvas 49 108 1119 270 clicks 0;
#X obj 48 82 r \$0-click_slot1;
#X msg 48 113 1;
#X obj 218 82 r \$0-click_slot2;
#X obj 388 82 r \$0-click_slot3;
#X obj 558 82 r \$0-click_slot4;
#X obj 728 82 r \$0-click_slot5;
#X obj 898 82 r \$0-click_slot6;
#X obj 1068 82 r \$0-click_slot7;
#X obj 1238 82 r \$0-click_slot8;
#X msg 218 113 2;
#X msg 388 113 3;
#X msg 558 113 4;
#X msg 728 113 5;
#X msg 898 113 6;
#X msg 1068 113 7;
#X msg 1238 113 8;
#X obj 48 6 loadbang;
#X obj 48 34 del 50;
#X obj 558 7 r \$0-flush_act_slot;
#X obj 558 34 t b;
#X obj 558 203 s \$0-active_slot;
#X obj 558 173 f;
#X connect 0 0 1 0;
#X connect 1 0 21 0;
#X connect 2 0 9 0;
#X connect 3 0 10 0;
#X connect 4 0 11 0;
#X connect 5 0 12 0;
#X connect 6 0 13 0;
#X connect 7 0 14 0;
#X connect 8 0 15 0;
#X connect 9 0 21 0;
#X connect 10 0 21 0;
#X connect 11 0 21 0;
#X connect 12 0 21 0;
#X connect 13 0 21 0;
#X connect 14 0 21 0;
#X connect 15 0 21 0;
#X connect 16 0 17 0;
#X connect 17 0 1 0;
#X connect 18 0 19 0;
#X connect 19 0 21 0;
#X connect 21 0 20 0;
#X restore 314 28 pd clicks;
#N canvas 766 133 600 438 slots 0;
#N canvas 0 0 450 300 (subpatch) 0;
#X array \$0-slot_state 8 float 2;
#X coords 0 1 8 0 200 140 1 0 0;
#X restore 345 171 graph;
#X msg 345 74 const 0;
#X obj 345 105 s \$0-slot_state;
#X obj 345 43 loadbang;
#N canvas 526 301 482 215 flush_mem 0;
#X obj 279 107 s \$0-slot_flush;
#X obj 52 42 r \$0-slot_list;
#X obj 52 107 list trim;
#X obj 279 42 r CH\$1_FLUSH;
#X obj 52 154 s CH\$1_PRESET;
#X obj 279 75 t b;
#X obj 52 75 list prepend image;
#X connect 1 0 6 0;
#X connect 2 0 4 0;
#X connect 3 0 5 0;
#X connect 5 0 0 0;
#X connect 6 0 2 0;
#X restore 44 333 pd flush_mem;
#X obj 44 43 arrast_slot \$0 \$1 1;
#X obj 44 77 arrast_slot \$0 \$1 2;
#X obj 44 111 arrast_slot \$0 \$1 3;
#X obj 44 145 arrast_slot \$0 \$1 4;
#X obj 44 179 arrast_slot \$0 \$1 5;
#X obj 44 213 arrast_slot \$0 \$1 6;
#X obj 44 247 arrast_slot \$0 \$1 7;
#X obj 44 281 arrast_slot \$0 \$1 8;
#N canvas 477 75 540 464 receive_preset 0;
#X obj 65 23 r MAIN_PRESET_SEND;
#X obj 65 93 route \$1;
#X obj 65 233 list split 2;
#X obj 65 395 tabwrite \$0-slot_state;
#X obj 65 297 unpack f f;
#X obj 65 326 - 1;
#X obj 65 356 swap;
#X obj 274 127 s \$0-flush_act_slot;
#X obj 274 305 s \$0-slot_file_preset;
#X obj 274 186 list split 1;
#X obj 274 268 pack f s;
#X obj 332 216 list split 1;
#X obj 390 245 symbol;
#X obj 274 107 bng 15 250 50 0 empty empty empty 17 7 0 10 -262144
-1 -1;
#X obj 65 56 t b a;
#X obj 274 79 del 10;
#X obj 65 123 route image;
#X obj 65 163 t l l;
#X connect 0 0 14 0;
#X connect 1 0 16 0;
#X connect 2 0 4 0;
#X connect 4 0 5 0;
#X connect 4 1 6 1;
#X connect 5 0 6 0;
#X connect 6 0 3 0;
#X connect 6 1 3 1;
#X connect 9 0 10 0;
#X connect 9 1 11 0;
#X connect 10 0 8 0;
#X connect 11 1 12 0;
#X connect 12 0 10 1;
#X connect 13 0 7 0;
#X connect 14 0 15 0;
#X connect 14 1 1 0;
#X connect 15 0 13 0;
#X connect 16 0 17 0;
#X connect 17 0 2 0;
#X connect 17 1 9 0;
#X restore 44 367 pd receive_preset;
#X connect 1 0 2 0;
#X connect 3 0 1 0;
#X restore 314 59 pd slots;
#N canvas 10 265 847 492 select 0;
#X obj 42 142 symbol;
#X obj 42 366 list prepend file;
#X obj 99 115 r \$0-file;
#X obj 42 57 r \$0-click_load;
#X obj 42 94 bng 30 250 50 0 empty empty empty 17 7 0 10 -262144 -1
-1;
#X obj 516 194 timer;
#X obj 516 164 t b b;
#X floatatom 516 224 5 0 0 0 - - -;
#X obj 516 284 sel 1;
#X obj 516 57 r \$0-file;
#X text 514 26 duplo click;
#X obj 596 152 list append;
#X obj 516 89 splitfilename;
#X obj 596 220 list split 2;
#X obj 596 252 unpack s s;
#X obj 596 284 sel symbol;
#X obj 645 185 list split 2;
#X obj 516 404 s \$0-click_load;
#X obj 516 336 spigot;
#X msg 596 313 1;
#X msg 693 313 0;
#X obj 516 366 bng 30 250 50 0 empty empty empty 17 7 0 10 -262144
-1 -1;
#X obj 516 254 < 250;
#X obj 516 129 t b s;
#X text 41 26 envia info;
#X msg 179 198 1;
#X obj 246 198 r \$0-active_slot;
#X obj 179 268 tabwrite \$0-slot_state;
#X obj 75 314 s \$0-slot_file_in;
#X obj 246 227 - 1;
#X obj 42 403 list prepend I\$1;
#X obj 42 440 s CANAL_I;
#X obj 42 175 t s s b;
#X connect 0 0 32 0;
#X connect 1 0 30 0;
#X connect 2 0 0 1;
#X connect 3 0 4 0;
#X connect 4 0 0 0;
#X connect 5 0 7 0;
#X connect 6 0 5 0;
#X connect 6 1 5 1;
#X connect 7 0 22 0;
#X connect 8 0 18 0;
#X connect 9 0 12 0;
#X connect 11 0 13 0;
#X connect 11 0 16 0;
#X connect 12 1 23 0;
#X connect 13 0 14 0;
#X connect 14 0 15 0;
#X connect 14 1 15 1;
#X connect 15 0 19 0;
#X connect 15 1 20 0;
#X connect 16 0 11 1;
#X connect 16 2 11 1;
#X connect 18 0 21 0;
#X connect 19 0 18 1;
#X connect 20 0 18 1;
#X connect 21 0 17 0;
#X connect 22 0 8 0;
#X connect 23 0 6 0;
#X connect 23 1 11 0;
#X connect 25 0 27 0;
#X connect 26 0 29 0;
#X connect 29 0 27 1;
#X connect 30 0 31 0;
#X connect 32 0 1 0;
#X connect 32 1 28 0;
#X connect 32 2 25 0;
#X restore 314 90 pd select;
#N canvas 568 109 581 330 file_visor 0;
#X msg 408 207 label \$1;
#X obj 211 272 s \$0-visor_name;
#X msg 47 206 color \$1;
#X obj 47 177 r \$0-bg_color;
#N canvas 112 86 619 652 name_cut 0;
#X obj 38 42 splitfilename /;
#X obj 185 86 s2l;
#X msg 212 57 symbol;
#X obj 212 29 loadbang;
#X obj 242 150 list length;
#X obj 185 122 t l l;
#X obj 185 250 spigot;
#X obj 285 250 spigot;
#X msg 338 357 ...;
#X obj 432 426 t l;
#X obj 311 426 list append;
#X obj 285 464 list;
#X obj 285 287 t b l b l b;
#X obj 185 568 l2s;
#X msg 285 545 symbol;
#X obj 285 517 loadbang;
#X text 273 109 ajusta nome para exibição;
#X obj 242 194 <= 22;
#X obj 342 193 > 22;
#X obj 365 390 list split 7;
#X obj 482 194 - 10;
#X obj 311 325 list split 9;
#X obj 38 4 inlet;
#X obj 185 604 outlet;
#X connect 0 1 1 0;
#X connect 1 0 5 0;
#X connect 2 0 1 1;
#X connect 3 0 2 0;
#X connect 4 0 17 0;
#X connect 4 0 18 0;
#X connect 4 0 20 0;
#X connect 5 0 7 0;
#X connect 5 0 6 0;
#X connect 5 1 4 0;
#X connect 6 0 13 0;
#X connect 7 0 12 0;
#X connect 8 0 10 0;
#X connect 9 0 10 1;
#X connect 10 0 9 0;
#X connect 10 0 11 1;
#X connect 11 0 13 0;
#X connect 12 0 11 0;
#X connect 12 1 21 0;
#X connect 12 2 8 0;
#X connect 12 3 19 0;
#X connect 12 4 10 1;
#X connect 13 0 23 0;
#X connect 14 0 13 1;
#X connect 15 0 14 0;
#X connect 17 0 6 1;
#X connect 18 0 7 1;
#X connect 19 1 10 0;
#X connect 20 0 19 1;
#X connect 21 0 10 0;
#X connect 22 0 0 0;
#X restore 408 178 pd name_cut;
#X obj 231 167 loadbang;
#X obj 211 10 r \$0-active_file;
#X obj 211 116 t b;
#X obj 211 50 sel vazio;
#X msg 211 206 label abrir_imagem;
#X connect 0 0 1 0;
#X connect 2 0 1 0;
#X connect 3 0 2 0;
#X connect 4 0 0 0;
#X connect 5 0 9 0;
#X connect 6 0 8 0;
#X connect 7 0 9 0;
#X connect 8 0 7 0;
#X connect 8 1 4 0;
#X connect 9 0 1 0;
#X restore 314 122 pd file_visor;
#X connect 1 0 3 0;
#X connect 3 0 2 0;
#X coords 0 -1 1 1 165 21 2 100 50;
#X restore 43 62 pd select_slot;
#X obj 17 14 hradio 18 1 0 12 \$0-close_browser \$0-close_browser_in
empty 0 -8 0 10 -262144 -1 -1 5;
#X obj 14 14 cnv 15 223 18 empty empty FECHAR_JANELA 70 9 0 10 -128992
-262144 0;
#X obj 43 44 cnv 15 165 18 empty \$0-visor_name abrir_imagem 5 9 0
12 -355 -262144 0;
#X coords 0 -1 1 1 165 21 2 43 62;
#X restore 90 79 pd I_\$1_browser_file;
#N canvas 386 84 731 604 image_unit 0;
#X obj 65 551 rectangle 4 3;
#X obj 65 364 pix_texture;
#X msg 94 255 open \$1;
#X obj 65 116 gemhead \$1;
#X obj 65 432 translateXYZ 0 0 0;
#N canvas 416 270 323 202 trans 0;
#X obj 42 35 loadbang;
#X obj 42 61 f \$1;
#X obj 42 143 outlet;
#X obj 42 88 sel 1 2 3 4;
#X msg 42 115 3;
#X msg 73 115 1;
#X msg 103 115 -1;
#X msg 133 115 -3;
#X connect 0 0 1 0;
#X connect 1 0 3 0;
#X connect 3 0 4 0;
#X connect 3 1 5 0;
#X connect 3 2 6 0;
#X connect 3 3 7 0;
#X connect 4 0 2 0;
#X connect 5 0 2 0;
#X connect 6 0 2 0;
#X connect 7 0 2 0;
#X restore 183 403 pd trans;
#X obj 65 476 scale 0.3;
#X obj 65 300 pix_image;
#X obj 433 32 r CH\$1_SELECT;
#X obj 433 64 == 2;
#X obj 65 73 tgl 25 0 empty empty empty 17 7 0 10 -262144 -1 -1 0 1
;
#X obj 65 32 r \$0-on;
#X obj 433 97 s \$0-on;
#X obj 193 148 r \$0-active_file;
#X obj 367 287 list prepend file;
#X obj 367 255 symbol;
#X obj 367 320 list prepend I\$1;
#X obj 367 354 s CANAL_I;
#X obj 547 173 r \$0-on;
#X obj 547 305 list prepend I\$1;
#X obj 547 339 s CANAL_I;
#X obj 547 272 list prepend render;
#N canvas 414 506 331 252 change_symbol 0;
#X obj 57 92 t s s;
#X obj 57 129 sel s;
#X text 124 106 [change] symbol!;
#X obj 57 45 inlet;
#X obj 104 203 outlet;
#X obj 104 159 symbol;
#X connect 0 0 1 1;
#X connect 0 1 1 0;
#X connect 1 1 5 0;
#X connect 3 0 0 0;
#X connect 5 0 4 0;
#X restore 280 204 pd change_symbol;
#X obj 193 176 sel vazio;
#X obj 280 232 t s s;
#N canvas 2 331 296 433 proporcao 0;
#X obj 44 375 outlet;
#X obj 163 375 outlet;
#X obj 44 33 r \$0-tam;
#X obj 44 187 unpack f f;
#X obj 44 219 /;
#X obj 44 343 * 3;
#X obj 163 344 * 3;
#X obj 163 288 t b f f;
#X obj 163 33 inlet;
#X floatatom 91 146 5 0 0 0 - - -;
#X floatatom 188 146 5 0 0 0 - - -;
#X obj 44 252 pack f 1;
#X obj 91 116 unpack f f;
#X obj 44 280 unpack f f;
#X obj 44 86 t l l;
#X floatatom 83 344 5 0 0 0 - - -;
#X floatatom 203 344 5 0 0 0 - - -;
#X floatatom 177 223 5 0 0 0 - - -;
#X connect 2 0 14 0;
#X connect 3 0 4 0;
#X connect 3 1 4 1;
#X connect 4 0 11 0;
#X connect 5 0 0 0;
#X connect 5 0 15 0;
#X connect 6 0 1 0;
#X connect 6 0 16 0;
#X connect 7 0 6 0;
#X connect 7 0 5 0;
#X connect 7 1 5 1;
#X connect 7 2 6 1;
#X connect 8 0 7 0;
#X connect 11 0 13 0;
#X connect 12 0 9 0;
#X connect 12 1 10 0;
#X connect 13 0 5 0;
#X connect 13 1 6 0;
#X connect 14 0 3 0;
#X connect 14 1 12 0;
#X connect 17 0 7 0;
#X restore 128 521 pd proporcao;
#N canvas 678 345 339 322 info 0;
#X obj 61 33 inlet;
#X obj 61 73 t a a;
#X obj 61 262 outlet;
#X obj 160 127 change;
#X obj 237 127 change;
#X obj 149 96 pix_info;
#X obj 160 188 pack f f;
#X obj 160 218 s \$0-tam;
#X obj 237 155 t b f;
#X connect 0 0 1 0;
#X connect 1 0 2 0;
#X connect 1 1 5 0;
#X connect 3 0 6 0;
#X connect 4 0 8 0;
#X connect 5 1 3 0;
#X connect 5 2 4 0;
#X connect 6 0 7 0;
#X connect 8 0 6 0;
#X connect 8 1 6 1;
#X restore 65 332 pd info;
#X obj 209 313 loadbang;
#X msg 209 341 quality 0;
#X obj 193 118 r \$0-file;
#X connect 1 0 4 0;
#X connect 2 0 7 0;
#X connect 3 0 7 0;
#X connect 4 0 6 0;
#X connect 5 0 4 2;
#X connect 6 0 0 0;
#X connect 7 0 26 0;
#X connect 8 0 9 0;
#X connect 9 0 12 0;
#X connect 10 0 3 0;
#X connect 11 0 10 0;
#X connect 13 0 23 0;
#X connect 14 0 16 0;
#X connect 15 0 14 0;
#X connect 16 0 17 0;
#X connect 18 0 21 0;
#X connect 19 0 20 0;
#X connect 21 0 19 0;
#X connect 22 0 24 0;
#X connect 23 1 22 0;
#X connect 24 0 2 0;
#X connect 24 1 15 0;
#X connect 25 0 0 1;
#X connect 25 1 0 2;
#X connect 26 0 1 0;
#X connect 27 0 28 0;
#X connect 28 0 1 0;
#X connect 29 0 23 0;
#X restore 314 69 pd image_unit;
#N canvas 336 117 499 458 enable_button 0;
#X obj 50 62 t b;
#X obj 50 153 f;
#X obj 90 153 + 1;
#X obj 50 181 % 2;
#X floatatom 50 215 5 0 0 0 - - -;
#X obj 117 69 loadbang;
#X obj 50 28 r \$0-click_enable;
#N canvas 669 215 447 276 color 0;
#X obj 45 41 inlet;
#X obj 45 96 sel 0 1;
#X obj 45 207 s \$0-enable_in;
#X obj 165 119 f 13;
#X msg 165 156 color \$1 0;
#X msg 45 156 color 11 0;
#X obj 202 87 r \$0-channel_color;
#X connect 0 0 1 0;
#X connect 1 0 5 0;
#X connect 1 1 3 0;
#X connect 3 0 4 0;
#X connect 4 0 2 0;
#X connect 5 0 2 0;
#X connect 6 0 3 1;
#X restore 50 334 pd color;
#X obj 50 249 t f f;
#X obj 187 272 sel 1;
#X obj 317 28 r CH\$1_SELECT;
#X obj 187 334 s CH\$1_SELECT;
#X obj 117 98 del 10;
#X msg 364 130 0;
#X obj 317 62 sel 2;
#X msg 62 121 0;
#X msg 187 302 2;
#X obj 347 334 s \$0-on;
#X msg 347 302 0;
#X obj 187 372 list prepend ch\$1_select;
#X obj 187 402 s CANAL_SEL;
#X obj 208 237 s I\$1_ST;
#X obj 208 130 r I\$1_SET_ST;
#X connect 0 0 1 0;
#X connect 1 0 3 0;
#X connect 2 0 1 1;
#X connect 3 0 2 0;
#X connect 3 0 4 0;
#X connect 4 0 8 0;
#X connect 4 0 21 0;
#X connect 5 0 12 0;
#X connect 6 0 0 0;
#X connect 8 0 7 0;
#X connect 8 1 9 0;
#X connect 9 0 16 0;
#X connect 9 1 18 0;
#X connect 10 0 14 0;
#X connect 12 0 15 0;
#X connect 13 0 1 0;
#X connect 14 1 13 0;
#X connect 15 0 1 0;
#X connect 16 0 11 0;
#X connect 16 0 19 0;
#X connect 18 0 17 0;
#X connect 19 0 20 0;
#X connect 22 0 1 0;
#X restore 314 29 pd enable_button;
#X coords 0 -1 1 1 185 80 2 80 30;
