#N canvas 257 114 772 459 10;
#X obj 54 40 inlet;
#X obj 54 395 outlet;
#X obj 274 40 r CANAL_FX;
#X obj 274 70 route FX\$1;
#X obj 274 139 s \$0-color_inv;
#X obj 371 139 s \$0-gain;
#X obj 437 139 s \$0-contrast;
#X obj 527 139 s \$0-saturate;
#X obj 617 139 s \$0-motionblur;
#X obj 54 124 pix_invert;
#X obj 76 101 r \$0-color_inv;
#X obj 54 204 pix_gain;
#X obj 76 159 r \$0-gain;
#X obj 76 180 * 5;
#X obj 88 260 * 5;
#X obj 54 284 pix_contrast;
#X obj 88 239 r \$0-contrast;
#X obj 178 260 * 5;
#X obj 178 239 r \$0-saturate;
#X obj 54 338 pix_motionblur;
#X obj 178 300 r \$0-motionblur;
#X obj 178 321 * 0.99;
#X obj 179 86 loadbang;
#X msg 179 107 0;
#X obj 274 100 route color_inv gain contrast saturate motionblur;
#X connect 0 0 9 0;
#X connect 2 0 3 0;
#X connect 3 0 24 0;
#X connect 9 0 11 0;
#X connect 10 0 9 0;
#X connect 11 0 15 0;
#X connect 12 0 13 0;
#X connect 13 0 11 1;
#X connect 14 0 15 1;
#X connect 15 0 19 0;
#X connect 16 0 14 0;
#X connect 17 0 15 2;
#X connect 18 0 17 0;
#X connect 19 0 1 0;
#X connect 20 0 21 0;
#X connect 21 0 19 1;
#X connect 22 0 23 0;
#X connect 23 0 9 0;
#X connect 24 0 4 0;
#X connect 24 1 5 0;
#X connect 24 2 6 0;
#X connect 24 3 7 0;
#X connect 24 4 8 0;
