#N canvas 192 69 818 548 16;
#X obj 313 268 symbol vazio;
#X text 482 457 slot;
#X obj 44 17 r \$1-active_slot;
#X obj 313 17 r \$1-slot_flush;
#X obj 313 219 del \$3;
#X obj 313 456 list prepend \$3;
#X obj 313 499 s \$1-slot_list;
#N canvas 145 151 794 460 slot_color 0;
#X obj 104 128 sel;
#X msg 104 369 \; \$1-color_slot\$2 color \$3 22;
#X obj 420 103 t f f f f;
#X obj 507 247 sel 0;
#X msg 507 276 0;
#X obj 507 185 f;
#X obj 131 160 t b b;
#X obj 420 37 loadbang;
#X obj 420 72 f \$3;
#X obj 507 218 tabread \$1-slot_state;
#X obj 425 317 pack \$1 f f;
#X obj 104 317 pack \$1 f f;
#X obj 211 282 r \$1-channel_color;
#X obj 104 31 inlet;
#X obj 507 145 - 1;
#X msg 425 369 \; \$1-color_slot\$2 color \$3 22;
#X msg 554 276 1;
#X connect 0 0 11 0;
#X connect 0 1 6 0;
#X connect 2 0 0 1;
#X connect 2 1 11 1;
#X connect 2 2 10 1;
#X connect 2 3 14 0;
#X connect 3 0 4 0;
#X connect 3 1 16 0;
#X connect 4 0 10 2;
#X connect 5 0 9 0;
#X connect 6 0 10 0;
#X connect 6 1 5 0;
#X connect 7 0 8 0;
#X connect 8 0 2 0;
#X connect 9 0 3 0;
#X connect 10 0 15 0;
#X connect 11 0 1 0;
#X connect 12 0 11 2;
#X connect 13 0 0 0;
#X connect 14 0 5 0;
#X connect 16 0 10 2;
#X restore 44 93 pd slot_color;
#X obj 370 94 f \$3;
#X obj 313 60 t b b;
#X obj 563 154 r \$1-slot_file_in;
#X obj 563 243 spigot;
#X obj 620 183 r \$1-active_slot;
#X obj 620 212 == \$3;
#X obj 91 268 symbol vazio;
#X obj 91 232 sel;
#X obj 138 207 f \$3;
#X obj 138 178 loadbang;
#X obj 44 54 t f f;
#X obj 91 337 s \$1-active_file;
#X obj 313 298 t s b;
#X obj 313 420 list prepend;
#X obj 430 378 tabread \$1-slot_state;
#X obj 430 323 f \$3;
#X obj 430 350 - 1;
#X text 451 420 slot_state;
#X obj 370 123 * 2;
#X obj 563 17 r \$1-slot_file_preset;
#X obj 563 46 route \$3;
#X obj 563 77 t a a;
#X obj 430 229 symbol;
#X obj 208 229 symbol;
#X connect 0 0 20 0;
#X connect 2 0 18 0;
#X connect 3 0 9 0;
#X connect 4 0 0 0;
#X connect 5 0 6 0;
#X connect 8 0 26 0;
#X connect 9 0 4 0;
#X connect 9 1 8 0;
#X connect 10 0 11 0;
#X connect 11 0 0 1;
#X connect 11 0 14 0;
#X connect 12 0 13 0;
#X connect 13 0 11 1;
#X connect 14 0 19 0;
#X connect 15 0 14 0;
#X connect 16 0 15 1;
#X connect 17 0 16 0;
#X connect 18 0 7 0;
#X connect 18 1 15 0;
#X connect 20 0 21 0;
#X connect 20 1 23 0;
#X connect 21 0 5 0;
#X connect 22 0 21 1;
#X connect 23 0 24 0;
#X connect 24 0 22 0;
#X connect 26 0 4 1;
#X connect 27 0 28 0;
#X connect 28 0 29 0;
#X connect 29 0 31 0;
#X connect 29 1 30 0;
#X connect 30 0 0 1;
#X connect 31 0 14 1;
