#N canvas 544 239 391 375 10;
#X obj 52 135 gemhead \$1;
#X obj 52 326 outlet;
#X obj 82 38 loadbang;
#X msg 52 64 1;
#X obj 78 92 r \$0-render;
#X obj 52 109 tgl 15 0 empty empty empty 17 7 0 10 -262144 -1 -1 0
1;
#X msg 82 64 0;
#X msg 114 232 set \$1 640 480 RGBA;
#X msg 114 209 10;
#X msg 144 209 11;
#X msg 174 209 12;
#X obj 52 257 pix_share_read 10 640 480 RGBA;
#X obj 209 38 r CANAL_C;
#X obj 114 186 sel 1 2 3;
#X obj 267 129 s \$0-render;
#X obj 209 68 route C\$1;
#X obj 209 98 route cam_sel render;
#X connect 0 0 11 0;
#X connect 2 0 6 0;
#X connect 3 0 5 0;
#X connect 4 0 5 0;
#X connect 5 0 0 0;
#X connect 6 0 5 0;
#X connect 7 0 11 0;
#X connect 8 0 7 0;
#X connect 9 0 7 0;
#X connect 10 0 7 0;
#X connect 11 0 1 0;
#X connect 12 0 15 0;
#X connect 13 0 8 0;
#X connect 13 1 9 0;
#X connect 13 2 10 0;
#X connect 15 0 16 0;
#X connect 16 0 13 0;
#X connect 16 1 14 0;
