#N canvas 845 195 463 587 10;
#X obj 53 498 pix_texture;
#X obj 53 25 inlet;
#X msg 356 200 open \$1;
#X obj 212 149 tgl 15 0 empty empty empty 17 7 0 10 -262144 -1 -1 0
1;
#X obj 137 435 loadbang;
#X obj 212 66 loadbang;
#X msg 212 106 0;
#X obj 212 240 pix_separator;
#X floatatom 297 349 5 0 0 0 - - -;
#X floatatom 335 349 5 0 0 0 - - -;
#X obj 212 342 pix_gain;
#X floatatom 234 323 5 0 0 0 - - -;
#X obj 212 217 pix_image;
#X obj 212 365 pix_contrast;
#X msg 137 481 quality \$1;
#X msg 137 458 1;
#X msg 167 458 0;
#X obj 53 428 alpha;
#X obj 53 405 pix_mask;
#X obj 212 388 pix_grey;
#X obj 249 106 \$1;
#X obj 249 127 + 50;
#X msg 249 148 set \$1;
#X obj 212 179 gemhead 50;
#X obj 53 102 t a a;
#X obj 80 130 pix_info -------;
#X floatatom 93 177 5 0 0 0 - - -;
#X floatatom 139 177 5 0 0 0 - - -;
#X obj 212 294 pix_resize;
#X msg 313 277 dimen 640 480;
#X obj 313 256 loadbang;
#X msg 163 277 dimen \$1 \$2;
#X obj 93 216 pack f f;
#X obj 93 154 change;
#X obj 139 154 change;
#X obj 139 199 t b f;
#X obj 53 350 spigot;
#X msg 94 333 1;
#X msg 124 333 0;
#X obj 93 239 t b l b;
#X obj 94 311 loadbang;
#X obj 93 277 del 20;
#X obj 53 538 4corners \$1;
#X obj 304 26 r CANAL_MAP;
#X obj 304 51 route map\$1;
#X obj 304 76 route on_mask mask;
#X obj 356 178 symbol;
#X connect 0 0 42 0;
#X connect 1 0 24 0;
#X connect 2 0 12 0;
#X connect 3 0 23 0;
#X connect 4 0 15 0;
#X connect 5 0 6 0;
#X connect 5 0 20 0;
#X connect 6 0 3 0;
#X connect 7 0 28 0;
#X connect 8 0 13 1;
#X connect 9 0 13 2;
#X connect 10 0 13 0;
#X connect 11 0 10 1;
#X connect 12 0 7 0;
#X connect 13 0 19 0;
#X connect 14 0 0 0;
#X connect 15 0 14 0;
#X connect 16 0 14 0;
#X connect 17 0 0 0;
#X connect 18 0 17 0;
#X connect 19 0 18 1;
#X connect 20 0 21 0;
#X connect 21 0 22 0;
#X connect 22 0 23 0;
#X connect 23 0 12 0;
#X connect 24 0 36 0;
#X connect 24 1 25 0;
#X connect 25 1 33 0;
#X connect 25 2 34 0;
#X connect 26 0 32 0;
#X connect 27 0 35 0;
#X connect 28 0 10 0;
#X connect 29 0 28 0;
#X connect 30 0 29 0;
#X connect 31 0 28 0;
#X connect 32 0 39 0;
#X connect 33 0 26 0;
#X connect 34 0 27 0;
#X connect 35 0 32 0;
#X connect 35 1 32 1;
#X connect 36 0 18 0;
#X connect 37 0 36 1;
#X connect 38 0 36 1;
#X connect 39 0 41 0;
#X connect 39 1 31 0;
#X connect 39 2 38 0;
#X connect 40 0 37 0;
#X connect 41 0 37 0;
#X connect 43 0 44 0;
#X connect 44 0 45 0;
#X connect 45 0 3 0;
#X connect 45 1 46 0;
#X connect 46 0 2 0;
