#N canvas 455 727 1211 470 10;
#X declare -path abstract;
#X declare -stdlib Gem -stdpath list-abs -stdpath hcs -stdpath zexy
-stdpath iemlib -stdpath ggee -stdpath maxlib -stdpath cyclone;
#X obj 125 23 tgl 15 0 empty empty empty 17 7 0 10 -262144 -1 -1 0
1;
#X floatatom 125 60 5 0 0 0 - - -, f 5;
#N canvas 300 444 849 228 CONNECTS 0;
#X obj 25 18 netreceive 7777;
#X obj 475 185 outlet;
#X obj 25 95 s \$0-canal_gemwin;
#X obj 57 166 s CANAL_V;
#X obj 89 196 s CANAL_I;
#X obj 121 166 s CANAL_C;
#X obj 153 196 s CANAL_T;
#X obj 185 166 s CANAL_FX;
#X obj 217 196 s CANAL_P;
#X obj 259 166 s CANAL_SEL;
#X obj 475 35 t f f;
#X obj 535 52 sel 1;
#X obj 535 146 netsend;
#X msg 535 90 connect localhost 8888;
#X obj 535 185 outlet;
#X msg 535 110 disconnect;
#X obj 708 109 list prepend send;
#X obj 281 196 s CANAL_MODE;
#X obj 708 87 spigot 0;
#X obj 339 166 s CANAL_MAP;
#X obj 708 33 r CANAL_MAP_FB;
#X obj 708 53 list prepend map_fb;
#X obj 25 54 route gemwin video imagem camera transf fx plot ch_sel
mode_sel map;
#X obj 371 54 route quit;
#X obj 371 77 t b b;
#X obj 371 123 s pd;
#X msg 371 100 quit;
#X obj 708 129 list trim;
#X obj 475 15 != 0;
#X obj 765 87 != 0;
#X connect 0 0 22 0;
#X connect 0 1 28 0;
#X connect 10 0 1 0;
#X connect 10 1 11 0;
#X connect 11 0 13 0;
#X connect 11 1 15 0;
#X connect 12 0 14 0;
#X connect 12 0 29 0;
#X connect 13 0 12 0;
#X connect 15 0 12 0;
#X connect 16 0 27 0;
#X connect 18 0 16 0;
#X connect 20 0 21 0;
#X connect 21 0 18 0;
#X connect 22 0 2 0;
#X connect 22 1 3 0;
#X connect 22 2 4 0;
#X connect 22 3 5 0;
#X connect 22 4 6 0;
#X connect 22 5 7 0;
#X connect 22 6 8 0;
#X connect 22 7 9 0;
#X connect 22 8 17 0;
#X connect 22 9 19 0;
#X connect 22 10 23 0;
#X connect 23 0 24 0;
#X connect 24 0 26 0;
#X connect 24 1 15 0;
#X connect 26 0 25 0;
#X connect 27 0 12 0;
#X connect 28 0 10 0;
#X connect 29 0 18 1;
#X restore 248 51 pd CONNECTS;
#X obj 248 71 tgl 15 0 empty empty empty 17 7 0 10 -257985 -1 -1 1
1;
#X obj 248 15 declare -path abstract;
#X obj 125 40 arrast_realfps;
#X obj 25 23 arrast_cpu;
#N canvas 147 250 371 170 GEMWIN 0;
#X msg 218 117 reset;
#X msg 173 117 print;
#X obj 31 16 r \$0-canal_gemwin;
#X obj 172 83 world_light;
#X obj 263 18 loadbang;
#X msg 263 66 0;
#X obj 172 18 gemhead;
#X obj 136 134 gemwin 24;
#X msg 31 92 lighting \$1;
#X obj 31 66 t f f;
#X obj 31 42 route lighting;
#X connect 0 0 7 0;
#X connect 1 0 7 0;
#X connect 2 0 10 0;
#X connect 4 0 5 0;
#X connect 5 0 3 0;
#X connect 6 0 3 0;
#X connect 8 0 7 0;
#X connect 9 0 8 0;
#X connect 9 1 3 0;
#X connect 10 0 9 0;
#X connect 10 1 7 0;
#X restore 25 84 pd GEMWIN;
#X obj 127 178 arrast_cmotor 1;
#N canvas 670 307 434 223 select_source 0;
#X obj 42 128 spigot;
#X obj 75 108 tgl 15 0 empty empty empty 17 7 0 10 -262144 -1 -1 0
1;
#X obj 333 38 inlet;
#X obj 75 79 == 0;
#X obj 42 38 inlet;
#X obj 142 128 spigot;
#X obj 175 108 tgl 15 0 empty empty empty 17 7 0 10 -262144 -1 -1 1
1;
#X obj 142 38 inlet;
#X obj 242 128 spigot;
#X obj 275 108 tgl 15 0 empty empty empty 17 7 0 10 -262144 -1 -1 0
1;
#X obj 242 38 inlet;
#X obj 333 62 clip 0 2;
#X obj 175 79 == 1;
#X obj 275 79 == 2;
#X obj 142 163 outlet;
#X connect 0 0 14 0;
#X connect 1 0 0 1;
#X connect 2 0 11 0;
#X connect 3 0 1 0;
#X connect 4 0 0 0;
#X connect 5 0 14 0;
#X connect 6 0 5 1;
#X connect 7 0 5 0;
#X connect 8 0 14 0;
#X connect 9 0 8 1;
#X connect 10 0 8 0;
#X connect 11 0 3 0;
#X connect 11 0 12 0;
#X connect 11 0 13 0;
#X connect 12 0 6 0;
#X connect 13 0 9 0;
#X restore 65 215 pd select_source;
#X obj 239 190 hradio 25 1 0 3 empty empty empty 0 -8 0 10 -262144
-1 -1 1;
#X obj 65 132 arrast_vmotor 1;
#N canvas 670 307 434 223 select_source 0;
#X obj 42 128 spigot;
#X obj 75 108 tgl 15 0 empty empty empty 17 7 0 10 -262144 -1 -1 0
1;
#X obj 333 38 inlet;
#X obj 75 79 == 0;
#X obj 42 38 inlet;
#X obj 142 128 spigot;
#X obj 175 108 tgl 15 0 empty empty empty 17 7 0 10 -262144 -1 -1 1
1;
#X obj 142 38 inlet;
#X obj 242 128 spigot;
#X obj 275 108 tgl 15 0 empty empty empty 17 7 0 10 -262144 -1 -1 0
1;
#X obj 242 38 inlet;
#X obj 333 62 clip 0 2;
#X obj 175 79 == 1;
#X obj 275 79 == 2;
#X obj 142 163 outlet;
#X connect 0 0 14 0;
#X connect 1 0 0 1;
#X connect 2 0 11 0;
#X connect 3 0 1 0;
#X connect 4 0 0 0;
#X connect 5 0 14 0;
#X connect 6 0 5 1;
#X connect 7 0 5 0;
#X connect 8 0 14 0;
#X connect 9 0 8 1;
#X connect 10 0 8 0;
#X connect 11 0 3 0;
#X connect 11 0 12 0;
#X connect 11 0 13 0;
#X connect 12 0 6 0;
#X connect 13 0 9 0;
#X restore 345 215 pd select_source;
#X obj 519 190 hradio 25 1 0 3 empty empty empty 0 -8 0 10 -262144
-1 -1 1;
#N canvas 670 307 434 223 select_source 0;
#X obj 42 128 spigot;
#X obj 75 108 tgl 15 0 empty empty empty 17 7 0 10 -262144 -1 -1 0
1;
#X obj 333 38 inlet;
#X obj 75 79 == 0;
#X obj 42 38 inlet;
#X obj 142 128 spigot;
#X obj 175 108 tgl 15 0 empty empty empty 17 7 0 10 -262144 -1 -1 1
1;
#X obj 142 38 inlet;
#X obj 242 128 spigot;
#X obj 275 108 tgl 15 0 empty empty empty 17 7 0 10 -262144 -1 -1 0
1;
#X obj 242 38 inlet;
#X obj 333 62 clip 0 2;
#X obj 175 79 == 1;
#X obj 275 79 == 2;
#X obj 142 163 outlet;
#X connect 0 0 14 0;
#X connect 1 0 0 1;
#X connect 2 0 11 0;
#X connect 3 0 1 0;
#X connect 4 0 0 0;
#X connect 5 0 14 0;
#X connect 6 0 5 1;
#X connect 7 0 5 0;
#X connect 8 0 14 0;
#X connect 9 0 8 1;
#X connect 10 0 8 0;
#X connect 11 0 3 0;
#X connect 11 0 12 0;
#X connect 11 0 13 0;
#X connect 12 0 6 0;
#X connect 13 0 9 0;
#X restore 625 215 pd select_source;
#X obj 799 190 hradio 25 1 0 3 empty empty empty 0 -8 0 10 -262144
-1 -1 1;
#N canvas 670 307 434 223 select_source 0;
#X obj 42 128 spigot;
#X obj 75 108 tgl 15 0 empty empty empty 17 7 0 10 -262144 -1 -1 1
1;
#X obj 333 38 inlet;
#X obj 75 79 == 0;
#X obj 42 38 inlet;
#X obj 142 128 spigot;
#X obj 175 108 tgl 15 0 empty empty empty 17 7 0 10 -262144 -1 -1 0
1;
#X obj 142 38 inlet;
#X obj 242 128 spigot;
#X obj 275 108 tgl 15 0 empty empty empty 17 7 0 10 -262144 -1 -1 0
1;
#X obj 242 38 inlet;
#X obj 333 62 clip 0 2;
#X obj 175 79 == 1;
#X obj 275 79 == 2;
#X obj 142 163 outlet;
#X connect 0 0 14 0;
#X connect 1 0 0 1;
#X connect 2 0 11 0;
#X connect 3 0 1 0;
#X connect 4 0 0 0;
#X connect 5 0 14 0;
#X connect 6 0 5 1;
#X connect 7 0 5 0;
#X connect 8 0 14 0;
#X connect 9 0 8 1;
#X connect 10 0 8 0;
#X connect 11 0 3 0;
#X connect 11 0 12 0;
#X connect 11 0 13 0;
#X connect 12 0 6 0;
#X connect 13 0 9 0;
#X restore 905 215 pd select_source;
#X obj 1079 190 hradio 25 1 0 3 empty empty empty 0 -8 0 10 -262144
-1 -1 0;
#X obj 65 272 arrast_tmotor 1;
#X obj 65 327 arrast_fxmotor 1;
#X obj 861 20 r CANAL_SEL;
#X obj 861 47 route ch1_select ch2_select ch3_select ch4_select;
#X obj 861 75 - 1;
#X obj 933 75 - 1;
#X obj 1006 75 - 1;
#X obj 1079 75 - 1;
#X obj 239 143 loadbang;
#X msg 239 163 0;
#X obj 519 143 loadbang;
#X msg 519 163 0;
#X obj 799 143 loadbang;
#X msg 799 163 0;
#X obj 1079 143 loadbang;
#X msg 1079 163 0;
#X obj 407 178 arrast_cmotor 2;
#X obj 687 178 arrast_cmotor 3;
#X obj 967 178 arrast_cmotor 4;
#X obj 311 71 tgl 15 0 empty empty empty 17 7 0 10 -257985 -1 -1 1
1;
#N canvas 853 370 323 219 select_source 0;
#X obj 42 128 spigot;
#X obj 75 108 tgl 15 0 empty empty empty 17 7 0 10 -262144 -1 -1 0
1;
#X obj 233 38 inlet;
#X obj 75 79 == 0;
#X obj 42 38 inlet;
#X obj 142 128 spigot;
#X obj 175 108 tgl 15 0 empty empty empty 17 7 0 10 -262144 -1 -1 1
1;
#X obj 175 79 == 1;
#X obj 42 183 outlet;
#X obj 233 62 clip 0 1;
#X obj 142 183 outlet;
#X connect 0 0 8 0;
#X connect 1 0 0 1;
#X connect 2 0 9 0;
#X connect 3 0 1 0;
#X connect 4 0 0 0;
#X connect 4 0 5 0;
#X connect 5 0 10 0;
#X connect 6 0 5 1;
#X connect 7 0 6 0;
#X connect 9 0 3 0;
#X connect 9 0 7 0;
#X restore 65 380 pd select_source;
#X obj 174 415 arrast_mapmotor 1;
#X obj 239 355 hradio 25 1 0 2 empty empty empty 0 -8 0 10 -262144
-1 -1 1;
#X obj 239 288 loadbang;
#X msg 239 308 0;
#N canvas 853 370 323 219 select_source 0;
#X obj 42 128 spigot;
#X obj 75 108 tgl 15 0 empty empty empty 17 7 0 10 -262144 -1 -1 0
1;
#X obj 233 38 inlet;
#X obj 75 79 == 0;
#X obj 42 38 inlet;
#X obj 142 128 spigot;
#X obj 175 108 tgl 15 0 empty empty empty 17 7 0 10 -262144 -1 -1 1
1;
#X obj 175 79 == 1;
#X obj 42 183 outlet;
#X obj 233 62 clip 0 1;
#X obj 142 183 outlet;
#X connect 0 0 8 0;
#X connect 1 0 0 1;
#X connect 2 0 9 0;
#X connect 3 0 1 0;
#X connect 4 0 0 0;
#X connect 4 0 5 0;
#X connect 5 0 10 0;
#X connect 6 0 5 1;
#X connect 7 0 6 0;
#X connect 9 0 3 0;
#X connect 9 0 7 0;
#X restore 345 380 pd select_source;
#N canvas 853 370 323 219 select_source 0;
#X obj 42 128 spigot;
#X obj 75 108 tgl 15 0 empty empty empty 17 7 0 10 -262144 -1 -1 0
1;
#X obj 233 38 inlet;
#X obj 75 79 == 0;
#X obj 42 38 inlet;
#X obj 142 128 spigot;
#X obj 175 108 tgl 15 0 empty empty empty 17 7 0 10 -262144 -1 -1 1
1;
#X obj 175 79 == 1;
#X obj 42 183 outlet;
#X obj 233 62 clip 0 1;
#X obj 142 183 outlet;
#X connect 0 0 8 0;
#X connect 1 0 0 1;
#X connect 2 0 9 0;
#X connect 3 0 1 0;
#X connect 4 0 0 0;
#X connect 4 0 5 0;
#X connect 5 0 10 0;
#X connect 6 0 5 1;
#X connect 7 0 6 0;
#X connect 9 0 3 0;
#X connect 9 0 7 0;
#X restore 625 380 pd select_source;
#N canvas 853 370 323 219 select_source 0;
#X obj 42 128 spigot;
#X obj 75 108 tgl 15 0 empty empty empty 17 7 0 10 -262144 -1 -1 0
1;
#X obj 233 38 inlet;
#X obj 75 79 == 0;
#X obj 42 38 inlet;
#X obj 142 128 spigot;
#X obj 175 108 tgl 15 0 empty empty empty 17 7 0 10 -262144 -1 -1 1
1;
#X obj 175 79 == 1;
#X obj 42 183 outlet;
#X obj 233 62 clip 0 1;
#X obj 142 183 outlet;
#X connect 0 0 8 0;
#X connect 1 0 0 1;
#X connect 2 0 9 0;
#X connect 3 0 1 0;
#X connect 4 0 0 0;
#X connect 4 0 5 0;
#X connect 5 0 10 0;
#X connect 6 0 5 1;
#X connect 7 0 6 0;
#X connect 9 0 3 0;
#X connect 9 0 7 0;
#X restore 905 380 pd select_source;
#X obj 905 415 arrast_vjmotor 4;
#X obj 239 331 r CANAL_MODE;
#X obj 345 327 arrast_fxmotor 2;
#X obj 625 327 arrast_fxmotor 3;
#X obj 905 327 arrast_fxmotor 4;
#X obj 345 272 arrast_tmotor 2;
#X obj 625 272 arrast_tmotor 3;
#X obj 905 272 arrast_tmotor 4;
#X obj 345 132 arrast_vmotor 2;
#X obj 625 132 arrast_vmotor 3;
#X obj 905 132 arrast_vmotor 4;
#X obj 936 155 arrast_imotor 4;
#X obj 454 415 arrast_mapmotor 2;
#X obj 734 415 arrast_mapmotor 3;
#X obj 1014 415 arrast_mapmotor 4;
#X obj 65 415 arrast_vjmotor 1;
#X obj 345 415 arrast_vjmotor 2;
#X obj 625 415 arrast_vjmotor 3;
#X obj 96 155 arrast_imotor 1;
#X obj 376 155 arrast_imotor 2;
#X obj 656 155 arrast_imotor 3;
#X obj 412 15 declare -stdlib Gem -stdpath list-abs -stdpath hcs -stdpath
zexy -stdpath iemlib -stdpath ggee -stdpath maxlib -stdpath cyclone
;
#X connect 0 0 5 0;
#X connect 2 0 3 0;
#X connect 2 1 37 0;
#X connect 5 0 1 0;
#X connect 8 0 9 2;
#X connect 9 0 18 0;
#X connect 10 0 9 3;
#X connect 11 0 9 0;
#X connect 12 0 51 0;
#X connect 13 0 12 3;
#X connect 14 0 52 0;
#X connect 15 0 14 3;
#X connect 16 0 53 0;
#X connect 17 0 16 3;
#X connect 18 0 19 0;
#X connect 19 0 38 0;
#X connect 20 0 21 0;
#X connect 21 0 22 0;
#X connect 21 1 23 0;
#X connect 21 2 24 0;
#X connect 21 3 25 0;
#X connect 22 0 10 0;
#X connect 23 0 13 0;
#X connect 24 0 15 0;
#X connect 25 0 17 0;
#X connect 26 0 27 0;
#X connect 27 0 10 0;
#X connect 28 0 29 0;
#X connect 29 0 13 0;
#X connect 30 0 31 0;
#X connect 31 0 15 0;
#X connect 32 0 33 0;
#X connect 33 0 17 0;
#X connect 34 0 12 2;
#X connect 35 0 14 2;
#X connect 36 0 16 2;
#X connect 38 0 61 0;
#X connect 38 1 39 0;
#X connect 40 0 38 1;
#X connect 40 0 43 1;
#X connect 40 0 44 1;
#X connect 40 0 45 1;
#X connect 41 0 42 0;
#X connect 42 0 40 0;
#X connect 43 0 62 0;
#X connect 43 1 58 0;
#X connect 44 0 63 0;
#X connect 44 1 59 0;
#X connect 45 0 46 0;
#X connect 45 1 60 0;
#X connect 47 0 40 0;
#X connect 48 0 43 0;
#X connect 49 0 44 0;
#X connect 50 0 45 0;
#X connect 51 0 48 0;
#X connect 52 0 49 0;
#X connect 53 0 50 0;
#X connect 54 0 12 0;
#X connect 55 0 14 0;
#X connect 56 0 16 0;
#X connect 57 0 16 1;
#X connect 64 0 9 1;
#X connect 65 0 12 1;
#X connect 66 0 14 1;
