#N canvas 712 168 472 415 10;
#X obj 62 37 inlet;
#X obj 139 39 inlet;
#X obj 205 40 inlet;
#X text 67 12 red;
#X text 137 14 green;
#X text 209 14 blue;
#X obj 139 294 +;
#X obj 139 320 +;
#X obj 62 213 * -65536;
#X obj 139 214 * -256;
#X obj 205 214 * -1;
#X obj 139 351 - 1;
#X obj 139 386 outlet;
#X obj 72 258 t f b;
#X obj 62 102 pack f f f;
#X obj 62 165 clip 0 255;
#X obj 132 165 clip 0 255;
#X obj 202 165 clip 0 255;
#X obj 62 131 unpack f f f;
#X obj 205 64 t b f;
#X obj 139 64 t b f;
#X connect 0 0 14 0;
#X connect 1 0 20 0;
#X connect 2 0 19 0;
#X connect 6 0 7 1;
#X connect 7 0 11 0;
#X connect 8 0 13 0;
#X connect 9 0 6 0;
#X connect 10 0 6 1;
#X connect 11 0 12 0;
#X connect 13 0 7 0;
#X connect 13 1 6 0;
#X connect 14 0 18 0;
#X connect 15 0 8 0;
#X connect 16 0 9 0;
#X connect 17 0 10 0;
#X connect 18 0 15 0;
#X connect 18 1 16 0;
#X connect 18 2 17 0;
#X connect 19 0 14 0;
#X connect 19 1 14 2;
#X connect 20 0 14 0;
#X connect 20 1 14 1;
