#N canvas 563 216 450 300 10;
#X obj 147 95 pow 2;
#X obj 92 95 pow 2;
#X obj 112 159 +;
#X obj 116 184 sqrt 2;
#X obj 93 71 abs;
#X obj 151 72 abs;
#X obj 101 31 inlet;
#X obj 170 32 inlet;
#X obj 121 232 outlet;
#X connect 0 0 2 1;
#X connect 1 0 2 0;
#X connect 2 0 3 0;
#X connect 3 0 8 0;
#X connect 4 0 1 0;
#X connect 5 0 0 0;
#X connect 6 0 4 0;
#X connect 7 0 5 0;
