#N canvas 0 50 1440 850 10;
#X obj 996 822 cnv 15 100 150 empty empty empty 20 12 0 14 -258113
-66577 0;
#N canvas 379 139 519 521 comparing 0;
#X obj 97 39 inlet;
#X obj 182 482 outlet;
#X floatatom 66 180 5 0 0 0 - - -, f 5;
#X obj 100 66 t l l;
#X obj 200 287 change;
#X obj 233 310 change;
#X obj 265 336 change;
#X obj 297 355 change;
#X obj 198 318 tgl 15 0 empty empty empty 17 7 0 10 -262144 -1 -1 0
1;
#X obj 231 343 tgl 15 0 empty empty empty 17 7 0 10 -262144 -1 -1 0
1;
#X obj 274 367 tgl 15 0 empty empty empty 17 7 0 10 -262144 -1 -1 0
1;
#X obj 305 387 tgl 15 0 empty empty empty 17 7 0 10 -262144 -1 -1 0
1;
#X obj 207 377 t b f;
#X obj 227 399 t b f;
#X obj 251 400 t b f;
#X obj 202 129 moses 1;
#X obj 237 152 moses 1;
#X obj 271 174 moses 1;
#X obj 300 197 moses 1;
#X obj 372 47 loadbang;
#X msg 364 75 0.4;
#X obj 340 224 moses 1;
#X obj 203 105 unpack f f f f f;
#X obj 341 382 change;
#X obj 349 414 tgl 15 0 empty empty empty 17 7 0 10 -262144 -1 -1 0
1;
#X obj 184 451 pack f f f f f;
#X obj 300 411 t b f;
#X obj 213 38 r reset;
#X obj 199 258 == 1;
#X obj 229 258 == 1;
#X obj 259 256 == 1;
#X obj 290 260 == 1;
#X obj 330 261 == 1;
#N canvas 0 79 1920 976 min 0;
#X obj 49 127 inlet LIST;
#X obj 49 199 list split 1;
#X obj 83 222 list;
#X text 148 199 DETACH EACH ELEMENT OF THE LIST;
#X obj 49 159 t l b;
#X obj 49 299 t f f;
#X text 119 278 ENGINE TO FIND SMALLEST NUMBER;
#X text 154 256 RESET SEARCH ENGINE;
#X obj 49 341 outlet FLOAT;
#X obj 49 277 min 1e+09;
#X msg 106 256 1e+09;
#X text 45 29 * FINDS THE SMALLEST NUMBER IN A FLOW - REPLACES [minmax]
FROM ZEXY LIB, f 35;
#X connect 0 0 4 0;
#X connect 1 0 9 0;
#X connect 1 1 2 0;
#X connect 2 0 1 0;
#X connect 4 0 1 0;
#X connect 4 1 10 0;
#X connect 5 0 8 0;
#X connect 5 1 9 1;
#X connect 9 0 5 0;
#X connect 10 0 9 1;
#X restore 100 131 pd min;
#X connect 0 0 3 0;
#X connect 3 0 33 0;
#X connect 3 1 22 0;
#X connect 4 0 8 0;
#X connect 4 0 25 0;
#X connect 5 0 9 0;
#X connect 5 0 12 0;
#X connect 6 0 10 0;
#X connect 6 0 13 0;
#X connect 7 0 11 0;
#X connect 7 0 14 0;
#X connect 12 0 25 0;
#X connect 12 1 25 1;
#X connect 13 0 25 0;
#X connect 13 1 25 2;
#X connect 14 0 25 0;
#X connect 14 1 25 3;
#X connect 15 0 28 1;
#X connect 16 0 29 1;
#X connect 17 0 30 1;
#X connect 18 0 31 1;
#X connect 19 0 20 0;
#X connect 20 0 15 1;
#X connect 20 0 16 1;
#X connect 20 0 17 1;
#X connect 20 0 18 1;
#X connect 20 0 21 1;
#X connect 21 0 32 1;
#X connect 22 0 15 0;
#X connect 22 1 16 0;
#X connect 22 2 17 0;
#X connect 22 3 18 0;
#X connect 22 4 21 0;
#X connect 23 0 24 0;
#X connect 23 0 26 0;
#X connect 25 0 1 0;
#X connect 26 0 25 0;
#X connect 26 1 25 4;
#X connect 28 0 4 0;
#X connect 29 0 5 0;
#X connect 30 0 6 0;
#X connect 31 0 7 0;
#X connect 32 0 23 0;
#X connect 33 0 28 0;
#X connect 33 0 29 0;
#X connect 33 0 30 0;
#X connect 33 0 31 0;
#X connect 33 0 32 0;
#X connect 33 0 2 0;
#X restore 283 221 pd comparing;
#X obj 1105 601 polygon 4;
#X obj 426 266 tgl 15 0 empty empty empty 17 7 0 10 -262144 -1 -1 0
1;
#X obj 443 266 tgl 15 0 empty empty empty 17 7 0 10 -262144 -1 -1 0
1;
#X obj 460 266 tgl 15 0 empty empty empty 17 7 0 10 -262144 -1 -1 0
1;
#X obj 477 266 tgl 15 0 empty empty empty 17 7 0 10 -262144 -1 -1 0
1;
#X msg 1019 584 draw line;
#X obj 1019 557 loadbang;
#X obj 1008 915 curve3d 1 1;
#X msg 833 777 set 1 1 \$1 \$2 \$3;
#X msg 860 750 set 1 0 \$1 \$2 \$3;
#X obj 1105 456 gemhead 6;
#X msg 778 831 set 0 0 \$1 \$2 \$3;
#X msg 807 804 set 0 1 \$1 \$2 \$3;
#X obj 1008 861 inlet;
#X obj 76 400 f;
#X obj 133 398 f;
#X obj 61 429 -;
#X obj 118 431 -;
#X obj 283 249 unpack f f f f f;
#X obj 61 737 pack f f f f f;
#X obj 61 666 t b f;
#X obj 494 266 tgl 15 0 empty empty empty 17 7 0 10 -262144 -1 -1 0
1;
#X obj 129 836 sel 1;
#X obj 179 970 s select;
#X obj 460 71 sel \$0;
#X obj 460 26 r select;
#X obj 460 146 s \$0-sel;
#X obj 631 27 r \$0-sel;
#X msg 493 96 0;
#X msg 460 97 1;
#X obj 179 873 spigot 0;
#X obj 713 126 f;
#X obj 736 86 sel 1;
#X obj 541 79 r reset;
#X obj 631 61 tgl 15 0 empty empty empty 17 7 0 10 -262144 -1 -1 0
1;
#X obj 224 507 < 0.3;
#X obj 1105 332 r \$0-sel;
#X obj 1105 429 f;
#X obj 1124 393 sel 1;
#N canvas 200 130 475 536 stred 0;
#X obj 154 167 armoire/stred_bodov;
#X obj 215 231 armoire/stred_bodov;
#X obj 154 298 armoire/stred_bodov;
#X obj 154 344 unpack f f;
#X obj 131 395 translateXYZ;
#X msg 152 447 draw line;
#X obj 131 485 circle 0.08;
#X obj 154 426 loadbang;
#X obj 30 378 gemhead 20;
#X obj 30 236 inlet;
#X obj 383 316 outlet;
#X obj 154 44 r \$0-BG;
#X obj 215 44 r \$0-HG;
#X obj 265 44 r \$0-HD;
#X obj 326 44 r \$0-BD;
#X connect 0 0 2 0;
#X connect 1 0 2 1;
#X connect 2 0 3 0;
#X connect 2 0 10 0;
#X connect 3 0 4 1;
#X connect 3 1 4 2;
#X connect 4 0 6 0;
#X connect 5 0 6 0;
#X connect 7 0 5 0;
#X connect 8 0 4 0;
#X connect 9 0 8 0;
#X connect 11 0 0 0;
#X connect 12 0 1 0;
#X connect 13 0 0 1;
#X connect 14 0 1 1;
#X restore 212 210 pd stred;
#N canvas 376 303 593 461 graphique_center 0;
#X obj -428 -292 inlet;
#X obj -428 -270 unpack f f;
#X obj -96 -224 inlet;
#X obj -193 -191 translateXYZ;
#X obj -193 -94 circle 0.03;
#X obj -243 35 translateXYZ;
#X obj -243 98 circle 0.08;
#X obj -96 -188 sel 0 1;
#X msg -96 -145 0.03;
#X msg -77 -111 0.045;
#X obj -137 -16 r \$0-sel;
#X obj -137 11 sel 0 1;
#X msg -118 81 0.1;
#X msg -137 38 0.07;
#X obj -193 -218 gemhead 100;
#X obj -243 6 color 1 0 0;
#X obj -243 -29 gemhead 100;
#X obj -193 -148 color 1 0 0;
#X obj -243 -285 r \$0-vertex_switch;
#X connect 0 0 1 0;
#X connect 1 0 3 1;
#X connect 1 0 5 1;
#X connect 1 1 3 2;
#X connect 1 1 5 2;
#X connect 2 0 7 0;
#X connect 3 0 17 0;
#X connect 5 0 6 0;
#X connect 7 0 8 0;
#X connect 7 1 9 0;
#X connect 8 0 4 1;
#X connect 9 0 4 1;
#X connect 10 0 11 0;
#X connect 11 0 13 0;
#X connect 11 1 12 0;
#X connect 12 0 6 1;
#X connect 13 0 6 1;
#X connect 14 0 3 0;
#X connect 15 0 5 0;
#X connect 16 0 15 0;
#X connect 17 0 4 0;
#X connect 18 0 14 0;
#X connect 18 0 16 0;
#X restore 212 425 pd graphique_center;
#X obj 76 363 unpack f f;
#X obj 763 193 f;
#X obj 293 897 &&;
#X obj 61 334 unpack f f;
#X obj 61 302 route position;
#N canvas 446 177 438 374 relativer 0;
#X obj 193 177 f;
#X obj 165 252 -;
#X obj 241 176 f;
#X obj 220 247 -;
#X obj 169 134 unpack f f;
#X obj 118 43 route position b1;
#X obj 294 37 inlet;
#X obj 294 68 sel 1;
#X obj 280 105 t b b;
#X obj 175 283 pack f f;
#X obj 176 326 outlet;
#X obj 115 211 spigot 0;
#X obj 219 217 spigot 0;
#X obj 118 21 r \$0-gmouse;
#X connect 0 0 1 1;
#X connect 1 0 9 0;
#X connect 2 0 3 1;
#X connect 3 0 9 1;
#X connect 4 0 0 1;
#X connect 4 0 11 0;
#X connect 4 1 2 1;
#X connect 4 1 12 0;
#X connect 5 0 4 0;
#X connect 6 0 7 0;
#X connect 6 0 11 1;
#X connect 6 0 12 1;
#X connect 7 0 8 0;
#X connect 7 0 10 0;
#X connect 8 0 0 0;
#X connect 8 1 2 0;
#X connect 9 0 10 0;
#X connect 11 0 1 0;
#X connect 12 0 3 0;
#X connect 13 0 5 0;
#X restore 519 967 pd relativer;
#X obj 713 18 r select_none;
#X msg 713 40 0;
#X obj 388 438 r \$0-init-X-BG;
#X obj 424 407 r \$0-init-Y-BG;
#X obj 542 432 r \$0-init-X-HG;
#X obj 578 405 r \$0-init-Y-HG;
#X obj 702 433 r \$0-init-X-HD;
#X obj 738 406 r \$0-init-Y-HD;
#X obj 860 439 r \$0-init-X-BD;
#X obj 896 412 r \$0-init-Y-BD;
#X obj 62 173 tgl 15 0 empty empty empty 17 7 0 10 -262144 -1 -1 0
1;
#N canvas 195 126 681 522 mousposition 0;
#X obj 545 372 translateXYZ;
#X obj 275 124 s cur_pos_x;
#X obj 348 77 s cur_pos_y;
#X obj 544 395 circle 0.04;
#X obj 424 357 circle 0.08;
#X obj 428 293 color 0 0 1;
#X obj 424 328 translateXYZ;
#X obj 441 268 gemhead 30;
#X obj 557 321 gemhead 31;
#X obj 560 344 color 0 0 0;
#X obj 26 280 t b;
#X obj 27 364 change;
#X msg 26 341 1;
#X msg 60 341 0;
#X obj 25 440 s gemwin;
#X msg 25 405 cursor \$1;
#X obj 45 318 delay 3000;
#X obj 128 416 outlet;
#X obj 239 10 gemmouse 1 1;
#X obj 183 124 pack f f;
#X obj 173 208 list append;
#X obj 182 155 t b l;
#X msg 172 185 position;
#X obj 270 208 list append;
#X msg 269 185 b1;
#X obj 269 162 t b f;
#X obj 314 54 expr ($f1*-2+1)*4;
#X obj 214 240 route list;
#X obj 214 483 s \$0-gmouse;
#X obj 214 378 spigot 1;
#X obj 33 155 tgl 30 0 empty empty empty 17 7 0 10 -232576 -1 -1 0
1;
#X obj 128 348 sel 0 1;
#X msg 128 377 0;
#X msg 158 377 1;
#X text 67 159 Edit;
#X obj 42 99 loadbang;
#X obj 302 421 s select;
#X obj 302 378 \$0;
#X msg 63 123 1;
#X msg 33 123 0;
#X obj 302 356 sel 1;
#X obj 128 263 t f f f;
#X obj 33 44 route map\$1;
#X obj 33 66 route edit;
#X obj 557 230 loadbang;
#X msg 557 251 0;
#X obj 33 18 r MAP_BUS;
#X obj 26 248 spigot;
#X obj 65 196 r MODE_BUS;
#X obj 65 218 t f f;
#X obj 77 248 sel 0;
#X obj 183 98 t f;
#X obj 183 54 expr ($f1*2-1);
#X obj 183 76 * 5.33;
#X obj 464 32 r GEMWIN_BUS;
#X obj 464 56 route dimen;
#X obj 464 78 unpack f f;
#X obj 464 100 /;
#X obj 464 122 * 4;
#X text 222 451 video_ext is dependent of this in case you want to
control the cursor in a different way;
#X connect 0 0 3 0;
#X connect 5 0 6 0;
#X connect 6 0 4 0;
#X connect 7 0 5 0;
#X connect 8 0 9 0;
#X connect 9 0 0 0;
#X connect 10 0 12 0;
#X connect 10 0 16 0;
#X connect 11 0 8 0;
#X connect 11 0 7 0;
#X connect 11 0 15 0;
#X connect 12 0 11 0;
#X connect 13 0 11 0;
#X connect 15 0 14 0;
#X connect 16 0 13 0;
#X connect 18 0 52 0;
#X connect 18 1 26 0;
#X connect 18 2 25 0;
#X connect 19 0 21 0;
#X connect 20 0 27 0;
#X connect 21 0 22 0;
#X connect 21 0 47 0;
#X connect 21 1 20 1;
#X connect 22 0 20 0;
#X connect 23 0 27 0;
#X connect 24 0 23 0;
#X connect 25 0 24 0;
#X connect 25 1 23 1;
#X connect 26 0 19 1;
#X connect 26 0 2 0;
#X connect 26 0 6 2;
#X connect 26 0 0 2;
#X connect 27 0 29 0;
#X connect 29 0 28 0;
#X connect 30 0 41 0;
#X connect 31 0 32 0;
#X connect 31 1 33 0;
#X connect 32 0 17 0;
#X connect 33 0 17 0;
#X connect 35 0 39 0;
#X connect 37 0 36 0;
#X connect 38 0 30 0;
#X connect 39 0 30 0;
#X connect 40 0 37 0;
#X connect 41 0 31 0;
#X connect 41 1 29 1;
#X connect 41 2 40 0;
#X connect 42 0 43 0;
#X connect 43 0 30 0;
#X connect 44 0 45 0;
#X connect 45 0 7 0;
#X connect 45 0 8 0;
#X connect 46 0 42 0;
#X connect 47 0 10 0;
#X connect 48 0 49 0;
#X connect 49 0 47 1;
#X connect 49 1 50 0;
#X connect 50 0 13 0;
#X connect 51 0 19 0;
#X connect 51 0 1 0;
#X connect 51 0 6 1;
#X connect 51 0 0 1;
#X connect 52 0 53 0;
#X connect 53 0 51 0;
#X connect 54 0 55 0;
#X connect 55 0 56 0;
#X connect 56 0 57 0;
#X connect 56 1 57 1;
#X connect 57 0 58 0;
#X connect 58 0 53 1;
#X restore 62 121 pd mousposition;
#X text 80 173 display help points;
#X obj 61 490 armoire/pytagoras;
#X obj 424 541 s \$0-BG;
#X obj 578 541 s \$0-HG;
#X obj 738 541 s \$0-HD;
#X obj 896 540 s \$0-BD;
#X obj 778 642 r \$0-BG;
#X obj 807 669 r \$0-HG;
#X obj 833 696 r \$0-HD;
#X obj 860 723 r \$0-BD;
#X obj 1117 493 r \$0-BG;
#X obj 1130 520 r \$0-HG;
#X obj 1143 547 r \$0-HD;
#X obj 1156 574 r \$0-BD;
#X obj 129 809 route b1;
#X obj 179 897 \$0;
#X obj 1124 362 r \$0-vertex_switch;
#X obj 736 64 r \$0-vertex_switch;
#X obj 62 244 s \$0-vertex_switch;
#X obj 61 273 r \$0-gmouse;
#X obj 129 787 r \$0-gmouse;
#X obj 283 498 armoire/vertex 0 0 \$1 \$0;
#X obj 437 498 armoire/vertex 0 0 \$1 \$0;
#X obj 424 407 r \$0-init-Y-BG;
#X obj 597 498 armoire/vertex 0 0 \$1 \$0;
#X obj 755 498 armoire/vertex 0 0 \$1 \$0;
#X obj 277 921 tgl 15 0 empty empty empty 17 7 0 10 -262144 -1 -1 0
1;
#N canvas 50 91 1111 486 COMUNICA_INTERFACE 0;
#X obj 53 143 s \$0-init-X-BG;
#X obj 53 166 s \$0-init-Y-BG;
#X obj 165 143 s \$0-init-X-HG;
#X obj 165 166 s \$0-init-Y-HG;
#X obj 277 143 s \$0-init-X-HD;
#X obj 277 166 s \$0-init-Y-HD;
#X obj 389 143 s \$0-init-X-BD;
#X obj 389 166 s \$0-init-Y-BD;
#X obj 53 79 route map\$1;
#X obj 53 216 r \$0-BG;
#X obj 315 216 r \$0-HG;
#X obj 577 216 r \$0-HD;
#X obj 839 216 r \$0-BD;
#X obj 53 240 unpack f f;
#X obj 315 240 unpack f f;
#X obj 577 240 unpack f f;
#X obj 839 240 unpack f f;
#X obj 53 311 list prepend map\$1;
#X obj 53 331 list trim;
#X obj 53 39 r MAP_BUS;
#X obj 53 430 s MAP_FB_BUS;
#X obj 539 82 route mapList;
#X obj 562 126 unpack f f f f f f f f;
#X obj 539 104 t b l b;
#X msg 143 361 0;
#X msg 106 361 1;
#X obj 53 383 spigot 1;
#X text 121 385 AVOID FEEDBACK WHILE RECEIVING MEMORY LIST;
#X text 642 81 RECEIVE MEMORY LIST;
#X text 323 109 RECEIVE PARAMETERS DIRECTLY;
#X obj 53 109 route blx bly tlx tly trx try brx bry;
#X obj 53 270 list prepend blx;
#X obj 179 270 list prepend bly;
#X obj 315 270 list prepend tlx;
#X obj 441 270 list prepend tly;
#X obj 577 270 list prepend trx;
#X obj 703 270 list prepend try;
#X obj 839 270 list prepend brx;
#X obj 965 270 list prepend bry;
#X text 149 431 SEND NODES DATA TO 1ST INSTANCE WHEN A GEM WINDOW CHANGE
HAPPENS, f 84;
#X text 127 40 RECEIVE 1ST INSTANCE CONTROLS;
#X connect 8 0 30 0;
#X connect 9 0 13 0;
#X connect 10 0 14 0;
#X connect 11 0 15 0;
#X connect 12 0 16 0;
#X connect 13 0 31 0;
#X connect 13 1 32 0;
#X connect 14 0 33 0;
#X connect 14 1 34 0;
#X connect 15 0 35 0;
#X connect 15 1 36 0;
#X connect 16 0 37 0;
#X connect 16 1 38 0;
#X connect 17 0 18 0;
#X connect 18 0 26 0;
#X connect 19 0 8 0;
#X connect 21 0 23 0;
#X connect 22 0 0 0;
#X connect 22 1 1 0;
#X connect 22 2 2 0;
#X connect 22 3 3 0;
#X connect 22 4 4 0;
#X connect 22 5 5 0;
#X connect 22 6 6 0;
#X connect 22 7 7 0;
#X connect 23 0 25 0;
#X connect 23 1 22 0;
#X connect 23 2 24 0;
#X connect 24 0 26 1;
#X connect 25 0 26 1;
#X connect 26 0 20 0;
#X connect 30 0 0 0;
#X connect 30 1 1 0;
#X connect 30 2 2 0;
#X connect 30 3 3 0;
#X connect 30 4 4 0;
#X connect 30 5 5 0;
#X connect 30 6 6 0;
#X connect 30 7 7 0;
#X connect 30 8 21 0;
#X connect 31 0 17 0;
#X connect 32 0 17 0;
#X connect 33 0 17 0;
#X connect 34 0 17 0;
#X connect 35 0 17 0;
#X connect 36 0 17 0;
#X connect 37 0 17 0;
#X connect 38 0 17 0;
#X restore 62 54 pd COMUNICA_INTERFACE;
#X connect 1 0 20 0;
#X connect 7 0 2 0;
#X connect 8 0 7 0;
#X connect 10 0 9 0;
#X connect 11 0 9 0;
#X connect 12 0 2 0;
#X connect 13 0 9 0;
#X connect 14 0 9 0;
#X connect 15 0 9 0;
#X connect 16 0 18 1;
#X connect 17 0 19 1;
#X connect 18 0 62 0;
#X connect 19 0 62 1;
#X connect 20 0 3 0;
#X connect 20 0 82 0;
#X connect 20 1 4 0;
#X connect 20 1 83 0;
#X connect 20 2 5 0;
#X connect 20 2 85 0;
#X connect 20 3 6 0;
#X connect 20 3 86 0;
#X connect 20 4 23 0;
#X connect 21 0 1 0;
#X connect 22 0 21 0;
#X connect 22 1 21 4;
#X connect 24 0 32 0;
#X connect 26 0 31 0;
#X connect 26 1 30 0;
#X connect 27 0 26 0;
#X connect 29 0 33 0;
#X connect 29 0 36 0;
#X connect 30 0 28 0;
#X connect 31 0 28 0;
#X connect 32 0 76 0;
#X connect 33 0 44 0;
#X connect 34 0 33 0;
#X connect 34 1 44 0;
#X connect 35 0 30 0;
#X connect 37 0 32 1;
#X connect 37 0 42 1;
#X connect 37 0 45 1;
#X connect 38 0 39 0;
#X connect 39 0 12 0;
#X connect 40 0 39 0;
#X connect 40 1 12 0;
#X connect 41 0 42 0;
#X connect 41 0 43 0;
#X connect 43 0 16 0;
#X connect 43 1 17 0;
#X connect 44 0 41 0;
#X connect 44 0 82 2;
#X connect 44 0 83 2;
#X connect 44 0 86 2;
#X connect 44 0 85 2;
#X connect 45 0 48 0;
#X connect 45 0 87 0;
#X connect 46 0 18 0;
#X connect 46 1 19 0;
#X connect 47 0 46 0;
#X connect 48 0 82 1;
#X connect 48 0 83 1;
#X connect 48 0 85 1;
#X connect 48 0 86 1;
#X connect 49 0 50 0;
#X connect 50 0 33 0;
#X connect 51 0 82 3;
#X connect 52 0 82 4;
#X connect 53 0 83 3;
#X connect 54 0 83 4;
#X connect 55 0 85 3;
#X connect 56 0 85 4;
#X connect 57 0 86 3;
#X connect 58 0 86 4;
#X connect 59 0 79 0;
#X connect 60 0 59 0;
#X connect 62 0 22 0;
#X connect 62 0 37 0;
#X connect 67 0 13 0;
#X connect 68 0 14 0;
#X connect 69 0 10 0;
#X connect 70 0 11 0;
#X connect 71 0 2 1;
#X connect 72 0 2 2;
#X connect 73 0 2 3;
#X connect 74 0 2 4;
#X connect 75 0 24 0;
#X connect 75 0 45 0;
#X connect 76 0 25 0;
#X connect 77 0 40 0;
#X connect 78 0 34 0;
#X connect 80 0 47 0;
#X connect 81 0 75 0;
#X connect 82 0 21 0;
#X connect 82 1 63 0;
#X connect 83 0 21 1;
#X connect 83 1 64 0;
#X connect 85 0 21 2;
#X connect 85 1 65 0;
#X connect 86 0 21 3;
#X connect 86 1 66 0;
#X coords 0 0 1 1 350 70 0;
