#N canvas 59 119 1343 708 10;
#X obj 996 402 cnv 15 100 150 empty empty empty 20 12 0 14 -258113
-66577 0;
#N canvas 696 287 556 429 comparing 0;
#X obj 97 39 inlet;
#X obj 182 482 outlet;
#X floatatom 66 180 5 0 0 0 - - -, f 5;
#X obj 100 66 t l l;
#X obj 200 287 change;
#X obj 233 310 change;
#X obj 265 336 change;
#X obj 297 355 change;
#X obj 198 318 tgl 15 0 empty empty empty 17 7 0 10 -262144 -1 -1 0
1;
#X obj 231 343 tgl 15 0 empty empty empty 17 7 0 10 -262144 -1 -1 0
1;
#X obj 274 367 tgl 15 0 empty empty empty 17 7 0 10 -262144 -1 -1 0
1;
#X obj 305 387 tgl 15 0 empty empty empty 17 7 0 10 -262144 -1 -1 0
1;
#X obj 207 377 t b f;
#X obj 227 399 t b f;
#X obj 251 400 t b f;
#X obj 202 129 moses 1;
#X obj 237 152 moses 1;
#X obj 271 174 moses 1;
#X obj 300 197 moses 1;
#X obj 372 47 loadbang;
#X msg 364 75 0.4;
#X obj 340 224 moses 1;
#X obj 203 105 unpack f f f f f;
#X obj 341 382 change;
#X obj 349 414 tgl 15 0 empty empty empty 17 7 0 10 -262144 -1 -1 0
1;
#X obj 184 451 pack f f f f f;
#X obj 300 411 t b f;
#X obj 213 38 r reset;
#X obj 199 258 == 1;
#X obj 229 258 == 1;
#X obj 259 256 == 1;
#X obj 290 260 == 1;
#X obj 330 261 == 1;
#X obj 101 132 minmax;
#X connect 0 0 3 0;
#X connect 3 0 33 0;
#X connect 3 1 22 0;
#X connect 4 0 8 0;
#X connect 4 0 25 0;
#X connect 5 0 9 0;
#X connect 5 0 12 0;
#X connect 6 0 10 0;
#X connect 6 0 13 0;
#X connect 7 0 11 0;
#X connect 7 0 14 0;
#X connect 12 0 25 0;
#X connect 12 1 25 1;
#X connect 13 0 25 0;
#X connect 13 1 25 2;
#X connect 14 0 25 0;
#X connect 14 1 25 3;
#X connect 15 0 28 1;
#X connect 16 0 29 1;
#X connect 17 0 30 1;
#X connect 18 0 31 1;
#X connect 19 0 20 0;
#X connect 20 0 15 1;
#X connect 20 0 16 1;
#X connect 20 0 17 1;
#X connect 20 0 18 1;
#X connect 20 0 21 1;
#X connect 21 0 32 1;
#X connect 22 0 15 0;
#X connect 22 1 16 0;
#X connect 22 2 17 0;
#X connect 22 3 18 0;
#X connect 22 4 21 0;
#X connect 23 0 24 0;
#X connect 23 0 26 0;
#X connect 25 0 1 0;
#X connect 26 0 25 0;
#X connect 26 1 25 4;
#X connect 28 0 4 0;
#X connect 29 0 5 0;
#X connect 30 0 6 0;
#X connect 31 0 7 0;
#X connect 32 0 23 0;
#X connect 33 0 2 0;
#X connect 33 0 28 0;
#X connect 33 0 29 0;
#X connect 33 0 30 0;
#X connect 33 0 31 0;
#X connect 33 0 32 0;
#X restore 283 -199 pd comparing;
#X obj 1105 181 polygon 4;
#X obj 426 -154 tgl 15 0 empty empty empty 17 7 0 10 -262144 -1 -1
0 1;
#X obj 443 -154 tgl 15 0 empty empty empty 17 7 0 10 -262144 -1 -1
0 1;
#X obj 460 -154 tgl 15 0 empty empty empty 17 7 0 10 -262144 -1 -1
0 1;
#X obj 477 -154 tgl 15 0 empty empty empty 17 7 0 10 -262144 -1 -1
0 1;
#X msg 1019 164 draw line;
#X obj 1019 137 loadbang;
#X obj 1008 495 curve3d 1 1;
#X msg 833 357 set 1 1 \$1 \$2 \$3;
#X msg 860 330 set 1 0 \$1 \$2 \$3;
#X obj 1105 36 gemhead 6;
#X msg 778 411 set 0 0 \$1 \$2 \$3;
#X msg 807 384 set 0 1 \$1 \$2 \$3;
#X obj 1008 441 inlet;
#X obj 76 -20 f;
#X obj 133 -22 f;
#X obj 61 9 -;
#X obj 118 11 -;
#X obj 283 -171 unpack f f f f f;
#X obj 61 317 pack f f f f f;
#X obj 61 246 t b f;
#X obj 494 -154 tgl 15 0 empty empty empty 17 7 0 10 -262144 -1 -1
0 1;
#X obj 129 416 sel 1;
#X obj 179 550 s select;
#X obj 460 -349 sel \$0;
#X obj 460 -394 r select;
#X obj 460 -274 s \$0-sel;
#X obj 631 -393 r \$0-sel;
#X msg 493 -324 0;
#X msg 460 -323 1;
#X obj 179 453 spigot 0;
#X obj 713 -294 f;
#X obj 736 -334 sel 1;
#X obj 541 -341 r reset;
#X obj 631 -359 tgl 15 0 empty empty empty 17 7 0 10 -262144 -1 -1
0 1;
#X obj 224 87 < 0.3;
#X obj 1105 -88 r \$0-sel;
#X obj 1105 9 f;
#X obj 1124 -27 sel 1;
#N canvas 718 68 496 568 stred 0;
#X obj 154 167 armoire/stred_bodov;
#X obj 215 231 armoire/stred_bodov;
#X obj 154 298 armoire/stred_bodov;
#X obj 154 344 unpack f f;
#X obj 131 395 translateXYZ;
#X msg 152 447 draw line;
#X obj 131 485 circle 0.08;
#X obj 154 426 loadbang;
#X obj 30 378 gemhead 20;
#X obj 30 236 inlet;
#X obj 383 316 outlet;
#X obj 154 44 r \$0-BG;
#X obj 215 44 r \$0-HG;
#X obj 265 44 r \$0-HD;
#X obj 326 44 r \$0-BD;
#X connect 0 0 2 0;
#X connect 1 0 2 1;
#X connect 2 0 3 0;
#X connect 2 0 10 0;
#X connect 3 0 4 1;
#X connect 3 1 4 2;
#X connect 4 0 6 0;
#X connect 5 0 6 0;
#X connect 7 0 5 0;
#X connect 8 0 4 0;
#X connect 9 0 8 0;
#X connect 11 0 0 0;
#X connect 12 0 1 0;
#X connect 13 0 0 1;
#X connect 14 0 1 1;
#X restore 212 -210 pd stred;
#N canvas 376 303 593 461 graphique_center 0;
#X obj -428 -292 inlet;
#X obj -428 -270 unpack f f;
#X obj -96 -224 inlet;
#X obj -193 -191 translateXYZ;
#X obj -193 -94 circle 0.03;
#X obj -243 35 translateXYZ;
#X obj -243 98 circle 0.08;
#X obj -96 -188 sel 0 1;
#X msg -96 -145 0.03;
#X msg -77 -111 0.045;
#X obj -137 -16 r \$0-sel;
#X obj -137 11 sel 0 1;
#X msg -118 81 0.1;
#X msg -137 38 0.07;
#X obj -193 -218 gemhead 100;
#X obj -243 6 color 1 0 0;
#X obj -243 -29 gemhead 100;
#X obj -193 -148 color 1 0 0;
#X obj -243 -285 r \$0-vertex_switch;
#X connect 0 0 1 0;
#X connect 1 0 3 1;
#X connect 1 0 5 1;
#X connect 1 1 3 2;
#X connect 1 1 5 2;
#X connect 2 0 7 0;
#X connect 3 0 17 0;
#X connect 5 0 6 0;
#X connect 7 0 8 0;
#X connect 7 1 9 0;
#X connect 8 0 4 1;
#X connect 9 0 4 1;
#X connect 10 0 11 0;
#X connect 11 0 13 0;
#X connect 11 1 12 0;
#X connect 12 0 6 1;
#X connect 13 0 6 1;
#X connect 14 0 3 0;
#X connect 15 0 5 0;
#X connect 16 0 15 0;
#X connect 17 0 4 0;
#X connect 18 0 14 0;
#X connect 18 0 16 0;
#X restore 212 5 pd graphique_center;
#X obj 76 -57 unpack f f;
#X obj 763 -227 f;
#X obj 293 477 &&;
#X obj 61 -86 unpack f f;
#X obj 61 -118 route position;
#N canvas 446 177 450 300 relativer 0;
#X obj 223 177 f;
#X obj 195 252 -;
#X obj 271 176 f;
#X obj 250 247 -;
#X obj 199 134 unpack f f;
#X obj 148 43 route position b1;
#X obj 324 37 inlet;
#X obj 324 68 sel 1;
#X obj 310 105 t b b;
#X obj 205 283 pack f f;
#X obj 206 326 outlet;
#X obj 145 211 spigot 0;
#X obj 249 217 spigot 0;
#X obj 148 21 r \$0-gmouse;
#X connect 0 0 1 1;
#X connect 1 0 9 0;
#X connect 2 0 3 1;
#X connect 3 0 9 1;
#X connect 4 0 0 1;
#X connect 4 0 11 0;
#X connect 4 1 2 1;
#X connect 4 1 12 0;
#X connect 5 0 4 0;
#X connect 6 0 7 0;
#X connect 6 0 11 1;
#X connect 6 0 12 1;
#X connect 7 0 8 0;
#X connect 7 0 10 0;
#X connect 8 0 0 0;
#X connect 8 1 2 0;
#X connect 9 0 10 0;
#X connect 11 0 1 0;
#X connect 12 0 3 0;
#X connect 13 0 5 0;
#X restore 519 547 pd relativer;
#X obj 713 -402 r select_none;
#X msg 713 -380 0;
#X obj 388 18 r \$0-init-X-BG;
#X obj 424 -13 r \$0-init-Y-BG;
#X obj 542 12 r \$0-init-X-HG;
#X obj 578 -15 r \$0-init-Y-HG;
#X obj 702 13 r \$0-init-X-HD;
#X obj 738 -14 r \$0-init-Y-HD;
#X obj 860 19 r \$0-init-X-BD;
#X obj 896 -8 r \$0-init-Y-BD;
#X obj 62 -247 tgl 15 0 empty empty empty 17 7 0 10 -262144 -1 -1 0
1;
#N canvas 391 199 677 502 mousposition 0;
#X obj 443 300 translateXYZ;
#X obj 379 73 s cur_pos_x;
#X obj 485 74 s cur_pos_y;
#X obj 442 323 circle 0.04;
#X obj 322 285 circle 0.08;
#X obj 326 221 color 0 0 1;
#X obj 322 256 translateXYZ;
#X obj 339 196 gemhead 30;
#X obj 455 249 gemhead 31;
#X obj 458 272 color 0 0 0;
#X obj -14 270 t b;
#X obj -13 354 change;
#X msg -14 331 1;
#X msg 20 331 0;
#X obj -11 430 s gemwin;
#X msg -15 395 cursor \$1;
#X obj 5 308 delay 3000;
#X obj 108 406 outlet;
#X obj 219 0 gemmouse 1 1;
#X obj 170 76 pack f f;
#X obj 160 160 list append;
#X obj 169 107 t b l;
#X msg 159 137 position;
#X obj 257 160 list append;
#X msg 256 137 b1;
#X obj 271 75 t b f;
#X obj 237 23 expr ($f1*-2+1)*4;
#X obj 171 46 expr ($f1*2-1)*5.33;
#X obj 193 200 route list;
#X text 201 411 video_ext is dependent of this in case you want to
control cursor in different way;
#X obj 193 443 s \$0-gmouse;
#X obj 193 338 spigot 1;
#X obj 13 145 tgl 30 0 empty empty empty 17 7 0 10 -232576 -1 -1 0
1;
#X obj 108 338 sel 0 1;
#X msg 108 367 0;
#X msg 138 367 1;
#X text 47 149 Edit;
#X obj 22 89 loadbang;
#X obj 271 381 s select;
#X obj 271 338 \$0;
#X msg 43 113 1;
#X msg 13 113 0;
#X obj 271 316 sel 1;
#X obj 108 253 t f f f;
#X obj 13 8 r CANAL_MAP;
#X obj 13 34 route map\$1;
#X obj 13 56 route edit;
#X obj 455 158 loadbang;
#X msg 455 179 0;
#X connect 0 0 3 0;
#X connect 5 0 6 0;
#X connect 6 0 4 0;
#X connect 7 0 5 0;
#X connect 8 0 9 0;
#X connect 9 0 0 0;
#X connect 10 0 12 0;
#X connect 10 0 16 0;
#X connect 11 0 8 0;
#X connect 11 0 7 0;
#X connect 11 0 15 0;
#X connect 12 0 11 0;
#X connect 13 0 11 0;
#X connect 15 0 14 0;
#X connect 16 0 13 0;
#X connect 18 0 27 0;
#X connect 18 1 26 0;
#X connect 18 2 25 0;
#X connect 19 0 21 0;
#X connect 20 0 28 0;
#X connect 21 0 22 0;
#X connect 21 0 10 0;
#X connect 21 1 20 1;
#X connect 22 0 20 0;
#X connect 23 0 28 0;
#X connect 24 0 23 0;
#X connect 25 0 24 0;
#X connect 25 1 23 1;
#X connect 26 0 19 1;
#X connect 26 0 2 0;
#X connect 26 0 6 2;
#X connect 26 0 0 2;
#X connect 27 0 19 0;
#X connect 27 0 1 0;
#X connect 27 0 6 1;
#X connect 27 0 0 1;
#X connect 28 0 31 0;
#X connect 31 0 30 0;
#X connect 32 0 43 0;
#X connect 33 0 34 0;
#X connect 33 1 35 0;
#X connect 34 0 17 0;
#X connect 35 0 17 0;
#X connect 37 0 41 0;
#X connect 39 0 38 0;
#X connect 40 0 32 0;
#X connect 41 0 32 0;
#X connect 42 0 39 0;
#X connect 43 0 33 0;
#X connect 43 1 31 1;
#X connect 43 2 42 0;
#X connect 44 0 45 0;
#X connect 45 0 46 0;
#X connect 46 0 32 0;
#X connect 47 0 48 0;
#X connect 48 0 7 0;
#X connect 48 0 8 0;
#X restore 62 -299 pd mousposition;
#X text 80 -247 display help points;
#X obj 61 70 armoire/pytagoras;
#X obj 424 121 s \$0-BG;
#X obj 578 121 s \$0-HG;
#X obj 738 121 s \$0-HD;
#X obj 896 120 s \$0-BD;
#X obj 778 222 r \$0-BG;
#X obj 807 249 r \$0-HG;
#X obj 833 276 r \$0-HD;
#X obj 860 303 r \$0-BD;
#X obj 1117 73 r \$0-BG;
#X obj 1130 100 r \$0-HG;
#X obj 1143 127 r \$0-HD;
#X obj 1156 154 r \$0-BD;
#X obj 129 389 route b1;
#X obj 179 477 \$0;
#X obj 1124 -58 r \$0-vertex_switch;
#X obj 736 -356 r \$0-vertex_switch;
#X obj 62 -176 s \$0-vertex_switch;
#X obj 61 -147 r \$0-gmouse;
#X obj 129 367 r \$0-gmouse;
#X obj 283 78 armoire/vertex 0 0 \$1 \$0;
#X obj 437 78 armoire/vertex 0 0 \$1 \$0;
#X obj 424 -13 r \$0-init-Y-BG;
#X obj 597 78 armoire/vertex 0 0 \$1 \$0;
#X obj 755 78 armoire/vertex 0 0 \$1 \$0;
#X obj 277 501 tgl 15 0 empty empty empty 17 7 0 10 -262144 -1 -1 0
1;
#N canvas 377 185 917 415 COMUNICA_INTERFACE 0;
#X obj 23 126 s \$0-init-X-BG;
#X obj 23 149 s \$0-init-Y-BG;
#X obj 125 126 s \$0-init-X-HG;
#X obj 125 149 s \$0-init-Y-HG;
#X obj 227 126 s \$0-init-X-HD;
#X obj 227 149 s \$0-init-Y-HD;
#X obj 329 126 s \$0-init-X-BD;
#X obj 329 149 s \$0-init-Y-BD;
#X obj 23 32 r CANAL_MAP;
#X obj 23 62 route map\$1;
#X obj 23 92 route bex bey aex aey adx ady bdx bdy;
#X obj 22 217 r \$0-BG;
#X obj 242 217 r \$0-HG;
#X obj 462 217 r \$0-HD;
#X obj 682 217 r \$0-BD;
#X obj 22 241 unpack f f;
#X obj 22 271 list prepend bex;
#X obj 132 271 list prepend bey;
#X obj 242 241 unpack f f;
#X obj 462 241 unpack f f;
#X obj 682 241 unpack f f;
#X obj 242 271 list prepend aex;
#X obj 352 271 list prepend aey;
#X obj 462 271 list prepend adx;
#X obj 572 271 list prepend ady;
#X obj 682 271 list prepend bdx;
#X obj 792 271 list prepend bdy;
#X obj 22 312 list prepend map\$1;
#X obj 22 362 s CANAL_MAP_FB;
#X obj 22 332 list trim;
#X connect 8 0 9 0;
#X connect 9 0 10 0;
#X connect 10 0 0 0;
#X connect 10 1 1 0;
#X connect 10 2 2 0;
#X connect 10 3 3 0;
#X connect 10 4 4 0;
#X connect 10 5 5 0;
#X connect 10 6 6 0;
#X connect 10 7 7 0;
#X connect 11 0 15 0;
#X connect 12 0 18 0;
#X connect 13 0 19 0;
#X connect 14 0 20 0;
#X connect 15 0 16 0;
#X connect 15 1 17 0;
#X connect 16 0 27 0;
#X connect 17 0 27 0;
#X connect 18 0 21 0;
#X connect 18 1 22 0;
#X connect 19 0 23 0;
#X connect 19 1 24 0;
#X connect 20 0 25 0;
#X connect 20 1 26 0;
#X connect 21 0 27 0;
#X connect 22 0 27 0;
#X connect 23 0 27 0;
#X connect 24 0 27 0;
#X connect 25 0 27 0;
#X connect 26 0 27 0;
#X connect 27 0 29 0;
#X connect 29 0 28 0;
#X restore 62 -367 pd COMUNICA_INTERFACE;
#X connect 1 0 20 0;
#X connect 7 0 2 0;
#X connect 8 0 7 0;
#X connect 10 0 9 0;
#X connect 11 0 9 0;
#X connect 12 0 2 0;
#X connect 13 0 9 0;
#X connect 14 0 9 0;
#X connect 15 0 9 0;
#X connect 16 0 18 1;
#X connect 17 0 19 1;
#X connect 18 0 62 0;
#X connect 19 0 62 1;
#X connect 20 0 3 0;
#X connect 20 0 82 0;
#X connect 20 1 4 0;
#X connect 20 1 83 0;
#X connect 20 2 5 0;
#X connect 20 2 85 0;
#X connect 20 3 6 0;
#X connect 20 3 86 0;
#X connect 20 4 23 0;
#X connect 21 0 1 0;
#X connect 22 0 21 0;
#X connect 22 1 21 4;
#X connect 24 0 32 0;
#X connect 26 0 31 0;
#X connect 26 1 30 0;
#X connect 27 0 26 0;
#X connect 29 0 33 0;
#X connect 29 0 36 0;
#X connect 30 0 28 0;
#X connect 31 0 28 0;
#X connect 32 0 76 0;
#X connect 33 0 44 0;
#X connect 34 0 33 0;
#X connect 34 1 44 0;
#X connect 35 0 30 0;
#X connect 37 0 32 1;
#X connect 37 0 42 1;
#X connect 37 0 45 1;
#X connect 38 0 39 0;
#X connect 39 0 12 0;
#X connect 40 0 39 0;
#X connect 40 1 12 0;
#X connect 41 0 42 0;
#X connect 41 0 43 0;
#X connect 43 0 16 0;
#X connect 43 1 17 0;
#X connect 44 0 41 0;
#X connect 44 0 82 2;
#X connect 44 0 83 2;
#X connect 44 0 86 2;
#X connect 44 0 85 2;
#X connect 45 0 48 0;
#X connect 45 0 87 0;
#X connect 46 0 18 0;
#X connect 46 1 19 0;
#X connect 47 0 46 0;
#X connect 48 0 82 1;
#X connect 48 0 83 1;
#X connect 48 0 85 1;
#X connect 48 0 86 1;
#X connect 49 0 50 0;
#X connect 50 0 33 0;
#X connect 51 0 82 3;
#X connect 52 0 82 4;
#X connect 53 0 83 3;
#X connect 54 0 83 4;
#X connect 55 0 85 3;
#X connect 56 0 85 4;
#X connect 57 0 86 3;
#X connect 58 0 86 4;
#X connect 59 0 79 0;
#X connect 60 0 59 0;
#X connect 62 0 22 0;
#X connect 62 0 37 0;
#X connect 67 0 13 0;
#X connect 68 0 14 0;
#X connect 69 0 10 0;
#X connect 70 0 11 0;
#X connect 71 0 2 1;
#X connect 72 0 2 2;
#X connect 73 0 2 3;
#X connect 74 0 2 4;
#X connect 75 0 24 0;
#X connect 75 0 45 0;
#X connect 76 0 25 0;
#X connect 77 0 40 0;
#X connect 78 0 34 0;
#X connect 80 0 47 0;
#X connect 81 0 75 0;
#X connect 82 0 21 0;
#X connect 82 1 63 0;
#X connect 83 0 21 1;
#X connect 83 1 64 0;
#X connect 85 0 21 2;
#X connect 85 1 65 0;
#X connect 86 0 21 3;
#X connect 86 1 66 0;
#X coords 0 0 1 1 350 70 0;
