#N canvas 232 54 889 694 16;
#X obj 43 106 list fromsymbol;
#X obj 263 186 list split 1;
#X obj 321 217 list;
#X obj 290 443 f;
#X obj 332 443 + 1;
#X obj 43 541 list split;
#X obj 140 186 list length;
#X obj 140 500 -;
#X obj 91 595 list tosymbol;
#X obj 43 30 inlet PATH;
#X obj 43 72 symbol;
#X msg 317 411 1;
#X obj 263 256 sel 47;
#X obj 290 371 spigot;
#X msg 392 338 0;
#X msg 347 338 1;
#X obj 263 285 t b b;
#X obj 263 476 f;
#X obj 330 285 t b;
#X obj 43 140 t l l l b b;
#X text 342 255 PROCURA PELO CARACTERE 47 "/";
#X text 379 444 CONTA QUANTOS CARACTERES ATÉ A PRIMEIRA "/";
#X text 400 186 DESEMPACOTA LISTA 1 POR 1;
#X text 186 501 DIMINUI DO TOTAL DE CARACTERES PARA DEFINIR PONTO DE
CORTE DO PATH, f 66;
#X text 238 596 CONVERTE LISTA DE CARACTERES ASCII DEVOLTA PARA SYMBOL
;
#X text 158 541 SEPARA CONJUNTO DE CARACTERES ATÉ A PRIMEIRA "/" DO
PATH INTEIRO, f 64;
#X text 367 370 TERMINA CONTAGEM QUANDO ACHA A PRIMEIRA "/" DO FIM
PRO COMEÇO, f 43;
#X obj 91 643 outlet FILENAME;
#X text 208 106 CONVERTE PRA LISTA DE CARACTERES ASCII;
#X text 254 16 ** SEPARA NOME DE ARQUIVO DO CAMINHO COMPLETO;
#X connect 0 0 19 0;
#X connect 1 0 12 0;
#X connect 1 1 2 0;
#X connect 2 0 1 0;
#X connect 3 0 4 0;
#X connect 3 0 17 1;
#X connect 4 0 3 1;
#X connect 5 1 8 0;
#X connect 6 0 7 0;
#X connect 7 0 5 1;
#X connect 8 0 27 0;
#X connect 9 0 10 0;
#X connect 10 0 0 0;
#X connect 11 0 3 1;
#X connect 12 0 16 0;
#X connect 12 1 18 0;
#X connect 13 0 3 0;
#X connect 14 0 13 1;
#X connect 15 0 13 1;
#X connect 16 0 17 0;
#X connect 16 1 14 0;
#X connect 17 0 7 1;
#X connect 18 0 13 0;
#X connect 19 0 5 0;
#X connect 19 1 6 0;
#X connect 19 2 1 0;
#X connect 19 3 11 0;
#X connect 19 4 15 0;
