#N canvas 162 86 557 155 16;
#X obj 80 30 cnv 15 185 62 empty empty empty 20 12 0 14 -228856 -66577
0;
#X obj 83 30 hsl 180 20 0 1 0 0 \$0-click_enable \$0-click_enable_in
empty -2 -8 0 10 -262144 -1 -1 0 1;
#X obj 80 30 cnv 15 185 20 \$0-enable \$0-enable_in empty 20 12 0 14
-128992 -262144 0;
#X obj 142 61 hradio 20 1 0 3 \$0-cam_select \$0-cam_select_in cam
-30 10 0 12 -262144 -1 -1 0;
#N canvas 471 101 621 594 camera_preview 0;
#X obj 55 529 rectangle 4 3;
#X obj 55 294 pix_texture;
#X obj 55 412 translateXYZ 0 0 0;
#N canvas 415 298 323 202 trans 0;
#X obj 42 33 loadbang;
#X obj 42 61 f \$1;
#X obj 42 145 outlet;
#X obj 42 88 sel 1 2 3 4;
#X msg 42 115 3;
#X msg 73 115 1;
#X msg 103 115 -1;
#X msg 133 115 -3;
#X connect 0 0 1 0;
#X connect 1 0 3 0;
#X connect 3 0 4 0;
#X connect 3 1 5 0;
#X connect 3 2 6 0;
#X connect 3 3 7 0;
#X connect 4 0 2 0;
#X connect 5 0 2 0;
#X connect 6 0 2 0;
#X connect 7 0 2 0;
#X restore 173 383 pd trans;
#X obj 55 456 scale 0.3;
#X obj 55 219 pix_share_read 10 640 480 RGBA;
#X obj 55 340 rotateXYZ 0 0 0;
#X obj 431 26 r CH\$1_SELECT;
#X obj 55 67 tgl 25 0 empty empty empty 17 7 0 10 -262144 -1 -1 0 1
;
#X obj 431 91 s \$0-on;
#X obj 55 26 r \$0-on;
#X obj 431 58 == 3;
#N canvas 257 150 989 463 CAM_SELECT 0;
#X obj 45 375 outlet;
#X obj 45 29 r \$0-cam_select;
#X msg 45 270 set 10 640 480 RGBA;
#X text 255 269 cam 1;
#X text 344 309 cam 2;
#X text 434 349 cam 3;
#X msg 134 310 set 11 640 480 RGBA;
#X msg 224 350 set 12 640 480 RGBA;
#X obj 134 190 spigot;
#X obj 191 159 == 2;
#X obj 224 190 spigot;
#X obj 281 159 == 3;
#X obj 45 112 sel 0 1 2;
#X obj 281 118 r NR_DEVICES;
#X obj 528 399 s CANAL_C;
#X obj 45 231 t b b;
#X obj 134 231 t b b;
#X obj 224 231 t b b;
#X msg 528 256 1;
#X msg 578 256 2;
#X msg 628 256 3;
#X obj 206 29 loadbang;
#X msg 206 87 0;
#X obj 528 348 list prepend C\$1;
#X obj 528 318 list prepend cam_sel;
#X obj 755 399 s CH\$1_PRESET;
#X obj 755 281 f 1;
#X obj 755 318 list prepend camera;
#X obj 755 189 r CH\$1_FLUSH;
#X obj 755 219 t b;
#X obj 755 348 list trim;
#X obj 528 27 r MAIN_PRESET_SEND;
#X obj 528 57 route \$1;
#X obj 528 87 route camera;
#X connect 1 0 12 0;
#X connect 2 0 0 0;
#X connect 6 0 0 0;
#X connect 7 0 0 0;
#X connect 8 0 16 0;
#X connect 9 0 8 1;
#X connect 10 0 17 0;
#X connect 11 0 10 1;
#X connect 12 0 15 0;
#X connect 12 1 8 0;
#X connect 12 2 10 0;
#X connect 13 0 9 0;
#X connect 13 0 11 0;
#X connect 15 0 2 0;
#X connect 15 1 18 0;
#X connect 16 0 6 0;
#X connect 16 1 19 0;
#X connect 17 0 7 0;
#X connect 17 1 20 0;
#X connect 18 0 24 0;
#X connect 18 0 26 1;
#X connect 19 0 24 0;
#X connect 19 0 26 1;
#X connect 20 0 24 0;
#X connect 20 0 26 1;
#X connect 21 0 22 0;
#X connect 22 0 12 0;
#X connect 23 0 14 0;
#X connect 24 0 23 0;
#X connect 26 0 27 0;
#X connect 27 0 30 0;
#X connect 28 0 29 0;
#X connect 29 0 26 0;
#X connect 30 0 25 0;
#X connect 31 0 32 0;
#X connect 32 0 33 0;
#X connect 33 0 12 0;
#X restore 88 172 pd CAM_SELECT;
#X obj 195 51 list prepend render;
#X obj 195 81 list prepend C\$1;
#X obj 195 111 s CANAL_C;
#X obj 55 116 gemhead \$1;
#N canvas 818 204 296 433 proporcao 0;
#X obj 44 375 outlet;
#X obj 163 375 outlet;
#X obj 44 33 r \$0-tam;
#X obj 44 187 unpack f f;
#X obj 44 219 /;
#X obj 44 343 * 3;
#X obj 163 344 * 3;
#X obj 163 288 t b f f;
#X obj 163 33 inlet;
#X floatatom 91 146 5 0 0 0 - - -, f 5;
#X floatatom 188 146 5 0 0 0 - - -, f 5;
#X obj 44 252 pack f 1;
#X obj 91 116 unpack f f;
#X obj 44 280 unpack f f;
#X obj 44 86 t l l;
#X connect 2 0 14 0;
#X connect 3 0 4 0;
#X connect 3 1 4 1;
#X connect 4 0 11 0;
#X connect 5 0 0 0;
#X connect 6 0 1 0;
#X connect 7 0 6 0;
#X connect 7 0 5 0;
#X connect 7 1 5 1;
#X connect 7 2 6 1;
#X connect 8 0 7 0;
#X connect 11 0 13 0;
#X connect 12 0 9 0;
#X connect 12 1 10 0;
#X connect 13 0 5 0;
#X connect 13 1 6 0;
#X connect 14 0 3 0;
#X connect 14 1 12 0;
#X restore 118 499 pd proporcao;
#N canvas 678 345 339 322 info 0;
#X obj 61 33 inlet;
#X obj 61 73 t a a;
#X obj 61 262 outlet;
#X obj 160 129 change;
#X obj 237 129 change;
#X obj 149 98 pix_info;
#X obj 160 190 pack f f;
#X obj 160 220 s \$0-tam;
#X obj 237 157 t b f;
#X connect 0 0 1 0;
#X connect 1 0 2 0;
#X connect 1 1 5 0;
#X connect 3 0 6 0;
#X connect 4 0 8 0;
#X connect 5 1 3 0;
#X connect 5 2 4 0;
#X connect 6 0 7 0;
#X connect 8 0 6 0;
#X connect 8 1 6 1;
#X restore 55 255 pd info;
#X connect 1 0 6 0;
#X connect 2 0 4 0;
#X connect 3 0 2 2;
#X connect 4 0 0 0;
#X connect 5 0 18 0;
#X connect 6 0 2 0;
#X connect 7 0 11 0;
#X connect 8 0 16 0;
#X connect 10 0 8 0;
#X connect 10 0 13 0;
#X connect 11 0 9 0;
#X connect 12 0 5 0;
#X connect 13 0 14 0;
#X connect 14 0 15 0;
#X connect 16 0 5 0;
#X connect 17 0 0 1;
#X connect 17 1 0 2;
#X connect 18 0 1 0;
#X restore 314 62 pd camera_preview;
#N canvas 721 231 558 467 enable_button 0;
#X obj 50 62 t b;
#X obj 50 153 f;
#X obj 90 153 + 1;
#X obj 50 181 % 2;
#X floatatom 50 215 5 0 0 0 - - -, f 5;
#X obj 117 67 loadbang;
#X obj 50 28 r \$0-click_enable;
#N canvas 667 215 447 276 color 0;
#X obj 45 41 inlet;
#X obj 45 96 sel 0 1;
#X obj 45 207 s \$0-enable_in;
#X obj 165 121 f 13;
#X msg 165 158 color \$1 0;
#X msg 45 158 color 11 0;
#X obj 202 89 r \$0-channel_color;
#X connect 0 0 1 0;
#X connect 1 0 5 0;
#X connect 1 1 3 0;
#X connect 3 0 4 0;
#X connect 4 0 2 0;
#X connect 5 0 2 0;
#X connect 6 0 3 1;
#X restore 50 336 pd color;
#X obj 157 274 sel 1;
#X obj 327 28 r CH\$1_SELECT;
#X obj 157 336 s CH\$1_SELECT;
#X obj 117 96 del 10;
#X msg 374 128 0;
#X obj 327 62 sel 3;
#X msg 62 121 0;
#X obj 307 336 s \$0-on;
#X msg 307 304 0;
#X obj 50 249 t f f f;
#X obj 408 336 s ON_CAM\$1;
#X obj 408 274 t f;
#X obj 157 375 list prepend ch\$1_select;
#X obj 157 405 s CANAL_SEL;
#X msg 157 304 3;
#X obj 208 237 s C\$1_ST;
#X obj 208 128 r C\$1_SET_ST;
#X connect 0 0 1 0;
#X connect 1 0 3 0;
#X connect 2 0 1 1;
#X connect 3 0 2 0;
#X connect 3 0 4 0;
#X connect 4 0 17 0;
#X connect 4 0 23 0;
#X connect 5 0 11 0;
#X connect 6 0 0 0;
#X connect 8 0 22 0;
#X connect 8 1 16 0;
#X connect 9 0 13 0;
#X connect 11 0 14 0;
#X connect 12 0 1 0;
#X connect 13 1 12 0;
#X connect 14 0 1 0;
#X connect 16 0 15 0;
#X connect 17 0 7 0;
#X connect 17 1 8 0;
#X connect 17 2 19 0;
#X connect 19 0 18 0;
#X connect 20 0 21 0;
#X connect 22 0 10 0;
#X connect 22 0 20 0;
#X connect 24 0 1 0;
#X restore 314 24 pd enable_button;
#N canvas 626 219 701 275 channel_color 0;
#X obj 69 71 f \$1;
#X obj 69 107 sel 1 2 3 4;
#X msg 69 144 13;
#X msg 218 144 16;
#X msg 119 144 15;
#X obj 69 35 loadbang;
#X obj 69 209 s \$0-channel_color;
#X obj 279 209 s \$0-bg_color;
#X obj 439 209 s \$0-bg_color2;
#X msg 439 144 1;
#X msg 279 144 28;
#X msg 169 144 19;
#X connect 0 0 1 0;
#X connect 1 0 2 0;
#X connect 1 1 4 0;
#X connect 1 2 11 0;
#X connect 1 3 3 0;
#X connect 2 0 6 0;
#X connect 3 0 6 0;
#X connect 4 0 6 0;
#X connect 5 0 0 0;
#X connect 5 0 10 0;
#X connect 5 0 9 0;
#X connect 9 0 8 0;
#X connect 10 0 7 0;
#X connect 11 0 6 0;
#X restore 314 101 pd channel_color;
#X coords 0 -1 1 1 185 62 2 80 30;
