#N canvas 274 75 617 598 16;
#X obj 81 184 list split 1;
#X obj 165 218 list;
#X obj 81 218 t b s;
#X obj 238 312 list length;
#X obj 81 414 list prepend;
#X obj 81 478 list;
#X obj 48 512 list;
#X obj 81 446 list append;
#X obj 48 150 t b l b;
#X obj 48 106 inlet ARRAY_LIST;
#X obj 48 554 outlet LIST;
#X text 60 21 ** COLETA ARRAYS E DEVOLVE LISTA DOS CONTEÚDOS SEPARADOS
POR PREFIXOS COM O NÚMERO DE ELEMENTOS \, PARA [arrast_arrayunpack]
, f 49;
#X text 188 256 RECEBE VALORES DOS ARRAYS;
#X text 366 312 NÚMERO DE ELEMENTOS;
#X text 219 185 UM ARRAY DE CADA VEZ;
#X text 228 107 ENTRADA PARA LISTA DE ARRAYS;
#X text 219 218 LOOP;
#X obj 81 254 array get;
#X obj 81 288 t l b l;
#X obj 238 346 t f f;
#X obj 228 414 del 10;
#X text 303 416 CALCULA ATRASO DE SEGURANÇA;
#X obj 285 380 / 2000;
#X connect 0 0 2 0;
#X connect 0 1 1 1;
#X connect 1 0 0 0;
#X connect 2 0 17 0;
#X connect 2 1 17 2;
#X connect 3 0 19 0;
#X connect 4 0 7 0;
#X connect 5 0 6 1;
#X connect 5 0 7 1;
#X connect 6 0 10 0;
#X connect 7 0 5 0;
#X connect 8 0 6 0;
#X connect 8 1 0 0;
#X connect 8 2 7 1;
#X connect 9 0 8 0;
#X connect 17 0 18 0;
#X connect 18 0 4 0;
#X connect 18 1 20 0;
#X connect 18 2 3 0;
#X connect 19 0 4 1;
#X connect 19 1 22 0;
#X connect 20 0 1 0;
#X connect 22 0 20 1;
