#N canvas 793 123 510 272 16;
#X obj 50 30 cnv 15 185 200 empty empty empty 20 12 0 14 -228856 -66577
0;
#X obj 61 61 hradio 18 1 0 9 \$0-openBrowser \$0-openBrowser_in empty
0 -8 0 10 -262144 -1 -1 1;
#X obj 63 153 hsl 160 8 0 728 0 0 \$0-morto \$0-timeline empty -2 -8
0 10 -1 -262144 -1 6006 1;
#X obj 181 110 nbx 4 12 -1e+37 1e+37 0 0 \$0-morto \$0-secDisplay empty
0 -8 0 10 -1 -262144 -1 0.9 256;
#X obj 63 166 hsl 160 10 1 0 0 0 \$0-speed_gui \$0-speed_gui_set empty
-2 -8 0 10 -262144 -1 -1 7950 1;
#X obj 141 191 bng 25 250 50 0 \$0-stop_gui \$0-stop_gui_set S 8 13
0 18 -143491 -258113 -262144;
#X obj 210 191 vradio 12 1 0 2 \$0-loopMode_gui \$0-loopMode_gui_set
empty 0 -8 0 10 -355 -262144 -262144 0;
#X obj 95 189 bng 12 250 50 0 \$0-rw_gui \$0-rw_gui_set RW 16 6 0 10
-13381 -4034 -1;
#X obj 95 206 tgl 12 0 \$0-inv_gui \$0-inv_gui_set INV 16 6 0 10 -13381
-4034 -1 0 1;
#X obj 139 176 bng 8 250 50 0 \$0-resetSpeed \$0-resetSpeed_in empty
17 7 0 10 -162280 -1 -1;
#X obj 60 61 cnv 15 165 18 \$0-morto \$0-fileDisplay butoh-teatro.mov
5 9 0 12 -355 -262144 0;
#X text 97 170 ';
#X text 177 170 ';
#N canvas 308 218 692 141 select_slot 0;
#X obj 105 53 bng 15 250 50 0 \$0-clickSlot1 \$0-clickSlot1_set empty
17 7 0 10 -262144 -1 -1;
#X msg 500 53 color \$1;
#N canvas 108 190 411 304 BROWSE_FILE 0;
#X obj 44 121 t b;
#X obj 44 187 openpanel;
#X obj 44 155 symbol Videos/;
#X obj 44 234 s \$0-slotFileIn;
#X obj 44 91 r \$0-openBrowser;
#X text 210 234 ENVIA PARA SLOTS;
#X text 50 21 ** CHAMA JANELA DE ABERTURA DE ARQUIVO A PARTIR DA INTERFACE
, f 30;
#X connect 0 0 2 0;
#X connect 1 0 3 0;
#X connect 2 0 1 0;
#X connect 4 0 0 0;
#X restore 304 53 pd BROWSE_FILE;
#X obj 500 21 r \$0-bgColor;
#X obj 500 84 s \$0-slotsBG;
#X obj 125 53 bng 15 250 50 0 \$0-clickSlot2 \$0-clickSlot2_set empty
17 7 0 10 -262144 -1 -1;
#X obj 145 53 bng 15 250 50 0 \$0-clickSlot3 \$0-clickSlot3_set empty
17 7 0 10 -262144 -1 -1;
#X obj 165 53 bng 15 250 50 0 \$0-clickSlot4 \$0-clickSlot4_set empty
17 7 0 10 -262144 -1 -1;
#X obj 185 53 bng 15 250 50 0 \$0-clickSlot5 \$0-clickSlot5_set empty
17 7 0 10 -262144 -1 -1;
#X obj 205 53 bng 15 250 50 0 \$0-clickSlot6 \$0-clickSlot6_set empty
17 7 0 10 -262144 -1 -1;
#X obj 225 53 bng 15 250 50 0 \$0-clickSlot7 \$0-clickSlot7_set empty
17 7 0 10 -262144 -1 -1;
#X obj 245 53 bng 15 250 50 0 \$0-clickSlot8 \$0-clickSlot8_set empty
17 7 0 10 -262144 -1 -1;
#X obj 100 50 cnv 15 165 21 empty \$0-slotsBG empty 20 12 0 14 -355
-262144 0;
#X obj 105 53 cnv 15 15 15 empty \$0-colorSlot1 1 4 8 0 12 -24198 -1
0;
#X obj 125 53 cnv 15 15 15 empty \$0-colorSlot2 2 4 8 0 12 -166441
-1 0;
#X obj 145 53 cnv 15 15 15 empty \$0-colorSlot3 3 4 8 0 12 -262144
-1 0;
#X obj 165 53 cnv 15 15 15 empty \$0-colorSlot4 4 4 8 0 12 -262144
-1 0;
#X obj 185 53 cnv 15 15 15 empty \$0-colorSlot5 5 4 8 0 12 -262144
-1 0;
#X obj 205 53 cnv 15 15 15 empty \$0-colorSlot6 6 4 8 0 12 -262144
-1 0;
#X obj 225 53 cnv 15 15 15 empty \$0-colorSlot7 7 4 8 0 12 -262144
-1 0;
#X obj 245 53 cnv 15 15 15 empty \$0-colorSlot8 8 4 8 0 12 -262144
-1 0;
#N canvas 43 125 663 307 FILE_DISPLAY 0;
#X msg 221 206 label \$1;
#X msg 47 206 color \$1;
#X obj 434 177 loadbang;
#X obj 221 177 arrast_namecut 22;
#X obj 144 66 r \$0-activeFile;
#X obj 144 100 sel none;
#X obj 47 177 r \$0-bgColor;
#X msg 434 206 label OPEN_VIDEO;
#X text 238 103 FILTRA SLOTS VAZIOS;
#X text 44 149 COR DE FUNDO;
#X text 308 67 RECEBE ARQUIVO ATIVO;
#X text 48 21 ** GERENCIA CONTEÚDO EXIBIDO NO VISOR DE NOME DO ARQUIVO
;
#X obj 221 252 s \$0-fileDisplay;
#X connect 0 0 12 0;
#X connect 1 0 12 0;
#X connect 2 0 7 0;
#X connect 3 0 0 0;
#X connect 4 0 5 0;
#X connect 5 0 7 0;
#X connect 5 1 3 0;
#X connect 6 0 1 0;
#X connect 7 0 12 0;
#X restore 304 84 pd FILE_DISPLAY;
#N canvas 54 171 1253 453 ACTIVE_SLOT 0;
#X msg 18 277 1;
#X msg 188 277 2;
#X msg 358 277 3;
#X msg 528 277 4;
#X msg 698 277 5;
#X msg 868 277 6;
#X msg 1038 277 7;
#X msg 1208 277 8;
#X obj 18 120 loadbang;
#X obj 616 337 f 1;
#X obj 18 149 del 5;
#X obj 616 89 r \$0-flushActiveSlot;
#X obj 616 397 s \$0-activeSlot;
#X text 830 90 ATUALIZA SLOT ATIVO;
#X obj 696 133 r \$0-activeSlot_gui_set;
#X text 941 133 RECEBE DO GESTOR DE PRESETS E DA AUTOMAÇÃO;
#X obj 616 206 int;
#X text 186 218 CLIQUES NO SELETOR DE SLOTS;
#X obj 1208 246 r \$0-clickSlot8;
#X obj 1038 246 r \$0-clickSlot7;
#X obj 868 246 r \$0-clickSlot6;
#X obj 698 246 r \$0-clickSlot5;
#X obj 528 246 r \$0-clickSlot4;
#X obj 358 246 r \$0-clickSlot3;
#X obj 188 246 r \$0-clickSlot2;
#X obj 18 246 r \$0-clickSlot1;
#X obj 616 123 t b;
#X obj 616 55 r REFRESH_ACTIVE_SLOT;
#X text 211 14 ** GERENCIA MUDANÇA DE SLOT ATIVO PELA INTERFACE \,
PRESETS E CONTROLE EXTERNO OSC, f 80;
#X obj 374 89 r \$0-externalControl;
#X text 371 61 CONTROLE EXTERNO;
#X obj 374 123 route activeSlot;
#X obj 616 177 clip 1 8;
#X connect 0 0 9 0;
#X connect 1 0 9 0;
#X connect 2 0 9 0;
#X connect 3 0 9 0;
#X connect 4 0 9 0;
#X connect 5 0 9 0;
#X connect 6 0 9 0;
#X connect 7 0 9 0;
#X connect 8 0 10 0;
#X connect 9 0 12 0;
#X connect 10 0 0 0;
#X connect 11 0 26 0;
#X connect 14 0 32 0;
#X connect 16 0 9 0;
#X connect 18 0 7 0;
#X connect 19 0 6 0;
#X connect 20 0 5 0;
#X connect 21 0 4 0;
#X connect 22 0 3 0;
#X connect 23 0 2 0;
#X connect 24 0 1 0;
#X connect 25 0 0 0;
#X connect 26 0 9 0;
#X connect 27 0 26 0;
#X connect 29 0 31 0;
#X connect 31 0 32 0;
#X connect 32 0 16 0;
#X restore 304 22 pd ACTIVE_SLOT;
#X connect 1 0 4 0;
#X connect 3 0 1 0;
#X coords 0 -1 1 1 165 21 2 100 50;
#X restore 60 79 pd select_slot;
#X obj 52 30 hradio 20 1 0 9 \$0-click_enable \$0-click_enable_in empty
0 -8 0 10 -262144 -1 -1 1;
#X obj 50 30 cnv 15 185 20 \$0-enable \$0-enable_in empty 20 12 0 14
-24198 -262144 0;
#X obj 63 128 hsl 160 10 0 1 0 0 \$0-inSet_gui \$0-inSet_gui_set empty
-2 -8 0 10 -262144 -1 -1 3500 1;
#X obj 63 138 hsl 160 10 0 1 0 0 \$0-outSet_gui \$0-outSet_gui_set
empty -2 -8 0 10 -262144 -1 -1 4100 1;
#N canvas 189 76 1172 685 VIDEO_UNIT 0;
#X obj 44 591 rectangle 4 3;
#X obj 44 301 pix_film;
#X obj 44 385 pix_texture;
#X obj 44 233 gemhead \$1;
#X obj 44 496 translateXYZ 0 0 0;
#X obj 44 540 scale 0.3;
#X msg 237 361 quality 0;
#X obj 237 332 loadbang;
#X text 70 15 ----- PREVIEW -----;
#X text 740 15 ----- CURSOR MASTER -----;
#X obj 667 169 f;
#X obj 711 169 + 1;
#X obj 667 215 mod 1;
#X floatatom 794 90 8 0 0 0 - - -, f 8;
#X obj 774 191 r \$0-modulo;
#X obj 667 125 metro 41.6667;
#X floatatom 667 517 5 0 0 0 - - -, f 5;
#X obj 667 89 tgl 25 0 empty empty empty 17 7 0 10 -204786 -1 -1 0
1;
#X obj 667 55 r \$0-motor;
#X text 727 516 CURSOR;
#X obj 689 552 s \$0-cursor;
#X obj 667 594 list prepend cursor;
#X obj 44 109 tgl 25 0 empty empty empty 17 7 0 10 -262144 -1 -1 1
1;
#X obj 44 140 t f f;
#X obj 44 422 rotateXYZ 0 0 0;
#X obj 344 591 rectangle 4 3;
#X obj 344 446 color;
#X obj 344 167 loadbang;
#X msg 344 199 1;
#X obj 344 540 scale 0.31;
#X obj 344 231 gemhead \$1;
#X msg 390 199 0;
#X obj 344 496 translateXYZ 0 0 -0.0001;
#X obj 344 55 r CH\$1_SELECT;
#X obj 344 87 == 1;
#N canvas 688 350 408 322 INFO 0;
#X obj 50 36 inlet;
#X obj 50 86 t a a;
#X obj 50 265 outlet;
#X obj 148 141 change;
#X obj 225 141 change;
#X obj 137 110 pix_info;
#X obj 148 202 pack f f;
#X obj 148 232 s \$0-tam;
#X obj 225 169 t b f;
#X text 150 23 ** ENVIA DIMENSÕES DO VÍDEO EM PIXELS PARA CÁLCULO
DE PROPORÇÃO, f 21;
#X connect 0 0 1 0;
#X connect 1 0 2 0;
#X connect 1 1 5 0;
#X connect 3 0 6 0;
#X connect 4 0 8 0;
#X connect 5 1 3 0;
#X connect 5 2 4 0;
#X connect 6 0 7 0;
#X connect 8 0 6 0;
#X connect 8 1 6 1;
#X restore 44 459 pd INFO;
#N canvas 486 140 405 357 RATIO 0;
#X obj 50 305 outlet;
#X obj 169 305 outlet;
#X obj 50 73 r \$0-tam;
#X obj 50 117 unpack f f;
#X obj 50 149 /;
#X obj 50 273 * 3;
#X obj 169 274 * 3;
#X obj 169 218 t b f f;
#X obj 169 73 inlet;
#X obj 50 182 pack f 1;
#X obj 50 210 unpack f f;
#X text 47 27 ** GERENCIA PROPORÇÕES DO VÍDEO;
#X connect 2 0 3 0;
#X connect 3 0 4 0;
#X connect 3 1 4 1;
#X connect 4 0 9 0;
#X connect 5 0 0 0;
#X connect 6 0 1 0;
#X connect 7 0 6 0;
#X connect 7 0 5 0;
#X connect 7 1 5 1;
#X connect 7 2 6 1;
#X connect 8 0 7 0;
#X connect 9 0 10 0;
#X connect 10 0 5 0;
#X connect 10 1 6 0;
#X restore 191 567 pd RATIO;
#N canvas 159 240 539 257 BG_COLOR 0;
#X obj 46 198 outlet;
#X obj 46 41 loadbang;
#X obj 46 74 f \$1;
#X obj 46 107 sel 1 2 3 4;
#X msg 46 152 1 0 0;
#X msg 116 152 1 1 0;
#X msg 186 152 1 0 1;
#X msg 256 152 0 1 0;
#X text 167 26 ** DEFINE COR DO FUNDO NA JANELA DE PREVIEW DE ACORDO
COM COR DE CADA CANAL, f 32;
#X connect 1 0 2 0;
#X connect 2 0 3 0;
#X connect 3 0 4 0;
#X connect 3 1 5 0;
#X connect 3 2 6 0;
#X connect 3 3 7 0;
#X connect 4 0 0 0;
#X connect 5 0 0 0;
#X connect 6 0 0 0;
#X connect 7 0 0 0;
#X restore 391 414 pd BG_COLOR;
#N canvas 408 336 624 427 SPEED 0;
#X msg 45 73 1000 \$1;
#X obj 45 105 /;
#X obj 45 344 outlet;
#X obj 45 41 r MASTER_FPS;
#X obj 45 156 f;
#X obj 45 195 * 1;
#X obj 212 42 r \$0-speed;
#X obj 212 102 clip 0.01 2;
#X obj 212 72 * 2;
#X obj 45 271 t f f;
#X obj 279 191 s \$0-audioSpeed;
#X obj 212 132 t b f f;
#X text 276 223 ENVIA VELOCIDADE DE REPRODUÇÃO PARA ÁUDIO, f 21
;
#X msg 388 71 0.5;
#X text 386 134 RESETA VELOCIDADE;
#X obj 388 101 s \$0-speed_gui_set;
#X text 285 296 DURAÇÃO DE 1 FRAME EM MSEC;
#X obj 142 295 s \$0-frameDur;
#X obj 388 42 r \$0-resetSpeed;
#X connect 0 0 1 0;
#X connect 1 0 4 0;
#X connect 3 0 0 0;
#X connect 4 0 5 0;
#X connect 5 0 9 0;
#X connect 6 0 8 0;
#X connect 7 0 11 0;
#X connect 8 0 7 0;
#X connect 9 0 2 0;
#X connect 9 1 17 0;
#X connect 11 0 4 0;
#X connect 11 1 5 1;
#X connect 11 2 10 0;
#X connect 13 0 15 0;
#X connect 18 0 13 0;
#X restore 794 55 pd SPEED;
#N canvas 520 58 768 705 LOOPMODE 0;
#X obj 56 57 inlet;
#X obj 56 626 outlet;
#X obj 133 489 t f f;
#X obj 247 561 spigot;
#X obj 56 561 spigot 1;
#X obj 429 259 spigot;
#X obj 247 259 spigot 1;
#X obj 324 229 == 0;
#X obj 429 147 - 1;
#X obj 214 113 t f f f;
#X obj 133 527 == 0;
#X obj 133 425 t f b;
#N canvas 572 182 602 535 ALTERNATE 0;
#X obj 48 346 f;
#X obj 92 346 + 1;
#X obj 48 380 % 2;
#X obj 48 30 inlet;
#X obj 48 472 outlet;
#X obj 135 472 s \$0-loopInv;
#X text 270 473 PARA INVERSOR DE ÁUDIO;
#X obj 48 252 sel 1;
#X text 152 20 ** ALTERNADOR PARA INVERTER DIREÇÃO NO LOOP MODO 1
, f 35;
#X msg 159 322 0;
#X text 304 294 RESETA ALTERNADOR;
#X obj 95 137 r \$0-modulo;
#X obj 95 196 spigot;
#X obj 257 113 sel 0 1;
#X obj 257 142 t b b;
#X msg 304 172 1;
#X obj 95 166 f;
#X obj 357 142 t b b;
#X msg 404 172 0;
#X msg 357 172 1;
#X text 115 253 PONTO DE LOOP - IN<OUT = MODULO / IN>OUT = 1;
#X obj 95 224 f;
#X obj 159 293 r \$0-altReset;
#X obj 257 84 r \$0-ioInv;
#X obj 48 414 t f f;
#X obj 135 438 change;
#X connect 0 0 2 0;
#X connect 1 0 0 1;
#X connect 2 0 1 0;
#X connect 2 0 24 0;
#X connect 3 0 7 0;
#X connect 7 0 0 0;
#X connect 9 0 0 0;
#X connect 11 0 16 0;
#X connect 12 0 21 0;
#X connect 13 0 14 0;
#X connect 13 1 17 0;
#X connect 14 0 16 0;
#X connect 14 1 15 0;
#X connect 15 0 12 1;
#X connect 16 0 12 0;
#X connect 17 0 19 0;
#X connect 17 1 18 0;
#X connect 18 0 12 1;
#X connect 19 0 21 0;
#X connect 21 0 7 1;
#X connect 22 0 9 0;
#X connect 23 0 13 0;
#X connect 24 0 4 0;
#X connect 24 1 25 0;
#X connect 25 0 5 0;
#X restore 214 155 pd ALTERNATE;
#X obj 133 366 r \$0-loopMode;
#X text 474 148 CALCULA CURSOR INVERTIDO;
#X text 340 260 NORMAL;
#X text 501 260 INVERTIDO;
#X text 132 627 SAÍDA DO CURSOR NO MODO DE LOOP ESCOLHIDO;
#X obj 133 395 change;
#X obj 214 187 t f f;
#X obj 456 115 r \$0-modulo;
#X obj 247 303 change;
#X obj 429 176 abs;
#X obj 429 205 + 1;
#X text 144 17 ** GERENCIA MODO DE LOOP \, NORMAL OU IDA-VOLTA;
#X obj 56 89 t f f;
#X text 150 562 MODO 0;
#X text 320 562 MODO 1;
#X obj 180 457 s \$0-altReset;
#X connect 0 0 25 0;
#X connect 2 0 10 0;
#X connect 2 1 3 1;
#X connect 3 0 1 0;
#X connect 4 0 1 0;
#X connect 5 0 21 0;
#X connect 6 0 21 0;
#X connect 7 0 6 1;
#X connect 8 0 22 0;
#X connect 9 0 12 0;
#X connect 9 1 6 0;
#X connect 9 2 8 0;
#X connect 10 0 4 1;
#X connect 11 0 2 0;
#X connect 11 1 28 0;
#X connect 12 0 19 0;
#X connect 13 0 18 0;
#X connect 18 0 11 0;
#X connect 19 0 7 0;
#X connect 19 1 5 1;
#X connect 20 0 8 1;
#X connect 21 0 3 0;
#X connect 22 0 23 0;
#X connect 23 0 5 0;
#X connect 25 0 4 0;
#X connect 25 1 9 0;
#X restore 667 365 pd LOOPMODE;
#N canvas 98 256 583 396 INVERT 0;
#X obj 40 77 inlet;
#X obj 207 77 r \$0-inv;
#X obj 40 154 spigot;
#X obj 150 154 spigot;
#X obj 97 116 == 0;
#X obj 40 337 outlet;
#X obj 150 230 - 1;
#X text 195 231 CALCULA CURSOR INVERTIDO;
#X obj 177 198 r \$0-modulo;
#X obj 150 259 abs;
#X obj 150 288 + 1;
#X text 41 29 ** INVERSOR DO VÍDEO A PARTIR DO BOTÃO DA INTERFACE
;
#X connect 0 0 2 0;
#X connect 0 0 3 0;
#X connect 1 0 4 0;
#X connect 1 0 3 1;
#X connect 2 0 5 0;
#X connect 3 0 6 0;
#X connect 4 0 2 1;
#X connect 6 0 9 0;
#X connect 8 0 6 1;
#X connect 9 0 10 0;
#X connect 10 0 5 0;
#X restore 667 395 pd INVERT;
#N canvas 287 259 294 245 CLIP 0;
#X obj 46 39 inlet;
#X obj 46 179 outlet;
#X obj 46 124 clip 1 100;
#X obj 143 69 r \$0-frames;
#X obj 143 96 - 1;
#X connect 0 0 2 0;
#X connect 2 0 1 0;
#X connect 3 0 4 0;
#X connect 4 0 2 2;
#X restore 667 476 pd CLIP;
#N canvas 502 310 561 350 SEND_RENDER 0;
#X obj 40 246 list prepend render;
#X obj 40 178 spigot;
#X obj 187 110 r \$0-motor;
#X obj 130 178 spigot;
#X obj 83 110 sel 1;
#X obj 187 144 == 0;
#X text 37 24 ** ENVIA ESTADO DA RENDERIZAÇÃO PARA 2 INSTÂNCIA;
#X obj 40 66 r \$0-channelState;
#X obj 40 212 f;
#N canvas 11 57 468 209 TO_VIDEO_BUS 0;
#X obj 39 61 inlet;
#X obj 39 105 list prepend V\$1;
#X obj 39 149 s VIDEO_BUS;
#X text 35 23 ** CANAL DE SAÍDA DE CONTROLES DE VÍDEO;
#X connect 0 0 1 0;
#X connect 1 0 2 0;
#X restore 40 290 pd TO_VIDEO_BUS;
#X connect 0 0 9 0;
#X connect 1 0 8 0;
#X connect 2 0 1 1;
#X connect 2 0 5 0;
#X connect 3 0 8 0;
#X connect 4 1 3 0;
#X connect 5 0 3 1;
#X connect 7 0 1 0;
#X connect 7 0 4 0;
#X connect 8 0 0 0;
#X restore 950 85 pd SEND_RENDER;
#N canvas 73 315 887 216 STOP 0;
#X msg 176 94 0;
#X obj 176 128 s \$0-motor;
#X obj 300 128 list prepend render;
#X msg 300 94 0;
#X text 310 15 ** AÇÕES DO BOTÃO DE STOP;
#X obj 42 128 s \$0-gotoIn;
#X obj 514 128 s \$0-altReset;
#X obj 42 36 r \$0-stop_gui;
#X obj 668 128 s \$0-play_gui_set;
#X msg 668 94 0;
#X obj 42 70 t b b b b b;
#N canvas 11 57 468 209 TO_VIDEO_BUS 0;
#X obj 39 61 inlet;
#X obj 39 105 list prepend V\$1;
#X obj 39 149 s VIDEO_BUS;
#X text 35 23 ** CANAL DE SAÍDA DE CONTROLES DE VÍDEO;
#X connect 0 0 1 0;
#X connect 1 0 2 0;
#X restore 300 162 pd TO_VIDEO_BUS;
#X connect 0 0 1 0;
#X connect 2 0 11 0;
#X connect 3 0 2 0;
#X connect 7 0 10 0;
#X connect 9 0 8 0;
#X connect 10 0 5 0;
#X connect 10 1 0 0;
#X connect 10 2 3 0;
#X connect 10 3 6 0;
#X connect 10 4 9 0;
#X restore 950 215 pd STOP;
#N canvas 182 387 402 213 TIMELINE 0;
#X msg 195 125 range 0 \$1;
#X obj 195 84 r \$0-frames;
#X obj 40 84 r \$0-cursor;
#X obj 40 149 s \$0-timeline;
#X text 37 31 ** GERENCIA EXIBIÇÃO DA TIMELINE;
#X connect 0 0 3 0;
#X connect 1 0 0 0;
#X connect 2 0 3 0;
#X restore 950 285 pd TIMELINE;
#N canvas 318 121 612 445 TIME 0;
#X obj 44 260 *;
#X obj 44 350 / 1000;
#X obj 60 224 t b f;
#X msg 219 348 0;
#X text 215 29 ** CALCULA TEMPO DE REPRODUÇÃO DO MÓDULO E ENVIA
PARA VISOR, f 33;
#X text 314 284 ATUALIZA VALOR DO VISOR DE TEMPO PRA "0" CASO SLOT
ATIVO ESTEJA VAZIO, f 23;
#X obj 219 318 del 5;
#X obj 60 192 r \$0-frameDur;
#X text 208 394 PARA VISOR DE TEMPO NA INTERFACE;
#X obj 219 249 r \$0-activeFile;
#X obj 219 288 sel none;
#X obj 44 124 -;
#X obj 82 100 t b f;
#X obj 44 154 abs;
#X obj 44 41 r \$0-in;
#X obj 82 70 r \$0-out;
#X text 88 155 MÓDULO EM FRAMES;
#X text 205 193 DURAÇÃO DE 1 FRAME EM MSEG;
#X obj 44 393 s \$0-secDisplay;
#X connect 0 0 1 0;
#X connect 1 0 18 0;
#X connect 2 0 0 0;
#X connect 2 1 0 1;
#X connect 3 0 18 0;
#X connect 6 0 3 0;
#X connect 7 0 2 0;
#X connect 9 0 10 0;
#X connect 10 0 6 0;
#X connect 11 0 13 0;
#X connect 12 0 11 0;
#X connect 12 1 11 1;
#X connect 13 0 0 0;
#X connect 14 0 11 0;
#X connect 15 0 12 0;
#X restore 951 316 pd TIME;
#N canvas 197 257 994 303 TO_FADE 0;
#X obj 210 88 r \$0-cursor;
#X obj 410 88 r \$0-frames;
#X obj 610 88 r \$0-modulo;
#X obj 810 88 r \$0-offset;
#X obj 210 138 list prepend cursor;
#X obj 410 138 list prepend frames;
#X obj 610 138 list prepend modulo;
#X obj 810 138 list prepend offset;
#X obj 410 247 s V\$1_TO_FADE;
#X obj 410 217 list trim;
#X obj 1230 88 r \$0-loopMode;
#X obj 1230 138 list prepend loopMode;
#X obj 1010 88 r \$0-frameDur;
#X obj 1010 138 list prepend frameDur;
#X obj 20 138 list prepend motor;
#X obj 20 88 r \$0-motor;
#X text 207 20 ** ENVIA INFORMAÇÕES NECESSÁRIAS DO VÍDEO PARA O
MÓDULO DE FADE IN E FADE OUT \, NO [arrast_transf];
#X connect 0 0 4 0;
#X connect 1 0 5 0;
#X connect 2 0 6 0;
#X connect 3 0 7 0;
#X connect 4 0 9 0;
#X connect 5 0 9 0;
#X connect 6 0 9 0;
#X connect 7 0 9 0;
#X connect 9 0 8 0;
#X connect 10 0 11 0;
#X connect 11 0 9 0;
#X connect 12 0 13 0;
#X connect 13 0 9 0;
#X connect 14 0 9 0;
#X connect 15 0 14 0;
#X restore 951 346 pd TO_FADE;
#X obj 774 298 s \$0-rawCursor;
#X obj 667 437 +;
#X obj 774 413 r \$0-offset;
#N canvas 119 62 668 701 IO_INVERT 0;
#X obj 219 184 -;
#X obj 257 150 t b f;
#X obj 52 33 inlet;
#X obj 52 567 spigot;
#X obj 162 567 spigot;
#X obj 109 535 == 0;
#X obj 219 213 moses 0;
#X obj 219 92 r \$0-out;
#X obj 257 121 r \$0-in;
#X msg 219 242 1;
#X msg 286 242 0;
#X text 150 26 ** INVERTE CURSOR SE PONTO DE ENTRADA FOR DEPOIS DO
PONTO DE SAÍDA DO VÍDEO, f 37;
#X obj 219 511 t f;
#X obj 162 644 - 1;
#X text 207 645 CALCULA CURSOR INVERTIDO;
#X obj 189 612 r \$0-modulo;
#X obj 162 673 abs;
#X obj 162 702 + 1;
#X obj 52 777 outlet;
#X obj 52 737 change;
#X text 262 541 ENVIA PARA ALTERNADOR DO LOOP MODO 1;
#X obj 219 345 spigot;
#X obj 276 275 r \$0-ioMode;
#X obj 219 275 t f f;
#X obj 239 474 f;
#X obj 239 381 r \$0-hardSync;
#X obj 239 443 spigot;
#X obj 296 413 == 0;
#X obj 276 315 t f f;
#X obj 261 567 s \$0-ioInv;
#X text 393 328 NO IO_MODE 0 SÓ PASSA INVERSÃO NO INÍCIO DO MÓDULO
, f 21;
#X connect 0 0 6 0;
#X connect 1 0 0 0;
#X connect 1 1 0 1;
#X connect 2 0 3 0;
#X connect 2 0 4 0;
#X connect 3 0 19 0;
#X connect 4 0 13 0;
#X connect 5 0 3 1;
#X connect 6 0 9 0;
#X connect 6 1 10 0;
#X connect 7 0 0 0;
#X connect 8 0 1 0;
#X connect 9 0 23 0;
#X connect 10 0 23 0;
#X connect 12 0 5 0;
#X connect 12 0 4 1;
#X connect 12 0 29 0;
#X connect 13 0 16 0;
#X connect 15 0 13 1;
#X connect 16 0 17 0;
#X connect 17 0 19 0;
#X connect 19 0 18 0;
#X connect 21 0 12 0;
#X connect 22 0 28 0;
#X connect 23 0 21 0;
#X connect 23 1 24 1;
#X connect 24 0 12 0;
#X connect 25 0 26 0;
#X connect 26 0 24 0;
#X connect 27 0 26 1;
#X connect 28 0 21 1;
#X connect 28 1 27 0;
#X restore 667 335 pd IO_INVERT;
#X msg 531 145 0;
#X obj 667 274 + 1;
#N canvas 242 211 526 221 SEND_FRAMES 0;
#X obj 48 43 inlet;
#X obj 48 80 unpack f f f;
#X floatatom 48 118 5 0 0 0 - - -, f 5;
#X obj 48 151 s \$0-frames;
#X text 130 33 ** ENVIA DURAÇÃO DO VÍDEO EM FRAMES;
#X connect 0 0 1 0;
#X connect 1 0 2 0;
#X connect 2 0 3 0;
#X restore 82 333 pd SEND_FRAMES;
#N canvas 17 60 397 300 HARDSYNC 0;
#X obj 101 149 s \$0-hardSync;
#X obj 54 83 sel 0;
#X obj 54 119 t f b;
#X obj 54 47 inlet;
#X text 98 179 SINCRONIZA ÁUDIO E ATUALIZA MÓDULOS, f 18;
#X obj 54 238 outlet;
#X text 121 81 TODOS NÚMEROS MENOS 0 PASSAM DIRETO, f 21;
#X connect 1 0 2 0;
#X connect 1 1 5 0;
#X connect 2 0 5 0;
#X connect 2 1 0 0;
#X connect 3 0 1 0;
#X restore 667 245 pd HARDSYNC;
#X obj 91 176 s \$0-channelState;
#X obj 531 115 r \$0-gotoIn;
#N canvas 645 125 625 638 MODULO_OFFSET 0;
#X obj 414 428 <;
#X floatatom 414 459 5 0 0 0 - - -, f 5;
#X obj 414 397 t f f;
#X obj 484 397 t f f;
#X obj 504 518 f;
#X obj 414 518 f;
#X obj 414 487 sel 1 0;
#X floatatom 414 548 5 0 0 0 - - -, f 5;
#X obj 414 580 s \$0-offset;
#X obj 57 228 -;
#X obj 95 204 t b f;
#X floatatom 57 518 5 0 0 0 - - -, f 5;
#X obj 124 580 s \$0-modulo;
#X obj 414 367 f;
#X obj 484 367 f;
#X obj 57 546 t b b f;
#X obj 95 170 t f f;
#X obj 57 102 t f f;
#X obj 57 68 r \$0-in;
#X obj 95 136 r \$0-out;
#X obj 57 356 spigot;
#X obj 124 296 r \$0-ioMode;
#X obj 57 296 t f f;
#X obj 77 483 f;
#X obj 77 452 spigot;
#X obj 134 422 == 0;
#X obj 124 326 t f f;
#X obj 77 391 r \$0-hardSync;
#X text 247 293 IO MODE - 0 = NO INÍCIO DO MÓDULO (SEM GLITCH) \,
1 = DIRETO (GLITCH), f 33;
#X text 170 19 ** CALCULA MÓDULO E OFFSET EM FRAMES PARA REPRODUÇÃO
DO VÍDEO, f 41;
#X obj 57 257 abs;
#X obj 235 400 r \$0-activeSlot;
#X obj 235 459 t b;
#X text 233 487 FORÇA ENVIO QUANDO MUDA SLOT, f 11;
#X obj 235 429 del 5;
#X connect 0 0 1 0;
#X connect 1 0 6 0;
#X connect 2 0 0 0;
#X connect 2 1 5 1;
#X connect 3 0 0 1;
#X connect 3 1 4 1;
#X connect 4 0 7 0;
#X connect 5 0 7 0;
#X connect 6 0 5 0;
#X connect 6 1 4 0;
#X connect 7 0 8 0;
#X connect 9 0 30 0;
#X connect 10 0 9 0;
#X connect 10 1 9 1;
#X connect 11 0 15 0;
#X connect 13 0 2 0;
#X connect 14 0 3 0;
#X connect 15 0 13 0;
#X connect 15 1 14 0;
#X connect 15 2 12 0;
#X connect 16 0 10 0;
#X connect 16 1 14 1;
#X connect 17 0 9 0;
#X connect 17 1 13 1;
#X connect 18 0 17 0;
#X connect 19 0 16 0;
#X connect 20 0 11 0;
#X connect 21 0 26 0;
#X connect 22 0 20 0;
#X connect 22 1 23 1;
#X connect 23 0 11 0;
#X connect 24 0 23 0;
#X connect 25 0 24 1;
#X connect 26 0 20 1;
#X connect 26 1 25 0;
#X connect 27 0 24 0;
#X connect 30 0 22 0;
#X connect 31 0 34 0;
#X connect 32 0 23 0;
#X connect 34 0 32 0;
#X restore 950 155 pd MODULO_OFFSET;
#N canvas 182 138 913 474 PLAY_PAUSE_RW 0;
#X obj 177 221 s \$0-motor;
#X msg 177 187 1;
#X obj 58 61 r \$0-play;
#X obj 293 172 s \$0-motor;
#X msg 293 139 0;
#X obj 177 115 sel 1 0;
#X obj 177 369 list prepend render;
#X obj 177 337 spigot;
#X obj 58 91 t f f;
#N canvas 521 267 402 289 COLOR 0;
#X obj 45 41 inlet;
#X obj 45 96 sel 0 1;
#X msg 45 156 color 26 26 0;
#X msg 205 156 color 16 16 22;
#X obj 45 207 s \$0-play_gui_set;
#X connect 0 0 1 0;
#X connect 1 0 2 0;
#X connect 1 1 3 0;
#X connect 2 0 4 0;
#X connect 3 0 4 0;
#X restore 58 153 pd COLOR;
#X obj 177 153 t b b;
#X obj 234 304 r \$0-channelState;
#X obj 293 221 s \$0-ioFlush;
#X obj 462 192 r \$0-rw_gui;
#X obj 462 260 s \$0-gotoIn;
#X obj 509 294 s \$0-altReset;
#X obj 462 226 t b b;
#X text 263 17 ** AÇÕES DO BOTÃO DE PLAY/PAUSE E RW;
#X obj 462 61 r \$0-activeSlot;
#X text 625 57 VAI PRO INÍCIO QUANDO MUDA SLOT, f 16;
#X obj 462 95 t b;
#X obj 462 129 r AUTO_RW;
#X text 565 129 SINCRONIZA COM RW DA AUTOMAÇÃO;
#X text 586 193 BOTÃO DE RW;
#X text 161 61 BOTÃO PLAY/PAUSE;
#N canvas 9 56 468 209 TO_VIDEO_BUS 0;
#X obj 39 61 inlet;
#X obj 39 105 list prepend V\$1;
#X obj 39 149 s VIDEO_BUS;
#X text 35 23 ** CANAL DE SAÍDA DE CONTROLES DE VÍDEO;
#X connect 0 0 1 0;
#X connect 1 0 2 0;
#X restore 177 413 pd TO_VIDEO_BUS;
#X text 252 338 LIGA RENDER SE UNIDADE ESTIVER HABILITADA;
#X connect 1 0 0 0;
#X connect 1 0 7 0;
#X connect 2 0 8 0;
#X connect 4 0 3 0;
#X connect 5 0 10 0;
#X connect 5 1 4 0;
#X connect 6 0 25 0;
#X connect 7 0 6 0;
#X connect 8 0 9 0;
#X connect 8 1 5 0;
#X connect 10 0 1 0;
#X connect 10 1 12 0;
#X connect 11 0 7 1;
#X connect 13 0 16 0;
#X connect 16 0 14 0;
#X connect 16 1 15 0;
#X connect 18 0 20 0;
#X connect 20 0 16 0;
#X connect 21 0 16 0;
#X restore 950 185 pd PLAY_PAUSE_RW;
#N canvas 681 73 646 444 IN_OUT 0;
#X obj 49 297 *;
#X obj 49 327 int;
#X floatatom 49 357 5 0 0 0 - - -, f 5;
#X obj 348 82 r \$0-ioFlush;
#X obj 49 82 r \$0-inSet;
#X obj 49 385 s \$0-in;
#X obj 238 242 r \$0-frames;
#X obj 186 297 *;
#X obj 186 327 int;
#X floatatom 186 357 5 0 0 0 - - -, f 5;
#X obj 186 82 r \$0-outSet;
#X obj 186 385 s \$0-out;
#X text 46 19 ** CALCULA POSIÇÃO DO INÍCIO E FIM DA REPRODUÇÃO
EM FRAMES, f 48;
#X obj 348 113 t b b;
#X obj 238 273 t b f b f;
#X text 346 142 ATUALIZA PONTOS DE LEITURA;
#X floatatom 186 111 5 0 0 0 - - -, f 5;
#X floatatom 49 111 5 0 0 0 - - -, f 5;
#N canvas 512 92 841 620 IN_OUT_LINK 0;
#X obj 505 461 +;
#X obj 155 461 -;
#X obj 581 379 -;
#X obj 581 408 * -1;
#X obj 581 437 t f f;
#X obj 581 345 t b f;
#X text 251 16 ** FIXA INTERVALO DE REPRODUÇÃO;
#X text 625 380 CALCULA INTERVALO;
#X obj 91 292 spigot;
#X obj 148 262 == 0;
#X obj 432 292 spigot;
#X obj 489 262 == 0;
#X obj 432 321 t f f;
#X obj 91 321 t f f;
#X obj 44 195 spigot;
#X obj 385 195 spigot;
#X obj 552 562 s \$0-outSet_gui;
#X obj 202 562 s \$0-inSet_gui;
#X msg 101 171 0;
#X msg 141 171 1;
#X msg 442 171 0;
#X msg 482 171 1;
#X obj 385 229 t b f b f;
#X obj 44 229 t b f b f;
#X obj 155 495 clip 0 1;
#X obj 505 495 clip 0 1;
#X obj 505 529 t f f;
#X obj 155 529 t f f;
#X obj 44 61 inlet IN;
#X obj 385 61 inlet OUT;
#X obj 91 572 outlet IN;
#X obj 432 572 outlet OUT;
#X text 550 56 RECEBE CONTROLE DA INTERFACE, f 15;
#X text 187 167 PREVINE STACK OVERFLOW, f 13;
#X obj 44 125 t f f;
#X obj 385 125 t f f;
#X obj 44 90 f;
#X obj 385 90 f;
#X obj 552 104 r \$0-ioLink_gui;
#X obj 619 171 t f f f f;
#X obj 552 133 t b b f;
#X obj 726 118 loadbang;
#X msg 726 147 0;
#X connect 0 0 25 0;
#X connect 1 0 24 0;
#X connect 2 0 3 0;
#X connect 3 0 4 0;
#X connect 4 0 1 1;
#X connect 4 1 0 1;
#X connect 5 0 2 0;
#X connect 5 1 2 1;
#X connect 8 0 13 0;
#X connect 9 0 8 1;
#X connect 10 0 12 0;
#X connect 11 0 10 1;
#X connect 12 0 31 0;
#X connect 12 1 5 0;
#X connect 13 0 30 0;
#X connect 13 1 2 0;
#X connect 14 0 23 0;
#X connect 15 0 22 0;
#X connect 18 0 14 1;
#X connect 19 0 14 1;
#X connect 20 0 15 1;
#X connect 21 0 15 1;
#X connect 22 0 19 0;
#X connect 22 1 1 0;
#X connect 22 2 18 0;
#X connect 22 3 31 0;
#X connect 23 0 21 0;
#X connect 23 1 0 0;
#X connect 23 2 20 0;
#X connect 23 3 30 0;
#X connect 24 0 27 0;
#X connect 25 0 26 0;
#X connect 26 0 31 0;
#X connect 26 1 16 0;
#X connect 27 0 30 0;
#X connect 27 1 17 0;
#X connect 28 0 36 0;
#X connect 29 0 37 0;
#X connect 34 0 14 0;
#X connect 34 1 8 0;
#X connect 35 0 15 0;
#X connect 35 1 10 0;
#X connect 36 0 34 0;
#X connect 37 0 35 0;
#X connect 38 0 40 0;
#X connect 39 0 14 1;
#X connect 39 1 9 0;
#X connect 39 2 15 1;
#X connect 39 3 11 0;
#X connect 40 0 36 0;
#X connect 40 1 37 0;
#X connect 40 2 39 0;
#X connect 41 0 42 0;
#X connect 42 0 39 0;
#X restore 49 193 pd IN_OUT_LINK;
#X text 203 194 FIXA INTERVALO DE REPRODUÇÃO;
#X obj 186 137 f;
#X obj 49 137 f;
#X connect 0 0 1 0;
#X connect 1 0 2 0;
#X connect 2 0 5 0;
#X connect 3 0 13 0;
#X connect 4 0 17 0;
#X connect 6 0 14 0;
#X connect 7 0 8 0;
#X connect 8 0 9 0;
#X connect 9 0 11 0;
#X connect 10 0 16 0;
#X connect 13 0 21 0;
#X connect 13 1 20 0;
#X connect 14 0 0 0;
#X connect 14 1 0 1;
#X connect 14 2 7 0;
#X connect 14 3 7 1;
#X connect 16 0 20 0;
#X connect 17 0 21 0;
#X connect 18 0 0 0;
#X connect 18 1 7 0;
#X connect 20 0 18 1;
#X connect 21 0 18 0;
#X restore 950 125 pd IN_OUT;
#N canvas 323 60 760 466 SEND_VIDEO_FILE 0;
#X obj 371 260 list prepend file;
#X text 369 232 ENVIA ARQUIVO PARA 2 INSTÂNCIA;
#X text 192 181 FILTRA SLOTS VAZIOS;
#X text 215 76 RECEBE ARQUIVO DOS SLOTS;
#X text 83 25 ** ENVIA ARQUIVO PARA 2 INSTÂNCIA E PARA MECANISMO DE
ÁUDIO;
#X obj 47 75 r \$0-activeFile;
#X obj 94 180 sel none;
#X obj 127 260 s \$0-stop;
#X obj 47 137 s \$0-ioFlush;
#X obj 94 365 list prepend render;
#X msg 94 335 0;
#X text 136 335 DESLIGA RENDER SE FOR SLOT VAZIO;
#X obj 47 106 t b s;
#X text 124 291 CANCELA REPRODUÇÃO;
#X obj 94 219 t b b b;
#N canvas 11 57 468 209 TO_VIDEO_BUS 0;
#X obj 39 61 inlet;
#X obj 39 105 list prepend V\$1;
#X obj 39 149 s VIDEO_BUS;
#X text 35 23 ** CANAL DE SAÍDA DE CONTROLES DE VÍDEO;
#X connect 0 0 1 0;
#X connect 1 0 2 0;
#X restore 371 409 pd TO_VIDEO_BUS;
#X connect 0 0 15 0;
#X connect 5 0 12 0;
#X connect 6 0 14 0;
#X connect 6 1 0 0;
#X connect 9 0 15 0;
#X connect 10 0 9 0;
#X connect 12 0 8 0;
#X connect 12 1 6 0;
#X connect 14 0 10 0;
#X connect 14 1 7 0;
#X restore 950 55 pd SEND_VIDEO_FILE;
#N canvas 271 273 674 445 PREVIEW_CONTROL 0;
#X obj 122 385 outlet;
#X obj 255 384 outlet;
#X msg 122 275 open \$1;
#X obj 255 312 tgl 15 0 empty empty empty 17 7 0 10 -232576 -1 -1 1
1;
#X text 275 308 JUMP!;
#X msg 255 267 1;
#X obj 122 243 t s b;
#X msg 301 267 0;
#X obj 255 234 sel 1 0;
#N canvas 158 153 396 361 PREV_CURSOR 0;
#X obj 40 213 * 1;
#X obj 40 246 int;
#X obj 114 213 del 50;
#X obj 67 175 t f b;
#X obj 40 75 tgl 15 0 empty empty empty 17 7 0 10 -262144 -1 -1 1 1
;
#X obj 40 36 inlet;
#X obj 40 294 outlet;
#X obj 67 142 r \$0-frames;
#X msg 114 246 5;
#N canvas 190 117 392 536 JUMP 0;
#X obj 41 232 metro 1000;
#X obj 41 309 f;
#X obj 41 341 % 5;
#X obj 87 309 + 1;
#X msg 68 279 0;
#X msg 41 189 1;
#X msg 88 189 0;
#X obj 41 148 t b b;
#X obj 41 384 sel 0 1 2 3 4;
#X msg 41 422 0.1;
#X msg 91 422 0.25;
#X msg 151 422 0.5;
#X msg 202 422 0.75;
#X msg 263 422 0.95;
#X obj 41 475 outlet;
#X obj 41 112 sel 1;
#X obj 41 71 tgl 25 0 empty empty empty 17 7 0 10 -262144 -1 -1 1 1
;
#X obj 41 36 inlet;
#X text 128 28 ** GERA FRAMES PONTUAIS PARA VISUALIZAÇÃO, f 23;
#X connect 0 0 1 0;
#X connect 1 0 2 0;
#X connect 2 0 3 0;
#X connect 2 0 8 0;
#X connect 3 0 1 1;
#X connect 4 0 1 1;
#X connect 5 0 0 0;
#X connect 6 0 0 0;
#X connect 7 0 5 0;
#X connect 7 1 4 0;
#X connect 8 0 9 0;
#X connect 8 1 10 0;
#X connect 8 2 11 0;
#X connect 8 3 12 0;
#X connect 8 4 13 0;
#X connect 9 0 14 0;
#X connect 10 0 14 0;
#X connect 11 0 14 0;
#X connect 12 0 14 0;
#X connect 13 0 14 0;
#X connect 15 0 7 0;
#X connect 15 1 6 0;
#X connect 16 0 15 0;
#X connect 17 0 16 0;
#X restore 40 103 pd JUMP;
#X text 121 29 ** GERA FRAMES PONTUAIS PARA VISUALIZAÇÃO, f 23;
#X connect 0 0 1 0;
#X connect 1 0 6 0;
#X connect 2 0 8 0;
#X connect 3 0 0 1;
#X connect 3 1 2 0;
#X connect 4 0 9 0;
#X connect 5 0 4 0;
#X connect 7 0 3 0;
#X connect 8 0 6 0;
#X connect 9 0 0 0;
#X restore 255 334 pd PREV_CURSOR;
#X text 234 22 ** RECEBE ARQUIVO E CONTROLA REPRODUÇÃO DO VÍDEO
NA JANELA DE PREVIEW, f 39;
#X text 410 329 GERA FRAMES PONTUAIS PARA VISUALIZAÇÃO, f 20;
#X obj 45 90 sel none;
#X obj 45 49 r \$0-activeFile;
#X obj 255 193 r \$0-channelState;
#N canvas 213 319 351 280 CHANGE_SYMBOL 0;
#X obj 49 117 t s s;
#X obj 49 154 sel s;
#X obj 49 70 inlet;
#X obj 96 228 outlet;
#X obj 96 184 symbol;
#X text 59 19 ** [change] SYMBOL;
#X obj 179 70 inlet RESET;
#X msg 179 99 symbol none;
#X connect 0 0 1 1;
#X connect 0 1 1 0;
#X connect 1 1 4 0;
#X connect 2 0 0 0;
#X connect 4 0 3 0;
#X connect 6 0 7 0;
#X connect 7 0 1 1;
#X restore 122 147 pd CHANGE_SYMBOL;
#X text 299 148 FILTRA REPETIÇÕES;
#X obj 279 115 r REFRESH_MOTOR;
#X obj 45 123 t b;
#X connect 2 0 0 0;
#X connect 3 0 9 0;
#X connect 5 0 3 0;
#X connect 6 0 2 0;
#X connect 6 1 5 0;
#X connect 7 0 3 0;
#X connect 8 0 5 0;
#X connect 8 1 7 0;
#X connect 9 0 1 0;
#X connect 12 0 18 0;
#X connect 12 1 15 0;
#X connect 13 0 12 0;
#X connect 14 0 8 0;
#X connect 15 0 6 0;
#X connect 17 0 15 1;
#X connect 18 0 15 1;
#X restore 142 277 pd PREVIEW_CONTROL;
#N canvas 414 437 427 261 TRANSLATE 0;
#X obj 39 36 loadbang;
#X obj 39 72 f \$1;
#X obj 39 204 outlet;
#X obj 39 109 sel 1 2 3 4;
#X msg 39 146 3;
#X msg 90 146 1;
#X msg 141 146 -1;
#X msg 192 146 -3;
#X text 158 25 ** TRANSLAÇÃO NO EIXO Y DE ACORDO COM CAMADA, f 23
;
#X connect 0 0 1 0;
#X connect 1 0 3 0;
#X connect 3 0 4 0;
#X connect 3 1 5 0;
#X connect 3 2 6 0;
#X connect 3 3 7 0;
#X connect 4 0 2 0;
#X connect 5 0 2 0;
#X connect 6 0 2 0;
#X connect 7 0 2 0;
#X restore 162 459 pd TRANSLATE;
#N canvas 9 56 468 209 TO_VIDEO_BUS 0;
#X obj 39 61 inlet;
#X obj 39 105 list prepend V\$1;
#X obj 39 149 s VIDEO_BUS;
#X text 35 23 ** CANAL DE SAÍDA DE CONTROLES DE VÍDEO;
#X connect 0 0 1 0;
#X connect 1 0 2 0;
#X restore 667 628 pd TO_VIDEO_BUS;
#X obj 344 117 s \$0-render;
#X obj 44 55 r \$0-render;
#N canvas 481 243 685 578 LOOP_LASTFRAME 0;
#X obj 45 333 sel;
#X obj 45 471 spigot;
#X obj 102 438 != 1;
#N canvas 517 270 662 252 COLOR 0;
#X obj 45 41 inlet;
#X obj 45 86 sel 0 1;
#X msg 45 136 color 28 28 0;
#X msg 205 136 color 18 18 22;
#X obj 408 41 loadbang;
#X msg 408 84 color 28 0 0;
#X obj 408 127 s \$0-loopMode_gui_set;
#X obj 45 186 s \$0-loop_gui_set;
#X connect 0 0 1 0;
#X connect 1 0 2 0;
#X connect 1 1 3 0;
#X connect 2 0 7 0;
#X connect 3 0 7 0;
#X connect 4 0 5 0;
#X connect 5 0 6 0;
#X restore 176 430 pd COLOR;
#X obj 102 406 t f f;
#X obj 102 373 r \$0-loop;
#X obj 45 37 r \$0-rawCursor;
#X text 91 334 IDENTIFICA FIM DO MÓDULO NO CURSOR CRU;
#X text 272 431 COR DO BOTÃO DE LOOP;
#X text 208 374 LOOP LIGADO OU NÃO;
#X text 191 530 DESLIGA VÍDEO E ÁUDIO;
#X obj 45 529 s \$0-stop_gui;
#X obj 92 235 sel;
#X obj 72 135 r \$0-modulo;
#X obj 119 203 - 1;
#X text 134 237 IDENTIFICA INÍCIO DO ÚLTIMO FRAME;
#X obj 45 71 t f f;
#X obj 72 169 t f f;
#X text 195 136 RECEBE MÓDULO;
#X obj 92 269 s \$0-lastFrame;
#X text 245 269 ENVIA BANG NO ÚLTIMO FRAME PARA ÁUDIO;
#X text 223 12 ** LOOP - DESLIGA MOTOR NO FIM DO MÓDULO SE O LOOP
NÃO ESTIVER LIGADO, f 40;
#X text 223 62 ** LASTFRAME - ENVIA BANG NO ÚLTIMO FRAME PARA UNIDADE
DE ÁUDIO, f 42;
#X connect 0 0 1 0;
#X connect 1 0 11 0;
#X connect 2 0 1 1;
#X connect 4 0 2 0;
#X connect 4 1 3 0;
#X connect 5 0 4 0;
#X connect 6 0 16 0;
#X connect 12 0 19 0;
#X connect 13 0 17 0;
#X connect 14 0 12 1;
#X connect 16 0 0 0;
#X connect 16 1 12 0;
#X connect 17 0 0 1;
#X connect 17 1 14 0;
#X restore 950 245 pd LOOP_LASTFRAME;
#X connect 1 0 2 0;
#X connect 1 1 53 0;
#X connect 2 0 24 0;
#X connect 3 0 1 0;
#X connect 4 0 5 0;
#X connect 5 0 0 0;
#X connect 6 0 2 0;
#X connect 7 0 6 0;
#X connect 10 0 12 0;
#X connect 11 0 10 1;
#X connect 12 0 11 0;
#X connect 12 0 54 0;
#X connect 13 0 15 1;
#X connect 14 0 12 1;
#X connect 15 0 10 0;
#X connect 16 0 20 0;
#X connect 16 0 21 0;
#X connect 17 0 15 0;
#X connect 18 0 17 0;
#X connect 21 0 63 0;
#X connect 22 0 23 0;
#X connect 23 0 3 0;
#X connect 23 1 55 0;
#X connect 24 0 35 0;
#X connect 26 0 32 0;
#X connect 27 0 28 0;
#X connect 28 0 30 0;
#X connect 29 0 25 0;
#X connect 30 0 26 0;
#X connect 31 0 30 0;
#X connect 32 0 29 0;
#X connect 33 0 34 0;
#X connect 34 0 64 0;
#X connect 35 0 4 0;
#X connect 36 0 0 1;
#X connect 36 1 0 2;
#X connect 37 0 26 1;
#X connect 38 0 13 0;
#X connect 39 0 40 0;
#X connect 40 0 48 0;
#X connect 41 0 16 0;
#X connect 48 0 41 0;
#X connect 49 0 48 1;
#X connect 50 0 39 0;
#X connect 51 0 10 1;
#X connect 52 0 50 0;
#X connect 52 0 47 0;
#X connect 54 0 52 0;
#X connect 56 0 51 0;
#X connect 61 0 1 0;
#X connect 61 1 1 1;
#X connect 62 0 4 2;
#X connect 62 0 32 2;
#X connect 65 0 22 0;
#X restore 280 98 pd VIDEO_UNIT;
#N canvas 79 121 806 530 ENABLE_BUTTON 0;
#X obj 50 102 t b;
#X obj 50 193 f;
#X obj 90 193 + 1;
#X obj 50 221 % 2;
#X floatatom 50 255 5 0 0 0 - - -, f 5;
#X obj 117 108 loadbang;
#X obj 50 68 r \$0-click_enable;
#X obj 327 103 sel 1;
#X obj 167 323 sel 1;
#X msg 167 353 1;
#X obj 327 69 r CH\$1_SELECT;
#X obj 167 395 s CH\$1_SELECT;
#X msg 374 169 0;
#X obj 218 276 s V\$1_ST;
#X obj 218 169 r V\$1_SET_ST;
#X msg 62 161 1;
#X obj 50 299 t f f;
#X msg 317 353 0;
#N canvas 675 219 447 276 COLOR 0;
#X obj 45 41 inlet;
#X obj 45 96 sel 0 1;
#X obj 45 207 s \$0-enable_in;
#X obj 165 120 f 13;
#X msg 165 157 color \$1 0;
#X msg 45 157 color 11 0;
#X obj 202 88 r \$0-channelColor;
#X connect 0 0 1 0;
#X connect 1 0 5 0;
#X connect 1 1 3 0;
#X connect 3 0 4 0;
#X connect 4 0 2 0;
#X connect 5 0 2 0;
#X connect 6 0 3 1;
#X restore 50 467 pd COLOR;
#X text 142 22 ** GERENCIA ESTADO DO BOTÃO PARA HABILITAR UNIDADE
;
#X obj 117 137 del 5;
#X obj 167 467 s SOURCE_BUS;
#X obj 167 437 list prepend sourceChannel\$1;
#X obj 317 395 s \$0-render;
#X obj 218 231 t b;
#X obj 218 202 r REFRESH_SOURCE;
#X obj 501 92 r \$0-externalControl;
#X obj 501 169 route enable;
#X text 498 64 RECEBE CONTROLE EXTERNO;
#X connect 0 0 1 0;
#X connect 1 0 3 0;
#X connect 2 0 1 1;
#X connect 3 0 2 0;
#X connect 3 0 4 0;
#X connect 4 0 13 0;
#X connect 4 0 16 0;
#X connect 5 0 20 0;
#X connect 6 0 0 0;
#X connect 7 1 12 0;
#X connect 8 0 9 0;
#X connect 8 1 17 0;
#X connect 9 0 11 0;
#X connect 9 0 22 0;
#X connect 10 0 7 0;
#X connect 12 0 1 0;
#X connect 14 0 1 0;
#X connect 15 0 1 0;
#X connect 16 0 18 0;
#X connect 16 1 8 0;
#X connect 17 0 23 0;
#X connect 20 0 15 0;
#X connect 22 0 21 0;
#X connect 24 0 4 0;
#X connect 25 0 24 0;
#X connect 26 0 27 0;
#X connect 27 0 1 0;
#X restore 280 166 pd ENABLE_BUTTON;
#N canvas 443 371 670 276 CHANNEL_COLOR 0;
#X obj 47 71 f \$1;
#X obj 47 107 sel 1 2 3 4;
#X msg 47 144 13;
#X msg 196 144 16;
#X msg 97 144 15;
#X obj 47 35 loadbang;
#X msg 147 144 19;
#X msg 437 180 color \$1;
#X text 435 96 IDENTIFICA JANELA DE CONFIG. DE ÁUDIO, f 19;
#X text 183 24 ** DETERMINA COR PADRÃO DO CANAL;
#X obj 437 209 s \$0-audioWinBar;
#X obj 437 151 r \$0-channelColor;
#X obj 47 209 s \$0-channelColor;
#X obj 265 209 s \$0-bgColor;
#X msg 265 144 28;
#X connect 0 0 1 0;
#X connect 1 0 2 0;
#X connect 1 1 4 0;
#X connect 1 2 6 0;
#X connect 1 3 3 0;
#X connect 2 0 12 0;
#X connect 3 0 12 0;
#X connect 4 0 12 0;
#X connect 5 0 0 0;
#X connect 5 0 14 0;
#X connect 6 0 12 0;
#X connect 7 0 10 0;
#X connect 11 0 7 0;
#X connect 14 0 13 0;
#X restore 280 200 pd CHANNEL_COLOR;
#N canvas 57 54 1304 709 AUDIO_UNIT 0;
#X obj 370 483 / 48000;
#X obj 298 1436 *~;
#X obj 325 1406 line~;
#X obj 518 1436 *~;
#X obj 545 1406 line~;
#X obj 297 536 /;
#X obj 297 858 sig~;
#X msg 384 875 0;
#X obj 297 903 phasor~ 0;
#X obj 297 1181 +~;
#X msg 384 834 0;
#X obj 297 436 f 1;
#X text 462 414 TRANSPOSIÇÃO;
#X text 427 876 RESETA FASE;
#X floatatom 404 415 5 0 0 0 - - -, f 5;
#X text 427 835 DESLIGA FASE;
#X text 452 484 CALCULA FREQUÊNCIA DA FASE;
#X text 544 1130 OFFSET EM SAMPLES;
#X text 544 1052 MÓDULO EM SAMPLES;
#N canvas 151 115 392 389 AUDIO_BANK 0;
#X obj 85 110 arrast_audioslot \$0 1;
#X text 53 29 ** BANCO DE ÁUDIOS RELATIVOS A CADA SLOT DE VÍDEO,
f 28;
#X obj 85 140 arrast_audioslot \$0 2;
#X obj 85 170 arrast_audioslot \$0 3;
#X obj 85 200 arrast_audioslot \$0 4;
#X obj 85 230 arrast_audioslot \$0 5;
#X obj 85 260 arrast_audioslot \$0 6;
#X obj 85 290 arrast_audioslot \$0 7;
#X obj 85 320 arrast_audioslot \$0 8;
#X restore 27 75 pd AUDIO_BANK;
#X obj 298 1255 tabread4~;
#X obj 518 1255 tabread4~;
#N canvas 415 143 604 437 ARRAY_SET 0;
#X obj 104 397 outlet ARRAY_L;
#X msg 104 353 set \$2-\$1_L;
#X obj 104 268 pack f \$0;
#X msg 304 353 set \$2-\$1_R;
#X obj 304 397 outlet ARRAY_R;
#X floatatom 57 69 5 0 0 0 - - -, f 5;
#X text 116 68 SLOT ATUAL;
#X text 253 21 ** DETERMINA ARRAYS PARA LEITURA DE ACORDO COM SLOT
ATIVO, f 32;
#X obj 57 34 r \$0-activeSlot;
#X obj 57 137 t b f b;
#X obj 104 302 t l l;
#X obj 57 195 t b b;
#X obj 104 234 f 1;
#X msg 232 219 1;
#X msg 279 219 0;
#X obj 232 253 s \$0-cut5;
#X obj 57 166 del 50;
#X obj 57 108 clip 1 8;
#X connect 1 0 0 0;
#X connect 2 0 10 0;
#X connect 3 0 4 0;
#X connect 5 0 17 0;
#X connect 8 0 5 0;
#X connect 9 0 16 0;
#X connect 9 1 12 1;
#X connect 9 2 14 0;
#X connect 10 0 1 0;
#X connect 10 1 3 0;
#X connect 11 0 13 0;
#X connect 11 1 12 0;
#X connect 12 0 2 0;
#X connect 13 0 15 0;
#X connect 14 0 15 0;
#X connect 16 0 11 0;
#X connect 17 0 9 0;
#X restore 488 1199 pd ARRAY_SET;
#X obj 384 688 r \$0-stop;
#X msg 404 355 1 \$1;
#X obj 404 385 /;
#X obj 404 320 r \$0-audioSpeed;
#X obj 384 719 t b b;
#X obj 384 781 t b b;
#N canvas 494 60 737 703 MODULO_OFFSET 0;
#X obj 371 634 <;
#X obj 371 597 t f f;
#X obj 441 597 t f f;
#X obj 461 710 f;
#X obj 371 710 f;
#X obj 371 674 sel 1 0;
#X obj 47 250 -;
#X obj 85 226 t b f;
#X obj 47 285 abs;
#X obj 371 561 f;
#X obj 441 561 f;
#X obj 94 769 t b b f;
#X obj 85 195 t f f;
#X obj 47 109 t f f;
#X obj 161 913 s \$0-audioModulo;
#X obj 371 913 s \$0-audioOffset;
#X obj 575 763 unpack f f;
#X obj 161 807 *;
#X obj 161 876 int;
#X obj 371 807 *;
#X obj 371 876 int;
#X text 118 105 RECEBE SLIDERS DE ENTRADA E SAíDA DO VÍDEO, f 25
;
#X text 204 808 MÓDULO;
#X text 414 808 OFFSET;
#X obj 47 66 r \$0-inSet;
#X obj 85 165 r \$0-outSet;
#X obj 512 66 inlet REFRESH;
#X obj 512 852 t b b;
#X text 527 99 REENVIA VALORES;
#X obj 371 749 t f;
#X obj 47 391 spigot;
#X obj 104 321 r \$0-ioMode;
#X obj 47 321 t f f;
#X obj 67 560 f;
#X obj 67 489 spigot;
#X obj 124 459 == 0;
#X obj 104 361 t f f;
#X text 170 663 PREVINE CLIQUES;
#X obj 94 735 f;
#X obj 47 607 t b b f;
#X obj 47 666 t b b;
#X obj 528 434 r \$0-totalSamples;
#X text 228 319 IO MODE - 0 = NO INÍCIO DO MÓDULO (SEM GLITCH) \,
1 = DIRETO (GLITCH), f 33;
#X obj 67 427 r \$0-hardSync;
#X obj 528 468 t b l;
#X msg 224 690 0;
#X msg 171 690 1;
#X text 47 17 ** CALCULA MÓDULO E OFFSET EM SAMPLES PARA REPRODUÇÃO
DO ÁUDIO, f 62;
#X obj 171 722 s \$0-cut3;
#X obj 47 637 del 25;
#X obj 178 492 del 5;
#X text 212 426 ATUALIZA NO INÍCIO DO MÓDULO;
#X text 241 493 ATUALIZA QUANDO MUDA SLOT;
#X text 526 386 NÚMERO DE SAMPLES DO SLOT ATIVO, f 17;
#X connect 0 0 5 0;
#X connect 1 0 0 0;
#X connect 1 1 4 1;
#X connect 2 0 0 1;
#X connect 2 1 3 1;
#X connect 3 0 29 0;
#X connect 4 0 29 0;
#X connect 5 0 4 0;
#X connect 5 1 3 0;
#X connect 6 0 8 0;
#X connect 7 0 6 0;
#X connect 7 1 6 1;
#X connect 8 0 32 0;
#X connect 9 0 1 0;
#X connect 10 0 2 0;
#X connect 11 0 9 0;
#X connect 11 1 10 0;
#X connect 11 2 17 0;
#X connect 12 0 7 0;
#X connect 12 1 10 1;
#X connect 13 0 6 0;
#X connect 13 1 9 1;
#X connect 16 0 17 1;
#X connect 16 0 19 1;
#X connect 17 0 18 0;
#X connect 18 0 14 0;
#X connect 19 0 20 0;
#X connect 20 0 15 0;
#X connect 24 0 13 0;
#X connect 25 0 12 0;
#X connect 26 0 27 0;
#X connect 27 0 18 0;
#X connect 27 1 20 0;
#X connect 29 0 19 0;
#X connect 30 0 39 0;
#X connect 31 0 36 0;
#X connect 32 0 30 0;
#X connect 32 1 33 1;
#X connect 33 0 39 0;
#X connect 34 0 33 0;
#X connect 35 0 34 1;
#X connect 36 0 30 1;
#X connect 36 1 35 0;
#X connect 38 0 11 0;
#X connect 39 0 49 0;
#X connect 39 1 45 0;
#X connect 39 2 38 1;
#X connect 40 0 46 0;
#X connect 40 1 38 0;
#X connect 41 0 44 0;
#X connect 43 0 34 0;
#X connect 44 0 50 0;
#X connect 44 1 16 0;
#X connect 45 0 48 0;
#X connect 46 0 48 0;
#X connect 49 0 40 0;
#X connect 50 0 33 0;
#X restore 915 522 pd MODULO_OFFSET;
#X obj 370 453 r \$0-audioModulo;
#X obj 371 1129 r \$0-audioOffset;
#X text 913 551 CALCULA MÓDULO E OFFSET EM SAMPLES;
#X obj 297 1103 *~;
#N canvas 388 219 649 232 AUDIO_CONFIG_GUI 0;
#X text 197 68 JANELA DE CONFIGURAÇÃO DE ÁUDIO;
#N canvas 875 459 210 304 \$0-audioGUI 0;
#X obj 2 1 cnv 15 205 300 empty empty empty 20 12 0 14 -1 -66577 0
;
#X obj 12 11 cnv 15 185 280 empty empty empty 20 12 0 14 -228856 -66577
0;
#X obj 52 99 cnv 15 75 20 empty empty CUT/BOOST 8 11 0 12 -233017 -66577
0;
#X obj 34 120 hradio 20 1 0 7 \$0-boost_gui \$0-boost_gui_set empty
0 -8 0 10 -262144 -1 -1 3;
#X obj 122 99 cnv 15 35 20 empty empty (dB) 3 11 0 12 -228856 -66577
0;
#X obj 34 141 cnv 15 20 15 empty empty -12 -1 8 0 10 -228856 -66577
0;
#X obj 57 141 cnv 15 20 15 empty empty -6 0 8 0 10 -228856 -66577 0
;
#X obj 74 141 cnv 15 20 15 empty empty -3 3 8 0 10 -228856 -66577 0
;
#X obj 94 141 cnv 15 20 15 empty empty 0 8 8 0 10 -228856 -66577 0
;
#X obj 114 141 cnv 15 20 15 empty empty 3 8 8 0 10 -228856 -66577 0
;
#X obj 137 141 cnv 15 20 15 empty empty 6 5 8 0 10 -228856 -66577 0
;
#X obj 154 141 cnv 15 20 15 empty empty 12 5 8 0 10 -228856 -66577
0;
#X obj 44 37 cnv 15 85 20 empty empty SAMPLERATE 8 11 0 12 -233017
-66577 0;
#X obj 122 37 cnv 15 35 20 empty empty (kHz) 3 11 0 12 -228856 -66577
0;
#X obj 63 58 hradio 20 1 0 4 \$0-samplerate_gui \$0-samplerate_gui_set
empty 0 -8 0 10 -262144 -1 -1 2;
#X obj 69 79 cnv 15 20 15 empty empty 22 0 8 0 10 -228856 -66577 0
;
#X obj 89 79 cnv 15 20 15 empty empty 44 0 8 0 10 -228856 -66577 0
;
#X obj 109 79 cnv 15 20 15 empty empty 48 0 8 0 10 -228856 -66577 0
;
#X obj 129 79 cnv 15 20 15 empty empty 96 0 8 0 10 -228856 -66577 0
;
#X obj 78 200 vradio 20 1 0 4 \$0-avAmp_gui \$0-avAmp_gui_set empty
0 -8 0 10 -262144 -1 -1 1;
#X obj 64 161 cnv 15 80 20 empty empty AV_MATRIX 8 11 0 12 -228856
-66577 0;
#X obj 80 182 cnv 15 20 15 empty empty AMP 0 8 0 10 -228856 -66577
0;
#X obj 104 200 vradio 20 1 0 4 \$0-avLop_gui \$0-avLop_gui_set empty
0 -8 0 10 -262144 -1 -1 2;
#X obj 106 182 cnv 15 20 15 empty empty LOP 0 8 0 10 -228856 -66577
0;
#X obj 130 200 vradio 20 1 0 4 \$0-avHip_gui \$0-avHip_gui_set empty
0 -8 0 10 -262144 -1 -1 3;
#X obj 132 182 cnv 15 20 15 empty empty HIP 0 8 0 10 -228856 -66577
0;
#X obj 55 202 cnv 15 20 15 empty empty OFF 0 8 0 10 -228856 -66577
0;
#X obj 37 222 cnv 15 20 15 empty empty TRANSP 0 8 0 10 -228856 -66577
0;
#X obj 31 242 cnv 15 20 15 empty empty WHT_THR 0 8 0 10 -228856 -66577
0;
#X obj 31 262 cnv 15 20 15 empty empty BLK_THR 0 8 0 10 -228856 -66577
0;
#X obj 12 11 cnv 15 185 20 empty \$0-audioWinBar AUDIO_CONFIG 43 10
0 14 -24198 -1 0;
#X restore 46 67 pd \$0-audioGUI;
#X obj 46 117 r \$0-click_audioGUI;
#X obj 46 175 s pd-\$0-audioGUI;
#X text 250 117 CHAMA JANELA DA INTERFACE PRINCIPAL;
#X msg 46 146 vis 1;
#X text 103 15 ** GERENCIA JANELA DE CONFIGURAÇÃO DO ÁUDIO;
#X connect 2 0 5 0;
#X connect 5 0 3 0;
#X restore 27 113 pd AUDIO_CONFIG_GUI;
#X text 134 20 ** REPRODUTOR DE ÁUDIO BASEADO EM [phasor~] PARA PERMITIR
ALTERAÇÃO DA VELOCIDADE DURANTE REPRODUÇÃO, f 100;
#X obj 915 372 r \$0-samplerate;
#X obj 915 401 sel 0 1 2 3;
#X msg 915 430 22050;
#X msg 975 430 44100;
#X msg 1035 430 48000;
#X msg 1095 430 96000;
#X text 913 345 RECEBE SAMPLERATE DA GUI;
#X obj 675 1249 r \$0-boost;
#X obj 675 1283 sel 0 1 2 3 4 5 6;
#X msg 795 1317 100;
#X obj 675 1351 dbtorms;
#X msg 675 1317 88;
#X msg 715 1317 94;
#X msg 755 1317 97;
#X msg 835 1317 103;
#X msg 875 1317 106;
#X msg 914 1317 112;
#X text 763 1353 APLICA CORREÇÃO DE GANHO EM dB;
#N canvas 13 413 535 350 AV_MATRIX 0;
#X obj 64 42 inlet~;
#X obj 174 42 inlet~;
#X obj 64 292 outlet~;
#X obj 174 292 outlet~;
#N canvas 100 54 1167 709 HIP~ 0;
#X obj 64 42 inlet~;
#X obj 174 42 inlet~;
#X obj 64 780 outlet~;
#X obj 174 780 outlet~;
#N canvas 563 102 595 479 ST_GATE~ 0;
#X obj 53 91 inlet~;
#X obj 163 91 inlet~;
#X obj 53 411 outlet~;
#X obj 163 411 outlet~;
#X obj 80 237 pack 0 30;
#X obj 80 266 line~;
#X obj 53 295 *~;
#X obj 190 237 pack 0 30;
#X obj 190 266 line~;
#X obj 163 295 *~;
#X obj 313 411 outlet~;
#X obj 423 411 outlet~;
#X obj 340 237 pack 0 30;
#X obj 340 266 line~;
#X obj 313 295 *~;
#X obj 450 237 pack 0 30;
#X obj 450 266 line~;
#X obj 423 295 *~;
#X text 53 38 ** ROTEADOR DE ÁUDIO ESTÉREO (1 ENTRADA 2 SAÍDAS)
;
#X obj 343 91 inlet CONTROL;
#X obj 343 150 == 0;
#X obj 343 120 t f f;
#X obj 343 180 t f f;
#X obj 403 180 t f f;
#X connect 0 0 6 0;
#X connect 0 0 14 0;
#X connect 1 0 9 0;
#X connect 1 0 17 0;
#X connect 4 0 5 0;
#X connect 5 0 6 1;
#X connect 6 0 2 0;
#X connect 7 0 8 0;
#X connect 8 0 9 1;
#X connect 9 0 3 0;
#X connect 12 0 13 0;
#X connect 13 0 14 1;
#X connect 14 0 10 0;
#X connect 15 0 16 0;
#X connect 16 0 17 1;
#X connect 17 0 11 0;
#X connect 19 0 21 0;
#X connect 20 0 22 0;
#X connect 21 0 20 0;
#X connect 21 1 23 0;
#X connect 22 0 4 0;
#X connect 22 1 7 0;
#X connect 23 0 12 0;
#X connect 23 1 15 0;
#X restore 65 516 pd ST_GATE~;
#X obj 358 319 f;
#X text 404 319 0 A 1;
#X obj 358 197 spigot;
#X obj 428 197 spigot;
#X obj 498 197 spigot;
#X obj 321 82 moses 1;
#X obj 321 111 t b;
#X msg 321 150 0;
#X obj 415 150 == 1;
#X obj 485 150 == 2;
#X obj 555 150 == 3;
#X obj 358 226 - 1;
#X obj 358 255 abs;
#X obj 654 95 route T\$1;
#X obj 654 124 route transp white black;
#X obj 654 65 list trim;
#X text 794 32 RECEBE CONTROLES DA INTERFACE DE TRANSFORMAÇÕES DO
PRESENTE CANAL, f 32;
#X obj 654 173 f;
#X obj 733 173 f;
#X obj 812 173 f;
#X obj 358 285 t f;
#X obj 388 111 t b b b f f f b;
#X msg 361 150 1;
#X text 439 49 SELECIONA FONTE DE CONTROLE, f 15;
#X text 189 515 CHAVE;
#X obj 321 53 r \$0-avHip;
#X text 401 238 INVERTE 0/1;
#X obj 358 358 t f f;
#X obj 358 387 *;
#X obj 358 418 t f f;
#X obj 358 447 *;
#X text 403 684 24 dB POR OITAVA - 6 dB POR [hip~];
#X text 431 396 CURVA EXPONENCIAL;
#X obj 654 36 r TRANSF_BUS;
#X obj 358 511 + 20;
#X obj 358 541 clip 20 20000;
#X obj 358 573 pack 0 100;
#X obj 358 602 line~;
#X text 502 541 FREQUÊNCIA;
#X obj 136 641 hip.mmb~;
#X obj 136 671 hip.mmb~;
#X obj 136 701 hip.mmb~;
#X obj 136 731 hip.mmb~;
#X obj 281 641 hip.mmb~;
#X obj 281 671 hip.mmb~;
#X obj 281 701 hip.mmb~;
#X obj 281 731 hip.mmb~;
#X obj 358 482 * 6280;
#X connect 0 0 4 0;
#X connect 1 0 4 1;
#X connect 4 0 2 0;
#X connect 4 1 3 0;
#X connect 4 2 44 0;
#X connect 4 3 48 0;
#X connect 5 0 32 0;
#X connect 7 0 16 0;
#X connect 8 0 16 0;
#X connect 9 0 25 0;
#X connect 10 0 11 0;
#X connect 10 1 26 0;
#X connect 11 0 12 0;
#X connect 12 0 4 2;
#X connect 13 0 7 1;
#X connect 14 0 8 1;
#X connect 15 0 9 1;
#X connect 16 0 17 0;
#X connect 17 0 25 0;
#X connect 18 0 19 0;
#X connect 19 0 22 0;
#X connect 19 1 23 0;
#X connect 19 2 24 0;
#X connect 20 0 18 0;
#X connect 22 0 7 0;
#X connect 23 0 8 0;
#X connect 24 0 9 0;
#X connect 25 0 5 0;
#X connect 26 0 22 0;
#X connect 26 1 23 0;
#X connect 26 2 24 0;
#X connect 26 3 13 0;
#X connect 26 4 14 0;
#X connect 26 5 15 0;
#X connect 26 6 27 0;
#X connect 27 0 4 2;
#X connect 30 0 10 0;
#X connect 32 0 33 0;
#X connect 32 1 33 1;
#X connect 33 0 34 0;
#X connect 34 0 35 0;
#X connect 34 1 35 1;
#X connect 35 0 52 0;
#X connect 38 0 20 0;
#X connect 39 0 40 0;
#X connect 40 0 41 0;
#X connect 41 0 42 0;
#X connect 42 0 44 1;
#X connect 42 0 45 1;
#X connect 42 0 46 1;
#X connect 42 0 47 1;
#X connect 42 0 48 1;
#X connect 42 0 49 1;
#X connect 42 0 50 1;
#X connect 42 0 51 1;
#X connect 44 0 45 0;
#X connect 45 0 46 0;
#X connect 46 0 47 0;
#X connect 47 0 2 0;
#X connect 48 0 49 0;
#X connect 49 0 50 0;
#X connect 50 0 51 0;
#X connect 51 0 3 0;
#X connect 52 0 39 0;
#X restore 65 120 pd HIP~;
#N canvas 181 54 1158 709 LOP~ 0;
#X obj 64 42 inlet~;
#X obj 174 42 inlet~;
#X obj 64 760 outlet~;
#X obj 174 760 outlet~;
#N canvas 555 98 595 479 ST_GATE~ 0;
#X obj 53 91 inlet~;
#X obj 163 91 inlet~;
#X obj 53 411 outlet~;
#X obj 163 411 outlet~;
#X obj 80 237 pack 0 30;
#X obj 80 266 line~;
#X obj 53 295 *~;
#X obj 190 237 pack 0 30;
#X obj 190 266 line~;
#X obj 163 295 *~;
#X obj 313 411 outlet~;
#X obj 423 411 outlet~;
#X obj 340 237 pack 0 30;
#X obj 340 266 line~;
#X obj 313 295 *~;
#X obj 450 237 pack 0 30;
#X obj 450 266 line~;
#X obj 423 295 *~;
#X text 53 38 ** ROTEADOR DE ÁUDIO ESTÉREO (1 ENTRADA 2 SAÍDAS)
;
#X obj 343 91 inlet CONTROL;
#X obj 343 150 == 0;
#X obj 343 120 t f f;
#X obj 343 180 t f f;
#X obj 403 180 t f f;
#X connect 0 0 6 0;
#X connect 0 0 14 0;
#X connect 1 0 9 0;
#X connect 1 0 17 0;
#X connect 4 0 5 0;
#X connect 5 0 6 1;
#X connect 6 0 2 0;
#X connect 7 0 8 0;
#X connect 8 0 9 1;
#X connect 9 0 3 0;
#X connect 12 0 13 0;
#X connect 13 0 14 1;
#X connect 14 0 10 0;
#X connect 15 0 16 0;
#X connect 16 0 17 1;
#X connect 17 0 11 0;
#X connect 19 0 21 0;
#X connect 20 0 22 0;
#X connect 21 0 20 0;
#X connect 21 1 23 0;
#X connect 22 0 4 0;
#X connect 22 1 7 0;
#X connect 23 0 12 0;
#X connect 23 1 15 0;
#X restore 65 446 pd ST_GATE~;
#X obj 358 550 pack 0 100;
#X obj 358 319 f;
#X text 404 319 0 A 1;
#X obj 358 388 *;
#X obj 358 358 t f f;
#X text 417 391 CURVA EXPONENCIAL;
#X obj 358 197 spigot;
#X obj 428 197 spigot;
#X obj 498 197 spigot;
#X obj 321 82 moses 1;
#X obj 321 111 t b;
#X msg 321 150 0;
#X obj 415 150 == 1;
#X obj 485 150 == 2;
#X obj 555 150 == 3;
#X obj 498 232 - 1;
#X obj 498 261 abs;
#X obj 654 95 route T\$1;
#X obj 654 124 route transp white black;
#X obj 654 65 list trim;
#X text 789 32 RECEBE CONTROLES DA INTERFACE DE TRANSFORMAÇÕES DO
PRESENTE CANAL, f 32;
#X obj 654 173 f;
#X obj 733 173 f;
#X obj 812 173 f;
#X obj 358 285 t f;
#X obj 388 111 t b b b f f f b;
#X msg 361 150 1;
#X text 439 49 SELECIONA FONTE DE CONTROLE, f 15;
#X text 189 445 CHAVE;
#X text 541 244 INVERTE 0/1;
#X obj 321 53 r \$0-avLop;
#X text 393 664 24 dB POR OITAVA - 6 dB POR [lop~];
#X obj 358 448 *;
#X obj 358 418 t f f;
#X obj 358 482 * 20000;
#X obj 358 516 clip 20 20000;
#X obj 654 36 r TRANSF_BUS;
#X obj 358 584 line~;
#X obj 137 621 lop.mmb~;
#X obj 137 651 lop.mmb~;
#X obj 137 681 lop.mmb~;
#X obj 137 711 lop.mmb~;
#X obj 280 621 lop.mmb~;
#X obj 280 651 lop.mmb~;
#X obj 280 681 lop.mmb~;
#X obj 280 711 lop.mmb~;
#X text 502 517 FREQUÊNCIA;
#X connect 0 0 4 0;
#X connect 1 0 4 1;
#X connect 4 0 2 0;
#X connect 4 1 3 0;
#X connect 4 2 43 0;
#X connect 4 3 47 0;
#X connect 5 0 42 0;
#X connect 6 0 9 0;
#X connect 8 0 38 0;
#X connect 9 0 8 0;
#X connect 9 1 8 1;
#X connect 11 0 29 0;
#X connect 12 0 29 0;
#X connect 13 0 20 0;
#X connect 14 0 15 0;
#X connect 14 1 30 0;
#X connect 15 0 16 0;
#X connect 16 0 4 2;
#X connect 17 0 11 1;
#X connect 18 0 12 1;
#X connect 19 0 13 1;
#X connect 20 0 21 0;
#X connect 21 0 29 0;
#X connect 22 0 23 0;
#X connect 23 0 26 0;
#X connect 23 1 27 0;
#X connect 23 2 28 0;
#X connect 24 0 22 0;
#X connect 26 0 11 0;
#X connect 27 0 12 0;
#X connect 28 0 13 0;
#X connect 29 0 6 0;
#X connect 30 0 26 0;
#X connect 30 1 27 0;
#X connect 30 2 28 0;
#X connect 30 3 17 0;
#X connect 30 4 18 0;
#X connect 30 5 19 0;
#X connect 30 6 31 0;
#X connect 31 0 4 2;
#X connect 35 0 14 0;
#X connect 37 0 39 0;
#X connect 38 0 37 0;
#X connect 38 1 37 1;
#X connect 39 0 40 0;
#X connect 40 0 5 0;
#X connect 41 0 24 0;
#X connect 42 0 47 1;
#X connect 42 0 48 1;
#X connect 42 0 49 1;
#X connect 42 0 50 1;
#X connect 42 0 43 1;
#X connect 42 0 44 1;
#X connect 42 0 45 1;
#X connect 42 0 46 1;
#X connect 43 0 44 0;
#X connect 44 0 45 0;
#X connect 45 0 46 0;
#X connect 46 0 2 0;
#X connect 47 0 48 0;
#X connect 48 0 49 0;
#X connect 49 0 50 0;
#X connect 50 0 3 0;
#X restore 65 160 pd LOP~;
#X text 165 148 ** MATRIZ DE CONTROLES A PARTIR DE PARÂMETROS DOS
VÍDEOS, f 31;
#N canvas 13 55 1155 626 AMP~ 0;
#X obj 64 42 inlet~;
#X obj 174 42 inlet~;
#X obj 64 560 outlet~;
#X obj 174 560 outlet~;
#N canvas 555 98 595 479 ST_GATE~ 0;
#X obj 53 91 inlet~;
#X obj 163 91 inlet~;
#X obj 53 411 outlet~;
#X obj 163 411 outlet~;
#X obj 80 237 pack 0 30;
#X obj 80 266 line~;
#X obj 53 295 *~;
#X obj 190 237 pack 0 30;
#X obj 190 266 line~;
#X obj 163 295 *~;
#X obj 313 411 outlet~;
#X obj 423 411 outlet~;
#X obj 340 237 pack 0 30;
#X obj 340 266 line~;
#X obj 313 295 *~;
#X obj 450 237 pack 0 30;
#X obj 450 266 line~;
#X obj 423 295 *~;
#X text 53 38 ** ROTEADOR DE ÁUDIO ESTÉREO (1 ENTRADA 2 SAÍDAS)
;
#X obj 343 91 inlet CONTROL;
#X obj 343 150 == 0;
#X obj 343 120 t f f;
#X obj 343 180 t f f;
#X obj 403 180 t f f;
#X connect 0 0 6 0;
#X connect 0 0 14 0;
#X connect 1 0 9 0;
#X connect 1 0 17 0;
#X connect 4 0 5 0;
#X connect 5 0 6 1;
#X connect 6 0 2 0;
#X connect 7 0 8 0;
#X connect 8 0 9 1;
#X connect 9 0 3 0;
#X connect 12 0 13 0;
#X connect 13 0 14 1;
#X connect 14 0 10 0;
#X connect 15 0 16 0;
#X connect 16 0 17 1;
#X connect 17 0 11 0;
#X connect 19 0 21 0;
#X connect 20 0 22 0;
#X connect 21 0 20 0;
#X connect 21 1 23 0;
#X connect 22 0 4 0;
#X connect 22 1 7 0;
#X connect 23 0 12 0;
#X connect 23 1 15 0;
#X restore 65 446 pd ST_GATE~;
#X obj 358 319 f;
#X text 404 319 0 A 1;
#X obj 358 388 *;
#X obj 358 358 t f f;
#X text 417 391 CURVA EXPONENCIAL;
#X obj 358 197 spigot;
#X obj 428 197 spigot;
#X obj 498 197 spigot;
#X obj 321 82 moses 1;
#X obj 321 111 t b;
#X msg 321 150 0;
#X obj 415 150 == 1;
#X obj 485 150 == 2;
#X obj 555 150 == 3;
#X obj 498 232 - 1;
#X obj 498 261 abs;
#X obj 654 95 route T\$1;
#X obj 654 124 route transp white black;
#X obj 654 65 list trim;
#X text 789 32 RECEBE CONTROLES DA INTERFACE DE TRANSFORMAÇÕES DO
PRESENTE CANAL, f 32;
#X obj 654 173 f;
#X obj 733 173 f;
#X obj 812 173 f;
#X obj 358 285 t f;
#X obj 388 111 t b b b f f f b;
#X msg 361 150 1;
#X text 439 49 SELECIONA FONTE DE CONTROLE, f 15;
#X text 189 445 CHAVE;
#X text 541 244 INVERTE 0/1;
#X obj 358 429 pack 0 50;
#X obj 331 502 *~;
#X obj 358 458 line~;
#X obj 251 502 *~;
#X obj 321 53 r \$0-avAmp;
#X obj 654 36 r TRANSF_BUS;
#X connect 0 0 4 0;
#X connect 1 0 4 1;
#X connect 4 0 2 0;
#X connect 4 1 3 0;
#X connect 4 2 37 0;
#X connect 4 3 35 0;
#X connect 5 0 8 0;
#X connect 7 0 34 0;
#X connect 8 0 7 0;
#X connect 8 1 7 1;
#X connect 10 0 28 0;
#X connect 11 0 28 0;
#X connect 12 0 19 0;
#X connect 13 0 14 0;
#X connect 13 1 29 0;
#X connect 14 0 15 0;
#X connect 15 0 4 2;
#X connect 16 0 10 1;
#X connect 17 0 11 1;
#X connect 18 0 12 1;
#X connect 19 0 20 0;
#X connect 20 0 28 0;
#X connect 21 0 22 0;
#X connect 22 0 25 0;
#X connect 22 1 26 0;
#X connect 22 2 27 0;
#X connect 23 0 21 0;
#X connect 25 0 10 0;
#X connect 26 0 11 0;
#X connect 27 0 12 0;
#X connect 28 0 5 0;
#X connect 29 0 25 0;
#X connect 29 1 26 0;
#X connect 29 2 27 0;
#X connect 29 3 16 0;
#X connect 29 4 17 0;
#X connect 29 5 18 0;
#X connect 29 6 30 0;
#X connect 30 0 4 2;
#X connect 34 0 36 0;
#X connect 35 0 3 0;
#X connect 36 0 35 1;
#X connect 36 0 37 1;
#X connect 37 0 2 0;
#X connect 38 0 13 0;
#X connect 39 0 23 0;
#X restore 65 200 pd AMP~;
#X connect 0 0 4 0;
#X connect 1 0 4 1;
#X connect 4 0 5 0;
#X connect 4 1 5 1;
#X connect 5 0 7 0;
#X connect 5 1 7 1;
#X connect 7 0 2 0;
#X connect 7 1 3 0;
#X restore 298 1490 pd AV_MATRIX;
#X obj 298 1601 hip~ 5;
#X obj 415 1601 hip~ 5;
#X text 490 1602 CORRIGE DC OFFSET;
#X text 435 1490 MATRIZ DE CONTROLES A PARTIR DE PARÂMETROS DOS VÍDEOS
;
#X obj 404 121 r \$0-motor;
#X obj 404 155 sel 1 0;
#X text 518 117 RECEBE ESTADO DA REPRODUÇÃO DO VÍDEO (PAUSE), f
27;
#X obj 915 75 r \$0-audio;
#X obj 1002 144 t b b;
#X obj 915 144 t b b;
#X obj 915 112 sel 1 0;
#X obj 962 248 switch~;
#X msg 962 216 1;
#X msg 1002 216 0;
#X text 1029 74 LIGA/DESLIGA ÁUDIO;
#X text 624 1199 DEFINE TABELAS PARA LEITURA;
#X text 488 689 CORTA ÁUDIO QUANDO VÍDEO PARA;
#X text 566 320 RECEBE VELOCIDADE DE REPRODUÇÃO;
#X obj 354 616 r \$0-motor;
#X obj 297 647 spigot;
#X text 471 613 SÓ ALTERA FREQUÊNCIA DA FASE COM MOTOR DE VÍDEO
LIGADO, f 28;
#N canvas 476 101 463 563 DIRECTION 0;
#X obj 138 187 r \$0-loopInv;
#X obj 138 247 sel 0 1;
#X obj 50 34 inlet;
#X obj 50 491 outlet;
#X obj 50 453 * 1;
#X msg 138 277 1;
#X msg 188 277 -1;
#X obj 299 86 r \$0-loopMode;
#X obj 299 145 t f f;
#X obj 299 175 sel 0;
#X obj 138 308 spigot;
#X obj 162 86 r \$0-loop;
#X obj 138 216 change;
#X obj 299 115 change;
#X obj 138 338 spigot;
#X obj 50 139 + 0;
#X msg 299 345 1;
#X obj 162 115 t b f f;
#X obj 229 145 sel 0;
#X text 140 32 ** INVERSÃO PELO LOOP MODO 1;
#X obj 138 369 t b b f b;
#X msg 225 427 0;
#X obj 225 461 s \$0-cut4;
#X msg 275 427 1;
#X obj 138 403 del 25;
#X connect 0 0 12 0;
#X connect 1 0 5 0;
#X connect 1 1 6 0;
#X connect 2 0 15 0;
#X connect 4 0 3 0;
#X connect 5 0 10 0;
#X connect 6 0 10 0;
#X connect 7 0 13 0;
#X connect 8 0 9 0;
#X connect 8 1 14 1;
#X connect 9 0 16 0;
#X connect 10 0 14 0;
#X connect 11 0 17 0;
#X connect 12 0 1 0;
#X connect 13 0 8 0;
#X connect 14 0 20 0;
#X connect 15 0 4 0;
#X connect 16 0 20 0;
#X connect 17 0 15 0;
#X connect 17 1 10 1;
#X connect 17 2 18 0;
#X connect 18 0 16 0;
#X connect 20 0 24 0;
#X connect 20 1 4 0;
#X connect 20 2 4 1;
#X connect 20 3 21 0;
#X connect 21 0 22 0;
#X connect 23 0 22 0;
#X connect 24 0 23 0;
#X restore 297 572 pd DIRECTION;
#X text 428 572 DIREÇÃO DA RAMPA DE ACORDO COM MODO DE LOOP;
#X msg 325 1375 \$1 20;
#X msg 545 1375 \$1 20;
#N canvas 474 140 637 588 IO_INVERT~ 0;
#X text 112 20 ** INVERTE DIREÇÃO DA FASE CASO PONTO DE ENTRADA SEJA
MAIOR DO QUE PONTO DE SAÍDA, f 40;
#X text 343 89 RECEBE COMANDO DE INVERSÃO DO VÍDEO, f 17;
#X obj 51 474 +~;
#X obj 51 533 outlet~;
#X obj 51 93 inlet~;
#X obj 51 425 *~;
#X obj 221 425 *~;
#X obj 78 360 == 0;
#X obj 221 326 -~ 1;
#X obj 220 355 abs~;
#X text 273 356 CALCULA FASE INVERTIDA;
#X obj 228 161 t f b b;
#X obj 261 227 t b b;
#X obj 201 251 f;
#X obj 201 280 t f f;
#X obj 248 396 sig~;
#X obj 78 396 sig~;
#X obj 228 93 r \$0-ioInv;
#X obj 228 122 change -1;
#X msg 291 271 1;
#X msg 341 271 0;
#X obj 291 303 s \$0-cut4;
#X text 397 266 USA MESMO CUTOFF QUE DIREÇÃO DO LOOP, f 20;
#X obj 261 198 del 25;
#X connect 2 0 3 0;
#X connect 4 0 5 0;
#X connect 4 0 8 0;
#X connect 5 0 2 0;
#X connect 6 0 2 1;
#X connect 7 0 16 0;
#X connect 8 0 9 0;
#X connect 9 0 6 0;
#X connect 11 0 13 1;
#X connect 11 1 23 0;
#X connect 11 2 20 0;
#X connect 12 0 19 0;
#X connect 12 1 13 0;
#X connect 13 0 14 0;
#X connect 14 0 7 0;
#X connect 14 1 15 0;
#X connect 15 0 6 1;
#X connect 16 0 5 1;
#X connect 17 0 18 0;
#X connect 18 0 11 0;
#X connect 19 0 21 0;
#X connect 20 0 21 0;
#X connect 23 0 12 0;
#X restore 297 957 pd IO_INVERT~;
#X text 440 958 INVERSOR DE FASE PELOS PONTOS DO LOOP;
#X text 410 998 INVERSOR DE FASE PELA INTERFACE;
#N canvas 141 92 644 598 INVERT~ 0;
#X obj 51 484 +~;
#X obj 51 543 outlet~;
#X obj 51 93 inlet~;
#X obj 51 415 *~;
#X obj 221 415 *~;
#X obj 78 357 == 0;
#X obj 221 314 -~ 1;
#X obj 220 343 abs~;
#X text 273 344 CALCULA FASE INVERTIDA;
#X obj 228 93 r \$0-inv;
#X text 323 89 RECEBE COMANDO DE INVERSÃO DA INTERFACE, f 21;
#X text 66 28 ** INVERTE DIREÇÃO DA FASE PELO BOTÃO NA INTERFACE
;
#X obj 228 129 t f b b;
#X obj 261 195 t b b;
#X obj 201 219 f;
#X obj 201 248 t f f;
#X obj 78 386 sig~;
#X obj 248 386 sig~;
#X msg 291 239 1;
#X msg 341 239 0;
#X obj 291 271 s \$0-cut4;
#X text 397 234 USA MESMO CUTOFF QUE DIREÇÃO DO LOOP, f 20;
#X obj 261 166 del 25;
#X connect 0 0 1 0;
#X connect 2 0 3 0;
#X connect 2 0 6 0;
#X connect 3 0 0 0;
#X connect 4 0 0 1;
#X connect 5 0 16 0;
#X connect 6 0 7 0;
#X connect 7 0 4 0;
#X connect 9 0 12 0;
#X connect 12 0 14 1;
#X connect 12 1 22 0;
#X connect 12 2 19 0;
#X connect 13 0 18 0;
#X connect 13 1 14 0;
#X connect 14 0 15 0;
#X connect 15 0 5 0;
#X connect 15 1 17 0;
#X connect 16 0 3 1;
#X connect 17 0 4 1;
#X connect 18 0 20 0;
#X connect 19 0 20 0;
#X connect 22 0 13 0;
#X restore 297 997 pd INVERT~;
#X obj 264 75 r \$0-hardSync;
#X text 407 76 SYNC COM VÍDEO;
#X obj 371 1080 sig~;
#X obj 371 1157 sig~;
#X obj 370 512 t b f;
#X obj 371 1051 r \$0-audioModulo;
#X msg 203 228 0;
#X msg 157 228 1;
#X msg 1063 216 1;
#X msg 1112 216 0;
#X obj 507 189 t b b;
#X msg 468 749 0;
#X obj 404 189 t b b;
#X obj 297 1147 +~ 1;
#X obj 264 136 t b b;
#X obj 915 459 t b f;
#X obj 298 1655 throw~ \$1-L;
#X obj 415 1655 throw~ \$1-R;
#X text 541 1656 ENVIA ÁUDIO PARA PATCH PRINCIPAL;
#X obj 264 109 bng 15 250 50 0 empty empty empty 17 7 0 10 -262144
-1 -1;
#N canvas 22 112 720 679 CUTOFF 0;
#X obj 44 944 outlet~;
#X obj 193 944 outlet~;
#X obj 44 63 inlet~;
#X obj 194 63 inlet~;
#X obj 250 207 r \$0-cut1;
#X obj 250 265 pack 0 20;
#X obj 250 294 line~;
#X obj 193 319 *~;
#X obj 44 319 *~;
#X text 354 208 HARDSYNC;
#X obj 250 365 pack 0 20;
#X obj 250 394 line~;
#X obj 193 419 *~;
#X obj 44 419 *~;
#X obj 250 336 r \$0-cut2;
#X text 354 337 PAUSE;
#X obj 250 465 pack 0 20;
#X obj 250 494 line~;
#X obj 193 519 *~;
#X obj 44 519 *~;
#X obj 250 436 r \$0-cut3;
#X text 354 437 MÓDULO/OFFSET;
#X obj 250 565 pack 0 20;
#X obj 250 594 line~;
#X obj 193 619 *~;
#X obj 44 619 *~;
#X obj 250 536 r \$0-cut4;
#X obj 250 694 line~;
#X obj 193 719 *~;
#X obj 44 719 *~;
#X text 354 537 DIREÇÃO DO LOOP E INVERSÕES DE FASE, f 17;
#X obj 250 636 r \$0-cut5;
#X text 354 637 MUDANÇA DE SLOT;
#X text 435 106 ABRE/FECHA ÁUDIO DE ACORDO COM RENDER, f 19;
#X obj 250 107 r \$0-channelState;
#X obj 250 136 pack 0 20;
#X obj 250 165 line~;
#X obj 193 190 *~;
#X obj 44 190 *~;
#X text 102 16 ** MECANISMO DE CUTOFF INDIVIDUAL PARA CADA AÇÃO;
#X obj 250 665 pack 0 20;
#X obj 250 794 line~;
#X obj 193 819 *~;
#X obj 44 819 *~;
#X text 354 737 ÁUDIO ON/OFF;
#X obj 250 765 pack 0 20;
#X obj 250 236 t f f;
#X obj 364 260 sel 1;
#X obj 250 736 r \$0-cut6;
#X obj 193 889 *~;
#X obj 44 889 *~;
#X obj 250 864 vline~;
#X text 382 836 FIM DO VÍDEO (TEMPO VARIÁVEL);
#N canvas 460 193 579 316 FINAL_CUT 0;
#X obj 41 85 r \$0-lastFrame;
#X text 38 57 BANG NO INÍCIO DO ÚLTIMO FRAME DO VÍDEO;
#X text 137 18 ** CORTA ÁUDIO NO FIM DO VÍDEO;
#X text 271 130 DURAÇÃO DE 1 FRAME EM MSEC;
#X obj 128 129 r \$0-frameDur;
#X obj 41 119 t b;
#X obj 41 163 pack 0 25;
#X msg 183 213 1 20;
#X obj 183 179 inlet BANG;
#X obj 41 267 outlet;
#X text 237 213 ABRE ÁUDIO JUNTO COM HARDSYNC;
#X connect 0 0 5 0;
#X connect 4 0 6 1;
#X connect 5 0 6 0;
#X connect 6 0 9 0;
#X connect 7 0 9 0;
#X connect 8 0 7 0;
#X restore 250 835 pd FINAL_CUT;
#X connect 2 0 38 0;
#X connect 3 0 37 0;
#X connect 4 0 46 0;
#X connect 5 0 6 0;
#X connect 6 0 7 1;
#X connect 6 0 8 1;
#X connect 7 0 12 0;
#X connect 8 0 13 0;
#X connect 10 0 11 0;
#X connect 11 0 12 1;
#X connect 11 0 13 1;
#X connect 12 0 18 0;
#X connect 13 0 19 0;
#X connect 14 0 10 0;
#X connect 16 0 17 0;
#X connect 17 0 18 1;
#X connect 17 0 19 1;
#X connect 18 0 24 0;
#X connect 19 0 25 0;
#X connect 20 0 16 0;
#X connect 22 0 23 0;
#X connect 23 0 24 1;
#X connect 23 0 25 1;
#X connect 24 0 28 0;
#X connect 25 0 29 0;
#X connect 26 0 22 0;
#X connect 27 0 28 1;
#X connect 27 0 29 1;
#X connect 28 0 42 0;
#X connect 29 0 43 0;
#X connect 31 0 40 0;
#X connect 34 0 35 0;
#X connect 35 0 36 0;
#X connect 36 0 37 1;
#X connect 36 0 38 1;
#X connect 37 0 7 0;
#X connect 38 0 8 0;
#X connect 40 0 27 0;
#X connect 41 0 42 1;
#X connect 41 0 43 1;
#X connect 42 0 49 0;
#X connect 43 0 50 0;
#X connect 45 0 41 0;
#X connect 46 0 5 0;
#X connect 46 1 47 0;
#X connect 47 0 53 0;
#X connect 48 0 45 0;
#X connect 49 0 1 0;
#X connect 50 0 0 0;
#X connect 51 0 49 1;
#X connect 51 0 50 1;
#X connect 53 0 51 0;
#X restore 298 1534 pd CUTOFF;
#X obj 157 263 s \$0-cut1;
#X msg 590 247 0;
#X msg 639 247 1;
#X obj 590 282 s \$0-cut2;
#X obj 468 781 s \$0-cut1;
#X text 572 782 USA MESMO CUTOFF QUE HARDSYNC;
#X text 405 1534 MECANISMO DE CUTOFF PARA EVITAR CLIQUES NO ÁUDIO
DE ACORDO COM CADA AÇÃO, f 48;
#X obj 264 170 del 25;
#X obj 404 223 del 25;
#X obj 507 223 del 25;
#X obj 915 174 del 25;
#X obj 1002 174 del 25;
#X obj 384 749 del 25;
#X obj 264 204 t b b b;
#X obj 1063 248 s \$0-cut6;
#X connect 0 0 88 0;
#X connect 1 0 54 0;
#X connect 2 0 1 1;
#X connect 3 0 54 1;
#X connect 4 0 3 1;
#X connect 5 0 76 0;
#X connect 6 0 8 0;
#X connect 7 0 8 1;
#X connect 8 0 80 0;
#X connect 9 0 20 0;
#X connect 9 0 21 0;
#X connect 10 0 6 0;
#X connect 11 0 5 0;
#X connect 14 0 11 0;
#X connect 20 0 1 0;
#X connect 21 0 3 0;
#X connect 22 0 20 0;
#X connect 22 1 21 0;
#X connect 23 0 27 0;
#X connect 24 0 25 0;
#X connect 25 0 14 0;
#X connect 26 0 24 0;
#X connect 27 0 117 0;
#X connect 27 1 95 0;
#X connect 28 0 10 0;
#X connect 28 1 7 0;
#X connect 30 0 0 0;
#X connect 31 0 87 0;
#X connect 33 0 97 0;
#X connect 36 0 37 0;
#X connect 37 0 38 0;
#X connect 37 1 39 0;
#X connect 37 2 40 0;
#X connect 37 3 41 0;
#X connect 38 0 99 0;
#X connect 39 0 99 0;
#X connect 40 0 99 0;
#X connect 41 0 99 0;
#X connect 43 0 44 0;
#X connect 44 0 47 0;
#X connect 44 1 48 0;
#X connect 44 2 49 0;
#X connect 44 3 45 0;
#X connect 44 4 50 0;
#X connect 44 5 51 0;
#X connect 44 6 52 0;
#X connect 45 0 46 0;
#X connect 46 0 79 0;
#X connect 46 0 78 0;
#X connect 47 0 46 0;
#X connect 48 0 46 0;
#X connect 49 0 46 0;
#X connect 50 0 46 0;
#X connect 51 0 46 0;
#X connect 52 0 46 0;
#X connect 54 0 104 0;
#X connect 54 1 104 1;
#X connect 55 0 100 0;
#X connect 56 0 101 0;
#X connect 59 0 60 0;
#X connect 60 0 96 0;
#X connect 60 1 94 0;
#X connect 62 0 65 0;
#X connect 63 0 116 0;
#X connect 63 1 93 0;
#X connect 64 0 115 0;
#X connect 64 1 67 0;
#X connect 65 0 64 0;
#X connect 65 1 63 0;
#X connect 67 0 66 0;
#X connect 68 0 66 0;
#X connect 73 0 74 1;
#X connect 74 0 6 0;
#X connect 76 0 74 0;
#X connect 78 0 2 0;
#X connect 79 0 4 0;
#X connect 80 0 83 0;
#X connect 83 0 33 0;
#X connect 84 0 103 0;
#X connect 86 0 33 1;
#X connect 87 0 9 1;
#X connect 88 0 5 0;
#X connect 88 1 5 1;
#X connect 89 0 86 0;
#X connect 90 0 105 0;
#X connect 91 0 105 0;
#X connect 92 0 119 0;
#X connect 93 0 119 0;
#X connect 94 0 114 0;
#X connect 94 1 106 0;
#X connect 95 0 109 0;
#X connect 96 0 113 0;
#X connect 96 1 11 0;
#X connect 97 0 9 0;
#X connect 98 0 112 0;
#X connect 98 0 112 0;
#X connect 98 1 90 0;
#X connect 99 0 29 0;
#X connect 99 1 0 1;
#X connect 103 0 98 0;
#X connect 104 0 55 0;
#X connect 104 1 56 0;
#X connect 106 0 108 0;
#X connect 107 0 108 0;
#X connect 112 0 118 0;
#X connect 113 0 107 0;
#X connect 114 0 10 0;
#X connect 115 0 92 0;
#X connect 116 0 68 0;
#X connect 117 0 28 0;
#X connect 118 0 91 0;
#X connect 118 1 11 0;
#X connect 118 2 7 0;
#X restore 280 132 pd AUDIO_UNIT;
#X obj 60 110 hradio 12 1 0 2 \$0-ioMode_gui \$0-ioMode_gui_set empty
28 6 0 10 -262144 -1 -1 0;
#X obj 143 110 tgl 12 0 \$0-audio_gui \$0-audio_gui_set AUDIO -33 6
0 10 -228856 -1 -1 1 1;
#X obj 161 110 bng 12 250 50 0 \$0-click_audioGUI morto empty 16 6
0 10 -228856 -1 -1;
#X obj 178 191 tgl 25 0 \$0-loop_gui \$0-loop_gui_set L 8 13 0 18 -62784
-62784 -1 1 1;
#X obj 63 191 tgl 25 0 \$0-play_gui \$0-play_gui_set P 8 13 0 18 -42246
-42246 -262144 0 1;
#N canvas 369 174 599 304 EXTERNAL_CONTROL 0;
#X text 213 137 FILTRA POR CANAL;
#X text 174 170 FILTRA POR MÓDULO;
#X obj 48 234 s \$0-externalControl;
#X text 265 235 ENVIA CONTROLES LOCALMENTE;
#X obj 48 136 route channel\$1;
#X obj 48 72 r OSC_BUS;
#X text 43 19 ** ROTEAMENTO DE CONTROLE EXTERNO VIA MENSAGENS OSC;
#X text 153 69 RECEBE OSC DESEMPACOTADO PELO PATCH PRINCIPAL, f 29
;
#X obj 48 170 route video;
#X connect 4 0 8 0;
#X connect 5 0 4 0;
#X connect 8 0 2 0;
#X restore 280 30 pd EXTERNAL_CONTROL;
#N canvas 131 318 586 382 CONTROL_MEMORY 0;
#N canvas 136 119 990 470 PRESET_MANAGER 0;
#X obj 42 310 list prepend video;
#X obj 42 343 list trim;
#X obj 42 67 r CH\$1_FLUSH;
#X obj 42 390 s CH\$1_PRESET;
#X obj 89 132 s \$0-slotFlush;
#X obj 89 277 r \$0-slotList;
#X text 236 276 RECEBE DADOS DOS SLOTS;
#X text 39 419 ENVIA PARA GESTOR GLOBAL DE PRESETS;
#X text 164 19 ** GERENCIA COMUNICAÇÃO ENTRE SLOTS E GESTOR GLOBAL
DE PRESETS, f 62;
#X obj 531 67 r MAIN_PRESET_SEND;
#X obj 531 124 route \$1;
#X obj 531 154 route video;
#X text 627 124 ROTEIA POR CANAL;
#X obj 735 247 s \$0-slotFilePreset;
#X text 726 64 RECEBE MEMÓRIA DO PRESET GLOBAL, f 17;
#X text 732 276 ENVIA DADOS PARA SLOTS;
#X text 244 133 SOLICITA DADOS DOS SLOTS;
#X obj 69 174 r \$0-activeSlot;
#X obj 42 203 f;
#X obj 42 232 list prepend activeSlot;
#X obj 42 100 t b b;
#X text 236 174 MEMÓRIA DO SLOT ATIVO NA UNIDADE, f 21;
#X obj 531 183 route activeSlot;
#X text 501 337 ENVIA SLOT ATIVO;
#X obj 504 308 s \$0-activeSlot_gui_set;
#X obj 504 269 f;
#X obj 688 215 t b a;
#X connect 0 0 1 0;
#X connect 1 0 3 0;
#X connect 2 0 20 0;
#X connect 5 0 0 0;
#X connect 9 0 10 0;
#X connect 10 0 11 0;
#X connect 11 0 22 0;
#X connect 17 0 18 1;
#X connect 18 0 19 0;
#X connect 19 0 0 0;
#X connect 20 0 18 0;
#X connect 20 1 4 0;
#X connect 22 0 25 1;
#X connect 22 1 26 0;
#X connect 25 0 24 0;
#X connect 26 0 25 0;
#X connect 26 1 13 0;
#X restore 329 84 pd PRESET_MANAGER;
#X text 47 56 SLOTS DE MEMÓRIA LOCAL;
#N canvas 582 366 579 315 SEND_ACTIVE_SLOT 0;
#X obj 45 94 r \$0-activeSlot;
#X obj 102 125 r \$0-channelState;
#X obj 45 207 spigot;
#X obj 45 178 f;
#X obj 102 154 t b f;
#X text 88 22 ** ENVIA SLOT ATIVO NO MÓDULO DE VÍDEO PARA MÓDULO
DE TRANSFORMAÇÕES E EFEITOS, f 39;
#X text 120 207 APENAS SE O MÓDULO DE VÍDEO ESTIVER ATIVO;
#X obj 45 246 s V\$1_ACTIVE_SLOT;
#X obj 325 118 s C\$1_ACTIVE_SLOT;
#X text 323 146 ENVIA DIRETO PARA UNIDADE DE CÂMERA, f 17;
#X connect 0 0 3 0;
#X connect 0 0 8 0;
#X connect 1 0 4 0;
#X connect 2 0 7 0;
#X connect 3 0 2 0;
#X connect 4 0 3 0;
#X connect 4 1 2 1;
#X restore 329 152 pd SEND_ACTIVE_SLOT;
#X text 145 17 ** GESTÃO DA MEMÓRIA LOCAL;
#N canvas 73 84 1220 397 AUTOMATION_MANAGER 0;
#X msg 458 119 1;
#X msg 458 249 1;
#X text 502 121 CONVERTE BANG EM VALOR 1;
#X text 502 250 CONVERTE BANG EM VALOR 1;
#X text 150 93 BOTÃO DE HABILITAR UNIDADE;
#X obj 38 89 r V\$1_ST;
#X obj 38 149 s V\$1_SET_ST;
#X obj 38 189 arrast_automato \$0 activeSlot \$1 0 1;
#X obj 38 119 arrast_automato \$0 enableButton \$1 0 0;
#X obj 38 219 arrast_automato \$0 ioMode \$1 0 2;
#X text 386 15 ** GESTÃO LOCAL DO SISTEMA DE AUTOMAÇÕES;
#X text 36 58 UNIDADES DE AUTOMAÇÃO POR PARÂMETRO;
#X obj 458 89 r \$0-rw_gui;
#X obj 458 219 r \$0-stop_gui;
#X obj 38 249 arrast_automato \$0 inSet \$1 0 3;
#X obj 38 279 arrast_automato \$0 outSet \$1 0 4;
#X obj 38 309 arrast_automato \$0 speed \$1 0 5;
#X obj 38 339 arrast_automato \$0 play \$1 0 6;
#X obj 458 149 arrast_automato \$0 rw \$1 1 7;
#X obj 458 179 arrast_automato \$0 inv \$1 0 8;
#X obj 458 279 arrast_automato \$0 stop \$1 1 9;
#X obj 458 309 arrast_automato \$0 loop \$1 0 10;
#X obj 458 339 arrast_automato \$0 loopMode \$1 0 11;
#X obj 803 89 arrast_automato \$0 audio \$1 0 12;
#X obj 803 119 arrast_automato \$0 samplerate \$1 0 13;
#X obj 803 149 arrast_automato \$0 boost \$1 0 14;
#X obj 803 179 arrast_automato \$0 avAmp \$1 0 15;
#X obj 803 209 arrast_automato \$0 avLop \$1 0 16;
#X obj 803 239 arrast_automato \$0 avHip \$1 0 17;
#X connect 0 0 18 0;
#X connect 1 0 20 0;
#X connect 5 0 8 0;
#X connect 8 0 6 0;
#X connect 12 0 0 0;
#X connect 13 0 1 0;
#X restore 329 118 pd AUTOMATION_MANAGER;
#X obj 328 288 s \$0-resetSlot;
#X floatatom 328 259 5 0 0 0 - - -, f 5;
#X msg 329 226 1 \, 2 \, 3 \, 4 \, 5 \, 6 \, 7 \, 8;
#X text 382 200 RESET SLOTS;
#X obj 48 84 arrast_videoslot \$0 \$1 1;
#X obj 48 118 arrast_videoslot \$0 \$1 2;
#X obj 48 152 arrast_videoslot \$0 \$1 3;
#X obj 48 186 arrast_videoslot \$0 \$1 4;
#X obj 48 220 arrast_videoslot \$0 \$1 5;
#X obj 48 254 arrast_videoslot \$0 \$1 6;
#X obj 48 288 arrast_videoslot \$0 \$1 7;
#X obj 48 322 arrast_videoslot \$0 \$1 8;
#X connect 6 0 5 0;
#X connect 7 0 5 0;
#X restore 280 64 pd CONTROL_MEMORY;
#X obj 90 110 tgl 12 0 \$0-ioLink_gui \$0-ioLink_gui_set empty 17 7
0 10 -262144 -1 -1 0 1;
#X coords 0 -1 1 1 185 200 2 50 30;
