#N canvas 105 234 509 223 16;
#X obj 50 30 cnv 15 185 80 empty empty empty 20 12 0 14 -228856 -66577
0;
#X obj 52 30 hradio 20 1 0 9 \$0-click_enable \$0-click_enable_in empty
0 -8 0 10 -262144 -1 -1 4;
#X obj 50 30 cnv 15 185 20 \$0-enable \$0-enable_in empty 20 12 0 14
-24198 -262144 0;
#X obj 61 61 hradio 18 1 0 9 \$0-openBrowser \$0-openBrowser_in empty
0 -8 0 10 -262144 -1 -1 3;
#X obj 60 61 cnv 15 165 18 empty \$0-nameVisor tumblr_mf...1_1280.jpg
5 9 0 12 -355 -262144 0;
#N canvas 346 123 499 458 ENABLE_BUTTON 0;
#X obj 50 62 t b;
#X obj 50 153 f;
#X obj 90 153 + 1;
#X obj 50 181 % 2;
#X floatatom 50 215 5 0 0 0 - - -, f 5;
#X obj 118 97 loadbang;
#X obj 50 28 r \$0-click_enable;
#N canvas 672 217 440 276 color 0;
#X obj 45 41 inlet;
#X obj 45 96 sel 0 1;
#X obj 45 207 s \$0-enable_in;
#X obj 165 121 f 13;
#X msg 165 156 color \$1 0;
#X msg 45 156 color 11 0;
#X obj 202 89 r \$0-channelColor;
#X connect 0 0 1 0;
#X connect 1 0 5 0;
#X connect 1 1 3 0;
#X connect 3 0 4 0;
#X connect 4 0 2 0;
#X connect 5 0 2 0;
#X connect 6 0 3 1;
#X restore 50 334 pd color;
#X obj 50 249 t f f;
#X obj 187 273 sel 1;
#X obj 317 29 r CH\$1_SELECT;
#X obj 187 335 s CH\$1_SELECT;
#X msg 364 129 0;
#X obj 317 63 sel 2;
#X msg 62 121 0;
#X msg 187 303 2;
#X obj 347 335 s \$0-on;
#X msg 347 303 0;
#X obj 187 371 list prepend ch\$1_select;
#X obj 187 401 s CANAL_SEL;
#X obj 208 236 s I\$1_ST;
#X obj 208 129 r I\$1_SET_ST;
#X connect 0 0 1 0;
#X connect 1 0 3 0;
#X connect 2 0 1 1;
#X connect 3 0 2 0;
#X connect 3 0 4 0;
#X connect 4 0 8 0;
#X connect 4 0 20 0;
#X connect 5 0 14 0;
#X connect 6 0 0 0;
#X connect 8 0 7 0;
#X connect 8 1 9 0;
#X connect 9 0 15 0;
#X connect 9 1 17 0;
#X connect 10 0 13 0;
#X connect 12 0 1 0;
#X connect 13 1 12 0;
#X connect 14 0 1 0;
#X connect 15 0 11 0;
#X connect 15 0 18 0;
#X connect 17 0 16 0;
#X connect 18 0 19 0;
#X connect 21 0 1 0;
#X restore 280 131 pd ENABLE_BUTTON;
#N canvas 162 62 1016 607 IMAGE_UNIT 0;
#X obj 65 550 rectangle 4 3;
#X obj 65 364 pix_texture;
#X obj 65 116 gemhead \$1;
#X obj 65 432 translateXYZ 0 0 0;
#X obj 65 476 scale 0.3;
#X obj 210 42 r CH\$1_SELECT;
#X obj 210 74 == 2;
#X obj 65 73 tgl 25 0 empty empty empty 17 7 0 10 -262144 -1 -1 1 1
;
#X obj 65 42 r \$0-on;
#X obj 210 107 s \$0-on;
#X obj 702 367 list prepend file;
#X obj 448 293 r \$0-on;
#X obj 448 408 list prepend I\$1;
#X obj 448 442 s CANAL_I;
#X obj 448 325 list prepend render;
#X obj 209 312 loadbang;
#X msg 209 340 quality 0;
#X obj 572 67 r \$0-activeFile;
#X text 569 39 RECEBE ARQUIVO DOS SLOTS;
#X text 355 42 HABILITA IMAGEM;
#N canvas 698 355 408 322 INFO 0;
#X obj 50 36 inlet;
#X obj 50 86 t a a;
#X obj 50 265 outlet;
#X obj 148 141 change;
#X obj 225 141 change;
#X obj 137 110 pix_info;
#X obj 148 202 pack f f;
#X obj 148 232 s \$0-tam;
#X obj 225 169 t b f;
#X text 150 23 ** ENVIA DIMENSÕES DA IMAGEM EM PIXELS PARA CÁLCULO
DE PROPORÇÃO, f 21;
#X connect 0 0 1 0;
#X connect 1 0 2 0;
#X connect 1 1 5 0;
#X connect 3 0 6 0;
#X connect 4 0 8 0;
#X connect 5 1 3 0;
#X connect 5 2 4 0;
#X connect 6 0 7 0;
#X connect 8 0 6 0;
#X connect 8 1 6 1;
#X restore 65 292 pd INFO;
#N canvas 418 439 427 261 TRANS 0;
#X obj 39 36 loadbang;
#X obj 39 72 f \$1;
#X obj 39 204 outlet;
#X obj 39 109 sel 1 2 3 4;
#X msg 39 146 3;
#X msg 90 146 1;
#X msg 141 146 -1;
#X msg 192 146 -3;
#X text 158 25 ** TRANSLAÇÃO NO EIXO Y DE ACORDO COM CAMADA, f 23
;
#X connect 0 0 1 0;
#X connect 1 0 3 0;
#X connect 3 0 4 0;
#X connect 3 1 5 0;
#X connect 3 2 6 0;
#X connect 3 3 7 0;
#X connect 4 0 2 0;
#X connect 5 0 2 0;
#X connect 6 0 2 0;
#X connect 7 0 2 0;
#X restore 183 401 pd TRANS;
#N canvas 488 141 405 357 RATIO 0;
#X obj 50 305 outlet;
#X obj 169 305 outlet;
#X obj 50 73 r \$0-tam;
#X obj 50 117 unpack f f;
#X obj 50 149 /;
#X obj 50 273 * 3;
#X obj 169 274 * 3;
#X obj 169 218 t b f f;
#X obj 169 73 inlet;
#X obj 50 182 pack f 1;
#X obj 50 210 unpack f f;
#X text 47 27 ** GERENCIA PROPORÇÕES DO VÍDEO;
#X connect 2 0 3 0;
#X connect 3 0 4 0;
#X connect 3 1 4 1;
#X connect 4 0 9 0;
#X connect 5 0 0 0;
#X connect 6 0 1 0;
#X connect 7 0 6 0;
#X connect 7 0 5 0;
#X connect 7 1 5 1;
#X connect 7 2 6 1;
#X connect 8 0 7 0;
#X connect 9 0 10 0;
#X connect 10 0 5 0;
#X connect 10 1 6 0;
#X restore 128 519 pd RATIO;
#X text 685 105 IGNORA SLOTS VAZIOS;
#X obj 572 105 route none;
#X obj 65 219 pix_buffer_read \$1_buffer;
#X obj 312 98 r \$0-activeSlot;
#N canvas 140 178 879 237 IMAGE_BUFFER 0;
#X obj 41 177 pix_buffer \$1_buffer 8;
#X obj 41 46 inlet;
#N canvas 156 104 553 397 OPEN_1 0;
#N canvas 414 511 331 252 CHANGE_SYMBOL 0;
#X obj 57 92 t s s;
#X obj 57 129 sel s;
#X text 124 106 [change] symbol!;
#X obj 57 45 inlet;
#X obj 104 203 outlet;
#X obj 104 159 symbol;
#X connect 0 0 1 1;
#X connect 0 1 1 0;
#X connect 1 1 5 0;
#X connect 3 0 0 0;
#X connect 5 0 4 0;
#X restore 41 222 pd CHANGE_SYMBOL;
#X obj 41 93 unpack s f;
#X obj 41 255 pack s f;
#X msg 41 289 open \$1 \$2;
#X obj 41 36 inlet;
#X obj 138 155 == 1;
#X obj 41 179 spigot;
#X obj 138 124 t f f;
#X obj 41 347 outlet;
#X text 131 32 ** DISTRIBUI PARA CADA SLOT DO BUFFER;
#X text 217 222 FILTRA REPETIÇÕES;
#X text 195 156 FILTRA POR SLOT NO BUFFER;
#X obj 185 189 - 1;
#X text 229 190 CORRIGE INDEX PARA BUFFER;
#X connect 0 0 2 0;
#X connect 1 0 6 0;
#X connect 1 1 7 0;
#X connect 2 0 3 0;
#X connect 3 0 8 0;
#X connect 4 0 1 0;
#X connect 5 0 6 1;
#X connect 6 0 0 0;
#X connect 7 0 5 0;
#X connect 7 1 12 0;
#X connect 12 0 2 1;
#X restore 41 121 pd OPEN_1;
#X text 277 178 BUFFER PARA 8 IMAGENS;
#X text 205 20 ** DISTRIBUI IMAGENS NOS SLOTS DO BUFFER LOCAL;
#X obj 41 75 t a a a a a a a a;
#N canvas 154 103 553 397 OPEN_2 0;
#N canvas 414 511 331 252 CHANGE_SYMBOL 0;
#X obj 57 92 t s s;
#X obj 57 129 sel s;
#X text 124 106 [change] symbol!;
#X obj 57 45 inlet;
#X obj 104 203 outlet;
#X obj 104 159 symbol;
#X connect 0 0 1 1;
#X connect 0 1 1 0;
#X connect 1 1 5 0;
#X connect 3 0 0 0;
#X connect 5 0 4 0;
#X restore 41 222 pd CHANGE_SYMBOL;
#X obj 41 93 unpack s f;
#X obj 41 255 pack s f;
#X msg 41 289 open \$1 \$2;
#X obj 41 36 inlet;
#X obj 41 179 spigot;
#X obj 138 124 t f f;
#X obj 41 347 outlet;
#X text 131 32 ** DISTRIBUI PARA CADA SLOT DO BUFFER;
#X text 217 222 FILTRA REPETIÇÕES;
#X text 195 156 FILTRA POR SLOT NO BUFFER;
#X obj 185 189 - 1;
#X text 229 190 CORRIGE INDEX PARA BUFFER;
#X obj 138 155 == 2;
#X connect 0 0 2 0;
#X connect 1 0 5 0;
#X connect 1 1 6 0;
#X connect 2 0 3 0;
#X connect 3 0 7 0;
#X connect 4 0 1 0;
#X connect 5 0 0 0;
#X connect 6 0 13 0;
#X connect 6 1 11 0;
#X connect 11 0 2 1;
#X connect 13 0 5 1;
#X restore 141 121 pd OPEN_2;
#N canvas 154 103 553 397 OPEN_3 0;
#N canvas 414 511 331 252 CHANGE_SYMBOL 0;
#X obj 57 92 t s s;
#X obj 57 129 sel s;
#X text 124 106 [change] symbol!;
#X obj 57 45 inlet;
#X obj 104 203 outlet;
#X obj 104 159 symbol;
#X connect 0 0 1 1;
#X connect 0 1 1 0;
#X connect 1 1 5 0;
#X connect 3 0 0 0;
#X connect 5 0 4 0;
#X restore 41 222 pd CHANGE_SYMBOL;
#X obj 41 93 unpack s f;
#X obj 41 255 pack s f;
#X msg 41 289 open \$1 \$2;
#X obj 41 36 inlet;
#X obj 41 179 spigot;
#X obj 138 124 t f f;
#X obj 41 347 outlet;
#X text 131 32 ** DISTRIBUI PARA CADA SLOT DO BUFFER;
#X text 217 222 FILTRA REPETIÇÕES;
#X text 195 156 FILTRA POR SLOT NO BUFFER;
#X obj 185 189 - 1;
#X text 229 190 CORRIGE INDEX PARA BUFFER;
#X obj 138 155 == 3;
#X connect 0 0 2 0;
#X connect 1 0 5 0;
#X connect 1 1 6 0;
#X connect 2 0 3 0;
#X connect 3 0 7 0;
#X connect 4 0 1 0;
#X connect 5 0 0 0;
#X connect 6 0 13 0;
#X connect 6 1 11 0;
#X connect 11 0 2 1;
#X connect 13 0 5 1;
#X restore 241 121 pd OPEN_3;
#N canvas 154 103 553 397 OPEN_4 0;
#N canvas 414 511 331 252 CHANGE_SYMBOL 0;
#X obj 57 92 t s s;
#X obj 57 129 sel s;
#X text 124 106 [change] symbol!;
#X obj 57 45 inlet;
#X obj 104 203 outlet;
#X obj 104 159 symbol;
#X connect 0 0 1 1;
#X connect 0 1 1 0;
#X connect 1 1 5 0;
#X connect 3 0 0 0;
#X connect 5 0 4 0;
#X restore 41 222 pd CHANGE_SYMBOL;
#X obj 41 93 unpack s f;
#X obj 41 255 pack s f;
#X msg 41 289 open \$1 \$2;
#X obj 41 36 inlet;
#X obj 41 179 spigot;
#X obj 138 124 t f f;
#X obj 41 347 outlet;
#X text 131 32 ** DISTRIBUI PARA CADA SLOT DO BUFFER;
#X text 217 222 FILTRA REPETIÇÕES;
#X text 195 156 FILTRA POR SLOT NO BUFFER;
#X obj 185 189 - 1;
#X text 229 190 CORRIGE INDEX PARA BUFFER;
#X obj 138 155 == 4;
#X connect 0 0 2 0;
#X connect 1 0 5 0;
#X connect 1 1 6 0;
#X connect 2 0 3 0;
#X connect 3 0 7 0;
#X connect 4 0 1 0;
#X connect 5 0 0 0;
#X connect 6 0 13 0;
#X connect 6 1 11 0;
#X connect 11 0 2 1;
#X connect 13 0 5 1;
#X restore 341 121 pd OPEN_4;
#N canvas 154 103 553 397 OPEN_5 0;
#N canvas 414 511 331 252 CHANGE_SYMBOL 0;
#X obj 57 92 t s s;
#X obj 57 129 sel s;
#X text 124 106 [change] symbol!;
#X obj 57 45 inlet;
#X obj 104 203 outlet;
#X obj 104 159 symbol;
#X connect 0 0 1 1;
#X connect 0 1 1 0;
#X connect 1 1 5 0;
#X connect 3 0 0 0;
#X connect 5 0 4 0;
#X restore 41 222 pd CHANGE_SYMBOL;
#X obj 41 93 unpack s f;
#X obj 41 255 pack s f;
#X msg 41 289 open \$1 \$2;
#X obj 41 36 inlet;
#X obj 41 179 spigot;
#X obj 138 124 t f f;
#X obj 41 347 outlet;
#X text 131 32 ** DISTRIBUI PARA CADA SLOT DO BUFFER;
#X text 217 222 FILTRA REPETIÇÕES;
#X text 195 156 FILTRA POR SLOT NO BUFFER;
#X obj 185 189 - 1;
#X text 229 190 CORRIGE INDEX PARA BUFFER;
#X obj 138 155 == 5;
#X connect 0 0 2 0;
#X connect 1 0 5 0;
#X connect 1 1 6 0;
#X connect 2 0 3 0;
#X connect 3 0 7 0;
#X connect 4 0 1 0;
#X connect 5 0 0 0;
#X connect 6 0 13 0;
#X connect 6 1 11 0;
#X connect 11 0 2 1;
#X connect 13 0 5 1;
#X restore 441 121 pd OPEN_5;
#N canvas 154 103 553 397 OPEN_6 0;
#N canvas 414 511 331 252 CHANGE_SYMBOL 0;
#X obj 57 92 t s s;
#X obj 57 129 sel s;
#X text 124 106 [change] symbol!;
#X obj 57 45 inlet;
#X obj 104 203 outlet;
#X obj 104 159 symbol;
#X connect 0 0 1 1;
#X connect 0 1 1 0;
#X connect 1 1 5 0;
#X connect 3 0 0 0;
#X connect 5 0 4 0;
#X restore 41 222 pd CHANGE_SYMBOL;
#X obj 41 93 unpack s f;
#X obj 41 255 pack s f;
#X msg 41 289 open \$1 \$2;
#X obj 41 36 inlet;
#X obj 41 179 spigot;
#X obj 138 124 t f f;
#X obj 41 347 outlet;
#X text 131 32 ** DISTRIBUI PARA CADA SLOT DO BUFFER;
#X text 217 222 FILTRA REPETIÇÕES;
#X text 195 156 FILTRA POR SLOT NO BUFFER;
#X obj 185 189 - 1;
#X text 229 190 CORRIGE INDEX PARA BUFFER;
#X obj 138 155 == 6;
#X connect 0 0 2 0;
#X connect 1 0 5 0;
#X connect 1 1 6 0;
#X connect 2 0 3 0;
#X connect 3 0 7 0;
#X connect 4 0 1 0;
#X connect 5 0 0 0;
#X connect 6 0 13 0;
#X connect 6 1 11 0;
#X connect 11 0 2 1;
#X connect 13 0 5 1;
#X restore 541 121 pd OPEN_6;
#N canvas 154 103 553 397 OPEN_7 0;
#N canvas 414 511 331 252 CHANGE_SYMBOL 0;
#X obj 57 92 t s s;
#X obj 57 129 sel s;
#X text 124 106 [change] symbol!;
#X obj 57 45 inlet;
#X obj 104 203 outlet;
#X obj 104 159 symbol;
#X connect 0 0 1 1;
#X connect 0 1 1 0;
#X connect 1 1 5 0;
#X connect 3 0 0 0;
#X connect 5 0 4 0;
#X restore 41 222 pd CHANGE_SYMBOL;
#X obj 41 93 unpack s f;
#X obj 41 255 pack s f;
#X msg 41 289 open \$1 \$2;
#X obj 41 36 inlet;
#X obj 41 179 spigot;
#X obj 138 124 t f f;
#X obj 41 347 outlet;
#X text 131 32 ** DISTRIBUI PARA CADA SLOT DO BUFFER;
#X text 217 222 FILTRA REPETIÇÕES;
#X text 195 156 FILTRA POR SLOT NO BUFFER;
#X obj 185 189 - 1;
#X text 229 190 CORRIGE INDEX PARA BUFFER;
#X obj 138 155 == 7;
#X connect 0 0 2 0;
#X connect 1 0 5 0;
#X connect 1 1 6 0;
#X connect 2 0 3 0;
#X connect 3 0 7 0;
#X connect 4 0 1 0;
#X connect 5 0 0 0;
#X connect 6 0 13 0;
#X connect 6 1 11 0;
#X connect 11 0 2 1;
#X connect 13 0 5 1;
#X restore 641 121 pd OPEN_7;
#N canvas 154 103 553 397 OPEN_8 0;
#N canvas 414 511 331 252 CHANGE_SYMBOL 0;
#X obj 57 92 t s s;
#X obj 57 129 sel s;
#X text 124 106 [change] symbol!;
#X obj 57 45 inlet;
#X obj 104 203 outlet;
#X obj 104 159 symbol;
#X connect 0 0 1 1;
#X connect 0 1 1 0;
#X connect 1 1 5 0;
#X connect 3 0 0 0;
#X connect 5 0 4 0;
#X restore 41 222 pd CHANGE_SYMBOL;
#X obj 41 93 unpack s f;
#X obj 41 255 pack s f;
#X msg 41 289 open \$1 \$2;
#X obj 41 36 inlet;
#X obj 41 179 spigot;
#X obj 138 124 t f f;
#X obj 41 347 outlet;
#X text 131 32 ** DISTRIBUI PARA CADA SLOT DO BUFFER;
#X text 217 222 FILTRA REPETIÇÕES;
#X text 195 156 FILTRA POR SLOT NO BUFFER;
#X obj 185 189 - 1;
#X text 229 190 CORRIGE INDEX PARA BUFFER;
#X obj 138 155 == 8;
#X connect 0 0 2 0;
#X connect 1 0 5 0;
#X connect 1 1 6 0;
#X connect 2 0 3 0;
#X connect 3 0 7 0;
#X connect 4 0 1 0;
#X connect 5 0 0 0;
#X connect 6 0 13 0;
#X connect 6 1 11 0;
#X connect 11 0 2 1;
#X connect 13 0 5 1;
#X restore 741 121 pd OPEN_8;
#X connect 1 0 5 0;
#X connect 2 0 0 0;
#X connect 5 0 2 0;
#X connect 5 1 6 0;
#X connect 5 2 7 0;
#X connect 5 3 8 0;
#X connect 5 4 9 0;
#X connect 5 5 10 0;
#X connect 5 6 11 0;
#X connect 5 7 12 0;
#X connect 6 0 0 0;
#X connect 7 0 0 0;
#X connect 8 0 0 0;
#X connect 9 0 0 0;
#X connect 10 0 0 0;
#X connect 11 0 0 0;
#X connect 12 0 0 0;
#X restore 736 174 pd IMAGE_BUFFER;
#X obj 312 187 - 1;
#X text 356 188 AJUSTA PARA BUFFER;
#X text 733 204 BUFFER LOCAL PARA IMAGENS;
#X obj 498 367 list prepend slot;
#X obj 312 157 t f f;
#X text 444 479 COMUNICA COM 2 INSTÂNCIA - ESTADO DO RENDER \, SLOT
ATIVO E ARQUIVO, f 44;
#X obj 312 127 f;
#X obj 669 139 t b a a;
#X connect 1 0 3 0;
#X connect 2 0 25 0;
#X connect 3 0 4 0;
#X connect 4 0 0 0;
#X connect 5 0 6 0;
#X connect 6 0 9 0;
#X connect 7 0 2 0;
#X connect 8 0 7 0;
#X connect 10 0 12 0;
#X connect 11 0 14 0;
#X connect 12 0 13 0;
#X connect 14 0 12 0;
#X connect 15 0 16 0;
#X connect 16 0 1 0;
#X connect 17 0 24 0;
#X connect 20 0 1 0;
#X connect 21 0 3 2;
#X connect 22 0 0 1;
#X connect 22 1 0 2;
#X connect 24 1 35 0;
#X connect 25 0 20 0;
#X connect 26 0 34 0;
#X connect 28 0 25 1;
#X connect 31 0 12 0;
#X connect 32 0 28 0;
#X connect 32 1 31 0;
#X connect 34 0 32 0;
#X connect 35 0 34 0;
#X connect 35 1 10 0;
#X connect 35 2 27 0;
#X restore 280 98 pd IMAGE_UNIT;
#N canvas 431 365 533 276 CHANNEL_COLOR 0;
#X obj 47 71 f \$1;
#X obj 47 107 sel 1 2 3 4;
#X msg 47 144 13;
#X msg 196 144 16;
#X msg 97 144 15;
#X obj 47 35 loadbang;
#X msg 265 144 28;
#X msg 147 144 19;
#X text 173 24 ** DETERMINA COR PADRÃO DO CANAL;
#X obj 47 209 s \$0-channelColor;
#X obj 265 209 s \$0-bgColor;
#X connect 0 0 1 0;
#X connect 1 0 2 0;
#X connect 1 1 4 0;
#X connect 1 2 7 0;
#X connect 1 3 3 0;
#X connect 2 0 9 0;
#X connect 3 0 9 0;
#X connect 4 0 9 0;
#X connect 5 0 0 0;
#X connect 5 0 6 0;
#X connect 6 0 10 0;
#X connect 7 0 9 0;
#X restore 280 164 pd CHANNEL_COLOR;
#N canvas 83 182 692 141 select_slot 0;
#X obj 500 84 s \$0-slots_bg;
#X msg 500 53 color \$1;
#X obj 500 21 r \$0-bgColor;
#X obj 105 53 bng 15 250 50 0 \$0-clickSlot1 \$0-clickSlot1_set empty
17 7 0 10 -262144 -1 -1;
#X obj 125 53 bng 15 250 50 0 \$0-clickSlot2 \$0-clickSlot2_set empty
17 7 0 10 -262144 -1 -1;
#X obj 145 53 bng 15 250 50 0 \$0-clickSlot3 \$0-clickSlot3_set empty
17 7 0 10 -262144 -1 -1;
#X obj 165 53 bng 15 250 50 0 \$0-clickSlot4 \$0-clickSlot4_set empty
17 7 0 10 -262144 -1 -1;
#X obj 185 53 bng 15 250 50 0 \$0-clickSlot5 \$0-clickSlot5_set empty
17 7 0 10 -262144 -1 -1;
#X obj 205 53 bng 15 250 50 0 \$0-clickSlot6 \$0-clickSlot6_set empty
17 7 0 10 -262144 -1 -1;
#X obj 225 53 bng 15 250 50 0 \$0-clickSlot7 \$0-clickSlot7_set empty
17 7 0 10 -262144 -1 -1;
#X obj 245 53 bng 15 250 50 0 \$0-clickSlot8 \$0-clickSlot8_set empty
17 7 0 10 -262144 -1 -1;
#X obj 100 50 cnv 15 165 21 empty \$0-slotsBG empty 20 12 0 14 -355
-262144 0;
#X obj 105 53 cnv 15 15 15 empty \$0-colorSlot1 1 4 8 0 12 -166441
-1 0;
#X obj 125 53 cnv 15 15 15 empty \$0-colorSlot2 2 4 8 0 12 -166441
-1 0;
#X obj 145 53 cnv 15 15 15 empty \$0-colorSlot3 3 4 8 0 12 -166441
-1 0;
#X obj 165 53 cnv 15 15 15 empty \$0-colorSlot4 4 4 8 0 12 -24198 -1
0;
#X obj 185 53 cnv 15 15 15 empty \$0-colorSlot5 5 4 8 0 12 -166441
-1 0;
#X obj 205 53 cnv 15 15 15 empty \$0-colorSlot6 6 4 8 0 12 -262144
-1 0;
#X obj 225 53 cnv 15 15 15 empty \$0-colorSlot7 7 4 8 0 12 -262144
-1 0;
#X obj 245 53 cnv 15 15 15 empty \$0-colorSlot8 8 4 8 0 12 -262144
-1 0;
#N canvas 9 114 1253 392 CLICKS 0;
#X msg 18 207 1;
#X msg 188 207 2;
#X msg 358 207 3;
#X msg 528 207 4;
#X msg 698 207 5;
#X msg 868 207 6;
#X msg 1038 207 7;
#X msg 1208 207 8;
#X obj 18 80 loadbang;
#X obj 616 93 t b;
#X obj 616 267 f 1;
#X obj 18 109 del 5;
#X obj 616 66 r \$0-flushActiveSlot;
#X obj 616 327 s \$0-activeSlot;
#X text 830 67 ATUALIZA SLOT ATIVO;
#X obj 676 106 r \$0-activeSlot_gui_set;
#X text 921 106 RECEBE DO GESTOR DE PRESETS E DA AUTOMAÇÃO;
#X obj 676 135 int;
#X text 186 144 CLIQUES NO SELETOR DE SLOTS;
#X text 371 14 ** GERENCIA MUDANÇA DE SLOT ATIVO PELA INTERFACE E
PRESETS;
#X obj 1208 176 r \$0-clickSlot8;
#X obj 1038 176 r \$0-clickSlot7;
#X obj 868 176 r \$0-clickSlot6;
#X obj 698 176 r \$0-clickSlot5;
#X obj 528 176 r \$0-clickSlot4;
#X obj 358 176 r \$0-clickSlot3;
#X obj 188 176 r \$0-clickSlot2;
#X obj 18 176 r \$0-clickSlot1;
#X connect 0 0 10 0;
#X connect 1 0 10 0;
#X connect 2 0 10 0;
#X connect 3 0 10 0;
#X connect 4 0 10 0;
#X connect 5 0 10 0;
#X connect 6 0 10 0;
#X connect 7 0 10 0;
#X connect 8 0 11 0;
#X connect 9 0 10 0;
#X connect 10 0 13 0;
#X connect 11 0 0 0;
#X connect 12 0 9 0;
#X connect 15 0 17 0;
#X connect 17 0 10 0;
#X connect 20 0 7 0;
#X connect 21 0 6 0;
#X connect 22 0 5 0;
#X connect 23 0 4 0;
#X connect 24 0 3 0;
#X connect 25 0 2 0;
#X connect 26 0 1 0;
#X connect 27 0 0 0;
#X restore 304 22 pd CLICKS;
#N canvas 106 189 411 304 BROWSE_FILE 0;
#X obj 44 121 t b;
#X obj 44 187 openpanel;
#X obj 44 234 s \$0-slotFileIn;
#X obj 44 91 r \$0-openBrowser;
#X text 210 234 ENVIA PARA SLOTS;
#X obj 44 155 symbol Images/;
#X text 50 21 ** CHAMA JANELA DE ABERTURA DE ARQUIVO A PARTIR DA INTERFACE
, f 30;
#X connect 0 0 5 0;
#X connect 1 0 2 0;
#X connect 3 0 0 0;
#X connect 5 0 1 0;
#X restore 304 53 pd BROWSE_FILE;
#N canvas 210 118 663 329 FILE_VISOR 0;
#X msg 221 226 label \$1;
#X msg 47 226 color \$1;
#X obj 434 197 loadbang;
#X obj 221 197 arrast_namecut 22;
#X obj 144 66 r \$0-activeFile;
#X obj 144 130 sel none;
#X obj 47 197 r \$0-bgColor;
#X obj 221 272 s \$0-nameVisor;
#X text 238 133 FILTRA SLOTS VAZIOS;
#X text 44 169 COR DE FUNDO;
#X text 308 67 RECEBE ARQUIVO ATIVO;
#X text 48 21 ** GERENCIA CONTEÚDO EXIBIDO NO VISOR DE NOME DO ARQUIVO
;
#X obj 144 98 unpack s f;
#X msg 434 226 label OPEN_IMAGE;
#X connect 0 0 7 0;
#X connect 1 0 7 0;
#X connect 2 0 13 0;
#X connect 3 0 0 0;
#X connect 4 0 12 0;
#X connect 5 0 13 0;
#X connect 5 1 3 0;
#X connect 6 0 1 0;
#X connect 12 0 5 0;
#X connect 13 0 7 0;
#X restore 304 84 pd FILE_VISOR;
#X connect 1 0 0 0;
#X connect 2 0 1 0;
#X coords 0 -1 1 1 165 21 2 100 50;
#X restore 60 79 pd select_slot;
#N canvas 170 251 586 372 CONTROL_MEMORY 0;
#N canvas 50 118 1014 478 PRESET_MANAGER 0;
#X obj 42 346 list trim;
#X obj 42 67 r CH\$1_FLUSH;
#X obj 42 393 s CH\$1_PRESET;
#X obj 89 132 s \$0-slotFlush;
#X obj 72 280 r \$0-slotList;
#X text 218 279 RECEBE DADOS DOS SLOTS;
#X text 39 422 ENVIA PARA GESTOR GLOBAL DE PRESETS;
#X text 134 19 ** GERENCIA COMUNICAÇÃO ENTRE SLOTS E GESTOR GLOBAL
DE PRESETS, f 62;
#X obj 541 67 r MAIN_PRESET_SEND;
#X obj 588 204 route \$1;
#X obj 541 100 t b a;
#X obj 541 160 s \$0-flushActiveSlot;
#X text 684 204 ROTEIA POR CANAL;
#X obj 745 294 s \$0-slotFilePreset;
#X text 736 64 RECEBE MEMÓRIA DO PRESET GLOBAL, f 17;
#X text 755 160 ATUALIZA SLOT ATUAL;
#X text 742 323 ENVIA DADOS PARA SLOTS;
#X text 245 132 SOLICITA DADOS DOS SLOTS;
#X obj 42 313 list prepend image;
#X obj 588 234 route image;
#X obj 69 176 r \$0-activeSlot;
#X obj 42 205 f;
#X obj 42 234 list prepend activeSlot;
#X text 236 176 MEMÓRIA DO SLOT ATIVO NA UNIDADE, f 21;
#X obj 588 264 route activeSlot;
#X obj 588 354 s \$0-activeSlotSet;
#X text 585 383 ENVIA SLOT ATIVO;
#X obj 42 100 t b b;
#X obj 541 132 del 5;
#X connect 0 0 2 0;
#X connect 1 0 27 0;
#X connect 4 0 18 0;
#X connect 8 0 10 0;
#X connect 9 0 19 0;
#X connect 10 0 28 0;
#X connect 10 1 9 0;
#X connect 18 0 0 0;
#X connect 19 0 24 0;
#X connect 20 0 21 1;
#X connect 21 0 22 0;
#X connect 22 0 18 0;
#X connect 24 0 25 0;
#X connect 24 1 13 0;
#X connect 27 0 21 0;
#X connect 27 1 3 0;
#X connect 28 0 11 0;
#X restore 327 84 pd PRESET_MANAGER;
#X text 196 17 ** MEMÓRIA LOCAL;
#X text 47 56 SLOTS DE MEMÓRIA LOCAL;
#X obj 48 84 arrast_imageslot \$0 \$1 1;
#N canvas 31 67 569 315 SEND_ACTIVE_SLOT 0;
#X obj 45 94 r \$0-activeSlot;
#X obj 45 207 spigot;
#X obj 45 178 f;
#X obj 102 154 t b f;
#X text 88 22 ** ENVIA SLOT ATIVO NO MÓDULO DE VÍDEO PARA MÓDULO
DE TRANSFORMAÇÕES E EFEITOS, f 39;
#X obj 45 246 s I\$1_ACTIVE_SLOT;
#X obj 102 125 r \$0-on;
#X obj 295 118 s C\$1_ACTIVE_SLOT;
#X text 293 146 ENVIA DIRETO PARA UNIDADE DE CÂMERA, f 17;
#X text 120 207 APENAS SE O MÓDULO DE IMAGEM ESTIVER ATIVO;
#X connect 0 0 2 0;
#X connect 0 0 7 0;
#X connect 1 0 5 0;
#X connect 2 0 1 0;
#X connect 3 0 2 0;
#X connect 3 1 1 1;
#X connect 6 0 3 0;
#X restore 327 152 pd SEND_ACTIVE_SLOT;
#N canvas 123 184 499 284 AUTOMATION_MANAGER 0;
#X text 309 190 SLOT ATIVO;
#X text 169 110 BOTÃO DE HABILITAR UNIDADE;
#X text 44 20 ** GESTÃO LOCAL DA MEMÓRIA DE AUTOMAÇÕES;
#X obj 49 102 r I\$1_ST;
#X obj 49 170 s I\$1_SET_ST;
#X text 47 70 UNIDADES DE AUTOMAÇÃO POR PARÂMETRO;
#X obj 49 136 arrast_automato \$0 enableButton \$1 0 19;
#X obj 49 216 arrast_automato \$0 activeSlot \$1 0 20;
#X connect 3 0 6 0;
#X connect 6 0 4 0;
#X restore 327 118 pd AUTOMATION_MANAGER;
#X obj 48 118 arrast_imageslot \$0 \$1 2;
#X obj 48 152 arrast_imageslot \$0 \$1 3;
#X obj 48 186 arrast_imageslot \$0 \$1 4;
#X obj 48 220 arrast_imageslot \$0 \$1 5;
#X obj 48 254 arrast_imageslot \$0 \$1 6;
#X obj 48 288 arrast_imageslot \$0 \$1 7;
#X obj 48 322 arrast_imageslot \$0 \$1 8;
#X restore 280 64 pd CONTROL_MEMORY;
#N canvas 440 381 756 273 EXTERNAL_CONTROL 0;
#X obj 444 110 oscformat;
#X obj 67 29 oscparse;
#X msg 472 80 set camino para lo osc;
#X obj 67 109 route \$1;
#X text 164 109 FILTRA POR CANAL;
#X msg 444 50 teste 23;
#X obj 67 68 route arrast_vj;
#X text 234 68 PRIMEIRA TAG OSC;
#X obj 67 191 s \$0-to_arrast_slot;
#X text 278 191 ENVIA CONTROLE PARA SLOTS;
#X obj 67 148 route image;
#X text 195 148 FILTRA POR MÓDULO;
#X connect 0 0 1 0;
#X connect 1 0 6 0;
#X connect 2 0 0 0;
#X connect 3 0 10 0;
#X connect 5 0 0 0;
#X connect 6 0 3 0;
#X connect 10 0 8 0;
#X restore 280 30 pd EXTERNAL_CONTROL;
#X coords 0 -1 1 1 185 80 2 50 30;
