#N canvas 136 183 417 456 10;
#X obj 55 411 rectangle 4 3;
#X obj 55 200 pix_film;
#X obj 55 274 pix_texture;
#X msg 84 135 open \$1;
#X obj 55 300 rotateXYZ 0 180 0;
#N canvas 221 390 318 189 info 0;
#X obj 51 44 inlet;
#X obj 51 67 unpack f f f;
#X floatatom 51 99 5 0 0 0 - - -;
#X floatatom 161 99 5 0 0 0 - - -;
#X floatatom 229 99 5 0 0 0 - - -;
#X obj 161 132 s \$0-larg;
#X obj 229 132 s \$0-alt;
#X obj 51 132 s \$2-frames_prev;
#X connect 0 0 1 0;
#X connect 1 0 2 0;
#X connect 1 1 3 0;
#X connect 1 2 4 0;
#X connect 2 0 7 0;
#X connect 3 0 5 0;
#X connect 4 0 6 0;
#X restore 77 225 pd info;
#N canvas 627 145 715 531 cursor 0;
#X obj 112 169 f;
#X obj 139 169 + 1;
#X obj 112 213 mod 1;
#X msg 187 44 1000 \$1;
#X obj 187 66 /;
#X floatatom 187 90 12 0 0 0 - - -;
#X text 203 107 intervalo entre frames;
#X obj 139 193 r \$0-modulo;
#X obj 112 256 +;
#X obj 127 236 r \$0-offset;
#N canvas 721 550 255 346 loop_noloop 0;
#X msg 62 238 0;
#X obj 62 37 r \$0-cursor;
#X obj 62 213 sel;
#X obj 62 264 spigot;
#X obj 116 247 != 1;
#X obj 62 292 s \$0-motor;
#X obj 116 227 r \$0-loop;
#X obj 77 171 moses;
#X obj 124 154 r \$0-frames;
#X obj 77 61 r \$0-fim;
#X obj 77 146 - 1;
#X obj 116 85 r \$0-direcao;
#X obj 143 129 == 1;
#X obj 31 281 bng 15 250 50 0 empty empty empty 17 7 0 10 -262144 -1
-1;
#X obj 77 124 f;
#X obj 116 107 t b f;
#X connect 0 0 3 0;
#X connect 1 0 2 0;
#X connect 2 0 0 0;
#X connect 3 0 5 0;
#X connect 3 0 13 0;
#X connect 4 0 3 1;
#X connect 6 0 4 0;
#X connect 7 0 2 1;
#X connect 8 0 7 1;
#X connect 9 0 14 0;
#X connect 10 0 7 0;
#X connect 11 0 15 0;
#X connect 12 0 10 1;
#X connect 14 0 10 0;
#X connect 15 0 14 0;
#X connect 15 1 12 0;
#X restore 361 419 pd loop_noloop;
#X msg 31 152 0;
#X obj 112 116 metro 41.6667;
#X floatatom 112 348 5 0 0 0 - - -;
#N canvas 980 703 291 193 framefinal 0;
#X obj 60 88 +;
#X obj 60 143 s \$0-framefinal;
#X obj 60 116 - 1;
#X obj 60 50 r \$0-offset;
#X obj 140 50 r \$0-modulo;
#X connect 0 0 2 0;
#X connect 2 0 1 0;
#X connect 3 0 0 0;
#X connect 4 0 0 1;
#X restore 571 419 pd framefinal;
#X floatatom 376 194 5 0 0 0 - - -;
#X obj 376 216 s \$0-fps;
#X obj 187 22 r \$0-fps;
#X obj 468 216 s \$0-loop;
#X obj 468 194 tgl 15 0 empty empty empty 17 7 0 10 -262144 -1 -1 0
1;
#X obj 538 194 tgl 15 0 empty empty empty 17 7 0 10 -262144 -1 -1 0
1;
#X obj 538 216 s \$0-loopmode;
#X obj 314 250 hsl 128 15 0 1 0 0 empty empty empty -2 -8 0 10 -262144
-1 -1 0 1;
#X obj 314 265 hsl 128 15 0 1 0 0 empty empty empty -2 -8 0 10 -262144
-1 -1 12700 1;
#X obj 466 250 bng 15 250 50 0 empty empty empty 17 7 0 10 -262144
-1 -1;
#X obj 466 269 s \$0-play;
#X obj 613 250 bng 15 250 50 0 empty empty empty 17 7 0 10 -262144
-1 -1;
#X obj 613 269 s \$0-stop;
#X obj 536 250 bng 15 250 50 0 empty empty empty 17 7 0 10 -262144
-1 -1;
#X obj 536 269 s \$0-pause;
#N canvas 268 349 403 180 play 0;
#X obj 43 36 r \$0-play;
#X obj 43 126 s \$0-motor;
#X msg 43 99 1;
#X obj 116 126 s \$0-gotoin;
#X obj 196 126 s \$0-ioflush;
#X obj 43 60 t b b b b;
#X obj 283 126 s \$0-altreset;
#X connect 0 0 5 0;
#X connect 2 0 1 0;
#X connect 5 0 2 0;
#X connect 5 1 3 0;
#X connect 5 2 4 0;
#X connect 5 3 6 0;
#X restore 466 291 pd play;
#N canvas 719 513 207 196 pause 0;
#X obj -7 142 s \$0-motor;
#X obj -7 30 r \$0-pause;
#X msg -7 105 0;
#N canvas 521 496 313 296 alterna 0;
#X obj 47 22 inlet;
#X obj 47 142 f;
#X obj 74 142 + 1;
#X obj 47 164 % 2;
#X obj 47 194 sel 0 1;
#X obj 47 254 outlet;
#X obj 47 112 t b;
#X obj 97 254 outlet;
#X obj 110 27 r \$0-play;
#X msg 110 47 1;
#X obj 47 84 spigot;
#X obj 110 67 t f f;
#X obj 180 27 r \$0-stop;
#X msg 180 47 0;
#X connect 0 0 10 0;
#X connect 1 0 3 0;
#X connect 2 0 1 1;
#X connect 3 0 2 0;
#X connect 3 0 4 0;
#X connect 4 0 5 0;
#X connect 4 1 7 0;
#X connect 6 0 1 0;
#X connect 8 0 9 0;
#X connect 9 0 11 0;
#X connect 10 0 6 0;
#X connect 11 0 10 1;
#X connect 11 1 1 0;
#X connect 12 0 13 0;
#X connect 13 0 10 1;
#X restore -7 68 pd alterna;
#X msg 50 105 1;
#X connect 1 0 3 0;
#X connect 2 0 0 0;
#X connect 3 0 2 0;
#X connect 3 1 4 0;
#X connect 4 0 0 0;
#X restore 536 291 pd pause;
#N canvas 429 497 221 149 stop 0;
#X obj 41 36 r \$0-stop;
#X msg 121 79 0;
#X obj 121 100 s \$0-motor;
#X obj 41 100 s \$0-gotoin;
#X obj 41 62 t b b;
#X connect 0 0 4 0;
#X connect 1 0 2 0;
#X connect 4 0 3 0;
#X connect 4 1 1 0;
#X restore 613 291 pd stop;
#X obj 112 85 tgl 25 0 empty empty empty 17 7 0 10 -204786 -1 -1 0
1;
#X obj 112 63 r \$0-motor;
#N canvas 133 644 167 252 direcao 0;
#X msg 78 169 1;
#X msg 48 169 -1;
#X obj 48 36 r \$0-inicio;
#X obj 59 57 r \$0-fim;
#X obj 48 102 <;
#X obj 59 79 t b f;
#X floatatom 48 122 5 0 0 0 - - -;
#X obj 48 144 sel 0 1;
#X obj 48 198 s \$0-direcao;
#X connect 0 0 8 0;
#X connect 1 0 8 0;
#X connect 2 0 4 0;
#X connect 3 0 5 0;
#X connect 4 0 6 0;
#X connect 5 0 4 0;
#X connect 5 1 4 1;
#X connect 6 0 7 0;
#X connect 7 0 1 0;
#X connect 7 1 0 0;
#X restore 286 419 pd direcao;
#X obj 154 147 r \$0-direcao;
#N canvas 315 536 389 345 modulo_offset 0;
#X obj 224 170 <;
#X floatatom 224 191 5 0 0 0 - - -;
#X obj 224 144 t f f;
#X obj 274 144 t f f;
#X obj 252 234 f;
#X obj 224 234 f;
#X obj 224 211 sel 1 0;
#X floatatom 224 261 5 0 0 0 - - -;
#X obj 224 285 s \$0-offset;
#X obj 77 33 r \$0-inicio;
#X obj 95 79 r \$0-fim;
#X obj 77 148 -;
#X obj 95 121 t b f;
#X obj 77 170 abs;
#X floatatom 77 194 5 0 0 0 - - -;
#X obj 116 247 s \$0-modulo;
#X obj 224 117 f;
#X obj 274 117 f;
#X obj 77 217 t b b f;
#X obj 95 100 t f f;
#X obj 77 53 t f f;
#X connect 0 0 1 0;
#X connect 1 0 6 0;
#X connect 2 0 0 0;
#X connect 2 1 5 1;
#X connect 3 0 0 1;
#X connect 3 1 4 1;
#X connect 4 0 7 0;
#X connect 5 0 7 0;
#X connect 6 0 5 0;
#X connect 6 1 4 0;
#X connect 7 0 8 0;
#X connect 9 0 20 0;
#X connect 10 0 19 0;
#X connect 11 0 13 0;
#X connect 12 0 11 0;
#X connect 12 1 11 1;
#X connect 13 0 14 0;
#X connect 14 0 18 0;
#X connect 16 0 2 0;
#X connect 17 0 3 0;
#X connect 18 0 16 0;
#X connect 18 1 17 0;
#X connect 18 2 15 0;
#X connect 19 0 12 0;
#X connect 19 1 17 1;
#X connect 20 0 11 0;
#X connect 20 1 16 1;
#X restore 461 419 pd modulo_offset;
#N canvas 455 531 179 235 inicio 0;
#X obj 45 69 r \$0-frames;
#X obj 33 144 *;
#X obj 33 164 int;
#X floatatom 33 184 5 0 0 0 - - -;
#X obj 33 207 s \$0-inicio;
#X obj 33 17 inlet;
#X obj 33 40 f;
#X obj 75 23 r \$0-ioflush;
#X obj 45 91 t b f;
#X obj 45 111 s \$0-ioflush;
#X connect 0 0 8 0;
#X connect 1 0 2 0;
#X connect 2 0 3 0;
#X connect 3 0 4 0;
#X connect 5 0 6 0;
#X connect 6 0 1 0;
#X connect 7 0 6 0;
#X connect 8 0 9 0;
#X connect 8 1 1 1;
#X restore 311 285 pd inicio;
#N canvas 448 534 197 260 fim 0;
#X obj 55 79 r \$0-frames;
#X obj 43 154 *;
#X obj 43 174 int;
#X floatatom 43 194 5 0 0 0 - - -;
#X obj 43 27 inlet;
#X obj 43 50 f;
#X obj 85 33 r \$0-ioflush;
#X obj 55 101 t b f;
#X obj 55 121 s \$0-ioflush;
#X obj 43 217 s \$0-fim;
#X connect 0 0 7 0;
#X connect 1 0 2 0;
#X connect 2 0 3 0;
#X connect 3 0 9 0;
#X connect 4 0 5 0;
#X connect 5 0 1 0;
#X connect 6 0 5 0;
#X connect 7 0 8 0;
#X connect 7 1 1 1;
#X restore 311 305 pd fim;
#X floatatom 275 248 5 0 0 0 - #0-inicio -;
#X floatatom 275 265 5 0 0 0 - #0-fim -;
#X obj 31 131 r \$0-gotoin;
#X text 414 193 FPS;
#X obj 314 351 hsl 128 15 0 131 0 0 empty empty empty -2 -8 0 10 -262144
-1 -1 0 1;
#N canvas 606 511 242 149 timeline 0;
#X obj 40 99 outlet;
#X msg 122 58 range 0 \$1;
#X obj 122 33 r \$0-frames;
#X obj 40 33 r \$0-cursor;
#X connect 1 0 0 0;
#X connect 2 0 1 0;
#X connect 3 0 0 0;
#X restore 311 330 pd timeline;
#N canvas 904 203 458 494 loopmode 0;
#X obj 51 34 inlet;
#X obj 82 451 outlet;
#X obj 242 307 r \$0-loopmode;
#X obj 144 367 t f f;
#X obj 193 415 spigot;
#X obj 82 415 spigot 1;
#X obj 51 56 s \$0-cru;
#X obj 99 148 t f f;
#X obj 66 221 spigot;
#X obj 193 221 spigot 1;
#X obj 238 197 == 0;
#X obj 82 392 r \$0-cru;
#X obj 238 139 abs;
#X obj 238 117 - 1;
#X obj 271 100 r \$0-framefinal;
#X obj 271 147 r \$0-offset;
#X obj 238 164 + 0;
#X obj 174 64 r \$0-cru;
#X obj 174 87 t f f f;
#X text 269 122 calcula cursor invertido;
#N canvas 845 136 250 230 alternador 0;
#N canvas 959 136 243 262 loop_point 0;
#X obj 41 33 inlet;
#X obj 41 213 outlet;
#X obj 68 67 r \$0-fim;
#X obj 68 130 - 1;
#X obj 127 67 r \$0-direcao;
#X obj 154 113 == 1;
#X obj 41 184 sel 1;
#X obj 68 107 f;
#X obj 127 90 t b f;
#X floatatom 68 156 5 0 0 0 - - -;
#X connect 0 0 6 0;
#X connect 2 0 7 0;
#X connect 3 0 9 0;
#X connect 4 0 8 0;
#X connect 5 0 3 1;
#X connect 6 0 1 0;
#X connect 7 0 3 0;
#X connect 8 0 7 0;
#X connect 8 1 5 0;
#X connect 9 0 6 1;
#X restore 40 72 pd loop_point;
#X obj 40 105 f;
#X obj 67 105 + 1;
#X obj 40 127 % 2;
#X obj 40 41 inlet;
#X obj 40 181 outlet;
#X obj 89 181 s \$0-change;
#X obj 40 151 t f b;
#X obj 134 24 r \$0-altreset;
#X obj 134 88 f 0;
#X obj 149 46 r \$0-direcao;
#X obj 149 66 != 1;
#X connect 0 0 1 0;
#X connect 1 0 3 0;
#X connect 2 0 1 1;
#X connect 3 0 2 0;
#X connect 3 0 7 0;
#X connect 4 0 0 0;
#X connect 7 0 5 0;
#X connect 7 1 6 0;
#X connect 8 0 9 0;
#X connect 9 0 1 0;
#X connect 10 0 11 0;
#X connect 11 0 9 1;
#X restore 99 117 pd alternador;
#X obj 193 254 s \$0-cozido;
#X obj 193 392 r \$0-cozido;
#X obj 144 392 == 0;
#X text 132 451 saida do cursor no loopmode escolhido;
#X obj 144 343 f;
#X obj 144 307 r \$0-change;
#X text 250 220 normal;
#X text 110 220 invertido;
#X obj 242 326 t f b;
#X obj 269 349 s \$0-altreset;
#X connect 0 0 6 0;
#X connect 2 0 29 0;
#X connect 3 0 23 0;
#X connect 3 1 4 1;
#X connect 4 0 1 0;
#X connect 5 0 1 0;
#X connect 7 0 8 1;
#X connect 7 1 10 0;
#X connect 8 0 21 0;
#X connect 9 0 21 0;
#X connect 10 0 9 1;
#X connect 11 0 5 0;
#X connect 12 0 16 0;
#X connect 13 0 12 0;
#X connect 14 0 13 1;
#X connect 15 0 16 1;
#X connect 16 0 8 0;
#X connect 17 0 18 0;
#X connect 18 0 20 0;
#X connect 18 1 9 0;
#X connect 18 2 13 0;
#X connect 20 0 7 0;
#X connect 22 0 4 0;
#X connect 23 0 5 1;
#X connect 25 0 3 0;
#X connect 26 0 25 0;
#X connect 29 0 25 1;
#X connect 29 1 30 0;
#X restore 112 302 pd loopmode;
#X msg 376 168 24;
#X obj 376 148 loadbang;
#X text 151 348 CURSOR;
#X obj 128 375 s \$0-cursor;
#X text 319 48 * TO DO - Ligar e desligar o render no motor sob demanda
;
#X text 488 192 L;
#X text 558 192 LM;
#X msg 311 165 0;
#X msg 341 165 1;
#X msg 468 165 0;
#X msg 538 165 0;
#X text 487 247 play;
#X text 557 247 pause;
#X text 637 247 stop;
#X obj 112 418 list prepend cursor;
#X obj 112 471 s CANAL_V;
#X obj 112 444 list prepend V\$1;
#X connect 0 0 2 0;
#X connect 1 0 0 1;
#X connect 2 0 1 0;
#X connect 2 0 8 0;
#X connect 3 0 4 0;
#X connect 4 0 5 0;
#X connect 5 0 12 1;
#X connect 7 0 2 1;
#X connect 8 0 46 0;
#X connect 9 0 8 1;
#X connect 11 0 0 0;
#X connect 12 0 0 0;
#X connect 13 0 50 0;
#X connect 13 0 61 0;
#X connect 15 0 16 0;
#X connect 17 0 3 0;
#X connect 19 0 18 0;
#X connect 20 0 21 0;
#X connect 22 0 38 0;
#X connect 23 0 39 0;
#X connect 24 0 25 0;
#X connect 26 0 27 0;
#X connect 28 0 29 0;
#X connect 33 0 12 0;
#X connect 34 0 33 0;
#X connect 36 0 1 1;
#X connect 42 0 11 0;
#X connect 45 0 44 0;
#X connect 46 0 13 0;
#X connect 47 0 15 0;
#X connect 48 0 47 0;
#X connect 48 0 55 0;
#X connect 48 0 54 0;
#X connect 48 0 56 0;
#X connect 48 0 57 0;
#X connect 54 0 22 0;
#X connect 55 0 23 0;
#X connect 56 0 19 0;
#X connect 57 0 20 0;
#X connect 61 0 63 0;
#X connect 63 0 62 0;
#X coords 0 531 1 530 370 180 0;
#X restore 269 111 pd cursor;
#N canvas 655 478 210 286 prev_cursor 0;
#X obj 47 164 * 1;
#X obj 47 185 int;
#X msg 89 185 30;
#X obj 89 164 del 50;
#X obj 62 138 t f b;
#N canvas 755 429 282 335 jump 0;
#X obj 61 142 metro 1000;
#X obj 61 189 f;
#X obj 61 211 % 5;
#X obj 87 189 + 1;
#X msg 76 169 0;
#X msg 61 119 1;
#X msg 95 119 0;
#X obj 61 98 t b b;
#X obj 61 234 sel 0 1 2 3 4;
#X msg 61 258 0.1;
#X msg 91 258 0.25;
#X msg 127 258 0.5;
#X msg 157 258 0.75;
#X msg 193 258 0.95;
#X obj 61 287 outlet;
#X obj 61 74 sel 1;
#X obj 61 43 tgl 25 0 empty empty empty 17 7 0 10 -262144 -1 -1 1 1
;
#X obj 61 18 inlet;
#X connect 0 0 1 0;
#X connect 1 0 2 0;
#X connect 2 0 3 0;
#X connect 2 0 8 0;
#X connect 3 0 1 1;
#X connect 4 0 1 1;
#X connect 5 0 0 0;
#X connect 6 0 0 0;
#X connect 7 0 5 0;
#X connect 7 1 4 0;
#X connect 8 0 9 0;
#X connect 8 1 10 0;
#X connect 8 2 11 0;
#X connect 8 3 12 0;
#X connect 8 4 13 0;
#X connect 9 0 14 0;
#X connect 10 0 14 0;
#X connect 11 0 14 0;
#X connect 12 0 14 0;
#X connect 13 0 14 0;
#X connect 15 0 7 0;
#X connect 15 1 6 0;
#X connect 16 0 15 0;
#X connect 17 0 16 0;
#X restore 47 84 pd jump;
#X obj 47 66 tgl 15 0 empty empty empty 17 7 0 10 -262144 -1 -1 1 1
;
#X obj 47 37 inlet;
#X obj 47 223 outlet;
#X obj 62 115 r \$0-frames_prev;
#X connect 0 0 1 0;
#X connect 1 0 8 0;
#X connect 2 0 8 0;
#X connect 3 0 2 0;
#X connect 4 0 0 1;
#X connect 4 1 3 0;
#X connect 5 0 0 0;
#X connect 6 0 5 0;
#X connect 7 0 6 0;
#X connect 9 0 4 0;
#X restore 117 183 pd prev_cursor;
#X obj 117 162 tgl 15 0 empty empty empty 17 7 0 10 -232576 -1 -1 1
1;
#X text 137 160 JUMP!;
#X obj 55 66 gemhead \$1;
#X obj 55 352 translateXYZ 0 0 0;
#N canvas 416 270 323 202 trans 0;
#X obj 42 35 loadbang;
#X obj 42 61 f \$1;
#X obj 42 143 outlet;
#X obj 42 88 sel 1 2 3 4;
#X msg 42 115 3;
#X msg 73 115 1;
#X msg 103 115 -1;
#X msg 133 115 -3;
#X connect 0 0 1 0;
#X connect 1 0 3 0;
#X connect 3 0 4 0;
#X connect 3 1 5 0;
#X connect 3 2 6 0;
#X connect 3 3 7 0;
#X connect 4 0 2 0;
#X connect 5 0 2 0;
#X connect 6 0 2 0;
#X connect 7 0 2 0;
#X restore 125 328 pd trans;
#X msg 55 42 1;
#X msg 85 42 0;
#X obj 84 93 r \$2-file;
#X obj 55 7 loadbang;
#X obj 55 386 scale 0.3;
#X msg 174 145 1;
#X obj 84 114 t s b;
#X connect 1 0 2 0;
#X connect 1 1 5 0;
#X connect 2 0 4 0;
#X connect 3 0 1 0;
#X connect 4 0 11 0;
#X connect 7 0 1 1;
#X connect 8 0 7 0;
#X connect 10 0 1 0;
#X connect 11 0 17 0;
#X connect 12 0 11 2;
#X connect 13 0 10 0;
#X connect 14 0 10 0;
#X connect 15 0 19 0;
#X connect 16 0 13 0;
#X connect 17 0 0 0;
#X connect 18 0 8 0;
#X connect 19 0 3 0;
#X connect 19 1 18 0;
