#N canvas 428 137 776 627 10;
#X obj 57 168 arrast_transp;
#X obj 57 37 inlet;
#X obj 57 587 outlet;
#X obj 57 328 rotateXYZ 0 0 0;
#X obj 308 37 r CANAL_T;
#X obj 308 67 route T\$1;
#N canvas 702 77 520 238 transp_control 0;
#X obj 119 80 r \$0-white;
#X obj 199 80 r \$0-black;
#X msg 119 108 br \$1;
#X msg 199 108 pr \$1;
#X obj 32 79 r \$0-transp;
#X msg 32 108 transp1 \$1;
#X obj 119 176 outlet;
#X obj 119 143 spigot;
#X obj 302 25 r CANAL_MODE;
#X msg 302 91 1;
#X msg 332 91 1;
#X msg 432 91 1;
#X msg 402 91 0;
#X obj 302 47 sel 0 1;
#X obj 302 69 t b b b;
#X msg 362 91 0;
#X msg 462 91 0;
#X obj 402 69 t b b b;
#X obj 225 25 loadbang;
#X connect 0 0 2 0;
#X connect 1 0 3 0;
#X connect 2 0 7 0;
#X connect 3 0 7 0;
#X connect 4 0 5 0;
#X connect 5 0 7 0;
#X connect 7 0 6 0;
#X connect 8 0 13 0;
#X connect 9 0 7 1;
#X connect 10 0 5 0;
#X connect 10 0 2 0;
#X connect 11 0 5 0;
#X connect 11 0 2 0;
#X connect 12 0 7 1;
#X connect 13 0 14 0;
#X connect 13 1 17 0;
#X connect 14 0 9 0;
#X connect 14 1 10 0;
#X connect 14 2 15 0;
#X connect 15 0 3 0;
#X connect 16 0 3 0;
#X connect 17 0 12 0;
#X connect 17 1 11 0;
#X connect 17 2 16 0;
#X connect 18 0 14 0;
#X restore 101 151 pd transp_control;
#X obj 308 154 s \$0-transp;
#X obj 388 154 s \$0-white;
#X obj 462 154 s \$0-black;
#X obj 536 154 s \$0-flip_h;
#X obj 616 154 s \$0-flip_v;
#X obj 377 194 s \$0-pos_x;
#X obj 452 194 s \$0-pos_y;
#X obj 308 194 s \$0-size;
#X obj 92 441 r \$0-pos_x;
#X obj 162 441 r \$0-pos_y;
#X obj 57 469 translateXYZ 0 0 0;
#X obj 115 250 r \$0-flip_h;
#X obj 115 275 sel 0 1;
#X msg 115 301 0;
#X msg 145 301 180;
#X obj 205 275 sel 0 1;
#X msg 205 301 0;
#X msg 235 301 180;
#X obj 205 250 r \$0-flip_v;
#X obj 57 399 scale 1.333;
#N canvas 241 247 537 211 color 0;
#X obj 48 174 outlet;
#X obj 48 32 r \$0-red;
#X obj 111 32 r \$0-green;
#X obj 186 32 r \$0-blue;
#X obj 111 174 outlet;
#X obj 186 174 outlet;
#X obj 286 174 outlet;
#X obj 286 32 r \$0-transp;
#X obj 286 140 spigot;
#X obj 373 57 r CANAL_MODE;
#X obj 373 101 t b b;
#X msg 373 123 1;
#X msg 403 123 1;
#X obj 433 101 t b b;
#X msg 463 123 1;
#X msg 433 123 0;
#X obj 373 79 sel 1 0;
#X connect 1 0 0 0;
#X connect 2 0 4 0;
#X connect 3 0 5 0;
#X connect 7 0 8 0;
#X connect 8 0 6 0;
#X connect 9 0 16 0;
#X connect 10 0 11 0;
#X connect 10 1 12 0;
#X connect 11 0 8 1;
#X connect 12 0 6 0;
#X connect 13 0 15 0;
#X connect 13 1 14 0;
#X connect 14 0 6 0;
#X connect 15 0 8 1;
#X connect 16 0 10 0;
#X connect 16 1 13 0;
#X restore 121 514 pd color;
#X obj 528 194 s \$0-red;
#X obj 591 194 s \$0-green;
#X obj 666 194 s \$0-blue;
#X obj 57 531 colorRGB;
#X obj 308 97 route transp white black flip_h flip_v size pos_x pos_y
red green blue;
#N canvas 850 454 323 219 select_source 0;
#X obj 42 128 spigot;
#X obj 75 108 tgl 15 0 empty empty empty 17 7 0 10 -262144 -1 -1 1
1;
#X obj 233 38 inlet;
#X obj 75 79 == 0;
#X obj 42 38 inlet;
#X obj 142 128 spigot;
#X obj 175 108 tgl 15 0 empty empty empty 17 7 0 10 -262144 -1 -1 0
1;
#X obj 175 79 == 1;
#X obj 42 183 outlet;
#X obj 233 62 clip 0 1;
#X obj 142 183 outlet;
#X connect 0 0 8 0;
#X connect 1 0 0 1;
#X connect 2 0 9 0;
#X connect 3 0 1 0;
#X connect 4 0 0 0;
#X connect 4 0 5 0;
#X connect 5 0 10 0;
#X connect 6 0 5 1;
#X connect 7 0 6 0;
#X connect 9 0 3 0;
#X connect 9 0 7 0;
#X restore 57 117 pd select_source;
#X obj 150 89 hradio 25 1 0 2 empty empty empty 0 -8 0 10 -262144 -1
-1 0;
#X obj 150 22 loadbang;
#X msg 150 42 0;
#X obj 150 65 r CANAL_MODE;
#N canvas 398 282 306 268 size 0;
#X obj 47 214 outlet;
#X obj 47 153 * 1.333;
#X obj 47 36 r \$0-size;
#X obj 153 36 r CANAL_MODE;
#X obj 153 60 sel 0 1;
#X msg 153 84 1.333;
#X obj 153 108 t b f;
#X obj 47 125 f 1;
#X obj 203 108 t b f;
#X msg 203 84 1;
#X connect 1 0 0 0;
#X connect 2 0 7 0;
#X connect 3 0 4 0;
#X connect 4 0 5 0;
#X connect 4 1 9 0;
#X connect 5 0 6 0;
#X connect 6 0 7 0;
#X connect 6 1 1 1;
#X connect 7 0 1 0;
#X connect 8 0 7 0;
#X connect 8 1 1 1;
#X connect 9 0 8 0;
#X restore 88 371 pd size;
#X connect 0 0 3 0;
#X connect 1 0 33 0;
#X connect 3 0 26 0;
#X connect 4 0 5 0;
#X connect 5 0 32 0;
#X connect 6 0 0 1;
#X connect 15 0 17 1;
#X connect 16 0 17 2;
#X connect 17 0 31 0;
#X connect 18 0 19 0;
#X connect 19 0 20 0;
#X connect 19 1 21 0;
#X connect 20 0 3 2;
#X connect 21 0 3 2;
#X connect 22 0 23 0;
#X connect 22 1 24 0;
#X connect 23 0 3 1;
#X connect 24 0 3 1;
#X connect 25 0 22 0;
#X connect 26 0 17 0;
#X connect 27 0 31 1;
#X connect 27 1 31 2;
#X connect 27 2 31 3;
#X connect 27 3 31 4;
#X connect 31 0 2 0;
#X connect 32 0 7 0;
#X connect 32 1 8 0;
#X connect 32 2 9 0;
#X connect 32 3 10 0;
#X connect 32 4 11 0;
#X connect 32 5 14 0;
#X connect 32 6 12 0;
#X connect 32 7 13 0;
#X connect 32 8 28 0;
#X connect 32 9 29 0;
#X connect 32 10 30 0;
#X connect 33 0 0 0;
#X connect 33 1 3 0;
#X connect 34 0 33 1;
#X connect 35 0 36 0;
#X connect 36 0 34 0;
#X connect 37 0 34 0;
#X connect 38 0 26 1;
