#N canvas 71 55 818 697 16;
#X obj 187 538 soundfiler;
#X floatatom 140 751 10 0 0 0 - - -, f 10;
#X obj 140 720 f;
#X text 304 538 ABRE ÁUDIO NAS TABELAS L/R;
#X text 107 40 ARGUMENTOS: \$1 - \$0 DO PATCH SUPERIOR \, \$2 - ID
INDIVIDUAL;
#X text 335 783 ENVIA TOTAL DE SAMPLES;
#X obj 187 393 pack s \$1 \$2;
#X obj 530 180 array define \$1-\$2_L;
#X obj 530 214 array define \$1-\$2_R;
#X text 528 151 TABELAS PARA ÁUDIOS;
#X text 106 16 ** CARREGA ÁUDIOS RELATIVOS AOS VÍDEOS DE CADA SLOT
DO CANAL;
#N canvas 75 60 768 482 FORCE_TO_WAV 0;
#X obj 43 116 list fromsymbol;
#X obj 43 355 list tosymbol;
#X obj 43 30 inlet PATH;
#X obj 43 72 symbol;
#X text 190 356 CONVERTE LISTA DE CARACTERES ASCII DEVOLTA PARA SYMBOL
;
#X text 208 116 CONVERTE PRA LISTA DE CARACTERES ASCII;
#N canvas 11 84 856 638 REMOVE_END 0;
#X obj 271 121 list split 1;
#X obj 329 152 list;
#X obj 298 378 f;
#X obj 340 378 + 1;
#X obj 42 531 list split;
#X obj 298 306 spigot;
#X msg 400 273 0;
#X msg 355 273 1;
#X obj 271 220 t b b;
#X obj 271 412 f;
#X obj 338 220 t b;
#X obj 42 75 t l l l b b;
#X text 408 121 DESEMPACOTA LISTA 1 POR 1;
#X text 350 190 PROCURA PELO CARACTERE 46 ".";
#X text 375 305 TERMINA CONTAGEM QUANDO ACHA O PRIMEIRO "." DO FIM
PRO COMEÇO, f 43;
#X text 387 379 CONTA QUANTOS CARACTERES ATÉ O PRIMEIRO ".";
#X obj 139 486 -;
#X obj 139 121 list length;
#X text 183 488 DIMINUI DO TOTAL DE CARACTERES PARA DEFINIR PONTO DE
CORTE;
#X obj 42 28 inlet LIST;
#X obj 42 580 outlet LIST;
#X obj 271 191 sel 46;
#X msg 325 346 1;
#X obj 271 441 + 1;
#X text 314 442 INCLUI "." NA CONTAGEM;
#X text 157 531 REMOVE TERMINAÇÃO (.mov .avi .mp4) DO RESTO DO PATH
;
#X connect 0 0 21 0;
#X connect 0 1 1 0;
#X connect 1 0 0 0;
#X connect 2 0 3 0;
#X connect 2 0 9 1;
#X connect 3 0 2 1;
#X connect 4 0 20 0;
#X connect 5 0 2 0;
#X connect 6 0 5 1;
#X connect 7 0 5 1;
#X connect 8 0 9 0;
#X connect 8 1 6 0;
#X connect 9 0 23 0;
#X connect 10 0 5 0;
#X connect 11 0 4 0;
#X connect 11 1 17 0;
#X connect 11 2 0 0;
#X connect 11 3 22 0;
#X connect 11 4 7 0;
#X connect 16 0 4 1;
#X connect 17 0 16 0;
#X connect 19 0 11 0;
#X connect 21 0 8 0;
#X connect 21 1 10 0;
#X connect 22 0 2 1;
#X connect 23 0 16 1;
#X restore 43 171 pd REMOVE_END;
#X obj 43 294 list append;
#X obj 150 221 loadbang;
#X msg 150 250 46 119 97 118;
#X text 295 252 ".wav" EM ASCII;
#X text 169 296 ADICIONA FINAL ".wav" NO CAMINHO;
#X text 211 24 ** SUBSTITUI QUALQUER TERMINAÇÃO DE ARQUIVO POR TERMINAÇÃO
".wav", f 43;
#X obj 43 417 outlet PATH;
#X text 188 172 REMOVE TERMINAÇÃO (.mov .avi .mp4) DO RESTO DO CAMINHO
;
#X connect 0 0 6 0;
#X connect 1 0 13 0;
#X connect 2 0 3 0;
#X connect 3 0 0 0;
#X connect 6 0 7 0;
#X connect 7 0 1 0;
#X connect 8 0 9 0;
#X connect 9 0 7 1;
#X restore 187 352 pd FORCE_TO_WAV;
#X text 354 353 FORÇA TERMINAÇÃO ".wav";
#X obj 140 311 t b s;
#X text 183 720 TOTAL DE SAMPLES;
#X obj 405 625 s \$1-\$2_L;
#X obj 405 655 s \$1-\$2_R;
#X msg 405 591 normalize 1;
#X obj 187 567 t f b;
#X text 531 591 NORMALIZA ÁUDIO L/R;
#X obj 140 783 s \$1-totalSamples;
#N canvas 420 511 331 252 CHANGE_SYMBOL 0;
#X obj 57 92 t s s;
#X obj 57 129 sel s;
#X text 124 106 [change] symbol!;
#X obj 57 45 inlet;
#X obj 104 203 outlet;
#X obj 104 159 symbol;
#X connect 0 0 1 1;
#X connect 0 1 1 0;
#X connect 1 1 5 0;
#X connect 3 0 0 0;
#X connect 5 0 4 0;
#X restore 140 275 pd CHANGE_SYMBOL;
#X text 158 240 FILTRA SLOTS VAZIOS;
#X obj 63 239 sel none;
#X text 315 276 FILTRA REPETIÇÕES;
#X obj 63 83 r \$1-audioFile;
#X obj 63 122 unpack s f;
#X obj 120 161 == \$2;
#X obj 63 193 spigot;
#X text 186 161 FILTRA POR SLOT;
#X text 223 84 RECEBE CAMINHO DO ARQUIVO DE VÍDEO E SLOT RELATIVO
;
#X obj 197 676 sel \$2;
#X text 196 621 ATUALIZA SAMPLES;
#X obj 197 647 r \$1-activeSlot;
#X text 251 480 MÁXIMO 8.64e+07 SAMPLES = 700MB = 30 MINUTOS EM SISTEMA
64BIT E ÁUDIO 48KHZ, f 44;
#X msg 187 450 read -resize -maxsize 8.64e+07 \$1 \$2-\$3_L \$2-\$3_R
;
#X connect 0 0 18 0;
#X connect 1 0 20 0;
#X connect 2 0 1 0;
#X connect 6 0 35 0;
#X connect 11 0 6 0;
#X connect 13 0 2 0;
#X connect 13 1 11 0;
#X connect 17 0 15 0;
#X connect 17 0 16 0;
#X connect 18 0 2 1;
#X connect 18 1 17 0;
#X connect 21 0 13 0;
#X connect 23 1 21 0;
#X connect 25 0 26 0;
#X connect 26 0 28 0;
#X connect 26 1 27 0;
#X connect 27 0 28 1;
#X connect 28 0 23 0;
#X connect 31 0 2 0;
#X connect 33 0 31 0;
#X connect 35 0 0 0;
