#N canvas 191 175 728 555 16;
#X obj 54 64 loadbang;
#X obj 54 221 gemhead \$1;
#X obj 54 186 tgl 25 0 empty empty empty 17 7 0 10 -262144 -1 -1 1
1;
#X msg 54 98 0;
#X obj 54 502 outlet;
#X obj 184 98 route I\$1;
#N canvas 144 179 900 237 IMAGE_BUFFER 0;
#X obj 41 43 inlet;
#N canvas 107 181 531 404 OPEN_1 0;
#X obj 39 105 unpack s f;
#X obj 39 272 pack s f;
#X msg 39 306 open \$1 \$2;
#X obj 39 61 inlet;
#X obj 136 170 == 1;
#X obj 39 194 spigot;
#X obj 136 136 t f f;
#X obj 39 350 outlet;
#X text 215 239 FILTRA REPETIÇÕES;
#X text 193 171 FILTRA POR SLOT NO BUFFER;
#X obj 183 204 - 1;
#X text 229 204 CORRIGE INDEX PARA BUFFER;
#N canvas 217 321 351 280 CHANGE_SYMBOL 0;
#X obj 49 117 t s s;
#X obj 49 154 sel s;
#X obj 49 70 inlet;
#X obj 96 228 outlet;
#X obj 96 184 symbol;
#X text 59 19 ** [change] SYMBOL;
#X obj 179 70 inlet RESET;
#X msg 179 99 symbol none;
#X connect 0 0 1 1;
#X connect 0 1 1 0;
#X connect 1 1 4 0;
#X connect 2 0 0 0;
#X connect 4 0 3 0;
#X connect 6 0 7 0;
#X connect 7 0 1 1;
#X restore 39 238 pd CHANGE_SYMBOL;
#X text 38 19 ** DISTRIBUI IMAGENS PARA CADA SLOT DO BUFFER;
#X connect 0 0 5 0;
#X connect 0 1 6 0;
#X connect 1 0 2 0;
#X connect 2 0 7 0;
#X connect 3 0 0 0;
#X connect 4 0 5 1;
#X connect 5 0 12 0;
#X connect 6 0 4 0;
#X connect 6 1 10 0;
#X connect 10 0 1 1;
#X connect 12 0 1 0;
#X restore 41 121 pd OPEN_1;
#X text 277 176 BUFFER PARA 8 IMAGENS;
#X text 215 20 ** DISTRIBUI IMAGENS NOS SLOTS DO BUFFER LOCAL;
#X obj 41 77 t a a a a a a a a;
#N canvas 101 178 531 404 OPEN_2 0;
#X obj 39 105 unpack s f;
#X obj 39 272 pack s f;
#X msg 39 306 open \$1 \$2;
#X obj 39 61 inlet;
#X obj 39 194 spigot;
#X obj 136 136 t f f;
#X obj 39 350 outlet;
#X text 215 239 FILTRA REPETIÇÕES;
#X text 193 171 FILTRA POR SLOT NO BUFFER;
#X obj 183 204 - 1;
#X text 229 204 CORRIGE INDEX PARA BUFFER;
#N canvas 215 320 351 280 CHANGE_SYMBOL 0;
#X obj 49 117 t s s;
#X obj 49 154 sel s;
#X obj 49 70 inlet;
#X obj 96 228 outlet;
#X obj 96 184 symbol;
#X text 59 19 ** [change] SYMBOL;
#X obj 179 70 inlet RESET;
#X msg 179 99 symbol none;
#X connect 0 0 1 1;
#X connect 0 1 1 0;
#X connect 1 1 4 0;
#X connect 2 0 0 0;
#X connect 4 0 3 0;
#X connect 6 0 7 0;
#X connect 7 0 1 1;
#X restore 39 238 pd CHANGE_SYMBOL;
#X text 38 19 ** DISTRIBUI IMAGENS PARA CADA SLOT DO BUFFER;
#X obj 136 170 == 2;
#X connect 0 0 4 0;
#X connect 0 1 5 0;
#X connect 1 0 2 0;
#X connect 2 0 6 0;
#X connect 3 0 0 0;
#X connect 4 0 11 0;
#X connect 5 0 13 0;
#X connect 5 1 9 0;
#X connect 9 0 1 1;
#X connect 11 0 1 0;
#X connect 13 0 4 1;
#X restore 145 121 pd OPEN_2;
#N canvas 101 178 531 404 OPEN_3 0;
#X obj 39 105 unpack s f;
#X obj 39 272 pack s f;
#X msg 39 306 open \$1 \$2;
#X obj 39 61 inlet;
#X obj 39 194 spigot;
#X obj 136 136 t f f;
#X obj 39 350 outlet;
#X text 215 239 FILTRA REPETIÇÕES;
#X text 193 171 FILTRA POR SLOT NO BUFFER;
#X obj 183 204 - 1;
#X text 229 204 CORRIGE INDEX PARA BUFFER;
#N canvas 215 320 351 280 CHANGE_SYMBOL 0;
#X obj 49 117 t s s;
#X obj 49 154 sel s;
#X obj 49 70 inlet;
#X obj 96 228 outlet;
#X obj 96 184 symbol;
#X text 59 19 ** [change] SYMBOL;
#X obj 179 70 inlet RESET;
#X msg 179 99 symbol none;
#X connect 0 0 1 1;
#X connect 0 1 1 0;
#X connect 1 1 4 0;
#X connect 2 0 0 0;
#X connect 4 0 3 0;
#X connect 6 0 7 0;
#X connect 7 0 1 1;
#X restore 39 238 pd CHANGE_SYMBOL;
#X text 38 19 ** DISTRIBUI IMAGENS PARA CADA SLOT DO BUFFER;
#X obj 136 170 == 3;
#X connect 0 0 4 0;
#X connect 0 1 5 0;
#X connect 1 0 2 0;
#X connect 2 0 6 0;
#X connect 3 0 0 0;
#X connect 4 0 11 0;
#X connect 5 0 13 0;
#X connect 5 1 9 0;
#X connect 9 0 1 1;
#X connect 11 0 1 0;
#X connect 13 0 4 1;
#X restore 249 121 pd OPEN_3;
#N canvas 101 178 531 404 OPEN_4 0;
#X obj 39 105 unpack s f;
#X obj 39 272 pack s f;
#X msg 39 306 open \$1 \$2;
#X obj 39 61 inlet;
#X obj 39 194 spigot;
#X obj 136 136 t f f;
#X obj 39 350 outlet;
#X text 215 239 FILTRA REPETIÇÕES;
#X text 193 171 FILTRA POR SLOT NO BUFFER;
#X obj 183 204 - 1;
#X text 229 204 CORRIGE INDEX PARA BUFFER;
#N canvas 215 320 351 280 CHANGE_SYMBOL 0;
#X obj 49 117 t s s;
#X obj 49 154 sel s;
#X obj 49 70 inlet;
#X obj 96 228 outlet;
#X obj 96 184 symbol;
#X text 59 19 ** [change] SYMBOL;
#X obj 179 70 inlet RESET;
#X msg 179 99 symbol none;
#X connect 0 0 1 1;
#X connect 0 1 1 0;
#X connect 1 1 4 0;
#X connect 2 0 0 0;
#X connect 4 0 3 0;
#X connect 6 0 7 0;
#X connect 7 0 1 1;
#X restore 39 238 pd CHANGE_SYMBOL;
#X text 38 19 ** DISTRIBUI IMAGENS PARA CADA SLOT DO BUFFER;
#X obj 136 170 == 4;
#X connect 0 0 4 0;
#X connect 0 1 5 0;
#X connect 1 0 2 0;
#X connect 2 0 6 0;
#X connect 3 0 0 0;
#X connect 4 0 11 0;
#X connect 5 0 13 0;
#X connect 5 1 9 0;
#X connect 9 0 1 1;
#X connect 11 0 1 0;
#X connect 13 0 4 1;
#X restore 353 121 pd OPEN_4;
#N canvas 101 178 531 404 OPEN_5 0;
#X obj 39 105 unpack s f;
#X obj 39 272 pack s f;
#X msg 39 306 open \$1 \$2;
#X obj 39 61 inlet;
#X obj 39 194 spigot;
#X obj 136 136 t f f;
#X obj 39 350 outlet;
#X text 215 239 FILTRA REPETIÇÕES;
#X text 193 171 FILTRA POR SLOT NO BUFFER;
#X obj 183 204 - 1;
#X text 229 204 CORRIGE INDEX PARA BUFFER;
#N canvas 215 320 351 280 CHANGE_SYMBOL 0;
#X obj 49 117 t s s;
#X obj 49 154 sel s;
#X obj 49 70 inlet;
#X obj 96 228 outlet;
#X obj 96 184 symbol;
#X text 59 19 ** [change] SYMBOL;
#X obj 179 70 inlet RESET;
#X msg 179 99 symbol none;
#X connect 0 0 1 1;
#X connect 0 1 1 0;
#X connect 1 1 4 0;
#X connect 2 0 0 0;
#X connect 4 0 3 0;
#X connect 6 0 7 0;
#X connect 7 0 1 1;
#X restore 39 238 pd CHANGE_SYMBOL;
#X text 38 19 ** DISTRIBUI IMAGENS PARA CADA SLOT DO BUFFER;
#X obj 136 170 == 5;
#X connect 0 0 4 0;
#X connect 0 1 5 0;
#X connect 1 0 2 0;
#X connect 2 0 6 0;
#X connect 3 0 0 0;
#X connect 4 0 11 0;
#X connect 5 0 13 0;
#X connect 5 1 9 0;
#X connect 9 0 1 1;
#X connect 11 0 1 0;
#X connect 13 0 4 1;
#X restore 457 121 pd OPEN_5;
#N canvas 101 178 531 404 OPEN_6 0;
#X obj 39 105 unpack s f;
#X obj 39 272 pack s f;
#X msg 39 306 open \$1 \$2;
#X obj 39 61 inlet;
#X obj 39 194 spigot;
#X obj 136 136 t f f;
#X obj 39 350 outlet;
#X text 215 239 FILTRA REPETIÇÕES;
#X text 193 171 FILTRA POR SLOT NO BUFFER;
#X obj 183 204 - 1;
#X text 229 204 CORRIGE INDEX PARA BUFFER;
#N canvas 215 320 351 280 CHANGE_SYMBOL 0;
#X obj 49 117 t s s;
#X obj 49 154 sel s;
#X obj 49 70 inlet;
#X obj 96 228 outlet;
#X obj 96 184 symbol;
#X text 59 19 ** [change] SYMBOL;
#X obj 179 70 inlet RESET;
#X msg 179 99 symbol none;
#X connect 0 0 1 1;
#X connect 0 1 1 0;
#X connect 1 1 4 0;
#X connect 2 0 0 0;
#X connect 4 0 3 0;
#X connect 6 0 7 0;
#X connect 7 0 1 1;
#X restore 39 238 pd CHANGE_SYMBOL;
#X text 38 19 ** DISTRIBUI IMAGENS PARA CADA SLOT DO BUFFER;
#X obj 136 170 == 6;
#X connect 0 0 4 0;
#X connect 0 1 5 0;
#X connect 1 0 2 0;
#X connect 2 0 6 0;
#X connect 3 0 0 0;
#X connect 4 0 11 0;
#X connect 5 0 13 0;
#X connect 5 1 9 0;
#X connect 9 0 1 1;
#X connect 11 0 1 0;
#X connect 13 0 4 1;
#X restore 561 121 pd OPEN_6;
#N canvas 101 178 531 404 OPEN_7 0;
#X obj 39 105 unpack s f;
#X obj 39 272 pack s f;
#X msg 39 306 open \$1 \$2;
#X obj 39 61 inlet;
#X obj 39 194 spigot;
#X obj 136 136 t f f;
#X obj 39 350 outlet;
#X text 215 239 FILTRA REPETIÇÕES;
#X text 193 171 FILTRA POR SLOT NO BUFFER;
#X obj 183 204 - 1;
#X text 229 204 CORRIGE INDEX PARA BUFFER;
#N canvas 215 320 351 280 CHANGE_SYMBOL 0;
#X obj 49 117 t s s;
#X obj 49 154 sel s;
#X obj 49 70 inlet;
#X obj 96 228 outlet;
#X obj 96 184 symbol;
#X text 59 19 ** [change] SYMBOL;
#X obj 179 70 inlet RESET;
#X msg 179 99 symbol none;
#X connect 0 0 1 1;
#X connect 0 1 1 0;
#X connect 1 1 4 0;
#X connect 2 0 0 0;
#X connect 4 0 3 0;
#X connect 6 0 7 0;
#X connect 7 0 1 1;
#X restore 39 238 pd CHANGE_SYMBOL;
#X text 38 19 ** DISTRIBUI IMAGENS PARA CADA SLOT DO BUFFER;
#X obj 136 170 == 7;
#X connect 0 0 4 0;
#X connect 0 1 5 0;
#X connect 1 0 2 0;
#X connect 2 0 6 0;
#X connect 3 0 0 0;
#X connect 4 0 11 0;
#X connect 5 0 13 0;
#X connect 5 1 9 0;
#X connect 9 0 1 1;
#X connect 11 0 1 0;
#X connect 13 0 4 1;
#X restore 665 121 pd OPEN_7;
#N canvas 101 178 531 404 OPEN_8 0;
#X obj 39 105 unpack s f;
#X obj 39 272 pack s f;
#X msg 39 306 open \$1 \$2;
#X obj 39 61 inlet;
#X obj 39 194 spigot;
#X obj 136 136 t f f;
#X obj 39 350 outlet;
#X text 215 239 FILTRA REPETIÇÕES;
#X text 193 171 FILTRA POR SLOT NO BUFFER;
#X obj 183 204 - 1;
#X text 229 204 CORRIGE INDEX PARA BUFFER;
#N canvas 215 320 351 280 CHANGE_SYMBOL 0;
#X obj 49 117 t s s;
#X obj 49 154 sel s;
#X obj 49 70 inlet;
#X obj 96 228 outlet;
#X obj 96 184 symbol;
#X text 59 19 ** [change] SYMBOL;
#X obj 179 70 inlet RESET;
#X msg 179 99 symbol none;
#X connect 0 0 1 1;
#X connect 0 1 1 0;
#X connect 1 1 4 0;
#X connect 2 0 0 0;
#X connect 4 0 3 0;
#X connect 6 0 7 0;
#X connect 7 0 1 1;
#X restore 39 238 pd CHANGE_SYMBOL;
#X text 38 19 ** DISTRIBUI IMAGENS PARA CADA SLOT DO BUFFER;
#X obj 136 170 == 8;
#X connect 0 0 4 0;
#X connect 0 1 5 0;
#X connect 1 0 2 0;
#X connect 2 0 6 0;
#X connect 3 0 0 0;
#X connect 4 0 11 0;
#X connect 5 0 13 0;
#X connect 5 1 9 0;
#X connect 9 0 1 1;
#X connect 11 0 1 0;
#X connect 13 0 4 1;
#X restore 769 121 pd OPEN_8;
#X obj 41 175 pix_buffer \$0_buffer 8;
#X connect 0 0 4 0;
#X connect 1 0 12 0;
#X connect 4 0 1 0;
#X connect 4 1 5 0;
#X connect 4 2 6 0;
#X connect 4 3 7 0;
#X connect 4 4 8 0;
#X connect 4 5 9 0;
#X connect 4 6 10 0;
#X connect 4 7 11 0;
#X connect 5 0 12 0;
#X connect 6 0 12 0;
#X connect 7 0 12 0;
#X connect 8 0 12 0;
#X connect 9 0 12 0;
#X connect 10 0 12 0;
#X connect 11 0 12 0;
#X restore 361 226 pd IMAGE_BUFFER;
#X obj 311 340 - 1;
#X text 355 341 CORRIGE SLOT PARA INDEX DO BUFFER;
#X text 359 255 BUFFER LOCAL PARA IMAGENS;
#X text 157 18 ** RENDERIZA IMAGENS NA JANELA DE SAÍDA;
#X obj 311 374 clip 0 10;
#X obj 184 64 r IMAGE_BUS;
#X text 308 65 RECEBE CONTROLES DA 1 INSTÂNCIA;
#X text 288 98 ROTEIA POR CANAL;
#X obj 54 442 pix_buffer_read \$0_buffer;
#X obj 231 162 route render file;
#X obj 314 196 t a a;
#X obj 314 296 unpack s f;
#X text 428 296 SLOT ATIVO;
#X obj 54 255 t a b;
#X obj 311 408 change -1;
#X obj 184 127 t b a;
#X msg 184 384 set -1;
#X obj 184 350 r MODE_BUS;
#X connect 0 0 3 0;
#X connect 1 0 20 0;
#X connect 2 0 1 0;
#X connect 3 0 2 0;
#X connect 5 0 22 0;
#X connect 7 0 11 0;
#X connect 11 0 21 0;
#X connect 12 0 5 0;
#X connect 15 0 4 0;
#X connect 16 0 2 0;
#X connect 16 1 17 0;
#X connect 17 0 18 0;
#X connect 17 1 6 0;
#X connect 18 1 7 0;
#X connect 20 0 15 0;
#X connect 20 1 7 0;
#X connect 21 0 15 1;
#X connect 22 0 23 0;
#X connect 22 1 16 0;
#X connect 23 0 21 0;
#X connect 24 0 23 0;
