#N canvas 12 63 1403 801 16;
#N canvas 21 104 1406 627 BRAIN 0;
#X obj 1218 133 t b b;
#X obj 81 242 sel;
#X obj 108 184 loadbang;
#X obj 1218 377 t s b;
#X text 1381 473 SLOT;
#X obj 34 96 r \$1-activeSlot;
#X obj 874 96 r \$1-slotFilePreset;
#X obj 1218 96 r \$1-slotFlush;
#X obj 1218 516 s \$1-slotList;
#X obj 1218 337 symbol none;
#X obj 81 304 symbol none;
#X obj 34 549 s \$0-memo-load;
#X text 872 67 PRESET INPUT;
#X obj 1335 401 array get \$0-memo;
#X obj 874 198 array set \$0-memo;
#X text 1331 164 DELAY TO ORGANIZE WRITING BY SLOT, f 15;
#X text 1333 376 READ MEMORY;
#X text 1342 337 FILE;
#X text 1215 546 SEND TO MANAGER;
#X text 872 228 WRITE MEMORY;
#X text 1216 67 OUTPUT TO PRESETS MANAGER;
#X obj 1218 437 list prepend;
#X obj 108 213 f \$2;
#X obj 874 130 route \$2;
#X obj 34 133 t f f;
#X obj 1275 167 f \$2;
#X obj 874 164 list split 9;
#X text 33 67 ACTIVE MAP CHANGE;
#X obj 515 425 array define \$0-memo 9;
#X obj 101 382 loadbang;
#X msg 250 416 label \$1;
#X obj 250 382 arrast_namecut 27;
#X msg 81 416 label OPEN_MASK;
#X obj 81 338 sel none;
#X obj 81 460 s \$1-maskDisplay;
#X obj 482 255 openpanel;
#X obj 482 96 r \$1-maskOpen_gui;
#X obj 677 102 r \$1-activeSlot;
#X obj 677 131 == \$2;
#X text 740 132 FILTRA POR SLOT ATIVO, f 10;
#X obj 482 155 spigot;
#X obj 482 130 t b;
#X obj 482 280 t s s s;
#X obj 932 280 t s s s;
#X text 1013 282 CAMINHO DA MÁSCARA;
#X obj 34 515 sel \$2;
#X obj 1218 232 del \$2;
#X obj 1218 473 list prepend \$2;
#X obj 515 357 s \$0-maskPath;
#X obj 1275 196 * 5;
#X obj 290 130 symbol;
#X obj 290 96 inlet PATH;
#X obj 290 198 spigot;
#X obj 290 164 t s s s;
#X text 247 17 ** MANAGES EACH SLOT MEMORY \, WITH NODES OF THE CHANNEL
MAP \, STATE AND PATH OF THE MASK, f 86;
#X text 288 67 EXTERNAL INPUT;
#X text 479 67 BROWSER INPUT;
#X text 203 304 MASK PATH;
#X text 658 358 SEND MASK PATH LOCALLY;
#X text 255 461 SEND NAME TO DISPLAY;
#X text 749 422 LOCAL MEMORY ARRAY - 8 NODES + MASK STATE, f 20;
#X text 107 516 REFRESH NODES AND MASK STATE IN THE INTERFACE USING
MEMORY VALUES, f 65;
#X obj 482 205 pdcontrol;
#X msg 482 180 dir;
#X obj 482 230 makefilename %s/../Masks;
#X connect 0 0 46 0;
#X connect 0 1 25 0;
#X connect 1 0 10 0;
#X connect 2 0 22 0;
#X connect 3 0 21 0;
#X connect 3 1 13 0;
#X connect 5 0 24 0;
#X connect 6 0 23 0;
#X connect 7 0 0 0;
#X connect 9 0 3 0;
#X connect 10 0 33 0;
#X connect 13 0 21 1;
#X connect 21 0 47 0;
#X connect 22 0 1 1;
#X connect 23 0 26 0;
#X connect 24 0 45 0;
#X connect 24 1 1 0;
#X connect 25 0 49 0;
#X connect 26 0 14 0;
#X connect 26 1 43 0;
#X connect 29 0 32 0;
#X connect 30 0 34 0;
#X connect 31 0 30 0;
#X connect 32 0 34 0;
#X connect 33 0 32 0;
#X connect 33 1 31 0;
#X connect 35 0 42 0;
#X connect 36 0 41 0;
#X connect 37 0 38 0;
#X connect 38 0 40 1;
#X connect 38 0 52 1;
#X connect 40 0 63 0;
#X connect 41 0 40 0;
#X connect 42 0 10 0;
#X connect 42 1 48 0;
#X connect 42 2 9 1;
#X connect 43 0 10 1;
#X connect 43 1 48 0;
#X connect 43 2 9 1;
#X connect 45 0 11 0;
#X connect 46 0 9 0;
#X connect 47 0 8 0;
#X connect 49 0 46 1;
#X connect 50 0 53 0;
#X connect 51 0 50 0;
#X connect 52 0 10 0;
#X connect 53 0 52 0;
#X connect 53 1 48 0;
#X connect 53 2 9 1;
#X connect 62 0 64 0;
#X connect 63 0 62 0;
#X connect 64 0 35 0;
#X restore 804 218 pd BRAIN;
#X obj 77 448 arrast_param \$1 blx \$0-memo 0 0 \$2;
#X obj 77 478 arrast_param \$1 bly \$0-memo 1 0 \$2;
#X obj 77 508 arrast_param \$1 tlx \$0-memo 2 0 \$2;
#X obj 77 538 arrast_param \$1 tly \$0-memo 3 0 \$2;
#X obj 77 568 arrast_param \$1 trx \$0-memo 4 0 \$2;
#X obj 77 598 arrast_param \$1 try \$0-memo 5 0 \$2;
#X obj 77 628 arrast_param \$1 brx \$0-memo 6 0 \$2;
#X obj 77 658 arrast_param \$1 bry \$0-memo 7 0 \$2;
#X obj 77 688 arrast_param \$1 maskState \$0-memo 8 0 \$2;
#X obj 521 472 list prepend blx;
#X obj 521 502 list prepend bly;
#X obj 521 532 list prepend tlx;
#X obj 521 562 list prepend tly;
#X obj 521 592 list prepend trx;
#X obj 521 622 list prepend try;
#X obj 521 652 list prepend brx;
#X obj 521 682 list prepend bry;
#X obj 521 712 list prepend maskState;
#X obj 804 557 list prepend maskPath;
#X obj 851 659 list prepend mapList;
#X obj 804 499 r \$0-maskPath;
#X obj 804 528 symbol;
#X obj 851 601 array get \$0-memo;
#X obj 851 630 list split 8;
#X obj 804 455 t b b;
#X obj 804 397 r \$1-mapFlush;
#X obj 44 282 r MAP_FB_BUS;
#X obj 44 336 route map\$2;
#N canvas 260 201 374 257 TO_MAP_BUS 0;
#X obj 47 157 list trim;
#X obj 47 191 s MAP_BUS;
#X obj 47 123 list prepend map\$2;
#X obj 47 69 inlet;
#X text 35 23 ** MAP CONTROLS OUTPUT CHANNEL;
#X connect 0 0 1 0;
#X connect 2 0 0 0;
#X connect 3 0 2 0;
#X restore 521 836 pd TO_MAP_BUS;
#X obj 521 780 spigot 1;
#X msg 598 746 0;
#X msg 642 746 1;
#X obj 44 370 t b a b;
#X obj 881 431 r \$0-mapFlush;
#N canvas 19 80 1273 592 INIT_RESET_FULL_MASTER 0;
#X obj 259 123 loadbang;
#X obj 39 181 f \$2;
#X obj 39 215 sel 1 2 3 4;
#X msg 39 259 -5.33 1 -5.33 4 -1 4 -1 1;
#X msg 39 293 1 1 1 4 5.33 4 5.33 1;
#X msg 39 327 -5.33 -4 -5.33 -1 -1 -1 -1 -4;
#X msg 39 361 1 -4 1 -1 5.33 -1 5.33 -4;
#X obj 39 430 t b b l;
#X obj 106 464 array set \$0-memo;
#X obj 646 191 == \$2;
#X obj 589 259 spigot;
#X obj 953 249 spigot;
#X obj 953 283 array get \$0-memo 0 8;
#X obj 385 123 r \$1-mapReset_gui;
#X obj 39 532 s \$1-activeMapFlush;
#X obj 589 123 r \$01-mapFull_gui;
#X obj 646 157 r \$1-activeSlot;
#X obj 953 123 r \$1-mapMaster_gui;
#X msg 589 333 -5.33 -4 -5.33 4 5.33 4 5.33 -4;
#X obj 259 157 del 10;
#X obj 72 498 s \$0-mapFlush;
#X obj 385 157 spigot;
#X obj 646 225 t f f f f;
#X obj 39 55 inlet;
#X obj 39 89 route reset full master;
#X obj 39 123 t b;
#X obj 114 123 t b;
#X obj 190 123 t b;
#X obj 953 327 s \$1-mapMasterBus;
#X obj 953 406 r \$1-mapMasterBus;
#X text 296 14 ** INITIALIZE AND MANIPULATE NODES FROM THE MAP MODE
INTERFACE, f 62;
#X text 102 56 EXTERNAL CONTROLS INPUT;
#X text 383 95 RESET BUTTON;
#X text 587 95 FULL BUTTON;
#X text 951 95 MASTER BUTTON;
#X text 709 191 FILTER BY ACTIVE SLOT;
#X text 307 260 CHANNEL 1 NODES;
#X text 267 294 CHANNEL 2 NODES;
#X text 347 327 CHANNEL 3 NODES;
#X text 307 362 CHANNEL 4 NODES;
#X text 589 305 NODES TO FULLSCREEN;
#X text 950 357 SEND ACTIVE CHANNEL NODES TO THE REMAINING CHANNELS
, f 29;
#X text 291 465 WRITE VALUES ON LOCAL MEMORY;
#X text 217 500 SEND MAP DATA DO 2nd INSTANCE;
#X text 242 532 REFRESH INTERFACE WITH THE ACTIVE MAP;
#X connect 0 0 19 0;
#X connect 1 0 2 0;
#X connect 2 0 3 0;
#X connect 2 1 4 0;
#X connect 2 2 5 0;
#X connect 2 3 6 0;
#X connect 3 0 7 0;
#X connect 4 0 7 0;
#X connect 5 0 7 0;
#X connect 6 0 7 0;
#X connect 7 0 14 0;
#X connect 7 1 20 0;
#X connect 7 2 8 0;
#X connect 9 0 22 0;
#X connect 10 0 18 0;
#X connect 11 0 12 0;
#X connect 12 0 28 0;
#X connect 13 0 21 0;
#X connect 15 0 10 0;
#X connect 16 0 9 0;
#X connect 17 0 11 0;
#X connect 18 0 7 0;
#X connect 19 0 1 0;
#X connect 21 0 1 0;
#X connect 22 0 10 1;
#X connect 22 1 21 1;
#X connect 22 2 11 1;
#X connect 23 0 24 0;
#X connect 24 0 25 0;
#X connect 24 1 26 0;
#X connect 24 2 27 0;
#X connect 25 0 1 0;
#X connect 26 0 18 0;
#X connect 27 0 12 0;
#X connect 29 0 7 0;
#X restore 860 286 pd INIT_RESET_FULL_MASTER;
#X obj 77 404 route blx bly tlx tly trx try brx bry;
#X obj 256 130 t b a;
#X obj 256 232 s \$0-memo-load;
#X obj 303 164 route blx bly tlx tly trx try brx bry maskState maskPath
;
#X obj 256 62 r \$1-mapControl;
#X obj 256 96 route channel\$2;
#X obj 256 198 del 20;
#X text 423 19 ** MANAGES PARAMETERS INPUT AND EACH MAP MEMORY;
#X text 421 63 RECEIVE EXTERNAL CONTROLS (COLD INPUT [arrast_param])
;
#X text 421 97 FILTER BY CHANNEL;
#X text 409 232 REFRESH INTERFACE WITH ACTIVE MAP;
#X text 801 248 MANAGE SLOT MEMORY AND ACTIONS;
#X text 1123 287 START AND EDIT NODES;
#X text 178 283 RECEIVE NODES FROM 2nd INSTANCE (HOT INPUT [arrast_param])
, f 31;
#X text 168 337 FILTER BY CHANNEL;
#X text 948 397 SEND DATA FROM ALL MAPS;
#X text 1025 432 SEND DATA FROM THIS CHANNEL MAP;
#X text 1028 557 SEND MASK PATH;
#X text 1065 659 SEND NODES LIST;
#X text 747 712 SEND MASK STATE;
#X text 616 776 AVOID INFINITE LOOP WHEN RECEIVING NODE FEEDBACK FROM
2nd INSTANCE, f 34;
#X text 666 837 SEND TO 2nd INSTANCE;
#X text 519 444 SEND NODES;
#X connect 1 0 10 0;
#X connect 2 0 11 0;
#X connect 3 0 12 0;
#X connect 4 0 13 0;
#X connect 5 0 14 0;
#X connect 6 0 15 0;
#X connect 7 0 16 0;
#X connect 8 0 17 0;
#X connect 9 0 18 0;
#X connect 10 0 30 0;
#X connect 11 0 30 0;
#X connect 12 0 30 0;
#X connect 13 0 30 0;
#X connect 14 0 30 0;
#X connect 15 0 30 0;
#X connect 16 0 30 0;
#X connect 17 0 30 0;
#X connect 18 0 30 0;
#X connect 19 0 29 0;
#X connect 20 0 29 0;
#X connect 21 0 22 0;
#X connect 22 0 19 0;
#X connect 23 0 24 0;
#X connect 24 0 20 0;
#X connect 24 1 18 0;
#X connect 25 0 22 0;
#X connect 25 1 23 0;
#X connect 26 0 25 0;
#X connect 27 0 28 0;
#X connect 28 0 33 0;
#X connect 30 0 29 0;
#X connect 31 0 30 1;
#X connect 32 0 30 1;
#X connect 33 0 32 0;
#X connect 33 1 36 0;
#X connect 33 2 31 0;
#X connect 34 0 25 0;
#X connect 36 0 1 0;
#X connect 36 1 2 0;
#X connect 36 2 3 0;
#X connect 36 3 4 0;
#X connect 36 4 5 0;
#X connect 36 5 6 0;
#X connect 36 6 7 0;
#X connect 36 7 8 0;
#X connect 37 0 42 0;
#X connect 37 1 39 0;
#X connect 39 0 1 1;
#X connect 39 1 2 1;
#X connect 39 2 3 1;
#X connect 39 3 4 1;
#X connect 39 4 5 1;
#X connect 39 5 6 1;
#X connect 39 6 7 1;
#X connect 39 7 8 1;
#X connect 39 8 9 1;
#X connect 39 9 0 0;
#X connect 39 10 35 0;
#X connect 40 0 41 0;
#X connect 41 0 37 0;
#X connect 42 0 38 0;
