#N canvas 35 54 762 709 16;
#X obj 53 714 pix_texture;
#X msg 476 228 open \$1;
#X obj 332 140 tgl 25 0 empty empty empty 17 7 0 10 -262144 -1 -1 0
1;
#X obj 187 622 loadbang;
#X obj 332 72 loadbang;
#X msg 332 106 0;
#X obj 332 286 pix_separator;
#X floatatom 390 497 5 0 0 0 - - -, f 5;
#X floatatom 449 497 5 0 0 0 - - -, f 5;
#X obj 332 463 pix_gain;
#X floatatom 370 432 5 0 0 0 - - -, f 5;
#X obj 332 252 pix_image;
#X obj 332 528 pix_contrast;
#X msg 187 690 quality \$1;
#X msg 187 656 1;
#X msg 236 656 0;
#X obj 53 596 pix_mask;
#X obj 332 572 pix_grey;
#X obj 381 106 \$1;
#X obj 381 140 + 50;
#X msg 381 174 set \$1;
#X obj 332 208 gemhead 50;
#X obj 53 69 t a a;
#X obj 100 103 pix_info -------;
#X floatatom 122 171 5 0 0 0 - - -, f 5;
#X floatatom 196 171 5 0 0 0 - - -, f 5;
#X obj 332 388 pix_resize;
#X msg 481 354 dimen 640 480;
#X obj 481 320 loadbang;
#X msg 352 354 dimen \$1 \$2;
#X obj 122 236 pack f f;
#X obj 122 137 change;
#X obj 196 137 change;
#X obj 196 202 t b f;
#X obj 53 406 spigot;
#X msg 122 382 1;
#X msg 189 382 0;
#X obj 122 270 t b l b;
#X obj 142 348 loadbang;
#X obj 122 304 del 20;
#X obj 53 758 4corners \$1;
#X obj 466 82 route map\$1;
#X obj 476 194 symbol;
#X text 330 43 MÁSCARA;
#X obj 466 48 r MAP_BUS;
#X obj 53 25 inlet GEMLIST;
#X obj 53 630 alpha;
#X obj 53 563 pix_alpha;
#X obj 118 495 loadbang;
#X msg 118 529 0 0 0;
#X msg 187 529 1 1 1;
#X obj 466 116 route maskState maskPath;
#X connect 0 0 40 0;
#X connect 1 0 11 0;
#X connect 2 0 21 0;
#X connect 3 0 14 0;
#X connect 4 0 5 0;
#X connect 4 0 18 0;
#X connect 5 0 2 0;
#X connect 6 0 26 0;
#X connect 7 0 12 1;
#X connect 8 0 12 2;
#X connect 9 0 12 0;
#X connect 10 0 9 1;
#X connect 11 0 6 0;
#X connect 12 0 17 0;
#X connect 13 0 0 0;
#X connect 14 0 13 0;
#X connect 15 0 13 0;
#X connect 16 0 46 0;
#X connect 17 0 16 1;
#X connect 18 0 19 0;
#X connect 19 0 20 0;
#X connect 20 0 21 0;
#X connect 21 0 11 0;
#X connect 22 0 34 0;
#X connect 22 1 23 0;
#X connect 23 1 31 0;
#X connect 23 2 32 0;
#X connect 24 0 30 0;
#X connect 25 0 33 0;
#X connect 26 0 9 0;
#X connect 27 0 26 0;
#X connect 28 0 27 0;
#X connect 29 0 26 0;
#X connect 30 0 37 0;
#X connect 31 0 24 0;
#X connect 32 0 25 0;
#X connect 33 0 30 0;
#X connect 33 1 30 1;
#X connect 34 0 47 0;
#X connect 35 0 34 1;
#X connect 36 0 34 1;
#X connect 37 0 39 0;
#X connect 37 1 29 0;
#X connect 37 2 36 0;
#X connect 38 0 35 0;
#X connect 39 0 35 0;
#X connect 41 0 51 0;
#X connect 42 0 1 0;
#X connect 44 0 41 0;
#X connect 45 0 22 0;
#X connect 46 0 0 0;
#X connect 47 0 16 0;
#X connect 48 0 49 0;
#X connect 48 0 50 0;
#X connect 49 0 47 3;
#X connect 50 0 47 4;
#X connect 51 0 2 0;
#X connect 51 1 42 0;
