#N canvas 9 56 861 610 16;
#N canvas 26 75 791 656 WRITE_VALUE 0;
#X obj 63 64 inlet VALUE;
#X obj 36 181 f 0;
#X obj 63 105 t f f;
#N canvas 247 166 713 229 README_MODES 0;
#X text 44 80 0 - AMOSTRAGEM DE ACORDO COM RESOLUÇÃO (ESTABILIZA
GRAVAÇÃO) - IDEAL PARA SLIDERS \, FLUXOS CONTÍNUOS, f 62;
#X text 44 130 1 - AMOSTRAGEM CONTÍNUA DO VALOR (GRAVA ZEROS) - IDEAL
PARA BANGS \, EVENTOS PONTUAIS, f 62;
#X text 44 42 ** 2 MODOS DE GRAVAÇÃO DA AUTOMAÇÃO NO ARRAY (0 E
1):;
#X restore 418 166 pd README_MODES;
#N canvas 331 224 389 250 GATE 0;
#X obj 48 37 inlet;
#X obj 48 126 spigot;
#X obj 178 37 inlet;
#X obj 178 126 spigot;
#X obj 288 37 inlet;
#X obj 48 193 outlet;
#X obj 105 91 == 0;
#X obj 288 67 t f f;
#X connect 0 0 1 0;
#X connect 1 0 5 0;
#X connect 2 0 3 0;
#X connect 3 0 5 0;
#X connect 4 0 7 0;
#X connect 6 0 1 1;
#X connect 7 0 6 0;
#X connect 7 1 3 1;
#X restore 36 220 pd GATE;
#X obj 36 147 r \$0-flushBang;
#X obj 103 188 r \$0-mode;
#X text 199 20 ** ESCREVE VALOR NA TABELA DE MEMÓRIA;
#X obj 418 122 s \$0-mode;
#X obj 418 64 loadbang;
#X obj 418 93 f \$4;
#X text 526 72 INICIALIZA MODO DE ESCRITA DA UNIDADE DE ACORDO COM
4 ARGUMENTO, f 22;
#X text 415 195 INFORMAÇÃO SOBRE MODOS DE ESCRITA;
#X text 206 190 MODO DE ESCRITA;
#X obj 36 420 spigot;
#X obj 93 328 r \$0-autoState;
#X obj 93 357 == 1;
#X obj 93 386 t f f;
#X obj 233 572 spigot;
#X obj 233 504 r \$0-index;
#X text 345 505 RECEBE ÍNDICE GLOBAL;
#X obj 130 241 r AUTOMATION_REC;
#X obj 36 294 spigot;
#X obj 130 270 t f f;
#X obj 233 538 spigot;
#X text 303 242 BOTÃO NA INTERFACE QUE ARMA GRAVAÇÃO GLOBAL;
#X text 246 329 ESTADO DA UNIDADE (M/R/P);
#X text 146 358 APENAS NO MODO GRAVAÇÃO (R);
#X obj 36 596 array set \$0-memo;
#X text 80 465 OFFSET PARA RESERVAR 0 (ZERO) DO ARRAY PARA AUSÊNCIA
DE GRAVAÇÃO, f 64;
#X obj 36 464 + 1;
#X connect 0 0 2 0;
#X connect 1 0 4 0;
#X connect 2 0 1 1;
#X connect 2 1 4 1;
#X connect 4 0 22 0;
#X connect 5 0 1 0;
#X connect 6 0 4 2;
#X connect 9 0 10 0;
#X connect 10 0 8 0;
#X connect 14 0 30 0;
#X connect 15 0 16 0;
#X connect 16 0 17 0;
#X connect 17 0 14 1;
#X connect 17 1 18 1;
#X connect 18 0 28 1;
#X connect 19 0 24 0;
#X connect 21 0 23 0;
#X connect 22 0 14 0;
#X connect 23 0 22 1;
#X connect 23 1 24 1;
#X connect 24 0 18 0;
#X connect 30 0 28 0;
#X restore 51 205 pd WRITE_VALUE;
#N canvas 166 92 623 475 READ_VALUE 0;
#X obj 35 418 outlet VALUE;
#X obj 35 72 r \$0-index;
#X text 135 22 ** LÊ VALOR DO ARRAY DE AUTOMAÇÃO;
#X text 259 219 LÊ TABELA DE MEMÓRIA;
#X text 150 72 RECEBE ÍNDICE GLOBAL;
#X obj 35 174 spigot;
#X obj 92 116 r \$0-autoState;
#X obj 92 145 == 2;
#X text 245 116 ESTADO DA UNIDADE (M/R/P);
#X text 145 146 APENAS NO MODO REPRODUÇÃO (P);
#X obj 35 218 array get \$0-memo 1 1;
#X obj 35 252 t f f;
#X obj 82 286 > 0;
#X obj 35 320 spigot;
#X text 125 287 VERIFICA SE HÁ DADOS GRAVADOS (0 = SEM DADOS);
#X text 109 321 EVITA LEITURA DE DADOS NULOS;
#X text 79 366 REMOVE OFFSET APLICADO NA ESCRITA DA TABELA;
#X obj 35 364 - 1;
#X connect 1 0 5 0;
#X connect 5 0 10 0;
#X connect 6 0 7 0;
#X connect 7 0 5 1;
#X connect 10 0 11 0;
#X connect 11 0 13 0;
#X connect 11 1 12 0;
#X connect 12 0 13 1;
#X connect 13 0 17 0;
#X connect 17 0 0 0;
#X restore 51 279 pd READ_VALUE;
#X obj 98 481 s \$1-\$2_gui_set;
#X obj 71 166 r \$1-\$2;
#X text 153 166 RECEBE VALOR DO PARÂMETRO;
#X text 96 510 ENVIA VALOR DO PARÂMETRO;
#X text 211 21 ** UNIDADE DE AUTOMAÇÃO PARA 1 PARÂMETRO;
#X obj 51 118 inlet VALUE;
#X obj 51 548 outlet VALUE;
#N canvas 85 130 630 341 OUTPUT_MODE 0;
#X obj 49 62 inlet;
#X obj 49 196 spigot;
#X obj 208 196 spigot;
#X obj 49 286 outlet;
#X obj 106 141 == 0;
#X obj 218 117 t f f;
#X obj 49 101 t f f;
#X obj 218 87 r \$0-mode;
#X obj 208 230 sel 0;
#X obj 255 262 t b;
#X text 283 197 MODO 1 - SAÍDA DE BANG COM QUALQUER VALOR DIFERENTE
DE 0, f 29;
#X text 51 18 ** SAÍDA DE VALOR DE ACORDO COM CADA MODO DE GRAVAÇÃO
;
#X text 121 197 MODO 0;
#X connect 0 0 6 0;
#X connect 1 0 3 0;
#X connect 2 0 8 0;
#X connect 4 0 1 1;
#X connect 5 0 4 0;
#X connect 5 1 2 1;
#X connect 6 0 1 0;
#X connect 6 1 2 0;
#X connect 7 0 5 0;
#X connect 8 1 9 0;
#X connect 9 0 3 0;
#X restore 51 329 pd OUTPUT_MODE;
#N canvas 136 84 1040 648 RECEIVE_INDEX 0;
#X obj 101 550 s \$0-index;
#X floatatom 54 189 5 0 0 0 - - -, f 5;
#X text 300 327 PRIMEIRO REDIMENSIONA ARRAY;
#X obj 54 590 s \$0-flushBang;
#X obj 645 274 unpack f f;
#X obj 645 327 spigot;
#X floatatom 645 356 5 0 0 0 - - -, f 5;
#X obj 645 382 s \$0-autoState;
#X msg 396 462 resize \$1;
#X obj 396 496 outlet RESIZE_ARRAY;
#X obj 742 303 == \$5;
#X text 115 190 ÍNDICE GLOBAL;
#X obj 54 111 r AUTOMATION_MASTER;
#X text 51 62 RECEBE ÍNDICE GLOBAL E TAMANHO PARA REDIMENSIONAMENTO
DO ARRAY DE MEMÓRIA, f 37;
#X text 406 357 ELIMINA REPETIÇÕES;
#X obj 54 516 t b f;
#X text 214 551 ENVIA ÍNDICE LOCALMENTE;
#X text 55 19 ** RECEBE ÍNDICE PARA ESCRITA E LEITURA DO ARRAY DE
MEMÓRIA E ESTADO DA UNIDADE DE AUTOMAÇÃO, f 92;
#X obj 645 245 r \$3-autoState;
#X obj 645 119 s \$0-indexState;
#X obj 645 90 r AUTOMATION_STATE;
#X text 642 62 RECEBE ESTADO DO ÍNDICE;
#X obj 54 145 unpack f f;
#X text 642 175 RECEBE ESTADO (MANUAL/RECORD/PLAY) DO MENU DE AUTOMAÇÕES
E REENVIA LOCALMENTE, f 34;
#X obj 302 384 sel 0;
#X obj 302 355 change -1;
#X obj 349 418 t f f;
#X obj 54 472 clip 0 1;
#X text 147 473 LIMITES DO ÍNDICE;
#X text 365 386 FILTRA TAMANHO NULO;
#X obj 111 230 r \$0-autoState;
#X obj 111 259 != 0;
#X obj 54 288 spigot;
#X text 165 261 DESLIGA NO MODO MANUAL - REDUZ PROCESSAMENTO DESNECESSÁRIO
, f 30;
#X obj 131 442 - 1;
#X text 208 591 AMOSTRA VALOR DE ENTRADA;
#X obj 525 431 r AUTOMATION_CLEAR;
#X msg 525 462 const 0;
#X text 609 463 LIMPA AUTOMAÇÃO;
#X connect 1 0 32 0;
#X connect 4 0 5 0;
#X connect 4 1 10 0;
#X connect 5 0 6 0;
#X connect 6 0 7 0;
#X connect 8 0 9 0;
#X connect 10 0 5 1;
#X connect 12 0 22 0;
#X connect 15 0 3 0;
#X connect 15 1 0 0;
#X connect 18 0 4 0;
#X connect 20 0 19 0;
#X connect 22 0 1 0;
#X connect 22 1 25 0;
#X connect 24 1 26 0;
#X connect 25 0 24 0;
#X connect 26 0 34 0;
#X connect 26 1 8 0;
#X connect 27 0 15 0;
#X connect 30 0 31 0;
#X connect 31 0 32 1;
#X connect 32 0 27 0;
#X connect 34 0 27 2;
#X connect 36 0 37 0;
#X connect 37 0 9 0;
#X restore 500 169 pd RECEIVE_INDEX;
#X text 203 206 ESCRITA DA MEMÓRIA;
#X text 193 279 LEITURA DA MEMÓRIA;
#X text 203 330 SAÍDA DE VALOR DE ACORDO COM CADA MODO DE GRAVAÇÃO
, f 25;
#X text 497 118 RECEBE ÍNDICE GLOBAL DO CONTROLE DE AUTOMAÇÃO,
f 23;
#X obj 500 321 loadbang;
#X obj 500 350 del \$5;
#X obj 500 379 f \$0;
#X msg 500 408 symbol \$1-memo;
#X text 574 348 ORDENA ENVIO PELO 5 ARGUMENTO, f 17;
#X obj 500 437 s CH\$3_AUTOMEMOLIST;
#X text 497 469 ENVIA NOME DO ARRAY DE MEMÓRIA LOCAL PARA LISTA NO
GESTOR DE PRESETS, f 24;
#N canvas 40 54 622 578 CHANGE 0;
#X obj 75 114 r \$0-indexState;
#X msg 75 373 set -99;
#X obj 49 417 change -99;
#X obj 75 148 change;
#X obj 49 60 inlet VALUE;
#X obj 49 515 outlet;
#X text 163 418 FILTRA REPETIÇÕES NA LEITURA DO PARÂMETRO;
#X obj 125 218 r \$1-activeSlot;
#X obj 125 329 spigot;
#X obj 402 218 loadbang;
#X obj 402 247 symbol \$2;
#X text 85 16 ** FILTRA REPETIÇÕES NA LEITURA DO PARÂMETRO;
#X text 140 248 ATUALIZA NA MUDANÇA DE SLOT SE ESSE AUTOMATO NÃO
FOR O activeSlot, f 22;
#X obj 402 276 sel activeSlot;
#X msg 402 305 0;
#X msg 452 305 1;
#X text 161 375 RESET [change];
#X text 154 147 ATUALIZA [change] SEMPRE QUE MUDA ESTADO DO ÍNDICE
, f 25;
#X obj 49 461 pipe 0;
#X text 124 458 ORDENA SAÍDA - PRIMEIRO SLOT ATIVO \, DEPOIS OUTROS
PARÂMETROS, f 35;
#X connect 0 0 3 0;
#X connect 1 0 2 0;
#X connect 2 0 18 0;
#X connect 3 0 1 0;
#X connect 4 0 2 0;
#X connect 7 0 8 0;
#X connect 8 0 1 0;
#X connect 9 0 10 0;
#X connect 10 0 13 0;
#X connect 13 0 14 0;
#X connect 13 1 15 0;
#X connect 14 0 8 1;
#X connect 14 0 18 1;
#X connect 15 0 8 1;
#X connect 15 0 18 1;
#X connect 18 0 5 0;
#X restore 51 393 pd CHANGE;
#X obj 51 437 t a a;
#X text 154 394 FILTRA REPETIÇÕES;
#X obj 500 223 array define \$0-memo 1;
#X text 79 53 ARGUMENTOS: ID GERAL (\$0) \, NOME DO PARÂMETRO \, CANAL
\, MODO DE ESCRITA \, ID DE CONTROLE EXTERNO DO ESTADO INTERNO (M/R/P)
, f 69;
#X text 498 253 ARRAY DE MEMÓRIA DA AUTOMAÇÃO;
#X connect 1 0 9 0;
#X connect 3 0 0 0;
#X connect 7 0 0 0;
#X connect 9 0 22 0;
#X connect 10 0 25 0;
#X connect 15 0 16 0;
#X connect 16 0 17 0;
#X connect 17 0 18 0;
#X connect 18 0 20 0;
#X connect 22 0 23 0;
#X connect 23 0 8 0;
#X connect 23 1 2 0;
#X coords 0 610 1 609 100 75 0;
