#N canvas 123 361 528 242 10;
#X obj 80 60 cnv 15 247 125 empty empty empty 20 12 0 14 -128992 -66577
0;
#X obj 91 71 tgl 15 0 \$0-on_off \$0-on_off_in OUT 21 8 0 10 -4032
-1 -1 0 1;
#X obj 203 71 tgl 15 0 \$0-cursor \$0-cursor_in CURSOR 21 8 0 10 -262144
-1 -1 1 1;
#X obj 203 91 tgl 15 0 \$0-borda \$0-borda_in BORDA 21 8 0 10 -262144
-1 -1 1 1;
#X floatatom 203 158 5 0 0 0 x #0-offset_x_in #0-offset_x, f 5;
#X floatatom 249 158 5 0 0 0 y #0-offset_y_in #0-offset_y, f 5;
#X obj 203 111 tgl 15 0 \$0-luz \$0-luz_in LUZ 21 8 0 10 -262144 -1
-1 0 1;
#X obj 203 141 bng 10 250 50 0 \$0-offset_preset empty OFFSET 15 5
0 10 -1 -262144 -1;
#X floatatom 91 158 7 0 0 0 - #0-x_in #0-x, f 7;
#X floatatom 141 158 7 0 0 0 - #0-y_in #0-y, f 7;
#X obj 272 71 cnv 15 44 40 empty empty empty 20 12 0 14 -191407 -66577
0;
#X floatatom 278 89 5 0 0 0 - #0-fps_in #0-fps, f 5;
#X text 282 71 FPS;
#X obj 275 119 hsl 40 8 0 1 0 0 \$0-red \$0-morto empty -2 -8 0 10
-258113 -1 -1 0 1;
#X obj 275 129 hsl 40 8 0 1 0 0 \$0-green \$0-morto empty -2 -8 0 10
-4034 -1 -1 0 1;
#X obj 275 139 hsl 40 8 0 1 0 0 \$0-blue \$0-morto empty -2 -8 0 10
-4160 -1 -1 0 1;
#N canvas 738 554 245 238 init 0;
#X obj 61 41 loadbang;
#X msg 61 67 1;
#X msg 93 67 0;
#X obj 93 115 s \$0-luz_in;
#X obj 61 161 s \$0-cursor_in;
#X obj 61 181 s \$0-borda_in;
#X obj 125 91 s \$0-fps_in;
#X obj 93 136 s \$0-xy_preset_in;
#X msg 125 67 24;
#X obj 81 201 s \$0-prev_win_in;
#X connect 0 0 1 0;
#X connect 0 0 2 0;
#X connect 0 0 8 0;
#X connect 1 0 4 0;
#X connect 1 0 5 0;
#X connect 2 0 3 0;
#X connect 2 0 7 0;
#X connect 8 0 6 0;
#X restore 371 105 pd init;
#X obj 91 93 vradio 15 1 0 4 \$0-xy_preset \$0-xy_preset_in empty 0
-8 0 10 -228856 -1 -1 1;
#X text 110 121 800x600;
#X text 110 136 1024x768;
#N canvas 681 159 631 463 links 0;
#X msg 40 88 cursor \$1;
#X msg 40 110 border \$1;
#X msg 40 284 offset \$1 \$2;
#X obj 40 263 pack f f;
#X obj 58 240 t b f;
#X msg 40 132 lighting \$1;
#X msg 178 218 dimen \$1 \$2;
#X obj 220 173 t b f;
#X msg 178 86 color \$1 \$2 \$3;
#X obj 178 67 pack f f f;
#X obj 233 41 t b f;
#X obj 273 41 t b f;
#X obj 178 18 r \$0-red;
#X obj 233 18 r \$0-green;
#X obj 300 18 r \$0-blue;
#X obj 178 109 s \$0-canal_gemwin;
#X obj 40 304 s \$0-canal_gemwin;
#X obj 58 219 r \$0-offset_y;
#X obj 177 283 r \$0-offset_preset;
#X obj 177 323 unpack;
#X obj 177 344 s \$0-offset_x_in;
#X obj 210 365 s \$0-offset_y_in;
#X obj 39 350 r \$0-fps;
#X obj 40 157 s \$0-canal_gemwin;
#X obj 40 60 r \$0-luz;
#X obj 40 20 r \$0-cursor;
#X obj 40 40 r \$0-borda;
#X obj 178 240 s \$0-canal_gemwin;
#X obj 178 150 r \$0-x;
#X obj 220 150 r \$0-y;
#X obj 377 150 r \$0-xy_preset;
#X obj 377 174 sel 0 1 2 3;
#X msg 377 240 800 600;
#X msg 377 260 1024 768;
#X obj 377 288 unpack;
#X obj 377 314 s \$0-x_in;
#X obj 441 314 s \$0-y_in;
#X obj 40 199 r \$0-offset_x;
#X msg 377 220 640 480;
#X msg 378 64 create \, 1;
#X obj 378 41 select 1 0;
#X obj 378 17 r \$0-on_off;
#X obj 178 197 pack 640 480;
#X obj 378 88 s \$0-canal_gemwin;
#X obj 362 387 r \$0-canal_gemwin;
#X text 360 365 Envia tudo para o pai;
#X obj 362 409 s \$1-CANAL_GEMWIN;
#X obj 39 397 s \$0-canal_gemwin;
#X msg 39 373 frame \$1;
#X msg 450 64 0 \, destroy;
#X obj 39 421 s MASTER_FPS;
#X obj 482 150 loadbang;
#X msg 177 303 1366 0;
#X msg 377 200 320 240;
#X msg 482 194 1;
#X obj 482 223 s \$0-xy_preset_in;
#X obj 482 172 del 2000;
#X connect 0 0 23 0;
#X connect 1 0 23 0;
#X connect 2 0 16 0;
#X connect 3 0 2 0;
#X connect 4 0 3 0;
#X connect 4 1 3 1;
#X connect 5 0 23 0;
#X connect 6 0 27 0;
#X connect 7 0 42 0;
#X connect 7 1 42 1;
#X connect 8 0 15 0;
#X connect 9 0 8 0;
#X connect 10 0 9 0;
#X connect 10 1 9 1;
#X connect 11 0 9 0;
#X connect 11 1 9 2;
#X connect 12 0 9 0;
#X connect 13 0 10 0;
#X connect 14 0 11 0;
#X connect 17 0 4 0;
#X connect 18 0 52 0;
#X connect 19 0 20 0;
#X connect 19 1 21 0;
#X connect 22 0 48 0;
#X connect 22 0 50 0;
#X connect 24 0 5 0;
#X connect 25 0 0 0;
#X connect 26 0 1 0;
#X connect 28 0 42 0;
#X connect 29 0 7 0;
#X connect 30 0 31 0;
#X connect 31 0 53 0;
#X connect 31 1 38 0;
#X connect 31 2 32 0;
#X connect 31 3 33 0;
#X connect 32 0 34 0;
#X connect 33 0 34 0;
#X connect 34 0 35 0;
#X connect 34 1 36 0;
#X connect 37 0 3 0;
#X connect 38 0 34 0;
#X connect 39 0 43 0;
#X connect 40 0 39 0;
#X connect 40 1 49 0;
#X connect 41 0 40 0;
#X connect 42 0 6 0;
#X connect 44 0 46 0;
#X connect 48 0 47 0;
#X connect 49 0 43 0;
#X connect 51 0 56 0;
#X connect 52 0 19 0;
#X connect 53 0 34 0;
#X connect 54 0 55 0;
#X connect 56 0 54 0;
#X restore 371 130 pd links;
#X text 110 106 640x480;
#X obj 141 71 tgl 15 0 \$0-prev_win \$0-prev_win_in PREV 21 8 0 10
-204800 -1 -1 0 1;
#N canvas 190 473 396 244 gemwin_preview 0;
#X msg 63 103 0 \, destroy;
#X obj 63 70 sel 0 1;
#X obj 63 46 r \$0-prev_win;
#X obj 63 167 gemwin 12;
#X msg 83 130 reset \, dimen 200 600 \, frame 12 \, create \, 1;
#X connect 0 0 3 0;
#X connect 1 0 0 0;
#X connect 1 1 4 0;
#X connect 2 0 1 0;
#X connect 4 0 3 0;
#X restore 370 80 pd gemwin_preview;
#X text 110 92 320x240;
#X coords 0 -1 1 1 247 125 2 80 60;
