#N canvas 364 99 861 610 16;
#N canvas 360 85 791 665 WRITE_VALUE 0;
#X obj 63 64 inlet VALUE;
#X obj 36 181 f 0;
#X obj 63 105 t f f;
#N canvas 245 165 713 229 README_MODES 0;
#X text 44 80 0 - AMOSTRAGEM DE ACORDO COM RESOLUÇÃO (ESTABILIZA
GRAVAÇÃO) - IDEAL PARA SLIDERS \, FLUXOS CONTÍNUOS, f 62;
#X text 44 130 1 - AMOSTRAGEM CONTÍNUA DO VALOR (GRAVA ZEROS) - IDEAL
PARA BANGS \, EVENTOS PONTUAIS, f 62;
#X text 44 42 ** 2 MODOS DE GRAVAÇÃO DA AUTOMAÇÃO NO ARRAY (0 E
1):;
#X restore 418 166 pd README_MODES;
#N canvas 329 223 389 250 GATE 0;
#X obj 48 37 inlet;
#X obj 48 126 spigot;
#X obj 178 37 inlet;
#X obj 178 126 spigot;
#X obj 288 37 inlet;
#X obj 48 193 outlet;
#X obj 105 91 == 0;
#X obj 288 67 t f f;
#X connect 0 0 1 0;
#X connect 1 0 5 0;
#X connect 2 0 3 0;
#X connect 3 0 5 0;
#X connect 4 0 7 0;
#X connect 6 0 1 1;
#X connect 7 0 6 0;
#X connect 7 1 3 1;
#X restore 36 220 pd GATE;
#X obj 36 147 r \$0-flushBang;
#X obj 103 188 r \$0-mode;
#X text 199 20 ** ESCREVE VALOR NA TABELA DE MEMÓRIA;
#X obj 418 122 s \$0-mode;
#X obj 418 64 loadbang;
#X obj 418 93 f \$4;
#X text 526 72 INICIALIZA MODO DE ESCRITA DA UNIDADE DE ACORDO COM
4 ARGUMENTO, f 22;
#X text 415 195 INFORMAÇÃO SOBRE MODOS DE ESCRITA;
#X text 206 190 MODO DE ESCRITA;
#X obj 36 420 spigot;
#X obj 93 328 r \$0-autoState;
#X obj 93 357 == 1;
#X obj 93 386 t f f;
#X obj 363 584 spigot;
#X obj 363 516 r \$0-index;
#X text 475 517 RECEBE ÍNDICE GLOBAL;
#X obj 130 241 r AUTOMATION_REC;
#X obj 36 294 spigot;
#X obj 130 270 t f f;
#X obj 363 550 spigot;
#X text 303 242 BOTÃO NA INTERFACE QUE ARMA GRAVAÇÃO GLOBAL;
#X text 246 329 ESTADO DA UNIDADE (M/R/P);
#X text 146 358 APENAS NO MODO GRAVAÇÃO (R);
#X obj 36 449 t f b;
#X msg 83 480 1;
#X msg 132 480 0;
#X obj 132 449 r \$0-clear;
#X obj 83 514 array set \$0-memo 0;
#X text 80 544 IDENTIFICA SE HÁ ALGO GRAVADO (recState), f 21;
#X obj 36 608 array set \$0-memo 1;
#X connect 0 0 2 0;
#X connect 1 0 4 0;
#X connect 2 0 1 1;
#X connect 2 1 4 1;
#X connect 4 0 22 0;
#X connect 5 0 1 0;
#X connect 6 0 4 2;
#X connect 9 0 10 0;
#X connect 10 0 8 0;
#X connect 14 0 28 0;
#X connect 15 0 16 0;
#X connect 16 0 17 0;
#X connect 17 0 14 1;
#X connect 17 1 18 1;
#X connect 18 0 34 1;
#X connect 19 0 24 0;
#X connect 21 0 23 0;
#X connect 22 0 14 0;
#X connect 23 0 22 1;
#X connect 23 1 24 1;
#X connect 24 0 18 0;
#X connect 28 0 34 0;
#X connect 28 1 29 0;
#X connect 29 0 32 0;
#X connect 30 0 32 0;
#X connect 31 0 30 0;
#X restore 51 205 pd WRITE_VALUE;
#N canvas 689 176 569 450 READ_VALUE 0;
#X obj 35 393 outlet VALUE;
#X obj 35 72 r \$0-index;
#X text 111 22 ** LÊ VALOR DO ARRAY DE AUTOMAÇÃO;
#X obj 35 352 tabread \$0-memo;
#X text 200 353 LÊ TABELA DE MEMÓRIA;
#X text 150 72 RECEBE ÍNDICE GLOBAL;
#X obj 35 309 spigot;
#X obj 92 251 r \$0-autoState;
#X obj 92 280 == 2;
#X text 245 251 ESTADO DA UNIDADE (M/R/P);
#X text 145 281 APENAS NO MODO REPRODUÇÃO (P);
#X obj 35 197 spigot;
#X text 108 199 SÓ LÊ SE JÁ EXISTIR ALGO GRAVADO;
#X obj 35 101 t f b;
#X text 316 134 LÊ ESTADO DA GRAVAÇÃO (recState), f 21;
#X obj 92 134 array get \$0-memo 0 1;
#X connect 1 0 13 0;
#X connect 3 0 0 0;
#X connect 6 0 3 0;
#X connect 7 0 8 0;
#X connect 8 0 6 1;
#X connect 11 0 6 0;
#X connect 13 0 11 0;
#X connect 13 1 15 0;
#X connect 15 0 11 1;
#X restore 51 279 pd READ_VALUE;
#X obj 98 481 s \$1-\$2_gui_set;
#X obj 71 166 r \$1-\$2;
#X text 153 166 RECEBE VALOR DO PARÂMETRO;
#X text 96 510 ENVIA VALOR DO PARÂMETRO;
#X text 203 21 ** UNIDADE DE AUTOMAÇÃO PARA 1 PARÂMETRO;
#X obj 51 118 inlet VALUE;
#X obj 51 548 outlet VALUE;
#N canvas 79 127 630 341 OUTPUT_MODE 0;
#X obj 49 62 inlet;
#X obj 49 196 spigot;
#X obj 208 196 spigot;
#X obj 49 286 outlet;
#X obj 106 141 == 0;
#X obj 218 117 t f f;
#X obj 49 101 t f f;
#X obj 218 87 r \$0-mode;
#X obj 208 230 sel 0;
#X obj 255 262 t b;
#X text 283 197 MODO 1 - SAÍDA DE BANG COM QUALQUER VALOR DIFERENTE
DE 0, f 29;
#X text 51 18 ** SAÍDA DE VALOR DE ACORDO COM CADA MODO DE GRAVAÇÃO
;
#X text 121 197 MODO 0;
#X connect 0 0 6 0;
#X connect 1 0 3 0;
#X connect 2 0 8 0;
#X connect 4 0 1 1;
#X connect 5 0 4 0;
#X connect 5 1 2 1;
#X connect 6 0 1 0;
#X connect 6 1 2 0;
#X connect 7 0 5 0;
#X connect 8 1 9 0;
#X connect 9 0 3 0;
#X restore 51 329 pd OUTPUT_MODE;
#N canvas 161 132 1200 510 RECEIVE_INDEX 0;
#X obj 101 393 s \$0-index;
#X floatatom 54 174 5 0 0 0 - - -, f 5;
#X text 479 136 PRIMEIRO REDIMENSIONA ARRAY;
#X obj 54 433 s \$0-flushBang;
#X obj 815 271 unpack f f;
#X obj 815 324 spigot;
#X floatatom 815 353 5 0 0 0 - - -, f 5;
#X obj 815 379 s \$0-autoState;
#X msg 482 384 resize \$1;
#X obj 482 428 outlet RESIZE_ARRAY;
#X obj 912 300 == \$5;
#X text 115 175 ÍNDICE GLOBAL;
#X obj 54 111 r AUTOMATION_MASTER;
#X text 51 62 RECEBE ÍNDICE GLOBAL E TAMANHO PARA REDIMENSIONAMENTO
DO ARRAY DE MEMÓRIA, f 37;
#X text 586 166 ELIMINA REPETIÇÕES;
#X obj 54 325 t b f;
#X text 214 394 ENVIA ÍNDICE LOCALMENTE;
#X text 208 434 DEPOIS AMOSTRA VALOR DE ENTRADA, f 20;
#X text 147 19 ** RECEBE ÍNDICE PARA ESCRITA E LEITURA DO ARRAY DE
MEMÓRIA E ESTADO DA UNIDADE DE AUTOMAÇÃO, f 92;
#X obj 815 242 r \$3-autoState;
#X obj 815 119 s \$0-indexState;
#X obj 815 90 r AUTOMATION_STATE;
#X text 812 62 RECEBE ESTADO DO ÍNDICE;
#X obj 54 140 unpack f f;
#X text 812 172 RECEBE ESTADO (MANUAL/RECORD/PLAY) DO MENU DE AUTOMAÇÕES
E REENVIA LOCALMENTE, f 34;
#X obj 482 193 sel 0;
#X obj 482 302 t b b;
#X msg 482 350 1;
#X obj 550 326 s \$0-clear;
#X text 548 300 TAMANHO 0 = CLEAR;
#X obj 482 164 change -1;
#X obj 101 359 + 1;
#X obj 576 262 + 1;
#X text 620 247 PULA 1 ÍTEM (recState), f 11;
#X text 144 360 PULA 1 ÍTEM (recState);
#X obj 529 227 t f f;
#X obj 54 281 clip 0 1;
#X obj 131 251 - 1;
#X text 147 282 LIMITES DO ÍNDICE;
#X obj 89 214 bng 15 250 50 0 empty empty empty 17 7 0 10 -262144 -1
-1;
#X connect 1 0 36 0;
#X connect 1 0 39 0;
#X connect 4 0 5 0;
#X connect 4 1 10 0;
#X connect 5 0 6 0;
#X connect 6 0 7 0;
#X connect 8 0 9 0;
#X connect 10 0 5 1;
#X connect 12 0 23 0;
#X connect 15 0 3 0;
#X connect 15 1 31 0;
#X connect 19 0 4 0;
#X connect 21 0 20 0;
#X connect 23 0 1 0;
#X connect 23 1 30 0;
#X connect 25 0 26 0;
#X connect 25 1 35 0;
#X connect 26 0 27 0;
#X connect 26 1 28 0;
#X connect 27 0 8 0;
#X connect 30 0 25 0;
#X connect 31 0 0 0;
#X connect 32 0 8 0;
#X connect 35 0 37 0;
#X connect 35 1 32 0;
#X connect 36 0 15 0;
#X connect 37 0 36 2;
#X restore 500 169 pd RECEIVE_INDEX;
#X text 203 206 ESCRITA DA MEMÓRIA;
#X text 193 279 LEITURA DA MEMÓRIA;
#X text 203 330 SAÍDA DE VALOR DE ACORDO COM CADA MODO DE GRAVAÇÃO
, f 25;
#X text 497 118 RECEBE ÍNDICE GLOBAL DO CONTROLE DE AUTOMAÇÃO,
f 23;
#X obj 500 361 loadbang;
#X obj 500 390 del \$5;
#X obj 500 419 f \$0;
#X msg 500 448 symbol \$1-memo;
#X text 75 53 ARGUMENTOS: ID GERAL (\$0) \, NOME DO PARÂMETRO \, CANAL
\, MODO DE ESCRITA \, ID DE CONTROLE EXTERNO DO ESTADO INTERNO (M/W/R)
, f 69;
#X text 574 388 ORDENA ENVIO PELO 5 ARGUMENTO, f 17;
#X obj 500 477 s CH\$3_AUTOMEMOLIST;
#X text 497 509 ENVIA NOME DO ARRAY DE MEMÓRIA LOCAL PARA LISTA NO
GESTOR DE PRESETS, f 24;
#N canvas 369 96 614 641 CHANGE 0;
#X obj 75 114 r \$0-indexState;
#X msg 75 453 set -99;
#X obj 49 497 change -99;
#X obj 75 148 change;
#X text 154 147 REINICIA [change] SEMPRE QUE MUDA ESTADO DO ÍNDICE
E QUANDO MUDA SLOT, f 25;
#X obj 49 60 inlet VALUE;
#X obj 49 541 pipe \$5;
#X obj 49 595 outlet;
#X text 163 498 FILTRA REPETIÇÕES NA LEITURA DO PARÂMETRO;
#X obj 125 225 r \$1-activeSlot;
#X obj 125 409 spigot;
#X obj 182 288 loadbang;
#X obj 182 317 symbol \$2;
#X text 85 16 ** FILTRA REPETIÇÕES NA LEITURA DO PARÂMETRO;
#X text 290 271 ATUALIZA NA MUDANÇA DE SLOT SE ESSE AUTOMATO NÃO
FOR O activeSlot, f 22;
#X obj 182 346 sel activeSlot;
#X msg 182 375 0;
#X msg 232 375 1;
#X text 161 455 RESET [change];
#X text 133 542 ORDENA SAÍDA DOS PARÂMETROS ATRASANDO DE ACORDO COM
5 ARGUMENTO, f 37;
#X connect 0 0 3 0;
#X connect 1 0 2 0;
#X connect 2 0 6 0;
#X connect 3 0 1 0;
#X connect 5 0 2 0;
#X connect 6 0 7 0;
#X connect 9 0 10 0;
#X connect 10 0 1 0;
#X connect 11 0 12 0;
#X connect 12 0 15 0;
#X connect 15 0 16 0;
#X connect 15 1 17 0;
#X connect 16 0 10 1;
#X connect 17 0 10 1;
#X restore 51 393 pd CHANGE;
#X obj 51 437 t a a;
#X text 154 394 FILTRA REPETIÇÕES;
#X obj 500 223 array define \$0-memo 1;
#X text 498 253 ARRAY DE MEMÓRIA DA AUTOMAÇÃO - 1o ELEMENTO É SE
EXISTE OU NÃO ALGO GRAVADO NESSE AUTÔMATO (recState), f 31;
#X connect 1 0 9 0;
#X connect 3 0 0 0;
#X connect 7 0 0 0;
#X connect 9 0 23 0;
#X connect 10 0 26 0;
#X connect 15 0 16 0;
#X connect 16 0 17 0;
#X connect 17 0 18 0;
#X connect 18 0 21 0;
#X connect 23 0 24 0;
#X connect 24 0 8 0;
#X connect 24 1 2 0;
#X coords 0 610 1 609 100 75 0;
