#N canvas 131 56 1104 644 16;
#X obj 344 94 route FX\$1;
#X obj 488 182 s \$0-gain;
#X obj 592 182 s \$0-contrast;
#X obj 54 206 pix_invert;
#X obj 54 318 pix_gain;
#X obj 131 250 r \$0-gain;
#X obj 131 284 * 5;
#X obj 112 396 * 5;
#X obj 54 430 pix_contrast;
#X obj 112 362 r \$0-contrast;
#X obj 256 396 * 5;
#X obj 54 542 pix_motionblur;
#X obj 191 508 * 0.99;
#X obj 230 151 loadbang;
#X msg 230 182 0;
#X obj 736 182 s \$0-saturation;
#X obj 344 182 s \$0-colorInv;
#X obj 76 172 r \$0-colorInv;
#X obj 256 362 r \$0-saturation;
#X obj 344 138 route colorInv gain contrast saturation motionBlur;
#X obj 900 182 s \$0-motionBlur;
#X obj 191 474 r \$0-motionBlur;
#X obj 54 60 inlet GEMLIST;
#X obj 344 60 r FX_BUS;
#X obj 54 586 outlet GEMLIST;
#X text 438 60 RECEBE COMANDOS DA 1 INSTÂNCIA;
#X text 458 94 ROTEIA POR CANAL;
#X text 355 18 ** UNIDADE DE RENDERIZAÇÃO DE EFEITOS;
#X connect 0 0 19 0;
#X connect 3 0 4 0;
#X connect 4 0 8 0;
#X connect 5 0 6 0;
#X connect 6 0 4 1;
#X connect 7 0 8 1;
#X connect 8 0 11 0;
#X connect 9 0 7 0;
#X connect 10 0 8 2;
#X connect 11 0 24 0;
#X connect 12 0 11 1;
#X connect 13 0 14 0;
#X connect 14 0 3 0;
#X connect 17 0 3 0;
#X connect 18 0 10 0;
#X connect 19 0 16 0;
#X connect 19 1 1 0;
#X connect 19 2 2 0;
#X connect 19 3 15 0;
#X connect 19 4 20 0;
#X connect 21 0 12 0;
#X connect 22 0 3 0;
#X connect 23 0 0 0;
