#N canvas 76 149 1211 453 10;
#X declare -stdlib Gem;
#X obj 125 23 tgl 15 0 empty empty empty 17 7 0 10 -262144 -1 -1 0
1;
#X floatatom 125 60 5 0 0 0 - - -, f 5;
#X obj 125 40 arrast_realfps;
#X obj 25 23 arrast_cpu;
#X obj 127 178 arrast_cmotor 1;
#N canvas 670 307 434 223 select_source 0;
#X obj 42 128 spigot;
#X obj 75 108 tgl 15 0 empty empty empty 17 7 0 10 -262144 -1 -1 1
1;
#X obj 333 38 inlet;
#X obj 75 79 == 0;
#X obj 42 38 inlet;
#X obj 142 128 spigot;
#X obj 175 108 tgl 15 0 empty empty empty 17 7 0 10 -262144 -1 -1 0
1;
#X obj 142 38 inlet;
#X obj 242 128 spigot;
#X obj 275 108 tgl 15 0 empty empty empty 17 7 0 10 -262144 -1 -1 0
1;
#X obj 242 38 inlet;
#X obj 333 62 clip 0 2;
#X obj 175 79 == 1;
#X obj 275 79 == 2;
#X obj 142 163 outlet;
#X connect 0 0 14 0;
#X connect 1 0 0 1;
#X connect 2 0 11 0;
#X connect 3 0 1 0;
#X connect 4 0 0 0;
#X connect 5 0 14 0;
#X connect 6 0 5 1;
#X connect 7 0 5 0;
#X connect 8 0 14 0;
#X connect 9 0 8 1;
#X connect 10 0 8 0;
#X connect 11 0 3 0;
#X connect 11 0 12 0;
#X connect 11 0 13 0;
#X connect 12 0 6 0;
#X connect 13 0 9 0;
#X restore 65 215 pd select_source;
#X obj 239 190 hradio 25 1 0 3 empty empty empty 0 -8 0 10 -262144
-1 -1 0;
#X obj 65 132 arrast_vmotor 1;
#N canvas 669 307 434 223 select_source 0;
#X obj 42 128 spigot;
#X obj 75 108 tgl 15 0 empty empty empty 17 7 0 10 -262144 -1 -1 1
1;
#X obj 333 38 inlet;
#X obj 75 79 == 0;
#X obj 42 38 inlet;
#X obj 142 128 spigot;
#X obj 175 108 tgl 15 0 empty empty empty 17 7 0 10 -262144 -1 -1 0
1;
#X obj 142 38 inlet;
#X obj 242 128 spigot;
#X obj 275 108 tgl 15 0 empty empty empty 17 7 0 10 -262144 -1 -1 0
1;
#X obj 242 38 inlet;
#X obj 333 62 clip 0 2;
#X obj 175 79 == 1;
#X obj 275 79 == 2;
#X obj 142 163 outlet;
#X connect 0 0 14 0;
#X connect 1 0 0 1;
#X connect 2 0 11 0;
#X connect 3 0 1 0;
#X connect 4 0 0 0;
#X connect 5 0 14 0;
#X connect 6 0 5 1;
#X connect 7 0 5 0;
#X connect 8 0 14 0;
#X connect 9 0 8 1;
#X connect 10 0 8 0;
#X connect 11 0 3 0;
#X connect 11 0 12 0;
#X connect 11 0 13 0;
#X connect 12 0 6 0;
#X connect 13 0 9 0;
#X restore 345 215 pd select_source;
#X obj 519 190 hradio 25 1 0 3 empty empty empty 0 -8 0 10 -262144
-1 -1 0;
#N canvas 670 307 434 223 select_source 0;
#X obj 42 128 spigot;
#X obj 75 108 tgl 15 0 empty empty empty 17 7 0 10 -262144 -1 -1 1
1;
#X obj 333 38 inlet;
#X obj 75 79 == 0;
#X obj 42 38 inlet;
#X obj 142 128 spigot;
#X obj 175 108 tgl 15 0 empty empty empty 17 7 0 10 -262144 -1 -1 0
1;
#X obj 142 38 inlet;
#X obj 242 128 spigot;
#X obj 275 108 tgl 15 0 empty empty empty 17 7 0 10 -262144 -1 -1 0
1;
#X obj 242 38 inlet;
#X obj 333 62 clip 0 2;
#X obj 175 79 == 1;
#X obj 275 79 == 2;
#X obj 142 163 outlet;
#X connect 0 0 14 0;
#X connect 1 0 0 1;
#X connect 2 0 11 0;
#X connect 3 0 1 0;
#X connect 4 0 0 0;
#X connect 5 0 14 0;
#X connect 6 0 5 1;
#X connect 7 0 5 0;
#X connect 8 0 14 0;
#X connect 9 0 8 1;
#X connect 10 0 8 0;
#X connect 11 0 3 0;
#X connect 11 0 12 0;
#X connect 11 0 13 0;
#X connect 12 0 6 0;
#X connect 13 0 9 0;
#X restore 625 215 pd select_source;
#X obj 799 190 hradio 25 1 0 3 empty empty empty 0 -8 0 10 -262144
-1 -1 0;
#N canvas 670 307 434 223 select_source 0;
#X obj 42 128 spigot;
#X obj 75 108 tgl 15 0 empty empty empty 17 7 0 10 -262144 -1 -1 1
1;
#X obj 333 38 inlet;
#X obj 75 79 == 0;
#X obj 42 38 inlet;
#X obj 142 128 spigot;
#X obj 175 108 tgl 15 0 empty empty empty 17 7 0 10 -262144 -1 -1 0
1;
#X obj 142 38 inlet;
#X obj 242 128 spigot;
#X obj 275 108 tgl 15 0 empty empty empty 17 7 0 10 -262144 -1 -1 0
1;
#X obj 242 38 inlet;
#X obj 333 62 clip 0 2;
#X obj 175 79 == 1;
#X obj 275 79 == 2;
#X obj 142 163 outlet;
#X connect 0 0 14 0;
#X connect 1 0 0 1;
#X connect 2 0 11 0;
#X connect 3 0 1 0;
#X connect 4 0 0 0;
#X connect 5 0 14 0;
#X connect 6 0 5 1;
#X connect 7 0 5 0;
#X connect 8 0 14 0;
#X connect 9 0 8 1;
#X connect 10 0 8 0;
#X connect 11 0 3 0;
#X connect 11 0 12 0;
#X connect 11 0 13 0;
#X connect 12 0 6 0;
#X connect 13 0 9 0;
#X restore 905 215 pd select_source;
#X obj 1089 190 hradio 25 1 0 3 empty empty empty 0 -8 0 10 -262144
-1 -1 0;
#X obj 65 272 arrast_tmotor 1;
#X obj 65 327 arrast_fxmotor 1;
#X obj 629 20 r CANAL_SEL;
#X obj 629 47 route ch1_select ch2_select ch3_select ch4_select;
#X obj 629 75 - 1;
#X obj 714 75 - 1;
#X obj 799 75 - 1;
#X obj 884 75 - 1;
#X obj 239 143 loadbang;
#X msg 239 163 0;
#X obj 519 143 loadbang;
#X msg 519 163 0;
#X obj 799 143 loadbang;
#X msg 799 163 0;
#X obj 1089 143 loadbang;
#X msg 1089 163 0;
#X obj 407 178 arrast_cmotor 2;
#X obj 687 178 arrast_cmotor 3;
#X obj 967 178 arrast_cmotor 4;
#N canvas 853 370 323 219 select_source 0;
#X obj 42 128 spigot;
#X obj 75 108 tgl 15 0 empty empty empty 17 7 0 10 -262144 -1 -1 1
1;
#X obj 233 38 inlet;
#X obj 75 79 == 0;
#X obj 42 38 inlet;
#X obj 142 128 spigot;
#X obj 175 108 tgl 15 0 empty empty empty 17 7 0 10 -262144 -1 -1 0
1;
#X obj 175 79 == 1;
#X obj 42 183 outlet;
#X obj 233 62 clip 0 1;
#X obj 142 183 outlet;
#X connect 0 0 8 0;
#X connect 1 0 0 1;
#X connect 2 0 9 0;
#X connect 3 0 1 0;
#X connect 4 0 0 0;
#X connect 4 0 5 0;
#X connect 5 0 10 0;
#X connect 6 0 5 1;
#X connect 7 0 6 0;
#X connect 9 0 3 0;
#X connect 9 0 7 0;
#X restore 65 380 pd select_source;
#X obj 194 415 arrast_mapmotor 1;
#X obj 239 355 hradio 25 1 0 2 empty empty empty 0 -8 0 10 -262144
-1 -1 0;
#X obj 239 288 loadbang;
#X msg 239 308 0;
#N canvas 852 398 323 219 select_source 0;
#X obj 42 128 spigot;
#X obj 75 108 tgl 15 0 empty empty empty 17 7 0 10 -262144 -1 -1 1
1;
#X obj 233 38 inlet;
#X obj 75 79 == 0;
#X obj 42 38 inlet;
#X obj 142 128 spigot;
#X obj 175 108 tgl 15 0 empty empty empty 17 7 0 10 -262144 -1 -1 0
1;
#X obj 175 79 == 1;
#X obj 42 183 outlet;
#X obj 233 62 clip 0 1;
#X obj 142 183 outlet;
#X connect 0 0 8 0;
#X connect 1 0 0 1;
#X connect 2 0 9 0;
#X connect 3 0 1 0;
#X connect 4 0 0 0;
#X connect 4 0 5 0;
#X connect 5 0 10 0;
#X connect 6 0 5 1;
#X connect 7 0 6 0;
#X connect 9 0 3 0;
#X connect 9 0 7 0;
#X restore 345 380 pd select_source;
#N canvas 853 370 323 219 select_source 0;
#X obj 42 128 spigot;
#X obj 75 108 tgl 15 0 empty empty empty 17 7 0 10 -262144 -1 -1 1
1;
#X obj 233 38 inlet;
#X obj 75 79 == 0;
#X obj 42 38 inlet;
#X obj 142 128 spigot;
#X obj 175 108 tgl 15 0 empty empty empty 17 7 0 10 -262144 -1 -1 0
1;
#X obj 175 79 == 1;
#X obj 42 183 outlet;
#X obj 233 62 clip 0 1;
#X obj 142 183 outlet;
#X connect 0 0 8 0;
#X connect 1 0 0 1;
#X connect 2 0 9 0;
#X connect 3 0 1 0;
#X connect 4 0 0 0;
#X connect 4 0 5 0;
#X connect 5 0 10 0;
#X connect 6 0 5 1;
#X connect 7 0 6 0;
#X connect 9 0 3 0;
#X connect 9 0 7 0;
#X restore 625 380 pd select_source;
#N canvas 853 370 323 219 select_source 0;
#X obj 42 128 spigot;
#X obj 75 108 tgl 15 0 empty empty empty 17 7 0 10 -262144 -1 -1 1
1;
#X obj 233 38 inlet;
#X obj 75 79 == 0;
#X obj 42 38 inlet;
#X obj 142 128 spigot;
#X obj 175 108 tgl 15 0 empty empty empty 17 7 0 10 -262144 -1 -1 0
1;
#X obj 175 79 == 1;
#X obj 42 183 outlet;
#X obj 233 62 clip 0 1;
#X obj 142 183 outlet;
#X connect 0 0 8 0;
#X connect 1 0 0 1;
#X connect 2 0 9 0;
#X connect 3 0 1 0;
#X connect 4 0 0 0;
#X connect 4 0 5 0;
#X connect 5 0 10 0;
#X connect 6 0 5 1;
#X connect 7 0 6 0;
#X connect 9 0 3 0;
#X connect 9 0 7 0;
#X restore 905 380 pd select_source;
#X obj 239 331 r CANAL_MODE;
#X obj 345 327 arrast_fxmotor 2;
#X obj 625 327 arrast_fxmotor 3;
#X obj 905 327 arrast_fxmotor 4;
#X obj 345 272 arrast_tmotor 2;
#X obj 625 272 arrast_tmotor 3;
#X obj 905 272 arrast_tmotor 4;
#X obj 345 132 arrast_vmotor 2;
#X obj 625 132 arrast_vmotor 3;
#X obj 905 132 arrast_vmotor 4;
#X obj 936 155 arrast_imotor 4;
#X obj 474 415 arrast_mapmotor 2;
#X obj 754 415 arrast_mapmotor 3;
#X obj 1034 415 arrast_mapmotor 4;
#N canvas 344 362 781 265 COMMUNICATION 0;
#X obj 25 95 s \$0-canal_gemwin;
#X obj 57 186 s CANAL_V;
#X obj 89 216 s CANAL_I;
#X obj 121 186 s CANAL_C;
#X obj 153 216 s CANAL_T;
#X obj 185 186 s CANAL_FX;
#X obj 217 216 s CANAL_P;
#X obj 259 186 s CANAL_SEL;
#X obj 281 216 s CANAL_MODE;
#X obj 339 186 s CANAL_MAP;
#X obj 458 142 r CANAL_MAP_FB;
#X obj 458 165 list prepend map_fb;
#X obj 25 54 route gemwin video imagem camera transf fx plot ch_sel
mode_sel map;
#X text 507 216 ENVIA MENSAGENS PARA 1 INSTÂNCIA;
#X text 554 142 ENVIA FEEDBACK DOS MAPPINGS;
#X obj 25 23 r RECEIVE_FROM_1;
#X obj 458 22 loadbang;
#X msg 458 43 \; pd dsp 1;
#X text 144 23 RECEBE MENSAGENS DA INSTÂNCIA 1;
#X obj 458 187 list trim;
#X obj 458 216 stdout;
#X text 531 21 LIGA DSP - NECESSÁRIO PARA HABILITAR COMUNICAÇÃO
ENTRE AS 2 INSTÂNCIAS VIA [pd~], f 32;
#X connect 10 0 11 0;
#X connect 11 0 19 0;
#X connect 12 0 0 0;
#X connect 12 1 1 0;
#X connect 12 2 2 0;
#X connect 12 3 3 0;
#X connect 12 4 4 0;
#X connect 12 5 5 0;
#X connect 12 6 6 0;
#X connect 12 7 7 0;
#X connect 12 8 8 0;
#X connect 12 9 9 0;
#X connect 15 0 12 0;
#X connect 16 0 17 0;
#X connect 19 0 20 0;
#X restore 248 51 pd COMMUNICATION;
#X obj 248 17 declare -stdlib Gem;
#X obj 96 155 arrast_imotor 1;
#X obj 376 155 arrast_imotor 2;
#X obj 656 155 arrast_imotor 3;
#X msg 525 46 reset;
#X msg 480 46 print;
#X obj 443 17 r \$0-canal_gemwin;
#X obj 443 69 gemwin 24;
#X obj 65 415 arrast_mixmotor 1;
#X obj 345 415 arrast_mixmotor 2;
#X obj 625 415 arrast_mixmotor 3;
#X obj 905 415 arrast_mixmotor 4;
#X connect 0 0 2 0;
#X connect 2 0 1 0;
#X connect 4 0 5 2;
#X connect 5 0 14 0;
#X connect 6 0 5 3;
#X connect 7 0 5 0;
#X connect 8 0 45 0;
#X connect 9 0 8 3;
#X connect 10 0 46 0;
#X connect 11 0 10 3;
#X connect 12 0 47 0;
#X connect 13 0 12 3;
#X connect 14 0 15 0;
#X connect 15 0 33 0;
#X connect 16 0 17 0;
#X connect 17 0 18 0;
#X connect 17 1 19 0;
#X connect 17 2 20 0;
#X connect 17 3 21 0;
#X connect 18 0 6 0;
#X connect 19 0 9 0;
#X connect 20 0 11 0;
#X connect 21 0 13 0;
#X connect 22 0 23 0;
#X connect 23 0 6 0;
#X connect 24 0 25 0;
#X connect 25 0 9 0;
#X connect 26 0 27 0;
#X connect 27 0 11 0;
#X connect 28 0 29 0;
#X connect 29 0 13 0;
#X connect 30 0 8 2;
#X connect 31 0 10 2;
#X connect 32 0 12 2;
#X connect 33 0 64 0;
#X connect 33 1 34 0;
#X connect 35 0 33 1;
#X connect 35 0 38 1;
#X connect 35 0 39 1;
#X connect 35 0 40 1;
#X connect 36 0 37 0;
#X connect 37 0 35 0;
#X connect 38 0 65 0;
#X connect 38 1 52 0;
#X connect 39 0 66 0;
#X connect 39 1 53 0;
#X connect 40 0 67 0;
#X connect 40 1 54 0;
#X connect 41 0 35 0;
#X connect 42 0 38 0;
#X connect 43 0 39 0;
#X connect 44 0 40 0;
#X connect 45 0 42 0;
#X connect 46 0 43 0;
#X connect 47 0 44 0;
#X connect 48 0 8 0;
#X connect 49 0 10 0;
#X connect 50 0 12 0;
#X connect 51 0 12 1;
#X connect 57 0 5 1;
#X connect 58 0 8 1;
#X connect 59 0 10 1;
#X connect 60 0 63 0;
#X connect 61 0 63 0;
#X connect 62 0 63 0;
