#N canvas 261 116 772 459 10;
#X obj 54 40 inlet;
#X obj 54 395 outlet;
#X obj 274 40 r CANAL_FX;
#X obj 274 70 route FX\$1;
#X obj 371 139 s \$0-gain;
#X obj 437 139 s \$0-contrast;
#X obj 54 124 pix_invert;
#X obj 54 204 pix_gain;
#X obj 76 159 r \$0-gain;
#X obj 76 180 * 5;
#X obj 88 260 * 5;
#X obj 54 284 pix_contrast;
#X obj 88 239 r \$0-contrast;
#X obj 188 260 * 5;
#X obj 54 338 pix_motionblur;
#X obj 178 321 * 0.99;
#X obj 179 86 loadbang;
#X msg 179 107 0;
#X obj 527 139 s \$0-saturation;
#X obj 274 139 s \$0-colorInv;
#X obj 76 101 r \$0-colorInv;
#X obj 188 239 r \$0-saturation;
#X obj 274 100 route colorInv gain contrast saturation motionBlur;
#X obj 637 139 s \$0-motionBlur;
#X obj 178 300 r \$0-motionBlur;
#X connect 0 0 6 0;
#X connect 2 0 3 0;
#X connect 3 0 22 0;
#X connect 6 0 7 0;
#X connect 7 0 11 0;
#X connect 8 0 9 0;
#X connect 9 0 7 1;
#X connect 10 0 11 1;
#X connect 11 0 14 0;
#X connect 12 0 10 0;
#X connect 13 0 11 2;
#X connect 14 0 1 0;
#X connect 15 0 14 1;
#X connect 16 0 17 0;
#X connect 17 0 6 0;
#X connect 20 0 6 0;
#X connect 21 0 13 0;
#X connect 22 0 19 0;
#X connect 22 1 4 0;
#X connect 22 2 5 0;
#X connect 22 3 18 0;
#X connect 22 4 23 0;
#X connect 24 0 15 0;
