#N canvas 45 105 1290 597 16;
#X obj 919 232 del \$3;
#X obj 976 167 f \$3;
#X obj 919 133 t b b;
#X obj 248 204 spigot;
#X obj 305 171 == \$3;
#X obj 81 274 sel;
#X obj 108 245 f \$3;
#X obj 108 216 loadbang;
#X obj 34 133 t f f;
#X obj 976 196 * 2;
#X obj 498 133 route \$3;
#N canvas 320 185 731 404 SLOT_COLOR 0;
#X obj 52 163 sel;
#X obj 79 195 t b b;
#X obj 368 72 loadbang;
#X obj 368 107 f \$3;
#X obj 373 279 pack \$1 f f;
#X obj 52 66 inlet;
#X obj 480 244 array get \$0-memo 0 1;
#X obj 368 139 t f f f b;
#X obj 52 279 pack \$1 f f;
#X obj 159 244 r \$1-channelColor;
#X text 51 17 ** GERENCIA COR DE CADA SLOT NA INTERFACE;
#X text 550 217 ESTADO DO SLOT;
#X msg 52 331 \; \$1-colorSlot\$2 color \$3 22;
#X msg 373 331 \; \$1-colorSlot\$2 color \$3 22;
#X connect 0 0 8 0;
#X connect 0 1 1 0;
#X connect 1 0 4 0;
#X connect 1 1 6 0;
#X connect 2 0 3 0;
#X connect 3 0 7 0;
#X connect 4 0 13 0;
#X connect 5 0 0 0;
#X connect 6 0 4 2;
#X connect 7 0 0 1;
#X connect 7 1 8 1;
#X connect 7 2 4 1;
#X connect 7 3 6 0;
#X connect 8 0 12 0;
#X connect 9 0 8 2;
#X restore 34 172 pd SLOT_COLOR;
#X text 1082 459 SLOT;
#X obj 34 96 r \$1-activeSlot;
#X obj 305 138 r \$1-activeSlot;
#X obj 81 410 s \$1-activeFile;
#X obj 248 96 r \$1-slotFileIn;
#X obj 498 96 r \$1-slotFilePreset;
#X obj 919 96 r \$1-slotFlush;
#X obj 919 502 s \$1-slotList;
#X obj 919 323 symbol none;
#X obj 81 323 symbol none;
#X text 247 67 ENTRADA DO BROWSER;
#X text 496 67 ENTRADA DE PRESET;
#X obj 315 302 array set \$0-memo 0 1;
#X obj 248 239 t s s b;
#X msg 315 273 1;
#X obj 919 459 list prepend \$3;
#X obj 565 249 sel none;
#X obj 498 209 t s s s;
#X text 33 67 MUDANÇA DE SLOT;
#X text 361 273 ESTADO DO SLOT;
#X text 659 249 ARQUIVO;
#X text 1032 164 ATRASO PARA ORDENAR ESCRITA POR SLOT, f 15;
#X text 1043 323 ARQUIVO;
#X text 203 323 ARQUIVO;
#X text 916 533 ENVIA PARA GERENCIADOR;
#X text 346 18 ** GERENCIA MEMÓRIA DE CADA SLOT COM CAMINHO DO ARQUIVO
;
#X text 79 505 ARRAY DE MEMÓRIA LOCAL - 1 PARÂMETRO - ESTADO DO SLOT
;
#X obj 919 359 t s b;
#X obj 1026 383 array get \$0-memo;
#X obj 919 419 list append;
#X text 1024 358 LÊ MEMÓRIA;
#X obj 81 473 array define \$0-memo 1;
#X obj 498 168 list split 1;
#X obj 633 210 array set \$0-memo;
#X text 653 184 ESCREVE MEMÓRIA;
#X obj 81 352 pack s \$3;
#X text 183 354 SLOT;
#X text 244 411 ENVIA PARA UNIDADE DE IMAGEM;
#X obj 81 381 list trim;
#N canvas 188 229 590 364 RESET_SLOT 0;
#X obj 54 186 sel;
#X obj 81 156 f \$3;
#X obj 81 127 loadbang;
#X obj 54 215 t b b;
#X msg 54 264 symbol none;
#X obj 54 303 outlet;
#X text 54 16 ** MECANISMO PARA REINICIALIZAR VALORES DO SLOT;
#X text 52 63 RECEBE COMANDO DA UNIDADE DE IMAGEM;
#X obj 224 303 outlet;
#X msg 224 264 0;
#X obj 54 90 r \$1-resetSlot;
#X connect 0 0 3 0;
#X connect 1 0 0 1;
#X connect 2 0 1 0;
#X connect 3 0 4 0;
#X connect 3 1 9 0;
#X connect 4 0 5 0;
#X connect 9 0 8 0;
#X connect 10 0 0 0;
#X restore 725 96 pd RESET_SLOT;
#X obj 725 125 t s s;
#X text 723 67 REINICIA VALORES;
#X text 917 67 SAÍDA PARA GERENCIADOR DE PRESETS;
#X connect 0 0 20 0;
#X connect 1 0 9 0;
#X connect 2 0 0 0;
#X connect 2 1 1 0;
#X connect 3 0 25 0;
#X connect 4 0 3 1;
#X connect 5 0 21 0;
#X connect 6 0 5 1;
#X connect 7 0 6 0;
#X connect 8 0 11 0;
#X connect 8 1 5 0;
#X connect 9 0 0 1;
#X connect 10 0 44 0;
#X connect 13 0 8 0;
#X connect 14 0 4 0;
#X connect 16 0 3 0;
#X connect 17 0 10 0;
#X connect 18 0 2 0;
#X connect 20 0 39 0;
#X connect 21 0 47 0;
#X connect 25 0 21 0;
#X connect 25 1 20 1;
#X connect 25 2 26 0;
#X connect 26 0 24 0;
#X connect 27 0 19 0;
#X connect 28 1 26 0;
#X connect 29 0 21 0;
#X connect 29 1 20 1;
#X connect 29 2 28 0;
#X connect 39 0 41 0;
#X connect 39 1 40 0;
#X connect 40 0 41 1;
#X connect 41 0 27 0;
#X connect 44 0 29 0;
#X connect 44 1 45 0;
#X connect 47 0 50 0;
#X connect 50 0 15 0;
#X connect 51 0 52 0;
#X connect 51 1 45 0;
#X connect 52 0 21 0;
#X connect 52 1 20 1;
