#N canvas 406 345 517 191 16;
#X obj 50 30 cnv 15 185 98 empty empty empty 20 12 0 14 -128992 -66577
0;
#X obj 60 55 vsl 12 60 0 1 0 0 \$0-red_gui \$0-red_gui_set empty 0
-9 0 10 -258113 -1 -1 5900 1;
#X obj 73 55 vsl 12 60 0 1 0 0 \$0-green_gui \$0-green_gui_set COLOR
-8 -10 0 10 -4034 -1 -262144 5900 1;
#X obj 86 55 vsl 12 60 0 1 0 0 \$0-blue_gui \$0-blue_gui_set empty
0 -9 0 10 -4160 -1 -1 5900 1;
#X obj 137 54 vsl 12 60 0 1 0 0 \$0-gain_gui \$0-gain_gui_set G 4 -10
0 10 -1 -262144 -262144 1180 1;
#X obj 159 54 vsl 12 60 0 1 0 0 \$0-contrast_gui \$0-contrast_gui_set
C 4 -10 0 10 -1 -262144 -262144 1180 1;
#X obj 181 54 vsl 12 60 0 1 0 0 \$0-saturation_gui \$0-saturation_gui_set
S 4 -10 0 10 -1 -262144 -262144 1180 1;
#X obj 213 54 vsl 12 60 0 1 0 0 \$0-motionBlur_gui \$0-motionBlur_gui_set
MB 1 -10 0 10 -1 -262144 -262144 0 1;
#X obj 102 53 bng 12 250 50 0 \$0-resetRGB_gui \$0-resetRGB_gui_set
empty 17 7 0 10 -262144 -1 -1;
#X obj 150 98 bng 8 250 50 0 \$0-resetG_gui \$0-resetG_gui_set empty
17 7 0 10 -262144 -1 -1;
#X obj 172 98 bng 8 250 50 0 \$0-resetC_gui \$0-resetC_gui_set empty
17 7 0 10 -262144 -1 -1;
#X obj 194 98 bng 8 250 50 0 \$0-resetS_gui \$0-resetS_gui_set empty
17 7 0 10 -262144 -1 -1;
#X obj 197 53 bng 12 250 50 0 \$0-resetFX_gui \$0-resetFX_gui_set empty
17 7 0 10 -262144 -1 -1;
#X obj 108 99 tgl 18 0 \$0-colorInv_gui \$0-colorInv_gui_set INV 1
-7 0 10 -1 -262144 -262144 0 1;
#N canvas 179 222 1197 270 RESET 0;
#X msg 52 113 1;
#X msg 251 113 0.2;
#X msg 441 113 0.2;
#X msg 671 113 0.2;
#X msg 921 113 0;
#X obj 52 157 s \$0-red_gui_set;
#X obj 52 187 s \$0-green_gui_set;
#X obj 52 217 s \$0-blue_gui_set;
#X obj 251 157 s \$0-gain_gui_set;
#X obj 441 157 s \$0-contrast_gui_set;
#X obj 671 157 s \$0-saturation_gui_set;
#X obj 921 187 s \$0-colorInv_gui_set;
#X obj 921 157 s \$0-motionBlur_gui_set;
#X obj 52 64 r \$0-resetRGB_gui;
#X obj 251 64 r \$0-resetG_gui;
#X obj 441 64 r \$0-resetC_gui;
#X obj 671 64 r \$0-resetS_gui;
#X obj 921 64 r \$0-resetFX_gui;
#X text 309 19 ** RESETS PARAMETERS FROM INTERFACE BUTTONS;
#X connect 0 0 5 0;
#X connect 0 0 6 0;
#X connect 0 0 7 0;
#X connect 1 0 8 0;
#X connect 2 0 9 0;
#X connect 3 0 10 0;
#X connect 4 0 11 0;
#X connect 4 0 12 0;
#X connect 13 0 0 0;
#X connect 14 0 1 0;
#X connect 15 0 2 0;
#X connect 16 0 3 0;
#X connect 17 0 3 0;
#X connect 17 0 2 0;
#X connect 17 0 1 0;
#X connect 17 0 4 0;
#X restore 280 98 pd RESET;
#N canvas 232 160 766 456 LINKS 0;
#X obj 42 366 list prepend FX\$1;
#X obj 42 64 r \$0-red;
#X obj 226 64 r \$0-green;
#X obj 430 64 r \$0-blue;
#X obj 42 98 list prepend red;
#X obj 226 98 list prepend green;
#X obj 430 98 list prepend blue;
#X obj 42 230 r \$0-gain;
#X obj 42 264 list prepend gain;
#X obj 242 230 r \$0-contrast;
#X obj 242 264 list prepend contrast;
#X obj 42 142 list prepend T\$1;
#X obj 492 230 r \$0-saturation;
#X obj 492 264 list prepend saturation;
#X obj 242 308 r \$0-colorInv;
#X obj 242 342 list prepend colorInv;
#X obj 492 309 r \$0-motionBlur;
#X obj 492 342 list prepend motionBlur;
#X obj 42 176 s TRANSF_BUS;
#X obj 42 400 s FX_BUS;
#X text 210 19 ** SENDS CONTROLS TO 2nd INSTANCE;
#X connect 0 0 19 0;
#X connect 1 0 4 0;
#X connect 2 0 5 0;
#X connect 3 0 6 0;
#X connect 4 0 11 0;
#X connect 5 0 11 0;
#X connect 6 0 11 0;
#X connect 7 0 8 0;
#X connect 8 0 0 0;
#X connect 9 0 10 0;
#X connect 10 0 0 0;
#X connect 11 0 18 0;
#X connect 12 0 13 0;
#X connect 13 0 0 0;
#X connect 14 0 15 0;
#X connect 15 0 0 0;
#X connect 16 0 17 0;
#X connect 17 0 0 0;
#X restore 280 132 pd LINKS;
#N canvas 286 167 525 298 EXTERNAL_CONTROL 0;
#X text 213 137 FILTER BY CHANNEL;
#X text 144 170 FILTER BY MODULE;
#X obj 48 234 s \$0-externalControl;
#X text 265 235 SEND CONTROLS LOCALLY;
#X obj 48 136 route channel\$1;
#X obj 48 72 r OSC_BUS;
#X text 43 19 ** EXTERNAL CONTROL ROUTER VIA OSC MESSAGES;
#X text 153 69 RECEIVE UNPACKAGED OSC FROM PARENT PATCH, f 29;
#X obj 48 170 route fx;
#X connect 4 0 8 0;
#X connect 5 0 4 0;
#X connect 8 0 2 0;
#X restore 280 30 pd EXTERNAL_CONTROL;
#N canvas 274 157 564 382 CONTROL_MEMORY 0;
#N canvas 224 143 894 421 PRESET_MANAGER 0;
#X obj 42 283 list trim;
#X obj 42 67 r CH\$1_FLUSH;
#X obj 42 330 s CH\$1_PRESET;
#X obj 42 132 s \$0-slotFlush;
#X obj 42 217 r \$0-slotList;
#X obj 42 100 t b;
#X text 189 216 RECEIVE DATA FROM SLOTS;
#X text 39 359 SEND TO GLOBAL MANAGER OF PRESETS;
#X obj 461 67 r MAIN_PRESET_SEND;
#X obj 508 134 route \$1;
#X text 604 134 ROUTE BY CHANNEL;
#X obj 508 204 s \$0-slotFilePreset;
#X text 656 64 RECEIVE GLOBAL PRESET MEMORY, f 14;
#X text 505 233 SEND DATA TO SLOTS;
#X text 39 162 ASK DATA FROM SLOTS;
#X obj 508 164 route fx;
#X obj 42 250 list prepend fx;
#X obj 461 96 t b a;
#X text 665 316 REFRESH ACTIVE SLOT;
#X obj 461 285 del 10;
#X obj 461 315 s \$0-slotLocalFlush;
#X text 99 19 ** MANAGES COMMUNICATION BETWEEN SLOTS AND GLOBAL MANAGER
OF PRESETS, f 68;
#X connect 0 0 2 0;
#X connect 1 0 5 0;
#X connect 4 0 16 0;
#X connect 5 0 3 0;
#X connect 8 0 17 0;
#X connect 9 0 15 0;
#X connect 15 0 11 0;
#X connect 16 0 0 0;
#X connect 17 0 19 0;
#X connect 17 1 9 0;
#X connect 19 0 20 0;
#X restore 299 84 pd PRESET_MANAGER;
#X text 47 56 LOCAL MEMORY SLOTS;
#N canvas 285 141 383 332 ACTIVE_SLOT 0;
#X obj 48 89 r V\$1_ACTIVE_SLOT;
#X obj 48 129 r I\$1_ACTIVE_SLOT;
#X obj 48 272 s \$0-activeSlot;
#X obj 48 160 f;
#X text 212 273 SEND LOCALLY;
#X obj 48 238 f;
#X text 139 175 REFRESH ACTIVE SLOT;
#X obj 141 199 r \$0-slotLocalFlush;
#X text 46 27 ** RECEIVES ACTIVE SLOT FROM VIDEO AND IMAGE MODULES
, f 32;
#X connect 0 0 3 0;
#X connect 1 0 3 0;
#X connect 3 0 5 0;
#X connect 5 0 2 0;
#X connect 7 0 5 0;
#X restore 299 152 pd ACTIVE_SLOT;
#X obj 48 84 arrast_fxslot \$0 \$1 1;
#X text 133 17 ** LOCAL MEMORY MANAGEMENT;
#N canvas 253 162 524 370 AUTOMATION_MANAGER 0;
#X text 36 19 ** LOCAL MANAGEMENT OF THE AUTOMATION SYSTEM;
#X text 46 59 AUTOMATION UNITS BY PARAMETER;
#X obj 49 97 arrast_automato \$0 red \$1 0 31;
#X obj 49 127 arrast_automato \$0 green \$1 0 32;
#X obj 49 157 arrast_automato \$0 blue \$1 0 33;
#X obj 49 187 arrast_automato \$0 colorInv \$1 0 34;
#X obj 49 217 arrast_automato \$0 gain \$1 0 35;
#X obj 49 247 arrast_automato \$0 contrast \$1 0 36;
#X obj 49 277 arrast_automato \$0 saturation \$1 0 37;
#X obj 49 307 arrast_automato \$0 motionBlur \$1 0 38;
#X restore 299 118 pd AUTOMATION_MANAGER;
#X obj 48 118 arrast_fxslot \$0 \$1 2;
#X obj 48 152 arrast_fxslot \$0 \$1 3;
#X obj 48 186 arrast_fxslot \$0 \$1 4;
#X obj 48 220 arrast_fxslot \$0 \$1 5;
#X obj 48 254 arrast_fxslot \$0 \$1 6;
#X obj 48 288 arrast_fxslot \$0 \$1 7;
#X obj 48 322 arrast_fxslot \$0 \$1 8;
#X restore 280 64 pd CONTROL_MEMORY;
#X coords 0 -1 1 1 185 98 2 50 30;
