#N canvas 25 64 1132 606 16;
#X text 260 62 RECEBE CONTROLES EXTERNOS;
#X obj 614 174 route audio samplerate boost avAmp avLop avHip;
#N canvas 73 107 409 323 INIT_SAMPLERATE 0;
#X obj 38 87 loadbang;
#X obj 38 116 delay 50;
#X obj 38 145 samplerate~;
#X obj 38 264 outlet;
#X text 36 27 ** INICIALIZA SAMPLERATE DO PATCH DE ACORDO COM A ESCOLHIDA
NO PD, f 33;
#X obj 38 174 sel 22050 44100 48000 96000;
#X msg 38 203 0;
#X msg 104 203 1;
#X msg 171 203 2;
#X msg 238 203 3;
#X text 134 117 DEPOIS DO [arrast_param];
#X connect 0 0 1 0;
#X connect 1 0 2 0;
#X connect 2 0 5 0;
#X connect 5 0 6 0;
#X connect 5 1 7 0;
#X connect 5 2 8 0;
#X connect 5 3 9 0;
#X connect 6 0 3 0;
#X connect 7 0 3 0;
#X connect 8 0 3 0;
#X connect 9 0 3 0;
#X restore 564 245 pd INIT_SAMPLERATE;
#N canvas 23 134 1338 629 BRAIN 0;
#X obj 1098 232 del \$3;
#X obj 1155 167 f \$3;
#X obj 1098 133 t b b;
#X obj 410 204 spigot;
#X obj 467 171 == \$3;
#X obj 101 274 sel;
#X obj 128 245 f \$3;
#X obj 128 216 loadbang;
#X obj 1098 363 t s b;
#X obj 1155 196 * 2;
#X obj 664 157 route \$3;
#N canvas 102 142 731 404 SLOT_COLOR 0;
#X obj 52 163 sel;
#X obj 79 195 t b b;
#X obj 368 72 loadbang;
#X obj 368 107 f \$3;
#X obj 373 279 pack \$1 f f;
#X obj 52 66 inlet;
#X obj 480 244 array get \$0-memo 0 1;
#X obj 368 139 t f f f b;
#X obj 52 279 pack \$1 f f;
#X obj 159 244 r \$1-channelColor;
#X text 51 17 ** GERENCIA COR DE CADA SLOT NA INTERFACE;
#X text 550 217 ESTADO DO SLOT;
#X msg 52 331 \; \$1-colorSlot\$2 color \$3 22;
#X msg 373 331 \; \$1-colorSlot\$2 color \$3 22;
#X connect 0 0 8 0;
#X connect 0 1 1 0;
#X connect 1 0 4 0;
#X connect 1 1 6 0;
#X connect 2 0 3 0;
#X connect 3 0 7 0;
#X connect 4 0 13 0;
#X connect 5 0 0 0;
#X connect 6 0 4 2;
#X connect 7 0 0 1;
#X connect 7 1 8 1;
#X connect 7 2 4 1;
#X connect 7 3 6 0;
#X connect 8 0 12 0;
#X connect 9 0 8 2;
#X restore 34 172 pd SLOT_COLOR;
#X text 1261 459 SLOT;
#X obj 34 96 r \$1-activeSlot;
#X obj 467 138 r \$1-activeSlot;
#X obj 101 408 s \$1-activeFile;
#X obj 410 96 r \$1-slotFileIn;
#X obj 664 96 r \$1-slotFilePreset;
#X obj 1098 96 r \$1-slotFlush;
#X obj 1098 502 s \$1-slotList;
#X obj 1098 323 symbol none;
#X obj 101 323 symbol none;
#X text 141 539 ATUALIZA SLOT ATUAL COM VALORES DA MEMÓRIA;
#X obj 67 538 sel \$3;
#X obj 67 576 s \$0-memo-load;
#X obj 101 352 t s s;
#X obj 281 408 s \$1-audioFile;
#X text 409 67 ENTRADA DO BROWSER;
#X text 662 67 ENTRADA DE PRESET;
#X obj 281 376 pack s \$3;
#X text 384 377 ENVIA ARQUIVO E SLOT PARA SLOTS DE ÁUDIO;
#X obj 410 239 t s s b;
#X msg 477 286 1;
#X obj 1205 387 array get \$0-memo;
#X obj 1098 423 list append;
#X obj 1098 459 list prepend \$3;
#X obj 664 187 list split 1;
#X obj 722 285 array set \$0-memo;
#X text 33 67 MUDANÇA DE SLOT;
#X text 523 286 ESTADO DO SLOT;
#X text 1211 164 ATRASO PARA ORDENAR ESCRITA POR SLOT, f 15;
#X text 1203 362 LÊ MEMÓRIA;
#X text 1222 323 ARQUIVO;
#X text 1095 532 ENVIA PARA GERENCIADOR;
#X text 742 259 ESCREVE MEMÓRIA;
#X text 239 18 ** GERENCIA MEMÓRIA DE CADA SLOT \, COM CAMINHO DO
ARQUIVO E PARÂMETROS DA REPRODUÇÃO, f 83;
#X obj 477 315 array set \$0-memo 0;
#X obj 664 217 t s s;
#X text 1096 67 SAÍDA PARA GERENCIADOR DE PRESETS;
#N canvas 229 313 590 364 RESET_SLOT 0;
#X obj 206 239 s \$0-memo-reset;
#X obj 54 186 sel;
#X text 52 63 RECEBE COMANDO DA UNIDADE DE VÍDEO;
#X obj 81 156 f \$3;
#X obj 81 127 loadbang;
#X obj 54 215 t b b;
#X msg 54 264 symbol none;
#X obj 54 303 outlet;
#X text 204 213 REINICIA PARÂMETROS DO SLOT ATUAL;
#X text 54 16 ** MECANISMO PARA REINICIALIZAR VALORES DO SLOT;
#X obj 54 90 r \$1-resetSlot;
#X connect 1 0 5 0;
#X connect 3 0 1 1;
#X connect 4 0 3 0;
#X connect 5 0 6 0;
#X connect 5 1 0 0;
#X connect 6 0 7 0;
#X connect 10 0 1 0;
#X restore 900 96 pd RESET_SLOT;
#X obj 900 125 t s s;
#X text 898 67 REINICIA VALORES;
#X obj 34 133 t f f f;
#X obj 101 463 array define \$0-memo 15;
#X text 345 464 ARRAY DE MEMÓRIA LOCAL - CADA SLOT 15 PARÂMETROS
;
#X obj 224 96 inlet PATH;
#X text 223 67 CONTROLE EXTERNO;
#X text 243 171 FILTRO POR SLOT ATIVO;
#X text 223 323 CAMINHO;
#X text 727 218 CAMINHO;
#X obj 224 130 symbol;
#X connect 0 0 20 0;
#X connect 1 0 9 0;
#X connect 2 0 0 0;
#X connect 2 1 1 0;
#X connect 3 0 31 0;
#X connect 4 0 3 1;
#X connect 5 0 21 0;
#X connect 6 0 5 1;
#X connect 7 0 6 0;
#X connect 8 0 34 0;
#X connect 8 1 33 0;
#X connect 9 0 0 1;
#X connect 10 0 36 0;
#X connect 13 0 52 0;
#X connect 14 0 4 0;
#X connect 16 0 3 0;
#X connect 17 0 10 0;
#X connect 18 0 2 0;
#X connect 20 0 8 0;
#X connect 21 0 25 0;
#X connect 23 0 24 0;
#X connect 25 0 15 0;
#X connect 25 1 29 0;
#X connect 29 0 26 0;
#X connect 31 0 21 0;
#X connect 31 1 20 1;
#X connect 31 2 32 0;
#X connect 32 0 46 0;
#X connect 33 0 34 1;
#X connect 34 0 35 0;
#X connect 35 0 19 0;
#X connect 36 0 47 0;
#X connect 36 1 37 0;
#X connect 47 0 21 1;
#X connect 47 1 20 1;
#X connect 49 0 50 0;
#X connect 50 0 21 0;
#X connect 50 1 20 1;
#X connect 52 0 11 0;
#X connect 52 1 23 0;
#X connect 52 2 5 0;
#X connect 55 0 60 0;
#X connect 60 0 3 0;
#X restore 614 82 pd BRAIN;
#X text 710 82 GERENCIA MEMÓRIA E AÇÕES DO SLOT;
#X obj 268 181 t b;
#X obj 332 181 t b;
#X obj 268 213 s \$1-rw_gui_set;
#X obj 331 245 s \$1-stop_gui_set;
#X obj 44 285 arrast_param \$1 slotState \$0-memo 0 0 \$3;
#X obj 44 315 arrast_param \$1 ioMode \$0-memo 1 0 \$3;
#X text 269 19 ** GERENCIA ENTRADA DE PARÂMETROS E MEMÓRIA DE CADA
SLOT;
#X obj 44 375 arrast_param \$1 inSet \$0-memo 2 0 \$3;
#X obj 44 405 arrast_param \$1 outSet \$0-memo 3 1 \$3;
#X obj 44 435 arrast_param \$1 speed \$0-memo 4 0.5 \$3;
#X obj 44 465 arrast_param \$1 play \$0-memo 5 0 \$3;
#X obj 44 495 arrast_param \$1 inv \$0-memo 6 0 \$3;
#X obj 44 525 arrast_param \$1 loop \$0-memo 7 1 \$3;
#X obj 44 555 arrast_param \$1 loopMode \$0-memo 8 0 \$3;
#X obj 614 285 arrast_param \$1 audio \$0-memo 9 1 \$3;
#X obj 614 315 arrast_param \$1 samplerate \$0-memo 10 2 \$3;
#X obj 614 345 arrast_param \$1 boost \$0-memo 11 3 \$3;
#X obj 614 375 arrast_param \$1 avAmp \$0-memo 12 1 \$3;
#X obj 614 405 arrast_param \$1 avLop \$0-memo 13 2 \$3;
#X obj 614 435 arrast_param \$1 avHip \$0-memo 14 3 \$3;
#X obj 44 345 s \$1-ioLink_gui_set;
#X obj 44 62 r \$1-externalControl;
#X obj 44 130 route slotState ioMode ioLink inSet outSet speed play
rw inv stop loop loopMode file, f 42;
#X text 248 346 NÃO SALVA LINK_IO COM PRESET;
#X connect 1 0 19 0;
#X connect 1 1 20 0;
#X connect 1 2 21 0;
#X connect 1 3 22 0;
#X connect 1 4 23 0;
#X connect 1 5 24 0;
#X connect 2 0 20 0;
#X connect 5 0 7 0;
#X connect 6 0 8 0;
#X connect 26 0 27 0;
#X connect 27 0 9 0;
#X connect 27 1 10 0;
#X connect 27 2 25 0;
#X connect 27 3 12 0;
#X connect 27 4 13 0;
#X connect 27 5 14 0;
#X connect 27 6 15 0;
#X connect 27 7 5 0;
#X connect 27 8 16 0;
#X connect 27 9 6 0;
#X connect 27 10 17 0;
#X connect 27 11 18 0;
#X connect 27 12 3 0;
#X connect 27 13 1 0;
