#N canvas 252 227 519 220 16;
#X obj 50 30 cnv 15 185 80 empty empty empty 20 12 0 14 #dcdcdc #404040
0;
#X obj 52 30 hradio 20 1 0 9 \$0-enableClick \$0-enableClick_set empty
0 -8 0 10 #fcfcfc #000000 #000000 0;
#X obj 50 30 cnv 15 185 20 \$0-enable \$0-enable_set empty 20 12 0
14 #7c7c7c #fcfcfc 0;
#X obj 61 61 hradio 18 1 0 9 \$0-openBrowser \$0-openBrowser_in empty
0 -8 0 10 #fcfcfc #000000 #000000 0;
#X obj 60 61 cnv 15 165 18 \$0-morto \$0-fileDisplay OPEN_IMAGE 5 9
0 12 #001488 #fcfcfc 0;
#N canvas 147 214 780 506 ENABLE_BUTTON 0;
#X obj 50 97 t b;
#X obj 50 188 f;
#X obj 90 188 + 1;
#X obj 50 216 % 2;
#X floatatom 50 250 5 0 0 0 - - - 0;
#X obj 118 132 loadbang;
#X obj 50 284 t f f;
#X obj 207 308 sel 1;
#X obj 317 64 r CH\$1_SELECT;
#X obj 207 370 s CH\$1_SELECT;
#X msg 364 164 0;
#X obj 317 98 sel 2;
#X msg 62 156 0;
#X msg 207 338 2;
#X msg 367 338 0;
#X obj 208 271 s I\$1_ST;
#X obj 208 164 r I\$1_SET_ST;
#X obj 207 444 s SOURCE_BUS;
#X obj 207 414 list prepend sourceChannel\$1;
#X obj 367 370 s \$0-render;
#N canvas 102 141 425 285 COLOR 0;
#X obj 45 61 inlet;
#X obj 45 116 sel 0 1;
#X obj 165 140 f 13;
#X msg 165 176 color \$1 0;
#X msg 45 176 color 11 0;
#X obj 202 109 r \$0-channelColor;
#X obj 45 227 s \$0-enable_set;
#X text 42 18 ** COLOR OF ENABLE UNIT BUTTON;
#X connect 0 0 1 0;
#X connect 1 0 4 0;
#X connect 1 1 2 0;
#X connect 2 0 3 0;
#X connect 3 0 6 0;
#X connect 4 0 6 0;
#X connect 5 0 2 1;
#X restore 50 369 pd COLOR;
#X obj 208 226 t b;
#X obj 208 196 r REFRESH_SOURCE;
#X obj 501 87 r \$0-externalControl;
#X obj 501 164 route enable;
#X text 498 59 RECEIVE EXTERNAL CONTROL;
#X obj 50 63 r \$0-enableClick;
#X text 132 17 ** MANAGES BUTTON STATE TO ENABLE UNIT;
#X connect 0 0 1 0;
#X connect 1 0 3 0;
#X connect 2 0 1 1;
#X connect 3 0 2 0;
#X connect 3 0 4 0;
#X connect 4 0 6 0;
#X connect 4 0 15 0;
#X connect 5 0 12 0;
#X connect 6 0 20 0;
#X connect 6 1 7 0;
#X connect 7 0 13 0;
#X connect 7 1 14 0;
#X connect 8 0 11 0;
#X connect 10 0 1 0;
#X connect 11 1 10 0;
#X connect 12 0 1 0;
#X connect 13 0 9 0;
#X connect 13 0 18 0;
#X connect 14 0 19 0;
#X connect 16 0 1 0;
#X connect 18 0 17 0;
#X connect 21 0 4 0;
#X connect 22 0 21 0;
#X connect 23 0 24 0;
#X connect 24 0 1 0;
#X connect 26 0 0 0;
#X restore 280 132 pd ENABLE_BUTTON;
#N canvas 165 153 968 593 IMAGE_UNIT 0;
#X obj 48 542 rectangle 4 3;
#X obj 48 356 pix_texture;
#X obj 48 149 gemhead \$1;
#X obj 48 430 translateXYZ 0 0 0;
#X obj 48 464 scale 0.3;
#X obj 360 80 r CH\$1_SELECT;
#X obj 360 114 == 2;
#X obj 48 114 tgl 25 0 empty empty empty 17 7 0 10 #fcfcfc #000000
#000000 0 1;
#X obj 668 356 list prepend file;
#X obj 454 356 list prepend render;
#X obj 192 298 loadbang;
#X msg 192 332 quality 0;
#X obj 538 108 r \$0-activeFile;
#X text 357 51 ENABLE IMAGE;
#N canvas 192 185 406 322 INFO 0;
#X obj 50 36 inlet;
#X obj 50 86 t a a;
#X obj 50 265 outlet;
#X obj 148 141 change;
#X obj 225 141 change;
#X obj 137 110 pix_info;
#X obj 148 202 pack f f;
#X obj 148 232 s \$0-tam;
#X obj 225 169 t b f;
#X text 150 23 ** SENDS IMAGE DIMENSIONS IN PIXELS TO COMPUTE PROPORTION
, f 21;
#X connect 0 0 1 0;
#X connect 1 0 2 0;
#X connect 1 1 5 0;
#X connect 3 0 6 0;
#X connect 4 0 8 0;
#X connect 5 1 3 0;
#X connect 5 2 4 0;
#X connect 6 0 7 0;
#X connect 8 0 6 0;
#X connect 8 1 6 1;
#X restore 48 302 pd INFO;
#N canvas 401 308 306 377 RATIO 0;
#X obj 50 305 outlet;
#X obj 169 305 outlet;
#X obj 50 73 r \$0-tam;
#X obj 50 117 unpack f f;
#X obj 50 149 /;
#X obj 50 273 * 3;
#X obj 169 274 * 3;
#X obj 169 218 t b f f;
#X obj 169 73 inlet;
#X obj 50 182 pack f 1;
#X obj 50 210 unpack f f;
#X text 37 27 ** MANAGES IMAGE RATIO;
#X connect 2 0 3 0;
#X connect 3 0 4 0;
#X connect 3 1 4 1;
#X connect 4 0 9 0;
#X connect 5 0 0 0;
#X connect 6 0 1 0;
#X connect 7 0 6 0;
#X connect 7 0 5 0;
#X connect 7 1 5 1;
#X connect 7 2 6 1;
#X connect 8 0 7 0;
#X connect 9 0 10 0;
#X connect 10 0 5 0;
#X connect 10 1 6 0;
#X restore 111 508 pd RATIO;
#X text 651 142 IGNORE EMPTY SLOTS;
#X obj 538 142 route none;
#X obj 347 234 - 1;
#N canvas 133 254 417 212 TO_IMAGE_BUS 0;
#X obj 39 61 inlet;
#X text 35 23 ** OUTPUT CHANNEL OF IMAGE CONTROLS;
#X obj 39 105 list prepend I\$1;
#X obj 39 149 s IMAGE_BUS;
#X connect 0 0 2 0;
#X connect 2 0 3 0;
#X restore 454 400 pd TO_IMAGE_BUS;
#X obj 48 258 pix_buffer_read \$0_buffer;
#N canvas 193 259 898 238 IMAGE_BUFFER 0;
#X obj 41 43 inlet;
#N canvas 115 185 490 404 OPEN_1 0;
#X obj 39 105 unpack s f;
#X obj 39 272 pack s f;
#X msg 39 306 open \$1 \$2;
#X obj 39 61 inlet;
#X obj 136 170 == 1;
#X obj 39 194 spigot;
#X obj 136 136 t f f;
#X obj 39 350 outlet;
#X text 215 239 FILTER REPEATS;
#X text 193 171 FILTER BY SLOT IN BUFFER;
#X obj 183 204 - 1;
#X text 229 204 ADJUST INDEX TO BUFFER;
#N canvas 217 349 351 280 CHANGE_SYMBOL 0;
#X obj 49 117 t s s;
#X obj 49 154 sel s;
#X obj 49 70 inlet;
#X obj 96 228 outlet;
#X obj 96 184 symbol;
#X text 59 19 ** [change] SYMBOL;
#X obj 179 70 inlet RESET;
#X msg 179 99 symbol none;
#X connect 0 0 1 1;
#X connect 0 1 1 0;
#X connect 1 1 4 0;
#X connect 2 0 0 0;
#X connect 4 0 3 0;
#X connect 6 0 7 0;
#X connect 7 0 1 1;
#X restore 39 238 pd CHANGE_SYMBOL;
#X text 38 19 ** ASSIGN IMAGES TO EACH BUFFER SLOT;
#X connect 0 0 5 0;
#X connect 0 1 6 0;
#X connect 1 0 2 0;
#X connect 2 0 7 0;
#X connect 3 0 0 0;
#X connect 4 0 5 1;
#X connect 5 0 12 0;
#X connect 6 0 4 0;
#X connect 6 1 10 0;
#X connect 10 0 1 1;
#X connect 12 0 1 0;
#X restore 41 121 pd OPEN_1;
#X text 277 176 BUFFER TO 8 IMAGES;
#X obj 41 77 t a a a a a a a a;
#N canvas 101 178 489 404 OPEN_2 0;
#X obj 39 105 unpack s f;
#X obj 39 272 pack s f;
#X msg 39 306 open \$1 \$2;
#X obj 39 61 inlet;
#X obj 39 194 spigot;
#X obj 136 136 t f f;
#X obj 39 350 outlet;
#X text 215 239 FILTER REPEATS;
#X text 193 171 FILTER BY SLOT IN BUFFER;
#X obj 183 204 - 1;
#X text 229 204 ADJUST INDEX TO BUFFER;
#N canvas 215 348 351 280 CHANGE_SYMBOL 0;
#X obj 49 117 t s s;
#X obj 49 154 sel s;
#X obj 49 70 inlet;
#X obj 96 228 outlet;
#X obj 96 184 symbol;
#X text 59 19 ** [change] SYMBOL;
#X obj 179 70 inlet RESET;
#X msg 179 99 symbol none;
#X connect 0 0 1 1;
#X connect 0 1 1 0;
#X connect 1 1 4 0;
#X connect 2 0 0 0;
#X connect 4 0 3 0;
#X connect 6 0 7 0;
#X connect 7 0 1 1;
#X restore 39 238 pd CHANGE_SYMBOL;
#X text 38 19 ** ASSIGN IMAGES TO EACH BUFFER SLOT;
#X obj 136 170 == 2;
#X connect 0 0 4 0;
#X connect 0 1 5 0;
#X connect 1 0 2 0;
#X connect 2 0 6 0;
#X connect 3 0 0 0;
#X connect 4 0 11 0;
#X connect 5 0 13 0;
#X connect 5 1 9 0;
#X connect 9 0 1 1;
#X connect 11 0 1 0;
#X connect 13 0 4 1;
#X restore 145 121 pd OPEN_2;
#N canvas 101 178 486 404 OPEN_3 0;
#X obj 39 105 unpack s f;
#X obj 39 272 pack s f;
#X msg 39 306 open \$1 \$2;
#X obj 39 61 inlet;
#X obj 39 194 spigot;
#X obj 136 136 t f f;
#X obj 39 350 outlet;
#X text 215 239 FILTER REPEATS;
#X text 193 171 FILTER BY SLOT IN BUFFER;
#X obj 183 204 - 1;
#X text 229 204 ADJUST INDEX TO BUFFER;
#N canvas 215 320 351 280 CHANGE_SYMBOL 0;
#X obj 49 117 t s s;
#X obj 49 154 sel s;
#X obj 49 70 inlet;
#X obj 96 228 outlet;
#X obj 96 184 symbol;
#X text 59 19 ** [change] SYMBOL;
#X obj 179 70 inlet RESET;
#X msg 179 99 symbol none;
#X connect 0 0 1 1;
#X connect 0 1 1 0;
#X connect 1 1 4 0;
#X connect 2 0 0 0;
#X connect 4 0 3 0;
#X connect 6 0 7 0;
#X connect 7 0 1 1;
#X restore 39 238 pd CHANGE_SYMBOL;
#X text 38 19 ** ASSIGN IMAGES TO EACH BUFFER SLOT;
#X obj 136 170 == 3;
#X connect 0 0 4 0;
#X connect 0 1 5 0;
#X connect 1 0 2 0;
#X connect 2 0 6 0;
#X connect 3 0 0 0;
#X connect 4 0 11 0;
#X connect 5 0 13 0;
#X connect 5 1 9 0;
#X connect 9 0 1 1;
#X connect 11 0 1 0;
#X connect 13 0 4 1;
#X restore 249 121 pd OPEN_3;
#N canvas 101 178 490 404 OPEN_4 0;
#X obj 39 105 unpack s f;
#X obj 39 272 pack s f;
#X msg 39 306 open \$1 \$2;
#X obj 39 61 inlet;
#X obj 39 194 spigot;
#X obj 136 136 t f f;
#X obj 39 350 outlet;
#X text 215 239 FILTER REPEATS;
#X text 193 171 FILTER BY SLOT IN BUFFER;
#X obj 183 204 - 1;
#X text 229 204 ADJUST INDEX TO BUFFER;
#N canvas 215 320 351 280 CHANGE_SYMBOL 0;
#X obj 49 117 t s s;
#X obj 49 154 sel s;
#X obj 49 70 inlet;
#X obj 96 228 outlet;
#X obj 96 184 symbol;
#X text 59 19 ** [change] SYMBOL;
#X obj 179 70 inlet RESET;
#X msg 179 99 symbol none;
#X connect 0 0 1 1;
#X connect 0 1 1 0;
#X connect 1 1 4 0;
#X connect 2 0 0 0;
#X connect 4 0 3 0;
#X connect 6 0 7 0;
#X connect 7 0 1 1;
#X restore 39 238 pd CHANGE_SYMBOL;
#X text 38 19 ** ASSIGN IMAGES TO EACH BUFFER SLOT;
#X obj 136 170 == 4;
#X connect 0 0 4 0;
#X connect 0 1 5 0;
#X connect 1 0 2 0;
#X connect 2 0 6 0;
#X connect 3 0 0 0;
#X connect 4 0 11 0;
#X connect 5 0 13 0;
#X connect 5 1 9 0;
#X connect 9 0 1 1;
#X connect 11 0 1 0;
#X connect 13 0 4 1;
#X restore 353 121 pd OPEN_4;
#N canvas 101 178 485 404 OPEN_5 0;
#X obj 39 105 unpack s f;
#X obj 39 272 pack s f;
#X msg 39 306 open \$1 \$2;
#X obj 39 61 inlet;
#X obj 39 194 spigot;
#X obj 136 136 t f f;
#X obj 39 350 outlet;
#X text 215 239 FILTER REPETITIONS;
#X text 193 171 FILTER BY SLOT IN BUFFER;
#X obj 183 204 - 1;
#X text 229 204 ADJUST INDEX TO BUFFER;
#N canvas 215 348 351 280 CHANGE_SYMBOL 0;
#X obj 49 117 t s s;
#X obj 49 154 sel s;
#X obj 49 70 inlet;
#X obj 96 228 outlet;
#X obj 96 184 symbol;
#X text 59 19 ** [change] SYMBOL;
#X obj 179 70 inlet RESET;
#X msg 179 99 symbol none;
#X connect 0 0 1 1;
#X connect 0 1 1 0;
#X connect 1 1 4 0;
#X connect 2 0 0 0;
#X connect 4 0 3 0;
#X connect 6 0 7 0;
#X connect 7 0 1 1;
#X restore 39 238 pd CHANGE_SYMBOL;
#X text 38 19 ** ASSIGN IMAGES TO EACH BUFFER SLOT;
#X obj 136 170 == 5;
#X connect 0 0 4 0;
#X connect 0 1 5 0;
#X connect 1 0 2 0;
#X connect 2 0 6 0;
#X connect 3 0 0 0;
#X connect 4 0 11 0;
#X connect 5 0 13 0;
#X connect 5 1 9 0;
#X connect 9 0 1 1;
#X connect 11 0 1 0;
#X connect 13 0 4 1;
#X restore 457 121 pd OPEN_5;
#N canvas 101 178 489 404 OPEN_6 0;
#X obj 39 105 unpack s f;
#X obj 39 272 pack s f;
#X msg 39 306 open \$1 \$2;
#X obj 39 61 inlet;
#X obj 39 194 spigot;
#X obj 136 136 t f f;
#X obj 39 350 outlet;
#X text 215 239 FILTER REPETITIONS;
#X text 193 171 FILTER BY SLOT IN BUFFER;
#X obj 183 204 - 1;
#X text 229 204 ADJUST INDEX TO BUFFER;
#N canvas 215 320 351 280 CHANGE_SYMBOL 0;
#X obj 49 117 t s s;
#X obj 49 154 sel s;
#X obj 49 70 inlet;
#X obj 96 228 outlet;
#X obj 96 184 symbol;
#X text 59 19 ** [change] SYMBOL;
#X obj 179 70 inlet RESET;
#X msg 179 99 symbol none;
#X connect 0 0 1 1;
#X connect 0 1 1 0;
#X connect 1 1 4 0;
#X connect 2 0 0 0;
#X connect 4 0 3 0;
#X connect 6 0 7 0;
#X connect 7 0 1 1;
#X restore 39 238 pd CHANGE_SYMBOL;
#X text 38 19 ** ASSIGN IMAGES TO EACH BUFFER SLOT;
#X obj 136 170 == 6;
#X connect 0 0 4 0;
#X connect 0 1 5 0;
#X connect 1 0 2 0;
#X connect 2 0 6 0;
#X connect 3 0 0 0;
#X connect 4 0 11 0;
#X connect 5 0 13 0;
#X connect 5 1 9 0;
#X connect 9 0 1 1;
#X connect 11 0 1 0;
#X connect 13 0 4 1;
#X restore 561 121 pd OPEN_6;
#N canvas 101 178 489 404 OPEN_7 0;
#X obj 39 105 unpack s f;
#X obj 39 272 pack s f;
#X msg 39 306 open \$1 \$2;
#X obj 39 61 inlet;
#X obj 39 194 spigot;
#X obj 136 136 t f f;
#X obj 39 350 outlet;
#X text 215 239 FILTER REPEATS;
#X text 193 171 FILTER BY SLOT IN BUFFER;
#X obj 183 204 - 1;
#X text 229 204 ADJUST INDEX TO BUFFER;
#N canvas 215 320 351 280 CHANGE_SYMBOL 0;
#X obj 49 117 t s s;
#X obj 49 154 sel s;
#X obj 49 70 inlet;
#X obj 96 228 outlet;
#X obj 96 184 symbol;
#X text 59 19 ** [change] SYMBOL;
#X obj 179 70 inlet RESET;
#X msg 179 99 symbol none;
#X connect 0 0 1 1;
#X connect 0 1 1 0;
#X connect 1 1 4 0;
#X connect 2 0 0 0;
#X connect 4 0 3 0;
#X connect 6 0 7 0;
#X connect 7 0 1 1;
#X restore 39 238 pd CHANGE_SYMBOL;
#X text 38 19 ** ASSIGN IMAGES TO EACH BUFFER SLOT;
#X obj 136 170 == 7;
#X connect 0 0 4 0;
#X connect 0 1 5 0;
#X connect 1 0 2 0;
#X connect 2 0 6 0;
#X connect 3 0 0 0;
#X connect 4 0 11 0;
#X connect 5 0 13 0;
#X connect 5 1 9 0;
#X connect 9 0 1 1;
#X connect 11 0 1 0;
#X connect 13 0 4 1;
#X restore 665 121 pd OPEN_7;
#N canvas 101 178 491 404 OPEN_8 0;
#X obj 39 105 unpack s f;
#X obj 39 272 pack s f;
#X msg 39 306 open \$1 \$2;
#X obj 39 61 inlet;
#X obj 39 194 spigot;
#X obj 136 136 t f f;
#X obj 39 350 outlet;
#X text 215 239 FILTER REPEATS;
#X text 193 171 FILTER BY SLOT IN BUFFER;
#X obj 183 204 - 1;
#X text 229 204 ADJUST INDEX TO BUFFER;
#N canvas 215 320 351 280 CHANGE_SYMBOL 0;
#X obj 49 117 t s s;
#X obj 49 154 sel s;
#X obj 49 70 inlet;
#X obj 96 228 outlet;
#X obj 96 184 symbol;
#X text 59 19 ** [change] SYMBOL;
#X obj 179 70 inlet RESET;
#X msg 179 99 symbol none;
#X connect 0 0 1 1;
#X connect 0 1 1 0;
#X connect 1 1 4 0;
#X connect 2 0 0 0;
#X connect 4 0 3 0;
#X connect 6 0 7 0;
#X connect 7 0 1 1;
#X restore 39 238 pd CHANGE_SYMBOL;
#X text 38 19 ** ASSIGN IMAGES TO EACH BUFFER SLOT;
#X obj 136 170 == 8;
#X connect 0 0 4 0;
#X connect 0 1 5 0;
#X connect 1 0 2 0;
#X connect 2 0 6 0;
#X connect 3 0 0 0;
#X connect 4 0 11 0;
#X connect 5 0 13 0;
#X connect 5 1 9 0;
#X connect 9 0 1 1;
#X connect 11 0 1 0;
#X connect 13 0 4 1;
#X restore 769 121 pd OPEN_8;
#X obj 41 175 pix_buffer \$0_buffer 8;
#X text 215 20 ** ASSIGNS IMAGES TO LOCAL BUFFER SLOTS;
#X connect 0 0 3 0;
#X connect 1 0 11 0;
#X connect 3 0 1 0;
#X connect 3 1 4 0;
#X connect 3 2 5 0;
#X connect 3 3 6 0;
#X connect 3 4 7 0;
#X connect 3 5 8 0;
#X connect 3 6 9 0;
#X connect 3 7 10 0;
#X connect 4 0 11 0;
#X connect 5 0 11 0;
#X connect 6 0 11 0;
#X connect 7 0 11 0;
#X connect 8 0 11 0;
#X connect 9 0 11 0;
#X connect 10 0 11 0;
#X restore 702 210 pd IMAGE_BUFFER;
#X text 700 239 LOCAL BUFFER TO IMAGES;
#X text 450 430 COMMUNICATE WITH 2nd INSTANCE - RENDER STATE AND FILE/SLOT
, f 43;
#X obj 250 200 unpack s f;
#X obj 635 176 t a a a;
#X text 535 80 RECEIVE FILE/SLOT;
#X text 363 201 ACTIVE SLOT;
#X text 391 234 ADJUST TO BUFFER READING, f 19;
#X obj 48 80 r \$0-render;
#X obj 454 322 r \$0-render;
#X obj 360 148 s \$0-render;
#X text 375 14 ** IMAGE UNIT;
#X text 46 51 RENDER TO PREVIEW WINDOW;
#N canvas 157 275 409 262 TRANSLATE 0;
#X obj 39 36 loadbang;
#X obj 39 72 f \$1;
#X obj 39 204 outlet;
#X obj 39 109 sel 1 2 3 4;
#X text 158 25 ** Y-AXIS TRANSLATION ACCORDING TO LAYER, f 21;
#X msg 39 146 -3;
#X msg 90 146 -1;
#X msg 141 146 1;
#X msg 192 146 3;
#X connect 0 0 1 0;
#X connect 1 0 3 0;
#X connect 3 0 5 0;
#X connect 3 1 6 0;
#X connect 3 2 7 0;
#X connect 3 3 8 0;
#X connect 5 0 2 0;
#X connect 6 0 2 0;
#X connect 7 0 2 0;
#X connect 8 0 2 0;
#X restore 166 396 pd TRANSLATE;
#X connect 1 0 3 0;
#X connect 2 0 20 0;
#X connect 3 0 4 0;
#X connect 4 0 0 0;
#X connect 5 0 6 0;
#X connect 6 0 31 0;
#X connect 7 0 2 0;
#X connect 8 0 19 0;
#X connect 9 0 19 0;
#X connect 10 0 11 0;
#X connect 11 0 1 0;
#X connect 12 0 17 0;
#X connect 14 0 1 0;
#X connect 15 0 0 1;
#X connect 15 1 0 2;
#X connect 17 1 25 0;
#X connect 18 0 20 1;
#X connect 20 0 14 0;
#X connect 24 1 18 0;
#X connect 25 0 24 0;
#X connect 25 1 8 0;
#X connect 25 2 21 0;
#X connect 29 0 7 0;
#X connect 30 0 9 0;
#X connect 34 0 3 2;
#X restore 280 98 pd IMAGE_UNIT;
#N canvas 156 242 652 270 CHANNEL_COLOR 0;
#X obj 47 71 f \$1;
#X obj 47 107 sel 1 2 3 4;
#X msg 47 144 13;
#X msg 196 144 16;
#X msg 97 144 15;
#X obj 47 35 loadbang;
#X msg 265 144 28;
#X msg 147 144 19;
#X obj 47 209 s \$0-channelColor;
#X obj 265 209 s \$0-bgColor;
#X text 173 24 ** SETS UP THE DEFAULT COLOR OF THE CHANNEL;
#X connect 0 0 1 0;
#X connect 1 0 2 0;
#X connect 1 1 4 0;
#X connect 1 2 7 0;
#X connect 1 3 3 0;
#X connect 2 0 8 0;
#X connect 3 0 8 0;
#X connect 4 0 8 0;
#X connect 5 0 0 0;
#X connect 5 0 6 0;
#X connect 6 0 9 0;
#X connect 7 0 8 0;
#X restore 280 166 pd CHANNEL_COLOR;
#N canvas 95 188 692 141 select_slot 0;
#X msg 500 53 color \$1;
#X obj 500 21 r \$0-bgColor;
#X obj 105 53 bng 15 250 50 0 \$0-clickSlot1 \$0-clickSlot1_set empty
17 7 0 10 #fcfcfc #000000 #000000;
#X obj 125 53 bng 15 250 50 0 \$0-clickSlot2 \$0-clickSlot2_set empty
17 7 0 10 #fcfcfc #000000 #000000;
#X obj 145 53 bng 15 250 50 0 \$0-clickSlot3 \$0-clickSlot3_set empty
17 7 0 10 #fcfcfc #000000 #000000;
#X obj 165 53 bng 15 250 50 0 \$0-clickSlot4 \$0-clickSlot4_set empty
17 7 0 10 #fcfcfc #000000 #000000;
#X obj 185 53 bng 15 250 50 0 \$0-clickSlot5 \$0-clickSlot5_set empty
17 7 0 10 #fcfcfc #000000 #000000;
#X obj 205 53 bng 15 250 50 0 \$0-clickSlot6 \$0-clickSlot6_set empty
17 7 0 10 #fcfcfc #000000 #000000;
#X obj 225 53 bng 15 250 50 0 \$0-clickSlot7 \$0-clickSlot7_set empty
17 7 0 10 #fcfcfc #000000 #000000;
#X obj 245 53 bng 15 250 50 0 \$0-clickSlot8 \$0-clickSlot8_set empty
17 7 0 10 #fcfcfc #000000 #000000;
#X obj 100 50 cnv 15 165 21 empty \$0-slotsBG empty 20 12 0 14 #001488
#fcfcfc 0;
#X obj 105 53 cnv 15 15 15 empty \$0-colorSlot1 1 4 8 0 12 #14e814
#000000 0;
#X obj 125 53 cnv 15 15 15 empty \$0-colorSlot2 2 4 8 0 12 #fcfcfc
#000000 0;
#X obj 145 53 cnv 15 15 15 empty \$0-colorSlot3 3 4 8 0 12 #fcfcfc
#000000 0;
#X obj 165 53 cnv 15 15 15 empty \$0-colorSlot4 4 4 8 0 12 #fcfcfc
#000000 0;
#X obj 185 53 cnv 15 15 15 empty \$0-colorSlot5 5 4 8 0 12 #fcfcfc
#000000 0;
#X obj 205 53 cnv 15 15 15 empty \$0-colorSlot6 6 4 8 0 12 #fcfcfc
#000000 0;
#X obj 225 53 cnv 15 15 15 empty \$0-colorSlot7 7 4 8 0 12 #fcfcfc
#000000 0;
#X obj 245 53 cnv 15 15 15 empty \$0-colorSlot8 8 4 8 0 12 #fcfcfc
#000000 0;
#N canvas 106 189 411 349 BROWSE_FILE 0;
#X text 210 274 SEND TO SLOTS;
#X text 50 21 ** RECALLS WINDOW FOR FILE OPENING FROM INTERFACE, f
30;
#X obj 44 116 t b;
#X obj 44 227 openpanel;
#X obj 44 274 s \$0-slotFileIn;
#X obj 44 91 r \$0-openBrowser;
#X obj 44 166 pdcontrol;
#X msg 44 141 dir;
#X obj 44 191 makefilename %s/../Images;
#X connect 2 0 7 0;
#X connect 3 0 4 0;
#X connect 5 0 2 0;
#X connect 6 0 8 0;
#X connect 7 0 6 0;
#X connect 8 0 3 0;
#X restore 304 53 pd BROWSE_FILE;
#N canvas 218 122 663 329 FILE_DISPLAY 0;
#X msg 221 226 label \$1;
#X msg 47 226 color \$1;
#X obj 434 197 loadbang;
#X obj 221 197 arrast_namecut 22;
#X obj 144 66 r \$0-activeFile;
#X obj 144 130 sel none;
#X obj 47 197 r \$0-bgColor;
#X text 238 133 FILTER EMPTY SLOTS;
#X text 44 169 BACKGROUND COLOR;
#X text 308 67 RECEIVE ACTIVE FILE;
#X text 48 21 ** MANAGE CONTENT DISPLAYED IN THE FILENAME VIEWER;
#X obj 144 98 unpack s f;
#X msg 434 226 label OPEN_IMAGE;
#X obj 221 272 s \$0-fileDisplay;
#X connect 0 0 13 0;
#X connect 1 0 13 0;
#X connect 2 0 12 0;
#X connect 3 0 0 0;
#X connect 4 0 11 0;
#X connect 5 0 12 0;
#X connect 5 1 3 0;
#X connect 6 0 1 0;
#X connect 11 0 5 0;
#X connect 12 0 13 0;
#X restore 304 84 pd FILE_DISPLAY;
#N canvas 37 128 1253 455 ACTIVE_SLOT 0;
#X msg 18 271 1;
#X msg 188 271 2;
#X msg 358 271 3;
#X msg 528 271 4;
#X msg 698 271 5;
#X msg 868 271 6;
#X msg 1038 271 7;
#X msg 1208 271 8;
#X obj 18 144 loadbang;
#X obj 616 331 f 1;
#X obj 18 173 del 5;
#X obj 616 89 r \$0-flushActiveSlot;
#X obj 616 391 s \$0-activeSlot;
#X text 830 90 REFRESCH ACTIVE SLOT;
#X obj 696 133 r \$0-activeSlot_gui_set;
#X text 941 133 RECEIVES FROM PRESETS AND AUTOMATION MANAGER;
#X obj 616 206 int;
#X text 186 212 CLICKS ON SLOT SELECTOR;
#X obj 1208 240 r \$0-clickSlot8;
#X obj 1038 240 r \$0-clickSlot7;
#X obj 868 240 r \$0-clickSlot6;
#X obj 698 240 r \$0-clickSlot5;
#X obj 528 240 r \$0-clickSlot4;
#X obj 358 240 r \$0-clickSlot3;
#X obj 188 240 r \$0-clickSlot2;
#X obj 18 240 r \$0-clickSlot1;
#X obj 616 123 t b;
#X obj 616 55 r REFRESH_ACTIVE_SLOT;
#X text 211 14 ** MANAGE ACTIVE SLOT CHANGE FROM INTERFACE \, PRESETS
E CONTROLE EXTERNO OSC, f 80;
#X obj 374 89 r \$0-externalControl;
#X text 371 61 EXTERNAL CONTROL;
#X obj 374 123 route activeSlot;
#X obj 616 177 clip 1 8;
#X connect 0 0 9 0;
#X connect 1 0 9 0;
#X connect 2 0 9 0;
#X connect 3 0 9 0;
#X connect 4 0 9 0;
#X connect 5 0 9 0;
#X connect 6 0 9 0;
#X connect 7 0 9 0;
#X connect 8 0 10 0;
#X connect 9 0 12 0;
#X connect 10 0 0 0;
#X connect 11 0 26 0;
#X connect 14 0 32 0;
#X connect 16 0 9 0;
#X connect 18 0 7 0;
#X connect 19 0 6 0;
#X connect 20 0 5 0;
#X connect 21 0 4 0;
#X connect 22 0 3 0;
#X connect 23 0 2 0;
#X connect 24 0 1 0;
#X connect 25 0 0 0;
#X connect 26 0 9 0;
#X connect 27 0 26 0;
#X connect 29 0 31 0;
#X connect 31 0 32 0;
#X connect 32 0 16 0;
#X restore 304 22 pd ACTIVE_SLOT;
#X obj 500 84 s \$0-slotsBG;
#X connect 0 0 22 0;
#X connect 1 0 0 0;
#X coords 0 -1 1 1 165 21 2 100 50;
#X restore 60 79 pd select_slot;
#N canvas 41 122 589 377 CONTROL_MEMORY 0;
#N canvas 147 106 1032 485 PRESET_MANAGER 0;
#X obj 42 346 list trim;
#X obj 42 67 r CH\$1_FLUSH;
#X obj 42 393 s CH\$1_PRESET;
#X obj 89 132 s \$0-slotFlush;
#X obj 72 280 r \$0-slotList;
#X text 218 279 RECEIVE DATA FROM SLOTS;
#X text 39 422 SEND TO GLOBAL MANAGER OF PRESETS;
#X obj 541 67 r MAIN_PRESET_SEND;
#X obj 588 204 route \$1;
#X obj 541 100 t b a;
#X obj 541 160 s \$0-flushActiveSlot;
#X text 684 204 ROUTE BY CHANNEL;
#X text 736 64 RECEIVE MEMORY FROM GLOBAL PRESET, f 17;
#X text 755 160 REFRESH CURRENT SLOT;
#X text 245 132 ASK DATA FROM SLOTS;
#X obj 42 313 list prepend image;
#X obj 588 234 route image;
#X obj 69 176 r \$0-activeSlot;
#X obj 42 205 f;
#X obj 42 234 list prepend activeSlot;
#X text 236 176 ACTIVE SLOT MEMORY IN UNIT, f 21;
#X obj 588 264 route activeSlot;
#X obj 42 100 t b b;
#X obj 541 132 del 5;
#X obj 792 334 s \$0-slotFilePreset;
#X text 789 363 SEND DATA TO SLOTS;
#X text 558 425 SEND ACTIVE SLOT;
#X obj 561 362 f;
#X obj 745 298 t b a;
#X obj 561 396 s \$0-activeSlot_gui_set;
#X text 164 19 ** MANAGES COMMUNICATION BETWEEN SLOTS AND GLOBAL MANAGER
OF PRESETS, f 68;
#X connect 0 0 2 0;
#X connect 1 0 22 0;
#X connect 4 0 15 0;
#X connect 7 0 9 0;
#X connect 8 0 16 0;
#X connect 9 0 23 0;
#X connect 9 1 8 0;
#X connect 15 0 0 0;
#X connect 16 0 21 0;
#X connect 17 0 18 1;
#X connect 18 0 19 0;
#X connect 19 0 15 0;
#X connect 21 0 27 1;
#X connect 21 1 28 0;
#X connect 22 0 18 0;
#X connect 22 1 3 0;
#X connect 23 0 10 0;
#X connect 27 0 29 0;
#X connect 28 0 27 0;
#X connect 28 1 24 0;
#X restore 327 84 pd PRESET_MANAGER;
#X text 196 17 ** LOCAL MEMORY;
#X text 47 56 LOCAL MEMORY SLOTS;
#X obj 48 84 arrast_imageslot \$0 \$1 1;
#N canvas 169 217 534 308 SEND_ACTIVE_SLOT 0;
#X obj 45 94 r \$0-activeSlot;
#X obj 45 207 spigot;
#X obj 45 178 f;
#X obj 102 154 t b f;
#X obj 45 246 s I\$1_ACTIVE_SLOT;
#X obj 295 118 s C\$1_ACTIVE_SLOT;
#X text 120 207 ONLY IF IMAGE MODULE IS ACTIVE;
#X obj 102 125 r \$0-render;
#X text 68 22 ** SENDS ACTIVE SLOT IN VIDEO MODULE TO TRANSFORM AND
EFFECTS MODULES, f 39;
#X text 293 146 SEND DIRECTLY TO CAMERA UNIT, f 16;
#X connect 0 0 2 0;
#X connect 0 0 5 0;
#X connect 1 0 4 0;
#X connect 2 0 1 0;
#X connect 3 0 2 0;
#X connect 3 1 1 1;
#X connect 7 0 3 0;
#X restore 327 152 pd SEND_ACTIVE_SLOT;
#N canvas 184 218 502 275 AUTOMATION_MANAGER 0;
#X text 309 190 ACTIVE SLOT;
#X text 169 110 BUTTON TO ENABLE UNIT;
#X text 44 20 ** LOCAL MANAGEMENT OF AUTOMATION MEMORY;
#X obj 49 102 r I\$1_ST;
#X obj 49 170 s I\$1_SET_ST;
#X text 47 70 AUTOMATION UNITS BY PARAMETER;
#X obj 49 136 arrast_automato \$0 enableButton \$1 0 18;
#X obj 49 216 arrast_automato \$0 activeSlot \$1 0 19;
#X connect 3 0 6 0;
#X connect 6 0 4 0;
#X restore 327 118 pd AUTOMATION_MANAGER;
#X obj 48 118 arrast_imageslot \$0 \$1 2;
#X obj 48 152 arrast_imageslot \$0 \$1 3;
#X obj 48 186 arrast_imageslot \$0 \$1 4;
#X obj 48 220 arrast_imageslot \$0 \$1 5;
#X obj 48 254 arrast_imageslot \$0 \$1 6;
#X obj 48 288 arrast_imageslot \$0 \$1 7;
#X obj 48 322 arrast_imageslot \$0 \$1 8;
#X restore 280 64 pd CONTROL_MEMORY;
#N canvas 193 215 525 293 EXTERNAL_CONTROL 0;
#X text 213 137 FILTER BY CHANNEL;
#X text 174 170 FILTER BY MODULE;
#X obj 48 234 s \$0-externalControl;
#X text 265 235 SEND CONTROLS LOCALLY;
#X obj 48 136 route channel\$1;
#X obj 48 72 r OSC_BUS;
#X text 43 19 ** EXTERNAL CONTROL ROUTER VIA OSC MESSAGES;
#X text 153 69 RECEIVE UNPACKAGED OSC FROM PARENT PATCH, f 29;
#X obj 48 170 route image;
#X connect 4 0 8 0;
#X connect 5 0 4 0;
#X connect 8 0 2 0;
#X restore 280 30 pd EXTERNAL_CONTROL;
#X coords 0 -1 1 1 185 80 2 50 30;
