#N canvas 441 248 534 425 10;
#X obj 100 100 cnv 15 150 65 empty empty empty 20 12 0 14 -191407 -66577
0;
#X obj 102 62 pix_rgba;
#X obj 102 291 pix_alpha;
#X obj 111 108 hsl 128 12 0 1 0 0 empty empty empty -2 -8 0 10 -204800
-1 -1 12700 1;
#X obj 111 120 hsl 128 12 0 1 0 0 empty empty empty -2 -8 0 10 -4032
-1 -1 0 1;
#X msg 369 274 \$1 \$1 \$1;
#X obj 369 252 line;
#X obj 369 233 pack 0 200;
#X msg 279 274 \$1 \$1 \$1;
#X obj 111 137 hsl 128 10 0 1 0 0 empty empty empty -2 -8 0 10 -262144
-1 -1 12700 1;
#X obj 279 252 line;
#X obj 279 233 pack 0 200;
#X obj 102 320 alpha;
#X obj 102 10 inlet gemlist;
#X obj 185 252 line;
#X obj 185 233 pack 0 200;
#X obj 114 252 line;
#X obj 114 233 pack 0 200;
#X floatatom 270 123 5 0 0 0 - - -;
#X obj 111 147 hsl 128 10 0 1 0 0 empty empty empty -2 -8 0 10 -1 -262144
-1 0 1;
#X obj 257 15 inlet controles;
#X obj 336 210 r \$0-suave;
#X obj 171 210 r \$0-suave;
#X obj 270 143 s \$0-suave;
#X obj 257 36 route transp1 transp2 br pr suave;
#X obj 102 381 outlet gemlist;
#X obj 78 286 tgl 15 0 empty empty empty 17 7 0 10 -262144 -1 -1 0
1;
#N canvas 69 54 379 308 cond 0;
#X obj 68 34 inlet;
#X obj 68 255 outlet;
#X obj 130 34 inlet;
#X obj 130 100 t b f;
#X obj 218 34 inlet;
#X obj 280 34 inlet;
#X obj 68 140 +;
#X obj 68 117 f;
#X obj 68 70 != 1;
#X obj 130 70 != 0;
#X obj 280 100 t b f;
#X obj 218 140 +;
#X obj 218 117 f;
#X obj 218 70 != 1;
#X obj 280 70 != 0;
#X obj 218 163 t b f;
#X obj 68 203 +;
#X obj 68 180 f;
#X obj 68 229 != 0;
#X connect 0 0 8 0;
#X connect 2 0 9 0;
#X connect 3 0 7 0;
#X connect 3 1 6 1;
#X connect 4 0 13 0;
#X connect 5 0 14 0;
#X connect 6 0 17 0;
#X connect 7 0 6 0;
#X connect 8 0 7 0;
#X connect 9 0 3 0;
#X connect 10 0 12 0;
#X connect 10 1 11 1;
#X connect 11 0 15 0;
#X connect 12 0 11 0;
#X connect 13 0 12 0;
#X connect 14 0 10 0;
#X connect 15 0 17 0;
#X connect 15 1 16 1;
#X connect 16 0 18 0;
#X connect 17 0 16 0;
#X connect 18 0 1 0;
#X restore 220 269 pd cond;
#X obj 402 94 outlet cascata;
#X obj 35 69 loadbang;
#X msg 35 91 0;
#X msg 65 91 1;
#X obj 102 36 pix_separator;
#X obj 102 349 separator;
#X msg 270 102 10;
#X connect 1 0 2 0;
#X connect 2 0 12 0;
#X connect 3 0 17 0;
#X connect 4 0 15 0;
#X connect 5 0 2 4;
#X connect 6 0 5 0;
#X connect 6 0 27 3;
#X connect 7 0 6 0;
#X connect 8 0 2 3;
#X connect 9 0 11 0;
#X connect 10 0 8 0;
#X connect 10 0 27 2;
#X connect 11 0 10 0;
#X connect 12 0 33 0;
#X connect 13 0 32 0;
#X connect 14 0 2 2;
#X connect 14 0 27 1;
#X connect 15 0 14 0;
#X connect 16 0 2 1;
#X connect 16 0 27 0;
#X connect 17 0 16 0;
#X connect 18 0 23 0;
#X connect 19 0 7 0;
#X connect 20 0 24 0;
#X connect 21 0 7 1;
#X connect 21 0 11 1;
#X connect 22 0 15 1;
#X connect 22 0 17 1;
#X connect 24 0 3 0;
#X connect 24 1 4 0;
#X connect 24 2 9 0;
#X connect 24 3 19 0;
#X connect 24 4 18 0;
#X connect 24 5 28 0;
#X connect 26 0 12 0;
#X connect 26 0 2 0;
#X connect 27 0 26 0;
#X connect 29 0 30 0;
#X connect 29 0 31 0;
#X connect 29 0 34 0;
#X connect 30 0 4 0;
#X connect 30 0 19 0;
#X connect 31 0 3 0;
#X connect 31 0 9 0;
#X connect 32 0 1 0;
#X connect 33 0 25 0;
#X connect 34 0 18 0;
#X coords 0 -1 1 1 150 65 2 100 100;
