#N canvas 32 244 501 227 16;
#X obj 80 60 cnv 15 185 98 empty empty empty 20 12 0 14 -128992 -66577
0;
#X obj 90 85 vsl 12 60 0 1 0 0 \$0-red \$0-red_in empty 0 -9 0 10 -258113
-1 -1 5900 1;
#X obj 103 85 vsl 12 60 0 1 0 0 \$0-green \$0-green_in COR -2 -10 0
10 -4034 -1 -262144 5900 1;
#X obj 116 85 vsl 12 60 0 1 0 0 \$0-blue \$0-blue_in empty 0 -9 0 10
-4160 -1 -1 5900 1;
#X obj 167 84 vsl 12 60 0 1 0 0 \$0-gain \$0-gain_in G 4 -10 0 10 -1
-262144 -262144 1180 1;
#X obj 189 84 vsl 12 60 0 1 0 0 \$0-contrast \$0-contrast_in C 4 -10
0 10 -1 -262144 -262144 1180 1;
#X obj 211 84 vsl 12 60 0 1 0 0 \$0-saturate \$0-saturate_in S 4 -10
0 10 -1 -262144 -262144 1180 1;
#X obj 243 84 vsl 12 60 0 1 0 0 \$0-motionblur \$0-motionblur_in DM
0 -10 0 10 -1 -262144 -262144 0 1;
#X obj 132 83 bng 12 250 50 0 \$0-reset_rgb \$0-reset_rgb_in empty
17 7 0 10 -262144 -1 -1;
#X obj 180 128 bng 8 250 50 0 \$0-reset_g \$0-reset_g_in empty 17 7
0 10 -262144 -1 -1;
#X obj 202 128 bng 8 250 50 0 \$0-reset_c \$0-reset_c_in empty 17 7
0 10 -262144 -1 -1;
#X obj 224 128 bng 8 250 50 0 \$0-reset_s \$0-reset_s_in empty 17 7
0 10 -262144 -1 -1;
#N canvas 145 177 796 489 links 0;
#X obj 64 374 list prepend FX\$1;
#X obj 64 414 s CANAL_FX;
#X obj 64 49 r \$0-red;
#X obj 264 49 r \$0-green;
#X obj 514 49 r \$0-blue;
#X obj 64 80 list prepend red;
#X obj 264 80 list prepend green;
#X obj 514 80 list prepend blue;
#X obj 64 239 r \$0-gain;
#X obj 64 270 list prepend gain;
#X obj 264 239 r \$0-contrast;
#X obj 264 270 list prepend contrast;
#X obj 514 239 r \$0-saturate;
#X obj 514 270 list prepend saturate;
#X obj 264 317 r \$0-color_inv;
#X obj 264 349 list prepend color_inv;
#X obj 514 318 r \$0-motionblur;
#X obj 514 349 list prepend motionblur;
#X obj 64 134 list prepend T\$1;
#X obj 64 174 s CANAL_T;
#X connect 0 0 1 0;
#X connect 2 0 5 0;
#X connect 3 0 6 0;
#X connect 4 0 7 0;
#X connect 5 0 18 0;
#X connect 6 0 18 0;
#X connect 7 0 18 0;
#X connect 8 0 9 0;
#X connect 9 0 0 0;
#X connect 10 0 11 0;
#X connect 11 0 0 0;
#X connect 12 0 13 0;
#X connect 13 0 0 0;
#X connect 14 0 15 0;
#X connect 15 0 0 0;
#X connect 16 0 17 0;
#X connect 17 0 0 0;
#X connect 18 0 19 0;
#X restore 333 117 pd links;
#N canvas 42 291 689 292 init 0;
#X obj 68 49 loadbang;
#X msg 68 95 1;
#X msg 448 95 0;
#X msg 248 95 0.2;
#X obj 68 139 s \$0-red_in;
#X obj 68 169 s \$0-green_in;
#X obj 68 199 s \$0-blue_in;
#X obj 248 139 s \$0-gain_in;
#X obj 248 169 s \$0-contrast_in;
#X obj 248 199 s \$0-saturate_in;
#X obj 448 139 s \$0-motionblur_in;
#X obj 448 169 s \$0-color_inv_in;
#X connect 0 0 1 0;
#X connect 0 0 3 0;
#X connect 0 0 2 0;
#X connect 1 0 4 0;
#X connect 1 0 5 0;
#X connect 1 0 6 0;
#X connect 2 0 10 0;
#X connect 2 0 11 0;
#X connect 3 0 7 0;
#X connect 3 0 8 0;
#X connect 3 0 9 0;
#X restore 333 47 pd init;
#X obj 227 83 bng 12 250 50 0 \$0-reset_fx \$0-reset_fx_in empty 17
7 0 10 -262144 -1 -1;
#X obj 138 129 tgl 18 0 \$0-color_inv \$0-color_inv_in INV 1 -7 0 10
-1 -262144 -262144 0 1;
#N canvas 63 89 652 581 mem 0;
#N canvas 570 204 314 499 flush_mem 0;
#X obj 51 39 r CH\$1_FLUSH;
#X obj 51 422 s CH\$1_PRESET;
#X obj 88 206 f;
#X obj 127 206 + 1;
#X msg 115 177 0;
#X obj 88 146 until;
#X obj 218 271 list;
#X obj 51 301 list;
#X obj 51 69 t b b b b;
#X obj 88 271 list prepend;
#X obj 51 381 list trim;
#X msg 88 113 8;
#X obj 88 236 tabread \$0-fx_mem;
#X obj 51 342 list prepend fx;
#X connect 0 0 8 0;
#X connect 2 0 3 0;
#X connect 2 0 12 0;
#X connect 3 0 2 1;
#X connect 4 0 2 1;
#X connect 5 0 2 0;
#X connect 6 0 9 1;
#X connect 7 0 13 0;
#X connect 8 0 7 0;
#X connect 8 1 11 0;
#X connect 8 2 4 0;
#X connect 8 3 9 1;
#X connect 9 0 6 0;
#X connect 9 0 7 1;
#X connect 10 0 1 0;
#X connect 11 0 5 0;
#X connect 12 0 9 0;
#X connect 13 0 10 0;
#X restore 106 397 pd flush_mem;
#N canvas 2 53 450 300 (subpatch) 0;
#X array \$0-fx_mem 8 float 2;
#X coords 0 2 8 -1 200 140 1 0 0;
#X restore 373 403 graph;
#X obj 55 75 arrast_2tab 0 \$0-fx_mem;
#X obj 55 155 arrast_2tab 1 \$0-fx_mem;
#X obj 55 235 arrast_2tab 2 \$0-fx_mem;
#X obj 55 315 arrast_2tab 3 \$0-fx_mem;
#X obj 355 75 arrast_2tab 4 \$0-fx_mem;
#X obj 355 155 arrast_2tab 5 \$0-fx_mem;
#X obj 355 235 arrast_2tab 6 \$0-fx_mem;
#X obj 355 315 arrast_2tab 7 \$0-fx_mem;
#X obj 55 42 r \$0-red;
#X obj 55 122 r \$0-green;
#X obj 55 202 r \$0-blue;
#X obj 55 282 r \$0-gain;
#X obj 355 42 r \$0-contrast;
#X obj 355 122 r \$0-saturate;
#X obj 355 202 r \$0-color_inv;
#X obj 355 282 r \$0-motionblur;
#N canvas 332 257 688 305 receive_preset 0;
#X obj 55 33 r MAIN_PRESET_SEND;
#X obj 55 73 route \$1;
#X obj 55 145 list prepend 0;
#X obj 55 179 t b l;
#X obj 55 248 s \$0-mem_flush;
#X obj 284 33 r \$0-mem_flush;
#N canvas 823 250 291 208 mem_0 0;
#X msg 43 72 0;
#X obj 43 32 inlet;
#X obj 43 101 tabread \$0-fx_mem;
#X obj 43 141 s \$0-red_in;
#X connect 0 0 2 0;
#X connect 1 0 0 0;
#X connect 2 0 3 0;
#X restore 284 100 pd mem_0;
#X obj 55 103 route fx;
#X obj 284 63 t b b b b b b b b;
#N canvas 823 250 291 208 mem_1 0;
#X obj 43 32 inlet;
#X obj 43 101 tabread \$0-fx_mem;
#X msg 43 72 1;
#X obj 43 141 s \$0-green_in;
#X connect 0 0 2 0;
#X connect 1 0 3 0;
#X connect 2 0 1 0;
#X restore 374 100 pd mem_1;
#N canvas 823 250 291 208 mem_2 0;
#X obj 43 32 inlet;
#X obj 43 101 tabread \$0-fx_mem;
#X msg 43 72 2;
#X obj 43 141 s \$0-blue_in;
#X connect 0 0 2 0;
#X connect 1 0 3 0;
#X connect 2 0 1 0;
#X restore 464 100 pd mem_2;
#N canvas 822 278 291 208 mem_3 0;
#X obj 43 32 inlet;
#X obj 43 101 tabread \$0-fx_mem;
#X msg 43 72 3;
#X obj 43 141 s \$0-gain_in;
#X connect 0 0 2 0;
#X connect 1 0 3 0;
#X connect 2 0 1 0;
#X restore 554 100 pd mem_3;
#N canvas 823 250 291 208 mem_4 0;
#X obj 43 32 inlet;
#X obj 43 101 tabread \$0-fx_mem;
#X msg 43 72 4;
#X obj 43 141 s \$0-contrast_in;
#X connect 0 0 2 0;
#X connect 1 0 3 0;
#X connect 2 0 1 0;
#X restore 284 130 pd mem_4;
#N canvas 823 250 291 208 mem_5 0;
#X obj 43 32 inlet;
#X obj 43 101 tabread \$0-fx_mem;
#X msg 43 72 5;
#X obj 43 141 s \$0-saturate_in;
#X connect 0 0 2 0;
#X connect 1 0 3 0;
#X connect 2 0 1 0;
#X restore 374 130 pd mem_5;
#N canvas 822 278 291 208 mem_6 0;
#X obj 43 32 inlet;
#X obj 43 101 tabread \$0-fx_mem;
#X msg 43 72 6;
#X obj 43 141 s \$0-color_inv_in;
#X connect 0 0 2 0;
#X connect 1 0 3 0;
#X connect 2 0 1 0;
#X restore 464 130 pd mem_6;
#N canvas 823 250 291 208 mem_7 0;
#X obj 43 32 inlet;
#X obj 43 101 tabread \$0-fx_mem;
#X msg 43 72 7;
#X obj 43 141 s \$0-motionblur_in;
#X connect 0 0 2 0;
#X connect 1 0 3 0;
#X connect 2 0 1 0;
#X restore 554 130 pd mem_7;
#X obj 102 213 s \$0-fx_mem;
#X connect 0 0 1 0;
#X connect 1 0 7 0;
#X connect 2 0 3 0;
#X connect 3 0 4 0;
#X connect 3 1 16 0;
#X connect 5 0 8 0;
#X connect 7 0 2 0;
#X connect 8 0 6 0;
#X connect 8 1 9 0;
#X connect 8 2 10 0;
#X connect 8 3 11 0;
#X connect 8 4 12 0;
#X connect 8 5 13 0;
#X connect 8 6 14 0;
#X connect 8 7 15 0;
#X restore 106 444 pd receive_preset;
#X connect 10 0 2 0;
#X connect 11 0 3 0;
#X connect 12 0 4 0;
#X connect 13 0 5 0;
#X connect 14 0 6 0;
#X connect 15 0 7 0;
#X connect 16 0 8 0;
#X connect 17 0 9 0;
#X restore 333 152 pd mem;
#N canvas 181 210 977 274 reset 0;
#X obj 54 49 r \$0-reset_rgb;
#X msg 54 98 1;
#X msg 233 98 0.2;
#X obj 54 142 s \$0-red_in;
#X obj 54 172 s \$0-green_in;
#X obj 54 202 s \$0-blue_in;
#X obj 233 142 s \$0-gain_in;
#X obj 373 142 s \$0-contrast_in;
#X obj 553 142 s \$0-saturate_in;
#X msg 373 98 0.2;
#X msg 553 98 0.2;
#X obj 233 49 r \$0-reset_g;
#X obj 373 49 r \$0-reset_c;
#X obj 553 49 r \$0-reset_s;
#X obj 743 49 r \$0-reset_fx;
#X obj 743 143 s \$0-motionblur_in;
#X msg 743 98 0;
#X obj 743 173 s \$0-color_inv_in;
#X connect 0 0 1 0;
#X connect 1 0 3 0;
#X connect 1 0 4 0;
#X connect 1 0 5 0;
#X connect 2 0 6 0;
#X connect 9 0 7 0;
#X connect 10 0 8 0;
#X connect 11 0 2 0;
#X connect 12 0 9 0;
#X connect 13 0 10 0;
#X connect 14 0 10 0;
#X connect 14 0 9 0;
#X connect 14 0 2 0;
#X connect 14 0 16 0;
#X connect 16 0 15 0;
#X connect 16 0 17 0;
#X restore 333 82 pd reset;
#X coords 0 -1 1 1 185 98 2 80 60;
