#N canvas 189 100 550 228 16;
#X obj 50 30 cnv 15 185 62 empty empty CAMERA 71 42 0 12 -228856 -66577
0;
#X obj 52 30 hradio 20 1 0 9 \$0-click_enable \$0-click_enable_in empty
0 -8 0 10 -262144 -1 -1 4;
#X obj 50 30 cnv 15 185 20 \$0-enable \$0-enable_in empty 20 12 0 14
-128992 -262144 0;
#N canvas 463 118 644 544 CAMERA 0;
#X obj 55 479 rectangle 4 3;
#X obj 55 244 pix_texture;
#X obj 55 362 translateXYZ 0 0 0;
#X obj 55 406 scale 0.3;
#X obj 55 169 pix_share_read 10 640 480 RGBA;
#X obj 55 290 rotateXYZ 0 0 0;
#X obj 431 26 r CH\$1_SELECT;
#X obj 55 67 tgl 25 0 empty empty empty 17 7 0 10 -262144 -1 -1 0 1
;
#X obj 431 91 s \$0-on;
#X obj 55 26 r \$0-on;
#X obj 431 58 == 3;
#X obj 195 50 list prepend render;
#X obj 195 80 list prepend C\$1;
#X obj 195 110 s CANAL_C;
#X obj 55 116 gemhead \$1;
#N canvas 680 346 339 322 INFO 0;
#X obj 61 33 inlet;
#X obj 61 73 t a a;
#X obj 61 262 outlet;
#X obj 160 129 change;
#X obj 237 129 change;
#X obj 149 98 pix_info;
#X obj 160 190 pack f f;
#X obj 160 220 s \$0-tam;
#X obj 237 157 t b f;
#X connect 0 0 1 0;
#X connect 1 0 2 0;
#X connect 1 1 5 0;
#X connect 3 0 6 0;
#X connect 4 0 8 0;
#X connect 5 1 3 0;
#X connect 5 2 4 0;
#X connect 6 0 7 0;
#X connect 8 0 6 0;
#X connect 8 1 6 1;
#X restore 55 205 pd INFO;
#N canvas 415 298 323 202 TRANS 0;
#X obj 42 33 loadbang;
#X obj 42 61 f \$1;
#X obj 42 145 outlet;
#X obj 42 88 sel 1 2 3 4;
#X msg 42 115 3;
#X msg 73 115 1;
#X msg 103 115 -1;
#X msg 133 115 -3;
#X connect 0 0 1 0;
#X connect 1 0 3 0;
#X connect 3 0 4 0;
#X connect 3 1 5 0;
#X connect 3 2 6 0;
#X connect 3 3 7 0;
#X connect 4 0 2 0;
#X connect 5 0 2 0;
#X connect 6 0 2 0;
#X connect 7 0 2 0;
#X restore 173 333 pd TRANS;
#N canvas 818 204 296 433 RATIO 0;
#X obj 44 375 outlet;
#X obj 163 375 outlet;
#X obj 44 33 r \$0-tam;
#X obj 44 187 unpack f f;
#X obj 44 219 /;
#X obj 44 343 * 3;
#X obj 163 344 * 3;
#X obj 163 288 t b f f;
#X obj 163 33 inlet;
#X floatatom 91 146 5 0 0 0 - - -, f 5;
#X floatatom 188 146 5 0 0 0 - - -, f 5;
#X obj 44 252 pack f 1;
#X obj 91 116 unpack f f;
#X obj 44 280 unpack f f;
#X obj 44 86 t l l;
#X connect 2 0 14 0;
#X connect 3 0 4 0;
#X connect 3 1 4 1;
#X connect 4 0 11 0;
#X connect 5 0 0 0;
#X connect 6 0 1 0;
#X connect 7 0 6 0;
#X connect 7 0 5 0;
#X connect 7 1 5 1;
#X connect 7 2 6 1;
#X connect 8 0 7 0;
#X connect 11 0 13 0;
#X connect 12 0 9 0;
#X connect 12 1 10 0;
#X connect 13 0 5 0;
#X connect 13 1 6 0;
#X connect 14 0 3 0;
#X connect 14 1 12 0;
#X restore 118 449 pd RATIO;
#X text 368 170 LÊ BUFFER COMPARTILHADO;
#X connect 1 0 5 0;
#X connect 2 0 3 0;
#X connect 3 0 0 0;
#X connect 4 0 15 0;
#X connect 5 0 2 0;
#X connect 6 0 10 0;
#X connect 7 0 14 0;
#X connect 9 0 7 0;
#X connect 9 0 11 0;
#X connect 10 0 8 0;
#X connect 11 0 12 0;
#X connect 12 0 13 0;
#X connect 14 0 4 0;
#X connect 15 0 1 0;
#X connect 16 0 2 2;
#X connect 17 0 0 1;
#X connect 17 1 0 2;
#X restore 284 30 pd CAMERA;
#N canvas 626 219 701 275 CHANNEL_COLOR 0;
#X obj 69 71 f \$1;
#X obj 69 107 sel 1 2 3 4;
#X msg 69 144 13;
#X msg 218 144 16;
#X msg 119 144 15;
#X obj 69 35 loadbang;
#X obj 69 209 s \$0-channel_color;
#X obj 279 209 s \$0-bg_color;
#X obj 439 209 s \$0-bg_color2;
#X msg 439 144 1;
#X msg 279 144 28;
#X msg 169 144 19;
#X connect 0 0 1 0;
#X connect 1 0 2 0;
#X connect 1 1 4 0;
#X connect 1 2 11 0;
#X connect 1 3 3 0;
#X connect 2 0 6 0;
#X connect 3 0 6 0;
#X connect 4 0 6 0;
#X connect 5 0 0 0;
#X connect 5 0 10 0;
#X connect 5 0 9 0;
#X connect 9 0 8 0;
#X connect 10 0 7 0;
#X connect 11 0 6 0;
#X restore 284 166 pd CHANNEL_COLOR;
#N canvas 723 232 558 467 ENABLE_BUTTON 0;
#X obj 50 62 t b;
#X obj 50 153 f;
#X obj 90 153 + 1;
#X obj 50 181 % 2;
#X floatatom 50 215 5 0 0 0 - - -, f 5;
#X obj 108 97 loadbang;
#X obj 50 28 r \$0-click_enable;
#N canvas 667 215 447 276 color 0;
#X obj 45 41 inlet;
#X obj 45 96 sel 0 1;
#X obj 45 207 s \$0-enable_in;
#X obj 165 121 f 13;
#X msg 165 158 color \$1 0;
#X msg 45 158 color 11 0;
#X obj 202 89 r \$0-channel_color;
#X connect 0 0 1 0;
#X connect 1 0 5 0;
#X connect 1 1 3 0;
#X connect 3 0 4 0;
#X connect 4 0 2 0;
#X connect 5 0 2 0;
#X connect 6 0 3 1;
#X restore 50 336 pd color;
#X obj 157 273 sel 1;
#X obj 327 28 r CH\$1_SELECT;
#X obj 157 336 s CH\$1_SELECT;
#X msg 374 129 0;
#X obj 327 62 sel 3;
#X msg 62 121 0;
#X obj 307 336 s \$0-on;
#X msg 307 304 0;
#X obj 50 249 t f f f;
#X obj 408 336 s ON_CAM\$1;
#X obj 408 273 t f;
#X obj 157 375 list prepend ch\$1_select;
#X obj 157 405 s CANAL_SEL;
#X msg 157 304 3;
#X obj 208 236 s C\$1_ST;
#X obj 208 129 r C\$1_SET_ST;
#X connect 0 0 1 0;
#X connect 1 0 3 0;
#X connect 2 0 1 1;
#X connect 3 0 2 0;
#X connect 3 0 4 0;
#X connect 4 0 16 0;
#X connect 4 0 22 0;
#X connect 5 0 13 0;
#X connect 6 0 0 0;
#X connect 8 0 21 0;
#X connect 8 1 15 0;
#X connect 9 0 12 0;
#X connect 11 0 1 0;
#X connect 12 1 11 0;
#X connect 13 0 1 0;
#X connect 15 0 14 0;
#X connect 16 0 7 0;
#X connect 16 1 8 0;
#X connect 16 2 18 0;
#X connect 18 0 17 0;
#X connect 19 0 20 0;
#X connect 21 0 10 0;
#X connect 21 0 19 0;
#X connect 23 0 1 0;
#X restore 284 64 pd ENABLE_BUTTON;
#N canvas 448 210 633 273 BYPASS_ACTIVE_SLOT 0;
#X obj 46 97 r C\$1_ACTIVE_SLOT;
#X text 44 26 ** RECEBE SLOT ATIVO DOS MÓDULOS DE VÍDEO E IMAGEM
E ENVIA PARA MÓDULOS DE TRANSFORMAÇÃO E EFEITOS, f 50;
#X obj 103 141 r \$0-on;
#X obj 46 172 spigot;
#X text 121 174 APENAS SE O MÓDULO DA CÂMERA FOR O ATIVO;
#X obj 46 217 s V\$1_ACTIVE_SLOT;
#X text 231 217 USA MESMO CANAL DO VÍDEO PARA ENVIAR;
#X connect 0 0 3 0;
#X connect 2 0 3 1;
#X connect 3 0 5 0;
#X restore 284 132 pd BYPASS_ACTIVE_SLOT;
#N canvas 85 121 489 231 AUTOMATION_MANAGER 0;
#X text 169 110 BOTÃO DE HABILITAR UNIDADE;
#X text 43 20 ** GESTÃO LOCAL DA MEMÓRIA DE AUTOMAÇÕES;
#X obj 49 102 r C\$1_ST;
#X obj 49 170 s C\$1_SET_ST;
#X text 48 67 UNIDADES DE AUTOMAÇÃO POR PARÂMETRO;
#X obj 49 136 arrast_automato \$0 enableButton \$1 0 21;
#X connect 2 0 5 0;
#X connect 5 0 3 0;
#X restore 284 98 pd AUTOMATION_MANAGER;
#X coords 0 -1 1 1 185 62 2 50 30;
