#N canvas 139 153 1127 611 16;
#X obj 614 173 route audio samplerate boost avAmp avLop avHip;
#N canvas 185 192 433 313 INIT_SAMPLERATE 0;
#X obj 38 87 loadbang;
#X obj 38 116 delay 50;
#X obj 38 145 samplerate~;
#X obj 38 264 outlet;
#X obj 38 174 sel 22050 44100 48000 96000;
#X msg 38 203 0;
#X msg 104 203 1;
#X msg 171 203 2;
#X msg 238 203 3;
#X text 134 117 AFTER [arrast_param];
#X text 36 27 ** STARTS SAMPLERATE OF THE PATCH ACCORDING TO SAMPLERATE
CONFIG IN PD, f 36;
#X connect 0 0 1 0;
#X connect 1 0 2 0;
#X connect 2 0 4 0;
#X connect 4 0 5 0;
#X connect 4 1 6 0;
#X connect 4 2 7 0;
#X connect 4 3 8 0;
#X connect 5 0 3 0;
#X connect 6 0 3 0;
#X connect 7 0 3 0;
#X connect 8 0 3 0;
#X restore 564 245 pd INIT_SAMPLERATE;
#N canvas 0 80 1438 636 BRAIN 0;
#X obj 1092 232 del \$3;
#X obj 1149 167 f \$3;
#X obj 1092 133 t b b;
#X obj 404 204 spigot;
#X obj 461 171 == \$3;
#X obj 95 274 sel;
#X obj 122 245 f \$3;
#X obj 122 216 loadbang;
#X obj 1092 363 t s b;
#X obj 1149 196 * 2;
#X obj 658 157 route \$3;
#N canvas 90 152 735 409 SLOT_COLOR 0;
#X obj 52 163 sel;
#X obj 79 195 t b b;
#X obj 368 72 loadbang;
#X obj 368 107 f \$3;
#X obj 373 279 pack \$1 f f;
#X obj 52 66 inlet;
#X obj 480 244 array get \$0-memo 0 1;
#X obj 368 139 t f f f b;
#X obj 52 279 pack \$1 f f;
#X obj 159 244 r \$1-channelColor;
#X text 550 217 SLOT STATE;
#X msg 52 331 \; \$1-colorSlot\$2 color \$3 22;
#X msg 373 331 \; \$1-colorSlot\$2 color \$3 22;
#X text 164 17 ** MANAGES EACH SLOT COLOR IN INTERFACE;
#X connect 0 0 8 0;
#X connect 0 1 1 0;
#X connect 1 0 4 0;
#X connect 1 1 6 0;
#X connect 2 0 3 0;
#X connect 3 0 7 0;
#X connect 4 0 12 0;
#X connect 5 0 0 0;
#X connect 6 0 4 2;
#X connect 7 0 0 1;
#X connect 7 1 8 1;
#X connect 7 2 4 1;
#X connect 7 3 6 0;
#X connect 8 0 11 0;
#X connect 9 0 8 2;
#X restore 28 172 pd SLOT_COLOR;
#X text 1255 459 SLOT;
#X obj 28 96 r \$1-activeSlot;
#X obj 461 138 r \$1-activeSlot;
#X obj 95 408 s \$1-activeFile;
#X obj 404 96 r \$1-slotFileIn;
#X obj 658 96 r \$1-slotFilePreset;
#X obj 1092 96 r \$1-slotFlush;
#X obj 1092 502 s \$1-slotList;
#X obj 1092 323 symbol none;
#X obj 95 323 symbol none;
#X text 135 539 UPDATE CURRENT SLOT WITH MEMORY VALUES;
#X obj 61 538 sel \$3;
#X obj 61 576 s \$0-memo-load;
#X obj 95 352 t s s;
#X obj 275 408 s \$1-audioFile;
#X text 403 67 BROWSER INPUT;
#X text 656 67 PRESET INPUT;
#X obj 275 376 pack s \$3;
#X text 378 377 SEND FILE AND SLOT TO AUDIO SLOTS;
#X obj 404 239 t s s b;
#X msg 471 286 1;
#X obj 1199 387 array get \$0-memo;
#X obj 1092 423 list append;
#X obj 1092 459 list prepend \$3;
#X obj 658 187 list split 1;
#X obj 716 285 array set \$0-memo;
#X text 27 67 SLOT CHANGE;
#X text 517 286 SLOT STATE;
#X text 1205 164 DELAY TO SORT WRITING BY SLOT, f 15;
#X text 1197 362 READ MEMORY;
#X text 1216 323 FILE;
#X text 1089 532 SEND TO MANAGER;
#X text 736 259 WRITE ON MEMORY;
#X obj 471 315 array set \$0-memo 0;
#X obj 658 217 t s s;
#X text 1090 67 OUTPUT TO THE MANAGER OF PRESETS;
#N canvas 229 313 623 364 RESET_SLOT 0;
#X obj 206 239 s \$0-memo-reset;
#X obj 54 186 sel;
#X text 52 63 RECEIVE COMMAND FROM VIDEO UNIT;
#X obj 81 156 f \$3;
#X obj 81 127 loadbang;
#X obj 54 215 t b b;
#X msg 54 264 symbol none;
#X obj 54 303 outlet;
#X text 204 213 RESTART PARAMETERS OF THE CURRENT SLOT;
#X text 144 16 ** ENGINE TO RESTART SLOT VALUES;
#X obj 54 90 r \$1-resetSlot;
#X connect 1 0 5 0;
#X connect 3 0 1 1;
#X connect 4 0 3 0;
#X connect 5 0 6 0;
#X connect 5 1 0 0;
#X connect 6 0 7 0;
#X connect 10 0 1 0;
#X restore 894 96 pd RESET_SLOT;
#X obj 894 125 t s s;
#X text 892 67 RESTART VALUES;
#X obj 28 133 t f f f;
#X obj 95 463 array define \$0-memo 15;
#X text 339 464 LOCAL MEMORY ARRAY - 15 PARAMETERS FOR EACH SLOT;
#X obj 218 96 inlet PATH;
#X text 217 67 EXTERNAL CONTROL;
#X text 237 171 ACTIVE SLOT FILTER;
#X text 217 323 PATH;
#X text 721 218 PATH;
#X obj 218 130 symbol;
#X text 363 18 ** MANAGES EACH SLOT MEMORY \, WITH FILE PATH AND PLAYBACK
PARAMETERS, f 67;
#X connect 0 0 20 0;
#X connect 1 0 9 0;
#X connect 2 0 0 0;
#X connect 2 1 1 0;
#X connect 3 0 31 0;
#X connect 4 0 3 1;
#X connect 5 0 21 0;
#X connect 6 0 5 1;
#X connect 7 0 6 0;
#X connect 8 0 34 0;
#X connect 8 1 33 0;
#X connect 9 0 0 1;
#X connect 10 0 36 0;
#X connect 13 0 51 0;
#X connect 14 0 4 0;
#X connect 16 0 3 0;
#X connect 17 0 10 0;
#X connect 18 0 2 0;
#X connect 20 0 8 0;
#X connect 21 0 25 0;
#X connect 23 0 24 0;
#X connect 25 0 15 0;
#X connect 25 1 29 0;
#X connect 29 0 26 0;
#X connect 31 0 21 0;
#X connect 31 1 20 1;
#X connect 31 2 32 0;
#X connect 32 0 45 0;
#X connect 33 0 34 1;
#X connect 34 0 35 0;
#X connect 35 0 19 0;
#X connect 36 0 46 0;
#X connect 36 1 37 0;
#X connect 46 0 21 1;
#X connect 46 1 20 1;
#X connect 48 0 49 0;
#X connect 49 0 21 0;
#X connect 49 1 20 1;
#X connect 51 0 11 0;
#X connect 51 1 23 0;
#X connect 51 2 5 0;
#X connect 54 0 59 0;
#X connect 59 0 3 0;
#X restore 614 82 pd BRAIN;
#X text 710 82 MANAGE MEMORY AND ACTIONS OF THE SLOT;
#X obj 268 181 t b;
#X obj 332 181 t b;
#X obj 268 213 s \$1-rw_gui_set;
#X obj 331 245 s \$1-stop_gui_set;
#X obj 44 285 arrast_param \$1 slotState \$0-memo 0 0 \$3;
#X obj 44 345 s \$1-ioLink_gui_set;
#X obj 44 62 r \$1-externalControl;
#X obj 44 130 route slotState ioMode ioLink inSet outSet speed play
rw inv stop loop loopMode file, f 42;
#X text 248 346 LINK_IO IS NOT SAVED WITH PRESET;
#X text 269 19 ** MANAGES PARAMETERS INPUT AND MEMORY OF EACH SLOT
;
#X text 260 62 RECEIVE ENTERNAL CONTROLS;
#X obj 44 315 arrast_param \$1 ioMode \$0-memo 1 0 \$3;
#X obj 44 375 arrast_param \$1 inSet \$0-memo 2 0 \$3;
#X obj 44 405 arrast_param \$1 outSet \$0-memo 3 1 \$3;
#X obj 44 435 arrast_param \$1 speed \$0-memo 4 0.5 \$3;
#X obj 44 465 arrast_param \$1 play \$0-memo 5 0 \$3;
#X obj 44 495 arrast_param \$1 inv \$0-memo 6 0 \$3;
#X obj 44 525 arrast_param \$1 loop \$0-memo 7 1 \$3;
#X obj 44 555 arrast_param \$1 loopMode \$0-memo 8 0 \$3;
#X obj 614 285 arrast_param \$1 audio \$0-memo 9 1 \$3;
#X obj 614 315 arrast_param \$1 samplerate \$0-memo 10 2 \$3;
#X obj 614 345 arrast_param \$1 boost \$0-memo 11 3 \$3;
#X obj 614 375 arrast_param \$1 avAmp \$0-memo 12 1 \$3;
#X obj 614 405 arrast_param \$1 avLop \$0-memo 13 2 \$3;
#X obj 614 435 arrast_param \$1 avHip \$0-memo 14 3 \$3;
#X connect 0 0 23 0;
#X connect 0 1 24 0;
#X connect 0 2 25 0;
#X connect 0 3 26 0;
#X connect 0 4 27 0;
#X connect 0 5 28 0;
#X connect 1 0 24 0;
#X connect 4 0 6 0;
#X connect 5 0 7 0;
#X connect 10 0 11 0;
#X connect 11 0 8 0;
#X connect 11 1 15 0;
#X connect 11 2 9 0;
#X connect 11 3 16 0;
#X connect 11 4 17 0;
#X connect 11 5 18 0;
#X connect 11 6 19 0;
#X connect 11 7 4 0;
#X connect 11 8 20 0;
#X connect 11 9 5 0;
#X connect 11 10 21 0;
#X connect 11 11 22 0;
#X connect 11 12 2 0;
#X connect 11 13 0 0;
