#N canvas 41 53 889 698 16;
#X obj 43 106 list fromsymbol;
#X obj 263 186 list split 1;
#X obj 321 217 list;
#X obj 290 443 f;
#X obj 332 443 + 1;
#X obj 43 541 list split;
#X obj 140 186 list length;
#X obj 140 500 -;
#X obj 91 595 list tosymbol;
#X obj 43 30 inlet PATH;
#X obj 43 72 symbol;
#X msg 317 411 1;
#X obj 263 256 sel 47;
#X obj 290 371 spigot;
#X msg 392 338 0;
#X msg 347 338 1;
#X obj 263 285 t b b;
#X obj 263 476 f;
#X obj 330 285 t b;
#X obj 43 140 t l l l b b;
#X text 379 444 COUNT CHARACTERS UNTIL FIRST "/";
#X text 400 186 UNPACKAGE LIST;
#X text 186 501 SUBTRACT FROM THE TOTAL OF CHARACTERS TO DEFINE A CUT-OFF
POINT TO THE PATH, f 66;
#X text 237 596 CONVERT ASCII CHARACTERS LIST BACK TO SYMBOL;
#X text 158 541 BREAK APART A SET OF CHARACTERS UNTIL FIRST "/" OF
THE ENTIRE PATH, f 61;
#X obj 91 643 outlet FILENAME;
#X text 208 106 CONVERT TO ASCII CHARACTERS LIST;
#X text 342 255 LOOK FOR CHARACTER 47 "/";
#X text 254 16 ** DETACHES FILENAME FROM COMPLETE PATH;
#X text 367 370 ENDS UP COUNT WHEN IT FINDS THE FIRST "/" FROM FINISH
TO START, f 41;
#X connect 0 0 19 0;
#X connect 1 0 12 0;
#X connect 1 1 2 0;
#X connect 2 0 1 0;
#X connect 3 0 4 0;
#X connect 3 0 17 1;
#X connect 4 0 3 1;
#X connect 5 1 8 0;
#X connect 6 0 7 0;
#X connect 7 0 5 1;
#X connect 8 0 25 0;
#X connect 9 0 10 0;
#X connect 10 0 0 0;
#X connect 11 0 3 1;
#X connect 12 0 16 0;
#X connect 12 1 18 0;
#X connect 13 0 3 0;
#X connect 14 0 13 1;
#X connect 15 0 13 1;
#X connect 16 0 17 0;
#X connect 16 1 14 0;
#X connect 17 0 7 1;
#X connect 18 0 13 0;
#X connect 19 0 5 0;
#X connect 19 1 6 0;
#X connect 19 2 1 0;
#X connect 19 3 11 0;
#X connect 19 4 15 0;
