#N canvas 161 55 692 708 16;
#X obj 106 196 list length;
#X obj 49 171 t l l;
#X obj 49 409 spigot;
#X obj 149 409 spigot;
#X obj 307 585 t l;
#X obj 186 585 list append;
#X obj 149 623 list;
#X obj 149 446 t b l b l b;
#X obj 106 373 <= 22;
#X obj 206 373 > 22;
#X obj 229 549 list split 7;
#X obj 346 373 - 10;
#X obj 186 484 list split 9;
#X obj 49 96 arrast_filename;
#X obj 49 136 list fromsymbol;
#X text 220 97 SEPARA NOME DO ARQUIVO DO CAMINHO;
#X text 235 197 TESTA POR NÚMERO DE CARACTERES;
#X obj 49 677 list tosymbol;
#X text 220 137 CONVERTE NOME EM LISTA DE CARACTERES ASCII;
#X text 198 678 CONVERTE LISTA DE CARACTERES ASCII EM SYMBOL;
#X obj 49 721 outlet SYMBOL;
#X obj 49 57 inlet SYMBOL;
#X obj 374 257 loadbang;
#X obj 374 287 f \$1;
#X obj 106 226 t l l l;
#X text 428 287 ARG. 1 - PONTO DE CORTE;
#X obj 374 317 sel 0;
#X obj 303 446 - 13;
#X obj 421 349 t f f f;
#X text 388 429 CASO MAIS CARACTERES DO QUE PONTO DE CORTE \, SEPARA
EM INICIO...FIM DO NOME, f 27;
#X msg 203 516 46 46 46;
#X text 295 515 ... (ASCII);
#X text 117 18 ** REDUZ NOMES DE ARQUIVO PARA VISUALIZAÇÃO;
#X connect 0 0 24 0;
#X connect 1 0 3 0;
#X connect 1 0 2 0;
#X connect 1 1 0 0;
#X connect 2 0 17 0;
#X connect 3 0 7 0;
#X connect 4 0 5 1;
#X connect 5 0 4 0;
#X connect 5 0 6 1;
#X connect 6 0 17 0;
#X connect 7 0 6 0;
#X connect 7 1 12 0;
#X connect 7 2 30 0;
#X connect 7 3 10 0;
#X connect 7 4 5 1;
#X connect 8 0 2 1;
#X connect 9 0 3 1;
#X connect 10 1 5 0;
#X connect 11 0 10 1;
#X connect 12 0 5 0;
#X connect 13 0 14 0;
#X connect 14 0 1 0;
#X connect 17 0 20 0;
#X connect 21 0 13 0;
#X connect 22 0 23 0;
#X connect 23 0 26 0;
#X connect 24 0 8 0;
#X connect 24 1 9 0;
#X connect 24 2 11 0;
#X connect 26 1 28 0;
#X connect 27 0 12 1;
#X connect 28 0 8 1;
#X connect 28 1 9 1;
#X connect 28 2 27 0;
#X connect 30 0 5 0;
