#N canvas 300 241 259 268 16;
#X obj 53 119 pix_texture;
#X obj 53 197 rectangle 4 3;
#N canvas 563 170 296 414 RATIO 0;
#X obj 44 375 outlet;
#X obj 163 375 outlet;
#X obj 44 187 unpack f f;
#X obj 44 219 /;
#X obj 44 343 * 3;
#X obj 163 344 * 3;
#X obj 163 288 t b f f;
#X obj 163 33 inlet;
#X floatatom 91 146 5 0 0 0 - - -, f 5;
#X floatatom 188 146 5 0 0 0 - - -, f 5;
#X obj 44 252 pack f 1;
#X obj 91 116 unpack f f;
#X obj 44 280 unpack f f;
#X obj 44 86 t l l;
#X obj 44 33 r \$0-size;
#X connect 2 0 3 0;
#X connect 2 1 3 1;
#X connect 3 0 10 0;
#X connect 4 0 0 0;
#X connect 5 0 1 0;
#X connect 6 0 5 0;
#X connect 6 0 4 0;
#X connect 6 1 4 1;
#X connect 6 2 5 1;
#X connect 7 0 6 0;
#X connect 10 0 12 0;
#X connect 11 0 8 0;
#X connect 11 1 9 0;
#X connect 12 0 4 0;
#X connect 12 1 5 0;
#X connect 13 0 2 0;
#X connect 13 1 11 0;
#X connect 14 0 13 0;
#X restore 116 163 pd RATIO;
#N canvas 619 194 330 292 INFO 0;
#X obj 52 41 inlet;
#X obj 52 81 t a a;
#X obj 52 241 outlet;
#X obj 146 139 change;
#X obj 220 139 change;
#X obj 135 105 pix_info;
#X obj 146 207 pack f f;
#X obj 220 173 t b f;
#X obj 146 241 s \$0-size;
#X connect 0 0 1 0;
#X connect 1 0 2 0;
#X connect 1 1 5 0;
#X connect 3 0 6 0;
#X connect 4 0 7 0;
#X connect 5 1 3 0;
#X connect 5 2 4 0;
#X connect 6 0 8 0;
#X connect 7 0 6 0;
#X connect 7 1 6 1;
#X restore 53 75 pd INFO;
#X obj 53 31 inlet GEMLIST;
#X connect 0 0 1 0;
#X connect 2 0 1 1;
#X connect 2 1 1 2;
#X connect 3 0 0 0;
#X connect 4 0 3 0;
