#N canvas 192 186 578 555 16;
#X obj 85 194 list split 1;
#X obj 179 228 list;
#X obj 85 228 t b s;
#X obj 202 322 list length;
#X obj 85 364 list prepend;
#X obj 85 428 list;
#X obj 48 462 list;
#X obj 85 396 list append;
#X obj 48 106 inlet ARRAY_LIST;
#X obj 48 504 outlet LIST;
#X text 192 266 RECEIVE VALUES FROM ARRAYS;
#X text 329 322 NUMBER OF ELEMENTS;
#X text 222 195 ONE ARRAY AT A TIME;
#X text 228 107 INPUT FOR THE ARRAY LIST;
#X text 233 228 LOOP;
#X obj 85 264 array get;
#X obj 48 150 t b l b;
#X obj 85 298 t l l b;
#X text 47 13 ** GATHERS ARRAYS AND RETURNS A LIST OF CONTENTS SORTED
BY PREFIXES WITH THE NUMBER OF ELEMENTS \, TO [arrast_arrayunpack]
, f 49;
#X connect 0 0 2 0;
#X connect 0 1 1 1;
#X connect 1 0 0 0;
#X connect 2 0 15 0;
#X connect 2 1 15 2;
#X connect 3 0 4 1;
#X connect 4 0 7 0;
#X connect 5 0 6 1;
#X connect 5 0 7 1;
#X connect 6 0 9 0;
#X connect 7 0 5 0;
#X connect 8 0 16 0;
#X connect 15 0 17 0;
#X connect 16 0 6 0;
#X connect 16 1 0 0;
#X connect 16 2 7 1;
#X connect 17 0 4 0;
#X connect 17 1 3 0;
#X connect 17 2 1 0;
