#N canvas 447 335 563 221 16;
#X obj 50 30 cnv 15 247 160 empty empty empty 20 12 0 14 -128992 -66577
0;
#X obj 255 85 hsl 30 8 0 1 0 0 \$0-redBg_gui \$0-redBg_gui_set empty
-2 -8 0 10 -258113 -1 -1 0 1;
#X obj 255 95 hsl 30 8 0 1 0 0 \$0-greenBg_gui \$0-greenBg_gui_set
empty -2 -8 0 10 -4034 -1 -1 0 1;
#X obj 255 105 hsl 30 8 0 1 0 0 \$0-blueBg_gui \$0-blueBg_gui_set empty
-2 -8 0 10 -4160 -1 -1 0 1;
#X obj 172 50 tgl 20 0 \$0-master_gui \$0-master_gui_set MASTER -4
-8 0 8 -1 -262144 -1 0 1;
#X obj 253 50 nbx 2 20 1 99 0 0 \$0-fps_gui \$0-fps_gui_set empty 5
-8 0 12 -1 -262144 -1 24 256;
#X obj 60 50 vradio 20 1 0 4 \$0-dimen_gui \$0-dimen_gui_set empty
0 -8 0 10 -1 -262144 -1 1;
#X obj 212 50 tgl 20 0 \$0-preview_gui \$0-preview_gui_set PREVIEW
-7 -8 0 8 -1 -262144 -1 0 1;
#X obj 172 93 tgl 20 0 \$0-cursor_gui \$0-cursor_gui_set CURSOR -4
-8 0 8 -99865 -1 -1 1 1;
#X obj 212 93 tgl 20 0 \$0-border_gui \$0-border_gui_set BORDER -4
-8 0 8 -99865 -1 -1 1 1;
#X obj 86 53 cnv 15 65 15 empty empty 320x240 0 8 0 10 -128992 -1 0
;
#X obj 86 73 cnv 15 65 15 empty empty 640x480 0 8 0 10 -128992 -1 0
;
#X obj 86 93 cnv 15 65 15 empty empty 1024x768 0 8 0 10 -128992 -1
0;
#X obj 86 113 cnv 15 65 15 empty empty 1280x720 0 8 0 10 -128992 -1
0;
#X obj 60 136 nbx 4 12 -1e+37 1e+37 0 0 \$0-dimX_gui \$0-dimX_gui_set
empty 0 -8 0 10 -1 -262144 -1 640 256;
#X obj 110 136 nbx 4 12 -1e+37 1e+37 0 0 \$0-dimY_gui \$0-dimY_gui_set
empty 0 -8 0 10 -1 -262144 -1 480 256;
#X obj 60 168 nbx 4 12 -1e+37 1e+37 0 0 \$0-offsetX_gui \$0-offsetX_gui_set
empty 0 -8 0 10 -1 -262144 -1 0 256;
#X obj 110 168 nbx 4 12 -1e+37 1e+37 0 0 \$0-offsetY_gui \$0-offsetY_gui_set
empty 0 -8 0 10 -1 -262144 -1 0 256;
#X obj 60 152 cnv 15 65 15 empty empty OFFSET_X_Y 0 8 0 8 -128992 -1
0;
#X obj 262 34 cnv 15 15 15 empty empty FPS 0 8 0 8 -128992 -1 0;
#N canvas 268 162 631 291 PREVIEW_GEMWIN 0;
#X msg 42 143 0 \, destroy;
#X obj 42 109 sel 0 1;
#X obj 42 231 gemwin 6;
#X obj 42 61 r \$0-preview;
#X text 137 231 6 FPS TO REDUCE PROCESSING;
#X text 159 18 ** PREVIEW WINDOW MANAGEMENT;
#X obj 213 143 loadbang;
#X msg 213 177 dimen 200 600 \, frame 6 \, title PREVIEW;
#X msg 75 177 create \, 1;
#X connect 0 0 2 0;
#X connect 1 0 0 0;
#X connect 1 1 8 0;
#X connect 3 0 1 0;
#X connect 6 0 7 0;
#X connect 7 0 2 0;
#X connect 8 0 2 0;
#X restore 340 94 pd PREVIEW_GEMWIN;
#N canvas 122 99 1218 598 LINKS 0;
#X msg 631 158 cursor \$1;
#X msg 631 192 border \$1;
#X msg 813 226 offset \$1 \$2;
#X obj 813 192 pack f f;
#X obj 913 158 t b f;
#X msg 631 416 color \$1 \$2 \$3;
#X obj 631 382 pack f f f;
#X obj 745 358 t b f;
#X obj 879 358 t b f;
#X obj 1009 90 r \$0-fps;
#X obj 631 90 r \$0-cursor;
#X obj 43 124 sel 0 1 2 3;
#X msg 43 192 640 480;
#X obj 177 192 pack 640 480;
#X msg 1009 124 frame \$1;
#X msg 446 244 0 \, destroy;
#X obj 1009 193 s MASTER_FPS;
#X msg 43 158 320 240;
#X msg 43 226 1024 768;
#X msg 43 260 1280 720;
#X obj 43 383 s \$0-dimX_gui_set;
#X obj 122 412 s \$0-dimY_gui_set;
#X text 410 62 CREATE WINDOW;
#X obj 256 338 t a;
#X obj 207 124 r \$0-dimY_gui;
#X text 40 62 WINDOW SIZE;
#X obj 413 90 r \$0-master;
#X obj 43 90 r \$0-dimen;
#X obj 177 90 r \$0-dimX_gui;
#X obj 1009 159 t a a;
#X text 1006 223 SEND FPS TO LOCAL INSTANCE, f 15;
#X text 1006 62 FRAMES PER SECOND;
#X text 766 541 SEND DATA TO 2nd INSTANCE;
#X obj 813 260 t a;
#X obj 813 90 r \$0-offsetX;
#X obj 843 124 r \$0-offsetY;
#X text 811 62 OFFSET;
#X obj 631 450 t a;
#X obj 631 324 r \$0-redBg;
#X obj 745 324 r \$0-greenBg;
#X obj 879 324 r \$0-blueBg;
#X obj 631 124 r \$0-border;
#X obj 631 226 t a;
#X text 628 62 CURSOR AND BORDER;
#X text 628 296 BACKGROUND COLOR;
#X obj 43 511 r \$0-debug;
#X obj 43 540 s DEBUG;
#X text 40 463 REPOST DEBUG MODE TO 2nd INSTANCE CONTROL, f 23;
#X obj 413 119 t f f;
#X obj 177 220 spigot;
#X obj 413 148 sel 1 0;
#X msg 43 353 set \$1;
#X msg 123 353 set \$1;
#X obj 207 153 t b f;
#X obj 43 323 unpack;
#X obj 43 294 t l l;
#X obj 308 511 r \$0-cameraDev_gui;
#X obj 308 540 s CAMERA_DEVICE;
#X text 306 463 REPOST DEVICE CHOSEN AS CAMERA SOURCE, f 29;
#X msg 256 244 0 \, destroy \, dimen \$1 \$2 \, title MASTER \, create
\, 1, f 13;
#X obj 631 540 s GEMWIN_BUS;
#X text 147 20 ** INTERFACE LOCAL CONNECTIONS AND OUTPUT OF MASTER
WINDOW CONTROL DATA TO 2nd INSTANCE, f 92;
#X connect 0 0 42 0;
#X connect 1 0 42 0;
#X connect 2 0 33 0;
#X connect 3 0 2 0;
#X connect 4 0 3 0;
#X connect 4 1 3 1;
#X connect 5 0 37 0;
#X connect 6 0 5 0;
#X connect 7 0 6 0;
#X connect 7 1 6 1;
#X connect 8 0 6 0;
#X connect 8 1 6 2;
#X connect 9 0 14 0;
#X connect 10 0 0 0;
#X connect 11 0 17 0;
#X connect 11 1 12 0;
#X connect 11 2 18 0;
#X connect 11 3 19 0;
#X connect 12 0 55 0;
#X connect 13 0 49 0;
#X connect 14 0 29 0;
#X connect 15 0 23 0;
#X connect 17 0 55 0;
#X connect 18 0 55 0;
#X connect 19 0 55 0;
#X connect 23 0 60 0;
#X connect 24 0 53 0;
#X connect 26 0 48 0;
#X connect 27 0 11 0;
#X connect 28 0 13 0;
#X connect 29 0 16 0;
#X connect 29 1 60 0;
#X connect 33 0 60 0;
#X connect 34 0 3 0;
#X connect 35 0 4 0;
#X connect 37 0 60 0;
#X connect 38 0 6 0;
#X connect 39 0 7 0;
#X connect 40 0 8 0;
#X connect 41 0 1 0;
#X connect 42 0 60 0;
#X connect 45 0 46 0;
#X connect 48 0 50 0;
#X connect 48 1 49 1;
#X connect 49 0 59 0;
#X connect 50 0 13 0;
#X connect 50 1 15 0;
#X connect 51 0 20 0;
#X connect 52 0 21 0;
#X connect 53 0 13 0;
#X connect 53 1 13 1;
#X connect 54 0 51 0;
#X connect 54 1 52 0;
#X connect 55 0 54 0;
#X connect 55 1 13 0;
#X connect 56 0 57 0;
#X connect 59 0 23 0;
#X restore 340 128 pd LINKS;
#N canvas 112 87 1170 711 CONTROL_MEMORY 0;
#X text 488 213 LOCAL MEMORY ARRAY - 13 PARAMETERS;
#X obj 490 241 array define \$0-memo 13;
#X obj 51 187 arrast_param \$0 dimen \$0-memo 0 1 9;
#X obj 51 277 arrast_param \$0 fps \$0-memo 3 24 9;
#X obj 51 337 arrast_param \$0 border \$0-memo 5 1 9;
#X obj 51 217 arrast_param \$0 master \$0-memo 1 0 9;
#X obj 51 247 arrast_param \$0 preview \$0-memo 2 0 9;
#X obj 51 307 arrast_param \$0 cursor \$0-memo 4 1 9;
#X obj 51 367 arrast_param \$0 redBg \$0-memo 6 0 9;
#X obj 51 397 arrast_param \$0 greenBg \$0-memo 7 0 9;
#X obj 51 427 arrast_param \$0 blueBg \$0-memo 8 0 9;
#X obj 51 457 arrast_param \$0 offsetX \$0-memo 9 0 9;
#X obj 51 487 arrast_param \$0 offsetY \$0-memo 10 0 9;
#X obj 51 517 arrast_param \$0 debug \$0-memo 11 0 9;
#X obj 51 547 arrast_param \$0 cameraDev \$0-memo 12 0 9;
#X obj 674 283 loadbang;
#X obj 490 351 s \$0-memo-load;
#X text 642 352 SEND VALUES;
#X obj 674 317 del 20;
#X text 426 19 ** LOCAL MEMORY MANAGEMENT;
#X obj 490 425 r GEMWIN_FLUSH;
#X obj 490 527 s GEMWIN_PRESET;
#X obj 490 493 array get \$0-memo;
#X obj 490 459 t b;
#X text 487 397 PRESET SYSTEM;
#X obj 694 425 r MAIN_PRESET_SEND;
#X obj 694 551 route gemwin;
#X obj 741 619 array set \$0-memo;
#X obj 694 585 t b a;
#X obj 694 653 s \$0-memo-load;
#X obj 490 283 r REFRESH_GEMWIN;
#X obj 490 317 t b;
#X obj 694 517 spigot;
#X obj 751 483 r \$0-receivePreset_gui;
#X text 748 455 INTERFACE PRESET BUTTON;
#X text 691 397 RECEIVE DATA FROM MANAGER;
#X text 924 619 WRITE ON MEMORY;
#X text 846 654 REFRESH INTERFACE;
#X obj 51 644 s \$0-receivePreset_gui_set;
#X obj 51 581 loadbang;
#X msg 51 610 1;
#X text 95 611 START PRESET BUTTON;
#X text 326 646 DOES NOT SAVE TO PRESET MEMORY;
#X obj 51 55 r OSC_BUS;
#X obj 51 89 route output;
#X text 155 56 RECEIVE EXTERNAL CONTROLS - OSC;
#X text 186 90 FILTER OUTPUT CONTROLS;
#X obj 729 166 s \$0-dimX_gui_set;
#X obj 923 166 s \$0-dimY_gui_set;
#X text 727 139 PARAMETERS THAT ARE NOT SAVED TO MEMORY;
#X obj 923 211 s RESTART_MOTOR_set;
#X obj 51 123 route dimen master preview fps cursor border redBg greenBg
blueBg offsetX offsetY debug cameraDev preset dimX dimY restart, f
63;
#X text 746 317 WAIT UNTIL ENGINE IS ON;
#X connect 15 0 18 0;
#X connect 18 0 16 0;
#X connect 20 0 23 0;
#X connect 22 0 21 0;
#X connect 23 0 22 0;
#X connect 25 0 32 0;
#X connect 26 0 28 0;
#X connect 28 0 29 0;
#X connect 28 1 27 0;
#X connect 30 0 31 0;
#X connect 31 0 16 0;
#X connect 32 0 26 0;
#X connect 33 0 32 1;
#X connect 39 0 40 0;
#X connect 40 0 38 0;
#X connect 43 0 44 0;
#X connect 44 0 51 0;
#X connect 51 0 2 0;
#X connect 51 1 5 0;
#X connect 51 2 6 0;
#X connect 51 3 3 0;
#X connect 51 4 7 0;
#X connect 51 5 4 0;
#X connect 51 6 8 0;
#X connect 51 7 9 0;
#X connect 51 8 10 0;
#X connect 51 9 11 0;
#X connect 51 10 12 0;
#X connect 51 11 13 0;
#X connect 51 12 14 0;
#X connect 51 13 38 0;
#X connect 51 14 47 0;
#X connect 51 15 48 0;
#X connect 51 16 50 0;
#X restore 340 60 pd CONTROL_MEMORY;
#X obj 253 136 nbx 2 20 0 99 0 0 \$0-cameraDev_gui \$0-cameraDev_gui_set
empty 5 -8 0 12 -1 -262144 -1 0 256;
#X obj 255 120 cnv 15 15 15 empty empty CAMERA 0 8 0 8 -128992 -1 0
;
#X obj 172 124 cnv 15 60 56 empty empty empty 20 12 0 14 -1 -66577
0;
#X obj 176 141 bng 15 250 50 0 RESTART_MOTOR RESTART_MOTOR_set RESTART
20 8 0 8 -128992 -1 -128992;
#X obj 176 161 tgl 15 0 \$0-debug_gui \$0-debug_gui_set DEBUG 20 8
0 8 -128992 -1 -128992 0 1;
#X obj 176 124 cnv 15 15 15 empty empty 2_INSTANCE 0 8 0 8 -1 -128992
0;
#X obj 60 34 cnv 15 15 15 empty empty DIMENSION 0 8 0 8 -128992 -1
0;
#X obj 262 165 tgl 15 0 \$0-receivePreset_gui \$0-receivePreset_gui_set
P 5 8 0 10 -99865 -1 -1 1 1;
#X coords 0 -1 1 1 247 160 2 50 30;
