#N canvas 343 286 545 256 16;
#X obj 50 30 cnv 15 185 62 empty empty CAMERA 71 42 0 12 -228856 -66577
0;
#X obj 52 30 hradio 20 1 0 9 \$0-enableClick \$0-enableClick_set empty
0 -8 0 10 -262144 -1 -1 1;
#X obj 50 30 cnv 15 185 20 \$0-enable \$0-enable_set empty 20 12 0
14 -128992 -262144 0;
#N canvas 229 135 622 591 CAMERA 0;
#X obj 55 528 rectangle 4 3;
#X obj 55 304 pix_texture;
#X obj 55 406 translateXYZ 0 0 0;
#X obj 55 450 scale 0.3;
#X obj 55 226 pix_share_read 10 640 480 RGBA;
#X obj 55 338 rotateXYZ 0 0 0;
#X obj 433 83 r CH\$1_SELECT;
#X obj 55 124 tgl 25 0 empty empty empty 17 7 0 10 -262144 -1 -1 0
1;
#X obj 433 115 == 3;
#X obj 205 107 list prepend render;
#X obj 55 173 gemhead \$1;
#X text 368 227 READ SHARED BUFFER;
#N canvas 446 226 477 209 TO_CAMERA_BUS 0;
#X obj 39 61 inlet;
#X text 35 23 ** CAMERA CONTROLS OUTPUT CHANNEL;
#X obj 39 105 list prepend C\$1;
#X obj 39 149 s CAMERA_BUS;
#X connect 0 0 2 0;
#X connect 2 0 3 0;
#X restore 205 141 pd TO_CAMERA_BUS;
#X obj 55 83 r \$0-render;
#X obj 433 148 s \$0-render;
#X text 206 14 ** CAMERA UNIT;
#X text 53 55 RENDER IN PREVIEW WINDOW;
#N canvas 694 353 408 322 INFO 0;
#X obj 50 36 inlet;
#X obj 50 86 t a a;
#X obj 50 265 outlet;
#X obj 148 141 change;
#X obj 225 141 change;
#X obj 137 110 pix_info;
#X obj 148 202 pack f f;
#X obj 148 232 s \$0-tam;
#X obj 225 169 t b f;
#X text 150 23 ** SEND CAMERA SIZE IN PIXELS TO COMPUTE RATIO, f 21
;
#X connect 0 0 1 0;
#X connect 1 0 2 0;
#X connect 1 1 5 0;
#X connect 3 0 6 0;
#X connect 4 0 8 0;
#X connect 5 1 3 0;
#X connect 5 2 4 0;
#X connect 6 0 7 0;
#X connect 8 0 6 0;
#X connect 8 1 6 1;
#X restore 55 260 pd INFO;
#N canvas 353 345 412 262 TRANSLATE 0;
#X obj 39 36 loadbang;
#X obj 39 72 f \$1;
#X obj 39 204 outlet;
#X obj 39 109 sel 1 2 3 4;
#X text 158 25 ** Y-AXIS TRANSLATION ACCORDING TO LAYER, f 23;
#X msg 39 146 -3;
#X msg 90 146 -1;
#X msg 141 146 1;
#X msg 192 146 3;
#X connect 0 0 1 0;
#X connect 1 0 3 0;
#X connect 3 0 5 0;
#X connect 3 1 6 0;
#X connect 3 2 7 0;
#X connect 3 3 8 0;
#X connect 5 0 2 0;
#X connect 6 0 2 0;
#X connect 7 0 2 0;
#X connect 8 0 2 0;
#X restore 173 372 pd TRANSLATE;
#N canvas 468 288 309 365 RATIO 0;
#X obj 50 305 outlet;
#X obj 169 305 outlet;
#X obj 50 73 r \$0-tam;
#X obj 50 117 unpack f f;
#X obj 50 149 /;
#X obj 50 273 * 3;
#X obj 169 274 * 3;
#X obj 169 218 t b f f;
#X obj 169 73 inlet;
#X obj 50 182 pack f 1;
#X obj 50 210 unpack f f;
#X text 37 27 ** MANAGE CAMERA RATIO;
#X connect 2 0 3 0;
#X connect 3 0 4 0;
#X connect 3 1 4 1;
#X connect 4 0 9 0;
#X connect 5 0 0 0;
#X connect 6 0 1 0;
#X connect 7 0 6 0;
#X connect 7 0 5 0;
#X connect 7 1 5 1;
#X connect 7 2 6 1;
#X connect 8 0 7 0;
#X connect 9 0 10 0;
#X connect 10 0 5 0;
#X connect 10 1 6 0;
#X restore 118 494 pd RATIO;
#X text 432 55 ENABLE CAMERA;
#X connect 1 0 5 0;
#X connect 2 0 3 0;
#X connect 3 0 0 0;
#X connect 4 0 17 0;
#X connect 5 0 2 0;
#X connect 6 0 8 0;
#X connect 7 0 10 0;
#X connect 8 0 14 0;
#X connect 9 0 12 0;
#X connect 10 0 4 0;
#X connect 13 0 7 0;
#X connect 13 0 9 0;
#X connect 17 0 1 0;
#X connect 18 0 2 2;
#X connect 19 0 0 1;
#X connect 19 1 0 2;
#X restore 284 64 pd CAMERA;
#N canvas 311 174 508 275 CHANNEL_COLOR 0;
#X obj 49 71 f \$1;
#X obj 49 107 sel 1 2 3 4;
#X msg 49 144 13;
#X msg 198 144 16;
#X msg 99 144 15;
#X obj 49 35 loadbang;
#X msg 259 144 28;
#X msg 149 144 19;
#X obj 49 209 s \$0-channelColor;
#X obj 259 209 s \$0-bgColor;
#X text 173 24 ** SETS DEFAULT CHANNEL COLOR;
#X connect 0 0 1 0;
#X connect 1 0 2 0;
#X connect 1 1 4 0;
#X connect 1 2 7 0;
#X connect 1 3 3 0;
#X connect 2 0 8 0;
#X connect 3 0 8 0;
#X connect 4 0 8 0;
#X connect 5 0 0 0;
#X connect 5 0 6 0;
#X connect 6 0 9 0;
#X connect 7 0 8 0;
#X restore 284 200 pd CHANNEL_COLOR;
#N canvas 308 165 748 561 ENABLE_BUTTON 0;
#X obj 48 97 t b;
#X obj 48 188 f;
#X obj 88 188 + 1;
#X obj 48 216 % 2;
#X floatatom 48 269 5 0 0 0 - - -, f 5;
#X obj 106 132 loadbang;
#X obj 206 327 sel 1;
#X obj 325 63 r CH\$1_SELECT;
#X obj 206 427 s CH\$1_SELECT;
#X msg 372 164 0;
#X obj 325 97 sel 3;
#X msg 60 156 0;
#X msg 286 351 0;
#X msg 206 395 3;
#X obj 206 290 s C\$1_ST;
#X obj 206 164 r C\$1_SET_ST;
#X obj 206 501 s SOURCE_BUS;
#X obj 206 471 list prepend sourceChannel\$1;
#X obj 48 303 t f f;
#X obj 286 383 s \$0-render;
#X obj 206 245 t b;
#X obj 206 216 r REFRESH_SOURCE;
#X obj 499 87 r \$0-externalControl;
#X obj 499 164 route enable;
#X text 496 59 GET EXTERNAL CONTROL;
#N canvas 377 211 418 284 COLOR 0;
#X obj 44 62 inlet;
#X obj 44 117 sel 0 1;
#X obj 164 141 f 13;
#X msg 164 179 color \$1 0;
#X msg 44 179 color 11 0;
#X text 47 19 ** BUTTON COLOR TO ENABLE UNIT;
#X obj 44 228 s \$0-enable_set;
#X obj 201 109 r \$0-channelColor;
#X connect 0 0 1 0;
#X connect 1 0 4 0;
#X connect 1 1 2 0;
#X connect 2 0 3 0;
#X connect 3 0 6 0;
#X connect 4 0 6 0;
#X connect 7 0 2 1;
#X restore 48 390 pd COLOR;
#X obj 48 63 r \$0-enableClick;
#X text 165 17 ** MANAGES BUTTON STATUS TO ENABLE UNIT;
#X connect 0 0 1 0;
#X connect 1 0 3 0;
#X connect 2 0 1 1;
#X connect 3 0 2 0;
#X connect 3 0 4 0;
#X connect 4 0 14 0;
#X connect 4 0 18 0;
#X connect 5 0 11 0;
#X connect 6 0 13 0;
#X connect 6 1 12 0;
#X connect 7 0 10 0;
#X connect 9 0 1 0;
#X connect 10 1 9 0;
#X connect 11 0 1 0;
#X connect 12 0 19 0;
#X connect 13 0 8 0;
#X connect 13 0 17 0;
#X connect 15 0 1 0;
#X connect 17 0 16 0;
#X connect 18 0 25 0;
#X connect 18 1 6 0;
#X connect 20 0 4 0;
#X connect 21 0 20 0;
#X connect 22 0 23 0;
#X connect 23 0 1 0;
#X connect 26 0 0 0;
#X restore 284 98 pd ENABLE_BUTTON;
#N canvas 343 200 586 282 BYPASS_ACTIVE_SLOT 0;
#X obj 46 97 r C\$1_ACTIVE_SLOT;
#X obj 46 172 spigot;
#X text 121 174 ONLY IF CAMERA MODULE IS ACTIVE;
#X obj 46 217 s V\$1_ACTIVE_SLOT;
#X text 231 217 USES SAME VIDEO CHANNEL TO SEND;
#X obj 103 141 r \$0-render;
#X text 44 26 ** RECEIVES ACTIVE SLOT FROM VIDEO AND IMAGE MODULES
AND SENDS TO TRANSFORM AND EFFECTS, f 50;
#X connect 0 0 1 0;
#X connect 1 0 3 0;
#X connect 5 0 1 1;
#X restore 284 166 pd BYPASS_ACTIVE_SLOT;
#N canvas 433 288 497 229 AUTOMATION_MANAGER 0;
#X text 169 110 BUTTON TO ENABLE UNIT;
#X text 43 20 ** LOCAL MANAGEMENT OF AUTOMATION MEMORY;
#X obj 49 102 r C\$1_ST;
#X obj 49 170 s C\$1_SET_ST;
#X text 48 67 UNITS OF AUTOMATION BY PARAMETER;
#X obj 49 136 arrast_automato \$0 enableButton \$1 0 20;
#X connect 2 0 5 0;
#X connect 5 0 3 0;
#X restore 284 132 pd AUTOMATION_MANAGER;
#N canvas 253 223 524 300 EXTERNAL_CONTROL 0;
#X text 213 137 FILTER BY CHANNEL;
#X text 183 170 FILTER BY MODULE;
#X obj 48 234 s \$0-externalControl;
#X text 265 235 SEND CONTROLS LOCALLY;
#X obj 48 136 route channel\$1;
#X obj 48 72 r OSC_BUS;
#X text 43 19 ** EXTERNAL CONTROL ROUTER VIA OSC;
#X text 153 69 RECEIVE UNPACKAGED OSC FROM PARENT PATCH, f 29;
#X obj 48 170 route camera;
#X connect 4 0 8 0;
#X connect 5 0 4 0;
#X connect 8 0 2 0;
#X restore 284 30 pd EXTERNAL_CONTROL;
#X coords 0 -1 1 1 185 62 2 50 30;
