#N canvas 217 164 1033 356 16;
#X text 261 60 RECEBE CONTROLES EXTERNOS;
#N canvas 18 183 1330 419 BRAIN 0;
#X obj 930 232 del \$3;
#X obj 987 167 f \$3;
#X obj 930 133 t b b;
#X obj 987 196 * 2;
#X obj 691 135 route \$3;
#X text 1093 319 SLOT;
#X obj 691 98 r \$1-slotFilePreset;
#X obj 930 96 r \$1-slotFlush;
#X obj 930 362 s \$1-slotList;
#X text 689 69 ENTRADA DE PRESET;
#X obj 930 277 array get \$0-memo;
#X obj 930 319 list prepend \$3;
#X obj 691 207 array set \$0-memo;
#X text 928 67 PARA GERENCIADOR DE PRESETS;
#X text 1043 164 ATRASO PARA ORDENAR ESCRITA POR SLOT, f 15;
#X text 1113 278 LÊ MEMÓRIA;
#X text 1074 362 ENVIA PARA GERENCIADOR;
#X text 711 181 ESCREVE MEMÓRIA;
#X obj 51 329 array define \$0-memo 8;
#X text 287 330 ARRAY DE MEMÓRIA LOCAL - CADA SLOT 8 PARÂMETROS;
#X text 306 20 ** GERENCIA MEMÓRIA DE CADA SLOT \, COM PARÂMETROS
DOS EFEITOS;
#X text 49 69 ATUALIZA SLOT ATUAL COM VALORES DA MEMÓRIA, f 23;
#X obj 51 148 sel \$3;
#X obj 51 178 s \$0-memo-load;
#X obj 51 118 r \$1-activeSlot;
#X obj 320 260 s \$0-memo-reset;
#X obj 320 196 sel;
#X obj 347 166 f \$3;
#X obj 347 137 loadbang;
#X text 318 69 REINICIA PARÂMETROS DO SLOT ATUAL;
#X obj 320 225 t b;
#X obj 320 100 r \$1-resetSlot;
#X text 475 97 RECEBE COMANDO DA UNIDADE DE EFEITOS, f 14;
#X connect 0 0 10 0;
#X connect 1 0 3 0;
#X connect 2 0 0 0;
#X connect 2 1 1 0;
#X connect 3 0 0 1;
#X connect 4 0 12 0;
#X connect 6 0 4 0;
#X connect 7 0 2 0;
#X connect 10 0 11 0;
#X connect 11 0 8 0;
#X connect 22 0 23 0;
#X connect 24 0 22 0;
#X connect 26 0 30 0;
#X connect 27 0 26 1;
#X connect 28 0 27 0;
#X connect 30 0 25 0;
#X connect 31 0 26 0;
#X restore 564 80 pd BRAIN;
#X text 660 80 GERENCIA MEMÓRIA E AÇÕES DO SLOT;
#X obj 44 148 route red green blue colorInv gain contrast saturation
motionBlur;
#X obj 44 207 arrast_param \$1 red \$0-memo 0 1 \$3;
#X obj 44 237 arrast_param \$1 green \$0-memo 1 1 \$3;
#X obj 44 297 arrast_param \$1 colorInv \$0-memo 3 0 \$3;
#X obj 44 267 arrast_param \$1 blue \$0-memo 2 1 \$3;
#X obj 454 208 arrast_param \$1 gain \$0-memo 4 0.2 \$3;
#X obj 454 237 arrast_param \$1 contrast \$0-memo 5 0.2 \$3;
#X obj 454 267 arrast_param \$1 saturation \$0-memo 6 0.2 \$3;
#X obj 454 297 arrast_param \$1 motionBlur \$0-memo 7 0 \$3;
#X text 208 19 ** GERENCIA ENTRADA DE PARÂMETROS E MEMÓRIA DE CADA
SLOT;
#X obj 44 60 r \$1-externalControl;
#X connect 3 0 4 0;
#X connect 3 1 5 0;
#X connect 3 2 7 0;
#X connect 3 3 6 0;
#X connect 3 4 8 0;
#X connect 3 5 9 0;
#X connect 3 6 10 0;
#X connect 3 7 11 0;
#X connect 13 0 3 0;
