#N canvas 317 158 838 415 16;
#X obj 194 64 loadbang;
#X obj 61 119 gemhead \$1;
#X obj 61 98 tgl 15 0 empty empty empty 17 7 0 10 -262144 -1 -1 0 1
;
#X obj 61 64 r \$0-render;
#X msg 194 94 0;
#X obj 61 376 outlet;
#X obj 326 64 r CANAL_I;
#X obj 326 104 route I\$1;
#X obj 373 204 s \$0-render;
#X obj 61 331 pix_buffer_read \$1_buffer;
#N canvas 142 179 879 237 IMAGE_BUFFER 0;
#X obj 41 177 pix_buffer \$1_buffer 8;
#X obj 41 46 inlet;
#N canvas 156 104 553 397 OPEN_1 0;
#N canvas 414 511 331 252 CHANGE_SYMBOL 0;
#X obj 57 92 t s s;
#X obj 57 129 sel s;
#X text 124 106 [change] symbol!;
#X obj 57 45 inlet;
#X obj 104 203 outlet;
#X obj 104 159 symbol;
#X connect 0 0 1 1;
#X connect 0 1 1 0;
#X connect 1 1 5 0;
#X connect 3 0 0 0;
#X connect 5 0 4 0;
#X restore 41 222 pd CHANGE_SYMBOL;
#X obj 41 93 unpack s f;
#X obj 41 255 pack s f;
#X msg 41 289 open \$1 \$2;
#X obj 41 36 inlet;
#X obj 138 155 == 1;
#X obj 41 179 spigot;
#X obj 138 124 t f f;
#X obj 41 347 outlet;
#X text 131 32 ** DISTRIBUI PARA CADA SLOT DO BUFFER;
#X text 217 222 FILTRA REPETIÇÕES;
#X text 195 156 FILTRA POR SLOT NO BUFFER;
#X obj 185 189 - 1;
#X text 229 190 CORRIGE INDEX PARA BUFFER;
#X connect 0 0 2 0;
#X connect 1 0 6 0;
#X connect 1 1 7 0;
#X connect 2 0 3 0;
#X connect 3 0 8 0;
#X connect 4 0 1 0;
#X connect 5 0 6 1;
#X connect 6 0 0 0;
#X connect 7 0 5 0;
#X connect 7 1 12 0;
#X connect 12 0 2 1;
#X restore 41 121 pd OPEN_1;
#X text 277 178 BUFFER PARA 8 IMAGENS;
#X text 205 20 ** DISTRIBUI IMAGENS NOS SLOTS DO BUFFER LOCAL;
#X obj 41 75 t a a a a a a a a;
#N canvas 154 103 553 397 OPEN_2 0;
#N canvas 414 511 331 252 CHANGE_SYMBOL 0;
#X obj 57 92 t s s;
#X obj 57 129 sel s;
#X text 124 106 [change] symbol!;
#X obj 57 45 inlet;
#X obj 104 203 outlet;
#X obj 104 159 symbol;
#X connect 0 0 1 1;
#X connect 0 1 1 0;
#X connect 1 1 5 0;
#X connect 3 0 0 0;
#X connect 5 0 4 0;
#X restore 41 222 pd CHANGE_SYMBOL;
#X obj 41 93 unpack s f;
#X obj 41 255 pack s f;
#X msg 41 289 open \$1 \$2;
#X obj 41 36 inlet;
#X obj 41 179 spigot;
#X obj 138 124 t f f;
#X obj 41 347 outlet;
#X text 131 32 ** DISTRIBUI PARA CADA SLOT DO BUFFER;
#X text 217 222 FILTRA REPETIÇÕES;
#X text 195 156 FILTRA POR SLOT NO BUFFER;
#X obj 185 189 - 1;
#X text 229 190 CORRIGE INDEX PARA BUFFER;
#X obj 138 155 == 2;
#X connect 0 0 2 0;
#X connect 1 0 5 0;
#X connect 1 1 6 0;
#X connect 2 0 3 0;
#X connect 3 0 7 0;
#X connect 4 0 1 0;
#X connect 5 0 0 0;
#X connect 6 0 13 0;
#X connect 6 1 11 0;
#X connect 11 0 2 1;
#X connect 13 0 5 1;
#X restore 141 121 pd OPEN_2;
#N canvas 154 103 553 397 OPEN_3 0;
#N canvas 414 511 331 252 CHANGE_SYMBOL 0;
#X obj 57 92 t s s;
#X obj 57 129 sel s;
#X text 124 106 [change] symbol!;
#X obj 57 45 inlet;
#X obj 104 203 outlet;
#X obj 104 159 symbol;
#X connect 0 0 1 1;
#X connect 0 1 1 0;
#X connect 1 1 5 0;
#X connect 3 0 0 0;
#X connect 5 0 4 0;
#X restore 41 222 pd CHANGE_SYMBOL;
#X obj 41 93 unpack s f;
#X obj 41 255 pack s f;
#X msg 41 289 open \$1 \$2;
#X obj 41 36 inlet;
#X obj 41 179 spigot;
#X obj 138 124 t f f;
#X obj 41 347 outlet;
#X text 131 32 ** DISTRIBUI PARA CADA SLOT DO BUFFER;
#X text 217 222 FILTRA REPETIÇÕES;
#X text 195 156 FILTRA POR SLOT NO BUFFER;
#X obj 185 189 - 1;
#X text 229 190 CORRIGE INDEX PARA BUFFER;
#X obj 138 155 == 3;
#X connect 0 0 2 0;
#X connect 1 0 5 0;
#X connect 1 1 6 0;
#X connect 2 0 3 0;
#X connect 3 0 7 0;
#X connect 4 0 1 0;
#X connect 5 0 0 0;
#X connect 6 0 13 0;
#X connect 6 1 11 0;
#X connect 11 0 2 1;
#X connect 13 0 5 1;
#X restore 241 121 pd OPEN_3;
#N canvas 154 103 553 397 OPEN_4 0;
#N canvas 414 511 331 252 CHANGE_SYMBOL 0;
#X obj 57 92 t s s;
#X obj 57 129 sel s;
#X text 124 106 [change] symbol!;
#X obj 57 45 inlet;
#X obj 104 203 outlet;
#X obj 104 159 symbol;
#X connect 0 0 1 1;
#X connect 0 1 1 0;
#X connect 1 1 5 0;
#X connect 3 0 0 0;
#X connect 5 0 4 0;
#X restore 41 222 pd CHANGE_SYMBOL;
#X obj 41 93 unpack s f;
#X obj 41 255 pack s f;
#X msg 41 289 open \$1 \$2;
#X obj 41 36 inlet;
#X obj 41 179 spigot;
#X obj 138 124 t f f;
#X obj 41 347 outlet;
#X text 131 32 ** DISTRIBUI PARA CADA SLOT DO BUFFER;
#X text 217 222 FILTRA REPETIÇÕES;
#X text 195 156 FILTRA POR SLOT NO BUFFER;
#X obj 185 189 - 1;
#X text 229 190 CORRIGE INDEX PARA BUFFER;
#X obj 138 155 == 4;
#X connect 0 0 2 0;
#X connect 1 0 5 0;
#X connect 1 1 6 0;
#X connect 2 0 3 0;
#X connect 3 0 7 0;
#X connect 4 0 1 0;
#X connect 5 0 0 0;
#X connect 6 0 13 0;
#X connect 6 1 11 0;
#X connect 11 0 2 1;
#X connect 13 0 5 1;
#X restore 341 121 pd OPEN_4;
#N canvas 154 103 553 397 OPEN_5 0;
#N canvas 414 511 331 252 CHANGE_SYMBOL 0;
#X obj 57 92 t s s;
#X obj 57 129 sel s;
#X text 124 106 [change] symbol!;
#X obj 57 45 inlet;
#X obj 104 203 outlet;
#X obj 104 159 symbol;
#X connect 0 0 1 1;
#X connect 0 1 1 0;
#X connect 1 1 5 0;
#X connect 3 0 0 0;
#X connect 5 0 4 0;
#X restore 41 222 pd CHANGE_SYMBOL;
#X obj 41 93 unpack s f;
#X obj 41 255 pack s f;
#X msg 41 289 open \$1 \$2;
#X obj 41 36 inlet;
#X obj 41 179 spigot;
#X obj 138 124 t f f;
#X obj 41 347 outlet;
#X text 131 32 ** DISTRIBUI PARA CADA SLOT DO BUFFER;
#X text 217 222 FILTRA REPETIÇÕES;
#X text 195 156 FILTRA POR SLOT NO BUFFER;
#X obj 185 189 - 1;
#X text 229 190 CORRIGE INDEX PARA BUFFER;
#X obj 138 155 == 5;
#X connect 0 0 2 0;
#X connect 1 0 5 0;
#X connect 1 1 6 0;
#X connect 2 0 3 0;
#X connect 3 0 7 0;
#X connect 4 0 1 0;
#X connect 5 0 0 0;
#X connect 6 0 13 0;
#X connect 6 1 11 0;
#X connect 11 0 2 1;
#X connect 13 0 5 1;
#X restore 441 121 pd OPEN_5;
#N canvas 154 103 553 397 OPEN_6 0;
#N canvas 414 511 331 252 CHANGE_SYMBOL 0;
#X obj 57 92 t s s;
#X obj 57 129 sel s;
#X text 124 106 [change] symbol!;
#X obj 57 45 inlet;
#X obj 104 203 outlet;
#X obj 104 159 symbol;
#X connect 0 0 1 1;
#X connect 0 1 1 0;
#X connect 1 1 5 0;
#X connect 3 0 0 0;
#X connect 5 0 4 0;
#X restore 41 222 pd CHANGE_SYMBOL;
#X obj 41 93 unpack s f;
#X obj 41 255 pack s f;
#X msg 41 289 open \$1 \$2;
#X obj 41 36 inlet;
#X obj 41 179 spigot;
#X obj 138 124 t f f;
#X obj 41 347 outlet;
#X text 131 32 ** DISTRIBUI PARA CADA SLOT DO BUFFER;
#X text 217 222 FILTRA REPETIÇÕES;
#X text 195 156 FILTRA POR SLOT NO BUFFER;
#X obj 185 189 - 1;
#X text 229 190 CORRIGE INDEX PARA BUFFER;
#X obj 138 155 == 6;
#X connect 0 0 2 0;
#X connect 1 0 5 0;
#X connect 1 1 6 0;
#X connect 2 0 3 0;
#X connect 3 0 7 0;
#X connect 4 0 1 0;
#X connect 5 0 0 0;
#X connect 6 0 13 0;
#X connect 6 1 11 0;
#X connect 11 0 2 1;
#X connect 13 0 5 1;
#X restore 541 121 pd OPEN_6;
#N canvas 154 103 553 397 OPEN_7 0;
#N canvas 414 511 331 252 CHANGE_SYMBOL 0;
#X obj 57 92 t s s;
#X obj 57 129 sel s;
#X text 124 106 [change] symbol!;
#X obj 57 45 inlet;
#X obj 104 203 outlet;
#X obj 104 159 symbol;
#X connect 0 0 1 1;
#X connect 0 1 1 0;
#X connect 1 1 5 0;
#X connect 3 0 0 0;
#X connect 5 0 4 0;
#X restore 41 222 pd CHANGE_SYMBOL;
#X obj 41 93 unpack s f;
#X obj 41 255 pack s f;
#X msg 41 289 open \$1 \$2;
#X obj 41 36 inlet;
#X obj 41 179 spigot;
#X obj 138 124 t f f;
#X obj 41 347 outlet;
#X text 131 32 ** DISTRIBUI PARA CADA SLOT DO BUFFER;
#X text 217 222 FILTRA REPETIÇÕES;
#X text 195 156 FILTRA POR SLOT NO BUFFER;
#X obj 185 189 - 1;
#X text 229 190 CORRIGE INDEX PARA BUFFER;
#X obj 138 155 == 7;
#X connect 0 0 2 0;
#X connect 1 0 5 0;
#X connect 1 1 6 0;
#X connect 2 0 3 0;
#X connect 3 0 7 0;
#X connect 4 0 1 0;
#X connect 5 0 0 0;
#X connect 6 0 13 0;
#X connect 6 1 11 0;
#X connect 11 0 2 1;
#X connect 13 0 5 1;
#X restore 641 121 pd OPEN_7;
#N canvas 154 103 553 397 OPEN_8 0;
#N canvas 414 511 331 252 CHANGE_SYMBOL 0;
#X obj 57 92 t s s;
#X obj 57 129 sel s;
#X text 124 106 [change] symbol!;
#X obj 57 45 inlet;
#X obj 104 203 outlet;
#X obj 104 159 symbol;
#X connect 0 0 1 1;
#X connect 0 1 1 0;
#X connect 1 1 5 0;
#X connect 3 0 0 0;
#X connect 5 0 4 0;
#X restore 41 222 pd CHANGE_SYMBOL;
#X obj 41 93 unpack s f;
#X obj 41 255 pack s f;
#X msg 41 289 open \$1 \$2;
#X obj 41 36 inlet;
#X obj 41 179 spigot;
#X obj 138 124 t f f;
#X obj 41 347 outlet;
#X text 131 32 ** DISTRIBUI PARA CADA SLOT DO BUFFER;
#X text 217 222 FILTRA REPETIÇÕES;
#X text 195 156 FILTRA POR SLOT NO BUFFER;
#X obj 185 189 - 1;
#X text 229 190 CORRIGE INDEX PARA BUFFER;
#X obj 138 155 == 8;
#X connect 0 0 2 0;
#X connect 1 0 5 0;
#X connect 1 1 6 0;
#X connect 2 0 3 0;
#X connect 3 0 7 0;
#X connect 4 0 1 0;
#X connect 5 0 0 0;
#X connect 6 0 13 0;
#X connect 6 1 11 0;
#X connect 11 0 2 1;
#X connect 13 0 5 1;
#X restore 741 121 pd OPEN_8;
#X connect 1 0 5 0;
#X connect 2 0 0 0;
#X connect 5 0 2 0;
#X connect 5 1 6 0;
#X connect 5 2 7 0;
#X connect 5 3 8 0;
#X connect 5 4 9 0;
#X connect 5 5 10 0;
#X connect 5 6 11 0;
#X connect 5 7 12 0;
#X connect 6 0 0 0;
#X connect 7 0 0 0;
#X connect 8 0 0 0;
#X connect 9 0 0 0;
#X connect 10 0 0 0;
#X connect 11 0 0 0;
#X connect 12 0 0 0;
#X restore 550 175 pd IMAGE_BUFFER;
#X obj 448 174 s \$0-slot;
#X obj 308 232 r \$0-slot;
#X obj 308 261 - 1;
#X text 353 262 CORRIGE SLOT PARA INDEX DO BUFFER;
#X obj 326 134 route render slot file;
#X text 548 204 BUFFER LOCAL PARA IMAGENS;
#X text 218 18 ** RENDERIZA IMAGENS NA JANELA DE SAÍDA;
#X obj 326 163 t b f;
#X obj 308 290 clip 0 10;
#X connect 0 0 4 0;
#X connect 1 0 9 0;
#X connect 2 0 1 0;
#X connect 3 0 2 0;
#X connect 4 0 2 0;
#X connect 6 0 7 0;
#X connect 7 0 15 0;
#X connect 9 0 5 0;
#X connect 12 0 13 0;
#X connect 13 0 19 0;
#X connect 15 0 18 0;
#X connect 15 1 11 0;
#X connect 15 2 10 0;
#X connect 18 0 13 0;
#X connect 18 1 8 0;
#X connect 19 0 9 1;
