#N canvas 426 205 666 558 16;
#X obj 48 168 list split 1;
#X obj 48 232 list;
#X obj 48 264 list split 1;
#X obj 185 102 inlet ARRAY_LIST;
#X obj 148 370 list;
#X obj 48 102 inlet LIST;
#X obj 148 402 list split 1;
#X obj 148 434 t s;
#X obj 81 504 array set;
#X obj 69 296 list;
#X obj 48 134 t l b;
#X msg 192 434 symbol;
#X text 44 31 ** RECEBE LISTA GERADA POR [arrast_arraypack] E LISTA
DOS ARRAYS PARA ONDE MANDAR OS CONTEÚDOS DESEMPACOTADOS;
#X obj 264 504 outlet ARRAY_SIZE;
#X text 261 478 TAMANHO DE CADA ARRAY DESEMPACOTADO;
#X obj 48 336 t b l b;
#X obj 48 200 t b f f f;
#X obj 48 370 delay 10;
#X obj 135 336 / 1000;
#X connect 0 0 16 0;
#X connect 0 1 1 1;
#X connect 1 0 2 0;
#X connect 2 0 15 0;
#X connect 2 1 9 1;
#X connect 3 0 4 1;
#X connect 4 0 6 0;
#X connect 5 0 10 0;
#X connect 6 0 7 0;
#X connect 6 1 4 1;
#X connect 7 0 8 2;
#X connect 9 0 0 0;
#X connect 10 0 0 0;
#X connect 10 1 11 0;
#X connect 11 0 8 2;
#X connect 15 0 17 0;
#X connect 15 1 8 0;
#X connect 15 2 4 0;
#X connect 16 0 1 0;
#X connect 16 1 2 1;
#X connect 16 2 18 0;
#X connect 16 3 13 0;
#X connect 17 0 9 0;
#X connect 18 0 17 1;
