#N canvas 23 94 1362 652 16;
#X declare -lib Gem;
#X obj 33 25 arrast_cpu;
#X obj 137 349 arrast_cmotor 1;
#X obj 311 368 hradio 25 1 0 3 empty empty empty 0 -8 0 10 -262144
-1 -1 0;
#X obj 33 281 arrast_vmotor 1;
#X obj 33 481 arrast_fxmotor 1;
#X obj 563 237 - 1;
#X obj 724 237 - 1;
#X obj 886 237 - 1;
#X obj 1048 237 - 1;
#X obj 222 579 arrast_mapmotor 1;
#X obj 311 500 hradio 25 1 0 2 empty empty empty 0 -8 0 10 -262144
-1 -1 0;
#N canvas 55 160 1169 353 COMMUNICATION 0;
#X text 745 293 SEND MESSAGES TO 1st INSTANCE;
#X obj 35 63 r RECEIVE_FROM_1;
#X obj 669 62 loadbang;
#X msg 669 96 \; pd dsp 1;
#X obj 669 248 list trim;
#X obj 669 292 stdout;
#X text 770 58 TURN DSP ON - NECESSARY TO ENABLE COMMUNICATION BETWEEN
THE 2 INSTANCES VIA [pd~], f 32;
#X obj 397 222 s MODE_BUS;
#X obj 263 222 s SOURCE_BUS;
#X obj 35 178 s GEMWIN_BUS;
#X obj 169 178 s VIDEO_BUS;
#X obj 293 178 s IMAGE_BUS;
#X obj 417 178 s CAMERA_BUS;
#X obj 35 222 s TRANSF_BUS;
#X obj 169 222 s FX_BUS;
#X obj 511 222 s MAP_BUS;
#X obj 669 170 r MAP_FB_BUS;
#X text 804 170 RECEIVE FEEDBACK FROM MAPS NODES;
#X obj 669 214 list prepend mapFB;
#X obj 35 114 route gemwin video image camera transf fx source mode
map export;
#X obj 35 266 s EXPORT_BUS;
#X text 353 15 ** MANAGES COMMUNICATION WITH 1st INSTANCE;
#X text 214 63 RECEIVE MESSAGES FROM INSTANCE 1;
#X connect 1 0 19 0;
#X connect 2 0 3 0;
#X connect 4 0 5 0;
#X connect 16 0 18 0;
#X connect 18 0 4 0;
#X connect 19 0 9 0;
#X connect 19 1 10 0;
#X connect 19 2 11 0;
#X connect 19 3 12 0;
#X connect 19 4 13 0;
#X connect 19 5 14 0;
#X connect 19 6 8 0;
#X connect 19 7 7 0;
#X connect 19 8 15 0;
#X connect 19 9 20 0;
#X restore 563 75 pd COMMUNICATION;
#X obj 33 177 gemwin 24;
#X obj 33 579 arrast_mixmotor 1;
#N canvas 172 191 522 319 SELECT_SOURCE 0;
#X obj 39 187 spigot;
#X obj 389 65 inlet;
#X obj 96 153 == 0;
#X obj 39 65 inlet;
#X obj 149 187 spigot;
#X obj 149 65 inlet;
#X obj 259 187 spigot;
#X obj 259 65 inlet;
#X obj 389 129 clip 0 2;
#X obj 206 153 == 1;
#X obj 316 153 == 2;
#X obj 149 262 outlet;
#X text 77 19 ** SELECTS IMAGE SOURCE IN CHANNEL;
#X connect 0 0 11 0;
#X connect 1 0 8 0;
#X connect 2 0 0 1;
#X connect 3 0 0 0;
#X connect 4 0 11 0;
#X connect 5 0 4 0;
#X connect 6 0 11 0;
#X connect 7 0 6 0;
#X connect 8 0 2 0;
#X connect 8 0 9 0;
#X connect 8 0 10 0;
#X connect 9 0 4 1;
#X connect 10 0 6 1;
#X restore 33 393 pd SELECT_SOURCE;
#N canvas 247 184 390 313 SELECT_MODE 0;
#X obj 42 195 spigot;
#X obj 266 68 inlet;
#X obj 99 146 == 0;
#X obj 42 68 inlet;
#X obj 146 195 spigot;
#X obj 203 146 == 1;
#X obj 42 250 outlet;
#X obj 266 122 clip 0 1;
#X obj 146 250 outlet;
#X text 72 20 ** SELECTS RENDER MODE;
#X connect 0 0 6 0;
#X connect 1 0 7 0;
#X connect 2 0 0 1;
#X connect 3 0 0 0;
#X connect 3 0 4 0;
#X connect 4 0 8 0;
#X connect 5 0 4 1;
#X connect 7 0 2 0;
#X connect 7 0 5 0;
#X restore 33 525 pd SELECT_MODE;
#X obj 724 368 hradio 25 1 0 3 empty empty empty 0 -8 0 10 -262144
-1 -1 0;
#X obj 724 500 hradio 25 1 0 2 empty empty empty 0 -8 0 10 -262144
-1 -1 0;
#N canvas 184 221 515 321 SELECT_SOURCE 0;
#X obj 39 187 spigot;
#X obj 389 65 inlet;
#X obj 96 153 == 0;
#X obj 39 65 inlet;
#X obj 149 187 spigot;
#X obj 149 65 inlet;
#X obj 259 187 spigot;
#X obj 259 65 inlet;
#X obj 389 129 clip 0 2;
#X obj 206 153 == 1;
#X obj 316 153 == 2;
#X obj 149 262 outlet;
#X text 83 18 ** SELECT IMAGE SOURCE IN CHANNEL;
#X connect 0 0 11 0;
#X connect 1 0 8 0;
#X connect 2 0 0 1;
#X connect 3 0 0 0;
#X connect 4 0 11 0;
#X connect 5 0 4 0;
#X connect 6 0 11 0;
#X connect 7 0 6 0;
#X connect 8 0 2 0;
#X connect 8 0 9 0;
#X connect 8 0 10 0;
#X connect 9 0 4 1;
#X connect 10 0 6 1;
#X restore 446 393 pd SELECT_SOURCE;
#N canvas 226 174 393 305 SELECT_MODE 0;
#X obj 42 195 spigot;
#X obj 266 68 inlet;
#X obj 99 146 == 0;
#X obj 42 68 inlet;
#X obj 146 195 spigot;
#X obj 203 146 == 1;
#X obj 42 250 outlet;
#X obj 266 122 clip 0 1;
#X obj 146 250 outlet;
#X text 70 20 ** SELECT RENDERING MODE;
#X connect 0 0 6 0;
#X connect 1 0 7 0;
#X connect 2 0 0 1;
#X connect 3 0 0 0;
#X connect 3 0 4 0;
#X connect 4 0 8 0;
#X connect 5 0 4 1;
#X connect 7 0 2 0;
#X connect 7 0 5 0;
#X restore 446 525 pd SELECT_MODE;
#X obj 1137 368 hradio 25 1 0 3 empty empty empty 0 -8 0 10 -262144
-1 -1 0;
#X obj 1137 500 hradio 25 1 0 2 empty empty empty 0 -8 0 10 -262144
-1 -1 0;
#N canvas 299 236 512 317 SELECT_SOURCE 0;
#X obj 39 187 spigot;
#X obj 389 65 inlet;
#X obj 96 153 == 0;
#X obj 39 65 inlet;
#X obj 149 187 spigot;
#X obj 149 65 inlet;
#X obj 259 187 spigot;
#X obj 259 65 inlet;
#X obj 389 129 clip 0 2;
#X obj 206 153 == 1;
#X obj 316 153 == 2;
#X obj 149 262 outlet;
#X text 82 19 ** SELECT IMAGE SOURCE IN CHANNEL;
#X connect 0 0 11 0;
#X connect 1 0 8 0;
#X connect 2 0 0 1;
#X connect 3 0 0 0;
#X connect 4 0 11 0;
#X connect 5 0 4 0;
#X connect 6 0 11 0;
#X connect 7 0 6 0;
#X connect 8 0 2 0;
#X connect 8 0 9 0;
#X connect 8 0 10 0;
#X connect 9 0 4 1;
#X connect 10 0 6 1;
#X restore 859 393 pd SELECT_SOURCE;
#N canvas 185 193 392 307 SELECT_MODE 0;
#X obj 42 195 spigot;
#X obj 266 68 inlet;
#X obj 99 146 == 0;
#X obj 42 68 inlet;
#X obj 146 195 spigot;
#X obj 203 146 == 1;
#X obj 42 250 outlet;
#X obj 266 122 clip 0 1;
#X obj 146 250 outlet;
#X text 70 20 ** SELECT RENDERING MODE;
#X connect 0 0 6 0;
#X connect 1 0 7 0;
#X connect 2 0 0 1;
#X connect 3 0 0 0;
#X connect 3 0 4 0;
#X connect 4 0 8 0;
#X connect 5 0 4 1;
#X connect 7 0 2 0;
#X connect 7 0 5 0;
#X restore 859 525 pd SELECT_MODE;
#X obj 1550 368 hradio 25 1 0 3 empty empty empty 0 -8 0 10 -262144
-1 -1 0;
#X obj 1550 500 hradio 25 1 0 2 empty empty empty 0 -8 0 10 -262144
-1 -1 0;
#N canvas 303 211 514 319 SELECT_SOURCE 0;
#X obj 39 187 spigot;
#X obj 389 65 inlet;
#X obj 96 153 == 0;
#X obj 39 65 inlet;
#X obj 149 187 spigot;
#X obj 149 65 inlet;
#X obj 259 187 spigot;
#X obj 259 65 inlet;
#X obj 389 129 clip 0 2;
#X obj 206 153 == 1;
#X obj 316 153 == 2;
#X obj 149 262 outlet;
#X text 83 19 ** SELECT IMAGE SOURCE IN CHANNEL;
#X connect 0 0 11 0;
#X connect 1 0 8 0;
#X connect 2 0 0 1;
#X connect 3 0 0 0;
#X connect 4 0 11 0;
#X connect 5 0 4 0;
#X connect 6 0 11 0;
#X connect 7 0 6 0;
#X connect 8 0 2 0;
#X connect 8 0 9 0;
#X connect 8 0 10 0;
#X connect 9 0 4 1;
#X connect 10 0 6 1;
#X restore 1272 393 pd SELECT_SOURCE;
#N canvas 264 194 389 307 SELECT_MODE 0;
#X obj 42 195 spigot;
#X obj 266 68 inlet;
#X obj 99 146 == 0;
#X obj 42 68 inlet;
#X obj 146 195 spigot;
#X obj 203 146 == 1;
#X obj 42 250 outlet;
#X obj 266 122 clip 0 1;
#X obj 146 250 outlet;
#X text 70 20 ** SELECT RENDERING MODE;
#X connect 0 0 6 0;
#X connect 1 0 7 0;
#X connect 2 0 0 1;
#X connect 3 0 0 0;
#X connect 3 0 4 0;
#X connect 4 0 8 0;
#X connect 5 0 4 1;
#X connect 7 0 2 0;
#X connect 7 0 5 0;
#X restore 1272 525 pd SELECT_MODE;
#X obj 446 579 arrast_mixmotor 2;
#X obj 859 579 arrast_mixmotor 3;
#X obj 1272 579 arrast_mixmotor 4;
#X obj 563 169 r SOURCE_BUS;
#X obj 33 143 r GEMWIN_BUS;
#X obj 563 203 route sourceChannel1 sourceChannel2 sourceChannel3 sourceChannel4
, f 65;
#X text 411 16 ** 2nd INSTANCE - RENDERING OF MASTER WINDOW;
#X text 698 170 RECEIVE CONTENT SOURCE ENABLED BY CHANNEL;
#X text 29 207 MASTER WINDOW OF GEM;
#X text 736 76 COMMUNICATION WITH 1st INSTANCE;
#X text 30 253 CHAINS OF RENDERING BY CHANNEL;
#X obj 311 476 r MODE_BUS;
#X obj 33 437 arrast_tmotor 1;
#X obj 85 315 arrast_imotor 1;
#N canvas 206 118 768 557 EXPORT 0;
#X obj 248 423 r GEMWIN_BUS;
#X obj 248 457 route dimen;
#X obj 41 501 pix_write 0 0 640 480;
#X obj 41 177 gemhead 100;
#X obj 41 156 tgl 15 0 empty empty empty 17 7 0 10 -262144 -1 -1 1
1;
#X obj 41 93 loadbang;
#X text 230 20 ** VIDEO RECORDING SYSTEM;
#X text 166 178 AFTER ALL CHANNELS;
#X obj 241 64 r EXPORT_BUS;
#X obj 88 245 spigot;
#X obj 41 211 t a b;
#X text 286 384 CREATE NAMES FOR FRAMES;
#X text 372 458 RECORDING DIMENSION = MASTER WINDOW;
#X text 265 501 RECORD FRAMES IN DISK;
#X obj 288 226 sel 1;
#X msg 41 122 1;
#X obj 241 98 unpack f f s;
#X obj 241 132 t f f;
#X msg 288 255 0;
#X obj 288 284 pack f f s;
#X obj 288 313 route 0;
#X msg 288 354 file \$2 \$1;
#X text 385 98 REC / QUALITY / PATH;
#X connect 0 0 1 0;
#X connect 1 0 2 2;
#X connect 3 0 10 0;
#X connect 4 0 3 0;
#X connect 5 0 15 0;
#X connect 8 0 16 0;
#X connect 9 0 2 0;
#X connect 10 0 2 0;
#X connect 10 1 9 0;
#X connect 14 0 18 0;
#X connect 15 0 4 0;
#X connect 16 0 17 0;
#X connect 16 1 19 1;
#X connect 16 2 19 2;
#X connect 17 0 9 1;
#X connect 17 1 14 0;
#X connect 18 0 19 0;
#X connect 19 0 20 0;
#X connect 20 0 21 0;
#X connect 21 0 2 0;
#X restore 563 109 pd EXPORT;
#X text 668 110 VIDEO RECORDING SYSTEM;
#X obj 33 75 declare -lib Gem;
#X text 30 105 DECLARE GEM EXTERNAL LIBRARY, f 30;
#X obj 446 281 arrast_vmotor 2;
#X obj 859 281 arrast_vmotor 3;
#X obj 1272 281 arrast_vmotor 4;
#X obj 1324 315 arrast_imotor 4;
#X obj 498 315 arrast_imotor 2;
#X obj 911 315 arrast_imotor 3;
#X obj 550 349 arrast_cmotor 2;
#X obj 963 349 arrast_cmotor 3;
#X obj 1376 349 arrast_cmotor 4;
#X obj 1272 437 arrast_tmotor 4;
#X obj 446 437 arrast_tmotor 2;
#X obj 859 437 arrast_tmotor 3;
#X obj 635 579 arrast_mapmotor 2;
#X obj 1048 579 arrast_mapmotor 3;
#X obj 1461 579 arrast_mapmotor 4;
#X obj 446 481 arrast_fxmotor 2;
#X obj 859 481 arrast_fxmotor 3;
#X obj 1272 481 arrast_fxmotor 4;
#X connect 1 0 14 2;
#X connect 2 0 14 3;
#X connect 3 0 14 0;
#X connect 4 0 15 0;
#X connect 5 0 2 0;
#X connect 6 0 16 0;
#X connect 7 0 20 0;
#X connect 8 0 24 0;
#X connect 10 0 15 1;
#X connect 14 0 40 0;
#X connect 15 0 13 0;
#X connect 15 1 9 0;
#X connect 16 0 18 3;
#X connect 17 0 19 1;
#X connect 18 0 56 0;
#X connect 19 0 28 0;
#X connect 19 1 58 0;
#X connect 20 0 22 3;
#X connect 21 0 23 1;
#X connect 22 0 57 0;
#X connect 23 0 29 0;
#X connect 23 1 59 0;
#X connect 24 0 26 3;
#X connect 25 0 27 1;
#X connect 26 0 55 0;
#X connect 27 0 30 0;
#X connect 27 1 60 0;
#X connect 31 0 33 0;
#X connect 32 0 12 0;
#X connect 33 0 5 0;
#X connect 33 1 6 0;
#X connect 33 2 7 0;
#X connect 33 3 8 0;
#X connect 39 0 10 0;
#X connect 39 0 17 0;
#X connect 39 0 21 0;
#X connect 39 0 25 0;
#X connect 40 0 4 0;
#X connect 41 0 14 1;
#X connect 46 0 18 0;
#X connect 47 0 22 0;
#X connect 48 0 26 0;
#X connect 49 0 26 1;
#X connect 50 0 18 1;
#X connect 51 0 22 1;
#X connect 52 0 18 2;
#X connect 53 0 22 2;
#X connect 54 0 26 2;
#X connect 55 0 63 0;
#X connect 56 0 61 0;
#X connect 57 0 62 0;
#X connect 61 0 19 0;
#X connect 62 0 23 0;
#X connect 63 0 27 0;
