#N canvas 126 170 1028 389 16;
#X obj 44 60 r \$1-to_arrast_slot;
#X text 252 60 RECEBE CONTROLES EXTERNOS;
#N canvas 44 244 1317 418 BRAIN 0;
#X obj 910 232 del \$3;
#X obj 967 167 f \$3;
#X obj 910 133 t b b;
#X obj 967 196 * 2;
#X obj 687 135 route \$3;
#X text 1073 319 SLOT;
#X obj 687 98 r \$1-slotFilePreset;
#X obj 910 96 r \$1-slotFlush;
#X obj 910 362 s \$1-slotList;
#X text 49 69 ATUALIZA SLOT ATUAL COM VALORES DA MEMÓRIA, f 23;
#X obj 51 148 sel \$3;
#X obj 51 178 s \$0-memo-load;
#X obj 51 118 r \$1-activeSlot;
#X text 685 69 ENTRADA DE PRESET;
#X obj 910 277 array get \$0-memo;
#X obj 910 319 list prepend \$3;
#X obj 687 207 array set \$0-memo;
#X text 1023 164 ATRASO PARA ORDENAR ESCRITA POR SLOT, f 15;
#X text 1093 278 LÊ MEMÓRIA;
#X text 1054 362 ENVIA PARA GERENCIADOR;
#X text 707 181 ESCREVE MEMÓRIA;
#X text 295 340 ARRAY DE MEMÓRIA LOCAL - CADA SLOT 10 PARÂMETROS
;
#X obj 51 339 array define \$0-memo 10;
#X text 316 20 ** GERENCIA MEMÓRIA DE CADA SLOT \, COM PARÂMETROS
DE TRANSFORMAÇÃO, f 65;
#X obj 320 260 s \$0-memo-reset;
#X obj 320 196 sel;
#X obj 347 166 f \$3;
#X obj 347 137 loadbang;
#X text 318 69 REINICIA PARÂMETROS DO SLOT ATUAL;
#X text 475 97 RECEBE COMANDO DA UNIDADE DE TRANSFORMAÇÕES, f 14
;
#X obj 320 225 t b;
#X text 908 67 SAÍDA PARA GERENCIADOR DE PRESETS;
#X obj 320 100 r \$1-resetSlot;
#X connect 0 0 14 0;
#X connect 1 0 3 0;
#X connect 2 0 0 0;
#X connect 2 1 1 0;
#X connect 3 0 0 1;
#X connect 4 0 16 0;
#X connect 6 0 4 0;
#X connect 7 0 2 0;
#X connect 10 0 11 0;
#X connect 12 0 10 0;
#X connect 14 0 15 0;
#X connect 15 0 8 0;
#X connect 25 0 30 0;
#X connect 26 0 25 1;
#X connect 27 0 26 0;
#X connect 30 0 24 0;
#X connect 32 0 25 0;
#X restore 564 80 pd BRAIN;
#X text 660 80 GERENCIA MEMÓRIA E AÇÕES DO SLOT;
#X obj 44 148 route transp white black fadeIn fadeOut flipH flipV size
posX posY;
#X text 172 19 ** GERENCIA ENTRADA DE PARÂMETROS \, MEMÓRIA E AUTOMAÇÕES
DE CADA SLOT, f 68;
#X obj 44 267 arrast_param \$1 black \$0-memo 2 0 \$3;
#X obj 44 207 arrast_param \$1 transp \$0-memo 0 1 \$3;
#X obj 44 237 arrast_param \$1 white \$0-memo 1 1 \$3;
#X obj 44 297 arrast_param \$1 fadeIn \$0-memo 3 0 \$3;
#X obj 44 327 arrast_param \$1 fadeOut \$0-memo 4 1 \$3;
#X obj 464 207 arrast_param \$1 flipH \$0-memo 5 0 \$3;
#X obj 464 237 arrast_param \$1 flipV \$0-memo 6 0 \$3;
#X obj 464 267 arrast_param \$1 size \$0-memo 7 1 \$3;
#X obj 464 297 arrast_param \$1 posX \$0-memo 8 0 \$3;
#X obj 464 327 arrast_param \$1 posY \$0-memo 9 0 \$3;
#X connect 0 0 4 0;
#X connect 4 0 7 0;
#X connect 4 1 8 0;
#X connect 4 2 6 0;
#X connect 4 3 9 0;
#X connect 4 4 10 0;
#X connect 4 5 11 0;
#X connect 4 6 12 0;
#X connect 4 7 13 0;
#X connect 4 8 14 0;
#X connect 4 9 15 0;
