#N canvas 179 56 584 590 16;
#X obj 50 200 cnv 15 150 65 empty empty empty 20 12 0 14 -191407 -66577
0;
#X obj 52 132 pix_rgba;
#X obj 52 397 pix_alpha;
#X obj 61 208 hsl 128 12 0 1 0 0 empty empty empty -2 -8 0 10 -204800
-1 -1 12700 1;
#X obj 61 220 hsl 128 12 0 1 0 0 empty empty empty -2 -8 0 10 -4032
-1 -1 0 1;
#X msg 442 373 \$1 \$1 \$1;
#X obj 442 318 line;
#X msg 318 373 \$1 \$1 \$1;
#X obj 61 237 hsl 128 10 0 1 0 0 empty empty empty -2 -8 0 10 -262144
-1 -1 12700 1;
#X obj 318 318 line;
#X obj 52 431 alpha;
#X obj 194 318 line;
#X obj 73 318 line;
#X obj 61 247 hsl 128 10 0 1 0 0 empty empty empty -2 -8 0 10 -1 -262144
-1 0 1;
#X obj 26 382 tgl 15 0 empty empty empty 17 7 0 10 -262144 -1 -1 0
1;
#X obj 226 150 loadbang;
#X msg 226 184 0;
#X msg 276 184 1;
#X obj 52 98 pix_separator;
#X obj 52 465 separator;
#X obj 226 98 route transp1 transp2 wh bl;
#X obj 52 64 inlet GEMLIST;
#X obj 226 64 inlet CONTROL;
#X obj 73 289 pack 0 50;
#X obj 194 289 pack 0 50;
#X obj 318 289 pack 0 50;
#X obj 442 289 pack 0 50;
#N canvas 585 233 468 436 CONDITION 0;
#X obj 52 82 inlet;
#X obj 52 378 outlet;
#X obj 116 82 inlet;
#X obj 116 150 t b f;
#X obj 200 82 inlet;
#X obj 264 82 inlet;
#X obj 52 208 +;
#X obj 52 174 f;
#X obj 52 116 != 1;
#X obj 116 116 != 0;
#X obj 264 150 t b f;
#X obj 200 208 +;
#X obj 200 174 f;
#X obj 200 116 != 1;
#X obj 264 116 != 0;
#X obj 200 242 t b f;
#X obj 52 300 +;
#X obj 52 266 f;
#X obj 52 334 != 0;
#X text 50 19 ** SE TODOS OS CONTROLES ESTIVEREM NA POSIÇÃO INICIAL
O ALPHA É DESLIGADO, f 37;
#X connect 0 0 8 0;
#X connect 2 0 9 0;
#X connect 3 0 7 0;
#X connect 3 1 6 1;
#X connect 4 0 13 0;
#X connect 5 0 14 0;
#X connect 6 0 17 0;
#X connect 7 0 6 0;
#X connect 8 0 7 0;
#X connect 9 0 3 0;
#X connect 10 0 12 0;
#X connect 10 1 11 1;
#X connect 11 0 15 0;
#X connect 12 0 11 0;
#X connect 13 0 12 0;
#X connect 14 0 10 0;
#X connect 15 0 17 0;
#X connect 15 1 16 1;
#X connect 16 0 18 0;
#X connect 17 0 16 0;
#X connect 18 0 1 0;
#X restore 155 358 pd CONDITION;
#X obj 52 519 outlet GEMLIST;
#X text 87 18 ** UNIDADE DE CONTROLE DE TRANSPARÊNCIA;
#X connect 1 0 2 0;
#X connect 2 0 10 0;
#X connect 3 0 23 0;
#X connect 4 0 24 0;
#X connect 5 0 2 4;
#X connect 6 0 5 0;
#X connect 6 0 27 3;
#X connect 7 0 2 3;
#X connect 8 0 25 0;
#X connect 9 0 7 0;
#X connect 9 0 27 2;
#X connect 10 0 19 0;
#X connect 11 0 2 2;
#X connect 11 0 27 1;
#X connect 12 0 2 1;
#X connect 12 0 27 0;
#X connect 13 0 26 0;
#X connect 14 0 10 0;
#X connect 14 0 2 0;
#X connect 15 0 16 0;
#X connect 15 0 17 0;
#X connect 16 0 4 0;
#X connect 16 0 13 0;
#X connect 17 0 3 0;
#X connect 17 0 8 0;
#X connect 18 0 1 0;
#X connect 19 0 28 0;
#X connect 20 0 3 0;
#X connect 20 1 4 0;
#X connect 20 2 8 0;
#X connect 20 3 13 0;
#X connect 21 0 18 0;
#X connect 22 0 20 0;
#X connect 23 0 12 0;
#X connect 24 0 11 0;
#X connect 25 0 9 0;
#X connect 26 0 6 0;
#X connect 27 0 14 0;
#X coords 0 -1 1 1 150 65 2 50 200;
