#N canvas 40 114 1321 649 16;
#X declare -stdlib Gem;
#X obj 33 15 arrast_cpu;
#X obj 137 349 arrast_cmotor 1;
#X obj 311 368 hradio 25 1 0 3 empty empty empty 0 -8 0 10 -262144
-1 -1 1;
#X obj 33 281 arrast_vmotor 1;
#X obj 33 481 arrast_fxmotor 1;
#X obj 592 227 - 1;
#X obj 753 227 - 1;
#X obj 915 227 - 1;
#X obj 1077 227 - 1;
#X obj 222 579 arrast_mapmotor 1;
#X obj 311 500 hradio 25 1 0 2 empty empty empty 0 -8 0 10 -262144
-1 -1 1;
#N canvas 36 155 1242 351 COMMUNICATION 0;
#X text 745 293 ENVIA MENSAGENS PARA 1 INSTÂNCIA;
#X obj 35 63 r RECEIVE_FROM_1;
#X obj 669 62 loadbang;
#X msg 669 96 \; pd dsp 1;
#X text 214 63 RECEBE MENSAGENS DA INSTÂNCIA 1;
#X obj 669 248 list trim;
#X obj 669 292 stdout;
#X text 770 58 LIGA DSP - NECESSÁRIO PARA HABILITAR COMUNICAÇÃO
ENTRE AS 2 INSTÂNCIAS VIA [pd~], f 32;
#X obj 397 202 s MODE_BUS;
#X obj 263 202 s SOURCE_BUS;
#X obj 35 158 s GEMWIN_BUS;
#X obj 169 158 s VIDEO_BUS;
#X obj 293 158 s IMAGE_BUS;
#X obj 417 158 s CAMERA_BUS;
#X text 403 15 ** GERENCIA COMUNICAÇÃO COM 1 INSTÂNCIA;
#X obj 35 202 s TRANSF_BUS;
#X obj 169 202 s FX_BUS;
#X obj 511 202 s MAP_BUS;
#X obj 35 114 route gemwin video image camera transf fx source mode
map;
#X obj 669 170 r MAP_FB_BUS;
#X text 804 170 RECEBE FEEDBACK DOS VÉRTICES DOS MAPAS;
#X obj 669 214 list prepend mapFB;
#X connect 1 0 18 0;
#X connect 2 0 3 0;
#X connect 5 0 6 0;
#X connect 18 0 10 0;
#X connect 18 1 11 0;
#X connect 18 2 12 0;
#X connect 18 3 13 0;
#X connect 18 4 15 0;
#X connect 18 5 16 0;
#X connect 18 6 9 0;
#X connect 18 7 8 0;
#X connect 18 8 17 0;
#X connect 19 0 21 0;
#X connect 21 0 5 0;
#X restore 592 75 pd COMMUNICATION;
#X obj 33 75 declare -stdlib Gem;
#X obj 33 173 gemwin 24;
#X obj 33 579 arrast_mixmotor 1;
#N canvas 676 310 509 314 SELECT_SOURCE 0;
#X obj 39 187 spigot;
#X obj 389 65 inlet;
#X obj 96 153 == 0;
#X obj 39 65 inlet;
#X obj 149 187 spigot;
#X obj 149 65 inlet;
#X obj 259 187 spigot;
#X obj 259 65 inlet;
#X obj 389 129 clip 0 2;
#X obj 206 153 == 1;
#X obj 316 153 == 2;
#X obj 149 262 outlet;
#X text 46 19 ** SELECIONA FONTE DE IMAGEM NO CANAL;
#X connect 0 0 11 0;
#X connect 1 0 8 0;
#X connect 2 0 0 1;
#X connect 3 0 0 0;
#X connect 4 0 11 0;
#X connect 5 0 4 0;
#X connect 6 0 11 0;
#X connect 7 0 6 0;
#X connect 8 0 2 0;
#X connect 8 0 9 0;
#X connect 8 0 10 0;
#X connect 9 0 4 1;
#X connect 10 0 6 1;
#X restore 33 393 pd SELECT_SOURCE;
#N canvas 480 176 420 308 SELECT_MODE 0;
#X obj 42 195 spigot;
#X obj 266 68 inlet;
#X obj 99 146 == 0;
#X obj 42 68 inlet;
#X obj 146 195 spigot;
#X obj 203 146 == 1;
#X obj 42 250 outlet;
#X obj 266 122 clip 0 1;
#X obj 146 250 outlet;
#X text 40 20 ** SELECIONA MODO DE RENDERIZAÇÃO;
#X connect 0 0 6 0;
#X connect 1 0 7 0;
#X connect 2 0 0 1;
#X connect 3 0 0 0;
#X connect 3 0 4 0;
#X connect 4 0 8 0;
#X connect 5 0 4 1;
#X connect 7 0 2 0;
#X connect 7 0 5 0;
#X restore 33 525 pd SELECT_MODE;
#X obj 724 368 hradio 25 1 0 3 empty empty empty 0 -8 0 10 -262144
-1 -1 1;
#X obj 724 500 hradio 25 1 0 2 empty empty empty 0 -8 0 10 -262144
-1 -1 1;
#N canvas 676 310 509 314 SELECT_SOURCE 0;
#X obj 39 187 spigot;
#X obj 389 65 inlet;
#X obj 96 153 == 0;
#X obj 39 65 inlet;
#X obj 149 187 spigot;
#X obj 149 65 inlet;
#X obj 259 187 spigot;
#X obj 259 65 inlet;
#X obj 389 129 clip 0 2;
#X obj 206 153 == 1;
#X obj 316 153 == 2;
#X obj 149 262 outlet;
#X text 46 19 ** SELECIONA FONTE DE IMAGEM NO CANAL;
#X connect 0 0 11 0;
#X connect 1 0 8 0;
#X connect 2 0 0 1;
#X connect 3 0 0 0;
#X connect 4 0 11 0;
#X connect 5 0 4 0;
#X connect 6 0 11 0;
#X connect 7 0 6 0;
#X connect 8 0 2 0;
#X connect 8 0 9 0;
#X connect 8 0 10 0;
#X connect 9 0 4 1;
#X connect 10 0 6 1;
#X restore 446 393 pd SELECT_SOURCE;
#N canvas 480 176 420 308 SELECT_MODE 0;
#X obj 42 195 spigot;
#X obj 266 68 inlet;
#X obj 99 146 == 0;
#X obj 42 68 inlet;
#X obj 146 195 spigot;
#X obj 203 146 == 1;
#X obj 42 250 outlet;
#X obj 266 122 clip 0 1;
#X obj 146 250 outlet;
#X text 40 20 ** SELECIONA MODO DE RENDERIZAÇÃO;
#X connect 0 0 6 0;
#X connect 1 0 7 0;
#X connect 2 0 0 1;
#X connect 3 0 0 0;
#X connect 3 0 4 0;
#X connect 4 0 8 0;
#X connect 5 0 4 1;
#X connect 7 0 2 0;
#X connect 7 0 5 0;
#X restore 446 525 pd SELECT_MODE;
#X obj 1137 368 hradio 25 1 0 3 empty empty empty 0 -8 0 10 -262144
-1 -1 1;
#X obj 1137 500 hradio 25 1 0 2 empty empty empty 0 -8 0 10 -262144
-1 -1 1;
#N canvas 676 310 509 314 SELECT_SOURCE 0;
#X obj 39 187 spigot;
#X obj 389 65 inlet;
#X obj 96 153 == 0;
#X obj 39 65 inlet;
#X obj 149 187 spigot;
#X obj 149 65 inlet;
#X obj 259 187 spigot;
#X obj 259 65 inlet;
#X obj 389 129 clip 0 2;
#X obj 206 153 == 1;
#X obj 316 153 == 2;
#X obj 149 262 outlet;
#X text 46 19 ** SELECIONA FONTE DE IMAGEM NO CANAL;
#X connect 0 0 11 0;
#X connect 1 0 8 0;
#X connect 2 0 0 1;
#X connect 3 0 0 0;
#X connect 4 0 11 0;
#X connect 5 0 4 0;
#X connect 6 0 11 0;
#X connect 7 0 6 0;
#X connect 8 0 2 0;
#X connect 8 0 9 0;
#X connect 8 0 10 0;
#X connect 9 0 4 1;
#X connect 10 0 6 1;
#X restore 859 393 pd SELECT_SOURCE;
#N canvas 480 176 420 308 SELECT_MODE 0;
#X obj 42 195 spigot;
#X obj 266 68 inlet;
#X obj 99 146 == 0;
#X obj 42 68 inlet;
#X obj 146 195 spigot;
#X obj 203 146 == 1;
#X obj 42 250 outlet;
#X obj 266 122 clip 0 1;
#X obj 146 250 outlet;
#X text 40 20 ** SELECIONA MODO DE RENDERIZAÇÃO;
#X connect 0 0 6 0;
#X connect 1 0 7 0;
#X connect 2 0 0 1;
#X connect 3 0 0 0;
#X connect 3 0 4 0;
#X connect 4 0 8 0;
#X connect 5 0 4 1;
#X connect 7 0 2 0;
#X connect 7 0 5 0;
#X restore 859 525 pd SELECT_MODE;
#X obj 1550 368 hradio 25 1 0 3 empty empty empty 0 -8 0 10 -262144
-1 -1 1;
#X obj 1550 500 hradio 25 1 0 2 empty empty empty 0 -8 0 10 -262144
-1 -1 1;
#N canvas 676 310 509 314 SELECT_SOURCE 0;
#X obj 39 187 spigot;
#X obj 389 65 inlet;
#X obj 96 153 == 0;
#X obj 39 65 inlet;
#X obj 149 187 spigot;
#X obj 149 65 inlet;
#X obj 259 187 spigot;
#X obj 259 65 inlet;
#X obj 389 129 clip 0 2;
#X obj 206 153 == 1;
#X obj 316 153 == 2;
#X obj 149 262 outlet;
#X text 46 19 ** SELECIONA FONTE DE IMAGEM NO CANAL;
#X connect 0 0 11 0;
#X connect 1 0 8 0;
#X connect 2 0 0 1;
#X connect 3 0 0 0;
#X connect 4 0 11 0;
#X connect 5 0 4 0;
#X connect 6 0 11 0;
#X connect 7 0 6 0;
#X connect 8 0 2 0;
#X connect 8 0 9 0;
#X connect 8 0 10 0;
#X connect 9 0 4 1;
#X connect 10 0 6 1;
#X restore 1272 393 pd SELECT_SOURCE;
#N canvas 480 176 420 308 SELECT_MODE 0;
#X obj 42 195 spigot;
#X obj 266 68 inlet;
#X obj 99 146 == 0;
#X obj 42 68 inlet;
#X obj 146 195 spigot;
#X obj 203 146 == 1;
#X obj 42 250 outlet;
#X obj 266 122 clip 0 1;
#X obj 146 250 outlet;
#X text 40 20 ** SELECIONA MODO DE RENDERIZAÇÃO;
#X connect 0 0 6 0;
#X connect 1 0 7 0;
#X connect 2 0 0 1;
#X connect 3 0 0 0;
#X connect 3 0 4 0;
#X connect 4 0 8 0;
#X connect 5 0 4 1;
#X connect 7 0 2 0;
#X connect 7 0 5 0;
#X restore 1272 525 pd SELECT_MODE;
#X obj 446 579 arrast_mixmotor 2;
#X obj 859 579 arrast_mixmotor 3;
#X obj 1272 579 arrast_mixmotor 4;
#X obj 592 149 r SOURCE_BUS;
#X obj 33 139 r GEMWIN_BUS;
#X obj 446 281 arrast_vmotor 2;
#X obj 859 281 arrast_vmotor 3;
#X obj 1272 281 arrast_vmotor 4;
#X obj 1324 315 arrast_imotor 4;
#X obj 550 349 arrast_cmotor 2;
#X obj 963 349 arrast_cmotor 3;
#X obj 1376 349 arrast_cmotor 4;
#X obj 592 193 route sourceChannel1 sourceChannel2 sourceChannel3 sourceChannel4
, f 65;
#X text 411 16 ** 2 INSTÂNCIA - RENDERIZAÇÃO DA JANELA MASTER;
#X text 727 150 RECEBE FONTE DE CONTEÚDO HABILITADA POR CANAL;
#X text 136 174 JANELA MASTER DO GEM;
#X text 765 76 COMUNICAÇÃO COM 1 INSTÂNCIA;
#X text 238 76 DECLARA BIBLIOTECA EXTERNA GEM;
#X text 30 253 CADEIAS DE RENDERIZAÇÃO POR CANAL;
#X obj 1272 437 arrast_tmotor 4;
#X obj 446 481 arrast_fxmotor 2;
#X obj 859 481 arrast_fxmotor 3;
#X obj 1272 481 arrast_fxmotor 4;
#X obj 635 579 arrast_mapmotor 2;
#X obj 1048 579 arrast_mapmotor 3;
#X obj 1461 579 arrast_mapmotor 4;
#X obj 311 476 r MODE_BUS;
#X obj 33 437 arrast_tmotor 1;
#X obj 446 437 arrast_tmotor 2;
#X obj 859 437 arrast_tmotor 3;
#X obj 85 315 arrast_imotor 1;
#X obj 498 315 arrast_imotor 2;
#X obj 911 315 arrast_imotor 3;
#X connect 1 0 15 2;
#X connect 2 0 15 3;
#X connect 3 0 15 0;
#X connect 4 0 16 0;
#X connect 5 0 2 0;
#X connect 6 0 17 0;
#X connect 7 0 21 0;
#X connect 8 0 25 0;
#X connect 10 0 16 1;
#X connect 15 0 56 0;
#X connect 16 0 14 0;
#X connect 16 1 9 0;
#X connect 17 0 19 3;
#X connect 18 0 20 1;
#X connect 19 0 57 0;
#X connect 20 0 29 0;
#X connect 20 1 52 0;
#X connect 21 0 23 3;
#X connect 22 0 24 1;
#X connect 23 0 58 0;
#X connect 24 0 30 0;
#X connect 24 1 53 0;
#X connect 25 0 27 3;
#X connect 26 0 28 1;
#X connect 27 0 48 0;
#X connect 28 0 31 0;
#X connect 28 1 54 0;
#X connect 32 0 41 0;
#X connect 33 0 13 0;
#X connect 34 0 19 0;
#X connect 35 0 23 0;
#X connect 36 0 27 0;
#X connect 37 0 27 1;
#X connect 38 0 19 2;
#X connect 39 0 23 2;
#X connect 40 0 27 2;
#X connect 41 0 5 0;
#X connect 41 1 6 0;
#X connect 41 2 7 0;
#X connect 41 3 8 0;
#X connect 48 0 51 0;
#X connect 49 0 20 0;
#X connect 50 0 24 0;
#X connect 51 0 28 0;
#X connect 55 0 10 0;
#X connect 55 0 18 0;
#X connect 55 0 22 0;
#X connect 55 0 26 0;
#X connect 56 0 4 0;
#X connect 57 0 49 0;
#X connect 58 0 50 0;
#X connect 59 0 15 1;
#X connect 60 0 19 1;
#X connect 61 0 23 1;
