#N canvas 32 91 1334 615 16;
#X obj 1139 232 del \$3;
#X obj 1196 167 f \$3;
#X obj 1139 133 t b b;
#X obj 468 204 spigot;
#X obj 525 171 == \$3;
#X obj 81 274 sel;
#X obj 108 245 f \$3;
#X obj 108 216 loadbang;
#X obj 34 133 t f f;
#X obj 1196 196 * 2;
#X obj 718 133 route \$3;
#N canvas 37 132 745 410 SLOT_COLOR 0;
#X obj 52 163 sel;
#X obj 79 195 t b b;
#X obj 368 72 loadbang;
#X obj 368 107 f \$3;
#X obj 373 279 pack \$1 f f;
#X obj 52 66 inlet;
#X obj 480 244 array get \$0-memo 0 1;
#X obj 368 139 t f f f b;
#X obj 52 279 pack \$1 f f;
#X obj 159 244 r \$1-channelColor;
#X text 550 217 STATE OF SLOT;
#X msg 52 331 \; \$1-colorSlot\$2 color \$3 22;
#X msg 373 331 \; \$1-colorSlot\$2 color \$3 22;
#X text 131 17 ** MANAGES COLOR OF EACH SLOT IN THE INTERFACE;
#X connect 0 0 8 0;
#X connect 0 1 1 0;
#X connect 1 0 4 0;
#X connect 1 1 6 0;
#X connect 2 0 3 0;
#X connect 3 0 7 0;
#X connect 4 0 12 0;
#X connect 5 0 0 0;
#X connect 6 0 4 2;
#X connect 7 0 0 1;
#X connect 7 1 8 1;
#X connect 7 2 4 1;
#X connect 7 3 6 0;
#X connect 8 0 11 0;
#X connect 9 0 8 2;
#X restore 34 172 pd SLOT_COLOR;
#X text 1302 459 SLOT;
#X obj 34 96 r \$1-activeSlot;
#X obj 525 138 r \$1-activeSlot;
#X obj 81 410 s \$1-activeFile;
#X obj 468 96 r \$1-slotFileIn;
#X obj 718 96 r \$1-slotFilePreset;
#X obj 1139 96 r \$1-slotFlush;
#X obj 1139 502 s \$1-slotList;
#X obj 1139 323 symbol none;
#X obj 81 323 symbol none;
#X text 467 67 BROWSER INPUT;
#X text 716 67 PRESET INPUT;
#X obj 535 302 array set \$0-memo 0 1;
#X obj 468 239 t s s b;
#X msg 535 273 1;
#X obj 1139 459 list prepend \$3;
#X obj 785 249 sel none;
#X obj 718 209 t s s s;
#X text 33 67 SLOT CHANGE;
#X text 581 273 SLOT STATE;
#X text 879 249 FILE;
#X text 1252 164 DELAY TO ORGANIZE WRITING BY SLOT, f 15;
#X text 1263 323 FILE;
#X text 203 323 FILE;
#X text 1136 533 SEND TO MANAGER;
#X text 79 505 LOCAL MEMORY ARRAY - 1 PARAMETER - SLOT STATE;
#X obj 1139 359 t s b;
#X obj 1246 383 array get \$0-memo;
#X obj 1139 419 list append;
#X text 1244 358 READ MEMORY;
#X obj 81 473 array define \$0-memo 1;
#X obj 718 168 list split 1;
#X obj 853 210 array set \$0-memo;
#X text 873 184 WRITE ON MEMORY;
#X obj 81 352 pack s \$3;
#X text 183 354 SLOT;
#X text 244 411 SEND TO IMAGE UNIT;
#X obj 81 381 list trim;
#N canvas 188 229 590 364 RESET_SLOT 0;
#X obj 54 186 sel;
#X obj 81 156 f \$3;
#X obj 81 127 loadbang;
#X obj 54 215 t b b;
#X msg 54 264 symbol none;
#X obj 54 303 outlet;
#X text 54 16 ** ENGINE TO RESTART SLOT VALUES;
#X text 52 63 RECEIVE COMMAND OF IMAGE UNIT;
#X obj 224 303 outlet;
#X msg 224 264 0;
#X obj 54 90 r \$1-resetSlot;
#X connect 0 0 3 0;
#X connect 1 0 0 1;
#X connect 2 0 1 0;
#X connect 3 0 4 0;
#X connect 3 1 9 0;
#X connect 4 0 5 0;
#X connect 9 0 8 0;
#X connect 10 0 0 0;
#X restore 945 96 pd RESET_SLOT;
#X obj 945 125 t s s;
#X text 943 67 RESTART VALUES;
#X text 1137 67 OUTPUT TO PRESETS MANAGER;
#X text 223 67 EXTERNAL CONTROL;
#X text 401 146 FILTER BY ACTIVE SLOT, f 10;
#X obj 224 130 route file;
#X obj 224 164 symbol;
#X obj 224 96 r \$1-externalControl;
#X text 386 18 ** MANAGES MEMORY OF EACH IMAGE SLOT WITH FILE PATH
;
#X connect 0 0 20 0;
#X connect 1 0 9 0;
#X connect 2 0 0 0;
#X connect 2 1 1 0;
#X connect 3 0 25 0;
#X connect 4 0 3 1;
#X connect 5 0 21 0;
#X connect 6 0 5 1;
#X connect 7 0 6 0;
#X connect 8 0 11 0;
#X connect 8 1 5 0;
#X connect 9 0 0 1;
#X connect 10 0 43 0;
#X connect 13 0 8 0;
#X connect 14 0 4 0;
#X connect 16 0 3 0;
#X connect 17 0 10 0;
#X connect 18 0 2 0;
#X connect 20 0 38 0;
#X connect 21 0 46 0;
#X connect 25 0 21 0;
#X connect 25 1 20 1;
#X connect 25 2 26 0;
#X connect 26 0 24 0;
#X connect 27 0 19 0;
#X connect 28 1 26 0;
#X connect 29 0 21 1;
#X connect 29 1 20 1;
#X connect 29 2 28 0;
#X connect 38 0 40 0;
#X connect 38 1 39 0;
#X connect 39 0 40 1;
#X connect 40 0 27 0;
#X connect 43 0 29 0;
#X connect 43 1 44 0;
#X connect 46 0 49 0;
#X connect 49 0 15 0;
#X connect 50 0 51 0;
#X connect 50 1 44 0;
#X connect 51 0 21 0;
#X connect 51 1 20 1;
#X connect 56 0 57 0;
#X connect 57 0 3 0;
#X connect 58 0 56 0;
