#N canvas 548 241 347 309 10;
#X obj 52 135 gemhead \$1;
#X obj 52 256 outlet;
#X obj 82 38 loadbang;
#X msg 52 64 1;
#X obj 78 92 r \$0-render;
#X obj 52 109 tgl 15 0 empty empty empty 17 7 0 10 -262144 -1 -1 0
1;
#X msg 82 64 0;
#X obj 52 187 pix_share_read 10 640 480 RGBA;
#X obj 209 38 r CANAL_C;
#X obj 209 126 s \$0-render;
#X obj 209 68 route C\$1;
#X obj 209 98 route render;
#X connect 0 0 7 0;
#X connect 2 0 6 0;
#X connect 3 0 5 0;
#X connect 4 0 5 0;
#X connect 5 0 0 0;
#X connect 6 0 5 0;
#X connect 7 0 1 0;
#X connect 8 0 10 0;
#X connect 10 0 11 0;
#X connect 11 0 9 0;
