#N canvas 194 127 833 615 16;
#N canvas 163 139 783 650 WRITE_VALUE 0;
#X obj 63 64 inlet VALUE;
#X obj 36 181 f 0;
#X obj 63 105 t f f;
#N canvas 246 166 713 229 README_MODES 0;
#X text 44 80 0 - SAMPLING MATCHES RESOLUTION (STABILIZE RECORDING)
- IDEAL FOR SLIDERS \, CONTINUOUS STREAMS, f 62;
#X text 44 130 1 - CONTINUOUS SAMPLING OF THE VALUE (RECORD ZEROS)
- IDEAL FOR BANGS \, EVENT-BASED RECORDINGS, f 62;
#X text 44 42 ** 2 AUTOMATION RECORDING MODES IN THE ARRAY (0 AND 1):
;
#X restore 418 166 pd README_MODES;
#N canvas 330 224 389 250 GATE 0;
#X obj 48 37 inlet;
#X obj 48 126 spigot;
#X obj 178 37 inlet;
#X obj 178 126 spigot;
#X obj 288 37 inlet;
#X obj 48 193 outlet;
#X obj 105 91 == 0;
#X obj 288 67 t f f;
#X connect 0 0 1 0;
#X connect 1 0 5 0;
#X connect 2 0 3 0;
#X connect 3 0 5 0;
#X connect 4 0 7 0;
#X connect 6 0 1 1;
#X connect 7 0 6 0;
#X connect 7 1 3 1;
#X restore 36 220 pd GATE;
#X obj 36 147 r \$0-flushBang;
#X obj 103 188 r \$0-mode;
#X obj 418 122 s \$0-mode;
#X obj 418 64 loadbang;
#X obj 418 93 f \$4;
#X text 526 72 START WRITE MODE OF THE UNIT \, ACCORDING TO ARGUMENT
4, f 22;
#X text 415 195 INFO ABOUT WRITE MODES;
#X text 206 190 WRITE MODE;
#X obj 36 420 spigot;
#X obj 93 328 r \$0-autoState;
#X obj 93 357 == 1;
#X obj 93 386 t f f;
#X obj 233 572 spigot;
#X obj 233 504 r \$0-index;
#X text 345 505 RECEIVE GLOBAL INDEX;
#X obj 130 241 r AUTOMATION_REC;
#X obj 36 294 spigot;
#X obj 130 270 t f f;
#X obj 233 538 spigot;
#X text 303 242 INTERFACE BUTTON THAT ARMS GLOBAL RECORDING;
#X text 246 329 UNIT STATE (M/R/P);
#X text 146 358 ONLY IN RECORD MODE (R);
#X obj 36 596 array set \$0-memo;
#X text 80 465 OFFSET TO RESERVE 0 (ZERO) FROM ARRAY FOR THE ABSENCE
OF RECORDING, f 64;
#X obj 36 464 + 1;
#X text 199 20 ** WRITES VALUES ON MEMORY TABLE;
#X connect 0 0 2 0;
#X connect 1 0 4 0;
#X connect 2 0 1 1;
#X connect 2 1 4 1;
#X connect 4 0 21 0;
#X connect 5 0 1 0;
#X connect 6 0 4 2;
#X connect 8 0 9 0;
#X connect 9 0 7 0;
#X connect 13 0 29 0;
#X connect 14 0 15 0;
#X connect 15 0 16 0;
#X connect 16 0 13 1;
#X connect 16 1 17 1;
#X connect 17 0 27 1;
#X connect 18 0 23 0;
#X connect 20 0 22 0;
#X connect 21 0 13 0;
#X connect 22 0 21 1;
#X connect 22 1 23 1;
#X connect 23 0 17 0;
#X connect 29 0 27 0;
#X restore 51 210 pd WRITE_VALUE;
#N canvas 249 162 614 471 READ_VALUE 0;
#X obj 35 418 outlet VALUE;
#X obj 35 72 r \$0-index;
#X text 259 219 READ MEMORY TABLE;
#X text 150 72 RECEIVE GLOBAL INDEX;
#X obj 35 174 spigot;
#X obj 92 116 r \$0-autoState;
#X obj 92 145 == 2;
#X text 245 116 UNIT STATE (M/R/P);
#X text 145 146 ONLY IN PLAYBACK MODE (P);
#X obj 35 218 array get \$0-memo 1 1;
#X obj 35 252 t f f;
#X obj 82 286 > 0;
#X obj 35 320 spigot;
#X text 125 287 CHECK IF THERE ARE RECORDED DATA (0 = NO DATA);
#X text 109 321 AVOID NULL DATA READING;
#X text 79 366 REMOVE OFFSET APPLIED IN TABLE WRITING;
#X obj 35 364 - 1;
#X text 110 22 ** READS VALUE OF THE AUTOMATION ARRAY;
#X connect 1 0 4 0;
#X connect 4 0 9 0;
#X connect 5 0 6 0;
#X connect 6 0 4 1;
#X connect 9 0 10 0;
#X connect 10 0 12 0;
#X connect 10 1 11 0;
#X connect 11 0 12 1;
#X connect 12 0 16 0;
#X connect 16 0 0 0;
#X restore 51 284 pd READ_VALUE;
#X obj 98 486 s \$1-\$2_gui_set;
#X obj 71 171 r \$1-\$2;
#X text 153 171 RECEIVE THE PARAMETER VALUE;
#X text 96 515 SEND THE PARAMETER VALUE;
#X text 211 16 ** AUTOMATION UNIT FOR 1 PARAMETER;
#X obj 51 123 inlet VALUE;
#X obj 51 553 outlet VALUE;
#N canvas 198 242 604 343 OUTPUT_MODE 0;
#X obj 49 62 inlet;
#X obj 49 196 spigot;
#X obj 208 196 spigot;
#X obj 49 286 outlet;
#X obj 106 141 == 0;
#X obj 218 117 t f f;
#X obj 49 101 t f f;
#X obj 218 87 r \$0-mode;
#X obj 208 230 sel 0;
#X obj 255 262 t b;
#X text 283 197 MODE 1 - BANG OUTLET WITH ANY VALUE DIFFERENT FROM
0, f 29;
#X text 121 197 MODE 0;
#X text 51 18 ** VALUE OUTPUT ACCORDING TO EACH RECORDING MODE;
#X connect 0 0 6 0;
#X connect 1 0 3 0;
#X connect 2 0 8 0;
#X connect 4 0 1 1;
#X connect 5 0 4 0;
#X connect 5 1 2 1;
#X connect 6 0 1 0;
#X connect 6 1 2 0;
#X connect 7 0 5 0;
#X connect 8 1 9 0;
#X connect 9 0 3 0;
#X restore 51 334 pd OUTPUT_MODE;
#N canvas 137 80 1047 645 RECEIVE_INDEX 0;
#X obj 101 550 s \$0-index;
#X floatatom 54 189 5 0 0 0 - - -, f 5;
#X text 300 327 AT FIRST IT RESCALES ARRAY;
#X obj 54 590 s \$0-flushBang;
#X obj 645 274 unpack f f;
#X obj 645 327 spigot;
#X floatatom 645 356 5 0 0 0 - - -, f 5;
#X obj 645 382 s \$0-autoState;
#X msg 396 462 resize \$1;
#X obj 396 496 outlet RESIZE_ARRAY;
#X obj 742 303 == \$5;
#X text 115 190 GLOBAL INDEX;
#X obj 54 111 r AUTOMATION_MASTER;
#X text 51 62 RECEIVE GLOBAL INDEX AND SIZE FOR RESCALING OF THE MEMORY
ARRAY, f 33;
#X text 406 357 REMOVE REPEATS;
#X obj 54 516 t b f;
#X text 214 551 SEND INDEX LOCALLY;
#X obj 645 245 r \$3-autoState;
#X obj 645 119 s \$0-indexState;
#X obj 645 90 r AUTOMATION_STATE;
#X text 642 62 RECEIVE INDEX STATE;
#X obj 54 145 unpack f f;
#X obj 302 384 sel 0;
#X obj 302 355 change -1;
#X obj 349 418 t f f;
#X obj 54 472 clip 0 1;
#X text 147 473 INDEX LIMITS;
#X text 365 386 FILTER NULL SIZE;
#X obj 111 230 r \$0-autoState;
#X obj 111 259 != 0;
#X obj 54 288 spigot;
#X text 165 261 SWITCH OFF IN MANUAL MODE - NARROWS NEEDLESS PROCESSING
, f 27;
#X obj 131 442 - 1;
#X text 208 591 SAMPLE INPUT VALUE;
#X obj 525 431 r AUTOMATION_CLEAR;
#X msg 525 462 const 0;
#X text 609 463 CLEAR AUTOMATION;
#X text 642 175 RECEIVE STATE (MANUAL/RECORD/PLAY) FROM AUTOMATIONS
MENU AND RESEND LOCALLY, f 34;
#X text 45 19 ** RECEIVES INDEX FOR WRITING AND READING OF THE MEMORY
ARRAY AND STATUS OF THE AUTOMATION UNIT, f 95;
#X connect 1 0 30 0;
#X connect 4 0 5 0;
#X connect 4 1 10 0;
#X connect 5 0 6 0;
#X connect 6 0 7 0;
#X connect 8 0 9 0;
#X connect 10 0 5 1;
#X connect 12 0 21 0;
#X connect 15 0 3 0;
#X connect 15 1 0 0;
#X connect 17 0 4 0;
#X connect 19 0 18 0;
#X connect 21 0 1 0;
#X connect 21 1 23 0;
#X connect 22 1 24 0;
#X connect 23 0 22 0;
#X connect 24 0 32 0;
#X connect 24 1 8 0;
#X connect 25 0 15 0;
#X connect 28 0 29 0;
#X connect 29 0 30 1;
#X connect 30 0 25 0;
#X connect 32 0 25 2;
#X connect 34 0 35 0;
#X connect 35 0 9 0;
#X restore 500 174 pd RECEIVE_INDEX;
#X text 203 211 MEMORY WRITING;
#X text 193 284 MEMORY READING;
#X text 497 123 RECEIVE GLOBAL INDEX FROM AUTOMATION CONTROL, f 23
;
#X obj 500 334 loadbang;
#X obj 500 363 del \$5;
#X obj 500 392 f \$0;
#X msg 500 421 symbol \$1-memo;
#X text 584 361 SORT WHAT IS SENT BY THE 5th ARGUMENT, f 20;
#X obj 500 450 s CH\$3_AUTOMEMOLIST;
#N canvas 137 144 619 570 CHANGE 0;
#X obj 75 114 r \$0-indexState;
#X msg 75 373 set -99;
#X obj 49 417 change -99;
#X obj 75 148 change;
#X obj 49 60 inlet VALUE;
#X obj 49 515 outlet;
#X text 163 418 FILTER REPEATS WHEN READING THE PARAMETER;
#X obj 125 218 r \$1-activeSlot;
#X obj 125 329 spigot;
#X obj 402 218 loadbang;
#X obj 402 247 symbol \$2;
#X text 85 16 ** FILTER REPEATS WHEN READING THE PARAMETER;
#X text 140 248 UPDATES WHEN SLOT CHANGES - IF THIS AUTOMATON IS NOT
activeSlot, f 22;
#X obj 402 276 sel activeSlot;
#X msg 402 305 0;
#X msg 452 305 1;
#X text 161 375 RESET [change];
#X text 154 147 REFRESH [change] AT EVERY INDEX STATE CHANGE, f 25
;
#X obj 49 461 pipe 0;
#X text 124 458 SORT OUTPUT - AT FIRST THE ACTIVE SLOT \, AND THEN
OTHER PARAMETERS, f 35;
#X connect 0 0 3 0;
#X connect 1 0 2 0;
#X connect 2 0 18 0;
#X connect 3 0 1 0;
#X connect 4 0 2 0;
#X connect 7 0 8 0;
#X connect 8 0 1 0;
#X connect 9 0 10 0;
#X connect 10 0 13 0;
#X connect 13 0 14 0;
#X connect 13 1 15 0;
#X connect 14 0 8 1;
#X connect 14 0 18 1;
#X connect 15 0 8 1;
#X connect 15 0 18 1;
#X connect 18 0 5 0;
#X restore 51 398 pd CHANGE;
#X obj 51 442 t a a;
#X text 154 399 FILTER REPETITIONS;
#X obj 500 228 array define \$0-memo 1;
#X text 79 48 ARGUMENTS: MAIN ID (\$0) \, NAME OF THE PARAMETER \,
CHANNEL \, WRITE MODE \, ID FOR EXTERNAL CONTROL OF THE INTERNAL STATE
(M/R/P), f 69;
#X text 497 482 SEND THE LOCAL MEMORY ARRAY NAME TO A LIST IN PRESETS
MANAGER, f 23;
#X text 203 335 VALUE OUTPUT;
#X text 498 258 AUTOMATION MEMORY ARRAY;
#X connect 1 0 9 0;
#X connect 3 0 0 0;
#X connect 7 0 0 0;
#X connect 9 0 20 0;
#X connect 10 0 23 0;
#X connect 14 0 15 0;
#X connect 15 0 16 0;
#X connect 16 0 17 0;
#X connect 17 0 19 0;
#X connect 20 0 21 0;
#X connect 21 0 8 0;
#X connect 21 1 2 0;
#X coords 0 615 1 614 100 75 0;
