#N canvas 98 54 1317 695 16;
#N canvas 42 122 1298 584 BRAIN 0;
#X obj 1218 133 t b b;
#X obj 81 242 sel;
#X obj 108 184 loadbang;
#X obj 1218 363 t s b;
#X text 1381 459 SLOT;
#X obj 34 96 r \$1-activeSlot;
#X obj 874 96 r \$1-slotFilePreset;
#X obj 1218 96 r \$1-slotFlush;
#X obj 1218 502 s \$1-slotList;
#X obj 1218 323 symbol none;
#X obj 81 290 symbol none;
#X obj 34 535 s \$0-memo-load;
#X text 872 67 ENTRADA DE PRESET;
#X obj 1335 387 array get \$0-memo;
#X obj 874 198 array set \$0-memo;
#X text 1331 164 ATRASO PARA ORDENAR ESCRITA POR SLOT, f 15;
#X text 1333 362 LÊ MEMÓRIA;
#X text 1342 323 ARQUIVO;
#X text 1215 532 ENVIA PARA GERENCIADOR;
#X text 872 228 ESCREVE MEMÓRIA;
#X text 1216 67 SAÍDA PARA GERENCIADOR DE PRESETS;
#X obj 1218 423 list prepend;
#X obj 108 213 f \$2;
#X obj 874 130 route \$2;
#X obj 34 133 t f f;
#X obj 1275 167 f \$2;
#X obj 874 164 list split 9;
#X text 33 67 MUDANÇA DE MAPA ATIVO;
#X obj 515 411 array define \$0-memo 9;
#X obj 101 368 loadbang;
#X msg 250 402 label \$1;
#X obj 250 368 arrast_namecut 27;
#X msg 81 402 label OPEN_MASK;
#X obj 81 324 sel none;
#X obj 81 446 s \$1-maskDisplay;
#X text 255 447 ENVIA NOME PARA VISOR;
#X obj 482 232 openpanel;
#X msg 482 198 symbol Masks/;
#X obj 482 96 r \$1-maskOpen_gui;
#X obj 677 111 r \$1-activeSlot;
#X obj 677 140 == \$2;
#X text 740 141 FILTRA POR SLOT ATIVO, f 10;
#X obj 482 164 spigot;
#X obj 482 130 t b;
#X text 288 67 ENTRADA EXTERNA;
#X text 479 67 ENTRADA PELO BROWSER;
#X text 749 408 ARRAY DE MEMÓRIA LOCAL - 8 VÉRTICES + ESTADO DA MÁSCARA
, f 24;
#X obj 482 266 t s s s;
#X obj 932 266 t s s s;
#X text 1013 268 CAMINHO DA MÁSCARA;
#X obj 34 501 sel \$2;
#X obj 1218 232 del \$2;
#X obj 1218 459 list prepend \$2;
#X text 127 17 ** GERENCIA MEMÓRIA DE CADA SLOT \, COM VÉRTICES DO
MAPA DO CANAL \, ESTADO E CAMINHO DO ARQUIVO DA MÁSCARA, f 103;
#X obj 515 343 s \$0-maskPath;
#X text 658 344 ENVIA CAMINHO DA MÁSCARA LOCALMENTE;
#X obj 1275 196 * 5;
#X obj 290 130 symbol;
#X obj 290 96 inlet PATH;
#X obj 290 198 spigot;
#X obj 290 164 t s s s;
#X text 203 290 CAMINHO DA MÁSCARA;
#X text 107 502 ATUALIZA VÉRTICES E ESTADO DA MÁSCARA NA INTERFACE
COM VALORES DA MEMÓRIA, f 73;
#X connect 0 0 51 0;
#X connect 0 1 25 0;
#X connect 1 0 10 0;
#X connect 2 0 22 0;
#X connect 3 0 21 0;
#X connect 3 1 13 0;
#X connect 5 0 24 0;
#X connect 6 0 23 0;
#X connect 7 0 0 0;
#X connect 9 0 3 0;
#X connect 10 0 33 0;
#X connect 13 0 21 1;
#X connect 21 0 52 0;
#X connect 22 0 1 1;
#X connect 23 0 26 0;
#X connect 24 0 50 0;
#X connect 24 1 1 0;
#X connect 25 0 56 0;
#X connect 26 0 14 0;
#X connect 26 1 48 0;
#X connect 29 0 32 0;
#X connect 30 0 34 0;
#X connect 31 0 30 0;
#X connect 32 0 34 0;
#X connect 33 0 32 0;
#X connect 33 1 31 0;
#X connect 36 0 47 0;
#X connect 37 0 36 0;
#X connect 38 0 43 0;
#X connect 39 0 40 0;
#X connect 40 0 42 1;
#X connect 40 0 59 1;
#X connect 42 0 37 0;
#X connect 43 0 42 0;
#X connect 47 0 10 0;
#X connect 47 1 54 0;
#X connect 47 2 9 1;
#X connect 48 0 10 1;
#X connect 48 1 54 0;
#X connect 48 2 9 1;
#X connect 50 0 11 0;
#X connect 51 0 9 0;
#X connect 52 0 8 0;
#X connect 56 0 51 1;
#X connect 57 0 60 0;
#X connect 58 0 57 0;
#X connect 59 0 10 0;
#X connect 60 0 59 0;
#X connect 60 1 54 0;
#X connect 60 2 9 1;
#X restore 804 218 pd BRAIN;
#X text 801 248 GERENCIA MEMÓRIA E AÇÕES DO SLOT;
#X text 353 19 ** GERENCIA ENTRADA DE PARÂMETROS E MEMÓRIA DE CADA
MAPA;
#X obj 77 448 arrast_param \$1 blx \$0-memo 0 0 \$2;
#X obj 77 478 arrast_param \$1 bly \$0-memo 1 0 \$2;
#X obj 77 508 arrast_param \$1 tlx \$0-memo 2 0 \$2;
#X obj 77 538 arrast_param \$1 tly \$0-memo 3 0 \$2;
#X obj 77 568 arrast_param \$1 trx \$0-memo 4 0 \$2;
#X obj 77 598 arrast_param \$1 try \$0-memo 5 0 \$2;
#X obj 77 628 arrast_param \$1 brx \$0-memo 6 0 \$2;
#X obj 77 658 arrast_param \$1 bry \$0-memo 7 0 \$2;
#X obj 77 688 arrast_param \$1 maskState \$0-memo 8 0 \$2;
#X obj 521 472 list prepend blx;
#X obj 521 502 list prepend bly;
#X obj 521 532 list prepend tlx;
#X obj 521 562 list prepend tly;
#X obj 521 592 list prepend trx;
#X obj 521 622 list prepend try;
#X obj 521 652 list prepend brx;
#X obj 521 682 list prepend bry;
#X obj 521 712 list prepend maskState;
#X obj 804 557 list prepend maskPath;
#X obj 851 659 list prepend mapList;
#X obj 804 499 r \$0-maskPath;
#X obj 804 528 symbol;
#X obj 851 601 array get \$0-memo;
#X obj 851 630 list split 8;
#X obj 804 455 t b b;
#X text 519 444 ENVIA VÉRTICES;
#X text 747 712 ENVIA ESTADO DA MÁSCARA;
#X text 1028 557 ENVIA CAMINHO DA MÁSCARA;
#X text 1065 659 ENVIA LISTA DE VÉRTICES;
#X obj 804 397 r \$1-mapFlush;
#X obj 44 282 r MAP_FB_BUS;
#X obj 44 336 route map\$2;
#N canvas 17 60 491 255 TO_MAP_BUS 0;
#X obj 47 157 list trim;
#X obj 47 191 s MAP_BUS;
#X obj 47 123 list prepend map\$2;
#X obj 47 69 inlet;
#X text 35 23 ** CANAL DE SAÍDA DE CONTROLES DOS MAPAS;
#X connect 0 0 1 0;
#X connect 2 0 0 0;
#X connect 3 0 2 0;
#X restore 521 836 pd TO_MAP_BUS;
#X text 666 837 ENVIA PARA 2 INSTÂNCIA;
#X obj 521 780 spigot 1;
#X text 616 776 EVITA LOOP INFINITO QUANDO RECEBE RETORNO DE VÉRTICES
DA 2 INSTÂNCIA, f 34;
#X msg 598 746 0;
#X msg 642 746 1;
#X obj 44 370 t b a b;
#X text 948 397 ENVIA DADOS DE TODOS OS MAPAS;
#X obj 881 431 r \$0-mapFlush;
#X text 1025 432 ENVIA DADOS DO MAPA DESTE CANAL;
#X text 1123 287 INICIALIZA E MANIPULA VÉRTICES;
#N canvas 26 107 1278 591 INIT_RESET_FULL_MASTER 0;
#X obj 259 123 loadbang;
#X obj 39 181 f \$2;
#X obj 39 215 sel 1 2 3 4;
#X msg 39 259 -5.33 1 -5.33 4 -1 4 -1 1;
#X msg 39 293 1 1 1 4 5.33 4 5.33 1;
#X msg 39 327 -5.33 -4 -5.33 -1 -1 -1 -1 -4;
#X msg 39 361 1 -4 1 -1 5.33 -1 5.33 -4;
#X obj 39 430 t b b l;
#X text 307 260 VÉRTICES CANAL 1;
#X text 267 294 VÉRTICES CANAL 2;
#X text 347 327 VÉRTICES CANAL 3;
#X text 307 362 VÉRTICES CANAL 4;
#X obj 106 464 array set \$0-memo;
#X text 291 465 ESCREVE VALORES NA MEMÓRIA LOCAL;
#X text 217 500 ENVIA DADOS DOS MAPAS PARA 2 INSTÂNCIA;
#X text 242 532 ATUALIZA INTERFACE COM MAPA ATIVO;
#X text 589 305 VÉRTICES PARA TELA CHEIA;
#X text 383 95 BOTÃO RESET;
#X obj 646 191 == \$2;
#X obj 589 259 spigot;
#X text 587 95 BOTÃO FULL;
#X text 709 191 FILTRO POR SLOT ATIVO;
#X text 286 14 ** INICIALIZA E MANIPULA VÉRTICES A PARTIR DA INTERFACE
DO MODO MAP, f 67;
#X obj 953 249 spigot;
#X text 951 95 BOTÃO MASTER;
#X obj 953 283 array get \$0-memo 0 8;
#X text 950 357 ENVIA VÉRTICES DO CANAL ATIVO PARA TODOS OS DEMAIS
CANAIS, f 29;
#X obj 385 123 r \$1-mapReset_gui;
#X obj 39 532 s \$1-activeMapFlush;
#X obj 589 123 r \$01-mapFull_gui;
#X obj 646 157 r \$1-activeSlot;
#X obj 953 123 r \$1-mapMaster_gui;
#X msg 589 333 -5.33 -4 -5.33 4 5.33 4 5.33 -4;
#X obj 259 157 del 10;
#X obj 72 498 s \$0-mapFlush;
#X obj 385 157 spigot;
#X obj 646 225 t f f f f;
#X obj 39 55 inlet;
#X obj 39 89 route reset full master;
#X obj 39 123 t b;
#X obj 114 123 t b;
#X obj 190 123 t b;
#X text 102 56 ENTRADA CONTROLES EXTERNOS;
#X obj 953 327 s \$1-mapMasterBus;
#X obj 953 406 r \$1-mapMasterBus;
#X connect 0 0 33 0;
#X connect 1 0 2 0;
#X connect 2 0 3 0;
#X connect 2 1 4 0;
#X connect 2 2 5 0;
#X connect 2 3 6 0;
#X connect 3 0 7 0;
#X connect 4 0 7 0;
#X connect 5 0 7 0;
#X connect 6 0 7 0;
#X connect 7 0 28 0;
#X connect 7 1 34 0;
#X connect 7 2 12 0;
#X connect 18 0 36 0;
#X connect 19 0 32 0;
#X connect 23 0 25 0;
#X connect 25 0 43 0;
#X connect 27 0 35 0;
#X connect 29 0 19 0;
#X connect 30 0 18 0;
#X connect 31 0 23 0;
#X connect 32 0 7 0;
#X connect 33 0 1 0;
#X connect 35 0 1 0;
#X connect 36 0 19 1;
#X connect 36 1 35 1;
#X connect 36 2 23 1;
#X connect 37 0 38 0;
#X connect 38 0 39 0;
#X connect 38 1 40 0;
#X connect 38 2 41 0;
#X connect 39 0 1 0;
#X connect 40 0 32 0;
#X connect 41 0 25 0;
#X connect 44 0 7 0;
#X restore 860 286 pd INIT_RESET_FULL_MASTER;
#X text 421 97 FILTRA POR CANAL;
#X obj 77 404 route blx bly tlx tly trx try brx bry;
#X text 178 283 RECEBE VÉRTICES DA 2 INSTÂNCIA (ENTRADA QUENTE [arrast_param])
, f 31;
#X text 421 63 RECEBE CONTROLES EXTERNOS (ENTRADA FRIA [arrast_param])
;
#X text 168 337 FILTRA POR CANAL;
#X obj 256 130 t b a;
#X obj 256 232 s \$0-memo-load;
#X text 409 232 ATUALIZA INTERFACE COM MAPA ATIVO;
#X obj 303 164 route blx bly tlx tly trx try brx bry maskState maskPath
;
#X obj 256 62 r \$1-mapControl;
#X obj 256 96 route channel\$2;
#X obj 256 198 del 20;
#X connect 3 0 12 0;
#X connect 4 0 13 0;
#X connect 5 0 14 0;
#X connect 6 0 15 0;
#X connect 7 0 16 0;
#X connect 8 0 17 0;
#X connect 9 0 18 0;
#X connect 10 0 19 0;
#X connect 11 0 20 0;
#X connect 12 0 37 0;
#X connect 13 0 37 0;
#X connect 14 0 37 0;
#X connect 15 0 37 0;
#X connect 16 0 37 0;
#X connect 17 0 37 0;
#X connect 18 0 37 0;
#X connect 19 0 37 0;
#X connect 20 0 37 0;
#X connect 21 0 35 0;
#X connect 22 0 35 0;
#X connect 23 0 24 0;
#X connect 24 0 21 0;
#X connect 25 0 26 0;
#X connect 26 0 22 0;
#X connect 26 1 20 0;
#X connect 27 0 24 0;
#X connect 27 1 25 0;
#X connect 32 0 27 0;
#X connect 33 0 34 0;
#X connect 34 0 41 0;
#X connect 37 0 35 0;
#X connect 39 0 37 1;
#X connect 40 0 37 1;
#X connect 41 0 40 0;
#X connect 41 1 48 0;
#X connect 41 2 39 0;
#X connect 43 0 27 0;
#X connect 48 0 3 0;
#X connect 48 1 4 0;
#X connect 48 2 5 0;
#X connect 48 3 6 0;
#X connect 48 4 7 0;
#X connect 48 5 8 0;
#X connect 48 6 9 0;
#X connect 48 7 10 0;
#X connect 52 0 58 0;
#X connect 52 1 55 0;
#X connect 55 0 3 1;
#X connect 55 1 4 1;
#X connect 55 2 5 1;
#X connect 55 3 6 1;
#X connect 55 4 7 1;
#X connect 55 5 8 1;
#X connect 55 6 9 1;
#X connect 55 7 10 1;
#X connect 55 8 11 1;
#X connect 55 9 0 0;
#X connect 55 10 46 0;
#X connect 56 0 57 0;
#X connect 57 0 52 0;
#X connect 58 0 53 0;
