#N canvas 62 84 828 688 16;
#X obj 187 588 soundfiler;
#X floatatom 140 801 10 0 0 0 - - -, f 10;
#X obj 140 770 f;
#X text 304 588 OPEN AUDIO IN L/R TABLES;
#X text 335 833 SEND TOTAL OF SAMPLES;
#X obj 187 443 pack s \$1 \$2;
#X obj 530 230 array define \$1-\$2_L;
#X obj 530 264 array define \$1-\$2_R;
#N canvas 117 142 770 471 FORCE_TO_WAV 0;
#X obj 43 116 list fromsymbol;
#X obj 43 355 list tosymbol;
#X obj 43 30 inlet PATH;
#X obj 43 72 symbol;
#X text 190 356 CONVERT ASCII CHARACTERS LIST BACK TO SYMBOL;
#X text 208 116 CONVERT TO ASCII LIST OF CHARACTERS;
#N canvas 89 129 854 640 REMOVE_END 0;
#X obj 271 121 list split 1;
#X obj 329 152 list;
#X obj 298 378 f;
#X obj 340 378 + 1;
#X obj 42 531 list split;
#X obj 298 306 spigot;
#X msg 400 273 0;
#X msg 355 273 1;
#X obj 271 220 t b b;
#X obj 271 412 f;
#X obj 338 220 t b;
#X obj 42 75 t l l l b b;
#X text 408 121 UNPACKAGE LIST;
#X text 350 190 LOOK FOR CHARACTER 46 ".";
#X text 375 305 END UP COUNTER WHEN THE FIRST "." IS FOUND (FROM END
TO START), f 43;
#X text 387 379 COUNT CHARACTERS UNTIL THE FIRST ".";
#X obj 139 486 -;
#X obj 139 121 list length;
#X text 183 488 SUBTRACT FROM THE TOTAL OF CHARACTERS TO DEFINE THE
CUT-OFF POINT;
#X obj 42 28 inlet LIST;
#X obj 42 580 outlet LIST;
#X obj 271 191 sel 46;
#X msg 325 346 1;
#X obj 271 441 + 1;
#X text 314 442 INCLUDE "." IN THE COUNT;
#X text 157 531 DETACH SUFIX (.mov .avi .mp4) FROM REMAINING PATH;
#X connect 0 0 21 0;
#X connect 0 1 1 0;
#X connect 1 0 0 0;
#X connect 2 0 3 0;
#X connect 2 0 9 1;
#X connect 3 0 2 1;
#X connect 4 0 20 0;
#X connect 5 0 2 0;
#X connect 6 0 5 1;
#X connect 7 0 5 1;
#X connect 8 0 9 0;
#X connect 8 1 6 0;
#X connect 9 0 23 0;
#X connect 10 0 5 0;
#X connect 11 0 4 0;
#X connect 11 1 17 0;
#X connect 11 2 0 0;
#X connect 11 3 22 0;
#X connect 11 4 7 0;
#X connect 16 0 4 1;
#X connect 17 0 16 0;
#X connect 19 0 11 0;
#X connect 21 0 8 0;
#X connect 21 1 10 0;
#X connect 22 0 2 1;
#X connect 23 0 16 1;
#X restore 43 171 pd REMOVE_END;
#X obj 43 294 list append;
#X obj 150 221 loadbang;
#X msg 150 250 46 119 97 118;
#X text 295 252 ".wav" IN ASCII;
#X text 169 296 ADD SUFIX ".wav" TO PATH;
#X obj 43 417 outlet PATH;
#X text 188 172 REMOVE (.mov .avi .mp4) SUFFIX FROM THE REMAINING PATH
;
#X text 211 24 ** REPLACES ANY SUFFIX WITH ".wav" SUFFIX, f 43;
#X connect 0 0 6 0;
#X connect 1 0 12 0;
#X connect 2 0 3 0;
#X connect 3 0 0 0;
#X connect 6 0 7 0;
#X connect 7 0 1 0;
#X connect 8 0 9 0;
#X connect 9 0 7 1;
#X restore 187 402 pd FORCE_TO_WAV;
#X text 354 403 FORCE ".wav" EXTENSION;
#X obj 140 361 t b s;
#X text 183 770 TOTAL OF SAMPLES;
#X obj 405 675 s \$1-\$2_L;
#X obj 405 705 s \$1-\$2_R;
#X msg 405 641 normalize 1;
#X obj 187 617 t f b;
#X text 531 641 NORMALIZE L/R AUDIO;
#X obj 140 833 s \$1-totalSamples;
#N canvas 107 154 322 257 CHANGE_SYMBOL 0;
#X obj 57 92 t s s;
#X obj 57 129 sel s;
#X text 124 106 [change] symbol!;
#X obj 57 45 inlet;
#X obj 104 203 outlet;
#X obj 104 159 symbol;
#X connect 0 0 1 1;
#X connect 0 1 1 0;
#X connect 1 1 5 0;
#X connect 3 0 0 0;
#X connect 5 0 4 0;
#X restore 140 325 pd CHANGE_SYMBOL;
#X text 158 290 FILTER EMPTY SLOTS;
#X obj 63 289 sel none;
#X text 315 326 FILTER REPETITIONS;
#X obj 63 133 r \$1-audioFile;
#X obj 63 172 unpack s f;
#X obj 120 211 == \$2;
#X obj 63 243 spigot;
#X text 186 211 FILTER BY SLOT;
#X text 223 134 RECEVE VIDEO FILE PATH AND CORRESPONDING SLOT;
#X obj 197 726 sel \$2;
#X text 196 671 REFRESH SAMPLES;
#X obj 197 697 r \$1-activeSlot;
#X text 251 530 MAXIMUM 8.64e+07 SAMPLES = 700MB = 30 MINUTES IN A
64BIT SYSTEM AND 48KHZ AUDIO, f 44;
#X msg 187 500 read -resize -maxsize 8.64e+07 \$1 \$2-\$3_L \$2-\$3_R
;
#X text 19 25 ** LOADS AUDIO FILES CORRESPONDING TO THE VIDEO FILES
OF EACH CHANNEL'S SLOT, f 76;
#X text 528 201 TABLES FOR AUDIO FILES;
#X text 107 60 ARGUMENTS: \$1 - \$0 FROM PARENT PATCH \, \$2 - INDIVIDUAL
ID;
#X connect 0 0 15 0;
#X connect 1 0 17 0;
#X connect 2 0 1 0;
#X connect 5 0 32 0;
#X connect 8 0 5 0;
#X connect 10 0 2 0;
#X connect 10 1 8 0;
#X connect 14 0 12 0;
#X connect 14 0 13 0;
#X connect 15 0 2 1;
#X connect 15 1 14 0;
#X connect 18 0 10 0;
#X connect 20 1 18 0;
#X connect 22 0 23 0;
#X connect 23 0 25 0;
#X connect 23 1 24 0;
#X connect 24 0 25 1;
#X connect 25 0 20 0;
#X connect 28 0 2 0;
#X connect 30 0 28 0;
#X connect 32 0 0 0;
