#N canvas 240 171 349 453 10;
#X obj 176 101 cputime;
#X obj 176 73 t b b;
#X obj 176 161 * 0.1;
#X obj 176 130 int;
#X text 231 17 <-- on/off;
#X text 189 248 CPU load in percent;
#X obj 176 17 r \$0-ena;
#X obj 72 29 tgl 15 1 \$0-ena empty empty 0 -6 0 10 -262144 -1 -1 1
1;
#X obj 176 231 s \$0-display;
#X obj 116 46 sel 0;
#X msg 116 72 0;
#X obj 13 27 nbx 2 20 0 100 0 0 empty \$0-display empty 0 -6 0 12 -24198
-262144 -262144 0 256;
#X obj 176 45 metro 1000;
#X obj 143 355 pack 0 0;
#X msg 143 382 color \$1 \$2;
#X obj 143 408 s \$0-display;
#X msg 115 293 13;
#X text 17 321 red;
#X msg 143 293 15;
#X obj 143 330 change;
#X text 94 321 green;
#X msg 170 293 16;
#X obj 118 218 moses 90;
#X obj 98 241 moses 80;
#X obj 189 206 outlet cpuload;
#X text 19 153 Phil Stone;
#X text 19 114 A copy of;
#X text 19 127 loadometer.pd;
#X text 19 140 by;
#X floatatom 252 46 5 0 0 0 - - -, f 5;
#X text 40 321 yellow;
#X connect 0 0 3 0;
#X connect 1 0 0 0;
#X connect 1 1 0 1;
#X connect 2 0 8 0;
#X connect 2 0 22 0;
#X connect 2 0 24 0;
#X connect 3 0 2 0;
#X connect 6 0 9 0;
#X connect 6 0 12 0;
#X connect 9 0 10 0;
#X connect 10 0 8 0;
#X connect 12 0 1 0;
#X connect 13 0 14 0;
#X connect 14 0 15 0;
#X connect 16 0 19 0;
#X connect 18 0 19 0;
#X connect 19 0 13 0;
#X connect 21 0 19 0;
#X connect 22 0 23 0;
#X connect 22 1 16 0;
#X connect 23 0 21 0;
#X connect 23 1 18 0;
#X connect 29 0 12 1;
#X coords 0 -1 1 1 80 40 1 10 10;
