#N canvas 383 299 516 274 16;
#X obj 50 30 cnv 15 185 200 empty empty empty 20 12 0 14 -228856 -66577
0;
#X obj 61 61 hradio 18 1 0 9 \$0-openBrowser \$0-openBrowser_in empty
0 -8 0 10 -262144 -1 -1 1;
#X obj 63 153 hsl 160 8 0 0 0 0 \$0-morto \$0-timeline empty -2 -8
0 10 -1 -262144 -1 0 1;
#X obj 181 110 nbx 4 12 -1e+37 1e+37 0 0 \$0-morto \$0-secDisplay empty
0 -8 0 10 -1 -262144 -1 0 256;
#X obj 63 166 hsl 160 10 1 0 0 0 \$0-speed_gui \$0-speed_gui_set empty
-2 -8 0 10 -262144 -1 -1 7950 1;
#X obj 141 191 bng 25 250 50 0 \$0-stop_gui \$0-stop_gui_set S 8 13
0 18 -143491 -258113 -262144;
#X obj 210 191 vradio 12 1 0 2 \$0-loopMode_gui \$0-loopMode_gui_set
empty 0 -8 0 10 -355 -262144 -262144 0;
#X obj 95 189 bng 12 250 50 0 \$0-rw_gui \$0-rw_gui_set RW 16 6 0 10
-13381 -4034 -1;
#X obj 95 206 tgl 12 0 \$0-inv_gui \$0-inv_gui_set INV 16 6 0 10 -13381
-4034 -1 0 1;
#X obj 139 176 bng 8 250 50 0 \$0-resetSpeed \$0-resetSpeed_in empty
17 7 0 10 -162280 -1 -1;
#X obj 60 61 cnv 15 165 18 \$0-morto \$0-fileDisplay OPEN_VIDEO 5 9
0 12 -355 -262144 0;
#X text 97 170 ';
#X text 177 170 ';
#N canvas 314 221 692 141 select_slot 0;
#X obj 105 53 bng 15 250 50 0 \$0-clickSlot1 \$0-clickSlot1_set empty
17 7 0 10 -262144 -1 -1;
#X msg 500 53 color \$1;
#N canvas 112 192 411 304 BROWSE_FILE 0;
#X obj 44 121 t b;
#X obj 44 187 openpanel;
#X obj 44 155 symbol Videos/;
#X obj 44 234 s \$0-slotFileIn;
#X obj 44 91 r \$0-openBrowser;
#X text 210 234 SEND TO SLOTS;
#X text 50 21 ** CALL A WINDOW TO OPEN FILE FROM INTERFACE, f 30;
#X connect 0 0 2 0;
#X connect 1 0 3 0;
#X connect 2 0 1 0;
#X connect 4 0 0 0;
#X restore 304 53 pd BROWSE_FILE;
#X obj 500 21 r \$0-bgColor;
#X obj 500 84 s \$0-slotsBG;
#X obj 125 53 bng 15 250 50 0 \$0-clickSlot2 \$0-clickSlot2_set empty
17 7 0 10 -262144 -1 -1;
#X obj 145 53 bng 15 250 50 0 \$0-clickSlot3 \$0-clickSlot3_set empty
17 7 0 10 -262144 -1 -1;
#X obj 165 53 bng 15 250 50 0 \$0-clickSlot4 \$0-clickSlot4_set empty
17 7 0 10 -262144 -1 -1;
#X obj 185 53 bng 15 250 50 0 \$0-clickSlot5 \$0-clickSlot5_set empty
17 7 0 10 -262144 -1 -1;
#X obj 205 53 bng 15 250 50 0 \$0-clickSlot6 \$0-clickSlot6_set empty
17 7 0 10 -262144 -1 -1;
#X obj 225 53 bng 15 250 50 0 \$0-clickSlot7 \$0-clickSlot7_set empty
17 7 0 10 -262144 -1 -1;
#X obj 245 53 bng 15 250 50 0 \$0-clickSlot8 \$0-clickSlot8_set empty
17 7 0 10 -262144 -1 -1;
#X obj 100 50 cnv 15 165 21 empty \$0-slotsBG empty 20 12 0 14 -355
-262144 0;
#X obj 105 53 cnv 15 15 15 empty \$0-colorSlot1 1 4 8 0 12 -24198 -1
0;
#X obj 125 53 cnv 15 15 15 empty \$0-colorSlot2 2 4 8 0 12 -262144
-1 0;
#X obj 145 53 cnv 15 15 15 empty \$0-colorSlot3 3 4 8 0 12 -262144
-1 0;
#X obj 165 53 cnv 15 15 15 empty \$0-colorSlot4 4 4 8 0 12 -262144
-1 0;
#X obj 185 53 cnv 15 15 15 empty \$0-colorSlot5 5 4 8 0 12 -262144
-1 0;
#X obj 205 53 cnv 15 15 15 empty \$0-colorSlot6 6 4 8 0 12 -262144
-1 0;
#X obj 225 53 cnv 15 15 15 empty \$0-colorSlot7 7 4 8 0 12 -262144
-1 0;
#X obj 245 53 cnv 15 15 15 empty \$0-colorSlot8 8 4 8 0 12 -262144
-1 0;
#N canvas 49 128 663 307 FILE_DISPLAY 0;
#X msg 221 206 label \$1;
#X msg 47 206 color \$1;
#X obj 434 177 loadbang;
#X obj 221 177 arrast_namecut 22;
#X obj 144 66 r \$0-activeFile;
#X obj 144 100 sel none;
#X obj 47 177 r \$0-bgColor;
#X msg 434 206 label OPEN_VIDEO;
#X text 238 103 FILTER EMPTY SLOTS;
#X text 44 149 BACKGROUND COLOR;
#X text 308 67 RECEIVE ACTIVE FILE;
#X text 48 21 ** MANAGE CONTENT DISPLAYED IN THE FILENAME VIEWER;
#X obj 221 252 s \$0-fileDisplay;
#X connect 0 0 12 0;
#X connect 1 0 12 0;
#X connect 2 0 7 0;
#X connect 3 0 0 0;
#X connect 4 0 5 0;
#X connect 5 0 7 0;
#X connect 5 1 3 0;
#X connect 6 0 1 0;
#X connect 7 0 12 0;
#X restore 304 84 pd FILE_DISPLAY;
#N canvas 58 173 1253 453 ACTIVE_SLOT 0;
#X msg 18 277 1;
#X msg 188 277 2;
#X msg 358 277 3;
#X msg 528 277 4;
#X msg 698 277 5;
#X msg 868 277 6;
#X msg 1038 277 7;
#X msg 1208 277 8;
#X obj 18 120 loadbang;
#X obj 616 337 f 1;
#X obj 18 149 del 5;
#X obj 616 89 r \$0-flushActiveSlot;
#X obj 616 397 s \$0-activeSlot;
#X text 830 90 UPDATE ACTIVE SLOT;
#X obj 696 133 r \$0-activeSlot_gui_set;
#X text 941 133 RECEIVE FROM THE MANAGER OF PRESETS AND AUTOMATION
;
#X obj 616 206 int;
#X text 186 218 CLICKS ON SLOTS SELECTOR;
#X obj 1208 246 r \$0-clickSlot8;
#X obj 1038 246 r \$0-clickSlot7;
#X obj 868 246 r \$0-clickSlot6;
#X obj 698 246 r \$0-clickSlot5;
#X obj 528 246 r \$0-clickSlot4;
#X obj 358 246 r \$0-clickSlot3;
#X obj 188 246 r \$0-clickSlot2;
#X obj 18 246 r \$0-clickSlot1;
#X obj 616 123 t b;
#X obj 616 55 r REFRESH_ACTIVE_SLOT;
#X text 211 14 ** MANAGEMENT OF CHANGES IN ACTIVE SLOT FROM INTERFACE
\, PRESETS AND OSC EXTERNAL CONTROL, f 80;
#X obj 374 89 r \$0-externalControl;
#X text 371 61 EXTERNAL CONTROL;
#X obj 374 123 route activeSlot;
#X obj 616 177 clip 1 8;
#X connect 0 0 9 0;
#X connect 1 0 9 0;
#X connect 2 0 9 0;
#X connect 3 0 9 0;
#X connect 4 0 9 0;
#X connect 5 0 9 0;
#X connect 6 0 9 0;
#X connect 7 0 9 0;
#X connect 8 0 10 0;
#X connect 9 0 12 0;
#X connect 10 0 0 0;
#X connect 11 0 26 0;
#X connect 14 0 32 0;
#X connect 16 0 9 0;
#X connect 18 0 7 0;
#X connect 19 0 6 0;
#X connect 20 0 5 0;
#X connect 21 0 4 0;
#X connect 22 0 3 0;
#X connect 23 0 2 0;
#X connect 24 0 1 0;
#X connect 25 0 0 0;
#X connect 26 0 9 0;
#X connect 27 0 26 0;
#X connect 29 0 31 0;
#X connect 31 0 32 0;
#X connect 32 0 16 0;
#X restore 304 22 pd ACTIVE_SLOT;
#X connect 1 0 4 0;
#X connect 3 0 1 0;
#X coords 0 -1 1 1 165 21 2 100 50;
#X restore 60 79 pd select_slot;
#X obj 52 30 hradio 20 1 0 9 \$0-enableClick \$0-enableClick_set empty
0 -8 0 10 -262144 -1 -1 4;
#X obj 50 30 cnv 15 185 20 \$0-enable \$0-enable_set empty 20 12 0
14 -24198 -262144 0;
#X obj 63 128 hsl 160 10 0 1 0 0 \$0-inSet_gui \$0-inSet_gui_set empty
-2 -8 0 10 -262144 -1 -1 0 1;
#X obj 63 138 hsl 160 10 0 1 0 0 \$0-outSet_gui \$0-outSet_gui_set
empty -2 -8 0 10 -262144 -1 -1 15900 1;
#N canvas 121 77 1179 714 VIDEO_UNIT 0;
#X obj 44 570 rectangle 4 3;
#X obj 44 292 pix_film;
#X obj 44 370 pix_texture;
#X obj 44 234 gemhead \$1;
#X obj 44 492 translateXYZ 0 0 0;
#X obj 44 526 scale 0.3;
#X msg 237 346 quality 0;
#X obj 237 312 loadbang;
#X obj 667 198 f;
#X obj 711 198 + 1;
#X obj 667 232 mod 1;
#X floatatom 794 123 8 0 0 0 - - -, f 8;
#X obj 784 208 r \$0-modulo;
#X obj 667 154 metro 41.6667;
#X floatatom 667 544 5 0 0 0 - - -, f 5;
#X obj 667 119 tgl 25 0 empty empty empty 17 7 0 10 -204786 -1 -1 0
1;
#X obj 667 85 r \$0-motor;
#X text 727 543 CURSOR;
#X obj 689 579 s \$0-cursor;
#X obj 667 623 list prepend cursor;
#X obj 44 119 tgl 25 0 empty empty empty 17 7 0 10 -262144 -1 -1 1
1;
#X obj 44 154 t f f;
#X obj 44 404 rotateXYZ 0 0 0;
#X obj 364 577 rectangle 4 3;
#X obj 364 432 color;
#X obj 364 272 loadbang;
#X msg 364 304 1;
#X obj 364 526 scale 0.31;
#X obj 364 336 gemhead \$1;
#X msg 410 304 0;
#X obj 364 482 translateXYZ 0 0 -0.0001;
#X obj 364 85 r CH\$1_SELECT;
#X obj 364 119 == 1;
#N canvas 690 351 408 322 INFO 0;
#X obj 50 36 inlet;
#X obj 50 86 t a a;
#X obj 50 265 outlet;
#X obj 148 141 change;
#X obj 225 141 change;
#X obj 137 110 pix_info;
#X obj 148 202 pack f f;
#X obj 148 232 s \$0-tam;
#X obj 225 169 t b f;
#X text 150 23 ** SEND VIDEO DIMENSIONS IN PIXELS TO CALCULATE VIDEO
RATIO, f 21;
#X connect 0 0 1 0;
#X connect 1 0 2 0;
#X connect 1 1 5 0;
#X connect 3 0 6 0;
#X connect 4 0 8 0;
#X connect 5 1 3 0;
#X connect 5 2 4 0;
#X connect 6 0 7 0;
#X connect 8 0 6 0;
#X connect 8 1 6 1;
#X restore 44 448 pd INFO;
#N canvas 215 271 305 366 RATIO 0;
#X obj 50 305 outlet;
#X obj 169 305 outlet;
#X obj 50 73 r \$0-tam;
#X obj 50 117 unpack f f;
#X obj 50 149 /;
#X obj 50 273 * 3;
#X obj 169 274 * 3;
#X obj 169 218 t b f f;
#X obj 169 73 inlet;
#X obj 50 182 pack f 1;
#X obj 50 210 unpack f f;
#X text 47 27 ** MANAGE VIDEO RATIO;
#X connect 2 0 3 0;
#X connect 3 0 4 0;
#X connect 3 1 4 1;
#X connect 4 0 9 0;
#X connect 5 0 0 0;
#X connect 6 0 1 0;
#X connect 7 0 6 0;
#X connect 7 0 5 0;
#X connect 7 1 5 1;
#X connect 7 2 6 1;
#X connect 8 0 7 0;
#X connect 9 0 10 0;
#X connect 10 0 5 0;
#X connect 10 1 6 0;
#X restore 191 546 pd RATIO;
#N canvas 157 184 524 255 BG_COLOR 0;
#X obj 46 198 outlet;
#X obj 46 41 loadbang;
#X obj 46 74 f \$1;
#X obj 46 107 sel 1 2 3 4;
#X msg 46 152 1 0 0;
#X msg 116 152 1 1 0;
#X msg 186 152 1 0 1;
#X msg 256 152 0 1 0;
#X text 167 26 ** SET DEFAULT BACKGROUND COLOR OF THE PREVIEW WINDOW
ACCORDING TO EACH CHANNEL'S COLOR, f 32;
#X connect 1 0 2 0;
#X connect 2 0 3 0;
#X connect 3 0 4 0;
#X connect 3 1 5 0;
#X connect 3 2 6 0;
#X connect 3 3 7 0;
#X connect 4 0 0 0;
#X connect 5 0 0 0;
#X connect 6 0 0 0;
#X connect 7 0 0 0;
#X restore 411 400 pd BG_COLOR;
#N canvas 0 79 1920 976 SPEED 0;
#X msg 45 133 1000 \$1;
#X obj 45 165 /;
#X obj 45 404 outlet;
#X obj 45 101 r MASTER_FPS;
#X obj 45 216 f;
#X obj 45 255 * 1;
#X obj 212 102 r \$0-speed;
#X obj 212 162 clip 0.01 2;
#X obj 212 132 * 2;
#X obj 45 331 t f f;
#X obj 279 251 s \$0-audioSpeed;
#X obj 212 192 t b f f;
#X text 276 283 SEND PLAYBACK SPEED TO AUDIO, f 21;
#X msg 398 150 0.5;
#X text 396 213 RESET SPEED;
#X obj 398 180 s \$0-speed_gui_set;
#X text 285 356 THE LENGTH OF 1 FRAME IN MSEC;
#X obj 142 355 s \$0-frameDur;
#X obj 398 121 r \$0-resetSpeed;
#X text 125 21 ** COMPUTE PLAYBACK SPEED;
#X text 42 73 RECEIVE FPS;
#X text 210 73 INTERFACE CONTROL;
#X connect 0 0 1 0;
#X connect 1 0 4 0;
#X connect 3 0 0 0;
#X connect 4 0 5 0;
#X connect 5 0 9 0;
#X connect 6 0 8 0;
#X connect 7 0 11 0;
#X connect 8 0 7 0;
#X connect 9 0 2 0;
#X connect 9 1 17 0;
#X connect 11 0 4 0;
#X connect 11 1 5 1;
#X connect 11 2 10 0;
#X connect 13 0 15 0;
#X connect 18 0 13 0;
#X restore 794 89 pd SPEED;
#N canvas 522 58 768 705 LOOPMODE 0;
#X obj 56 57 inlet;
#X obj 56 626 outlet;
#X obj 133 489 t f f;
#X obj 247 561 spigot;
#X obj 56 561 spigot 1;
#X obj 429 259 spigot;
#X obj 247 259 spigot 1;
#X obj 324 229 == 0;
#X obj 429 147 - 1;
#X obj 214 113 t f f f;
#X obj 133 527 == 0;
#X obj 133 425 t f b;
#N canvas 574 183 602 535 ALTERNATE 0;
#X obj 48 346 f;
#X obj 92 346 + 1;
#X obj 48 380 % 2;
#X obj 48 30 inlet;
#X obj 48 472 outlet;
#X obj 135 472 s \$0-loopInv;
#X text 270 473 TO AUDIO INVERTER;
#X obj 48 252 sel 1;
#X text 152 20 ** CHANGER - INVERTS LOOP DIRECTION IN MODE 1 LOOP,
f 35;
#X msg 159 322 0;
#X text 304 294 RESET CHANGER;
#X obj 95 137 r \$0-modulo;
#X obj 95 196 spigot;
#X obj 257 113 sel 0 1;
#X obj 257 142 t b b;
#X msg 304 172 1;
#X obj 95 166 f;
#X obj 357 142 t b b;
#X msg 404 172 0;
#X msg 357 172 1;
#X text 115 253 LOOP POINT - IN<OUT = MODULE / IN>OUT = 1;
#X obj 95 224 f;
#X obj 159 293 r \$0-altReset;
#X obj 257 84 r \$0-ioInv;
#X obj 48 414 t f f;
#X obj 135 438 change;
#X connect 0 0 2 0;
#X connect 1 0 0 1;
#X connect 2 0 1 0;
#X connect 2 0 24 0;
#X connect 3 0 7 0;
#X connect 7 0 0 0;
#X connect 9 0 0 0;
#X connect 11 0 16 0;
#X connect 12 0 21 0;
#X connect 13 0 14 0;
#X connect 13 1 17 0;
#X connect 14 0 16 0;
#X connect 14 1 15 0;
#X connect 15 0 12 1;
#X connect 16 0 12 0;
#X connect 17 0 19 0;
#X connect 17 1 18 0;
#X connect 18 0 12 1;
#X connect 19 0 21 0;
#X connect 21 0 7 1;
#X connect 22 0 9 0;
#X connect 23 0 13 0;
#X connect 24 0 4 0;
#X connect 24 1 25 0;
#X connect 25 0 5 0;
#X restore 214 155 pd ALTERNATE;
#X obj 133 366 r \$0-loopMode;
#X text 474 148 CALCULATE INVERTED CURSOR;
#X text 340 260 STANDARD;
#X text 501 260 INVERTED;
#X text 132 627 CURSOS OUTPUT IN THE CHOSEN LOOP MODE;
#X obj 133 395 change;
#X obj 214 187 t f f;
#X obj 456 115 r \$0-modulo;
#X obj 247 303 change;
#X obj 429 176 abs;
#X obj 429 205 + 1;
#X text 144 17 ** LOOP MODE MANAGEMENT \, STANDARD OR PING-PONG;
#X obj 56 89 t f f;
#X text 150 562 MODE 0;
#X text 320 562 MODE 1;
#X obj 180 457 s \$0-altReset;
#X connect 0 0 25 0;
#X connect 2 0 10 0;
#X connect 2 1 3 1;
#X connect 3 0 1 0;
#X connect 4 0 1 0;
#X connect 5 0 21 0;
#X connect 6 0 21 0;
#X connect 7 0 6 1;
#X connect 8 0 22 0;
#X connect 9 0 12 0;
#X connect 9 1 6 0;
#X connect 9 2 8 0;
#X connect 10 0 4 1;
#X connect 11 0 2 0;
#X connect 11 1 28 0;
#X connect 12 0 19 0;
#X connect 13 0 18 0;
#X connect 18 0 11 0;
#X connect 19 0 7 0;
#X connect 19 1 5 1;
#X connect 20 0 8 1;
#X connect 21 0 3 0;
#X connect 22 0 23 0;
#X connect 23 0 5 0;
#X connect 25 0 4 0;
#X connect 25 1 9 0;
#X restore 667 398 pd LOOPMODE;
#N canvas 285 238 504 396 INVERT 0;
#X obj 40 77 inlet;
#X obj 207 77 r \$0-inv;
#X obj 40 154 spigot;
#X obj 150 154 spigot;
#X obj 97 116 == 0;
#X obj 40 337 outlet;
#X obj 150 230 - 1;
#X text 195 231 CALCULATE INVERTED CURSOR;
#X obj 177 198 r \$0-modulo;
#X obj 150 259 abs;
#X obj 150 288 + 1;
#X text 41 29 ** VIDEO INVERTER FROM AN INTERFACE BUTTON;
#X connect 0 0 2 0;
#X connect 0 0 3 0;
#X connect 1 0 4 0;
#X connect 1 0 3 1;
#X connect 2 0 5 0;
#X connect 3 0 6 0;
#X connect 4 0 2 1;
#X connect 6 0 9 0;
#X connect 8 0 6 1;
#X connect 9 0 10 0;
#X connect 10 0 5 0;
#X restore 667 432 pd INVERT;
#N canvas 209 272 300 236 CLIP 0;
#X obj 46 39 inlet;
#X obj 46 179 outlet;
#X obj 46 124 clip 1 100;
#X obj 143 69 r \$0-frames;
#X obj 143 96 - 1;
#X connect 0 0 2 0;
#X connect 2 0 1 0;
#X connect 3 0 4 0;
#X connect 4 0 2 2;
#X restore 667 500 pd CLIP;
#N canvas 180 207 466 352 SEND_RENDER 0;
#X obj 40 246 list prepend render;
#X obj 40 178 spigot;
#X obj 187 110 r \$0-motor;
#X obj 130 178 spigot;
#X obj 83 110 sel 1;
#X obj 187 144 == 0;
#X text 37 24 ** SEND RENDERING STATE TO 2nd INSTANCE;
#X obj 40 66 r \$0-channelState;
#X obj 40 212 f;
#N canvas 199 288 415 209 TO_VIDEO_BUS 0;
#X obj 39 61 inlet;
#X obj 39 105 list prepend V\$1;
#X obj 39 149 s VIDEO_BUS;
#X text 35 23 ** OUTPUT CHANNEL OF VIDEO CONTROLS;
#X connect 0 0 1 0;
#X connect 1 0 2 0;
#X restore 40 290 pd TO_VIDEO_BUS;
#X connect 0 0 9 0;
#X connect 1 0 8 0;
#X connect 2 0 1 1;
#X connect 2 0 5 0;
#X connect 3 0 8 0;
#X connect 4 1 3 0;
#X connect 5 0 3 1;
#X connect 7 0 1 0;
#X connect 7 0 4 0;
#X connect 8 0 0 0;
#X restore 950 119 pd SEND_RENDER;
#N canvas 121 198 884 224 STOP 0;
#X msg 176 94 0;
#X obj 176 128 s \$0-motor;
#X obj 300 128 list prepend render;
#X msg 300 94 0;
#X obj 42 128 s \$0-gotoIn;
#X obj 514 128 s \$0-altReset;
#X obj 42 36 r \$0-stop_gui;
#X obj 668 128 s \$0-play_gui_set;
#X msg 668 94 0;
#X obj 42 70 t b b b b b;
#N canvas 119 226 468 209 TO_VIDEO_BUS 0;
#X obj 39 61 inlet;
#X obj 39 105 list prepend V\$1;
#X obj 39 149 s VIDEO_BUS;
#X text 35 23 ** OUTPUT CHANNEL OF VIDEO CONTROLS;
#X connect 0 0 1 0;
#X connect 1 0 2 0;
#X restore 300 162 pd TO_VIDEO_BUS;
#X text 310 15 ** STOP BUTTON ACTIONS;
#X connect 0 0 1 0;
#X connect 2 0 10 0;
#X connect 3 0 2 0;
#X connect 6 0 9 0;
#X connect 8 0 7 0;
#X connect 9 0 4 0;
#X connect 9 1 0 0;
#X connect 9 2 3 0;
#X connect 9 3 5 0;
#X connect 9 4 8 0;
#X restore 950 265 pd STOP;
#N canvas 91 184 382 215 TIMELINE 0;
#X msg 195 125 range 0 \$1;
#X obj 195 84 r \$0-frames;
#X obj 40 84 r \$0-cursor;
#X obj 40 149 s \$0-timeline;
#X text 37 31 ** TIMELINE DISPLAY MANAGEMENT;
#X connect 0 0 3 0;
#X connect 1 0 0 0;
#X connect 2 0 3 0;
#X restore 950 343 pd TIMELINE;
#N canvas 139 157 591 457 TIME 0;
#X obj 44 260 *;
#X obj 44 350 / 1000;
#X obj 60 224 t b f;
#X msg 219 348 0;
#X text 215 29 ** CALCULATE PLAYBACK TIME OF THE MODULE AND SEND IT
TO VIEWER, f 33;
#X text 314 284 UPDATE TIME DISPLAY VALUE TO "0" IN CASE THE ACTIVE
SLOT IS EMPTY, f 23;
#X obj 219 318 del 5;
#X obj 60 192 r \$0-frameDur;
#X text 208 394 TO TIME DISPLAY IN INTERFACE;
#X obj 219 249 r \$0-activeFile;
#X obj 219 288 sel none;
#X obj 44 124 -;
#X obj 82 100 t b f;
#X obj 44 154 abs;
#X obj 44 41 r \$0-in;
#X obj 82 70 r \$0-out;
#X text 88 155 MODULE IN FRAMES;
#X text 205 193 LENGTH OF 1 FRAME IN MSEC;
#X obj 44 393 s \$0-secDisplay;
#X connect 0 0 1 0;
#X connect 1 0 18 0;
#X connect 2 0 0 0;
#X connect 2 1 0 1;
#X connect 3 0 18 0;
#X connect 6 0 3 0;
#X connect 7 0 2 0;
#X connect 9 0 10 0;
#X connect 10 0 6 0;
#X connect 11 0 13 0;
#X connect 12 0 11 0;
#X connect 12 1 11 1;
#X connect 13 0 0 0;
#X connect 14 0 11 0;
#X connect 15 0 12 0;
#X restore 951 377 pd TIME;
#N canvas 12 170 1193 326 TO_FADE 0;
#X obj 210 88 r \$0-cursor;
#X obj 410 88 r \$0-frames;
#X obj 610 88 r \$0-modulo;
#X obj 810 88 r \$0-offset;
#X obj 210 138 list prepend cursor;
#X obj 410 138 list prepend frames;
#X obj 610 138 list prepend modulo;
#X obj 810 138 list prepend offset;
#X obj 410 247 s V\$1_TO_FADE;
#X obj 410 217 list trim;
#X obj 1230 88 r \$0-loopMode;
#X obj 1230 138 list prepend loopMode;
#X obj 1010 88 r \$0-frameDur;
#X obj 1010 138 list prepend frameDur;
#X obj 20 138 list prepend motor;
#X obj 20 88 r \$0-motor;
#X text 207 20 ** SEND NECESSARY INFORMATION ABOUT THE VIDEO TO FADE
IN AND FADE OUT MODULE \, IN [arrast_transf];
#X connect 0 0 4 0;
#X connect 1 0 5 0;
#X connect 2 0 6 0;
#X connect 3 0 7 0;
#X connect 4 0 9 0;
#X connect 5 0 9 0;
#X connect 6 0 9 0;
#X connect 7 0 9 0;
#X connect 9 0 8 0;
#X connect 10 0 11 0;
#X connect 11 0 9 0;
#X connect 12 0 13 0;
#X connect 13 0 9 0;
#X connect 14 0 9 0;
#X connect 15 0 14 0;
#X restore 951 411 pd TO_FADE;
#X obj 784 324 s \$0-rawCursor;
#X obj 667 466 +;
#X obj 784 442 r \$0-offset;
#N canvas 160 53 578 818 IO_INVERT 0;
#X obj 219 184 -;
#X obj 257 150 t b f;
#X obj 52 33 inlet;
#X obj 52 567 spigot;
#X obj 162 567 spigot;
#X obj 109 535 == 0;
#X obj 219 213 moses 0;
#X obj 219 92 r \$0-out;
#X obj 257 121 r \$0-in;
#X msg 219 242 1;
#X msg 286 242 0;
#X text 150 26 ** INVERT CURSOR IF VIDEO INLET POINT COMES AFTER ITS
OUTLET POINT, f 37;
#X obj 219 511 t f;
#X obj 162 644 - 1;
#X text 207 645 CALCULATE INVERTED CURSOR;
#X obj 189 612 r \$0-modulo;
#X obj 162 673 abs;
#X obj 162 702 + 1;
#X obj 52 777 outlet;
#X obj 52 737 change;
#X obj 219 345 spigot;
#X obj 276 275 r \$0-ioMode;
#X obj 219 275 t f f;
#X obj 239 474 f;
#X obj 239 381 r \$0-hardSync;
#X obj 239 443 spigot;
#X obj 296 413 == 0;
#X obj 276 315 t f f;
#X obj 261 567 s \$0-ioInv;
#X text 363 326 IF IO_MODE 0;
#X text 262 541 SEND TO LOOP CHANGER MODE 1;
#X connect 0 0 6 0;
#X connect 1 0 0 0;
#X connect 1 1 0 1;
#X connect 2 0 3 0;
#X connect 2 0 4 0;
#X connect 3 0 19 0;
#X connect 4 0 13 0;
#X connect 5 0 3 1;
#X connect 6 0 9 0;
#X connect 6 1 10 0;
#X connect 7 0 0 0;
#X connect 8 0 1 0;
#X connect 9 0 22 0;
#X connect 10 0 22 0;
#X connect 12 0 5 0;
#X connect 12 0 4 1;
#X connect 12 0 28 0;
#X connect 13 0 16 0;
#X connect 15 0 13 1;
#X connect 16 0 17 0;
#X connect 17 0 19 0;
#X connect 19 0 18 0;
#X connect 20 0 12 0;
#X connect 21 0 27 0;
#X connect 22 0 20 0;
#X connect 22 1 23 1;
#X connect 23 0 12 0;
#X connect 24 0 25 0;
#X connect 25 0 23 0;
#X connect 26 0 25 1;
#X connect 27 0 20 1;
#X connect 27 1 26 0;
#X restore 667 364 pd IO_INVERT;
#X msg 531 174 0;
#X obj 667 300 + 1;
#N canvas 233 197 493 222 SEND_FRAMES 0;
#X obj 48 43 inlet;
#X obj 48 80 unpack f f f;
#X floatatom 48 118 5 0 0 0 - - -, f 5;
#X obj 48 151 s \$0-frames;
#X text 130 23 ** SEND VIDEO LENGTH IN FRAMES;
#X connect 0 0 1 0;
#X connect 1 0 2 0;
#X connect 2 0 3 0;
#X restore 82 326 pd SEND_FRAMES;
#N canvas 161 156 477 313 HARDSYNC 0;
#X obj 107 181 s \$0-hardSync;
#X obj 60 115 sel 0;
#X obj 60 151 t f b;
#X obj 60 79 inlet;
#X obj 60 250 outlet;
#X text 127 113 ALL NUMBERS - EXCEPT 0 - PASS DIRECTLY, f 21;
#X text 37 28 ** SYNCHRONIZE AUDIO AND REFRESH MODULES;
#X connect 1 0 2 0;
#X connect 1 1 4 0;
#X connect 2 0 4 0;
#X connect 2 1 0 0;
#X connect 3 0 1 0;
#X restore 667 266 pd HARDSYNC;
#X obj 91 190 s \$0-channelState;
#X obj 531 140 r \$0-gotoIn;
#N canvas 105 105 661 642 MODULO_OFFSET 0;
#X obj 414 428 <;
#X floatatom 414 459 5 0 0 0 - - -, f 5;
#X obj 414 397 t f f;
#X obj 484 397 t f f;
#X obj 504 518 f;
#X obj 414 518 f;
#X obj 414 487 sel 1 0;
#X floatatom 414 548 5 0 0 0 - - -, f 5;
#X obj 414 580 s \$0-offset;
#X obj 57 228 -;
#X obj 95 204 t b f;
#X floatatom 57 518 5 0 0 0 - - -, f 5;
#X obj 124 580 s \$0-modulo;
#X obj 414 367 f;
#X obj 484 367 f;
#X obj 57 546 t b b f;
#X obj 95 170 t f f;
#X obj 57 102 t f f;
#X obj 57 68 r \$0-in;
#X obj 95 136 r \$0-out;
#X obj 57 356 spigot;
#X obj 124 296 r \$0-ioMode;
#X obj 57 296 t f f;
#X obj 77 483 f;
#X obj 77 452 spigot;
#X obj 134 422 == 0;
#X obj 124 326 t f f;
#X obj 77 391 r \$0-hardSync;
#X text 247 293 IO MODE - 0 = AT THE BEGINNING OF THE MODULE (WITHOUT
GLITCH) \, 1 = STRAIGHT (GLITCH), f 33;
#X text 27 20 ** CALCULATE MODULE AND OFFSET IN FRAMES FOR VIDEO PLAYBACK
, f 61;
#X obj 57 257 abs;
#X obj 235 400 r \$0-activeSlot;
#X obj 235 459 t b;
#X text 233 487 FORCE SENDING WHEN SLOT CHANGES, f 11;
#X obj 235 429 del 5;
#X connect 0 0 1 0;
#X connect 1 0 6 0;
#X connect 2 0 0 0;
#X connect 2 1 5 1;
#X connect 3 0 0 1;
#X connect 3 1 4 1;
#X connect 4 0 7 0;
#X connect 5 0 7 0;
#X connect 6 0 5 0;
#X connect 6 1 4 0;
#X connect 7 0 8 0;
#X connect 9 0 30 0;
#X connect 10 0 9 0;
#X connect 10 1 9 1;
#X connect 11 0 15 0;
#X connect 13 0 2 0;
#X connect 14 0 3 0;
#X connect 15 0 13 0;
#X connect 15 1 14 0;
#X connect 15 2 12 0;
#X connect 16 0 10 0;
#X connect 16 1 14 1;
#X connect 17 0 9 0;
#X connect 17 1 13 1;
#X connect 18 0 17 0;
#X connect 19 0 16 0;
#X connect 20 0 11 0;
#X connect 21 0 26 0;
#X connect 22 0 20 0;
#X connect 22 1 23 1;
#X connect 23 0 11 0;
#X connect 24 0 23 0;
#X connect 25 0 24 1;
#X connect 26 0 20 1;
#X connect 26 1 25 0;
#X connect 27 0 24 0;
#X connect 30 0 22 0;
#X connect 31 0 34 0;
#X connect 32 0 23 0;
#X connect 34 0 32 0;
#X restore 950 197 pd MODULO_OFFSET;
#N canvas 51 92 1043 547 PLAY_PAUSE_RW 0;
#X obj 177 321 s \$0-motor;
#X msg 177 287 1;
#X obj 58 61 r \$0-play;
#X obj 433 172 s \$0-motor;
#X msg 433 139 0;
#X obj 177 115 sel 1 0;
#X obj 177 439 list prepend render;
#X obj 177 407 spigot;
#X obj 58 91 t f f;
#N canvas 521 267 402 289 COLOR 0;
#X obj 45 41 inlet;
#X obj 45 96 sel 0 1;
#X msg 45 156 color 26 26 0;
#X msg 205 156 color 16 16 22;
#X obj 45 207 s \$0-play_gui_set;
#X connect 0 0 1 0;
#X connect 1 0 2 0;
#X connect 1 1 3 0;
#X connect 2 0 4 0;
#X connect 3 0 4 0;
#X restore 58 153 pd COLOR;
#X obj 177 253 t b b;
#X obj 234 374 r \$0-channelState;
#X obj 293 321 s \$0-ioFlush;
#X obj 580 202 r \$0-rw_gui;
#X obj 580 270 s \$0-gotoIn;
#X obj 627 304 s \$0-altReset;
#X obj 580 236 t b b;
#X obj 580 61 r \$0-activeSlot;
#X text 743 57 BACK TO START WHEN SLOT CHANGES, f 16;
#X obj 580 95 t b;
#X obj 590 139 r AUTO_RW;
#X text 693 139 SYNCHRONIZE WITH AUTOMATION RW;
#X text 704 203 RW BUTTON;
#X text 161 61 PLAY/PAUSE BUTTON;
#N canvas 155 230 422 210 TO_VIDEO_BUS 0;
#X obj 39 61 inlet;
#X obj 39 105 list prepend V\$1;
#X obj 39 149 s VIDEO_BUS;
#X text 35 23 ** OUTPUT CHANNEL OF VIDEO CONTROLS;
#X connect 0 0 1 0;
#X connect 1 0 2 0;
#X restore 177 483 pd TO_VIDEO_BUS;
#X text 252 408 TURN RENDER ON THE IF UNIT IS ENABLED;
#X text 333 17 ** ACTIONS OF PLAY/PAUSE AND RW BUTTONS;
#X obj 234 155 r \$0-slotState;
#X obj 177 189 spigot;
#X text 251 188 PREVENT COMMANDS IF THE SLOT IS EMPTY, f 15;
#X connect 1 0 0 0;
#X connect 1 0 7 0;
#X connect 2 0 8 0;
#X connect 4 0 3 0;
#X connect 5 0 28 0;
#X connect 5 1 4 0;
#X connect 6 0 24 0;
#X connect 7 0 6 0;
#X connect 8 0 9 0;
#X connect 8 1 5 0;
#X connect 10 0 1 0;
#X connect 10 1 12 0;
#X connect 11 0 7 1;
#X connect 13 0 16 0;
#X connect 16 0 14 0;
#X connect 16 1 15 0;
#X connect 17 0 19 0;
#X connect 19 0 16 0;
#X connect 20 0 16 0;
#X connect 27 0 28 1;
#X connect 28 0 10 0;
#X restore 950 231 pd PLAY_PAUSE_RW;
#N canvas 137 212 617 444 IN_OUT 0;
#X obj 49 297 *;
#X obj 49 327 int;
#X floatatom 49 357 5 0 0 0 - - -, f 5;
#X obj 348 82 r \$0-ioFlush;
#X obj 49 82 r \$0-inSet;
#X obj 49 385 s \$0-in;
#X obj 238 242 r \$0-frames;
#X obj 186 297 *;
#X obj 186 327 int;
#X floatatom 186 357 5 0 0 0 - - -, f 5;
#X obj 186 82 r \$0-outSet;
#X obj 186 385 s \$0-out;
#X text 66 19 ** CALCULATE START AND END POSITION OF PLAYBACK IN FRAMES
, f 48;
#X obj 348 113 t b b;
#X obj 238 273 t b f b f;
#X text 346 142 REFRESH READING POINTS;
#X floatatom 186 111 5 0 0 0 - - -, f 5;
#X floatatom 49 111 5 0 0 0 - - -, f 5;
#N canvas 36 169 860 631 IN_OUT_LINK 0;
#X obj 505 461 +;
#X obj 155 461 -;
#X obj 581 379 -;
#X obj 581 408 * -1;
#X obj 581 437 t f f;
#X obj 581 345 t b f;
#X text 251 16 ** FIX PLAYBACK INTERVAL;
#X text 625 380 CALCULATE INTERVAL;
#X obj 91 292 spigot;
#X obj 148 262 == 0;
#X obj 432 292 spigot;
#X obj 489 262 == 0;
#X obj 432 321 t f f;
#X obj 91 321 t f f;
#X obj 44 195 spigot;
#X obj 385 195 spigot;
#X obj 552 562 s \$0-outSet_gui;
#X obj 202 562 s \$0-inSet_gui;
#X msg 101 171 0;
#X msg 141 171 1;
#X msg 442 171 0;
#X msg 482 171 1;
#X obj 385 229 t b f b f;
#X obj 44 229 t b f b f;
#X obj 155 495 clip 0 1;
#X obj 505 495 clip 0 1;
#X obj 505 529 t f f;
#X obj 155 529 t f f;
#X obj 44 61 inlet IN;
#X obj 385 61 inlet OUT;
#X obj 91 572 outlet IN;
#X obj 432 572 outlet OUT;
#X text 550 41 RECEIVE INTERFACE CONTROL, f 15;
#X text 187 167 PREVENT STACK OVERFLOW, f 13;
#X obj 44 125 t f f;
#X obj 385 125 t f f;
#X obj 44 90 f;
#X obj 385 90 f;
#X obj 552 104 r \$0-ioLink_gui;
#X obj 619 171 t f f f f;
#X obj 552 133 t b b f;
#X obj 726 118 loadbang;
#X msg 726 147 0;
#X connect 0 0 25 0;
#X connect 1 0 24 0;
#X connect 2 0 3 0;
#X connect 3 0 4 0;
#X connect 4 0 1 1;
#X connect 4 1 0 1;
#X connect 5 0 2 0;
#X connect 5 1 2 1;
#X connect 8 0 13 0;
#X connect 9 0 8 1;
#X connect 10 0 12 0;
#X connect 11 0 10 1;
#X connect 12 0 31 0;
#X connect 12 1 5 0;
#X connect 13 0 30 0;
#X connect 13 1 2 0;
#X connect 14 0 23 0;
#X connect 15 0 22 0;
#X connect 18 0 14 1;
#X connect 19 0 14 1;
#X connect 20 0 15 1;
#X connect 21 0 15 1;
#X connect 22 0 19 0;
#X connect 22 1 1 0;
#X connect 22 2 18 0;
#X connect 22 3 31 0;
#X connect 23 0 21 0;
#X connect 23 1 0 0;
#X connect 23 2 20 0;
#X connect 23 3 30 0;
#X connect 24 0 27 0;
#X connect 25 0 26 0;
#X connect 26 0 31 0;
#X connect 26 1 16 0;
#X connect 27 0 30 0;
#X connect 27 1 17 0;
#X connect 28 0 36 0;
#X connect 29 0 37 0;
#X connect 34 0 14 0;
#X connect 34 1 8 0;
#X connect 35 0 15 0;
#X connect 35 1 10 0;
#X connect 36 0 34 0;
#X connect 37 0 35 0;
#X connect 38 0 40 0;
#X connect 39 0 14 1;
#X connect 39 1 9 0;
#X connect 39 2 15 1;
#X connect 39 3 11 0;
#X connect 40 0 36 0;
#X connect 40 1 37 0;
#X connect 40 2 39 0;
#X connect 41 0 42 0;
#X connect 42 0 39 0;
#X restore 49 193 pd IN_OUT_LINK;
#X text 203 194 FIX PLAYBACK INTERVAL;
#X obj 186 137 f;
#X obj 49 137 f;
#X connect 0 0 1 0;
#X connect 1 0 2 0;
#X connect 2 0 5 0;
#X connect 3 0 13 0;
#X connect 4 0 17 0;
#X connect 6 0 14 0;
#X connect 7 0 8 0;
#X connect 8 0 9 0;
#X connect 9 0 11 0;
#X connect 10 0 16 0;
#X connect 13 0 21 0;
#X connect 13 1 20 0;
#X connect 14 0 0 0;
#X connect 14 1 0 1;
#X connect 14 2 7 0;
#X connect 14 3 7 1;
#X connect 16 0 20 0;
#X connect 17 0 21 0;
#X connect 18 0 0 0;
#X connect 18 1 7 0;
#X connect 20 0 18 1;
#X connect 21 0 18 0;
#X restore 950 163 pd IN_OUT;
#N canvas 180 142 667 608 SEND_VIDEO_FILE 0;
#X obj 371 422 list prepend file;
#X text 369 394 END FILE TO 2nd INSTANCE;
#X text 192 171 FILTER EMPTY SLOTS;
#X text 215 66 RECEIVE FILE FROM SLOTS;
#X obj 47 65 r \$0-activeFile;
#X obj 94 170 sel none;
#X obj 123 389 s \$0-stop;
#X obj 47 127 s \$0-ioFlush;
#X obj 94 504 list prepend render;
#X msg 94 474 0;
#X text 136 474 TURN RENDER OFF IF THE SLOT IS EMPTY;
#X obj 47 96 t b s;
#X text 120 420 CANCEL PLAYBACK;
#N canvas 169 246 426 213 TO_VIDEO_BUS 0;
#X obj 39 61 inlet;
#X obj 39 105 list prepend V\$1;
#X obj 39 149 s VIDEO_BUS;
#X text 35 23 ** OUTPUT CHANNEL OF VIDEO CONTROLS;
#X connect 0 0 1 0;
#X connect 1 0 2 0;
#X restore 371 548 pd TO_VIDEO_BUS;
#X msg 152 316 0;
#X obj 152 345 s \$0-slotState;
#X obj 324 209 t b a;
#X msg 194 316 1;
#X text 307 341 SEND SLOT STATE TO THE PLAY ENGINE, f 25;
#X obj 94 209 t b b b b;
#X msg 181 243 0;
#X obj 181 272 s \$0-frames;
#X text 305 273 RESET FRAMES IN ALL CALCULATIONS;
#X text 149 19 ** SEND VIDEO FILE TO 2nd INSTANCE;
#X connect 0 0 13 0;
#X connect 4 0 11 0;
#X connect 5 0 19 0;
#X connect 5 1 16 0;
#X connect 8 0 13 0;
#X connect 9 0 8 0;
#X connect 11 0 7 0;
#X connect 11 1 5 0;
#X connect 14 0 15 0;
#X connect 16 0 17 0;
#X connect 16 1 0 0;
#X connect 17 0 15 0;
#X connect 19 0 9 0;
#X connect 19 1 6 0;
#X connect 19 2 14 0;
#X connect 19 3 20 0;
#X connect 20 0 21 0;
#X restore 950 85 pd SEND_VIDEO_FILE;
#N canvas 343 162 675 443 PREVIEW_CONTROL 0;
#X obj 122 385 outlet;
#X obj 255 384 outlet;
#X msg 122 275 open \$1;
#X obj 255 312 tgl 15 0 empty empty empty 17 7 0 10 -232576 -1 -1 1
1;
#X text 275 308 JUMP!;
#X msg 255 267 1;
#X obj 122 243 t s b;
#X msg 301 267 0;
#X obj 255 234 sel 1 0;
#N canvas 162 155 396 361 PREV_CURSOR 0;
#X obj 40 213 * 1;
#X obj 40 246 int;
#X obj 114 213 del 50;
#X obj 67 175 t f b;
#X obj 40 75 tgl 15 0 empty empty empty 17 7 0 10 -262144 -1 -1 1 1
;
#X obj 40 36 inlet;
#X obj 40 294 outlet;
#X obj 67 142 r \$0-frames;
#X msg 114 246 5;
#N canvas 192 118 392 536 JUMP 0;
#X obj 41 232 metro 1000;
#X obj 41 309 f;
#X obj 41 341 % 5;
#X obj 87 309 + 1;
#X msg 68 279 0;
#X msg 41 189 1;
#X msg 88 189 0;
#X obj 41 148 t b b;
#X obj 41 384 sel 0 1 2 3 4;
#X msg 41 422 0.1;
#X msg 91 422 0.25;
#X msg 151 422 0.5;
#X msg 202 422 0.75;
#X msg 263 422 0.95;
#X obj 41 475 outlet;
#X obj 41 112 sel 1;
#X obj 41 71 tgl 25 0 empty empty empty 17 7 0 10 -262144 -1 -1 1 1
;
#X obj 41 36 inlet;
#X text 128 28 ** GENERATE SPECIFIC FRAMES FOR VISUALIZATION, f 23
;
#X connect 0 0 1 0;
#X connect 1 0 2 0;
#X connect 2 0 3 0;
#X connect 2 0 8 0;
#X connect 3 0 1 1;
#X connect 4 0 1 1;
#X connect 5 0 0 0;
#X connect 6 0 0 0;
#X connect 7 0 5 0;
#X connect 7 1 4 0;
#X connect 8 0 9 0;
#X connect 8 1 10 0;
#X connect 8 2 11 0;
#X connect 8 3 12 0;
#X connect 8 4 13 0;
#X connect 9 0 14 0;
#X connect 10 0 14 0;
#X connect 11 0 14 0;
#X connect 12 0 14 0;
#X connect 13 0 14 0;
#X connect 15 0 7 0;
#X connect 15 1 6 0;
#X connect 16 0 15 0;
#X connect 17 0 16 0;
#X restore 40 103 pd JUMP;
#X text 121 29 ** GENERATE SPECIFIC FRAMES FOR VISUALIZATION, f 23
;
#X connect 0 0 1 0;
#X connect 1 0 6 0;
#X connect 2 0 8 0;
#X connect 3 0 0 1;
#X connect 3 1 2 0;
#X connect 4 0 9 0;
#X connect 5 0 4 0;
#X connect 7 0 3 0;
#X connect 8 0 6 0;
#X connect 9 0 0 0;
#X restore 255 334 pd PREV_CURSOR;
#X text 410 329 GENERATE SPECIFIC FRAMES FOR VISUALIZATION, f 20;
#X obj 45 90 sel none;
#X obj 45 49 r \$0-activeFile;
#X obj 255 193 r \$0-channelState;
#N canvas 217 321 351 280 CHANGE_SYMBOL 0;
#X obj 49 117 t s s;
#X obj 49 154 sel s;
#X obj 49 70 inlet;
#X obj 96 228 outlet;
#X obj 96 184 symbol;
#X text 59 19 ** [change] SYMBOL;
#X obj 179 70 inlet RESET;
#X msg 179 99 symbol none;
#X connect 0 0 1 1;
#X connect 0 1 1 0;
#X connect 1 1 4 0;
#X connect 2 0 0 0;
#X connect 4 0 3 0;
#X connect 6 0 7 0;
#X connect 7 0 1 1;
#X restore 122 147 pd CHANGE_SYMBOL;
#X text 299 148 FILTER REPETITIONS;
#X obj 279 115 r REFRESH_MOTOR;
#X obj 45 123 t b;
#X text 234 22 ** RECEIVES FILE AND CONTROLS VIDEO PLAYBACK IN THE
PREVIEW WINDOW, f 39;
#X connect 2 0 0 0;
#X connect 3 0 9 0;
#X connect 5 0 3 0;
#X connect 6 0 2 0;
#X connect 6 1 5 0;
#X connect 7 0 3 0;
#X connect 8 0 5 0;
#X connect 8 1 7 0;
#X connect 9 0 1 0;
#X connect 11 0 17 0;
#X connect 11 1 14 0;
#X connect 12 0 11 0;
#X connect 13 0 8 0;
#X connect 14 0 6 0;
#X connect 16 0 14 1;
#X connect 17 0 14 1;
#X restore 142 268 pd PREVIEW_CONTROL;
#N canvas 181 241 407 263 TRANSLATE 0;
#X obj 39 36 loadbang;
#X obj 39 72 f \$1;
#X obj 39 204 outlet;
#X obj 39 109 sel 1 2 3 4;
#X text 158 25 ** Y-AXIS TRANSLATION ACCORDING TO LAYER, f 21;
#X msg 39 146 -3;
#X msg 90 146 -1;
#X msg 141 146 1;
#X msg 191 146 3;
#X connect 0 0 1 0;
#X connect 1 0 3 0;
#X connect 3 0 5 0;
#X connect 3 1 6 0;
#X connect 3 2 7 0;
#X connect 3 3 8 0;
#X connect 5 0 2 0;
#X connect 6 0 2 0;
#X connect 7 0 2 0;
#X connect 8 0 2 0;
#X restore 162 458 pd TRANSLATE;
#N canvas 464 315 417 201 TO_VIDEO_BUS 0;
#X obj 39 61 inlet;
#X obj 39 105 list prepend V\$1;
#X obj 39 149 s VIDEO_BUS;
#X text 35 23 ** OUTPUT CHANNEL OF VIDEO CONTROLS;
#X connect 0 0 1 0;
#X connect 1 0 2 0;
#X restore 667 657 pd TO_VIDEO_BUS;
#X obj 364 153 s \$0-render;
#X obj 44 85 r \$0-render;
#N canvas 142 117 683 588 LOOP_LASTFRAME 0;
#X obj 45 333 sel;
#X obj 45 471 spigot;
#X obj 102 438 != 1;
#N canvas 517 270 662 252 COLOR 0;
#X obj 45 41 inlet;
#X obj 45 86 sel 0 1;
#X msg 45 136 color 28 28 0;
#X msg 205 136 color 18 18 22;
#X obj 408 41 loadbang;
#X msg 408 84 color 28 0 0;
#X obj 408 127 s \$0-loopMode_gui_set;
#X obj 45 186 s \$0-loop_gui_set;
#X connect 0 0 1 0;
#X connect 1 0 2 0;
#X connect 1 1 3 0;
#X connect 2 0 7 0;
#X connect 3 0 7 0;
#X connect 4 0 5 0;
#X connect 5 0 6 0;
#X restore 176 430 pd COLOR;
#X obj 102 406 t f f;
#X obj 102 373 r \$0-loop;
#X obj 45 37 r \$0-rawCursor;
#X text 91 334 DETECT END OF THE MODULE IN A RAW CURSOR;
#X text 272 431 LOOP BUTTON COLOR;
#X text 208 374 LOOP ON OR OFF;
#X text 191 530 TURN OFF VIDEO AND AUDIO;
#X obj 45 529 s \$0-stop_gui;
#X obj 92 235 sel;
#X obj 72 135 r \$0-modulo;
#X obj 119 203 - 1;
#X text 134 237 DETECT START OF THE LAST FRAME;
#X obj 45 71 t f f;
#X obj 72 169 t f f;
#X text 195 136 RECEIVE MODULE;
#X obj 92 269 s \$0-lastFrame;
#X text 245 269 SEND BANG IN THE LAST FRAME TO AUDIO;
#X text 223 12 ** LOOP - TURN ENGINE OFF IN THE END OF MODULE IF LOOP
IS OFF, f 40;
#X text 223 62 ** LASTFRAME - SEND BANG IN THE LAST FRAME TO AUDIO
UNIT, f 42;
#X connect 0 0 1 0;
#X connect 1 0 11 0;
#X connect 2 0 1 1;
#X connect 4 0 2 0;
#X connect 4 1 3 0;
#X connect 5 0 4 0;
#X connect 6 0 16 0;
#X connect 12 0 19 0;
#X connect 13 0 17 0;
#X connect 14 0 12 1;
#X connect 16 0 0 0;
#X connect 16 1 12 0;
#X connect 17 0 0 1;
#X connect 17 1 14 0;
#X restore 950 299 pd LOOP_LASTFRAME;
#X text 41 55 RENDER ON PREVIEW WINDOW;
#X text 664 55 REPRODUCTION CURSOR IN 2nd INSTANCE;
#X text 474 14 ** VIDEO UNIT;
#X text 361 55 ENABLE VIDEO;
#X text 361 244 RENDER CHANNEL COLOR;
#X connect 1 0 2 0;
#X connect 1 1 51 0;
#X connect 2 0 22 0;
#X connect 3 0 1 0;
#X connect 4 0 5 0;
#X connect 5 0 0 0;
#X connect 6 0 2 0;
#X connect 7 0 6 0;
#X connect 8 0 10 0;
#X connect 9 0 8 1;
#X connect 10 0 9 0;
#X connect 10 0 52 0;
#X connect 11 0 13 1;
#X connect 12 0 10 1;
#X connect 13 0 8 0;
#X connect 14 0 18 0;
#X connect 14 0 19 0;
#X connect 15 0 13 0;
#X connect 16 0 15 0;
#X connect 19 0 61 0;
#X connect 20 0 21 0;
#X connect 21 0 3 0;
#X connect 21 1 53 0;
#X connect 22 0 33 0;
#X connect 24 0 30 0;
#X connect 25 0 26 0;
#X connect 26 0 28 0;
#X connect 27 0 23 0;
#X connect 28 0 24 0;
#X connect 29 0 28 0;
#X connect 30 0 27 0;
#X connect 31 0 32 0;
#X connect 32 0 62 0;
#X connect 33 0 4 0;
#X connect 34 0 0 1;
#X connect 34 1 0 2;
#X connect 35 0 24 1;
#X connect 36 0 11 0;
#X connect 37 0 38 0;
#X connect 38 0 46 0;
#X connect 39 0 14 0;
#X connect 46 0 39 0;
#X connect 47 0 46 1;
#X connect 48 0 37 0;
#X connect 49 0 8 1;
#X connect 50 0 45 0;
#X connect 50 0 48 0;
#X connect 52 0 50 0;
#X connect 54 0 49 0;
#X connect 59 0 1 0;
#X connect 59 1 1 1;
#X connect 60 0 4 2;
#X connect 60 0 30 2;
#X connect 63 0 20 0;
#X restore 280 98 pd VIDEO_UNIT;
#N canvas 237 119 779 528 ENABLE_BUTTON 0;
#X obj 50 102 t b;
#X obj 50 193 f;
#X obj 90 193 + 1;
#X obj 50 221 % 2;
#X floatatom 50 255 5 0 0 0 - - -, f 5;
#X obj 117 108 loadbang;
#X obj 327 103 sel 1;
#X obj 217 323 sel 1;
#X msg 217 353 1;
#X obj 327 69 r CH\$1_SELECT;
#X obj 217 395 s CH\$1_SELECT;
#X msg 374 169 0;
#X obj 218 276 s V\$1_ST;
#X obj 218 169 r V\$1_SET_ST;
#X msg 62 161 1;
#X obj 50 299 t f f;
#X msg 367 353 0;
#N canvas 683 223 416 283 COLOR 0;
#X obj 45 61 inlet;
#X obj 45 116 sel 0 1;
#X obj 165 140 f 13;
#X msg 165 177 color \$1 0;
#X msg 45 177 color 11 0;
#X obj 202 108 r \$0-channelColor;
#X text 40 18 ** COLOR OF ENABLE UNIT BUTTON;
#X obj 45 227 s \$0-enable_set;
#X connect 0 0 1 0;
#X connect 1 0 4 0;
#X connect 1 1 2 0;
#X connect 2 0 3 0;
#X connect 3 0 7 0;
#X connect 4 0 7 0;
#X connect 5 0 2 1;
#X restore 50 467 pd COLOR;
#X text 142 22 ** MANAGE THE STATE OF THE BUTTON TO ENABLE UNIT;
#X obj 117 137 del 5;
#X obj 217 467 s SOURCE_BUS;
#X obj 217 437 list prepend sourceChannel\$1;
#X obj 367 395 s \$0-render;
#X obj 218 231 t b;
#X obj 218 202 r REFRESH_SOURCE;
#X obj 501 92 r \$0-externalControl;
#X obj 501 169 route enable;
#X text 498 64 RECEIVE EXTERNAL CONTROL;
#X obj 50 68 r \$0-enableClick;
#X connect 0 0 1 0;
#X connect 1 0 3 0;
#X connect 2 0 1 1;
#X connect 3 0 2 0;
#X connect 3 0 4 0;
#X connect 4 0 12 0;
#X connect 4 0 15 0;
#X connect 5 0 19 0;
#X connect 6 1 11 0;
#X connect 7 0 8 0;
#X connect 7 1 16 0;
#X connect 8 0 10 0;
#X connect 8 0 21 0;
#X connect 9 0 6 0;
#X connect 11 0 1 0;
#X connect 13 0 1 0;
#X connect 14 0 1 0;
#X connect 15 0 17 0;
#X connect 15 1 7 0;
#X connect 16 0 22 0;
#X connect 19 0 14 0;
#X connect 21 0 20 0;
#X connect 23 0 4 0;
#X connect 24 0 23 0;
#X connect 25 0 26 0;
#X connect 26 0 1 0;
#X connect 28 0 0 0;
#X restore 280 166 pd ENABLE_BUTTON;
#N canvas 218 157 671 273 CHANNEL_COLOR 0;
#X obj 47 71 f \$1;
#X obj 47 107 sel 1 2 3 4;
#X msg 47 144 13;
#X msg 196 144 16;
#X msg 97 144 15;
#X obj 47 35 loadbang;
#X msg 147 144 19;
#X msg 437 180 color \$1;
#X text 435 96 DETECT AUDIO CONFIG WINDOW, f 19;
#X text 183 24 ** SET DEFAULT COLOR OF THE CHANNEL;
#X obj 437 209 s \$0-audioWinBar;
#X obj 437 151 r \$0-channelColor;
#X obj 47 209 s \$0-channelColor;
#X obj 265 209 s \$0-bgColor;
#X msg 265 144 28;
#X connect 0 0 1 0;
#X connect 1 0 2 0;
#X connect 1 1 4 0;
#X connect 1 2 6 0;
#X connect 1 3 3 0;
#X connect 2 0 12 0;
#X connect 3 0 12 0;
#X connect 4 0 12 0;
#X connect 5 0 0 0;
#X connect 5 0 14 0;
#X connect 6 0 12 0;
#X connect 7 0 10 0;
#X connect 11 0 7 0;
#X connect 14 0 13 0;
#X restore 280 200 pd CHANNEL_COLOR;
#N canvas 40 75 1341 715 AUDIO_UNIT 0;
#X obj 370 483 / 48000;
#X obj 298 1436 *~;
#X obj 325 1406 line~;
#X obj 518 1436 *~;
#X obj 545 1406 line~;
#X obj 297 536 /;
#X obj 297 858 sig~;
#X msg 384 875 0;
#X obj 297 903 phasor~ 0;
#X obj 297 1181 +~;
#X msg 384 834 0;
#X obj 297 436 f 1;
#X text 462 414 TRANSPOSITION;
#X text 427 876 RESET PHASE;
#X floatatom 404 415 5 0 0 0 - - -, f 5;
#X text 427 835 TURN OFF PHASE;
#X text 452 484 CALCULATE PHASE FREQUENCY;
#X text 544 1130 OFFSET IN SAMPLES;
#X text 544 1052 MODULE IN SAMPLES;
#N canvas 169 153 352 381 AUDIO_BANK 0;
#X obj 55 110 arrast_audioslot \$0 1;
#X text 53 29 ** BANK OF MATCHING AUDIO FOR EACH VIDEO SLOT, f 25
;
#X obj 55 140 arrast_audioslot \$0 2;
#X obj 55 170 arrast_audioslot \$0 3;
#X obj 55 200 arrast_audioslot \$0 4;
#X obj 55 230 arrast_audioslot \$0 5;
#X obj 55 260 arrast_audioslot \$0 6;
#X obj 55 290 arrast_audioslot \$0 7;
#X obj 55 320 arrast_audioslot \$0 8;
#X restore 27 75 pd AUDIO_BANK;
#X obj 298 1255 tabread4~;
#X obj 518 1255 tabread4~;
#N canvas 209 196 551 456 ARRAY_SET 0;
#X obj 104 397 outlet ARRAY_L;
#X msg 104 353 set \$2-\$1_L;
#X obj 104 268 pack f \$0;
#X msg 304 353 set \$2-\$1_R;
#X obj 304 397 outlet ARRAY_R;
#X floatatom 57 69 5 0 0 0 - - -, f 5;
#X text 116 68 CURRENT SLOT;
#X text 253 21 ** SET ARRAYS FOR READING ACCORDING TO ACTIVE SLOT,
f 32;
#X obj 57 34 r \$0-activeSlot;
#X obj 57 137 t b f b;
#X obj 104 302 t l l;
#X obj 57 195 t b b;
#X obj 104 234 f 1;
#X msg 232 219 1;
#X msg 279 219 0;
#X obj 232 253 s \$0-cut5;
#X obj 57 166 del 50;
#X obj 57 108 clip 1 8;
#X connect 1 0 0 0;
#X connect 2 0 10 0;
#X connect 3 0 4 0;
#X connect 5 0 17 0;
#X connect 8 0 5 0;
#X connect 9 0 16 0;
#X connect 9 1 12 1;
#X connect 9 2 14 0;
#X connect 10 0 1 0;
#X connect 10 1 3 0;
#X connect 11 0 13 0;
#X connect 11 1 12 0;
#X connect 12 0 2 0;
#X connect 13 0 15 0;
#X connect 14 0 15 0;
#X connect 16 0 11 0;
#X connect 17 0 9 0;
#X restore 488 1199 pd ARRAY_SET;
#X obj 384 688 r \$0-stop;
#X msg 404 355 1 \$1;
#X obj 404 385 /;
#X obj 404 320 r \$0-audioSpeed;
#X obj 384 719 t b b;
#X obj 384 781 t b b;
#N canvas 115 90 762 693 MODULO_OFFSET 0;
#X obj 371 634 <;
#X obj 371 597 t f f;
#X obj 441 597 t f f;
#X obj 461 710 f;
#X obj 371 710 f;
#X obj 371 674 sel 1 0;
#X obj 47 250 -;
#X obj 85 226 t b f;
#X obj 47 285 abs;
#X obj 371 561 f;
#X obj 441 561 f;
#X obj 94 769 t b b f;
#X obj 85 195 t f f;
#X obj 47 109 t f f;
#X obj 161 913 s \$0-audioModulo;
#X obj 371 913 s \$0-audioOffset;
#X obj 575 763 unpack f f;
#X obj 161 807 *;
#X obj 161 876 int;
#X obj 371 807 *;
#X obj 371 876 int;
#X text 113 108 RECEIVE VIDEO IN AND OUT SLIDERS;
#X text 204 808 MODULE;
#X text 414 808 OFFSET;
#X obj 47 66 r \$0-inSet;
#X obj 85 165 r \$0-outSet;
#X obj 512 66 inlet REFRESH;
#X obj 512 852 t b b;
#X text 527 99 RESEND VALUES;
#X obj 371 749 t f;
#X obj 47 391 spigot;
#X obj 104 321 r \$0-ioMode;
#X obj 47 321 t f f;
#X obj 67 560 f;
#X obj 67 489 spigot;
#X obj 124 459 == 0;
#X obj 104 361 t f f;
#X text 170 663 AVOID CLICKS;
#X obj 94 735 f;
#X obj 47 607 t b b f;
#X obj 47 666 t b b;
#X obj 528 434 r \$0-totalSamples;
#X text 228 319 IO MODE - 0 = IN THE MODULE BEGINNING (WITHOUT GLITCH)
\, 1 = STRAIGHT (GLITCH), f 27;
#X obj 67 427 r \$0-hardSync;
#X obj 528 468 t b l;
#X msg 224 690 0;
#X msg 171 690 1;
#X text 57 17 ** CALCULATE MODULE AND OFFSET IN SAMPLES FOR AUDIO PLAYBACK
;
#X obj 171 722 s \$0-cut3;
#X obj 47 637 del 25;
#X obj 178 492 del 5;
#X text 241 493 REFRESH WHEN SLOT CHANGES;
#X text 526 383 ACTIVE SLOT NUMBER OF SAMPLES, f 17;
#X text 212 426 REFRESH AT THE BEGINNING OF THE MODULE, f 24;
#X connect 0 0 5 0;
#X connect 1 0 0 0;
#X connect 1 1 4 1;
#X connect 2 0 0 1;
#X connect 2 1 3 1;
#X connect 3 0 29 0;
#X connect 4 0 29 0;
#X connect 5 0 4 0;
#X connect 5 1 3 0;
#X connect 6 0 8 0;
#X connect 7 0 6 0;
#X connect 7 1 6 1;
#X connect 8 0 32 0;
#X connect 9 0 1 0;
#X connect 10 0 2 0;
#X connect 11 0 9 0;
#X connect 11 1 10 0;
#X connect 11 2 17 0;
#X connect 12 0 7 0;
#X connect 12 1 10 1;
#X connect 13 0 6 0;
#X connect 13 1 9 1;
#X connect 16 0 17 1;
#X connect 16 0 19 1;
#X connect 17 0 18 0;
#X connect 18 0 14 0;
#X connect 19 0 20 0;
#X connect 20 0 15 0;
#X connect 24 0 13 0;
#X connect 25 0 12 0;
#X connect 26 0 27 0;
#X connect 27 0 18 0;
#X connect 27 1 20 0;
#X connect 29 0 19 0;
#X connect 30 0 39 0;
#X connect 31 0 36 0;
#X connect 32 0 30 0;
#X connect 32 1 33 1;
#X connect 33 0 39 0;
#X connect 34 0 33 0;
#X connect 35 0 34 1;
#X connect 36 0 30 1;
#X connect 36 1 35 0;
#X connect 38 0 11 0;
#X connect 39 0 49 0;
#X connect 39 1 45 0;
#X connect 39 2 38 1;
#X connect 40 0 46 0;
#X connect 40 1 38 0;
#X connect 41 0 44 0;
#X connect 43 0 34 0;
#X connect 44 0 50 0;
#X connect 44 1 16 0;
#X connect 45 0 48 0;
#X connect 46 0 48 0;
#X connect 49 0 40 0;
#X connect 50 0 33 0;
#X restore 915 522 pd MODULO_OFFSET;
#X obj 370 453 r \$0-audioModulo;
#X obj 371 1129 r \$0-audioOffset;
#X text 913 551 CALCULATE MODULE AND OFFSET IN SAMPLES;
#X obj 297 1103 *~;
#N canvas 14 156 572 237 AUDIO_CONFIG_GUI 0;
#X text 197 68 AUDIO CONFIG WINDOW;
#N canvas 538 248 209 302 \$0-audioGUI 0;
#X obj 2 1 cnv 15 205 300 empty empty empty 20 12 0 14 -1 -66577 0
;
#X obj 12 11 cnv 15 185 280 empty empty empty 20 12 0 14 -228856 -66577
0;
#X obj 52 99 cnv 15 75 20 empty empty CUT/BOOST 8 11 0 12 -233017 -66577
0;
#X obj 34 120 hradio 20 1 0 7 \$0-boost_gui \$0-boost_gui_set empty
0 -8 0 10 -262144 -1 -1 3;
#X obj 122 99 cnv 15 35 20 empty empty (dB) 3 11 0 12 -228856 -66577
0;
#X obj 34 141 cnv 15 20 15 empty empty -12 -1 8 0 10 -228856 -66577
0;
#X obj 57 141 cnv 15 20 15 empty empty -6 0 8 0 10 -228856 -66577 0
;
#X obj 74 141 cnv 15 20 15 empty empty -3 3 8 0 10 -228856 -66577 0
;
#X obj 94 141 cnv 15 20 15 empty empty 0 8 8 0 10 -228856 -66577 0
;
#X obj 114 141 cnv 15 20 15 empty empty 3 8 8 0 10 -228856 -66577 0
;
#X obj 137 141 cnv 15 20 15 empty empty 6 5 8 0 10 -228856 -66577 0
;
#X obj 154 141 cnv 15 20 15 empty empty 12 5 8 0 10 -228856 -66577
0;
#X obj 44 37 cnv 15 85 20 empty empty SAMPLERATE 8 11 0 12 -233017
-66577 0;
#X obj 122 37 cnv 15 35 20 empty empty (kHz) 3 11 0 12 -228856 -66577
0;
#X obj 63 58 hradio 20 1 0 4 \$0-samplerate_gui \$0-samplerate_gui_set
empty 0 -8 0 10 -262144 -1 -1 2;
#X obj 69 79 cnv 15 20 15 empty empty 22 0 8 0 10 -228856 -66577 0
;
#X obj 89 79 cnv 15 20 15 empty empty 44 0 8 0 10 -228856 -66577 0
;
#X obj 109 79 cnv 15 20 15 empty empty 48 0 8 0 10 -228856 -66577 0
;
#X obj 129 79 cnv 15 20 15 empty empty 96 0 8 0 10 -228856 -66577 0
;
#X obj 78 200 vradio 20 1 0 4 \$0-avAmp_gui \$0-avAmp_gui_set empty
0 -8 0 10 -262144 -1 -1 1;
#X obj 64 161 cnv 15 80 20 empty empty AV_MATRIX 8 11 0 12 -228856
-66577 0;
#X obj 80 182 cnv 15 20 15 empty empty AMP 0 8 0 10 -228856 -66577
0;
#X obj 104 200 vradio 20 1 0 4 \$0-avLop_gui \$0-avLop_gui_set empty
0 -8 0 10 -262144 -1 -1 2;
#X obj 106 182 cnv 15 20 15 empty empty LOP 0 8 0 10 -228856 -66577
0;
#X obj 130 200 vradio 20 1 0 4 \$0-avHip_gui \$0-avHip_gui_set empty
0 -8 0 10 -262144 -1 -1 3;
#X obj 132 182 cnv 15 20 15 empty empty HIP 0 8 0 10 -228856 -66577
0;
#X obj 55 202 cnv 15 20 15 empty empty OFF 0 8 0 10 -228856 -66577
0;
#X obj 37 222 cnv 15 20 15 empty empty TRANSP 0 8 0 10 -228856 -66577
0;
#X obj 31 242 cnv 15 20 15 empty empty WHT_THR 0 8 0 10 -228856 -66577
0;
#X obj 31 262 cnv 15 20 15 empty empty BLK_THR 0 8 0 10 -228856 -66577
0;
#X obj 12 11 cnv 15 185 20 empty \$0-audioWinBar AUDIO_CONFIG 43 10
0 14 -24198 -1 0;
#X restore 46 67 pd \$0-audioGUI;
#X obj 46 117 r \$0-click_audioGUI;
#X obj 46 175 s pd-\$0-audioGUI;
#X text 250 117 CALL MASTER INTERFACE WINDOW;
#X msg 46 146 vis 1;
#X text 103 15 ** MANAGE AUDIO CONFIG WINDOW;
#X connect 2 0 5 0;
#X connect 5 0 3 0;
#X restore 27 113 pd AUDIO_CONFIG_GUI;
#X text 274 20 ** AUDIO PLAYER BASED IN [phasor~] TO ALLOW SPEED CHANGES
DURING REPRODUCTION, f 77;
#X obj 915 372 r \$0-samplerate;
#X obj 915 401 sel 0 1 2 3;
#X msg 915 430 22050;
#X msg 975 430 44100;
#X msg 1035 430 48000;
#X msg 1095 430 96000;
#X text 913 345 RECEIVE SAMPLERATE FROM GUI;
#X obj 675 1249 r \$0-boost;
#X obj 675 1283 sel 0 1 2 3 4 5 6;
#X msg 795 1317 100;
#X obj 675 1351 dbtorms;
#X msg 675 1317 88;
#X msg 715 1317 94;
#X msg 755 1317 97;
#X msg 835 1317 103;
#X msg 875 1317 106;
#X msg 914 1317 112;
#X text 763 1353 APPLY GAIN CORRECTION IN dB;
#N canvas 134 226 355 420 AV_MATRIX 0;
#X obj 64 102 inlet~;
#X obj 174 102 inlet~;
#X obj 64 352 outlet~;
#X obj 174 352 outlet~;
#N canvas 101 54 1117 709 HIP~ 0;
#X obj 64 82 inlet~;
#X obj 174 82 inlet~;
#X obj 64 820 outlet~;
#X obj 174 820 outlet~;
#N canvas 563 102 595 479 ST_GATE~ 0;
#X obj 53 91 inlet~;
#X obj 163 91 inlet~;
#X obj 53 411 outlet~;
#X obj 163 411 outlet~;
#X obj 80 237 pack 0 30;
#X obj 80 266 line~;
#X obj 53 295 *~;
#X obj 190 237 pack 0 30;
#X obj 190 266 line~;
#X obj 163 295 *~;
#X obj 313 411 outlet~;
#X obj 423 411 outlet~;
#X obj 340 237 pack 0 30;
#X obj 340 266 line~;
#X obj 313 295 *~;
#X obj 450 237 pack 0 30;
#X obj 450 266 line~;
#X obj 423 295 *~;
#X text 53 38 ** STEREO AUDIO ROUTER (1 INPUT 2 OUTPUTS);
#X obj 343 91 inlet CONTROL;
#X obj 343 150 == 0;
#X obj 343 120 t f f;
#X obj 343 180 t f f;
#X obj 403 180 t f f;
#X connect 0 0 6 0;
#X connect 0 0 14 0;
#X connect 1 0 9 0;
#X connect 1 0 17 0;
#X connect 4 0 5 0;
#X connect 5 0 6 1;
#X connect 6 0 2 0;
#X connect 7 0 8 0;
#X connect 8 0 9 1;
#X connect 9 0 3 0;
#X connect 12 0 13 0;
#X connect 13 0 14 1;
#X connect 14 0 10 0;
#X connect 15 0 16 0;
#X connect 16 0 17 1;
#X connect 17 0 11 0;
#X connect 19 0 21 0;
#X connect 20 0 22 0;
#X connect 21 0 20 0;
#X connect 21 1 23 0;
#X connect 22 0 4 0;
#X connect 22 1 7 0;
#X connect 23 0 12 0;
#X connect 23 1 15 0;
#X restore 65 556 pd ST_GATE~;
#X obj 358 359 f;
#X text 404 359 0 to 1;
#X obj 358 237 spigot;
#X obj 428 237 spigot;
#X obj 498 237 spigot;
#X obj 321 122 moses 1;
#X obj 321 151 t b;
#X msg 321 190 0;
#X obj 415 190 == 1;
#X obj 485 190 == 2;
#X obj 555 190 == 3;
#X obj 358 266 - 1;
#X obj 358 295 abs;
#X obj 654 135 route T\$1;
#X obj 654 164 route transp white black;
#X obj 654 105 list trim;
#X text 794 72 RECEIVE CONTROLS FROM THE TRANSFORM INTERFACE OF THE
CURRENT CHANNEL, f 32;
#X obj 654 213 f;
#X obj 733 213 f;
#X obj 812 213 f;
#X obj 358 325 t f;
#X obj 388 151 t b b b f f f b;
#X msg 361 190 1;
#X text 439 89 SELECT CONTROL SOURCE, f 15;
#X text 189 555 KEY;
#X obj 321 93 r \$0-avHip;
#X text 401 278 INVERT 0/1;
#X obj 358 398 t f f;
#X obj 358 427 *;
#X obj 358 458 t f f;
#X obj 358 487 *;
#X text 403 724 24 dB PER OCTAVE - 6 dB PER [hip~];
#X text 431 436 EXPONENTIAL CURVE;
#X obj 654 76 r TRANSF_BUS;
#X obj 358 551 + 20;
#X obj 358 581 clip 20 20000;
#X obj 358 613 pack 0 100;
#X obj 358 642 line~;
#X text 502 581 FREQUENCY;
#X obj 136 681 hip.mmb~;
#X obj 136 711 hip.mmb~;
#X obj 136 741 hip.mmb~;
#X obj 136 771 hip.mmb~;
#X obj 281 681 hip.mmb~;
#X obj 281 711 hip.mmb~;
#X obj 281 741 hip.mmb~;
#X obj 281 771 hip.mmb~;
#X obj 358 522 * 6280;
#X text 456 16 ** HIGH PASS FILTER;
#X connect 0 0 4 0;
#X connect 1 0 4 1;
#X connect 4 0 2 0;
#X connect 4 1 3 0;
#X connect 4 2 44 0;
#X connect 4 3 48 0;
#X connect 5 0 32 0;
#X connect 7 0 16 0;
#X connect 8 0 16 0;
#X connect 9 0 25 0;
#X connect 10 0 11 0;
#X connect 10 1 26 0;
#X connect 11 0 12 0;
#X connect 12 0 4 2;
#X connect 13 0 7 1;
#X connect 14 0 8 1;
#X connect 15 0 9 1;
#X connect 16 0 17 0;
#X connect 17 0 25 0;
#X connect 18 0 19 0;
#X connect 19 0 22 0;
#X connect 19 1 23 0;
#X connect 19 2 24 0;
#X connect 20 0 18 0;
#X connect 22 0 7 0;
#X connect 23 0 8 0;
#X connect 24 0 9 0;
#X connect 25 0 5 0;
#X connect 26 0 22 0;
#X connect 26 1 23 0;
#X connect 26 2 24 0;
#X connect 26 3 13 0;
#X connect 26 4 14 0;
#X connect 26 5 15 0;
#X connect 26 6 27 0;
#X connect 27 0 4 2;
#X connect 30 0 10 0;
#X connect 32 0 33 0;
#X connect 32 1 33 1;
#X connect 33 0 34 0;
#X connect 34 0 35 0;
#X connect 34 1 35 1;
#X connect 35 0 52 0;
#X connect 38 0 20 0;
#X connect 39 0 40 0;
#X connect 40 0 41 0;
#X connect 41 0 42 0;
#X connect 42 0 44 1;
#X connect 42 0 45 1;
#X connect 42 0 46 1;
#X connect 42 0 47 1;
#X connect 42 0 48 1;
#X connect 42 0 49 1;
#X connect 42 0 50 1;
#X connect 42 0 51 1;
#X connect 44 0 45 0;
#X connect 45 0 46 0;
#X connect 46 0 47 0;
#X connect 47 0 2 0;
#X connect 48 0 49 0;
#X connect 49 0 50 0;
#X connect 50 0 51 0;
#X connect 51 0 3 0;
#X connect 52 0 39 0;
#X restore 65 180 pd HIP~;
#N canvas 182 54 1158 709 LOP~ 0;
#X obj 54 72 inlet~;
#X obj 164 72 inlet~;
#X obj 54 790 outlet~;
#X obj 164 790 outlet~;
#N canvas 555 98 595 479 ST_GATE~ 0;
#X obj 53 91 inlet~;
#X obj 163 91 inlet~;
#X obj 53 411 outlet~;
#X obj 163 411 outlet~;
#X obj 80 237 pack 0 30;
#X obj 80 266 line~;
#X obj 53 295 *~;
#X obj 190 237 pack 0 30;
#X obj 190 266 line~;
#X obj 163 295 *~;
#X obj 313 411 outlet~;
#X obj 423 411 outlet~;
#X obj 340 237 pack 0 30;
#X obj 340 266 line~;
#X obj 313 295 *~;
#X obj 450 237 pack 0 30;
#X obj 450 266 line~;
#X obj 423 295 *~;
#X text 53 38 ** STEREO AUDIO ROUTER (1 INPUT 2 OUTPUTS);
#X obj 343 91 inlet CONTROL;
#X obj 343 150 == 0;
#X obj 343 120 t f f;
#X obj 343 180 t f f;
#X obj 403 180 t f f;
#X connect 0 0 6 0;
#X connect 0 0 14 0;
#X connect 1 0 9 0;
#X connect 1 0 17 0;
#X connect 4 0 5 0;
#X connect 5 0 6 1;
#X connect 6 0 2 0;
#X connect 7 0 8 0;
#X connect 8 0 9 1;
#X connect 9 0 3 0;
#X connect 12 0 13 0;
#X connect 13 0 14 1;
#X connect 14 0 10 0;
#X connect 15 0 16 0;
#X connect 16 0 17 1;
#X connect 17 0 11 0;
#X connect 19 0 21 0;
#X connect 20 0 22 0;
#X connect 21 0 20 0;
#X connect 21 1 23 0;
#X connect 22 0 4 0;
#X connect 22 1 7 0;
#X connect 23 0 12 0;
#X connect 23 1 15 0;
#X restore 55 476 pd ST_GATE~;
#X obj 348 580 pack 0 100;
#X obj 348 349 f;
#X text 394 349 0 A 1;
#X obj 348 418 *;
#X obj 348 388 t f f;
#X text 407 421 EXPONENTIAL CURVE;
#X obj 348 227 spigot;
#X obj 418 227 spigot;
#X obj 488 227 spigot;
#X obj 311 112 moses 1;
#X obj 311 141 t b;
#X msg 311 180 0;
#X obj 405 180 == 1;
#X obj 475 180 == 2;
#X obj 545 180 == 3;
#X obj 488 262 - 1;
#X obj 488 291 abs;
#X obj 644 125 route T\$1;
#X obj 644 154 route transp white black;
#X obj 644 95 list trim;
#X text 779 62 RECEIVE CONTROLS FROM THE TRANSFORM INTERFACE OF THE
CURRENT CHANNEL, f 32;
#X obj 644 203 f;
#X obj 723 203 f;
#X obj 802 203 f;
#X obj 348 315 t f;
#X obj 378 141 t b b b f f f b;
#X msg 351 180 1;
#X text 429 79 SELECT CONTROL SOURCE, f 15;
#X text 179 475 KEY;
#X text 531 274 INVERT 0/1;
#X obj 311 83 r \$0-avLop;
#X text 383 694 24 dB PER OCTAVE - 6 dB PER [lop~];
#X obj 348 478 *;
#X obj 348 448 t f f;
#X obj 348 512 * 20000;
#X obj 348 546 clip 20 20000;
#X obj 644 66 r TRANSF_BUS;
#X obj 348 614 line~;
#X obj 127 651 lop.mmb~;
#X obj 127 681 lop.mmb~;
#X obj 127 711 lop.mmb~;
#X obj 127 741 lop.mmb~;
#X obj 270 651 lop.mmb~;
#X obj 270 681 lop.mmb~;
#X obj 270 711 lop.mmb~;
#X obj 270 741 lop.mmb~;
#X text 492 547 FREQUENCY;
#X text 456 16 ** LOW PASS FILTER;
#X connect 0 0 4 0;
#X connect 1 0 4 1;
#X connect 4 0 2 0;
#X connect 4 1 3 0;
#X connect 4 2 43 0;
#X connect 4 3 47 0;
#X connect 5 0 42 0;
#X connect 6 0 9 0;
#X connect 8 0 38 0;
#X connect 9 0 8 0;
#X connect 9 1 8 1;
#X connect 11 0 29 0;
#X connect 12 0 29 0;
#X connect 13 0 20 0;
#X connect 14 0 15 0;
#X connect 14 1 30 0;
#X connect 15 0 16 0;
#X connect 16 0 4 2;
#X connect 17 0 11 1;
#X connect 18 0 12 1;
#X connect 19 0 13 1;
#X connect 20 0 21 0;
#X connect 21 0 29 0;
#X connect 22 0 23 0;
#X connect 23 0 26 0;
#X connect 23 1 27 0;
#X connect 23 2 28 0;
#X connect 24 0 22 0;
#X connect 26 0 11 0;
#X connect 27 0 12 0;
#X connect 28 0 13 0;
#X connect 29 0 6 0;
#X connect 30 0 26 0;
#X connect 30 1 27 0;
#X connect 30 2 28 0;
#X connect 30 3 17 0;
#X connect 30 4 18 0;
#X connect 30 5 19 0;
#X connect 30 6 31 0;
#X connect 31 0 4 2;
#X connect 35 0 14 0;
#X connect 37 0 39 0;
#X connect 38 0 37 0;
#X connect 38 1 37 1;
#X connect 39 0 40 0;
#X connect 40 0 5 0;
#X connect 41 0 24 0;
#X connect 42 0 47 1;
#X connect 42 0 48 1;
#X connect 42 0 49 1;
#X connect 42 0 50 1;
#X connect 42 0 43 1;
#X connect 42 0 44 1;
#X connect 42 0 45 1;
#X connect 42 0 46 1;
#X connect 43 0 44 0;
#X connect 44 0 45 0;
#X connect 45 0 46 0;
#X connect 46 0 2 0;
#X connect 47 0 48 0;
#X connect 48 0 49 0;
#X connect 49 0 50 0;
#X connect 50 0 3 0;
#X restore 65 220 pd LOP~;
#X text 44 25 ** MATRIX OF CONTROLS FROM VIDEO PARAMETERS, f 31;
#N canvas 15 56 1086 649 AMP~ 0;
#X obj 64 72 inlet~;
#X obj 174 72 inlet~;
#X obj 64 590 outlet~;
#X obj 174 590 outlet~;
#N canvas 555 98 595 479 ST_GATE~ 0;
#X obj 53 91 inlet~;
#X obj 163 91 inlet~;
#X obj 53 411 outlet~;
#X obj 163 411 outlet~;
#X obj 80 237 pack 0 30;
#X obj 80 266 line~;
#X obj 53 295 *~;
#X obj 190 237 pack 0 30;
#X obj 190 266 line~;
#X obj 163 295 *~;
#X obj 313 411 outlet~;
#X obj 423 411 outlet~;
#X obj 340 237 pack 0 30;
#X obj 340 266 line~;
#X obj 313 295 *~;
#X obj 450 237 pack 0 30;
#X obj 450 266 line~;
#X obj 423 295 *~;
#X text 53 38 ** STEREO AUDIO ROUTER (1 INPUT 2 OUTPUTS);
#X obj 343 91 inlet CONTROL;
#X obj 343 150 == 0;
#X obj 343 120 t f f;
#X obj 343 180 t f f;
#X obj 403 180 t f f;
#X connect 0 0 6 0;
#X connect 0 0 14 0;
#X connect 1 0 9 0;
#X connect 1 0 17 0;
#X connect 4 0 5 0;
#X connect 5 0 6 1;
#X connect 6 0 2 0;
#X connect 7 0 8 0;
#X connect 8 0 9 1;
#X connect 9 0 3 0;
#X connect 12 0 13 0;
#X connect 13 0 14 1;
#X connect 14 0 10 0;
#X connect 15 0 16 0;
#X connect 16 0 17 1;
#X connect 17 0 11 0;
#X connect 19 0 21 0;
#X connect 20 0 22 0;
#X connect 21 0 20 0;
#X connect 21 1 23 0;
#X connect 22 0 4 0;
#X connect 22 1 7 0;
#X connect 23 0 12 0;
#X connect 23 1 15 0;
#X restore 65 476 pd ST_GATE~;
#X obj 358 349 f;
#X text 404 349 0 A 1;
#X obj 358 418 *;
#X obj 358 388 t f f;
#X text 417 421 EXPONENTIAL CURVE;
#X obj 358 227 spigot;
#X obj 428 227 spigot;
#X obj 498 227 spigot;
#X obj 321 112 moses 1;
#X obj 321 141 t b;
#X msg 321 180 0;
#X obj 415 180 == 1;
#X obj 485 180 == 2;
#X obj 555 180 == 3;
#X obj 498 262 - 1;
#X obj 498 291 abs;
#X obj 654 125 route T\$1;
#X obj 654 154 route transp white black;
#X obj 654 95 list trim;
#X text 789 62 RECEIVE CONTROLS FROM THE TRANSFORM INTERFACE IN THE
CURRENT CHANNEL, f 26;
#X obj 654 203 f;
#X obj 733 203 f;
#X obj 812 203 f;
#X obj 358 315 t f;
#X obj 388 141 t b b b f f f b;
#X msg 361 180 1;
#X text 439 79 SELECT CONTROL SOURCE, f 14;
#X text 189 475 KEY;
#X text 541 274 INVERT 0/1;
#X obj 358 459 pack 0 50;
#X obj 331 532 *~;
#X obj 358 488 line~;
#X obj 251 532 *~;
#X obj 321 83 r \$0-avAmp;
#X obj 654 66 r TRANSF_BUS;
#X text 418 17 ** AMPLITUDE CONTROL;
#X connect 0 0 4 0;
#X connect 1 0 4 1;
#X connect 4 0 2 0;
#X connect 4 1 3 0;
#X connect 4 2 37 0;
#X connect 4 3 35 0;
#X connect 5 0 8 0;
#X connect 7 0 34 0;
#X connect 8 0 7 0;
#X connect 8 1 7 1;
#X connect 10 0 28 0;
#X connect 11 0 28 0;
#X connect 12 0 19 0;
#X connect 13 0 14 0;
#X connect 13 1 29 0;
#X connect 14 0 15 0;
#X connect 15 0 4 2;
#X connect 16 0 10 1;
#X connect 17 0 11 1;
#X connect 18 0 12 1;
#X connect 19 0 20 0;
#X connect 20 0 28 0;
#X connect 21 0 22 0;
#X connect 22 0 25 0;
#X connect 22 1 26 0;
#X connect 22 2 27 0;
#X connect 23 0 21 0;
#X connect 25 0 10 0;
#X connect 26 0 11 0;
#X connect 27 0 12 0;
#X connect 28 0 5 0;
#X connect 29 0 25 0;
#X connect 29 1 26 0;
#X connect 29 2 27 0;
#X connect 29 3 16 0;
#X connect 29 4 17 0;
#X connect 29 5 18 0;
#X connect 29 6 30 0;
#X connect 30 0 4 2;
#X connect 34 0 36 0;
#X connect 35 0 3 0;
#X connect 36 0 35 1;
#X connect 36 0 37 1;
#X connect 37 0 2 0;
#X connect 38 0 13 0;
#X connect 39 0 23 0;
#X restore 65 260 pd AMP~;
#X connect 0 0 4 0;
#X connect 1 0 4 1;
#X connect 4 0 5 0;
#X connect 4 1 5 1;
#X connect 5 0 7 0;
#X connect 5 1 7 1;
#X connect 7 0 2 0;
#X connect 7 1 3 0;
#X restore 298 1490 pd AV_MATRIX;
#X obj 298 1601 hip~ 5;
#X obj 415 1601 hip~ 5;
#X text 490 1602 CORRECT DC OFFSET;
#X text 435 1490 MATRIX OF CONTROLS FROM VIDEO PARAMETERS;
#X obj 404 121 r \$0-motor;
#X obj 404 155 sel 1 0;
#X text 518 117 RECEIVE VIDEO PLAYBACK STATUS (PAUSE), f 22;
#X obj 915 75 r \$0-audio;
#X obj 1002 144 t b b;
#X obj 915 144 t b b;
#X obj 915 112 sel 1 0;
#X obj 962 248 switch~;
#X msg 962 216 1;
#X msg 1002 216 0;
#X text 1029 74 AUDIO ON/OFF;
#X text 624 1199 SET TABLES FOR READING;
#X text 488 689 CUT AUDIO WHEN VIDEO STOPS;
#X text 566 320 RECEIVE PLAYBACK SPEED;
#X obj 354 616 r \$0-motor;
#X obj 297 647 spigot;
#X text 471 613 PHASE FREQUENCY CHANGES ONLY IF VIDEO ENGINE IS ON
, f 28;
#N canvas 183 120 478 547 DIRECTION 0;
#X obj 138 187 r \$0-loopInv;
#X obj 138 247 sel 0 1;
#X obj 50 34 inlet;
#X obj 50 491 outlet;
#X obj 50 453 * 1;
#X msg 138 277 1;
#X msg 188 277 -1;
#X obj 299 86 r \$0-loopMode;
#X obj 299 145 t f f;
#X obj 299 175 sel 0;
#X obj 138 308 spigot;
#X obj 162 86 r \$0-loop;
#X obj 138 216 change;
#X obj 299 115 change;
#X obj 138 338 spigot;
#X obj 50 139 + 0;
#X msg 299 345 1;
#X obj 162 115 t b f f;
#X obj 229 145 sel 0;
#X text 140 32 ** INVERSION BY LOOP MODE 1;
#X obj 138 369 t b b f b;
#X msg 225 427 0;
#X obj 225 461 s \$0-cut4;
#X msg 275 427 1;
#X obj 138 403 del 25;
#X connect 0 0 12 0;
#X connect 1 0 5 0;
#X connect 1 1 6 0;
#X connect 2 0 15 0;
#X connect 4 0 3 0;
#X connect 5 0 10 0;
#X connect 6 0 10 0;
#X connect 7 0 13 0;
#X connect 8 0 9 0;
#X connect 8 1 14 1;
#X connect 9 0 16 0;
#X connect 10 0 14 0;
#X connect 11 0 17 0;
#X connect 12 0 1 0;
#X connect 13 0 8 0;
#X connect 14 0 20 0;
#X connect 15 0 4 0;
#X connect 16 0 20 0;
#X connect 17 0 15 0;
#X connect 17 1 10 1;
#X connect 17 2 18 0;
#X connect 18 0 16 0;
#X connect 20 0 24 0;
#X connect 20 1 4 0;
#X connect 20 2 4 1;
#X connect 20 3 21 0;
#X connect 21 0 22 0;
#X connect 23 0 22 0;
#X connect 24 0 23 0;
#X restore 297 572 pd DIRECTION;
#X text 428 572 DIRECTION OF RAMP ACCORDING TO LOOP MODE;
#X msg 325 1375 \$1 20;
#X msg 545 1375 \$1 20;
#N canvas 263 193 625 588 IO_INVERT~ 0;
#X text 112 20 ** INVERT PHASE DIRECTION IF INLET POINT IS GREATER
THAN THE OUTLET POINT, f 40;
#X text 343 89 RECEIVE VIDEO INVERSION COMMAND, f 17;
#X obj 51 474 +~;
#X obj 51 533 outlet~;
#X obj 51 93 inlet~;
#X obj 51 425 *~;
#X obj 221 425 *~;
#X obj 78 360 == 0;
#X obj 221 326 -~ 1;
#X obj 220 355 abs~;
#X text 273 356 CALCULATE INVERTED PHASE;
#X obj 228 161 t f b b;
#X obj 261 227 t b b;
#X obj 201 251 f;
#X obj 201 280 t f f;
#X obj 248 396 sig~;
#X obj 78 396 sig~;
#X obj 228 93 r \$0-ioInv;
#X obj 228 122 change -1;
#X msg 291 271 1;
#X msg 341 271 0;
#X obj 291 303 s \$0-cut4;
#X text 397 266 USE THE SAME CUTOFF AS THE LOOP DIRECTION, f 20;
#X obj 261 198 del 25;
#X connect 2 0 3 0;
#X connect 4 0 5 0;
#X connect 4 0 8 0;
#X connect 5 0 2 0;
#X connect 6 0 2 1;
#X connect 7 0 16 0;
#X connect 8 0 9 0;
#X connect 9 0 6 0;
#X connect 11 0 13 1;
#X connect 11 1 23 0;
#X connect 11 2 20 0;
#X connect 12 0 19 0;
#X connect 12 1 13 0;
#X connect 13 0 14 0;
#X connect 14 0 7 0;
#X connect 14 1 15 0;
#X connect 15 0 6 1;
#X connect 16 0 5 1;
#X connect 17 0 18 0;
#X connect 18 0 11 0;
#X connect 19 0 21 0;
#X connect 20 0 21 0;
#X connect 23 0 12 0;
#X restore 297 957 pd IO_INVERT~;
#X text 440 958 PHASE INVERTER BY LOOP POINTS;
#X text 410 998 PHASE INVERTER BY INTERFACE;
#N canvas 214 162 624 598 INVERT~ 0;
#X obj 51 484 +~;
#X obj 51 543 outlet~;
#X obj 51 93 inlet~;
#X obj 51 415 *~;
#X obj 221 415 *~;
#X obj 78 357 == 0;
#X obj 221 314 -~ 1;
#X obj 220 343 abs~;
#X text 273 344 CALCULATE INVERTED PHASE;
#X obj 228 93 r \$0-inv;
#X text 323 89 RECEIVE PHASE INVERSION COMMAND, f 21;
#X text 66 28 ** INVERT PHASE DIRECTION BY INTERFACE BUTTON;
#X obj 228 129 t f b b;
#X obj 261 195 t b b;
#X obj 201 219 f;
#X obj 201 248 t f f;
#X obj 78 386 sig~;
#X obj 248 386 sig~;
#X msg 291 239 1;
#X msg 341 239 0;
#X obj 291 271 s \$0-cut4;
#X text 397 234 USE THE SAME CUTOFF AS THE LOOP DIRECTION, f 20;
#X obj 261 166 del 25;
#X connect 0 0 1 0;
#X connect 2 0 3 0;
#X connect 2 0 6 0;
#X connect 3 0 0 0;
#X connect 4 0 0 1;
#X connect 5 0 16 0;
#X connect 6 0 7 0;
#X connect 7 0 4 0;
#X connect 9 0 12 0;
#X connect 12 0 14 1;
#X connect 12 1 22 0;
#X connect 12 2 19 0;
#X connect 13 0 18 0;
#X connect 13 1 14 0;
#X connect 14 0 15 0;
#X connect 15 0 5 0;
#X connect 15 1 17 0;
#X connect 16 0 3 1;
#X connect 17 0 4 1;
#X connect 18 0 20 0;
#X connect 19 0 20 0;
#X connect 22 0 13 0;
#X restore 297 997 pd INVERT~;
#X obj 264 75 r \$0-hardSync;
#X text 407 76 SYNCH WITH VIDEO;
#X obj 371 1080 sig~;
#X obj 371 1157 sig~;
#X obj 370 512 t b f;
#X obj 371 1051 r \$0-audioModulo;
#X msg 203 228 0;
#X msg 157 228 1;
#X msg 1063 216 1;
#X msg 1112 216 0;
#X obj 507 189 t b b;
#X msg 468 749 0;
#X obj 404 189 t b b;
#X obj 297 1147 +~ 1;
#X obj 264 136 t b b;
#X obj 915 459 t b f;
#X obj 298 1655 throw~ \$1-L;
#X obj 415 1655 throw~ \$1-R;
#X text 541 1656 SEND AUDIO TO MASTER PATCH;
#X obj 264 109 bng 15 250 50 0 empty empty empty 17 7 0 10 -262144
-1 -1;
#N canvas 224 53 686 755 CUTOFF 0;
#X obj 44 944 outlet~;
#X obj 193 944 outlet~;
#X obj 44 63 inlet~;
#X obj 194 63 inlet~;
#X obj 250 207 r \$0-cut1;
#X obj 250 265 pack 0 20;
#X obj 250 294 line~;
#X obj 193 319 *~;
#X obj 44 319 *~;
#X text 354 208 HARDSYNC;
#X obj 250 365 pack 0 20;
#X obj 250 394 line~;
#X obj 193 419 *~;
#X obj 44 419 *~;
#X obj 250 336 r \$0-cut2;
#X text 354 337 PAUSE;
#X obj 250 465 pack 0 20;
#X obj 250 494 line~;
#X obj 193 519 *~;
#X obj 44 519 *~;
#X obj 250 436 r \$0-cut3;
#X text 354 437 MODULE/OFFSET;
#X obj 250 565 pack 0 20;
#X obj 250 594 line~;
#X obj 193 619 *~;
#X obj 44 619 *~;
#X obj 250 536 r \$0-cut4;
#X obj 250 694 line~;
#X obj 193 719 *~;
#X obj 44 719 *~;
#X text 354 537 LOOP DIRECTION AND PHASE INVERSIONS, f 17;
#X obj 250 636 r \$0-cut5;
#X text 354 637 SLOT CHANGE;
#X text 435 106 OPEN/CLOSE AUDIO ACCORDING TO RENDER, f 19;
#X obj 250 107 r \$0-channelState;
#X obj 250 136 pack 0 20;
#X obj 250 165 line~;
#X obj 193 190 *~;
#X obj 44 190 *~;
#X text 102 16 ** SPECIFIC CUTOFF ENGINE FOR EACH ACTION;
#X obj 250 665 pack 0 20;
#X obj 250 794 line~;
#X obj 193 819 *~;
#X obj 44 819 *~;
#X obj 250 765 pack 0 20;
#X obj 250 236 t f f;
#X obj 364 260 sel 1;
#X obj 250 736 r \$0-cut6;
#X obj 193 889 *~;
#X obj 44 889 *~;
#X obj 250 864 vline~;
#X text 382 836 VIDEO END (VARIABLE TIME);
#N canvas 462 194 579 316 FINAL_CUT 0;
#X obj 41 85 r \$0-lastFrame;
#X text 38 57 BANG AT THE BEGINNING OF THE LAST VIDEO FRAME;
#X text 137 18 ** CUT AUDIO IN VIDEO END;
#X text 271 130 LENGTH OF 1 FRAME IN MSEC;
#X obj 128 129 r \$0-frameDur;
#X obj 41 119 t b;
#X obj 41 163 pack 0 25;
#X msg 183 213 1 20;
#X obj 183 179 inlet BANG;
#X obj 41 267 outlet;
#X text 237 213 OPEN AUDIO ALONG WITH HARDSYNC;
#X connect 0 0 5 0;
#X connect 4 0 6 1;
#X connect 5 0 6 0;
#X connect 6 0 9 0;
#X connect 7 0 9 0;
#X connect 8 0 7 0;
#X restore 250 835 pd FINAL_CUT;
#X text 354 737 AUDIO ON/OFF;
#X connect 2 0 38 0;
#X connect 3 0 37 0;
#X connect 4 0 45 0;
#X connect 5 0 6 0;
#X connect 6 0 7 1;
#X connect 6 0 8 1;
#X connect 7 0 12 0;
#X connect 8 0 13 0;
#X connect 10 0 11 0;
#X connect 11 0 12 1;
#X connect 11 0 13 1;
#X connect 12 0 18 0;
#X connect 13 0 19 0;
#X connect 14 0 10 0;
#X connect 16 0 17 0;
#X connect 17 0 18 1;
#X connect 17 0 19 1;
#X connect 18 0 24 0;
#X connect 19 0 25 0;
#X connect 20 0 16 0;
#X connect 22 0 23 0;
#X connect 23 0 24 1;
#X connect 23 0 25 1;
#X connect 24 0 28 0;
#X connect 25 0 29 0;
#X connect 26 0 22 0;
#X connect 27 0 28 1;
#X connect 27 0 29 1;
#X connect 28 0 42 0;
#X connect 29 0 43 0;
#X connect 31 0 40 0;
#X connect 34 0 35 0;
#X connect 35 0 36 0;
#X connect 36 0 37 1;
#X connect 36 0 38 1;
#X connect 37 0 7 0;
#X connect 38 0 8 0;
#X connect 40 0 27 0;
#X connect 41 0 42 1;
#X connect 41 0 43 1;
#X connect 42 0 48 0;
#X connect 43 0 49 0;
#X connect 44 0 41 0;
#X connect 45 0 5 0;
#X connect 45 1 46 0;
#X connect 46 0 52 0;
#X connect 47 0 44 0;
#X connect 48 0 1 0;
#X connect 49 0 0 0;
#X connect 50 0 48 1;
#X connect 50 0 49 1;
#X connect 52 0 50 0;
#X restore 298 1534 pd CUTOFF;
#X obj 157 263 s \$0-cut1;
#X msg 590 247 0;
#X msg 639 247 1;
#X obj 590 282 s \$0-cut2;
#X obj 468 781 s \$0-cut1;
#X text 572 782 USE THE SAME CUTOFF AS HARDSYNC;
#X text 405 1534 CUTOFF ENGINE TO AVOID AUDIO CLICKS ACCORDING TO EACH
ACTION, f 48;
#X obj 264 170 del 25;
#X obj 404 223 del 25;
#X obj 507 223 del 25;
#X obj 915 174 del 25;
#X obj 1002 174 del 25;
#X obj 384 749 del 25;
#X obj 264 204 t b b b;
#X obj 1063 248 s \$0-cut6;
#X connect 0 0 88 0;
#X connect 1 0 54 0;
#X connect 2 0 1 1;
#X connect 3 0 54 1;
#X connect 4 0 3 1;
#X connect 5 0 76 0;
#X connect 6 0 8 0;
#X connect 7 0 8 1;
#X connect 8 0 80 0;
#X connect 9 0 20 0;
#X connect 9 0 21 0;
#X connect 10 0 6 0;
#X connect 11 0 5 0;
#X connect 14 0 11 0;
#X connect 20 0 1 0;
#X connect 21 0 3 0;
#X connect 22 0 20 0;
#X connect 22 1 21 0;
#X connect 23 0 27 0;
#X connect 24 0 25 0;
#X connect 25 0 14 0;
#X connect 26 0 24 0;
#X connect 27 0 117 0;
#X connect 27 1 95 0;
#X connect 28 0 10 0;
#X connect 28 1 7 0;
#X connect 30 0 0 0;
#X connect 31 0 87 0;
#X connect 33 0 97 0;
#X connect 36 0 37 0;
#X connect 37 0 38 0;
#X connect 37 1 39 0;
#X connect 37 2 40 0;
#X connect 37 3 41 0;
#X connect 38 0 99 0;
#X connect 39 0 99 0;
#X connect 40 0 99 0;
#X connect 41 0 99 0;
#X connect 43 0 44 0;
#X connect 44 0 47 0;
#X connect 44 1 48 0;
#X connect 44 2 49 0;
#X connect 44 3 45 0;
#X connect 44 4 50 0;
#X connect 44 5 51 0;
#X connect 44 6 52 0;
#X connect 45 0 46 0;
#X connect 46 0 79 0;
#X connect 46 0 78 0;
#X connect 47 0 46 0;
#X connect 48 0 46 0;
#X connect 49 0 46 0;
#X connect 50 0 46 0;
#X connect 51 0 46 0;
#X connect 52 0 46 0;
#X connect 54 0 104 0;
#X connect 54 1 104 1;
#X connect 55 0 100 0;
#X connect 56 0 101 0;
#X connect 59 0 60 0;
#X connect 60 0 96 0;
#X connect 60 1 94 0;
#X connect 62 0 65 0;
#X connect 63 0 116 0;
#X connect 63 1 93 0;
#X connect 64 0 115 0;
#X connect 64 1 67 0;
#X connect 65 0 64 0;
#X connect 65 1 63 0;
#X connect 67 0 66 0;
#X connect 68 0 66 0;
#X connect 73 0 74 1;
#X connect 74 0 6 0;
#X connect 76 0 74 0;
#X connect 78 0 2 0;
#X connect 79 0 4 0;
#X connect 80 0 83 0;
#X connect 83 0 33 0;
#X connect 84 0 103 0;
#X connect 86 0 33 1;
#X connect 87 0 9 1;
#X connect 88 0 5 0;
#X connect 88 1 5 1;
#X connect 89 0 86 0;
#X connect 90 0 105 0;
#X connect 91 0 105 0;
#X connect 92 0 119 0;
#X connect 93 0 119 0;
#X connect 94 0 114 0;
#X connect 94 1 106 0;
#X connect 95 0 109 0;
#X connect 96 0 113 0;
#X connect 96 1 11 0;
#X connect 97 0 9 0;
#X connect 98 0 112 0;
#X connect 98 0 112 0;
#X connect 98 1 90 0;
#X connect 99 0 29 0;
#X connect 99 1 0 1;
#X connect 103 0 98 0;
#X connect 104 0 55 0;
#X connect 104 1 56 0;
#X connect 106 0 108 0;
#X connect 107 0 108 0;
#X connect 112 0 118 0;
#X connect 113 0 107 0;
#X connect 114 0 10 0;
#X connect 115 0 92 0;
#X connect 116 0 68 0;
#X connect 117 0 28 0;
#X connect 118 0 91 0;
#X connect 118 1 11 0;
#X connect 118 2 7 0;
#X restore 280 132 pd AUDIO_UNIT;
#X obj 60 110 hradio 12 1 0 2 \$0-ioMode_gui \$0-ioMode_gui_set empty
28 6 0 10 -262144 -1 -1 0;
#X obj 143 110 tgl 12 0 \$0-audio_gui \$0-audio_gui_set AUDIO -33 6
0 10 -228856 -1 -1 1 1;
#X obj 161 110 bng 12 250 50 0 \$0-click_audioGUI morto empty 16 6
0 10 -228856 -1 -1;
#X obj 178 191 tgl 25 0 \$0-loop_gui \$0-loop_gui_set L 8 13 0 18 -62784
-62784 -1 1 1;
#X obj 63 191 tgl 25 0 \$0-play_gui \$0-play_gui_set P 8 13 0 18 -42246
-42246 -262144 0 1;
#N canvas 397 174 517 299 EXTERNAL_CONTROL 0;
#X text 213 137 FILTER BY CHANNEL;
#X text 174 170 FILTER BY MODULE;
#X obj 48 234 s \$0-externalControl;
#X text 265 235 SEND CONTROLS LOCALLY;
#X obj 48 136 route channel\$1;
#X obj 48 72 r OSC_BUS;
#X text 43 19 ** EXTERNAL CONTROL ROUTER VIA OSC MESSAGES;
#X text 153 69 RECEIVE UNPACKED OSC BY MASTER PATCH, f 29;
#X obj 48 170 route video;
#X connect 4 0 8 0;
#X connect 5 0 4 0;
#X connect 8 0 2 0;
#X restore 280 30 pd EXTERNAL_CONTROL;
#N canvas 148 283 604 387 CONTROL_MEMORY 0;
#N canvas 127 153 974 472 PRESET_MANAGER 0;
#X obj 42 310 list prepend video;
#X obj 42 343 list trim;
#X obj 42 67 r CH\$1_FLUSH;
#X obj 42 390 s CH\$1_PRESET;
#X obj 89 132 s \$0-slotFlush;
#X obj 89 277 r \$0-slotList;
#X text 236 276 RECEIVE DATA FROM SLOTS;
#X text 39 419 SEND TO GLOBAL MANAGER OF PRESETS;
#X obj 531 67 r MAIN_PRESET_SEND;
#X obj 531 124 route \$1;
#X obj 531 154 route video;
#X text 627 124 ROUTE BY CHANNEL;
#X obj 735 247 s \$0-slotFilePreset;
#X text 726 64 RECEIVE GLOBAL PRESET MEMORY, f 17;
#X text 732 276 SEND DATA TO SLOTS;
#X text 244 133 REQUEST DATA FROM SLOTS;
#X obj 69 174 r \$0-activeSlot;
#X obj 42 203 f;
#X obj 42 232 list prepend activeSlot;
#X obj 42 100 t b b;
#X text 236 174 MEMORY OF THE ACTIVE SLOT IN UNIT, f 21;
#X obj 531 183 route activeSlot;
#X text 501 337 SEND ACTIVE SLOT;
#X obj 504 308 s \$0-activeSlot_gui_set;
#X obj 504 269 f;
#X obj 688 215 t b a;
#X text 164 19 ** MANAGES COMMUNICATION BETWEEN SLOTS AND THE GLOBAL
MANAGER OF PRESETS, f 62;
#X connect 0 0 1 0;
#X connect 1 0 3 0;
#X connect 2 0 19 0;
#X connect 5 0 0 0;
#X connect 8 0 9 0;
#X connect 9 0 10 0;
#X connect 10 0 21 0;
#X connect 16 0 17 1;
#X connect 17 0 18 0;
#X connect 18 0 0 0;
#X connect 19 0 17 0;
#X connect 19 1 4 0;
#X connect 21 0 24 1;
#X connect 21 1 25 0;
#X connect 24 0 23 0;
#X connect 25 0 24 0;
#X connect 25 1 12 0;
#X restore 329 84 pd PRESET_MANAGER;
#X text 47 56 LOCAL MEMORY SLOTS;
#N canvas 277 252 551 309 SEND_ACTIVE_SLOT 0;
#X obj 45 94 r \$0-activeSlot;
#X obj 102 125 r \$0-channelState;
#X obj 45 207 spigot;
#X obj 45 178 f;
#X obj 102 154 t b f;
#X text 120 207 ONLY IF VIDEO MODULE IS ACTIVE;
#X obj 45 246 s V\$1_ACTIVE_SLOT;
#X obj 325 118 s C\$1_ACTIVE_SLOT;
#X text 323 146 SEND STRAIGHT TO CAMERA UNIT, f 17;
#X text 68 22 ** SENDS ACTIVE SLOT IN THE VIDEO MODULE TO THE TRANSFORM
AND EFFECTS MODULE, f 40;
#X connect 0 0 3 0;
#X connect 0 0 7 0;
#X connect 1 0 4 0;
#X connect 2 0 6 0;
#X connect 3 0 2 0;
#X connect 4 0 3 0;
#X connect 4 1 2 1;
#X restore 329 152 pd SEND_ACTIVE_SLOT;
#N canvas 157 151 1223 415 AUTOMATION_MANAGER 0;
#X msg 458 119 1;
#X msg 458 249 1;
#X text 502 121 CONVERT BANG TO VALUE 1;
#X text 502 250 CONVERT BANG TO VALUE 1;
#X text 150 93 ENABLE UNIT BUTTON;
#X obj 38 89 r V\$1_ST;
#X obj 38 149 s V\$1_SET_ST;
#X text 386 15 ** LOCAL MANAGEMENT OF THE AUTOMATION SYSTEM;
#X text 36 58 AUTOMATION UNITS BY PARAMETER;
#X obj 458 89 r \$0-rw_gui;
#X obj 458 219 r \$0-stop_gui;
#X obj 38 119 arrast_automato \$0 enableButton \$1 0 0;
#X obj 38 189 arrast_automato \$0 activeSlot \$1 0 1;
#X obj 38 219 arrast_automato \$0 ioMode \$1 0 2;
#X obj 38 249 arrast_automato \$0 inSet \$1 0 3;
#X obj 38 279 arrast_automato \$0 outSet \$1 0 4;
#X obj 38 309 arrast_automato \$0 speed \$1 0 5;
#X obj 38 339 arrast_automato \$0 play \$1 0 6;
#X obj 458 149 arrast_automato \$0 rw \$1 1 7;
#X obj 458 179 arrast_automato \$0 inv \$1 0 8;
#X obj 458 279 arrast_automato \$0 stop \$1 1 9;
#X obj 458 309 arrast_automato \$0 loop \$1 0 10;
#X obj 458 339 arrast_automato \$0 loopMode \$1 0 11;
#X obj 803 89 arrast_automato \$0 audio \$1 0 12;
#X obj 803 119 arrast_automato \$0 samplerate \$1 0 13;
#X obj 803 149 arrast_automato \$0 boost \$1 0 14;
#X obj 803 179 arrast_automato \$0 avAmp \$1 0 15;
#X obj 803 209 arrast_automato \$0 avLop \$1 0 16;
#X obj 803 239 arrast_automato \$0 avHip \$1 0 17;
#X connect 0 0 18 0;
#X connect 1 0 20 0;
#X connect 5 0 11 0;
#X connect 9 0 0 0;
#X connect 10 0 1 0;
#X connect 11 0 6 0;
#X restore 329 118 pd AUTOMATION_MANAGER;
#X obj 328 288 s \$0-resetSlot;
#X floatatom 328 259 5 0 0 0 - - -, f 5;
#X msg 329 226 1 \, 2 \, 3 \, 4 \, 5 \, 6 \, 7 \, 8;
#X text 382 200 RESET SLOTS;
#X obj 48 84 arrast_videoslot \$0 \$1 1;
#X text 145 17 ** LOCAL MEMORY MANAGEMENT;
#X obj 48 118 arrast_videoslot \$0 \$1 2;
#X obj 48 152 arrast_videoslot \$0 \$1 3;
#X obj 48 186 arrast_videoslot \$0 \$1 4;
#X obj 48 220 arrast_videoslot \$0 \$1 5;
#X obj 48 254 arrast_videoslot \$0 \$1 6;
#X obj 48 288 arrast_videoslot \$0 \$1 7;
#X obj 48 322 arrast_videoslot \$0 \$1 8;
#X connect 5 0 4 0;
#X connect 6 0 4 0;
#X restore 280 64 pd CONTROL_MEMORY;
#X obj 90 110 tgl 12 0 \$0-ioLink_gui \$0-ioLink_gui_set empty 17 7
0 10 -262144 -1 -1 0 1;
#X coords 0 -1 1 1 185 200 2 50 30;
