#N canvas 101 56 1104 695 16;
#X obj 57 273 arrast_transp;
#X obj 421 102 route T\$1;
#X obj 421 190 s \$0-transp;
#X obj 545 190 s \$0-white;
#X obj 659 190 s \$0-black;
#X obj 57 669 translateXYZ 0 0 0;
#X obj 57 601 scale 1.333;
#X obj 743 224 s \$0-red;
#X obj 837 224 s \$0-green;
#X obj 951 224 s \$0-blue;
#N canvas 509 149 386 264 SELECT_SOURCE 0;
#X obj 42 145 spigot;
#X obj 257 38 inlet;
#X obj 99 96 == 0;
#X obj 42 38 inlet;
#X obj 142 145 spigot;
#X obj 199 96 == 1;
#X obj 42 200 outlet;
#X obj 257 72 clip 0 1;
#X obj 142 200 outlet;
#X connect 0 0 6 0;
#X connect 1 0 7 0;
#X connect 2 0 0 1;
#X connect 3 0 0 0;
#X connect 3 0 4 0;
#X connect 4 0 8 0;
#X connect 5 0 4 1;
#X connect 7 0 2 0;
#X connect 7 0 5 0;
#X restore 57 135 pd SELECT_SOURCE;
#N canvas 598 233 706 335 TRANSP_CONTROL 0;
#X obj 159 150 r \$0-white;
#X obj 279 150 r \$0-black;
#X obj 32 149 r \$0-transp;
#X msg 32 178 transp1 \$1;
#X obj 159 276 outlet;
#X msg 422 154 1;
#X msg 462 154 1;
#X msg 590 154 1;
#X msg 550 154 0;
#X obj 422 90 sel 0 1;
#X obj 422 122 t b b b;
#X msg 502 154 0;
#X msg 630 154 0;
#X obj 550 122 t b b b;
#X obj 422 58 inlet MODE;
#X msg 159 178 wh \$1;
#X msg 279 178 bl \$1;
#X text 144 14 ** ORGANIZA CONTROLES DE TRANSPARÊNCIA;
#X obj 159 233 spigot;
#X connect 0 0 15 0;
#X connect 1 0 16 0;
#X connect 2 0 3 0;
#X connect 3 0 18 0;
#X connect 5 0 18 1;
#X connect 6 0 3 0;
#X connect 6 0 15 0;
#X connect 7 0 3 0;
#X connect 7 0 15 0;
#X connect 8 0 18 1;
#X connect 9 0 10 0;
#X connect 9 1 13 0;
#X connect 10 0 5 0;
#X connect 10 1 6 0;
#X connect 10 2 11 0;
#X connect 11 0 16 0;
#X connect 12 0 16 0;
#X connect 13 0 8 0;
#X connect 13 1 7 0;
#X connect 13 2 12 0;
#X connect 14 0 9 0;
#X connect 15 0 18 0;
#X connect 16 0 18 0;
#X connect 18 0 4 0;
#X restore 217 249 pd TRANSP_CONTROL;
#X obj 421 68 r TRANSF_BUS;
#X obj 773 190 s \$0-flipH;
#X obj 887 190 s \$0-flipV;
#X obj 535 224 s \$0-posX;
#X obj 639 224 s \$0-posY;
#X obj 116 635 r \$0-posX;
#X obj 220 635 r \$0-posY;
#N canvas 432 299 687 315 COLOR 0;
#X obj 48 256 outlet;
#X obj 48 32 r \$0-red;
#X obj 142 32 r \$0-green;
#X obj 256 32 r \$0-blue;
#X obj 142 256 outlet;
#X obj 256 256 outlet;
#X obj 360 256 outlet;
#X obj 360 32 r \$0-transp;
#X obj 360 202 spigot;
#X obj 451 144 t b b;
#X msg 451 178 1;
#X msg 499 178 1;
#X obj 547 144 t b b;
#X msg 595 178 1;
#X msg 547 178 0;
#X obj 451 110 sel 1 0;
#X obj 451 76 inlet MODE;
#X connect 1 0 0 0;
#X connect 2 0 4 0;
#X connect 3 0 5 0;
#X connect 7 0 8 0;
#X connect 8 0 6 0;
#X connect 9 0 10 0;
#X connect 9 1 11 0;
#X connect 10 0 8 1;
#X connect 11 0 6 0;
#X connect 12 0 14 0;
#X connect 12 1 13 0;
#X connect 13 0 6 0;
#X connect 14 0 8 1;
#X connect 15 0 9 0;
#X connect 15 1 12 0;
#X connect 16 0 15 0;
#X restore 76 703 pd COLOR;
#X obj 214 101 t f f f f;
#X obj 57 781 outlet GEMLIST;
#X obj 214 67 r MODE_BUS;
#X obj 421 136 route transp white black flipH flipV scale posX posY
red green blue;
#X obj 421 224 s \$0-scale;
#N canvas 398 282 345 247 SCALE 0;
#X obj 45 235 outlet;
#X obj 45 187 * 1.333;
#X obj 169 61 sel 0 1;
#X msg 169 95 1.333;
#X obj 169 129 t b f;
#X obj 45 153 f 1;
#X obj 238 129 t b f;
#X msg 238 95 1;
#X obj 169 27 inlet MODE;
#X obj 45 27 r \$0-scale;
#X connect 1 0 0 0;
#X connect 2 0 3 0;
#X connect 2 1 7 0;
#X connect 3 0 4 0;
#X connect 4 0 5 0;
#X connect 4 1 1 1;
#X connect 5 0 1 0;
#X connect 6 0 5 0;
#X connect 6 1 1 1;
#X connect 7 0 6 0;
#X connect 8 0 2 0;
#X connect 9 0 5 0;
#X restore 110 567 pd SCALE;
#X obj 57 737 colorRGB;
#X text 557 70 RECEBE COMANDOS DA 1 INSTÂNCIA;
#X text 527 104 ROTEIA POR CANAL;
#X text 324 18 ** UNIDADE DE APLICAÇÃO DE TRANSFORMAÇÕES;
#X obj 57 67 inlet GEMLIST;
#X obj 57 533 pix_flip;
#X obj 169 349 r \$0-flipH;
#X obj 293 349 r \$0-flipV;
#X obj 293 383 * 2;
#X obj 293 417 t b f;
#X obj 169 441 +;
#X msg 169 509 none;
#X msg 228 509 horizontal;
#X msg 347 509 vertical;
#X obj 169 475 sel 0 1 2 3;
#X msg 446 509 both;
#X obj 214 169 pix_separator;
#X obj 214 198 pix_rgba;
#X connect 0 0 31 0;
#X connect 1 0 23 0;
#X connect 5 0 26 0;
#X connect 6 0 5 0;
#X connect 10 0 0 0;
#X connect 10 1 42 0;
#X connect 11 0 0 1;
#X connect 12 0 1 0;
#X connect 17 0 5 1;
#X connect 18 0 5 2;
#X connect 19 0 26 1;
#X connect 19 1 26 2;
#X connect 19 2 26 3;
#X connect 19 3 26 4;
#X connect 20 0 10 1;
#X connect 20 1 11 0;
#X connect 20 2 25 0;
#X connect 20 3 19 0;
#X connect 22 0 20 0;
#X connect 23 0 2 0;
#X connect 23 1 3 0;
#X connect 23 2 4 0;
#X connect 23 3 13 0;
#X connect 23 4 14 0;
#X connect 23 5 24 0;
#X connect 23 6 15 0;
#X connect 23 7 16 0;
#X connect 23 8 7 0;
#X connect 23 9 8 0;
#X connect 23 10 9 0;
#X connect 25 0 6 1;
#X connect 26 0 21 0;
#X connect 30 0 10 0;
#X connect 31 0 6 0;
#X connect 32 0 36 0;
#X connect 33 0 34 0;
#X connect 34 0 35 0;
#X connect 35 0 36 0;
#X connect 35 1 36 1;
#X connect 36 0 40 0;
#X connect 37 0 31 0;
#X connect 38 0 31 0;
#X connect 39 0 31 0;
#X connect 40 0 37 0;
#X connect 40 1 38 0;
#X connect 40 2 39 0;
#X connect 40 3 41 0;
#X connect 41 0 31 0;
#X connect 42 0 43 0;
#X connect 43 0 31 0;
