#N canvas 76 280 523 191 16;
#X obj 50 30 cnv 15 185 98 empty empty empty 20 12 0 14 -128992 -66577
0;
#X obj 60 55 vsl 12 60 0 1 0 0 \$0-red_gui \$0-red_gui_set empty 0
-9 0 10 -258113 -1 -1 5900 1;
#X obj 73 55 vsl 12 60 0 1 0 0 \$0-green_gui \$0-green_gui_set COLOR
-8 -10 0 10 -4034 -1 -262144 5900 1;
#X obj 86 55 vsl 12 60 0 1 0 0 \$0-blue_gui \$0-blue_gui_set empty
0 -9 0 10 -4160 -1 -1 5900 1;
#X obj 137 54 vsl 12 60 0 1 0 0 \$0-gain_gui \$0-gain_gui_set G 4 -10
0 10 -1 -262144 -262144 1180 1;
#X obj 159 54 vsl 12 60 0 1 0 0 \$0-contrast_gui \$0-contrast_gui_set
C 4 -10 0 10 -1 -262144 -262144 1180 1;
#X obj 181 54 vsl 12 60 0 1 0 0 \$0-saturation_gui \$0-saturation_gui_set
S 4 -10 0 10 -1 -262144 -262144 1180 1;
#X obj 213 54 vsl 12 60 0 1 0 0 \$0-motionBlur_gui \$0-motionBlur_gui_set
MB 1 -10 0 10 -1 -262144 -262144 5200 1;
#X obj 102 53 bng 12 250 50 0 \$0-resetRGB_gui \$0-resetRGB_gui_set
empty 17 7 0 10 -262144 -1 -1;
#X obj 150 98 bng 8 250 50 0 \$0-resetG_gui \$0-resetG_gui_set empty
17 7 0 10 -262144 -1 -1;
#X obj 172 98 bng 8 250 50 0 \$0-resetC_gui \$0-resetC_gui_set empty
17 7 0 10 -262144 -1 -1;
#X obj 194 98 bng 8 250 50 0 \$0-resetS_gui \$0-resetS_gui_set empty
17 7 0 10 -262144 -1 -1;
#X obj 197 53 bng 12 250 50 0 \$0-resetFX_gui \$0-resetFX_gui_set empty
17 7 0 10 -262144 -1 -1;
#X obj 108 99 tgl 18 0 \$0-colorInv_gui \$0-colorInv_gui_set INV 1
-7 0 10 -1 -262144 -262144 0 1;
#N canvas 53 114 1199 274 RESET 0;
#X msg 52 113 1;
#X msg 251 113 0.2;
#X msg 441 113 0.2;
#X msg 671 113 0.2;
#X msg 921 113 0;
#X obj 52 157 s \$0-red_gui_set;
#X obj 52 187 s \$0-green_gui_set;
#X obj 52 217 s \$0-blue_gui_set;
#X obj 251 157 s \$0-gain_gui_set;
#X obj 441 157 s \$0-contrast_gui_set;
#X obj 671 157 s \$0-saturation_gui_set;
#X obj 921 187 s \$0-colorInv_gui_set;
#X text 314 19 ** RESETA PARÂMETROS A PARTIR DOS BOTÕES DA INTERFACE
;
#X obj 921 157 s \$0-motionBlur_gui_set;
#X obj 52 64 r \$0-resetRGB_gui;
#X obj 251 64 r \$0-resetG_gui;
#X obj 441 64 r \$0-resetC_gui;
#X obj 671 64 r \$0-resetS_gui;
#X obj 921 64 r \$0-resetFX_gui;
#X connect 0 0 5 0;
#X connect 0 0 6 0;
#X connect 0 0 7 0;
#X connect 1 0 8 0;
#X connect 2 0 9 0;
#X connect 3 0 10 0;
#X connect 4 0 11 0;
#X connect 4 0 13 0;
#X connect 14 0 0 0;
#X connect 15 0 1 0;
#X connect 16 0 2 0;
#X connect 17 0 3 0;
#X connect 18 0 3 0;
#X connect 18 0 2 0;
#X connect 18 0 1 0;
#X connect 18 0 4 0;
#X restore 280 98 pd RESET;
#N canvas 159 184 796 489 LINKS 0;
#X obj 64 384 list prepend FX\$1;
#X obj 64 424 s CANAL_FX;
#X obj 64 69 r \$0-red;
#X obj 264 69 r \$0-green;
#X obj 514 69 r \$0-blue;
#X obj 64 100 list prepend red;
#X obj 264 100 list prepend green;
#X obj 514 100 list prepend blue;
#X obj 64 249 r \$0-gain;
#X obj 64 280 list prepend gain;
#X obj 264 250 r \$0-contrast;
#X obj 264 281 list prepend contrast;
#X obj 64 154 list prepend T\$1;
#X obj 64 194 s CANAL_T;
#X obj 514 250 r \$0-saturation;
#X obj 514 281 list prepend saturation;
#X obj 264 328 r \$0-colorInv;
#X obj 264 360 list prepend colorInv;
#X obj 514 329 r \$0-motionBlur;
#X obj 514 360 list prepend motionBlur;
#X text 62 20 ** ENVIA CONTROLES PARA 2 INSTÂNCIA;
#X connect 0 0 1 0;
#X connect 2 0 5 0;
#X connect 3 0 6 0;
#X connect 4 0 7 0;
#X connect 5 0 12 0;
#X connect 6 0 12 0;
#X connect 7 0 12 0;
#X connect 8 0 9 0;
#X connect 9 0 0 0;
#X connect 10 0 11 0;
#X connect 11 0 0 0;
#X connect 12 0 13 0;
#X connect 14 0 15 0;
#X connect 15 0 0 0;
#X connect 16 0 17 0;
#X connect 17 0 0 0;
#X connect 18 0 19 0;
#X connect 19 0 0 0;
#X restore 280 133 pd LINKS;
#N canvas 452 387 756 273 EXTERNAL_CONTROL 0;
#X obj 444 110 oscformat;
#X obj 67 32 oscparse;
#X msg 472 80 set camino para lo osc;
#X obj 67 112 route \$1;
#X text 164 112 FILTRA POR CANAL;
#X msg 444 50 teste 23;
#X obj 67 71 route arrast_vj;
#X text 234 71 PRIMEIRA TAG OSC;
#X obj 67 193 s \$0-to_arrast_slot;
#X text 278 193 ENVIA CONTROLE PARA SLOTS;
#X text 164 152 FILTRA POR MÓDULO;
#X obj 67 152 route fx;
#X connect 0 0 1 0;
#X connect 1 0 6 0;
#X connect 2 0 0 0;
#X connect 3 0 11 0;
#X connect 5 0 0 0;
#X connect 6 0 3 0;
#X connect 11 0 8 0;
#X restore 280 30 pd EXTERNAL_CONTROL;
#N canvas 173 61 564 381 CONTROL_MEMORY 0;
#N canvas 295 341 1007 408 PRESET_MANAGER 0;
#X obj 42 283 list trim;
#X obj 42 67 r CH\$1_FLUSH;
#X obj 42 330 s CH\$1_PRESET;
#X obj 42 132 s \$0-slotFlush;
#X obj 42 217 r \$0-slotList;
#X obj 42 100 t b;
#X text 189 216 RECEBE DADOS DOS SLOTS;
#X text 39 359 ENVIA PARA GESTOR GLOBAL DE PRESETS;
#X text 134 19 ** GERENCIA COMUNICAÇÃO ENTRE SLOTS E GESTOR GLOBAL
DE PRESETS, f 62;
#X obj 461 67 r MAIN_PRESET_SEND;
#X obj 508 134 route \$1;
#X text 604 134 ROTEIA POR CANAL;
#X obj 508 204 s \$0-slotFilePreset;
#X text 656 64 RECEBE MEMÓRIA DO PRESET GLOBAL, f 17;
#X text 505 233 ENVIA DADOS PARA SLOTS;
#X text 39 162 SOLICITA DADOS DOS SLOTS;
#X obj 508 164 route fx;
#X obj 42 250 list prepend fx;
#X obj 461 96 t b a;
#X text 665 316 ATUALIZA SLOT ATIVO LOCALMENTE;
#X obj 461 285 del 10;
#X obj 461 315 s \$0-slotLocalFlush;
#X connect 0 0 2 0;
#X connect 1 0 5 0;
#X connect 4 0 17 0;
#X connect 5 0 3 0;
#X connect 9 0 18 0;
#X connect 10 0 16 0;
#X connect 16 0 12 0;
#X connect 17 0 0 0;
#X connect 18 0 20 0;
#X connect 18 1 10 0;
#X connect 20 0 21 0;
#X restore 299 84 pd PRESET_MANAGER;
#X text 47 56 SLOTS DE MEMÓRIA LOCAL;
#N canvas 808 286 420 326 ACTIVE_SLOT 0;
#X obj 48 89 r V\$1_ACTIVE_SLOT;
#X obj 48 129 r I\$1_ACTIVE_SLOT;
#X obj 48 272 s \$0-activeSlot;
#X obj 48 160 f;
#X text 46 27 ** RECEBE SLOT ATIVO DOS MÓDULOS DE VÍDEO E IMAGEM
, f 32;
#X text 212 273 ENVIA LOCALMENTE;
#X obj 48 238 f;
#X text 139 175 ATUALIZA SLOT ATIVO;
#X obj 141 199 r \$0-slotLocalFlush;
#X connect 0 0 3 0;
#X connect 1 0 3 0;
#X connect 3 0 6 0;
#X connect 6 0 2 0;
#X connect 8 0 6 0;
#X restore 299 152 pd ACTIVE_SLOT;
#X obj 48 84 arrast_fxslot \$0 \$1 1;
#X text 143 17 ** GESTÃO DA MEMÓRIA LOCAL;
#N canvas 260 208 475 375 AUTOMATION_MANAGER 0;
#X text 36 19 ** GESTÃO LOCAL DO SISTEMA DE AUTOMAÇÕES;
#X text 46 59 UNIDADES DE AUTOMAÇÃO POR PARÂMETRO;
#X obj 49 97 arrast_automato \$0 red \$1 0 32;
#X obj 49 127 arrast_automato \$0 green \$1 0 33;
#X obj 49 157 arrast_automato \$0 blue \$1 0 34;
#X obj 49 187 arrast_automato \$0 colorInv \$1 0 35;
#X obj 49 217 arrast_automato \$0 gain \$1 0 36;
#X obj 49 247 arrast_automato \$0 contrast \$1 0 37;
#X obj 49 277 arrast_automato \$0 saturation \$1 0 38;
#X obj 49 307 arrast_automato \$0 motionBlur \$1 0 39;
#X restore 299 118 pd AUTOMATION_MANAGER;
#X obj 48 118 arrast_fxslot \$0 \$1 2;
#X obj 48 152 arrast_fxslot \$0 \$1 3;
#X obj 48 186 arrast_fxslot \$0 \$1 4;
#X obj 48 220 arrast_fxslot \$0 \$1 5;
#X obj 48 254 arrast_fxslot \$0 \$1 6;
#X obj 48 288 arrast_fxslot \$0 \$1 7;
#X obj 48 322 arrast_fxslot \$0 \$1 8;
#X restore 280 64 pd CONTROL_MEMORY;
#X coords 0 -1 1 1 185 98 2 50 30;
