#N canvas 404 120 844 534 16;
#N canvas 49 76 791 550 WRITE_VALUE 0;
#X obj 63 64 inlet VALUE;
#X obj 36 181 f 0;
#X obj 63 105 t f f;
#N canvas 243 164 713 229 README_MODES 0;
#X text 44 80 0 - AMOSTRAGEM DE ACORDO COM RESOLUÇÃO (ESTABILIZA
GRAVAÇÃO) - IDEAL PARA SLIDERS \, FLUXOS CONTÍNUOS, f 62;
#X text 44 130 1 - AMOSTRAGEM CONTÍNUA DO VALOR (GRAVA ZEROS) - IDEAL
PARA BANGS \, EVENTOS PONTUAIS, f 62;
#X text 44 42 ** 2 MODOS DE GRAVAÇÃO DA AUTOMAÇÃO NO ARRAY (0 E
1):;
#X restore 418 166 pd README_MODES;
#N canvas 329 223 389 250 GATE 0;
#X obj 48 37 inlet;
#X obj 48 126 spigot;
#X obj 178 37 inlet;
#X obj 178 126 spigot;
#X obj 288 37 inlet;
#X obj 48 193 outlet;
#X obj 105 91 == 0;
#X obj 288 67 t f f;
#X connect 0 0 1 0;
#X connect 1 0 5 0;
#X connect 2 0 3 0;
#X connect 3 0 5 0;
#X connect 4 0 7 0;
#X connect 6 0 1 1;
#X connect 7 0 6 0;
#X connect 7 1 3 1;
#X restore 36 220 pd GATE;
#X obj 36 147 r \$0-flushBang;
#X obj 36 498 tabwrite \$0-memo;
#X obj 103 188 r \$0-mode;
#X text 199 20 ** ESCREVE VALOR NA TABELA DE MEMÓRIA;
#X obj 418 122 s \$0-mode;
#X obj 418 64 loadbang;
#X obj 418 93 f \$4;
#X text 526 72 INICIALIZA MODO DE ESCRITA DA UNIDADE DE ACORDO COM
4 ARGUMENTO, f 22;
#X text 415 195 INFORMAÇÃO SOBRE MODOS DE ESCRITA;
#X text 206 190 MODO DE ESCRITA;
#X text 246 329 ESTADO DA UNIDADE (M/W/R);
#X obj 36 420 spigot;
#X obj 93 328 r \$0-autoState;
#X obj 93 357 == 1;
#X text 146 358 APENAS NO MODO ESCRITA (W);
#X obj 93 386 t f f;
#X obj 193 464 spigot;
#X obj 193 396 r \$0-index;
#X text 305 397 RECEBE ÍNDICE GLOBAL;
#X obj 130 241 r AUTOMATION_REC;
#X obj 36 294 spigot;
#X obj 130 270 t f f;
#X obj 193 430 spigot;
#X text 303 242 BOTÃO NA INTERFACE QUE ARMA GRAVAÇÃO GLOBAL;
#X connect 0 0 2 0;
#X connect 1 0 4 0;
#X connect 2 0 1 1;
#X connect 2 1 4 1;
#X connect 4 0 25 0;
#X connect 5 0 1 0;
#X connect 7 0 4 2;
#X connect 10 0 11 0;
#X connect 11 0 9 0;
#X connect 16 0 6 0;
#X connect 17 0 18 0;
#X connect 18 0 20 0;
#X connect 20 0 16 1;
#X connect 20 1 21 1;
#X connect 21 0 6 1;
#X connect 22 0 27 0;
#X connect 24 0 26 0;
#X connect 25 0 16 0;
#X connect 26 0 25 1;
#X connect 26 1 27 1;
#X connect 27 0 21 0;
#X restore 51 199 pd WRITE_VALUE;
#N canvas 37 70 533 329 READ_VALUE 0;
#X obj 35 261 outlet VALUE;
#X obj 35 72 r \$0-index;
#X text 91 22 ** LÊ VALOR DO ARRAY DE AUTOMAÇÃO;
#X obj 35 220 tabread \$0-memo;
#X text 200 221 LÊ TABELA DE MEMÓRIA;
#X text 150 72 RECEBE ÍNDICE GLOBAL;
#X text 245 119 ESTADO DA UNIDADE (M/W/R);
#X obj 35 177 spigot;
#X obj 92 119 r \$0-autoState;
#X text 145 149 APENAS NO MODO LEITURA (R);
#X obj 92 148 == 2;
#X connect 1 0 7 0;
#X connect 3 0 0 0;
#X connect 7 0 3 0;
#X connect 8 0 10 0;
#X connect 10 0 7 1;
#X restore 51 273 pd READ_VALUE;
#X obj 71 374 s \$1-\$2_gui_set;
#X obj 71 160 r \$1-\$2;
#X text 153 160 RECEBE VALOR DO PARÂMETRO;
#X text 69 403 ENVIA VALOR DO PARÂMETRO;
#X text 203 15 ** UNIDADE DE AUTOMAÇÃO PARA 1 PARÂMETRO;
#X obj 51 112 inlet VALUE;
#X obj 51 448 outlet VALUE;
#N canvas 529 103 657 365 OUTPUT_MODE 0;
#X obj 49 62 inlet;
#X obj 49 196 spigot;
#X obj 208 196 spigot;
#X obj 49 320 outlet;
#X obj 106 141 == 0;
#X obj 218 117 t f f;
#X obj 49 101 t f f;
#X obj 218 87 r \$0-mode;
#X obj 208 240 sel 0;
#X obj 255 272 t b;
#X text 283 197 MODO 1 - SAÍDA DE BANG COM QUALQUER VALOR DIFERENTE
DE 0, f 22;
#X text 38 19 ** SAÍDA DE VALOR DE ACORDO COM CADA MODO DE GRAVAÇÃO
;
#X text 121 197 MODO 0;
#X obj 343 87 r \$0-indexState;
#X msg 343 145 set -99;
#X obj 49 230 change -99;
#X text 432 117 REINICIA [change] SEMPRE QUE MUDA ESTADO DO ÍNDICE
, f 17;
#X obj 343 116 change;
#X connect 0 0 6 0;
#X connect 1 0 15 0;
#X connect 2 0 8 0;
#X connect 4 0 1 1;
#X connect 5 0 4 0;
#X connect 5 1 2 1;
#X connect 6 0 1 0;
#X connect 6 1 2 0;
#X connect 7 0 5 0;
#X connect 8 1 9 0;
#X connect 9 0 3 0;
#X connect 13 0 17 0;
#X connect 14 0 15 0;
#X connect 15 0 3 0;
#X connect 17 0 14 0;
#X restore 51 323 pd OUTPUT_MODE;
#N canvas 126 379 1235 384 RECEIVE_INDEX 0;
#X obj 502 164 t f;
#X obj 101 260 s \$0-index;
#X floatatom 54 188 5 0 0 0 - - -, f 5;
#X text 546 165 PRIMEIRO REDIMENSIONA ARRAY;
#X obj 54 300 s \$0-flushBang;
#X obj 855 161 unpack f f;
#X obj 855 214 spigot;
#X floatatom 855 243 5 0 0 0 - - -, f 5;
#X obj 855 269 s \$0-autoState;
#X text 852 62 RECEBE ESTADO (MANUAL/WRITE/READ) DO MENU DE AUTOMAÇÕES
E REENVIA LOCALMENTE, f 33;
#X msg 502 222 resize \$1;
#X obj 502 261 outlet RESIZE_ARRAY;
#X obj 952 190 == \$5;
#X text 115 189 ÍNDICE GLOBAL;
#X obj 54 111 r AUTOMATION_MASTER;
#X text 51 62 RECEBE ÍNDICE GLOBAL E TAMANHO PARA REDIMENSIONAMENTO
DO ARRAY DE MEMÓRIA, f 37;
#X obj 502 193 change;
#X text 576 195 ELIMINA REPETIÇÕES;
#X obj 54 231 t b f;
#X text 214 261 ENVIA ÍNDICE LOCALMENTE;
#X text 208 301 DEPOIS AMOSTRA VALOR DE ENTRADA;
#X text 147 19 ** RECEBE ÍNDICE PARA ESCRITA E LEITURA DO ARRAY DE
MEMÓRIA E ESTADO DA UNIDADE DE AUTOMAÇÃO, f 92;
#X obj 855 132 r \$3-autoState;
#X obj 502 119 s \$0-indexState;
#X obj 502 90 r AUTOMATION_STATE;
#X text 499 62 RECEBE ESTADO DO ÍNDICE;
#X obj 54 140 unpack f f;
#X connect 0 0 16 0;
#X connect 2 0 18 0;
#X connect 5 0 6 0;
#X connect 5 1 12 0;
#X connect 6 0 7 0;
#X connect 7 0 8 0;
#X connect 10 0 11 0;
#X connect 12 0 6 1;
#X connect 14 0 26 0;
#X connect 16 0 10 0;
#X connect 18 0 4 0;
#X connect 18 1 1 0;
#X connect 22 0 5 0;
#X connect 24 0 23 0;
#X connect 26 0 2 0;
#X connect 26 1 0 0;
#X restore 500 163 pd RECEIVE_INDEX;
#X obj 500 217 array define \$0-memo;
#X text 498 249 ARRAY DE MEMÓRIA DA AUTOMAÇÃO;
#X text 203 200 ESCRITA DA MEMÓRIA;
#X text 193 273 LEITURA DA MEMÓRIA;
#X text 203 324 SAÍDA DE VALOR DE ACORDO COM CADA MODO DE GRAVAÇÃO
, f 25;
#X text 497 112 RECEBE ÍNDICE GLOBAL DO CONTROLE DE AUTOMAÇÃO,
f 23;
#X obj 500 297 loadbang;
#X obj 500 326 del \$5;
#X obj 500 355 f \$0;
#X msg 500 384 symbol \$1-memo;
#X text 75 47 ARGUMENTOS: ID GERAL (\$0) \, NOME DO PARÂMETRO \, CANAL
\, MODO DE ESCRITA \, ID DE CONTROLE EXTERNO DO ESTADO INTERNO (M/W/R)
, f 69;
#X text 574 324 ORDENA ENVIO PELO 5 ARGUMENTO, f 17;
#X obj 500 413 s CH\$3_AUTOMEMOLIST;
#X text 497 445 ENVIA NOME DO ARRAY DE MEMÓRIA LOCAL PARA LISTA NO
GESTOR DE PRESETS, f 24;
#X connect 1 0 9 0;
#X connect 3 0 0 0;
#X connect 7 0 0 0;
#X connect 9 0 2 0;
#X connect 9 0 8 0;
#X connect 10 0 11 0;
#X connect 17 0 18 0;
#X connect 18 0 19 0;
#X connect 19 0 20 0;
#X connect 20 0 23 0;
#X coords 0 534 1 533 100 75 0;
