#N canvas 5 54 483 450 16;
#X obj 51 41 inlet~;
#X obj 161 41 inlet~;
#X obj 254 120 samplerate~;
#X msg 382 120 1;
#X obj 382 154 atan;
#X obj 382 188 * 8;
#X obj 51 391 outlet~;
#X obj 161 253 clip~ 0 1;
#X obj 161 221 expr~ 1-$v1*$f3/$f2;
#X obj 51 296 rpole~;
#X obj 51 338 rzero~ 1;
#X obj 254 86 loadbang;
#X text 331 384 .mmb;
#X connect 0 0 9 0;
#X connect 1 0 8 0;
#X connect 2 0 8 1;
#X connect 3 0 4 0;
#X connect 4 0 5 0;
#X connect 5 0 8 2;
#X connect 7 0 9 1;
#X connect 8 0 7 0;
#X connect 9 0 10 0;
#X connect 10 0 6 0;
#X connect 11 0 2 0;
#X connect 11 0 3 0;
