#N canvas 490 157 543 431 16;
#X obj 58 42 inlet~;
#X obj 59 272 rpole~;
#X obj 59 328 *~;
#X obj 59 366 outlet~;
#X obj 155 42 inlet~;
#X obj 282 78 samplerate~;
#X obj 282 44 loadbang;
#X obj 282 112 / 2;
#X obj 155 146 clip~ 0 22050;
#X text 458 146 2pi;
#X text 365 359 .mmb;
#X msg 416 78 1;
#X obj 416 112 atan;
#X obj 416 146 * 8;
#X obj 155 180 expr~ $v1/$f2*$f3;
#X obj 155 214 clip~ 0 1;
#X obj 155 248 expr~ 1-$v1;
#X connect 0 0 1 0;
#X connect 1 0 2 0;
#X connect 2 0 3 0;
#X connect 4 0 8 0;
#X connect 5 0 7 0;
#X connect 5 0 14 1;
#X connect 6 0 5 0;
#X connect 6 0 11 0;
#X connect 7 0 8 2;
#X connect 8 0 14 0;
#X connect 11 0 12 0;
#X connect 12 0 13 0;
#X connect 13 0 14 2;
#X connect 14 0 15 0;
#X connect 15 0 16 0;
#X connect 15 0 2 1;
#X connect 16 0 1 1;
