#N canvas 6 71 484 532 10;
#X obj 129 66 inlet;
#X obj 242 52 inlet;
#X obj 100 191 unpack f f;
#X obj 239 155 unpack f f;
#X obj 290 230 -;
#X obj 203 232 -;
#X obj 214 347 +;
#X obj 290 354 +;
#X floatatom 319 306 5 0 0 0 - - -;
#X floatatom 351 264 5 0 0 0 - - -;
#X floatatom 397 262 5 0 0 0 - - -;
#X floatatom 78 221 5 0 0 0 - - -;
#X floatatom 140 226 5 0 0 0 - - -;
#X floatatom 254 217 5 0 0 0 - - -;
#X floatatom 346 217 5 0 0 0 - - -;
#X floatatom 193 385 5 0 0 0 - - -;
#X obj 271 291 * 0.5;
#X obj 188 287 * 0.5;
#X obj 297 184 t b f;
#X obj 212 186 t b f;
#X obj 268 430 pack f f;
#X obj 267 468 outlet;
#X connect 0 0 2 0;
#X connect 1 0 3 0;
#X connect 2 0 5 0;
#X connect 2 0 11 0;
#X connect 2 1 4 0;
#X connect 2 1 12 0;
#X connect 3 0 19 0;
#X connect 3 1 18 0;
#X connect 4 0 10 0;
#X connect 4 0 16 0;
#X connect 5 0 9 0;
#X connect 5 0 17 0;
#X connect 6 0 15 0;
#X connect 6 0 20 0;
#X connect 7 0 20 1;
#X connect 8 0 7 1;
#X connect 8 0 6 1;
#X connect 16 0 7 0;
#X connect 17 0 6 0;
#X connect 18 0 4 0;
#X connect 18 1 7 1;
#X connect 18 1 4 1;
#X connect 18 1 14 0;
#X connect 19 0 5 0;
#X connect 19 1 5 1;
#X connect 19 1 13 0;
#X connect 19 1 6 1;
#X connect 20 0 21 0;
