#N canvas 124 115 1251 653 10;
#X floatatom 288 25 5 0 0 0 - - -;
#X floatatom 215 32 5 0 0 0 - - -;
#X obj 110 281 - 0;
#X obj 225 285 - 0;
#X obj 488 286 translateXYZ;
#X obj 170 191 spigot 0;
#X obj 292 185 spigot 0;
#X obj 139 139 t f f;
#X obj 236 138 t f f;
#X obj 390 116 &&;
#X obj 393 153 tgl 15 0 empty empty empty 17 7 0 10 -262144 -1 -1 0
1;
#X obj 435 76 inlet;
#X obj 183 466 outlet;
#X obj 268 457 outlet;
#X obj 60 62 loadbang;
#X obj 437 161 sel 0 1;
#X obj 366 63 t b f;
#X obj 268 426 pack f f 0;
#X obj 488 316 circle 0.03;
#X msg 531 205 0.03;
#X msg 551 176 0.045;
#X floatatom 372 299 5 0 0 0 - - -;
#X obj 153 375 pytagoras;
#X floatatom 110 427 5 0 0 0 - - -;
#X obj 652 52 tgl 15 0 empty empty empty 17 7 0 10 -262144 -1 -1 1
1;
#X obj 633 15 inlet;
#X obj 62 91 t b b;
#X obj 160 64 spigot 1;
#X obj 261 63 spigot 1;
#X obj 437 101 route float bang;
#X obj 482 137 t b b;
#X obj 217 -1 unpack f f;
#X obj 216 -25 route position b1;
#X obj 537 14 inlet;
#N canvas 81 241 627 396 mover 0;
#X obj 104 215 +;
#X obj 161 215 +;
#X obj 126 111 unpack f f;
#X obj 99 260 pack f f;
#X obj 128 50 inlet;
#X obj 284 73 inlet;
#X obj 339 179 unpack f f;
#X obj 105 295 outlet;
#X obj 113 167 f;
#X obj 177 166 f;
#X obj 292 116 route bang list;
#X connect 0 0 3 0;
#X connect 1 0 3 1;
#X connect 2 0 8 1;
#X connect 2 1 9 1;
#X connect 3 0 7 0;
#X connect 4 0 2 0;
#X connect 5 0 10 0;
#X connect 6 0 0 0;
#X connect 6 1 1 0;
#X connect 8 0 0 1;
#X connect 9 0 1 1;
#X connect 10 0 9 0;
#X connect 10 0 8 0;
#X connect 10 1 6 0;
#X restore 184 592 pd mover;
#X obj 187 517 pack f f;
#X obj 184 620 unpack f f;
#X obj 784 68 inlet;
#X obj 881 73 inlet;
#X obj 163 90 f;
#X obj 260 94 f;
#X obj 161 236 f;
#X obj 292 231 f;
#X obj 881 98 t b f;
#X obj 488 244 color 1 0 0;
#X obj 551 146 gemhead 100;
#X obj 558 116 tgl 15 0 empty empty empty 17 7 0 10 -262144 -1 -1 1
1;
#X obj 216 -52 r \$4-gmouse;
#X connect 2 0 22 0;
#X connect 3 0 22 1;
#X connect 4 0 18 0;
#X connect 5 0 41 0;
#X connect 6 0 42 0;
#X connect 7 0 2 0;
#X connect 7 1 5 0;
#X connect 8 0 3 0;
#X connect 8 1 6 0;
#X connect 9 0 6 1;
#X connect 9 0 5 1;
#X connect 9 0 10 0;
#X connect 11 0 9 1;
#X connect 11 0 29 0;
#X connect 14 0 26 0;
#X connect 15 0 19 0;
#X connect 15 1 20 0;
#X connect 16 0 40 0;
#X connect 16 0 39 0;
#X connect 16 1 9 0;
#X connect 17 0 13 0;
#X connect 19 0 18 1;
#X connect 20 0 18 1;
#X connect 22 0 12 0;
#X connect 22 0 23 0;
#X connect 25 0 24 0;
#X connect 25 0 46 0;
#X connect 25 0 28 1;
#X connect 25 0 27 1;
#X connect 26 0 41 0;
#X connect 26 1 42 0;
#X connect 27 0 39 0;
#X connect 28 0 40 0;
#X connect 29 0 15 0;
#X connect 29 1 30 0;
#X connect 30 0 41 0;
#X connect 30 1 42 0;
#X connect 31 0 27 0;
#X connect 31 0 1 0;
#X connect 31 1 28 0;
#X connect 31 1 0 0;
#X connect 32 0 31 0;
#X connect 32 1 16 0;
#X connect 33 0 34 1;
#X connect 34 0 36 0;
#X connect 35 0 34 0;
#X connect 36 0 41 0;
#X connect 36 1 42 0;
#X connect 37 0 41 0;
#X connect 38 0 43 0;
#X connect 39 0 7 0;
#X connect 40 0 8 0;
#X connect 41 0 2 1;
#X connect 41 0 4 1;
#X connect 41 0 17 0;
#X connect 41 0 35 0;
#X connect 42 0 3 1;
#X connect 42 0 4 2;
#X connect 42 0 17 1;
#X connect 42 0 21 0;
#X connect 42 0 35 1;
#X connect 43 0 41 0;
#X connect 43 1 42 0;
#X connect 44 0 4 0;
#X connect 45 0 44 0;
#X connect 46 0 45 0;
#X connect 47 0 32 0;
